<?xml version="1.0" standalone="no"?>
<!DOCTYPE svg PUBLIC "-//W3C//DTD SVG 1.1//EN" "http://www.w3.org/Graphics/SVG/1.1/DTD/svg11.dtd" >
<svg xmlns="http://www.w3.org/2000/svg" xmlns:xlink="http://www.w3.org/1999/xlink" version="1.1">
<metadata>
Created by FontForge 20161003 at Thu Feb 28 17:15:46 2019
 By www-data
Copyright (c) 2008 - 2009 Linotype GmbH, www.linotype.com. All rights reserved. This font software may not be reproduced, modified, disclosed or transferred without the express written approval of Linotype GmbH.
</metadata>
<defs>
<font id="DINNextLTPro-MediumCond" horiz-adv-x="398" >
  <font-face 
    font-family="DIN Next LT Pro"
    font-weight="500"
    font-stretch="condensed"
    units-per-em="1000"
    panose-1="2 11 6 6 2 2 3 5 2 3"
    ascent="750"
    descent="-250"
    x-height="482"
    cap-height="680"
    bbox="-92.617 -221 872 902"
    underline-thickness="50"
    underline-position="-100"
    stemh="90"
    stemv="72"
    unicode-range="U+0020-FB04"
  />
<missing-glyph horiz-adv-x="388" 
d="M0 10v660c0 6 4 10 10 10h368c6 0 10 -4 10 -10v-660c0 -6 -4 -10 -10 -10h-368c-6 0 -10 4 -10 10zM59 61c0 -4 2 -6 6 -6h259c4 0 6 2 6 6v558c0 4 -2 6 -6 6h-259c-4 0 -6 -2 -6 -6v-558zM168 224c-6 0 -10 4 -10 10v46c0 15 4 28 13 44l36 67c12 22 17 36 17 64
c0 14 -1 22 -3 28c-4 12 -14 20 -30 20c-15 0 -25 -8 -29 -20c-2 -6 -3 -14 -3 -41c0 -6 -5 -9 -11 -8l-46 4c-6 1 -9 5 -9 11c0 31 3 44 6 53c12 37 48 61 93 61c46 0 82 -24 94 -61c3 -9 6 -24 6 -44c0 -34 -6 -53 -21 -79l-35 -67c-6 -12 -10 -23 -10 -36v-42
c0 -6 -4 -10 -10 -10h-48zM158 124v58c0 6 4 10 10 10h48c6 0 10 -4 10 -10v-58c0 -6 -4 -10 -10 -10h-48c-6 0 -10 4 -10 10z" />
    <glyph glyph-name="napostrophe" unicode="&#x22;n" horiz-adv-x="405" 
d="M-7 511c-6 0 -9 3 -9 9v150c0 6 4 10 10 10h69c6 0 10 -4 10 -10v-57c0 -11 -2 -15 -7 -22l-60 -73c-4 -5 -8 -7 -13 -7zM348 0h-82c-6 0 -10 4 -10 10v317c0 47 -18 70 -52 70c-33 0 -51 -23 -51 -70v-317c0 -6 -4 -10 -10 -10h-82c-6 0 -10 4 -10 10v462
c0 6 4 10 10 10h82c6 0 10 -4 10 -10v-38h1c17 33 46 57 92 57c72 0 112 -45 112 -150v-331c0 -6 -4 -10 -10 -10z" />
    <glyph glyph-name="IJ" unicode="IJ" horiz-adv-x="567" 
d="M53 10v660c0 6 4 10 10 10h87c6 0 10 -4 10 -10v-660c0 -6 -4 -10 -10 -10h-87c-6 0 -10 4 -10 10zM229 36c-4 5 -4 10 1 14l59 54c5 4 9 4 15 -1c10 -9 24 -15 40 -15c41 0 65 23 65 79v503c0 6 4 10 10 10h87c6 0 10 -4 10 -10v-494c0 -130 -71 -185 -175 -185
c-47 0 -89 16 -112 45z" />
    <glyph glyph-name="ij" unicode="ij" horiz-adv-x="408" 
d="M143 574h-82c-6 0 -10 4 -10 10v86c0 6 4 10 10 10h82c6 0 10 -4 10 -10v-86c0 -6 -4 -10 -10 -10zM143 0h-82c-6 0 -10 4 -10 10v462c0 6 4 10 10 10h82c6 0 10 -4 10 -10v-462c0 -6 -4 -10 -10 -10zM347 574h-82c-6 0 -10 4 -10 10v86c0 6 4 10 10 10h82
c6 0 10 -4 10 -10v-86c0 -6 -4 -10 -10 -10zM215 -180h-15c-6 0 -10 4 -10 10v72c0 6 4 10 10 10l14 1c29 2 41 14 41 56v503c0 6 4 10 10 10h82c6 0 10 -4 10 -10v-508c0 -97 -43 -144 -142 -144z" />
    <glyph glyph-name="fi" unicode="fi" horiz-adv-x="460" 
d="M160 0h-82c-6 0 -10 4 -10 10v388c0 4 -2 6 -6 6h-29c-6 0 -10 4 -10 10v58c0 6 4 10 10 10h29c4 0 6 2 6 6v41c0 93 39 151 143 151h21c6 0 10 -4 10 -10v-74c0 -6 -4 -10 -10 -10h-25c-28 0 -37 -10 -37 -38v-60c0 -4 2 -6 6 -6h56c6 0 10 -4 10 -10v-58
c0 -6 -4 -10 -10 -10h-56c-4 0 -6 -2 -6 -6v-388c0 -6 -4 -10 -10 -10zM399 574h-82c-6 0 -10 4 -10 10v86c0 6 4 10 10 10h82c6 0 10 -4 10 -10v-86c0 -6 -4 -10 -10 -10zM399 0h-82c-6 0 -10 4 -10 10v462c0 6 4 10 10 10h82c6 0 10 -4 10 -10v-462c0 -6 -4 -10 -10 -10z
" />
    <glyph glyph-name="fl" unicode="fl" horiz-adv-x="489" 
d="M160 0h-82c-6 0 -10 4 -10 10v388c0 4 -2 6 -6 6h-29c-6 0 -10 4 -10 10v58c0 6 4 10 10 10h29c4 0 6 2 6 6v41c0 93 39 151 143 151h21c6 0 10 -4 10 -10v-74c0 -6 -4 -10 -10 -10h-25c-28 0 -37 -10 -37 -38v-60c0 -4 2 -6 6 -6h56c6 0 10 -4 10 -10v-58
c0 -6 -4 -10 -10 -10h-56c-4 0 -6 -2 -6 -6v-388c0 -6 -4 -10 -10 -10zM453 -6h-3c-106 3 -143 44 -143 146v530c0 6 4 10 10 10h82c6 0 10 -4 10 -10v-530c0 -32 13 -47 39 -52l5 -1c6 -1 10 -5 10 -11v-72c0 -6 -4 -10 -10 -10z" />
    <glyph glyph-name="f_f" unicode="ff" horiz-adv-x="512" 
d="M160 0h-82c-6 0 -10 4 -10 10v388c0 4 -2 6 -6 6h-29c-6 0 -10 4 -10 10v58c0 6 4 10 10 10h29c4 0 6 2 6 6v41c0 93 39 151 143 151h21c6 0 10 -4 10 -10v-74c0 -6 -4 -10 -10 -10h-25c-28 0 -37 -10 -37 -38v-60c0 -4 2 -6 6 -6h56c6 0 10 -4 10 -10v-58
c0 -6 -4 -10 -10 -10h-56c-4 0 -6 -2 -6 -6v-388c0 -6 -4 -10 -10 -10zM416 0h-82c-6 0 -10 4 -10 10v388c0 4 -2 6 -6 6h-29c-6 0 -10 4 -10 10v58c0 6 4 10 10 10h29c4 0 6 2 6 6v41c0 93 39 151 143 151h21c6 0 10 -4 10 -10v-74c0 -6 -4 -10 -10 -10h-25
c-28 0 -37 -10 -37 -38v-60c0 -4 2 -6 6 -6h56c6 0 10 -4 10 -10v-58c0 -6 -4 -10 -10 -10h-56c-4 0 -6 -2 -6 -6v-388c0 -6 -4 -10 -10 -10z" />
    <glyph glyph-name="f_f_i" unicode="ffi" horiz-adv-x="716" 
d="M160 0h-82c-6 0 -10 4 -10 10v388c0 4 -2 6 -6 6h-29c-6 0 -10 4 -10 10v58c0 6 4 10 10 10h29c4 0 6 2 6 6v41c0 93 39 151 143 151h21c6 0 10 -4 10 -10v-74c0 -6 -4 -10 -10 -10h-25c-28 0 -37 -10 -37 -38v-60c0 -4 2 -6 6 -6h56c6 0 10 -4 10 -10v-58
c0 -6 -4 -10 -10 -10h-56c-4 0 -6 -2 -6 -6v-388c0 -6 -4 -10 -10 -10zM416 0h-82c-6 0 -10 4 -10 10v388c0 4 -2 6 -6 6h-29c-6 0 -10 4 -10 10v58c0 6 4 10 10 10h29c4 0 6 2 6 6v41c0 93 39 151 143 151h21c6 0 10 -4 10 -10v-74c0 -6 -4 -10 -10 -10h-25
c-28 0 -37 -10 -37 -38v-60c0 -4 2 -6 6 -6h56c6 0 10 -4 10 -10v-58c0 -6 -4 -10 -10 -10h-56c-4 0 -6 -2 -6 -6v-388c0 -6 -4 -10 -10 -10zM655 574h-82c-6 0 -10 4 -10 10v86c0 6 4 10 10 10h82c6 0 10 -4 10 -10v-86c0 -6 -4 -10 -10 -10zM655 0h-82c-6 0 -10 4 -10 10
v462c0 6 4 10 10 10h82c6 0 10 -4 10 -10v-462c0 -6 -4 -10 -10 -10z" />
    <glyph glyph-name="f_f_l" unicode="ffl" horiz-adv-x="745" 
d="M160 0h-82c-6 0 -10 4 -10 10v388c0 4 -2 6 -6 6h-29c-6 0 -10 4 -10 10v58c0 6 4 10 10 10h29c4 0 6 2 6 6v41c0 93 39 151 143 151h21c6 0 10 -4 10 -10v-74c0 -6 -4 -10 -10 -10h-25c-28 0 -37 -10 -37 -38v-60c0 -4 2 -6 6 -6h56c6 0 10 -4 10 -10v-58
c0 -6 -4 -10 -10 -10h-56c-4 0 -6 -2 -6 -6v-388c0 -6 -4 -10 -10 -10zM416 0h-82c-6 0 -10 4 -10 10v388c0 4 -2 6 -6 6h-29c-6 0 -10 4 -10 10v58c0 6 4 10 10 10h29c4 0 6 2 6 6v41c0 93 39 151 143 151h21c6 0 10 -4 10 -10v-74c0 -6 -4 -10 -10 -10h-25
c-28 0 -37 -10 -37 -38v-60c0 -4 2 -6 6 -6h56c6 0 10 -4 10 -10v-58c0 -6 -4 -10 -10 -10h-56c-4 0 -6 -2 -6 -6v-388c0 -6 -4 -10 -10 -10zM709 -6h-3c-106 3 -143 44 -143 146v530c0 6 4 10 10 10h82c6 0 10 -4 10 -10v-530c0 -32 13 -47 39 -52l5 -1c6 -1 10 -5 10 -11
v-72c0 -6 -4 -10 -10 -10z" />
    <glyph glyph-name=".notdef" horiz-adv-x="388" 
d="M0 10v660c0 6 4 10 10 10h368c6 0 10 -4 10 -10v-660c0 -6 -4 -10 -10 -10h-368c-6 0 -10 4 -10 10zM59 61c0 -4 2 -6 6 -6h259c4 0 6 2 6 6v558c0 4 -2 6 -6 6h-259c-4 0 -6 -2 -6 -6v-558zM168 224c-6 0 -10 4 -10 10v46c0 15 4 28 13 44l36 67c12 22 17 36 17 64
c0 14 -1 22 -3 28c-4 12 -14 20 -30 20c-15 0 -25 -8 -29 -20c-2 -6 -3 -14 -3 -41c0 -6 -5 -9 -11 -8l-46 4c-6 1 -9 5 -9 11c0 31 3 44 6 53c12 37 48 61 93 61c46 0 82 -24 94 -61c3 -9 6 -24 6 -44c0 -34 -6 -53 -21 -79l-35 -67c-6 -12 -10 -23 -10 -36v-42
c0 -6 -4 -10 -10 -10h-48zM158 124v58c0 6 4 10 10 10h48c6 0 10 -4 10 -10v-58c0 -6 -4 -10 -10 -10h-48c-6 0 -10 4 -10 10z" />
    <glyph glyph-name=".null" horiz-adv-x="500" 
 />
    <glyph glyph-name="CR" horiz-adv-x="0" 
 />
    <glyph glyph-name="space" unicode=" " horiz-adv-x="194" 
 />
    <glyph glyph-name="exclam" unicode="!" horiz-adv-x="241" 
d="M97 170c-6 0 -10 4 -10 10l-22 490c0 6 4 10 10 10h91c6 0 10 -4 10 -10l-22 -490c0 -6 -4 -10 -10 -10h-47zM68 10v99c0 6 4 10 10 10h85c6 0 10 -4 10 -10v-99c0 -6 -4 -10 -10 -10h-85c-6 0 -10 4 -10 10z" />
    <glyph glyph-name="quotedbl" unicode="&#x22;" horiz-adv-x="278" 
d="M173 493c-6 0 -10 4 -10 10v167c0 6 4 10 10 10h55c6 0 10 -4 10 -10v-167c0 -6 -4 -10 -10 -10h-55zM50 493c-6 0 -10 4 -10 10v167c0 6 4 10 10 10h55c6 0 10 -4 10 -10v-167c0 -6 -4 -10 -10 -10h-55z" />
    <glyph glyph-name="numbersign" unicode="#" horiz-adv-x="509" 
d="M90 10l21 206h-50c-6 0 -10 4 -10 10v52c0 6 4 10 10 10h58l13 122h-52c-6 0 -10 4 -10 10v52c0 6 4 10 10 10h59l20 188c1 6 4 10 11 10h57c7 0 10 -4 9 -10l-20 -188h97l20 188c1 6 4 10 11 10h57c7 0 10 -4 9 -10l-20 -188h58c6 0 10 -4 10 -10v-52
c0 -6 -4 -10 -10 -10h-65l-13 -122h59c6 0 10 -4 10 -10v-52c0 -6 -4 -10 -10 -10h-67l-21 -206c-1 -6 -4 -10 -11 -10h-57c-7 0 -10 4 -9 10l21 206h-97l-21 -206c-1 -6 -4 -10 -11 -10h-57c-7 0 -10 4 -9 10zM196 288h97l13 122h-97z" />
    <glyph glyph-name="dollar" unicode="$" 
d="M35 165c0 6 2 10 8 11l75 13c8 1 11 -3 11 -9c1 -62 15 -89 50 -95v221l-28 11c-85 34 -110 84 -110 190c0 111 42 176 138 181v41c0 6 4 10 10 10h17c6 0 10 -4 10 -10v-41c91 -8 127 -66 135 -160c1 -7 -3 -10 -9 -11l-73 -11c-6 -1 -10 2 -11 8c-4 48 -14 72 -42 79
v-190l26 -10c83 -32 114 -81 114 -198c0 -134 -44 -196 -140 -203v-55c0 -6 -4 -10 -10 -10h-17c-6 0 -10 4 -10 10v55c-98 6 -140 63 -144 173zM179 419v175c-29 -6 -40 -32 -40 -83s6 -74 40 -92zM216 86c29 6 42 30 42 95c0 61 -11 90 -42 109v-204z" />
    <glyph glyph-name="percent" unicode="%" horiz-adv-x="674" 
d="M174 1l252 678c3 7 7 10 13 10h54c6 0 9 -4 7 -10l-252 -678c-3 -7 -7 -10 -13 -10h-54c-6 0 -9 4 -7 10zM161 328c-49 0 -81 23 -93 61c-7 21 -8 34 -8 118s1 98 8 118c12 38 44 61 93 61c50 0 81 -23 93 -61c7 -20 8 -34 8 -118s-1 -97 -8 -118
c-12 -38 -43 -61 -93 -61zM161 392c14 0 22 7 25 17c2 6 3 16 3 98c0 83 -1 92 -3 98c-3 10 -11 17 -25 17c-13 0 -22 -7 -25 -17c-2 -6 -3 -15 -3 -98c0 -82 1 -92 3 -98c3 -10 12 -17 25 -17zM420 55c-7 20 -8 34 -8 118s1 97 8 118c12 38 43 61 93 61c49 0 81 -23 93 -61
c7 -21 8 -34 8 -118s-1 -98 -8 -118c-12 -38 -44 -61 -93 -61c-50 0 -81 23 -93 61zM488 75c3 -10 11 -17 25 -17c13 0 22 7 25 17c2 6 3 15 3 98c0 82 -1 92 -3 98c-3 10 -12 17 -25 17c-14 0 -22 -7 -25 -17c-2 -6 -3 -16 -3 -98c0 -83 1 -92 3 -98z" />
    <glyph glyph-name="ampersand" unicode="&#x26;" horiz-adv-x="553" 
d="M63 143c0 67 42 128 121 220c-54 88 -75 134 -75 185c0 85 61 141 145 141s145 -56 145 -141c0 -48 -19 -97 -102 -194l71 -119l45 77c3 5 7 7 13 3l55 -31c5 -3 6 -8 3 -14l-67 -117l23 -38c12 -21 19 -25 32 -25h3c6 0 10 -4 10 -10v-70c0 -6 -4 -10 -10 -10h-30
c-38 0 -51 10 -68 38l-16 26c-41 -52 -86 -73 -145 -73c-96 0 -153 60 -153 152zM249 437c49 57 58 81 58 114c0 37 -19 58 -52 58s-52 -21 -52 -58c0 -19 7 -46 46 -114zM158 145c0 -42 26 -67 64 -67c30 0 56 14 92 66l-82 137c-51 -60 -74 -97 -74 -136z" />
    <glyph glyph-name="quotesingle" unicode="'" horiz-adv-x="155" 
d="M50 493c-6 0 -10 4 -10 10v167c0 6 4 10 10 10h55c6 0 10 -4 10 -10v-167c0 -6 -4 -10 -10 -10h-55z" />
    <glyph glyph-name="parenleft" unicode="(" horiz-adv-x="271" 
d="M161 -74c-62 120 -96 265 -96 402s34 282 96 402c2 6 7 10 13 10h49c6 0 9 -4 7 -10c-40 -121 -63 -265 -63 -402s23 -281 63 -402c2 -6 -1 -10 -7 -10h-49c-6 0 -11 4 -13 10z" />
    <glyph glyph-name="parenright" unicode=")" horiz-adv-x="271" 
d="M41 -74c40 121 63 265 63 402s-23 281 -63 402c-2 6 1 10 7 10h50c6 0 10 -4 13 -10c61 -120 95 -265 95 -402s-34 -282 -95 -402c-3 -6 -7 -10 -13 -10h-50c-6 0 -9 4 -7 10z" />
    <glyph glyph-name="asterisk" unicode="*" horiz-adv-x="328" 
d="M144 392c-6 0 -10 4 -10 10l1 84l-59 -36c-5 -3 -10 -1 -13 4l-20 35c-3 5 -2 11 3 14l59 33l-59 33c-5 3 -6 9 -3 14l20 35c3 5 8 7 13 4l59 -36l-1 84c0 6 4 10 10 10h40c6 0 10 -4 10 -10l-2 -84l60 36c5 3 10 1 13 -4l20 -35c3 -5 2 -11 -3 -14l-60 -33l60 -33
c5 -3 6 -9 3 -14l-20 -35c-3 -5 -8 -7 -13 -4l-60 35l2 -83c0 -6 -4 -10 -10 -10h-40z" />
    <glyph glyph-name="plus" unicode="+" 
d="M153 123v102c0 4 -2 6 -6 6h-101c-6 0 -10 4 -10 10v70c0 6 4 10 10 10h101c4 0 6 2 6 6v102c0 6 4 10 10 10h73c6 0 10 -4 10 -10v-102c0 -4 2 -6 6 -6h100c6 0 10 -4 10 -10v-70c0 -6 -4 -10 -10 -10h-100c-4 0 -6 -2 -6 -6v-102c0 -6 -4 -10 -10 -10h-73
c-6 0 -10 4 -10 10z" />
    <glyph glyph-name="comma" unicode="," horiz-adv-x="191" 
d="M46 -93v202c0 6 4 10 10 10h79c6 0 10 -4 10 -10v-82c0 -13 -2 -20 -8 -28l-71 -95c-3 -4 -6 -6 -11 -6c-6 0 -9 4 -9 9z" />
    <glyph glyph-name="hyphen" unicode="-" horiz-adv-x="368" 
d="M52 218c-6 0 -10 4 -10 10v75c0 6 4 10 10 10h264c6 0 10 -4 10 -10v-75c0 -6 -4 -10 -10 -10h-264z" />
    <glyph glyph-name="period" unicode="." horiz-adv-x="197" 
d="M46 10v99c0 6 4 10 10 10h85c6 0 10 -4 10 -10v-99c0 -6 -4 -10 -10 -10h-85c-6 0 -10 4 -10 10z" />
    <glyph glyph-name="slash" unicode="/" horiz-adv-x="245" 
d="M21 1l125 678c1 6 5 10 11 10h57c6 0 10 -4 9 -10l-125 -678c-1 -7 -5 -10 -11 -10h-57c-6 0 -10 4 -9 10z" />
    <glyph glyph-name="zero" unicode="0" 
d="M57 84c-7 23 -11 46 -11 256s4 233 11 256c19 60 70 93 142 93s123 -33 143 -93c7 -23 10 -46 10 -256s-3 -233 -10 -256c-20 -60 -71 -93 -143 -93s-123 33 -142 93zM154 115c6 -18 20 -31 45 -31s40 13 46 31c4 13 5 26 5 225s-1 212 -5 225c-6 18 -21 31 -46 31
s-39 -13 -45 -31c-4 -13 -6 -26 -6 -225s2 -212 6 -225z" />
    <glyph glyph-name="one" unicode="1" 
d="M167 10v552h-2l-85 -60c-5 -4 -11 -2 -11 6v85c0 7 2 11 10 17l87 64c6 4 11 6 18 6h75c6 0 10 -4 10 -10v-660c0 -6 -4 -10 -10 -10h-82c-6 0 -10 4 -10 10z" />
    <glyph glyph-name="two" unicode="2" 
d="M49 10v71c0 7 1 11 5 20l169 304c19 33 26 58 26 112c0 27 -1 36 -4 46c-7 21 -22 33 -47 33s-39 -12 -46 -33c-3 -10 -4 -19 -4 -62c0 -8 -5 -11 -12 -10l-78 7c-6 1 -9 5 -9 12c0 42 2 65 8 84c20 60 68 95 143 95s122 -34 142 -94c6 -19 9 -43 9 -78
c0 -75 -13 -112 -42 -163l-149 -260v-1h181c6 0 10 -4 10 -10v-73c0 -6 -4 -10 -10 -10h-282c-6 0 -10 4 -10 10z" />
    <glyph glyph-name="three" unicode="3" 
d="M56 86c-6 19 -9 42 -9 78c0 7 3 11 10 12l77 7c7 1 12 -2 12 -10c0 -37 1 -46 4 -56c7 -21 22 -33 46 -33c25 0 40 11 47 32c3 10 4 21 4 79c0 64 -1 73 -4 81c-7 22 -24 30 -50 30h-15c-6 0 -10 4 -10 10v72c0 6 4 10 10 10h15c26 0 43 7 50 29c3 8 4 18 4 73
c0 43 -1 54 -4 64c-7 21 -22 32 -47 32c-24 0 -39 -12 -46 -33c-3 -10 -4 -19 -4 -56c0 -8 -5 -11 -12 -10l-77 7c-7 1 -10 5 -10 12c0 36 3 59 9 78c19 60 67 95 141 95c77 0 123 -33 143 -93c6 -19 9 -45 9 -96c0 -54 -2 -71 -7 -86c-8 -26 -25 -43 -49 -58v-2
c24 -15 41 -32 49 -58c5 -15 7 -32 7 -101c0 -66 -3 -92 -9 -111c-20 -60 -67 -93 -143 -93c-74 0 -122 35 -141 95z" />
    <glyph glyph-name="four" unicode="4" 
d="M34 101c-6 0 -10 4 -10 10v72c0 4 1 8 2 11l140 478c2 6 5 8 12 8h83c6 0 10 -4 8 -11l-140 -473v-2h86c4 0 6 2 6 6v180c0 6 4 10 10 10h82c6 0 10 -4 10 -10v-180c0 -4 1 -6 5 -6h34c6 0 10 -4 10 -10v-73c0 -6 -4 -10 -10 -10h-33c-4 0 -6 -2 -6 -6v-85
c0 -6 -4 -10 -10 -10h-82c-6 0 -10 4 -10 10v85c0 4 -2 6 -6 6h-181z" />
    <glyph glyph-name="five" unicode="5" 
d="M57 86c-6 19 -8 42 -8 68c0 7 3 11 9 12l78 8c7 1 12 -2 12 -10c0 -28 1 -37 4 -47c7 -21 21 -33 46 -33s40 11 47 32c3 9 4 21 4 101s-1 91 -4 100c-7 22 -23 32 -47 32c-25 0 -39 -12 -46 -30c-3 -7 -7 -9 -15 -9h-68c-6 0 -10 4 -10 10v350c0 6 4 10 10 10h272
c6 0 10 -4 10 -10v-73c0 -6 -4 -10 -10 -10h-184c-4 0 -6 -2 -6 -6v-166h1c15 16 42 28 73 28c62 0 99 -27 116 -80c7 -22 10 -44 10 -146c0 -88 -3 -113 -9 -132c-20 -60 -68 -94 -143 -94c-74 0 -122 35 -142 95z" />
    <glyph glyph-name="six" unicode="6" 
d="M56 87c-6 19 -9 41 -9 111c0 94 7 130 32 193l107 279c3 7 7 10 14 10h83c7 0 10 -4 7 -11l-104 -270l2 -2c5 3 18 6 34 6c66 0 101 -33 120 -91c6 -19 10 -47 10 -114c0 -70 -3 -92 -9 -111c-20 -60 -69 -96 -144 -96s-124 36 -143 96zM153 117c7 -21 22 -33 46 -33
s40 12 47 33c3 10 4 19 4 81c0 61 -1 70 -4 79c-7 22 -23 33 -47 33s-39 -11 -46 -33c-3 -9 -4 -18 -4 -79c0 -62 1 -71 4 -81z" />
    <glyph glyph-name="seven" unicode="7" 
d="M82 13l169 572v2h-104c-4 0 -6 -2 -6 -6v-64c0 -6 -4 -10 -10 -10h-74c-6 0 -10 4 -10 10v153c0 6 4 10 10 10h286c6 0 10 -4 10 -10v-74c0 -4 -1 -8 -2 -11l-167 -575c-2 -7 -5 -10 -13 -10h-83c-6 0 -9 4 -6 13z" />
    <glyph glyph-name="eight" unicode="8" 
d="M56 87c-6 19 -9 40 -9 110c0 56 2 75 9 96c8 25 22 47 44 62v2c-22 15 -36 37 -44 62c-7 21 -9 41 -9 81c0 52 3 74 9 93c19 60 68 96 143 96s124 -36 144 -96c6 -19 9 -41 9 -93c0 -40 -2 -60 -9 -81c-8 -25 -22 -47 -44 -62v-2c21 -15 36 -37 44 -62c7 -21 9 -40 9 -96
c0 -70 -3 -91 -9 -110c-20 -60 -69 -96 -144 -96s-124 36 -143 96zM199 403c24 0 40 11 47 33c3 9 4 18 4 64c0 44 -1 53 -4 63c-7 21 -23 33 -47 33s-39 -12 -46 -33c-3 -10 -4 -19 -4 -63c0 -46 1 -55 4 -64c7 -22 22 -33 46 -33zM153 117c7 -21 22 -33 46 -33
s40 12 47 33c3 10 4 18 4 80s-1 70 -4 79c-7 22 -23 33 -47 33s-39 -11 -46 -33c-3 -9 -4 -17 -4 -79s1 -70 4 -80z" />
    <glyph glyph-name="nine" unicode="9" 
d="M109 11l103 270l-2 2c-5 -3 -17 -6 -34 -6c-65 0 -101 33 -119 91c-6 19 -10 47 -10 114c0 70 3 92 9 111c19 60 68 96 143 96s124 -36 144 -96c6 -19 9 -41 9 -111c0 -94 -8 -130 -32 -193l-107 -279c-3 -7 -7 -10 -14 -10h-83c-7 0 -10 4 -7 11zM199 370
c24 0 40 11 47 33c3 9 4 18 4 79c0 62 -1 71 -4 81c-7 21 -23 33 -47 33s-39 -12 -46 -33c-3 -10 -4 -19 -4 -81c0 -61 1 -70 4 -79c7 -22 22 -33 46 -33z" />
    <glyph glyph-name="colon" unicode=":" horiz-adv-x="213" 
d="M64 363c-6 0 -10 4 -10 10v99c0 6 4 10 10 10h85c6 0 10 -4 10 -10v-99c0 -6 -4 -10 -10 -10h-85zM54 10v99c0 6 4 10 10 10h85c6 0 10 -4 10 -10v-99c0 -6 -4 -10 -10 -10h-85c-6 0 -10 4 -10 10z" />
    <glyph glyph-name="semicolon" unicode=";" horiz-adv-x="213" 
d="M64 363c-6 0 -10 4 -10 10v99c0 6 4 10 10 10h85c6 0 10 -4 10 -10v-99c0 -6 -4 -10 -10 -10h-85zM57 -93v202c0 6 4 10 10 10h79c6 0 10 -4 10 -10v-82c0 -13 -2 -20 -8 -28l-71 -95c-3 -4 -6 -6 -11 -6c-6 0 -9 4 -9 9z" />
    <glyph glyph-name="less" unicode="&#x3c;" 
d="M46 231c-7 3 -10 8 -10 15v60c0 7 3 12 10 15l306 123c6 2 10 -1 10 -7v-74c0 -6 -2 -10 -10 -13l-191 -73v-2l191 -73c8 -3 10 -7 10 -13v-74c0 -6 -4 -9 -10 -7z" />
    <glyph glyph-name="equal" unicode="=" 
d="M46 328c-6 0 -10 4 -10 10v69c0 6 4 10 10 10h306c6 0 10 -4 10 -10v-69c0 -6 -4 -10 -10 -10h-306zM46 135c-6 0 -10 4 -10 10v69c0 6 4 10 10 10h306c6 0 10 -4 10 -10v-69c0 -6 -4 -10 -10 -10h-306z" />
    <glyph glyph-name="greater" unicode="&#x3e;" 
d="M46 108c-6 -2 -10 1 -10 7v74c0 6 2 10 10 13l192 73v2l-192 73c-8 3 -10 7 -10 13v74c0 6 4 9 10 7l306 -123c7 -3 10 -8 10 -15v-60c0 -7 -3 -12 -10 -15z" />
    <glyph glyph-name="question" unicode="?" horiz-adv-x="391" 
d="M140 170c-6 0 -10 4 -10 10v75c0 24 6 44 19 68l56 103c17 32 25 55 25 102c0 16 -1 26 -4 36c-7 21 -22 32 -46 32c-25 0 -39 -11 -47 -32c-3 -10 -4 -20 -4 -63c0 -8 -5 -11 -11 -10l-78 7c-7 1 -10 5 -10 12c0 49 3 67 9 84c20 59 74 95 143 95c75 0 122 -39 141 -95
c6 -18 9 -37 9 -66c0 -51 -9 -81 -28 -118l-56 -105c-10 -19 -16 -35 -16 -55v-70c0 -6 -4 -10 -10 -10h-82zM129 10v99c0 6 4 10 10 10h84c6 0 10 -4 10 -10v-99c0 -6 -4 -10 -10 -10h-84c-6 0 -10 4 -10 10z" />
    <glyph glyph-name="at" unicode="@" horiz-adv-x="661" 
d="M50 72c-12 36 -19 77 -19 196s7 160 19 196c41 124 145 196 281 196c135 0 239 -72 280 -196c12 -36 19 -77 19 -196c0 -83 -3 -107 -10 -128c-19 -58 -62 -81 -114 -81c-49 0 -89 22 -107 65h-1c-17 -44 -41 -65 -95 -65c-46 0 -77 21 -91 66c-7 20 -10 46 -10 139
s3 119 10 139c14 45 44 66 89 66c38 0 61 -18 73 -45h2v28c0 6 4 10 10 10h64c6 0 10 -4 10 -10v-263c0 -39 17 -57 46 -57c21 0 36 10 42 30c3 9 4 18 4 106c0 119 -6 150 -15 178c-29 90 -104 142 -206 142c-103 0 -178 -52 -207 -142c-9 -28 -15 -59 -15 -178
s6 -150 15 -178c29 -89 104 -142 207 -142c65 0 113 15 152 43c5 3 10 2 14 -3l28 -39c3 -5 2 -11 -3 -14c-55 -39 -116 -59 -191 -59c-136 0 -240 72 -281 196zM289 166c7 -19 21 -29 42 -29c20 0 35 10 41 29c3 9 4 21 4 98s-1 89 -4 98c-6 19 -21 29 -41 29
c-21 0 -35 -10 -42 -29c-3 -9 -4 -21 -4 -98s1 -89 4 -98z" />
    <glyph glyph-name="A" unicode="A" horiz-adv-x="421" 
d="M12 10l147 660c2 6 5 10 11 10h84c6 0 10 -4 11 -10l144 -660c1 -6 -2 -10 -8 -10h-85c-7 0 -10 4 -11 10l-27 137h-135l-27 -137c-1 -6 -4 -10 -11 -10h-85c-6 0 -9 4 -8 10zM160 237h101l-48 253h-3z" />
    <glyph glyph-name="B" unicode="B" horiz-adv-x="427" 
d="M53 10v660c0 6 4 10 10 10h149c122 0 176 -55 176 -176c0 -84 -29 -125 -79 -147v-2c51 -15 87 -65 87 -155c0 -151 -66 -200 -198 -200h-135c-6 0 -10 4 -10 10zM166 396h36c59 0 79 18 79 93s-20 94 -79 94h-36c-4 0 -6 -2 -6 -6v-175c0 -4 2 -6 6 -6zM160 103
c0 -4 2 -6 6 -6h36c64 0 86 24 86 104s-22 103 -86 103h-36c-4 0 -6 -2 -6 -6v-195z" />
    <glyph glyph-name="C" unicode="C" horiz-adv-x="387" 
d="M54 95c-9 28 -13 56 -13 245s4 217 13 245c21 65 71 104 154 104c97 0 158 -50 164 -163c1 -6 -1 -11 -7 -12l-81 -14c-6 -1 -11 2 -11 9c-3 58 -23 83 -62 83c-30 0 -46 -13 -54 -38c-5 -16 -7 -30 -7 -214s2 -198 7 -214c8 -25 24 -38 54 -38c39 0 59 25 62 83
c0 7 5 10 11 9l81 -14c6 -1 8 -6 7 -12c-6 -113 -67 -163 -164 -163c-83 0 -133 39 -154 104z" />
    <glyph glyph-name="D" unicode="D" horiz-adv-x="443" 
d="M53 10v660c0 6 4 10 10 10h157c89 0 141 -36 165 -109c12 -37 17 -83 17 -231s-5 -194 -17 -231c-24 -73 -76 -109 -165 -109h-157c-6 0 -10 4 -10 10zM160 103c0 -4 2 -6 6 -6h43c38 0 60 15 72 49c8 25 12 58 12 194s-4 169 -12 194c-12 34 -34 49 -72 49h-43
c-4 0 -6 -2 -6 -6v-474z" />
    <glyph glyph-name="E" unicode="E" horiz-adv-x="381" 
d="M53 10v660c0 6 4 10 10 10h279c6 0 10 -4 10 -10v-77c0 -6 -4 -10 -10 -10h-176c-4 0 -6 -2 -6 -6v-179c0 -4 2 -6 6 -6h152c6 0 10 -4 10 -10v-77c0 -6 -4 -10 -10 -10h-152c-4 0 -6 -2 -6 -6v-186c0 -4 2 -6 6 -6h176c6 0 10 -4 10 -10v-77c0 -6 -4 -10 -10 -10h-279
c-6 0 -10 4 -10 10z" />
    <glyph glyph-name="F" unicode="F" horiz-adv-x="376" 
d="M53 10v660c0 6 4 10 10 10h279c6 0 10 -4 10 -10v-77c0 -6 -4 -10 -10 -10h-176c-4 0 -6 -2 -6 -6v-184c0 -4 2 -6 6 -6h152c6 0 10 -4 10 -10v-77c0 -6 -4 -10 -10 -10h-152c-4 0 -6 -2 -6 -6v-274c0 -6 -4 -10 -10 -10h-87c-6 0 -10 4 -10 10z" />
    <glyph glyph-name="G" unicode="G" horiz-adv-x="426" 
d="M54 97c-10 30 -13 54 -13 243s3 213 13 243c22 67 77 106 161 106c98 0 158 -52 169 -159c1 -6 -3 -11 -8 -12l-81 -14c-6 -1 -10 2 -11 8c-5 53 -28 80 -68 80c-29 0 -52 -15 -59 -38c-6 -19 -7 -27 -7 -214s1 -195 7 -214c7 -23 32 -38 60 -38c29 0 54 15 61 38
c5 17 7 27 7 153c0 4 -2 6 -6 6h-53c-6 0 -10 4 -10 10v74c0 6 4 10 10 10h152c6 0 10 -4 10 -10v-30c0 -188 -3 -212 -13 -242c-22 -67 -77 -106 -160 -106c-84 0 -139 39 -161 106z" />
    <glyph glyph-name="H" unicode="H" horiz-adv-x="447" 
d="M53 10v660c0 6 4 10 10 10h87c6 0 10 -4 10 -10v-268c0 -4 2 -6 6 -6h115c4 0 6 2 6 6v268c0 6 4 10 10 10h87c6 0 10 -4 10 -10v-660c0 -6 -4 -10 -10 -10h-87c-6 0 -10 4 -10 10v283c0 4 -2 6 -6 6h-115c-4 0 -6 -2 -6 -6v-283c0 -6 -4 -10 -10 -10h-87
c-6 0 -10 4 -10 10z" />
    <glyph glyph-name="I" unicode="I" horiz-adv-x="213" 
d="M53 10v660c0 6 4 10 10 10h87c6 0 10 -4 10 -10v-660c0 -6 -4 -10 -10 -10h-87c-6 0 -10 4 -10 10z" />
    <glyph glyph-name="J" unicode="J" horiz-adv-x="354" 
d="M16 36c-4 5 -4 10 1 14l59 54c5 4 9 4 15 -1c10 -9 24 -15 40 -15c41 0 65 23 65 79v503c0 6 4 10 10 10h87c6 0 10 -4 10 -10v-494c0 -130 -71 -185 -175 -185c-47 0 -89 16 -112 45z" />
    <glyph glyph-name="K" unicode="K" horiz-adv-x="441" 
d="M53 10v660c0 6 4 10 10 10h87c6 0 10 -4 10 -10v-281l137 283c3 6 6 8 13 8h91c5 0 8 -5 5 -10l-136 -265l157 -395c2 -5 0 -10 -5 -10h-93c-6 0 -9 2 -11 7l-113 287l-45 -93v-191c0 -6 -4 -10 -10 -10h-87c-6 0 -10 4 -10 10z" />
    <glyph glyph-name="L" unicode="L" horiz-adv-x="372" 
d="M53 10v660c0 6 4 10 10 10h87c6 0 10 -4 10 -10v-567c0 -4 2 -6 6 -6h176c6 0 10 -4 10 -10v-77c0 -6 -4 -10 -10 -10h-279c-6 0 -10 4 -10 10z" />
    <glyph glyph-name="M" unicode="M" horiz-adv-x="558" 
d="M53 10v660c0 6 4 10 10 10h87c9 0 14 -3 16 -10l113 -383h4l110 383c2 7 7 10 16 10h86c6 0 10 -4 10 -10v-660c0 -6 -4 -10 -10 -10h-77c-6 0 -10 4 -10 10v430h-6l-88 -309c-2 -6 -6 -10 -13 -10h-44c-7 0 -11 4 -13 10l-88 309h-6v-430c0 -6 -4 -10 -10 -10h-77
c-6 0 -10 4 -10 10z" />
    <glyph glyph-name="N" unicode="N" horiz-adv-x="461" 
d="M53 10v660c0 6 4 10 10 10h106c8 0 12 -3 14 -10l126 -470h5v470c0 6 4 10 10 10h74c6 0 10 -4 10 -10v-660c0 -6 -4 -10 -10 -10h-99c-8 0 -12 3 -14 10l-132 470h-6v-470c0 -6 -4 -10 -10 -10h-74c-6 0 -10 4 -10 10z" />
    <glyph glyph-name="O" unicode="O" horiz-adv-x="429" 
d="M215 -9c-84 0 -139 39 -161 106c-10 30 -13 54 -13 243s3 213 13 243c22 67 77 106 161 106c83 0 138 -39 160 -106c10 -30 13 -54 13 -243s-3 -213 -13 -243c-22 -67 -77 -106 -160 -106zM215 88c28 0 50 15 57 38c6 19 7 27 7 214s-1 195 -7 214c-7 23 -29 38 -57 38
c-29 0 -51 -15 -58 -38c-6 -19 -7 -27 -7 -214s1 -195 7 -214c7 -23 29 -38 58 -38z" />
    <glyph glyph-name="P" unicode="P" horiz-adv-x="425" 
d="M150 0h-87c-6 0 -10 4 -10 10v660c0 6 4 10 10 10h137c121 0 193 -54 193 -209c0 -151 -72 -209 -193 -209h-34c-4 0 -6 -2 -6 -6v-246c0 -6 -4 -10 -10 -10zM200 359c61 0 86 26 86 112s-25 112 -86 112h-34c-4 0 -6 -2 -6 -6v-212c0 -4 2 -6 6 -6h34z" />
    <glyph glyph-name="Q" unicode="Q" horiz-adv-x="429" 
d="M419 35l-43 -53c-4 -4 -10 -4 -14 0l-47 40c-27 -21 -59 -31 -100 -31c-84 0 -139 39 -161 106c-10 30 -13 54 -13 243s3 213 13 243c22 67 77 106 161 106c83 0 138 -39 160 -106c10 -30 13 -54 13 -243s-5 -215 -21 -250l50 -41c5 -4 5 -10 2 -14zM215 87
c12 0 24 2 30 4l-50 41c-5 4 -5 10 -2 14l34 41c4 5 10 6 15 1l38 -34h2v186c0 187 -3 195 -9 214c-7 23 -30 38 -58 38c-29 0 -52 -15 -59 -38c-6 -19 -7 -27 -7 -214s1 -196 7 -214c7 -24 30 -39 59 -39z" />
    <glyph glyph-name="R" unicode="R" horiz-adv-x="436" 
d="M404 0h-93c-6 0 -9 2 -11 7l-83 271h-17h-34c-4 0 -6 -2 -6 -6v-262c0 -6 -4 -10 -10 -10h-87c-6 0 -10 4 -10 10v660c0 6 4 10 10 10h137c121 0 194 -53 194 -202c0 -89 -30 -145 -81 -174l96 -294c2 -5 0 -10 -5 -10zM201 373c60 0 86 24 86 105c0 80 -26 105 -86 105
h-35c-4 0 -6 -2 -6 -6v-198c0 -4 2 -6 6 -6h35z" />
    <glyph glyph-name="S" unicode="S" horiz-adv-x="404" 
d="M375 195c0 -134 -45 -204 -174 -204c-110 0 -167 59 -170 178c0 6 2 10 8 11l84 14c7 1 11 -3 11 -9c3 -72 24 -100 70 -100c43 0 64 23 64 97c0 73 -14 97 -67 118l-41 16c-94 37 -122 86 -122 192c0 117 53 181 165 181s161 -60 167 -166c0 -6 -3 -9 -9 -11l-80 -12
c-6 -1 -11 2 -11 8c-2 56 -20 87 -64 87c-42 0 -62 -26 -62 -82c0 -63 12 -82 66 -103l41 -16c89 -35 124 -83 124 -199z" />
    <glyph glyph-name="T" unicode="T" horiz-adv-x="375" 
d="M231 0h-87c-6 0 -10 4 -10 10v567c0 4 -2 6 -6 6h-104c-6 0 -10 4 -10 10v77c0 6 4 10 10 10h327c6 0 10 -4 10 -10v-77c0 -6 -4 -10 -10 -10h-104c-4 0 -6 -2 -6 -6v-567c0 -6 -4 -10 -10 -10z" />
    <glyph glyph-name="U" unicode="U" horiz-adv-x="443" 
d="M222 -9c-105 0 -170 61 -170 182v497c0 6 4 10 10 10h87c6 0 10 -4 10 -10v-511c0 -43 23 -71 63 -71s62 28 62 71v511c0 6 4 10 10 10h87c6 0 10 -4 10 -10v-497c0 -121 -64 -182 -169 -182z" />
    <glyph glyph-name="V" unicode="V" horiz-adv-x="401" 
d="M239 0h-77c-6 0 -9 4 -10 10l-135 660c-1 6 1 10 9 10h86c6 0 9 -3 10 -10l79 -459h3l76 459c1 7 5 10 11 10h84c8 0 10 -4 9 -10l-135 -660c-1 -6 -4 -10 -10 -10z" />
    <glyph glyph-name="W" unicode="W" horiz-adv-x="579" 
d="M445 0h-74c-6 0 -9 4 -10 10l-69 437h-2l-72 -437c-1 -6 -4 -10 -10 -10h-75c-6 0 -9 4 -10 10l-105 660c-1 6 1 10 9 10h86c6 0 10 -3 11 -10l49 -443h3l73 443c1 7 5 10 11 10h59c6 0 10 -3 11 -10l73 -443h3l52 443c1 7 5 10 11 10h83c8 0 10 -4 9 -10l-106 -660
c-1 -6 -4 -10 -10 -10z" />
    <glyph glyph-name="X" unicode="X" horiz-adv-x="402" 
d="M380 0h-88c-6 0 -9 4 -11 10l-79 216h-2l-79 -216c-2 -6 -5 -10 -11 -10h-88c-6 0 -10 4 -8 10l133 345l-121 315c-2 6 2 10 8 10h88c6 0 9 -4 11 -10l67 -193h2l67 193c2 6 5 10 11 10h88c6 0 10 -4 8 -10l-122 -315l134 -345c2 -6 -2 -10 -8 -10z" />
    <glyph glyph-name="Y" unicode="Y" horiz-adv-x="386" 
d="M237 0h-87c-6 0 -10 4 -10 10v269l-130 391c-2 6 0 10 8 10h88c7 0 10 -3 12 -10l76 -263h3l74 263c2 7 5 10 12 10h86c8 0 10 -4 8 -10l-130 -391v-269c0 -6 -4 -10 -10 -10z" />
    <glyph glyph-name="Z" unicode="Z" horiz-adv-x="370" 
d="M326 0h-281c-6 0 -10 4 -10 10v72c0 4 1 7 2 10l187 489v2h-169c-6 0 -10 4 -10 10v77c0 6 4 10 10 10h271c6 0 10 -4 10 -10v-74c0 -4 -1 -7 -2 -10l-184 -487v-2h176c6 0 10 -4 10 -10v-77c0 -6 -4 -10 -10 -10z" />
    <glyph glyph-name="bracketleft" unicode="[" horiz-adv-x="247" 
d="M197 -84h-135c-6 0 -10 4 -10 10v804c0 6 4 10 10 10h135c6 0 10 -4 10 -10v-63c0 -6 -4 -10 -10 -10h-46c-4 0 -6 -2 -6 -6v-646c0 -4 2 -6 6 -6h46c6 0 10 -4 10 -10v-63c0 -6 -4 -10 -10 -10z" />
    <glyph glyph-name="backslash" unicode="\" horiz-adv-x="245" 
d="M214 -9h-57c-6 0 -10 3 -11 10l-125 678c-1 6 3 10 9 10h57c6 0 10 -4 11 -10l125 -678c1 -6 -3 -10 -9 -10z" />
    <glyph glyph-name="bracketright" unicode="]" horiz-adv-x="247" 
d="M185 -84h-135c-6 0 -10 4 -10 10v63c0 6 4 10 10 10h45c4 0 6 2 6 6v646c0 4 -2 6 -6 6h-45c-6 0 -10 4 -10 10v63c0 6 4 10 10 10h135c6 0 10 -4 10 -10v-804c0 -6 -4 -10 -10 -10z" />
    <glyph glyph-name="asciicircum" unicode="^" horiz-adv-x="408" 
d="M364 263h-74c-6 0 -10 3 -13 10l-72 263h-2l-71 -263c-3 -7 -7 -10 -13 -10h-75c-6 0 -9 4 -7 10l122 397c2 6 7 10 14 10h62c7 0 12 -4 14 -10l122 -397c2 -6 -1 -10 -7 -10z" />
    <glyph glyph-name="underscore" unicode="_" horiz-adv-x="411" 
d="M411 -128h-411v57h411v-57z" />
    <glyph glyph-name="grave" unicode="`" horiz-adv-x="415" 
d="M287 555h-57c-8 0 -12 2 -18 10l-90 125c-4 5 -1 10 5 10h81c8 0 12 -3 16 -10l69 -125c3 -6 0 -10 -6 -10z" />
    <glyph glyph-name="a" unicode="a" horiz-adv-x="383" 
d="M327 0h-78c-6 0 -10 4 -10 10v38h-1c-12 -34 -45 -57 -89 -57c-55 0 -115 34 -115 144c0 114 68 153 147 153h52c4 0 6 2 6 6v28c0 53 -15 77 -66 77c-32 0 -55 -11 -80 -28c-6 -4 -12 -3 -15 4l-26 59c-3 6 -1 10 3 14c32 25 77 43 131 43c109 0 151 -48 151 -165v-316
c0 -6 -4 -10 -10 -10zM179 75c36 0 60 28 60 68v57c0 4 -2 6 -6 6h-35c-49 0 -67 -27 -67 -67c0 -41 16 -64 48 -64z" />
    <glyph glyph-name="b" unicode="b" horiz-adv-x="401" 
d="M143 0h-82c-6 0 -10 4 -10 10v660c0 6 4 10 10 10h82c6 0 10 -4 10 -10v-237h1c13 33 40 58 90 58c55 0 88 -26 105 -80c9 -27 13 -57 13 -170c0 -114 -4 -143 -13 -170c-17 -54 -50 -80 -105 -80c-50 0 -77 24 -90 58h-1v-39c0 -6 -4 -10 -10 -10zM260 241
c0 98 -1 108 -5 122c-7 21 -23 34 -49 34c-25 0 -41 -13 -48 -34c-4 -14 -5 -24 -5 -122s1 -108 5 -122c7 -21 23 -34 48 -34c26 0 42 13 49 34c4 14 5 24 5 122z" />
    <glyph glyph-name="c" unicode="c" horiz-adv-x="357" 
d="M188 -9c-72 0 -119 34 -139 95c-9 28 -12 46 -12 155s3 127 12 155c20 61 67 95 139 95c84 0 142 -52 147 -131c0 -7 -2 -10 -8 -11l-76 -15c-7 -1 -11 2 -12 9c-5 38 -23 54 -51 54c-22 0 -37 -10 -44 -31c-4 -13 -5 -25 -5 -125s1 -112 5 -125c7 -21 22 -31 44 -31
c28 0 46 16 51 54c1 7 5 10 12 9l76 -15c6 -1 8 -4 8 -11c-5 -79 -63 -131 -147 -131z" />
    <glyph glyph-name="d" unicode="d" horiz-adv-x="401" 
d="M340 0h-82c-6 0 -10 4 -10 10v39h-1c-13 -34 -40 -58 -90 -58c-55 0 -88 26 -105 80c-9 27 -13 56 -13 170c0 113 4 143 13 170c17 54 50 80 105 80c50 0 77 -25 90 -58h1v237c0 6 4 10 10 10h82c6 0 10 -4 10 -10v-660c0 -6 -4 -10 -10 -10zM141 241
c0 -98 1 -108 5 -122c7 -21 23 -34 49 -34c25 0 41 13 48 34c4 14 5 24 5 122s-1 108 -5 122c-7 21 -23 34 -48 34c-26 0 -42 -13 -49 -34c-4 -14 -5 -24 -5 -122z" />
    <glyph glyph-name="e" unicode="e" horiz-adv-x="380" 
d="M190 -9c-75 0 -122 35 -142 96c-8 24 -11 51 -11 154s3 130 11 154c20 61 68 96 143 96c76 0 124 -35 144 -96c8 -24 11 -51 11 -179c0 -6 -4 -10 -10 -10h-191c-4 0 -6 -2 -6 -6c0 -60 2 -72 5 -83c7 -21 23 -32 47 -32c28 0 44 13 53 43c2 6 6 8 12 7l77 -15
c6 -1 8 -5 7 -12c-13 -72 -71 -117 -150 -117zM191 400c-24 0 -40 -13 -46 -32c-4 -11 -6 -24 -6 -74c0 -4 2 -6 6 -6h93c4 0 6 2 6 6c0 50 -2 63 -6 74c-6 19 -22 32 -47 32z" />
    <glyph glyph-name="f" unicode="f" horiz-adv-x="256" 
d="M160 0h-82c-6 0 -10 4 -10 10v388c0 4 -2 6 -6 6h-29c-6 0 -10 4 -10 10v58c0 6 4 10 10 10h29c4 0 6 2 6 6v41c0 93 39 151 143 151h21c6 0 10 -4 10 -10v-74c0 -6 -4 -10 -10 -10h-25c-28 0 -37 -10 -37 -38v-60c0 -4 2 -6 6 -6h56c6 0 10 -4 10 -10v-58
c0 -6 -4 -10 -10 -10h-56c-4 0 -6 -2 -6 -6v-388c0 -6 -4 -10 -10 -10z" />
    <glyph glyph-name="g" unicode="g" horiz-adv-x="400" 
d="M192 -189c-75 0 -127 41 -143 97c-1 5 0 9 4 11l76 27c5 2 10 1 13 -5c11 -24 28 -37 53 -37c31 0 53 20 53 59v101h-1c-12 -33 -39 -58 -89 -58c-55 0 -88 26 -105 80c-9 27 -13 57 -13 162c0 104 4 135 13 162c17 54 50 81 105 81c50 0 77 -26 89 -60h1v41
c0 6 4 10 10 10h82c6 0 10 -4 10 -10v-497c0 -107 -63 -164 -158 -164zM195 98c26 0 41 13 48 35c4 13 5 23 5 115c0 91 -1 101 -5 115c-7 21 -22 34 -48 34s-41 -13 -48 -34c-4 -14 -5 -24 -5 -115c0 -92 1 -102 5 -115c7 -22 22 -35 48 -35z" />
    <glyph glyph-name="h" unicode="h" horiz-adv-x="405" 
d="M348 0h-82c-6 0 -10 4 -10 10v317c0 47 -18 70 -52 70c-33 0 -51 -23 -51 -70v-317c0 -6 -4 -10 -10 -10h-82c-6 0 -10 4 -10 10v660c0 6 4 10 10 10h82c6 0 10 -4 10 -10v-236h1c17 33 46 57 92 57c72 0 112 -45 112 -150v-331c0 -6 -4 -10 -10 -10z" />
    <glyph glyph-name="i" unicode="i" horiz-adv-x="204" 
d="M143 574h-82c-6 0 -10 4 -10 10v86c0 6 4 10 10 10h82c6 0 10 -4 10 -10v-86c0 -6 -4 -10 -10 -10zM143 0h-82c-6 0 -10 4 -10 10v462c0 6 4 10 10 10h82c6 0 10 -4 10 -10v-462c0 -6 -4 -10 -10 -10z" />
    <glyph glyph-name="j" unicode="j" horiz-adv-x="204" 
d="M143 574h-82c-6 0 -10 4 -10 10v86c0 6 4 10 10 10h82c6 0 10 -4 10 -10v-86c0 -6 -4 -10 -10 -10zM11 -180h-15c-6 0 -10 4 -10 10v72c0 6 4 10 10 10l14 1c29 2 41 14 41 56v503c0 6 4 10 10 10h82c6 0 10 -4 10 -10v-508c0 -97 -43 -144 -142 -144z" />
    <glyph glyph-name="k" unicode="k" horiz-adv-x="396" 
d="M376 0h-87c-7 0 -10 3 -13 10l-83 197l-40 -72v-125c0 -6 -4 -10 -10 -10h-82c-6 0 -10 4 -10 10v660c0 6 4 10 10 10h82c6 0 10 -4 10 -10v-383l103 185c4 7 7 10 14 10h84c6 0 9 -4 6 -10l-106 -176l128 -286c3 -6 0 -10 -6 -10z" />
    <glyph glyph-name="l" unicode="l" horiz-adv-x="233" 
d="M197 -6h-3c-106 3 -143 44 -143 146v530c0 6 4 10 10 10h82c6 0 10 -4 10 -10v-530c0 -32 13 -47 39 -52l5 -1c6 -1 10 -5 10 -11v-72c0 -6 -4 -10 -10 -10z" />
    <glyph glyph-name="m" unicode="m" horiz-adv-x="610" 
d="M553 0h-82c-6 0 -10 4 -10 10v317c0 47 -18 70 -52 70s-51 -23 -51 -70v-317c0 -6 -4 -10 -10 -10h-82c-6 0 -10 4 -10 10v317c0 47 -18 70 -52 70c-33 0 -51 -23 -51 -70v-317c0 -6 -4 -10 -10 -10h-82c-6 0 -10 4 -10 10v462c0 6 4 10 10 10h82c6 0 10 -4 10 -10v-38h1
c17 33 46 57 92 57c43 0 76 -17 93 -53h1c21 33 52 53 101 53c80 0 122 -47 122 -150v-331c0 -6 -4 -10 -10 -10z" />
    <glyph glyph-name="n" unicode="n" horiz-adv-x="405" 
d="M348 0h-82c-6 0 -10 4 -10 10v317c0 47 -18 70 -52 70c-33 0 -51 -23 -51 -70v-317c0 -6 -4 -10 -10 -10h-82c-6 0 -10 4 -10 10v462c0 6 4 10 10 10h82c6 0 10 -4 10 -10v-38h1c17 33 46 57 92 57c72 0 112 -45 112 -150v-331c0 -6 -4 -10 -10 -10z" />
    <glyph glyph-name="o" unicode="o" horiz-adv-x="385" 
d="M348 241c0 -100 -3 -126 -11 -151c-20 -62 -71 -99 -145 -99c-73 0 -124 37 -144 99c-8 25 -11 51 -11 151s3 126 11 151c20 62 71 99 144 99c74 0 125 -37 145 -99c8 -25 11 -51 11 -151zM246 241c0 98 -1 108 -5 122c-7 21 -23 34 -49 34c-25 0 -41 -13 -48 -34
c-4 -14 -5 -24 -5 -122s1 -108 5 -122c7 -21 23 -34 48 -34c26 0 42 13 49 34c4 14 5 24 5 122z" />
    <glyph glyph-name="p" unicode="p" horiz-adv-x="401" 
d="M143 -180h-82c-6 0 -10 4 -10 10v642c0 6 4 10 10 10h82c6 0 10 -4 10 -10v-39h1c13 33 40 58 90 58c55 0 88 -26 105 -80c9 -27 13 -57 13 -170c0 -114 -4 -143 -13 -170c-17 -54 -50 -80 -105 -80c-50 0 -77 24 -90 58h-1v-219c0 -6 -4 -10 -10 -10zM260 241
c0 98 -1 108 -5 122c-7 21 -23 34 -49 34c-25 0 -41 -13 -48 -34c-4 -14 -5 -24 -5 -122s1 -108 5 -122c7 -21 23 -34 48 -34c26 0 42 13 49 34c4 14 5 24 5 122z" />
    <glyph glyph-name="q" unicode="q" horiz-adv-x="401" 
d="M340 -180h-82c-6 0 -10 4 -10 10v219h-1c-13 -34 -40 -58 -90 -58c-55 0 -88 26 -105 80c-9 27 -13 56 -13 170c0 113 4 143 13 170c17 54 50 80 105 80c50 0 77 -25 90 -58h1v39c0 6 4 10 10 10h82c6 0 10 -4 10 -10v-642c0 -6 -4 -10 -10 -10zM195 85c25 0 41 13 48 34
c4 14 5 24 5 122s-1 108 -5 122c-7 21 -23 34 -48 34c-26 0 -42 -13 -49 -34c-4 -14 -5 -24 -5 -122s1 -108 5 -122c7 -21 23 -34 49 -34z" />
    <glyph glyph-name="r" unicode="r" horiz-adv-x="295" 
d="M143 0h-82c-6 0 -10 4 -10 10v462c0 6 4 10 10 10h82c6 0 10 -4 10 -10v-47h1c18 39 51 66 106 66c5 0 13 0 18 -1c6 -2 9 -5 7 -11l-23 -85c-2 -5 -4 -6 -10 -6h-16c-51 0 -83 -30 -83 -94v-284c0 -6 -4 -10 -10 -10z" />
    <glyph glyph-name="s" unicode="s" horiz-adv-x="350" 
d="M176 -9c-88 0 -142 48 -150 123c-1 6 2 11 8 12l72 14c6 1 11 -2 12 -8c5 -38 28 -56 59 -56s52 21 52 55c0 30 -12 48 -52 63l-39 15c-63 24 -104 70 -104 141c0 80 56 141 143 141c85 0 130 -52 139 -110c1 -7 -2 -12 -7 -13l-68 -13c-6 -1 -10 2 -12 8
c-7 25 -22 44 -52 44s-47 -22 -47 -50c0 -22 12 -42 52 -57l39 -15c76 -29 104 -75 104 -147c0 -84 -54 -147 -149 -147z" />
    <glyph glyph-name="t" unicode="t" horiz-adv-x="255" 
d="M219 -6h-30c-84 0 -123 37 -123 133v271c0 4 -2 6 -6 6h-29c-6 0 -10 4 -10 10v58c0 6 4 10 10 10h29c4 0 6 2 6 6v132c0 6 4 10 10 10h82c6 0 10 -4 10 -10v-132c0 -4 2 -6 6 -6h45c6 0 10 -4 10 -10v-58c0 -6 -4 -10 -10 -10h-45c-4 0 -6 -2 -6 -6v-269
c0 -28 12 -41 39 -41h12c6 0 10 -4 10 -10v-74c0 -6 -4 -10 -10 -10z" />
    <glyph glyph-name="u" unicode="u" horiz-adv-x="403" 
d="M342 0h-82c-6 0 -10 4 -10 10v38h-1c-17 -33 -45 -57 -91 -57c-71 0 -111 44 -111 150v331c0 6 4 10 10 10h82c6 0 10 -4 10 -10v-317c0 -46 17 -70 50 -70s51 24 51 70v317c0 6 4 10 10 10h82c6 0 10 -4 10 -10v-462c0 -6 -4 -10 -10 -10z" />
    <glyph glyph-name="v" unicode="v" horiz-adv-x="362" 
d="M216 0h-70c-6 0 -9 3 -11 10l-119 462c-2 6 1 10 7 10h84c7 0 10 -4 11 -10l64 -298h1l64 298c1 6 4 10 11 10h81c6 0 9 -4 8 -10l-119 -462c-2 -7 -5 -10 -12 -10z" />
    <glyph glyph-name="w" unicode="w" horiz-adv-x="541" 
d="M403 0h-70c-7 0 -11 3 -12 10l-50 280h-2l-49 -280c-1 -7 -5 -10 -12 -10h-70c-7 0 -10 3 -11 10l-109 462c-2 6 1 10 7 10h84c7 0 10 -4 11 -10l54 -298h1l56 298c1 6 4 10 11 10h59c7 0 10 -4 11 -10l54 -298h1l55 298c1 6 4 10 11 10h83c6 0 9 -4 7 -10l-108 -462
c-2 -7 -5 -10 -12 -10z" />
    <glyph glyph-name="x" unicode="x" horiz-adv-x="365" 
d="M345 0h-84c-7 0 -10 2 -13 8l-66 145h-1l-65 -145c-3 -6 -6 -8 -14 -8h-82c-6 0 -8 5 -5 11l116 237l-109 223c-3 6 -1 11 5 11h82c8 0 11 -2 14 -8l61 -131h1l57 131c3 6 6 8 14 8h82c6 0 8 -5 5 -11l-110 -223l117 -237c3 -6 1 -11 -5 -11z" />
    <glyph glyph-name="y" unicode="y" horiz-adv-x="370" 
d="M77 -180h-15c-6 0 -10 4 -10 10v74c0 6 4 10 10 10l14 1c29 2 43 15 53 55l11 48l-120 454c-2 6 1 10 7 10h84c7 0 10 -4 11 -10l64 -298h1l64 298c1 6 4 10 11 10h81c6 0 9 -4 7 -10l-127 -500c-32 -126 -65 -152 -146 -152z" />
    <glyph glyph-name="z" unicode="z" horiz-adv-x="320" 
d="M286 0h-248c-6 0 -10 4 -10 10v68c0 5 1 9 3 13l149 299v2h-132c-6 0 -10 4 -10 10v70c0 6 4 10 10 10h238c6 0 10 -4 10 -10v-57c0 -5 -1 -9 -3 -13l-155 -309v-2h148c6 0 10 -4 10 -10v-71c0 -6 -4 -10 -10 -10z" />
    <glyph glyph-name="braceleft" unicode="{" horiz-adv-x="312" 
d="M262 -84h-28c-75 0 -118 43 -118 119v184c0 47 -14 70 -56 70c-6 0 -10 4 -10 10v63c0 6 4 10 10 10c42 0 56 23 56 70v179c0 76 43 119 118 119h28c6 0 10 -4 10 -10v-63c0 -6 -4 -10 -10 -10h-10c-28 0 -42 -17 -42 -46v-148c0 -79 -8 -111 -55 -131v-3
c47 -20 55 -52 55 -131v-153c0 -29 14 -46 42 -46h10c6 0 10 -4 10 -10v-63c0 -6 -4 -10 -10 -10z" />
    <glyph glyph-name="bar" unicode="|" horiz-adv-x="281" 
d="M171 -84h-61c-6 0 -10 4 -10 10v804c0 6 4 10 10 10h61c6 0 10 -4 10 -10v-804c0 -6 -4 -10 -10 -10z" />
    <glyph glyph-name="braceright" unicode="}" horiz-adv-x="312" 
d="M77 -84h-27c-6 0 -10 4 -10 10v63c0 6 4 10 10 10h9c28 0 42 17 42 46v153c0 79 8 111 56 131v3c-48 20 -56 52 -56 131v148c0 29 -14 46 -42 46h-9c-6 0 -10 4 -10 10v63c0 6 4 10 10 10h27c76 0 119 -43 119 -119v-179c0 -47 14 -70 55 -70c6 0 10 -4 10 -10v-63
c0 -6 -4 -10 -10 -10c-41 0 -55 -23 -55 -70v-184c0 -76 -43 -119 -119 -119z" />
    <glyph glyph-name="asciitilde" unicode="~" 
d="M261 213c-30 0 -48 10 -70 24c-21 13 -33 21 -47 21c-20 0 -30 -9 -49 -41c-3 -5 -7 -5 -13 -2l-47 25c-6 3 -8 7 -4 15c28 57 61 84 106 84c30 0 48 -10 70 -24c21 -13 33 -21 47 -21c21 0 31 9 50 41c3 5 7 5 13 2l46 -25c6 -3 8 -7 4 -15c-27 -57 -60 -84 -106 -84z
" />
    <glyph glyph-name="uni00A0" unicode="&#xa0;" horiz-adv-x="194" 
 />
    <glyph glyph-name="Agrave" unicode="&#xc0;" horiz-adv-x="421" 
d="M12 10l147 660c2 6 5 10 11 10h84c6 0 10 -4 11 -10l144 -660c1 -6 -2 -10 -8 -10h-85c-7 0 -10 4 -11 10l-27 137h-135l-27 -137c-1 -6 -4 -10 -11 -10h-85c-6 0 -9 4 -8 10zM160 237h101l-48 253h-3zM239 761h-55c-8 0 -13 3 -20 10l-99 107c-4 5 -1 10 5 10h81
c9 0 12 -3 17 -10l76 -107c4 -5 1 -10 -5 -10z" />
    <glyph glyph-name="Aacute" unicode="&#xc1;" horiz-adv-x="421" 
d="M12 10l147 660c2 6 5 10 11 10h84c6 0 10 -4 11 -10l144 -660c1 -6 -2 -10 -8 -10h-85c-7 0 -10 4 -11 10l-27 137h-135l-27 -137c-1 -6 -4 -10 -11 -10h-85c-6 0 -9 4 -8 10zM160 237h101l-48 253h-3zM238 761h-55c-6 0 -10 5 -6 10l77 107c5 7 8 10 16 10h81
c6 0 9 -5 5 -10l-98 -107c-7 -7 -12 -10 -20 -10z" />
    <glyph glyph-name="Acircumflex" unicode="&#xc2;" horiz-adv-x="421" 
d="M12 10l147 660c2 6 5 10 11 10h84c6 0 10 -4 11 -10l144 -660c1 -6 -2 -10 -8 -10h-85c-7 0 -10 4 -11 10l-27 137h-135l-27 -137c-1 -6 -4 -10 -11 -10h-85c-6 0 -9 4 -8 10zM160 237h101l-48 253h-3zM337 750h-60c-8 0 -13 3 -19 10l-48 60h-2l-47 -60
c-6 -7 -11 -10 -19 -10h-60c-6 0 -8 5 -4 10l88 125c4 6 9 10 17 10h52c8 0 14 -4 18 -10l88 -125c4 -5 2 -10 -4 -10z" />
    <glyph glyph-name="Atilde" unicode="&#xc3;" horiz-adv-x="421" 
d="M12 10l147 660c2 6 5 10 11 10h84c6 0 10 -4 11 -10l144 -660c1 -6 -2 -10 -8 -10h-85c-7 0 -10 4 -11 10l-27 137h-135l-27 -137c-1 -6 -4 -10 -11 -10h-85c-6 0 -9 4 -8 10zM160 237h101l-48 253h-3zM254 763c-22 0 -35 7 -52 18c-16 11 -24 16 -38 16
c-21 0 -33 -11 -48 -26c-5 -5 -12 -3 -12 4v61c0 6 2 11 10 19c13 13 29 24 51 24s35 -7 51 -18c17 -11 25 -16 39 -16c21 0 33 11 48 26c5 5 12 3 12 -4v-61c0 -6 -2 -11 -10 -19c-13 -13 -29 -24 -51 -24z" />
    <glyph glyph-name="Adieresis" unicode="&#xc4;" horiz-adv-x="421" 
d="M12 10l147 660c2 6 5 10 11 10h84c6 0 10 -4 11 -10l144 -660c1 -6 -2 -10 -8 -10h-85c-7 0 -10 4 -11 10l-27 137h-135l-27 -137c-1 -6 -4 -10 -11 -10h-85c-6 0 -9 4 -8 10zM160 237h101l-48 253h-3zM318 769h-65c-6 0 -10 4 -10 10v86c0 6 4 10 10 10h65
c6 0 10 -4 10 -10v-86c0 -6 -4 -10 -10 -10zM166 769h-65c-6 0 -10 4 -10 10v86c0 6 4 10 10 10h65c6 0 10 -4 10 -10v-86c0 -6 -4 -10 -10 -10z" />
    <glyph glyph-name="Amacron" unicode="&#x100;" horiz-adv-x="421" 
d="M12 10l147 660c2 6 5 10 11 10h84c6 0 10 -4 11 -10l144 -660c1 -6 -2 -10 -8 -10h-85c-7 0 -10 4 -11 10l-27 137h-135l-27 -137c-1 -6 -4 -10 -11 -10h-85c-6 0 -9 4 -8 10zM160 237h101l-48 253h-3zM312 780h-205c-6 0 -10 4 -10 10v60c0 6 4 10 10 10h205
c6 0 10 -4 10 -10v-60c0 -6 -4 -10 -10 -10z" />
    <glyph glyph-name="Abreve" unicode="&#x102;" horiz-adv-x="421" 
d="M12 10l147 660c2 6 5 10 11 10h84c6 0 10 -4 11 -10l144 -660c1 -6 -2 -10 -8 -10h-85c-7 0 -10 4 -11 10l-27 137h-135l-27 -137c-1 -6 -4 -10 -11 -10h-85c-6 0 -9 4 -8 10zM160 237h101l-48 253h-3zM209 742c-79 0 -119 55 -124 119c0 6 4 10 10 10h45
c6 0 8 -4 10 -10c10 -28 29 -48 59 -48c31 0 50 20 60 48c2 6 4 10 10 10h45c6 0 10 -4 10 -10c-5 -64 -45 -119 -125 -119z" />
    <glyph glyph-name="Aring" unicode="&#xc5;" horiz-adv-x="421" 
d="M12 10l147 660c2 6 5 10 11 10h84c6 0 10 -4 11 -10l144 -660c1 -6 -2 -10 -8 -10h-85c-7 0 -10 4 -11 10l-27 137h-135l-27 -137c-1 -6 -4 -10 -11 -10h-85c-6 0 -9 4 -8 10zM160 237h101l-48 253h-3zM209 721c-51 0 -90 39 -90 91c0 51 39 90 90 90c52 0 91 -39 91 -90
c0 -52 -39 -91 -91 -91zM209 764c27 0 46 21 46 48s-19 47 -46 47c-26 0 -45 -20 -45 -47s19 -48 45 -48z" />
    <glyph glyph-name="Aringacute" unicode="&#x1fa;" horiz-adv-x="421" 
d="M239 773h-58c-6 0 -8 5 -4 10l82 95c6 7 11 10 21 10h77c6 0 9 -5 5 -10l-103 -95c-7 -7 -12 -10 -20 -10zM401 0h-85c-7 0 -10 4 -11 10l-27 137h-135l-27 -137c-1 -6 -4 -10 -11 -10h-85c-6 0 -9 4 -8 10l127 569c2 6 5 9 10 10c-17 16 -27 40 -27 67c0 52 38 90 90 90
s90 -38 90 -90c0 -27 -11 -51 -28 -67c6 0 10 -4 11 -10l124 -569c1 -6 -2 -10 -8 -10zM212 609c26 0 45 20 45 47s-19 47 -45 47s-45 -20 -45 -47s19 -47 45 -47zM210 490l-50 -253h101l-48 253h-3z" />
    <glyph glyph-name="Aogonek" unicode="&#x104;" horiz-adv-x="421" 
d="M341 -190c-54 0 -89 29 -89 83c0 41 23 77 58 108c-3 2 -4 4 -5 9l-26 137h-137l-26 -137c-1 -6 -4 -10 -11 -10h-85c-6 0 -9 4 -8 10l147 660c2 6 5 10 11 10h84c6 0 10 -4 11 -10l144 -660c1 -4 0 -7 -5 -10c-39 -26 -69 -63 -69 -91c0 -16 9 -24 20 -24c8 0 13 2 18 5
s11 1 13 -4l20 -46c2 -5 0 -10 -5 -13c-13 -9 -38 -17 -60 -17zM261 237l-48 253h-3l-50 -253h101z" />
    <glyph glyph-name="AE" unicode="&#xc6;" horiz-adv-x="656" 
d="M617 0h-278c-6 0 -10 4 -10 10v131c0 4 -2 6 -6 6h-157l-50 -137c-2 -6 -7 -10 -13 -10h-84c-6 0 -9 4 -7 10l247 660c2 6 5 10 11 10h347c6 0 10 -4 10 -10v-77c0 -6 -4 -10 -10 -10h-175c-4 0 -6 -2 -6 -6v-179c0 -4 2 -6 6 -6h152c6 0 10 -4 10 -10v-77
c0 -6 -4 -10 -10 -10h-152c-4 0 -6 -2 -6 -6v-186c0 -4 2 -6 6 -6h175c6 0 10 -4 10 -10v-77c0 -6 -4 -10 -10 -10zM326 582l-127 -345h124c4 0 6 2 6 6v339h-3z" />
    <glyph glyph-name="AEacute" unicode="&#x1fc;" horiz-adv-x="656" 
d="M375 761h-55c-6 0 -10 5 -6 10l77 107c5 7 8 10 16 10h81c6 0 9 -5 5 -10l-98 -107c-7 -7 -12 -10 -20 -10zM617 0h-278c-6 0 -10 4 -10 10v131c0 4 -2 6 -6 6h-157l-50 -137c-2 -6 -7 -10 -13 -10h-84c-6 0 -9 4 -7 10l247 660c2 6 5 10 11 10h347c6 0 10 -4 10 -10v-77
c0 -6 -4 -10 -10 -10h-175c-4 0 -6 -2 -6 -6v-179c0 -4 2 -6 6 -6h152c6 0 10 -4 10 -10v-77c0 -6 -4 -10 -10 -10h-152c-4 0 -6 -2 -6 -6v-186c0 -4 2 -6 6 -6h175c6 0 10 -4 10 -10v-77c0 -6 -4 -10 -10 -10zM326 582l-127 -345h124c4 0 6 2 6 6v339h-3z" />
    <glyph glyph-name="Cacute" unicode="&#x106;" horiz-adv-x="387" 
d="M54 95c-9 28 -13 56 -13 245s4 217 13 245c21 65 71 104 154 104c97 0 158 -50 164 -163c1 -6 -1 -11 -7 -12l-81 -14c-6 -1 -11 2 -11 9c-3 58 -23 83 -62 83c-30 0 -46 -13 -54 -38c-5 -16 -7 -30 -7 -214s2 -198 7 -214c8 -25 24 -38 54 -38c39 0 59 25 62 83
c0 7 5 10 11 9l81 -14c6 -1 8 -6 7 -12c-6 -113 -67 -163 -164 -163c-83 0 -133 39 -154 104zM224 761h-55c-6 0 -10 5 -6 10l77 107c5 7 8 10 16 10h81c6 0 9 -5 5 -10l-98 -107c-7 -7 -12 -10 -20 -10z" />
    <glyph glyph-name="Ccircumflex" unicode="&#x108;" horiz-adv-x="387" 
d="M54 95c-9 28 -13 56 -13 245s4 217 13 245c21 65 71 104 154 104c97 0 158 -50 164 -163c1 -6 -1 -11 -7 -12l-81 -14c-6 -1 -11 2 -11 9c-3 58 -23 83 -62 83c-30 0 -46 -13 -54 -38c-5 -16 -7 -30 -7 -214s2 -198 7 -214c8 -25 24 -38 54 -38c39 0 59 25 62 83
c0 7 5 10 11 9l81 -14c6 -1 8 -6 7 -12c-6 -113 -67 -163 -164 -163c-83 0 -133 39 -154 104zM335 750h-60c-8 0 -13 3 -19 10l-48 60h-2l-47 -60c-6 -7 -11 -10 -19 -10h-60c-6 0 -8 5 -4 10l88 125c4 6 9 10 17 10h52c8 0 14 -4 18 -10l88 -125c4 -5 2 -10 -4 -10z" />
    <glyph glyph-name="Ccaron" unicode="&#x10c;" horiz-adv-x="387" 
d="M54 95c-9 28 -13 56 -13 245s4 217 13 245c21 65 71 104 154 104c97 0 158 -50 164 -163c1 -6 -1 -11 -7 -12l-81 -14c-6 -1 -11 2 -11 9c-3 58 -23 83 -62 83c-30 0 -46 -13 -54 -38c-5 -16 -7 -30 -7 -214s2 -198 7 -214c8 -25 24 -38 54 -38c39 0 59 25 62 83
c0 7 5 10 11 9l81 -14c6 -1 8 -6 7 -12c-6 -113 -67 -163 -164 -163c-83 0 -133 39 -154 104zM230 747h-52c-8 0 -13 4 -17 10l-88 125c-4 5 -2 10 4 10h60c8 0 13 -3 19 -10l47 -59h2l48 59c6 7 11 10 19 10h60c6 0 8 -5 4 -10l-88 -125c-4 -6 -10 -10 -18 -10z" />
    <glyph glyph-name="Cdotaccent" unicode="&#x10a;" horiz-adv-x="387" 
d="M236 769h-82c-6 0 -10 4 -10 10v86c0 6 4 10 10 10h82c6 0 10 -4 10 -10v-86c0 -6 -4 -10 -10 -10zM54 95c-9 28 -13 56 -13 245s4 217 13 245c21 65 71 104 154 104c97 0 158 -50 164 -163c1 -6 -1 -11 -7 -12l-81 -14c-6 -1 -11 2 -11 9c-3 58 -23 83 -62 83
c-30 0 -46 -13 -54 -38c-5 -16 -7 -30 -7 -214s2 -198 7 -214c8 -25 24 -38 54 -38c39 0 59 25 62 83c0 7 5 10 11 9l81 -14c6 -1 8 -6 7 -12c-6 -113 -67 -163 -164 -163c-83 0 -133 39 -154 104z" />
    <glyph glyph-name="Ccedilla" unicode="&#xc7;" horiz-adv-x="387" 
d="M112 -145l58 139c-61 10 -99 46 -116 101c-9 28 -13 56 -13 245s4 217 13 245c21 65 71 104 154 104c97 0 158 -50 164 -163c1 -6 -1 -11 -7 -12l-81 -14c-6 -1 -11 2 -11 9c-3 58 -23 83 -62 83c-30 0 -46 -13 -54 -38c-5 -16 -7 -30 -7 -214s2 -198 7 -214
c8 -25 24 -38 54 -38c39 0 59 25 62 83c0 7 5 10 11 9l81 -14c6 -1 8 -6 7 -12c-5 -96 -50 -146 -122 -159l-49 -140c-3 -7 -7 -10 -16 -10h-66c-6 0 -9 4 -7 10z" />
    <glyph glyph-name="Dcaron" unicode="&#x10e;" horiz-adv-x="443" 
d="M228 747h-52c-8 0 -13 4 -17 10l-88 125c-4 5 -2 10 4 10h60c8 0 13 -3 19 -10l47 -59h2l48 59c6 7 11 10 19 10h60c6 0 8 -5 4 -10l-88 -125c-4 -6 -10 -10 -18 -10zM53 10v660c0 6 4 10 10 10h157c89 0 141 -36 165 -109c12 -37 17 -83 17 -231s-5 -194 -17 -231
c-24 -73 -76 -109 -165 -109h-157c-6 0 -10 4 -10 10zM160 103c0 -4 2 -6 6 -6h43c38 0 60 15 72 49c8 25 12 58 12 194s-4 169 -12 194c-12 34 -34 49 -72 49h-43c-4 0 -6 -2 -6 -6v-474z" />
    <glyph glyph-name="Dcroat" unicode="&#x110;" horiz-adv-x="443" 
d="M220 0h-157c-6 0 -10 4 -10 10v287c0 4 -2 6 -6 6h-26c-6 0 -10 4 -10 10v60c0 6 4 10 10 10h26c4 0 6 2 6 6v281c0 6 4 10 10 10h157c89 0 141 -36 165 -109c12 -37 17 -83 17 -231s-5 -194 -17 -231c-24 -73 -76 -109 -165 -109zM209 97c38 0 60 15 72 49
c8 25 12 58 12 194s-4 169 -12 194c-12 34 -34 49 -72 49h-43c-4 0 -6 -2 -6 -6v-188c0 -4 2 -6 6 -6h57c6 0 10 -4 10 -10v-60c0 -6 -4 -10 -10 -10h-57c-4 0 -6 -2 -6 -6v-194c0 -4 2 -6 6 -6h43z" />
    <glyph glyph-name="Eth" unicode="&#xd0;" horiz-adv-x="443" 
d="M220 0h-157c-6 0 -10 4 -10 10v287c0 4 -2 6 -6 6h-26c-6 0 -10 4 -10 10v60c0 6 4 10 10 10h26c4 0 6 2 6 6v281c0 6 4 10 10 10h157c89 0 141 -36 165 -109c12 -37 17 -83 17 -231s-5 -194 -17 -231c-24 -73 -76 -109 -165 -109zM209 97c38 0 60 15 72 49
c8 25 12 58 12 194s-4 169 -12 194c-12 34 -34 49 -72 49h-43c-4 0 -6 -2 -6 -6v-188c0 -4 2 -6 6 -6h57c6 0 10 -4 10 -10v-60c0 -6 -4 -10 -10 -10h-57c-4 0 -6 -2 -6 -6v-194c0 -4 2 -6 6 -6h43z" />
    <glyph glyph-name="Egrave" unicode="&#xc8;" horiz-adv-x="381" 
d="M237 761h-55c-8 0 -13 3 -20 10l-99 107c-4 5 -1 10 5 10h81c9 0 12 -3 17 -10l76 -107c4 -5 1 -10 -5 -10zM53 10v660c0 6 4 10 10 10h279c6 0 10 -4 10 -10v-77c0 -6 -4 -10 -10 -10h-176c-4 0 -6 -2 -6 -6v-179c0 -4 2 -6 6 -6h152c6 0 10 -4 10 -10v-77
c0 -6 -4 -10 -10 -10h-152c-4 0 -6 -2 -6 -6v-186c0 -4 2 -6 6 -6h176c6 0 10 -4 10 -10v-77c0 -6 -4 -10 -10 -10h-279c-6 0 -10 4 -10 10z" />
    <glyph glyph-name="Eacute" unicode="&#xc9;" horiz-adv-x="381" 
d="M220 761h-55c-6 0 -10 5 -6 10l77 107c5 7 8 10 16 10h81c6 0 9 -5 5 -10l-98 -107c-7 -7 -12 -10 -20 -10zM53 10v660c0 6 4 10 10 10h279c6 0 10 -4 10 -10v-77c0 -6 -4 -10 -10 -10h-176c-4 0 -6 -2 -6 -6v-179c0 -4 2 -6 6 -6h152c6 0 10 -4 10 -10v-77
c0 -6 -4 -10 -10 -10h-152c-4 0 -6 -2 -6 -6v-186c0 -4 2 -6 6 -6h176c6 0 10 -4 10 -10v-77c0 -6 -4 -10 -10 -10h-279c-6 0 -10 4 -10 10z" />
    <glyph glyph-name="Ecircumflex" unicode="&#xca;" horiz-adv-x="381" 
d="M53 10v660c0 6 4 10 10 10h279c6 0 10 -4 10 -10v-77c0 -6 -4 -10 -10 -10h-176c-4 0 -6 -2 -6 -6v-179c0 -4 2 -6 6 -6h152c6 0 10 -4 10 -10v-77c0 -6 -4 -10 -10 -10h-152c-4 0 -6 -2 -6 -6v-186c0 -4 2 -6 6 -6h176c6 0 10 -4 10 -10v-77c0 -6 -4 -10 -10 -10h-279
c-6 0 -10 4 -10 10zM330 750h-60c-8 0 -13 3 -19 10l-48 60h-2l-47 -60c-6 -7 -11 -10 -19 -10h-60c-6 0 -8 5 -4 10l88 125c4 6 9 10 17 10h52c8 0 14 -4 18 -10l88 -125c4 -5 2 -10 -4 -10z" />
    <glyph glyph-name="Ecaron" unicode="&#x11a;" horiz-adv-x="381" 
d="M228 747h-52c-8 0 -13 4 -17 10l-88 125c-4 5 -2 10 4 10h60c8 0 13 -3 19 -10l47 -59h2l48 59c6 7 11 10 19 10h60c6 0 8 -5 4 -10l-88 -125c-4 -6 -10 -10 -18 -10zM53 10v660c0 6 4 10 10 10h279c6 0 10 -4 10 -10v-77c0 -6 -4 -10 -10 -10h-176c-4 0 -6 -2 -6 -6
v-179c0 -4 2 -6 6 -6h152c6 0 10 -4 10 -10v-77c0 -6 -4 -10 -10 -10h-152c-4 0 -6 -2 -6 -6v-186c0 -4 2 -6 6 -6h176c6 0 10 -4 10 -10v-77c0 -6 -4 -10 -10 -10h-279c-6 0 -10 4 -10 10z" />
    <glyph glyph-name="Edieresis" unicode="&#xcb;" horiz-adv-x="381" 
d="M310 769h-65c-6 0 -10 4 -10 10v86c0 6 4 10 10 10h65c6 0 10 -4 10 -10v-86c0 -6 -4 -10 -10 -10zM158 769h-65c-6 0 -10 4 -10 10v86c0 6 4 10 10 10h65c6 0 10 -4 10 -10v-86c0 -6 -4 -10 -10 -10zM53 10v660c0 6 4 10 10 10h279c6 0 10 -4 10 -10v-77
c0 -6 -4 -10 -10 -10h-176c-4 0 -6 -2 -6 -6v-179c0 -4 2 -6 6 -6h152c6 0 10 -4 10 -10v-77c0 -6 -4 -10 -10 -10h-152c-4 0 -6 -2 -6 -6v-186c0 -4 2 -6 6 -6h176c6 0 10 -4 10 -10v-77c0 -6 -4 -10 -10 -10h-279c-6 0 -10 4 -10 10z" />
    <glyph glyph-name="Emacron" unicode="&#x112;" horiz-adv-x="381" 
d="M305 780h-205c-6 0 -10 4 -10 10v60c0 6 4 10 10 10h205c6 0 10 -4 10 -10v-60c0 -6 -4 -10 -10 -10zM53 10v660c0 6 4 10 10 10h279c6 0 10 -4 10 -10v-77c0 -6 -4 -10 -10 -10h-176c-4 0 -6 -2 -6 -6v-179c0 -4 2 -6 6 -6h152c6 0 10 -4 10 -10v-77
c0 -6 -4 -10 -10 -10h-152c-4 0 -6 -2 -6 -6v-186c0 -4 2 -6 6 -6h176c6 0 10 -4 10 -10v-77c0 -6 -4 -10 -10 -10h-279c-6 0 -10 4 -10 10z" />
    <glyph glyph-name="Ebreve" unicode="&#x114;" horiz-adv-x="381" 
d="M202 742c-79 0 -119 55 -124 119c0 6 4 10 10 10h45c6 0 8 -4 10 -10c10 -28 29 -48 59 -48c31 0 50 20 60 48c2 6 4 10 10 10h45c6 0 10 -4 10 -10c-5 -64 -45 -119 -125 -119zM53 10v660c0 6 4 10 10 10h279c6 0 10 -4 10 -10v-77c0 -6 -4 -10 -10 -10h-176
c-4 0 -6 -2 -6 -6v-179c0 -4 2 -6 6 -6h152c6 0 10 -4 10 -10v-77c0 -6 -4 -10 -10 -10h-152c-4 0 -6 -2 -6 -6v-186c0 -4 2 -6 6 -6h176c6 0 10 -4 10 -10v-77c0 -6 -4 -10 -10 -10h-279c-6 0 -10 4 -10 10z" />
    <glyph glyph-name="Edotaccent" unicode="&#x116;" horiz-adv-x="381" 
d="M242 769h-82c-6 0 -10 4 -10 10v86c0 6 4 10 10 10h82c6 0 10 -4 10 -10v-86c0 -6 -4 -10 -10 -10zM53 10v660c0 6 4 10 10 10h279c6 0 10 -4 10 -10v-77c0 -6 -4 -10 -10 -10h-176c-4 0 -6 -2 -6 -6v-179c0 -4 2 -6 6 -6h152c6 0 10 -4 10 -10v-77c0 -6 -4 -10 -10 -10
h-152c-4 0 -6 -2 -6 -6v-186c0 -4 2 -6 6 -6h176c6 0 10 -4 10 -10v-77c0 -6 -4 -10 -10 -10h-279c-6 0 -10 4 -10 10z" />
    <glyph glyph-name="Eogonek" unicode="&#x118;" horiz-adv-x="381" 
d="M264 -190c-54 0 -89 29 -89 83c0 44 26 78 56 107h-168c-6 0 -10 4 -10 10v660c0 6 4 10 10 10h279c6 0 10 -4 10 -10v-77c0 -6 -4 -10 -10 -10h-176c-4 0 -6 -2 -6 -6v-179c0 -4 2 -6 6 -6h152c6 0 10 -4 10 -10v-77c0 -6 -4 -10 -10 -10h-152c-4 0 -6 -2 -6 -6v-186
c0 -4 2 -6 6 -6h176c6 0 10 -4 10 -10v-77c0 -6 -4 -10 -10 -10h-15c-38 -26 -68 -63 -68 -91c0 -16 8 -24 19 -24c8 0 13 2 18 5s11 1 13 -4l20 -46c2 -5 0 -10 -5 -13c-12 -9 -38 -17 -60 -17z" />
    <glyph glyph-name="Gcircumflex" unicode="&#x11c;" horiz-adv-x="426" 
d="M54 97c-10 30 -13 54 -13 243s3 213 13 243c22 67 77 106 161 106c98 0 158 -52 169 -159c1 -6 -3 -11 -8 -12l-81 -14c-6 -1 -10 2 -11 8c-5 53 -28 80 -68 80c-29 0 -52 -15 -59 -38c-6 -19 -7 -27 -7 -214s1 -195 7 -214c7 -23 32 -38 60 -38c29 0 54 15 61 38
c5 17 7 27 7 153c0 4 -2 6 -6 6h-53c-6 0 -10 4 -10 10v74c0 6 4 10 10 10h152c6 0 10 -4 10 -10v-30c0 -188 -3 -212 -13 -242c-22 -67 -77 -106 -160 -106c-84 0 -139 39 -161 106zM341 750h-60c-8 0 -13 3 -19 10l-48 60h-2l-47 -60c-6 -7 -11 -10 -19 -10h-60
c-6 0 -8 5 -4 10l88 125c4 6 9 10 17 10h52c8 0 14 -4 18 -10l88 -125c4 -5 2 -10 -4 -10z" />
    <glyph glyph-name="Gbreve" unicode="&#x11e;" horiz-adv-x="426" 
d="M213 742c-79 0 -119 55 -124 119c0 6 4 10 10 10h45c6 0 8 -4 10 -10c10 -28 29 -48 59 -48c31 0 50 20 60 48c2 6 4 10 10 10h45c6 0 10 -4 10 -10c-5 -64 -45 -119 -125 -119zM54 97c-10 30 -13 54 -13 243s3 213 13 243c22 67 77 106 161 106c98 0 158 -52 169 -159
c1 -6 -3 -11 -8 -12l-81 -14c-6 -1 -10 2 -11 8c-5 53 -28 80 -68 80c-29 0 -52 -15 -59 -38c-6 -19 -7 -27 -7 -214s1 -195 7 -214c7 -23 32 -38 60 -38c29 0 54 15 61 38c5 17 7 27 7 153c0 4 -2 6 -6 6h-53c-6 0 -10 4 -10 10v74c0 6 4 10 10 10h152c6 0 10 -4 10 -10
v-30c0 -188 -3 -212 -13 -242c-22 -67 -77 -106 -160 -106c-84 0 -139 39 -161 106z" />
    <glyph glyph-name="Gdotaccent" unicode="&#x120;" horiz-adv-x="426" 
d="M254 769h-82c-6 0 -10 4 -10 10v86c0 6 4 10 10 10h82c6 0 10 -4 10 -10v-86c0 -6 -4 -10 -10 -10zM54 97c-10 30 -13 54 -13 243s3 213 13 243c22 67 77 106 161 106c98 0 158 -52 169 -159c1 -6 -3 -11 -8 -12l-81 -14c-6 -1 -10 2 -11 8c-5 53 -28 80 -68 80
c-29 0 -52 -15 -59 -38c-6 -19 -7 -27 -7 -214s1 -195 7 -214c7 -23 32 -38 60 -38c29 0 54 15 61 38c5 17 7 27 7 153c0 4 -2 6 -6 6h-53c-6 0 -10 4 -10 10v74c0 6 4 10 10 10h152c6 0 10 -4 10 -10v-30c0 -188 -3 -212 -13 -242c-22 -67 -77 -106 -160 -106
c-84 0 -139 39 -161 106z" />
    <glyph glyph-name="Gcommaaccent" unicode="&#x122;" horiz-adv-x="426" 
d="M176 -221c-5 0 -8 4 -8 10v147c0 6 4 10 10 10h70c6 0 10 -4 10 -10v-55c0 -10 -2 -15 -8 -22l-61 -73c-4 -5 -8 -7 -13 -7zM54 97c-10 30 -13 54 -13 243s3 213 13 243c22 67 77 106 161 106c98 0 158 -52 169 -159c1 -6 -3 -11 -8 -12l-81 -14c-6 -1 -10 2 -11 8
c-5 53 -28 80 -68 80c-29 0 -52 -15 -59 -38c-6 -19 -7 -27 -7 -214s1 -195 7 -214c7 -23 32 -38 60 -38c29 0 54 15 61 38c5 17 7 27 7 153c0 4 -2 6 -6 6h-53c-6 0 -10 4 -10 10v74c0 6 4 10 10 10h152c6 0 10 -4 10 -10v-30c0 -188 -3 -212 -13 -242
c-22 -67 -77 -106 -160 -106c-84 0 -139 39 -161 106z" />
    <glyph glyph-name="Hcircumflex" unicode="&#x124;" horiz-adv-x="447" 
d="M53 10v660c0 6 4 10 10 10h87c6 0 10 -4 10 -10v-268c0 -4 2 -6 6 -6h115c4 0 6 2 6 6v268c0 6 4 10 10 10h87c6 0 10 -4 10 -10v-660c0 -6 -4 -10 -10 -10h-87c-6 0 -10 4 -10 10v283c0 4 -2 6 -6 6h-115c-4 0 -6 -2 -6 -6v-283c0 -6 -4 -10 -10 -10h-87
c-6 0 -10 4 -10 10zM350 750h-60c-8 0 -13 3 -19 10l-48 60h-2l-47 -60c-6 -7 -11 -10 -19 -10h-60c-6 0 -8 5 -4 10l88 125c4 6 9 10 17 10h52c8 0 14 -4 18 -10l88 -125c4 -5 2 -10 -4 -10z" />
    <glyph glyph-name="Hbar" unicode="&#x126;" horiz-adv-x="447" 
d="M384 0h-87c-6 0 -10 4 -10 10v283c0 4 -2 6 -6 6h-115c-4 0 -6 -2 -6 -6v-283c0 -6 -4 -10 -10 -10h-87c-6 0 -10 4 -10 10v475c0 4 -2 6 -6 6h-19c-6 0 -10 4 -10 10v60c0 6 4 10 10 10h19c4 0 6 2 6 6v93c0 6 4 10 10 10h87c6 0 10 -4 10 -10v-93c0 -4 2 -6 6 -6h115
c4 0 6 2 6 6v93c0 6 4 10 10 10h87c6 0 10 -4 10 -10v-93c0 -4 2 -6 6 -6h19c6 0 10 -4 10 -10v-60c0 -6 -4 -10 -10 -10h-19c-4 0 -6 -2 -6 -6v-475c0 -6 -4 -10 -10 -10zM281 396c4 0 6 2 6 6v83c0 4 -2 6 -6 6h-115c-4 0 -6 -2 -6 -6v-83c0 -4 2 -6 6 -6h115z" />
    <glyph glyph-name="Igrave" unicode="&#xcc;" horiz-adv-x="213" 
d="M53 10v660c0 6 4 10 10 10h87c6 0 10 -4 10 -10v-660c0 -6 -4 -10 -10 -10h-87c-6 0 -10 4 -10 10zM136 761h-55c-8 0 -13 3 -20 10l-99 107c-4 5 -1 10 5 10h81c9 0 12 -3 17 -10l76 -107c4 -5 1 -10 -5 -10z" />
    <glyph glyph-name="Iacute" unicode="&#xcd;" horiz-adv-x="213" 
d="M53 10v660c0 6 4 10 10 10h87c6 0 10 -4 10 -10v-660c0 -6 -4 -10 -10 -10h-87c-6 0 -10 4 -10 10zM132 761h-55c-6 0 -10 5 -6 10l77 107c5 7 8 10 16 10h81c6 0 9 -5 5 -10l-98 -107c-7 -7 -12 -10 -20 -10z" />
    <glyph glyph-name="Ibreve" unicode="&#x12c;" horiz-adv-x="213" 
d="M53 10v660c0 6 4 10 10 10h87c6 0 10 -4 10 -10v-660c0 -6 -4 -10 -10 -10h-87c-6 0 -10 4 -10 10zM106 742c-79 0 -119 55 -124 119c0 6 4 10 10 10h45c6 0 8 -4 10 -10c10 -28 29 -48 59 -48c31 0 50 20 60 48c2 6 4 10 10 10h45c6 0 10 -4 10 -10
c-5 -64 -45 -119 -125 -119z" />
    <glyph glyph-name="Icircumflex" unicode="&#xce;" horiz-adv-x="213" 
d="M53 10v660c0 6 4 10 10 10h87c6 0 10 -4 10 -10v-660c0 -6 -4 -10 -10 -10h-87c-6 0 -10 4 -10 10zM234 750h-60c-8 0 -13 3 -19 10l-48 60h-2l-47 -60c-6 -7 -11 -10 -19 -10h-60c-6 0 -8 5 -4 10l88 125c4 6 9 10 17 10h52c8 0 14 -4 18 -10l88 -125c4 -5 2 -10 -4 -10
z" />
    <glyph glyph-name="Itilde" unicode="&#x128;" horiz-adv-x="213" 
d="M53 10v660c0 6 4 10 10 10h87c6 0 10 -4 10 -10v-660c0 -6 -4 -10 -10 -10h-87c-6 0 -10 4 -10 10zM151 763c-22 0 -35 7 -52 18c-16 11 -24 16 -38 16c-21 0 -33 -11 -48 -26c-5 -5 -12 -3 -12 4v61c0 6 2 11 10 19c13 13 29 24 51 24s35 -7 51 -18
c17 -11 25 -16 39 -16c21 0 33 11 48 26c5 5 12 3 12 -4v-61c0 -6 -2 -11 -10 -19c-13 -13 -29 -24 -51 -24z" />
    <glyph glyph-name="Idieresis" unicode="&#xcf;" horiz-adv-x="213" 
d="M53 10v660c0 6 4 10 10 10h87c6 0 10 -4 10 -10v-660c0 -6 -4 -10 -10 -10h-87c-6 0 -10 4 -10 10zM215 769h-65c-6 0 -10 4 -10 10v86c0 6 4 10 10 10h65c6 0 10 -4 10 -10v-86c0 -6 -4 -10 -10 -10zM63 769h-65c-6 0 -10 4 -10 10v86c0 6 4 10 10 10h65
c6 0 10 -4 10 -10v-86c0 -6 -4 -10 -10 -10z" />
    <glyph glyph-name="Imacron" unicode="&#x12a;" horiz-adv-x="213" 
d="M53 10v660c0 6 4 10 10 10h87c6 0 10 -4 10 -10v-660c0 -6 -4 -10 -10 -10h-87c-6 0 -10 4 -10 10zM209 780h-205c-6 0 -10 4 -10 10v60c0 6 4 10 10 10h205c6 0 10 -4 10 -10v-60c0 -6 -4 -10 -10 -10z" />
    <glyph glyph-name="Idotaccent" unicode="&#x130;" horiz-adv-x="213" 
d="M53 10v660c0 6 4 10 10 10h87c6 0 10 -4 10 -10v-660c0 -6 -4 -10 -10 -10h-87c-6 0 -10 4 -10 10zM148 769h-82c-6 0 -10 4 -10 10v86c0 6 4 10 10 10h82c6 0 10 -4 10 -10v-86c0 -6 -4 -10 -10 -10z" />
    <glyph glyph-name="Iogonek" unicode="&#x12e;" horiz-adv-x="213" 
d="M100 -190c-54 0 -90 29 -90 83c0 40 20 73 56 107h-3c-6 0 -10 4 -10 10v660c0 6 4 10 10 10h87c6 0 10 -4 10 -10v-660c0 -4 -1 -6 -3 -8c-44 -41 -63 -70 -63 -93c0 -16 8 -24 19 -24c8 0 13 2 19 5c5 3 11 1 13 -4l20 -46c2 -5 0 -10 -5 -13c-13 -9 -38 -17 -60 -17z
" />
    <glyph glyph-name="Jcircumflex" unicode="&#x134;" horiz-adv-x="354" 
d="M16 36c-4 5 -4 10 1 14l59 54c5 4 9 4 15 -1c10 -9 24 -15 40 -15c41 0 65 23 65 79v503c0 6 4 10 10 10h87c6 0 10 -4 10 -10v-494c0 -130 -71 -185 -175 -185c-47 0 -89 16 -112 45zM374 750h-60c-8 0 -13 3 -19 10l-48 60h-2l-47 -60c-6 -7 -11 -10 -19 -10h-60
c-6 0 -8 5 -4 10l88 125c4 6 9 10 17 10h52c8 0 14 -4 18 -10l88 -125c4 -5 2 -10 -4 -10z" />
    <glyph glyph-name="Kcommaaccent" unicode="&#x136;" horiz-adv-x="441" 
d="M194 -221c-5 0 -8 4 -8 10v147c0 6 4 10 10 10h70c6 0 10 -4 10 -10v-55c0 -10 -2 -15 -8 -22l-61 -73c-4 -5 -8 -7 -13 -7zM53 10v660c0 6 4 10 10 10h87c6 0 10 -4 10 -10v-281l137 283c3 6 6 8 13 8h91c5 0 8 -5 5 -10l-136 -265l157 -395c2 -5 0 -10 -5 -10h-93
c-6 0 -9 2 -11 7l-113 287l-45 -93v-191c0 -6 -4 -10 -10 -10h-87c-6 0 -10 4 -10 10z" />
    <glyph glyph-name="Lacute" unicode="&#x139;" horiz-adv-x="372" 
d="M139 761h-55c-6 0 -10 5 -6 10l77 107c5 7 8 10 16 10h81c6 0 9 -5 5 -10l-98 -107c-7 -7 -12 -10 -20 -10zM53 10v660c0 6 4 10 10 10h87c6 0 10 -4 10 -10v-567c0 -4 2 -6 6 -6h176c6 0 10 -4 10 -10v-77c0 -6 -4 -10 -10 -10h-279c-6 0 -10 4 -10 10z" />
    <glyph glyph-name="Lcaron" unicode="&#x13d;" horiz-adv-x="372" 
d="M208 511c-6 0 -9 3 -9 9v150c0 6 4 10 10 10h69c6 0 10 -4 10 -10v-57c0 -11 -2 -15 -7 -22l-60 -73c-4 -5 -8 -7 -13 -7zM53 10v660c0 6 4 10 10 10h87c6 0 10 -4 10 -10v-567c0 -4 2 -6 6 -6h176c6 0 10 -4 10 -10v-77c0 -6 -4 -10 -10 -10h-279c-6 0 -10 4 -10 10z
" />
    <glyph glyph-name="Lcommaaccent" unicode="&#x13b;" horiz-adv-x="372" 
d="M151 -221c-5 0 -8 4 -8 10v147c0 6 4 10 10 10h70c6 0 10 -4 10 -10v-55c0 -10 -2 -15 -8 -22l-61 -73c-4 -5 -8 -7 -13 -7zM53 10v660c0 6 4 10 10 10h87c6 0 10 -4 10 -10v-567c0 -4 2 -6 6 -6h176c6 0 10 -4 10 -10v-77c0 -6 -4 -10 -10 -10h-279c-6 0 -10 4 -10 10z
" />
    <glyph glyph-name="Lslash" unicode="&#x141;" horiz-adv-x="372" 
d="M246 385l-86 -59v-223c0 -4 2 -6 6 -6h176c6 0 10 -4 10 -10v-77c0 -6 -4 -10 -10 -10h-279c-6 0 -10 4 -10 10v246l-36 -24c-5 -3 -10 0 -10 5v78c0 7 3 11 10 16l36 25v314c0 6 4 10 10 10h87c6 0 10 -4 10 -10v-245l86 60c5 3 10 0 10 -5v-79c0 -7 -3 -11 -10 -16z
" />
    <glyph glyph-name="Ldot" unicode="&#x13f;" horiz-adv-x="372" 
d="M53 10v660c0 6 4 10 10 10h87c6 0 10 -4 10 -10v-567c0 -4 2 -6 6 -6h176c6 0 10 -4 10 -10v-77c0 -6 -4 -10 -10 -10h-279c-6 0 -10 4 -10 10zM335 246h-85c-6 0 -10 4 -10 10v99c0 6 4 10 10 10h85c6 0 10 -4 10 -10v-99c0 -6 -4 -10 -10 -10z" />
    <glyph glyph-name="Nacute" unicode="&#x143;" horiz-adv-x="461" 
d="M228 761h-55c-6 0 -10 5 -6 10l77 107c5 7 8 10 16 10h81c6 0 9 -5 5 -10l-98 -107c-7 -7 -12 -10 -20 -10zM53 10v660c0 6 4 10 10 10h106c8 0 12 -3 14 -10l126 -470h5v470c0 6 4 10 10 10h74c6 0 10 -4 10 -10v-660c0 -6 -4 -10 -10 -10h-99c-8 0 -12 3 -14 10
l-132 470h-6v-470c0 -6 -4 -10 -10 -10h-74c-6 0 -10 4 -10 10z" />
    <glyph glyph-name="Ncaron" unicode="&#x147;" horiz-adv-x="461" 
d="M256 747h-52c-8 0 -13 4 -17 10l-88 125c-4 5 -2 10 4 10h60c8 0 13 -3 19 -10l47 -59h2l48 59c6 7 11 10 19 10h60c6 0 8 -5 4 -10l-88 -125c-4 -6 -10 -10 -18 -10zM53 10v660c0 6 4 10 10 10h106c8 0 12 -3 14 -10l126 -470h5v470c0 6 4 10 10 10h74c6 0 10 -4 10 -10
v-660c0 -6 -4 -10 -10 -10h-99c-8 0 -12 3 -14 10l-132 470h-6v-470c0 -6 -4 -10 -10 -10h-74c-6 0 -10 4 -10 10z" />
    <glyph glyph-name="Ntilde" unicode="&#xd1;" horiz-adv-x="461" 
d="M275 763c-22 0 -35 7 -52 18c-16 11 -24 16 -38 16c-21 0 -33 -11 -48 -26c-5 -5 -12 -3 -12 4v61c0 6 2 11 10 19c13 13 29 24 51 24s35 -7 51 -18c17 -11 25 -16 39 -16c21 0 33 11 48 26c5 5 12 3 12 -4v-61c0 -6 -2 -11 -10 -19c-13 -13 -29 -24 -51 -24zM53 10v660
c0 6 4 10 10 10h106c8 0 12 -3 14 -10l126 -470h5v470c0 6 4 10 10 10h74c6 0 10 -4 10 -10v-660c0 -6 -4 -10 -10 -10h-99c-8 0 -12 3 -14 10l-132 470h-6v-470c0 -6 -4 -10 -10 -10h-74c-6 0 -10 4 -10 10z" />
    <glyph glyph-name="Ncommaaccent" unicode="&#x145;" horiz-adv-x="461" 
d="M204 -221c-5 0 -8 4 -8 10v147c0 6 4 10 10 10h70c6 0 10 -4 10 -10v-55c0 -10 -2 -15 -8 -22l-61 -73c-4 -5 -8 -7 -13 -7zM53 10v660c0 6 4 10 10 10h106c8 0 12 -3 14 -10l126 -470h5v470c0 6 4 10 10 10h74c6 0 10 -4 10 -10v-660c0 -6 -4 -10 -10 -10h-99
c-8 0 -12 3 -14 10l-132 470h-6v-470c0 -6 -4 -10 -10 -10h-74c-6 0 -10 4 -10 10z" />
    <glyph glyph-name="Ograve" unicode="&#xd2;" horiz-adv-x="429" 
d="M244 761h-55c-8 0 -13 3 -20 10l-99 107c-4 5 -1 10 5 10h81c9 0 12 -3 17 -10l76 -107c4 -5 1 -10 -5 -10zM215 -9c-84 0 -139 39 -161 106c-10 30 -13 54 -13 243s3 213 13 243c22 67 77 106 161 106c83 0 138 -39 160 -106c10 -30 13 -54 13 -243s-3 -213 -13 -243
c-22 -67 -77 -106 -160 -106zM215 88c28 0 50 15 57 38c6 19 7 27 7 214s-1 195 -7 214c-7 23 -29 38 -57 38c-29 0 -51 -15 -58 -38c-6 -19 -7 -27 -7 -214s1 -195 7 -214c7 -23 29 -38 58 -38z" />
    <glyph glyph-name="Oacute" unicode="&#xd3;" horiz-adv-x="429" 
d="M230 761h-55c-6 0 -10 5 -6 10l77 107c5 7 8 10 16 10h81c6 0 9 -5 5 -10l-98 -107c-7 -7 -12 -10 -20 -10zM215 -9c-84 0 -139 39 -161 106c-10 30 -13 54 -13 243s3 213 13 243c22 67 77 106 161 106c83 0 138 -39 160 -106c10 -30 13 -54 13 -243s-3 -213 -13 -243
c-22 -67 -77 -106 -160 -106zM215 88c28 0 50 15 57 38c6 19 7 27 7 214s-1 195 -7 214c-7 23 -29 38 -57 38c-29 0 -51 -15 -58 -38c-6 -19 -7 -27 -7 -214s1 -195 7 -214c7 -23 29 -38 58 -38z" />
    <glyph glyph-name="Ocircumflex" unicode="&#xd4;" horiz-adv-x="429" 
d="M215 -9c-84 0 -139 39 -161 106c-10 30 -13 54 -13 243s3 213 13 243c22 67 77 106 161 106c83 0 138 -39 160 -106c10 -30 13 -54 13 -243s-3 -213 -13 -243c-22 -67 -77 -106 -160 -106zM215 88c28 0 50 15 57 38c6 19 7 27 7 214s-1 195 -7 214c-7 23 -29 38 -57 38
c-29 0 -51 -15 -58 -38c-6 -19 -7 -27 -7 -214s1 -195 7 -214c7 -23 29 -38 58 -38zM342 750h-60c-8 0 -13 3 -19 10l-48 60h-2l-47 -60c-6 -7 -11 -10 -19 -10h-60c-6 0 -8 5 -4 10l88 125c4 6 9 10 17 10h52c8 0 14 -4 18 -10l88 -125c4 -5 2 -10 -4 -10z" />
    <glyph glyph-name="Otilde" unicode="&#xd5;" horiz-adv-x="429" 
d="M259 763c-22 0 -35 7 -52 18c-16 11 -24 16 -38 16c-21 0 -33 -11 -48 -26c-5 -5 -12 -3 -12 4v61c0 6 2 11 10 19c13 13 29 24 51 24s35 -7 51 -18c17 -11 25 -16 39 -16c21 0 33 11 48 26c5 5 12 3 12 -4v-61c0 -6 -2 -11 -10 -19c-13 -13 -29 -24 -51 -24zM215 -9
c-84 0 -139 39 -161 106c-10 30 -13 54 -13 243s3 213 13 243c22 67 77 106 161 106c83 0 138 -39 160 -106c10 -30 13 -54 13 -243s-3 -213 -13 -243c-22 -67 -77 -106 -160 -106zM215 88c28 0 50 15 57 38c6 19 7 27 7 214s-1 195 -7 214c-7 23 -29 38 -57 38
c-29 0 -51 -15 -58 -38c-6 -19 -7 -27 -7 -214s1 -195 7 -214c7 -23 29 -38 58 -38z" />
    <glyph glyph-name="Odieresis" unicode="&#xd6;" horiz-adv-x="429" 
d="M323 769h-65c-6 0 -10 4 -10 10v86c0 6 4 10 10 10h65c6 0 10 -4 10 -10v-86c0 -6 -4 -10 -10 -10zM171 769h-65c-6 0 -10 4 -10 10v86c0 6 4 10 10 10h65c6 0 10 -4 10 -10v-86c0 -6 -4 -10 -10 -10zM215 -9c-84 0 -139 39 -161 106c-10 30 -13 54 -13 243s3 213 13 243
c22 67 77 106 161 106c83 0 138 -39 160 -106c10 -30 13 -54 13 -243s-3 -213 -13 -243c-22 -67 -77 -106 -160 -106zM215 88c28 0 50 15 57 38c6 19 7 27 7 214s-1 195 -7 214c-7 23 -29 38 -57 38c-29 0 -51 -15 -58 -38c-6 -19 -7 -27 -7 -214s1 -195 7 -214
c7 -23 29 -38 58 -38z" />
    <glyph glyph-name="Omacron" unicode="&#x14c;" horiz-adv-x="429" 
d="M317 780h-205c-6 0 -10 4 -10 10v60c0 6 4 10 10 10h205c6 0 10 -4 10 -10v-60c0 -6 -4 -10 -10 -10zM215 -9c-84 0 -139 39 -161 106c-10 30 -13 54 -13 243s3 213 13 243c22 67 77 106 161 106c83 0 138 -39 160 -106c10 -30 13 -54 13 -243s-3 -213 -13 -243
c-22 -67 -77 -106 -160 -106zM215 88c28 0 50 15 57 38c6 19 7 27 7 214s-1 195 -7 214c-7 23 -29 38 -57 38c-29 0 -51 -15 -58 -38c-6 -19 -7 -27 -7 -214s1 -195 7 -214c7 -23 29 -38 58 -38z" />
    <glyph glyph-name="Obreve" unicode="&#x14e;" horiz-adv-x="429" 
d="M214 742c-79 0 -119 55 -124 119c0 6 4 10 10 10h45c6 0 8 -4 10 -10c10 -28 29 -48 59 -48c31 0 50 20 60 48c2 6 4 10 10 10h45c6 0 10 -4 10 -10c-5 -64 -45 -119 -125 -119zM215 -9c-84 0 -139 39 -161 106c-10 30 -13 54 -13 243s3 213 13 243c22 67 77 106 161 106
c83 0 138 -39 160 -106c10 -30 13 -54 13 -243s-3 -213 -13 -243c-22 -67 -77 -106 -160 -106zM215 88c28 0 50 15 57 38c6 19 7 27 7 214s-1 195 -7 214c-7 23 -29 38 -57 38c-29 0 -51 -15 -58 -38c-6 -19 -7 -27 -7 -214s1 -195 7 -214c7 -23 29 -38 58 -38z" />
    <glyph glyph-name="Ohungarumlaut" unicode="&#x150;" horiz-adv-x="429" 
d="M215 -9c-84 0 -139 39 -161 106c-10 30 -13 54 -13 243s3 213 13 243c22 67 77 106 161 106c83 0 138 -39 160 -106c10 -30 13 -54 13 -243s-3 -213 -13 -243c-22 -67 -77 -106 -160 -106zM215 88c28 0 50 15 57 38c6 19 7 27 7 214s-1 195 -7 214c-7 23 -29 38 -57 38
c-29 0 -51 -15 -58 -38c-6 -19 -7 -27 -7 -214s1 -195 7 -214c7 -23 29 -38 58 -38zM304 761h-50c-6 0 -9 4 -5 10l69 107c4 6 9 10 17 10h68c6 0 8 -5 4 -10l-84 -107c-6 -7 -11 -10 -19 -10zM171 761h-50c-6 0 -9 4 -5 10l70 107c4 6 9 10 17 10h67c6 0 8 -5 4 -10
l-84 -107c-6 -7 -11 -10 -19 -10z" />
    <glyph glyph-name="Oslash" unicode="&#xd8;" horiz-adv-x="429" 
d="M67 -30h-27c-6 0 -9 4 -6 10l35 82c-6 11 -11 22 -15 35c-10 30 -13 54 -13 243s3 213 13 243c22 67 77 106 161 106c47 0 85 -13 113 -36l21 48c3 7 6 9 13 9h26c6 0 9 -4 7 -10l-36 -82c6 -11 12 -23 16 -35c10 -30 13 -54 13 -243s-3 -213 -13 -243
c-22 -67 -77 -106 -160 -106c-48 0 -86 12 -115 35l-20 -47c-3 -7 -6 -9 -13 -9zM150 340v-102l125 305l-3 11c-7 23 -29 38 -57 38c-29 0 -51 -15 -58 -38c-6 -19 -7 -27 -7 -214zM215 88c28 0 50 15 57 38c6 19 7 27 7 214v101l-125 -304l3 -11c7 -23 29 -38 58 -38z" />
    <glyph glyph-name="Oslashacute" unicode="&#x1fe;" horiz-adv-x="429" 
d="M67 -30h-27c-6 0 -9 4 -6 10l35 82c-6 11 -11 22 -15 35c-10 30 -13 54 -13 243s3 213 13 243c22 67 77 106 161 106c47 0 85 -13 113 -36l21 48c3 7 6 9 13 9h26c6 0 9 -4 7 -10l-36 -82c6 -11 12 -23 16 -35c10 -30 13 -54 13 -243s-3 -213 -13 -243
c-22 -67 -77 -106 -160 -106c-48 0 -86 12 -115 35l-20 -47c-3 -7 -6 -9 -13 -9zM150 340v-102l125 305l-3 11c-7 23 -29 38 -57 38c-29 0 -51 -15 -58 -38c-6 -19 -7 -27 -7 -214zM215 88c28 0 50 15 57 38c6 19 7 27 7 214v101l-125 -304l3 -11c7 -23 29 -38 58 -38z
M230 761h-55c-6 0 -10 5 -6 10l77 107c5 7 8 10 16 10h81c6 0 9 -5 5 -10l-98 -107c-7 -7 -12 -10 -20 -10z" />
    <glyph glyph-name="OE" unicode="&#x152;" horiz-adv-x="608" 
d="M569 0h-280c-6 0 -10 4 -10 10v11h-1c-15 -17 -42 -30 -81 -30c-70 0 -121 35 -143 102c-10 30 -13 58 -13 247s3 217 13 247c22 67 73 102 143 102c39 0 66 -13 81 -30h1v11c0 6 4 10 10 10h280c6 0 10 -4 10 -10v-77c0 -6 -4 -10 -10 -10h-177c-4 0 -6 -2 -6 -6v-179
c0 -4 2 -6 6 -6h153c6 0 10 -4 10 -10v-77c0 -6 -4 -10 -10 -10h-153c-4 0 -6 -2 -6 -6v-186c0 -4 2 -6 6 -6h177c6 0 10 -4 10 -10v-77c0 -6 -4 -10 -10 -10zM215 88c28 0 50 15 57 38c6 19 7 27 7 214s-1 195 -7 214c-7 23 -29 38 -57 38c-29 0 -51 -15 -58 -38
c-6 -19 -7 -27 -7 -214s1 -195 7 -214c7 -23 29 -38 58 -38z" />
    <glyph glyph-name="Racute" unicode="&#x154;" horiz-adv-x="436" 
d="M404 0h-93c-6 0 -9 2 -11 7l-83 271h-17h-34c-4 0 -6 -2 -6 -6v-262c0 -6 -4 -10 -10 -10h-87c-6 0 -10 4 -10 10v660c0 6 4 10 10 10h137c121 0 194 -53 194 -202c0 -89 -30 -145 -81 -174l96 -294c2 -5 0 -10 -5 -10zM201 373c60 0 86 24 86 105c0 80 -26 105 -86 105
h-35c-4 0 -6 -2 -6 -6v-198c0 -4 2 -6 6 -6h35zM206 761h-55c-6 0 -10 5 -6 10l77 107c5 7 8 10 16 10h81c6 0 9 -5 5 -10l-98 -107c-7 -7 -12 -10 -20 -10z" />
    <glyph glyph-name="Rcaron" unicode="&#x158;" horiz-adv-x="436" 
d="M217 747h-52c-8 0 -13 4 -17 10l-88 125c-4 5 -2 10 4 10h60c8 0 13 -3 19 -10l47 -59h2l48 59c6 7 11 10 19 10h60c6 0 8 -5 4 -10l-88 -125c-4 -6 -10 -10 -18 -10zM404 0h-93c-6 0 -9 2 -11 7l-83 271h-17h-34c-4 0 -6 -2 -6 -6v-262c0 -6 -4 -10 -10 -10h-87
c-6 0 -10 4 -10 10v660c0 6 4 10 10 10h137c121 0 194 -53 194 -202c0 -89 -30 -145 -81 -174l96 -294c2 -5 0 -10 -5 -10zM201 373c60 0 86 24 86 105c0 80 -26 105 -86 105h-35c-4 0 -6 -2 -6 -6v-198c0 -4 2 -6 6 -6h35z" />
    <glyph glyph-name="Rcommaaccent" unicode="&#x156;" horiz-adv-x="436" 
d="M186 -221c-5 0 -8 4 -8 10v147c0 6 4 10 10 10h70c6 0 10 -4 10 -10v-55c0 -10 -2 -15 -8 -22l-61 -73c-4 -5 -8 -7 -13 -7zM404 0h-93c-6 0 -9 2 -11 7l-83 271h-17h-34c-4 0 -6 -2 -6 -6v-262c0 -6 -4 -10 -10 -10h-87c-6 0 -10 4 -10 10v660c0 6 4 10 10 10h137
c121 0 194 -53 194 -202c0 -89 -30 -145 -81 -174l96 -294c2 -5 0 -10 -5 -10zM201 373c60 0 86 24 86 105c0 80 -26 105 -86 105h-35c-4 0 -6 -2 -6 -6v-198c0 -4 2 -6 6 -6h35z" />
    <glyph glyph-name="Sacute" unicode="&#x15a;" horiz-adv-x="404" 
d="M375 195c0 -134 -45 -204 -174 -204c-110 0 -167 59 -170 178c0 6 2 10 8 11l84 14c7 1 11 -3 11 -9c3 -72 24 -100 70 -100c43 0 64 23 64 97c0 73 -14 97 -67 118l-41 16c-94 37 -122 86 -122 192c0 117 53 181 165 181s161 -60 167 -166c0 -6 -3 -9 -9 -11l-80 -12
c-6 -1 -11 2 -11 8c-2 56 -20 87 -64 87c-42 0 -62 -26 -62 -82c0 -63 12 -82 66 -103l41 -16c89 -35 124 -83 124 -199zM221 761h-55c-6 0 -10 5 -6 10l77 107c5 7 8 10 16 10h81c6 0 9 -5 5 -10l-98 -107c-7 -7 -12 -10 -20 -10z" />
    <glyph glyph-name="Scircumflex" unicode="&#x15c;" horiz-adv-x="404" 
d="M375 195c0 -134 -45 -204 -174 -204c-110 0 -167 59 -170 178c0 6 2 10 8 11l84 14c7 1 11 -3 11 -9c3 -72 24 -100 70 -100c43 0 64 23 64 97c0 73 -14 97 -67 118l-41 16c-94 37 -122 86 -122 192c0 117 53 181 165 181s161 -60 167 -166c0 -6 -3 -9 -9 -11l-80 -12
c-6 -1 -11 2 -11 8c-2 56 -20 87 -64 87c-42 0 -62 -26 -62 -82c0 -63 12 -82 66 -103l41 -16c89 -35 124 -83 124 -199zM330 750h-60c-8 0 -13 3 -19 10l-48 60h-2l-47 -60c-6 -7 -11 -10 -19 -10h-60c-6 0 -8 5 -4 10l88 125c4 6 9 10 17 10h52c8 0 14 -4 18 -10l88 -125
c4 -5 2 -10 -4 -10z" />
    <glyph glyph-name="Scaron" unicode="&#x160;" horiz-adv-x="404" 
d="M375 195c0 -134 -45 -204 -174 -204c-110 0 -167 59 -170 178c0 6 2 10 8 11l84 14c7 1 11 -3 11 -9c3 -72 24 -100 70 -100c43 0 64 23 64 97c0 73 -14 97 -67 118l-41 16c-94 37 -122 86 -122 192c0 117 53 181 165 181s161 -60 167 -166c0 -6 -3 -9 -9 -11l-80 -12
c-6 -1 -11 2 -11 8c-2 56 -20 87 -64 87c-42 0 -62 -26 -62 -82c0 -63 12 -82 66 -103l41 -16c89 -35 124 -83 124 -199zM219 747h-52c-8 0 -13 4 -17 10l-88 125c-4 5 -2 10 4 10h60c8 0 13 -3 19 -10l47 -59h2l48 59c6 7 11 10 19 10h60c6 0 8 -5 4 -10l-88 -125
c-4 -6 -10 -10 -18 -10z" />
    <glyph glyph-name="Scedilla" unicode="&#x15e;" horiz-adv-x="404" 
d="M105 -145l58 139c-85 12 -130 70 -132 175c0 6 2 10 8 11l84 14c7 1 11 -3 11 -9c3 -72 24 -100 70 -100c43 0 64 23 64 97c0 73 -14 97 -67 118l-41 16c-94 37 -122 86 -122 192c0 117 53 181 165 181s161 -60 167 -166c0 -6 -3 -9 -9 -11l-80 -12c-6 -1 -11 2 -11 8
c-2 56 -20 87 -64 87c-42 0 -62 -26 -62 -82c0 -63 12 -82 66 -103l41 -16c89 -35 124 -83 124 -199c0 -118 -36 -187 -132 -201l-49 -139c-3 -7 -7 -10 -16 -10h-66c-6 0 -9 4 -7 10z" />
    <glyph glyph-name="Scommaaccent" unicode="&#x218;" horiz-adv-x="404" 
d="M166 -221c-5 0 -8 4 -8 10v147c0 6 4 10 10 10h70c6 0 10 -4 10 -10v-55c0 -10 -2 -15 -8 -22l-61 -73c-4 -5 -8 -7 -13 -7zM375 195c0 -134 -45 -204 -174 -204c-110 0 -167 59 -170 178c0 6 2 10 8 11l84 14c7 1 11 -3 11 -9c3 -72 24 -100 70 -100c43 0 64 23 64 97
c0 73 -14 97 -67 118l-41 16c-94 37 -122 86 -122 192c0 117 53 181 165 181s161 -60 167 -166c0 -6 -3 -9 -9 -11l-80 -12c-6 -1 -11 2 -11 8c-2 56 -20 87 -64 87c-42 0 -62 -26 -62 -82c0 -63 12 -82 66 -103l41 -16c89 -35 124 -83 124 -199z" />
    <glyph glyph-name="Tcaron" unicode="&#x164;" horiz-adv-x="375" 
d="M214 747h-52c-8 0 -13 4 -17 10l-88 125c-4 5 -2 10 4 10h60c8 0 13 -3 19 -10l47 -59h2l48 59c6 7 11 10 19 10h60c6 0 8 -5 4 -10l-88 -125c-4 -6 -10 -10 -18 -10zM231 0h-87c-6 0 -10 4 -10 10v567c0 4 -2 6 -6 6h-104c-6 0 -10 4 -10 10v77c0 6 4 10 10 10h327
c6 0 10 -4 10 -10v-77c0 -6 -4 -10 -10 -10h-104c-4 0 -6 -2 -6 -6v-567c0 -6 -4 -10 -10 -10z" />
    <glyph glyph-name="Tcommaaccent" unicode="&#x162;" horiz-adv-x="375" 
d="M152 -221c-5 0 -8 4 -8 10v147c0 6 4 10 10 10h70c6 0 10 -4 10 -10v-55c0 -10 -2 -15 -8 -22l-61 -73c-4 -5 -8 -7 -13 -7zM231 0h-87c-6 0 -10 4 -10 10v567c0 4 -2 6 -6 6h-104c-6 0 -10 4 -10 10v77c0 6 4 10 10 10h327c6 0 10 -4 10 -10v-77c0 -6 -4 -10 -10 -10
h-104c-4 0 -6 -2 -6 -6v-567c0 -6 -4 -10 -10 -10z" />
    <glyph glyph-name="uni021A" unicode="&#x21a;" horiz-adv-x="375" 
d="M152 -221c-5 0 -8 4 -8 10v147c0 6 4 10 10 10h70c6 0 10 -4 10 -10v-55c0 -10 -2 -15 -8 -22l-61 -73c-4 -5 -8 -7 -13 -7zM231 0h-87c-6 0 -10 4 -10 10v567c0 4 -2 6 -6 6h-104c-6 0 -10 4 -10 10v77c0 6 4 10 10 10h327c6 0 10 -4 10 -10v-77c0 -6 -4 -10 -10 -10
h-104c-4 0 -6 -2 -6 -6v-567c0 -6 -4 -10 -10 -10z" />
    <glyph glyph-name="Tbar" unicode="&#x166;" horiz-adv-x="375" 
d="M231 0h-87c-6 0 -10 4 -10 10v343c0 4 -2 6 -6 6h-60c-6 0 -10 4 -10 10v71c0 6 4 10 10 10h60c4 0 6 2 6 6v121c0 4 -2 6 -6 6h-104c-6 0 -10 4 -10 10v77c0 6 4 10 10 10h327c6 0 10 -4 10 -10v-77c0 -6 -4 -10 -10 -10h-104c-4 0 -6 -2 -6 -6v-121c0 -4 2 -6 6 -6h60
c6 0 10 -4 10 -10v-71c0 -6 -4 -10 -10 -10h-60c-4 0 -6 -2 -6 -6v-343c0 -6 -4 -10 -10 -10z" />
    <glyph glyph-name="Thorn" unicode="&#xde;" horiz-adv-x="425" 
d="M150 0h-87c-6 0 -10 4 -10 10v660c0 6 4 10 10 10h87c6 0 10 -4 10 -10v-104c0 -4 2 -6 6 -6h34c121 0 193 -54 193 -209c0 -152 -72 -209 -193 -209h-34c-4 0 -6 -2 -6 -6v-126c0 -6 -4 -10 -10 -10zM201 239c60 0 85 25 85 112c0 86 -25 112 -85 112h-35
c-4 0 -6 -2 -6 -6v-212c0 -4 2 -6 6 -6h35z" />
    <glyph glyph-name="Ugrave" unicode="&#xd9;" horiz-adv-x="443" 
d="M255 761h-55c-8 0 -13 3 -20 10l-99 107c-4 5 -1 10 5 10h81c9 0 12 -3 17 -10l76 -107c4 -5 1 -10 -5 -10zM222 -9c-105 0 -170 61 -170 182v497c0 6 4 10 10 10h87c6 0 10 -4 10 -10v-511c0 -43 23 -71 63 -71s62 28 62 71v511c0 6 4 10 10 10h87c6 0 10 -4 10 -10
v-497c0 -121 -64 -182 -169 -182z" />
    <glyph glyph-name="Uacute" unicode="&#xda;" horiz-adv-x="443" 
d="M248 761h-55c-6 0 -10 5 -6 10l77 107c5 7 8 10 16 10h81c6 0 9 -5 5 -10l-98 -107c-7 -7 -12 -10 -20 -10zM222 -9c-105 0 -170 61 -170 182v497c0 6 4 10 10 10h87c6 0 10 -4 10 -10v-511c0 -43 23 -71 63 -71s62 28 62 71v511c0 6 4 10 10 10h87c6 0 10 -4 10 -10
v-497c0 -121 -64 -182 -169 -182z" />
    <glyph glyph-name="Ucircumflex" unicode="&#xdb;" horiz-adv-x="443" 
d="M222 -9c-105 0 -170 61 -170 182v497c0 6 4 10 10 10h87c6 0 10 -4 10 -10v-511c0 -43 23 -71 63 -71s62 28 62 71v511c0 6 4 10 10 10h87c6 0 10 -4 10 -10v-497c0 -121 -64 -182 -169 -182zM349 750h-60c-8 0 -13 3 -19 10l-48 60h-2l-47 -60c-6 -7 -11 -10 -19 -10
h-60c-6 0 -8 5 -4 10l88 125c4 6 9 10 17 10h52c8 0 14 -4 18 -10l88 -125c4 -5 2 -10 -4 -10z" />
    <glyph glyph-name="Utilde" unicode="&#x168;" horiz-adv-x="443" 
d="M266 763c-22 0 -35 7 -52 18c-16 11 -24 16 -38 16c-21 0 -33 -11 -48 -26c-5 -5 -12 -3 -12 4v61c0 6 2 11 10 19c13 13 29 24 51 24s35 -7 51 -18c17 -11 25 -16 39 -16c21 0 33 11 48 26c5 5 12 3 12 -4v-61c0 -6 -2 -11 -10 -19c-13 -13 -29 -24 -51 -24zM222 -9
c-105 0 -170 61 -170 182v497c0 6 4 10 10 10h87c6 0 10 -4 10 -10v-511c0 -43 23 -71 63 -71s62 28 62 71v511c0 6 4 10 10 10h87c6 0 10 -4 10 -10v-497c0 -121 -64 -182 -169 -182z" />
    <glyph glyph-name="Udieresis" unicode="&#xdc;" horiz-adv-x="443" 
d="M330 769h-65c-6 0 -10 4 -10 10v86c0 6 4 10 10 10h65c6 0 10 -4 10 -10v-86c0 -6 -4 -10 -10 -10zM178 769h-65c-6 0 -10 4 -10 10v86c0 6 4 10 10 10h65c6 0 10 -4 10 -10v-86c0 -6 -4 -10 -10 -10zM222 -9c-105 0 -170 61 -170 182v497c0 6 4 10 10 10h87
c6 0 10 -4 10 -10v-511c0 -43 23 -71 63 -71s62 28 62 71v511c0 6 4 10 10 10h87c6 0 10 -4 10 -10v-497c0 -121 -64 -182 -169 -182z" />
    <glyph glyph-name="Umacron" unicode="&#x16a;" horiz-adv-x="443" 
d="M324 780h-205c-6 0 -10 4 -10 10v60c0 6 4 10 10 10h205c6 0 10 -4 10 -10v-60c0 -6 -4 -10 -10 -10zM222 -9c-105 0 -170 61 -170 182v497c0 6 4 10 10 10h87c6 0 10 -4 10 -10v-511c0 -43 23 -71 63 -71s62 28 62 71v511c0 6 4 10 10 10h87c6 0 10 -4 10 -10v-497
c0 -121 -64 -182 -169 -182z" />
    <glyph glyph-name="Ubreve" unicode="&#x16c;" horiz-adv-x="443" 
d="M221 742c-79 0 -119 55 -124 119c0 6 4 10 10 10h45c6 0 8 -4 10 -10c10 -28 29 -48 59 -48c31 0 50 20 60 48c2 6 4 10 10 10h45c6 0 10 -4 10 -10c-5 -64 -45 -119 -125 -119zM222 -9c-105 0 -170 61 -170 182v497c0 6 4 10 10 10h87c6 0 10 -4 10 -10v-511
c0 -43 23 -71 63 -71s62 28 62 71v511c0 6 4 10 10 10h87c6 0 10 -4 10 -10v-497c0 -121 -64 -182 -169 -182z" />
    <glyph glyph-name="Uring" unicode="&#x16e;" horiz-adv-x="443" 
d="M222 -9c-105 0 -170 61 -170 182v497c0 6 4 10 10 10h87c6 0 10 -4 10 -10v-511c0 -43 23 -71 63 -71s62 28 62 71v511c0 6 4 10 10 10h87c6 0 10 -4 10 -10v-497c0 -121 -64 -182 -169 -182zM221 721c-51 0 -90 39 -90 91c0 51 39 90 90 90c52 0 91 -39 91 -90
c0 -52 -39 -91 -91 -91zM221 764c27 0 46 21 46 48s-19 47 -46 47c-26 0 -45 -20 -45 -47s19 -48 45 -48z" />
    <glyph glyph-name="Uhungarumlaut" unicode="&#x170;" horiz-adv-x="443" 
d="M222 -9c-105 0 -170 61 -170 182v497c0 6 4 10 10 10h87c6 0 10 -4 10 -10v-511c0 -43 23 -71 63 -71s62 28 62 71v511c0 6 4 10 10 10h87c6 0 10 -4 10 -10v-497c0 -121 -64 -182 -169 -182zM308 761h-50c-6 0 -9 4 -5 10l69 107c4 6 9 10 17 10h68c6 0 8 -5 4 -10
l-84 -107c-6 -7 -11 -10 -19 -10zM175 761h-50c-6 0 -9 4 -5 10l70 107c4 6 9 10 17 10h67c6 0 8 -5 4 -10l-84 -107c-6 -7 -11 -10 -19 -10z" />
    <glyph glyph-name="Uogonek" unicode="&#x172;" horiz-adv-x="443" 
d="M225 -190c-54 0 -90 29 -90 83c0 35 11 61 43 102c-78 14 -126 73 -126 178v497c0 6 4 10 10 10h87c6 0 10 -4 10 -10v-511c0 -43 23 -71 63 -71s62 28 62 71v511c0 6 4 10 10 10h87c6 0 10 -4 10 -10v-497c0 -104 -48 -163 -124 -178c-41 -47 -48 -68 -48 -86
c0 -16 8 -24 19 -24c8 0 13 2 18 5s11 1 13 -4l21 -46c2 -5 0 -10 -5 -13c-13 -9 -39 -17 -60 -17z" />
    <glyph glyph-name="Wacute" unicode="&#x1e82;" horiz-adv-x="579" 
d="M316 761h-55c-6 0 -10 5 -6 10l77 107c5 7 8 10 16 10h81c6 0 9 -5 5 -10l-98 -107c-7 -7 -12 -10 -20 -10zM445 0h-74c-6 0 -9 4 -10 10l-69 437h-2l-72 -437c-1 -6 -4 -10 -10 -10h-75c-6 0 -9 4 -10 10l-105 660c-1 6 1 10 9 10h86c6 0 10 -3 11 -10l49 -443h3l73 443
c1 7 5 10 11 10h59c6 0 10 -3 11 -10l73 -443h3l52 443c1 7 5 10 11 10h83c8 0 10 -4 9 -10l-106 -660c-1 -6 -4 -10 -10 -10z" />
    <glyph glyph-name="Wcircumflex" unicode="&#x174;" horiz-adv-x="579" 
d="M445 0h-74c-6 0 -9 4 -10 10l-69 437h-2l-72 -437c-1 -6 -4 -10 -10 -10h-75c-6 0 -9 4 -10 10l-105 660c-1 6 1 10 9 10h86c6 0 10 -3 11 -10l49 -443h3l73 443c1 7 5 10 11 10h59c6 0 10 -3 11 -10l73 -443h3l52 443c1 7 5 10 11 10h83c8 0 10 -4 9 -10l-106 -660
c-1 -6 -4 -10 -10 -10zM416 750h-60c-8 0 -13 3 -19 10l-48 60h-2l-47 -60c-6 -7 -11 -10 -19 -10h-60c-6 0 -8 5 -4 10l88 125c4 6 9 10 17 10h52c8 0 14 -4 18 -10l88 -125c4 -5 2 -10 -4 -10z" />
    <glyph glyph-name="Wdieresis" unicode="&#x1e84;" horiz-adv-x="579" 
d="M397 769h-65c-6 0 -10 4 -10 10v86c0 6 4 10 10 10h65c6 0 10 -4 10 -10v-86c0 -6 -4 -10 -10 -10zM245 769h-65c-6 0 -10 4 -10 10v86c0 6 4 10 10 10h65c6 0 10 -4 10 -10v-86c0 -6 -4 -10 -10 -10zM445 0h-74c-6 0 -9 4 -10 10l-69 437h-2l-72 -437
c-1 -6 -4 -10 -10 -10h-75c-6 0 -9 4 -10 10l-105 660c-1 6 1 10 9 10h86c6 0 10 -3 11 -10l49 -443h3l73 443c1 7 5 10 11 10h59c6 0 10 -3 11 -10l73 -443h3l52 443c1 7 5 10 11 10h83c8 0 10 -4 9 -10l-106 -660c-1 -6 -4 -10 -10 -10z" />
    <glyph glyph-name="Wgrave" unicode="&#x1e80;" horiz-adv-x="579" 
d="M318 761h-55c-8 0 -13 3 -20 10l-99 107c-4 5 -1 10 5 10h81c9 0 12 -3 17 -10l76 -107c4 -5 1 -10 -5 -10zM445 0h-74c-6 0 -9 4 -10 10l-69 437h-2l-72 -437c-1 -6 -4 -10 -10 -10h-75c-6 0 -9 4 -10 10l-105 660c-1 6 1 10 9 10h86c6 0 10 -3 11 -10l49 -443h3l73 443
c1 7 5 10 11 10h59c6 0 10 -3 11 -10l73 -443h3l52 443c1 7 5 10 11 10h83c8 0 10 -4 9 -10l-106 -660c-1 -6 -4 -10 -10 -10z" />
    <glyph glyph-name="Yacute" unicode="&#xdd;" horiz-adv-x="386" 
d="M237 0h-87c-6 0 -10 4 -10 10v269l-130 391c-2 6 0 10 8 10h88c7 0 10 -3 12 -10l76 -263h3l74 263c2 7 5 10 12 10h86c8 0 10 -4 8 -10l-130 -391v-269c0 -6 -4 -10 -10 -10zM218 761h-55c-6 0 -10 5 -6 10l77 107c5 7 8 10 16 10h81c6 0 9 -5 5 -10l-98 -107
c-7 -7 -12 -10 -20 -10z" />
    <glyph glyph-name="Ycircumflex" unicode="&#x176;" horiz-adv-x="386" 
d="M237 0h-87c-6 0 -10 4 -10 10v269l-130 391c-2 6 0 10 8 10h88c7 0 10 -3 12 -10l76 -263h3l74 263c2 7 5 10 12 10h86c8 0 10 -4 8 -10l-130 -391v-269c0 -6 -4 -10 -10 -10zM321 750h-60c-8 0 -13 3 -19 10l-48 60h-2l-47 -60c-6 -7 -11 -10 -19 -10h-60
c-6 0 -8 5 -4 10l88 125c4 6 9 10 17 10h52c8 0 14 -4 18 -10l88 -125c4 -5 2 -10 -4 -10z" />
    <glyph glyph-name="Ydieresis" unicode="&#x178;" horiz-adv-x="386" 
d="M237 0h-87c-6 0 -10 4 -10 10v269l-130 391c-2 6 0 10 8 10h88c7 0 10 -3 12 -10l76 -263h3l74 263c2 7 5 10 12 10h86c8 0 10 -4 8 -10l-130 -391v-269c0 -6 -4 -10 -10 -10zM302 769h-65c-6 0 -10 4 -10 10v86c0 6 4 10 10 10h65c6 0 10 -4 10 -10v-86
c0 -6 -4 -10 -10 -10zM150 769h-65c-6 0 -10 4 -10 10v86c0 6 4 10 10 10h65c6 0 10 -4 10 -10v-86c0 -6 -4 -10 -10 -10z" />
    <glyph glyph-name="Ygrave" unicode="&#x1ef2;" horiz-adv-x="386" 
d="M237 0h-87c-6 0 -10 4 -10 10v269l-130 391c-2 6 0 10 8 10h88c7 0 10 -3 12 -10l76 -263h3l74 263c2 7 5 10 12 10h86c8 0 10 -4 8 -10l-130 -391v-269c0 -6 -4 -10 -10 -10zM231 761h-55c-8 0 -13 3 -20 10l-99 107c-4 5 -1 10 5 10h81c9 0 12 -3 17 -10l76 -107
c4 -5 1 -10 -5 -10z" />
    <glyph glyph-name="Zacute" unicode="&#x179;" horiz-adv-x="370" 
d="M326 0h-281c-6 0 -10 4 -10 10v72c0 4 1 7 2 10l187 489v2h-169c-6 0 -10 4 -10 10v77c0 6 4 10 10 10h271c6 0 10 -4 10 -10v-74c0 -4 -1 -7 -2 -10l-184 -487v-2h176c6 0 10 -4 10 -10v-77c0 -6 -4 -10 -10 -10zM202 761h-55c-6 0 -10 5 -6 10l77 107c5 7 8 10 16 10
h81c6 0 9 -5 5 -10l-98 -107c-7 -7 -12 -10 -20 -10z" />
    <glyph glyph-name="Zcaron" unicode="&#x17d;" horiz-adv-x="370" 
d="M214 747h-52c-8 0 -13 4 -17 10l-88 125c-4 5 -2 10 4 10h60c8 0 13 -3 19 -10l47 -59h2l48 59c6 7 11 10 19 10h60c6 0 8 -5 4 -10l-88 -125c-4 -6 -10 -10 -18 -10zM326 0h-281c-6 0 -10 4 -10 10v72c0 4 1 7 2 10l187 489v2h-169c-6 0 -10 4 -10 10v77c0 6 4 10 10 10
h271c6 0 10 -4 10 -10v-74c0 -4 -1 -7 -2 -10l-184 -487v-2h176c6 0 10 -4 10 -10v-77c0 -6 -4 -10 -10 -10z" />
    <glyph glyph-name="Zdotaccent" unicode="&#x17b;" horiz-adv-x="370" 
d="M229 769h-82c-6 0 -10 4 -10 10v86c0 6 4 10 10 10h82c6 0 10 -4 10 -10v-86c0 -6 -4 -10 -10 -10zM326 0h-281c-6 0 -10 4 -10 10v72c0 4 1 7 2 10l187 489v2h-169c-6 0 -10 4 -10 10v77c0 6 4 10 10 10h271c6 0 10 -4 10 -10v-74c0 -4 -1 -7 -2 -10l-184 -487v-2h176
c6 0 10 -4 10 -10v-77c0 -6 -4 -10 -10 -10z" />
    <glyph glyph-name="agrave" unicode="&#xe0;" horiz-adv-x="383" 
d="M327 0h-78c-6 0 -10 4 -10 10v38h-1c-12 -34 -45 -57 -89 -57c-55 0 -115 34 -115 144c0 114 68 153 147 153h52c4 0 6 2 6 6v28c0 53 -15 77 -66 77c-32 0 -55 -11 -80 -28c-6 -4 -12 -3 -15 4l-26 59c-3 6 -1 10 3 14c32 25 77 43 131 43c109 0 151 -48 151 -165v-316
c0 -6 -4 -10 -10 -10zM179 75c36 0 60 28 60 68v57c0 4 -2 6 -6 6h-35c-49 0 -67 -27 -67 -67c0 -41 16 -64 48 -64zM228 555h-57c-8 0 -12 2 -18 10l-90 125c-4 5 -1 10 5 10h81c8 0 12 -3 16 -10l69 -125c3 -6 0 -10 -6 -10z" />
    <glyph glyph-name="aacute" unicode="&#xe1;" horiz-adv-x="383" 
d="M327 0h-78c-6 0 -10 4 -10 10v38h-1c-12 -34 -45 -57 -89 -57c-55 0 -115 34 -115 144c0 114 68 153 147 153h52c4 0 6 2 6 6v28c0 53 -15 77 -66 77c-32 0 -55 -11 -80 -28c-6 -4 -12 -3 -15 4l-26 59c-3 6 -1 10 3 14c32 25 77 43 131 43c109 0 151 -48 151 -165v-316
c0 -6 -4 -10 -10 -10zM179 75c36 0 60 28 60 68v57c0 4 -2 6 -6 6h-35c-49 0 -67 -27 -67 -67c0 -41 16 -64 48 -64zM215 555h-57c-6 0 -9 4 -6 10l69 125c4 7 8 10 16 10h81c6 0 9 -5 5 -10l-90 -125c-6 -8 -10 -10 -18 -10z" />
    <glyph glyph-name="acircumflex" unicode="&#xe2;" horiz-adv-x="383" 
d="M327 0h-78c-6 0 -10 4 -10 10v38h-1c-12 -34 -45 -57 -89 -57c-55 0 -115 34 -115 144c0 114 68 153 147 153h52c4 0 6 2 6 6v28c0 53 -15 77 -66 77c-32 0 -55 -11 -80 -28c-6 -4 -12 -3 -15 4l-26 59c-3 6 -1 10 3 14c32 25 77 43 131 43c109 0 151 -48 151 -165v-316
c0 -6 -4 -10 -10 -10zM179 75c36 0 60 28 60 68v57c0 4 -2 6 -6 6h-35c-49 0 -67 -27 -67 -67c0 -41 16 -64 48 -64zM319 555h-60c-8 0 -13 3 -19 10l-48 60h-2l-47 -60c-6 -7 -11 -10 -19 -10h-60c-6 0 -8 5 -4 10l88 125c4 6 9 10 17 10h52c8 0 14 -4 18 -10l88 -125
c4 -5 2 -10 -4 -10z" />
    <glyph glyph-name="atilde" unicode="&#xe3;" horiz-adv-x="383" 
d="M327 0h-78c-6 0 -10 4 -10 10v38h-1c-12 -34 -45 -57 -89 -57c-55 0 -115 34 -115 144c0 114 68 153 147 153h52c4 0 6 2 6 6v28c0 53 -15 77 -66 77c-32 0 -55 -11 -80 -28c-6 -4 -12 -3 -15 4l-26 59c-3 6 -1 10 3 14c32 25 77 43 131 43c109 0 151 -48 151 -165v-316
c0 -6 -4 -10 -10 -10zM179 75c36 0 60 28 60 68v57c0 4 -2 6 -6 6h-35c-49 0 -67 -27 -67 -67c0 -41 16 -64 48 -64zM236 567c-22 0 -35 7 -52 18c-16 11 -24 16 -38 16c-21 0 -33 -11 -48 -26c-5 -5 -12 -3 -12 4v61c0 6 2 11 10 19c13 13 29 24 51 24s35 -7 51 -18
c17 -11 25 -16 39 -16c21 0 33 10 48 26c5 5 12 3 12 -4v-61c0 -6 -2 -11 -10 -19c-13 -13 -29 -24 -51 -24z" />
    <glyph glyph-name="adieresis" unicode="&#xe4;" horiz-adv-x="383" 
d="M327 0h-78c-6 0 -10 4 -10 10v38h-1c-12 -34 -45 -57 -89 -57c-55 0 -115 34 -115 144c0 114 68 153 147 153h52c4 0 6 2 6 6v28c0 53 -15 77 -66 77c-32 0 -55 -11 -80 -28c-6 -4 -12 -3 -15 4l-26 59c-3 6 -1 10 3 14c32 25 77 43 131 43c109 0 151 -48 151 -165v-316
c0 -6 -4 -10 -10 -10zM179 75c36 0 60 28 60 68v57c0 4 -2 6 -6 6h-35c-49 0 -67 -27 -67 -67c0 -41 16 -64 48 -64zM300 574h-65c-6 0 -10 4 -10 10v86c0 6 4 10 10 10h65c6 0 10 -4 10 -10v-86c0 -6 -4 -10 -10 -10zM148 574h-65c-6 0 -10 4 -10 10v86c0 6 4 10 10 10h65
c6 0 10 -4 10 -10v-86c0 -6 -4 -10 -10 -10z" />
    <glyph glyph-name="amacron" unicode="&#x101;" horiz-adv-x="383" 
d="M327 0h-78c-6 0 -10 4 -10 10v38h-1c-12 -34 -45 -57 -89 -57c-55 0 -115 34 -115 144c0 114 68 153 147 153h52c4 0 6 2 6 6v28c0 53 -15 77 -66 77c-32 0 -55 -11 -80 -28c-6 -4 -12 -3 -15 4l-26 59c-3 6 -1 10 3 14c32 25 77 43 131 43c109 0 151 -48 151 -165v-316
c0 -6 -4 -10 -10 -10zM179 75c36 0 60 28 60 68v57c0 4 -2 6 -6 6h-35c-49 0 -67 -27 -67 -67c0 -41 16 -64 48 -64zM294 588h-205c-6 0 -10 4 -10 10v60c0 6 4 10 10 10h205c6 0 10 -4 10 -10v-60c0 -6 -4 -10 -10 -10z" />
    <glyph glyph-name="abreve" unicode="&#x103;" horiz-adv-x="383" 
d="M327 0h-78c-6 0 -10 4 -10 10v38h-1c-12 -34 -45 -57 -89 -57c-55 0 -115 34 -115 144c0 114 68 153 147 153h52c4 0 6 2 6 6v28c0 53 -15 77 -66 77c-32 0 -55 -11 -80 -28c-6 -4 -12 -3 -15 4l-26 59c-3 6 -1 10 3 14c32 25 77 43 131 43c109 0 151 -48 151 -165v-316
c0 -6 -4 -10 -10 -10zM179 75c36 0 60 28 60 68v57c0 4 -2 6 -6 6h-35c-49 0 -67 -27 -67 -67c0 -41 16 -64 48 -64zM191 556c-79 0 -119 54 -124 119c0 6 4 10 10 10h45c6 0 8 -4 10 -10c10 -29 29 -49 59 -49c31 0 50 20 60 49c2 6 4 10 10 10h45c6 0 10 -4 10 -10
c-5 -65 -45 -119 -125 -119z" />
    <glyph glyph-name="aring" unicode="&#xe5;" horiz-adv-x="383" 
d="M327 0h-78c-6 0 -10 4 -10 10v38h-1c-12 -34 -45 -57 -89 -57c-55 0 -115 34 -115 144c0 114 68 153 147 153h52c4 0 6 2 6 6v28c0 53 -15 77 -66 77c-32 0 -55 -11 -80 -28c-6 -4 -12 -3 -15 4l-26 59c-3 6 -1 10 3 14c32 25 77 43 131 43c109 0 151 -48 151 -165v-316
c0 -6 -4 -10 -10 -10zM179 75c36 0 60 28 60 68v57c0 4 -2 6 -6 6h-35c-49 0 -67 -27 -67 -67c0 -41 16 -64 48 -64zM191 539c-51 0 -90 39 -90 90c0 52 39 91 90 91c52 0 91 -39 91 -91c0 -51 -39 -90 -91 -90zM191 582c27 0 46 20 46 47c0 28 -19 48 -46 48
c-26 0 -45 -20 -45 -48c0 -27 19 -47 45 -47z" />
    <glyph glyph-name="aringacute" unicode="&#x1fb;" horiz-adv-x="383" 
d="M215 773h-58c-6 0 -8 5 -4 10l82 95c6 7 11 10 21 10h77c6 0 9 -5 5 -10l-104 -95c-7 -7 -11 -10 -19 -10zM327 0h-78c-6 0 -10 4 -10 10v38h-1c-12 -34 -45 -57 -89 -57c-55 0 -115 34 -115 144c0 114 68 153 147 153h52c4 0 6 2 6 6v28c0 53 -15 77 -66 77
c-32 0 -55 -11 -80 -28c-6 -4 -12 -3 -15 4l-26 59c-3 6 -1 10 3 14c32 25 77 43 131 43c109 0 151 -48 151 -165v-316c0 -6 -4 -10 -10 -10zM179 75c36 0 60 28 60 68v57c0 4 -2 6 -6 6h-35c-49 0 -67 -27 -67 -67c0 -41 16 -64 48 -64zM191 539c-51 0 -90 39 -90 90
c0 52 39 91 90 91c52 0 91 -39 91 -91c0 -51 -39 -90 -91 -90zM191 582c27 0 46 20 46 47c0 28 -19 48 -46 48c-26 0 -45 -20 -45 -48c0 -27 19 -47 45 -47z" />
    <glyph glyph-name="aogonek" unicode="&#x105;" horiz-adv-x="383" 
d="M268 -190c-54 0 -90 29 -90 83c0 41 23 77 62 112c-1 1 -1 3 -1 5v38h-1c-12 -34 -45 -57 -89 -57c-55 0 -115 34 -115 144c0 114 68 153 147 153h52c4 0 6 2 6 6v28c0 53 -15 77 -66 77c-32 0 -55 -11 -80 -28c-6 -4 -12 -3 -15 4l-26 59c-3 6 -1 10 3 14
c32 25 77 43 131 43c109 0 151 -48 151 -165v-316c0 -6 -2 -8 -7 -11c-40 -28 -68 -62 -68 -90c0 -16 8 -24 19 -24c8 0 13 2 18 5s11 1 13 -4l21 -46c2 -5 0 -10 -5 -13c-13 -9 -39 -17 -60 -17zM179 75c36 0 60 28 60 68v57c0 4 -2 6 -6 6h-35c-49 0 -67 -27 -67 -67
c0 -41 16 -64 48 -64z" />
    <glyph glyph-name="ae" unicode="&#xe6;" horiz-adv-x="578" 
d="M388 -9c-54 0 -96 16 -123 58h-1c-33 -45 -67 -58 -115 -58c-54 0 -115 34 -115 144c0 114 68 153 147 153h52c4 0 6 2 6 6v28c0 53 -15 77 -66 77c-32 0 -55 -11 -80 -28c-6 -4 -12 -3 -15 4l-26 59c-3 6 -1 10 3 14c32 25 77 43 131 43c47 0 83 -11 106 -33h1
c23 22 57 33 96 33c75 0 124 -35 144 -96c7 -24 11 -51 11 -179c0 -6 -4 -10 -10 -10h-191c-4 0 -6 -2 -6 -6c0 -60 2 -72 5 -83c7 -21 22 -33 47 -33c28 0 44 14 53 44c2 6 6 8 12 7l77 -15c6 -1 8 -5 7 -12c-14 -72 -71 -117 -150 -117zM436 288c4 0 6 2 6 6
c0 50 -3 63 -7 74c-6 19 -21 32 -46 32c-24 0 -40 -13 -46 -32c-4 -11 -6 -24 -6 -74c0 -4 2 -6 6 -6h93zM179 75c36 0 60 28 60 68v57c0 4 -2 6 -6 6h-35c-49 0 -67 -27 -67 -67c0 -41 16 -64 48 -64z" />
    <glyph glyph-name="aeacute" unicode="&#x1fd;" horiz-adv-x="578" 
d="M315 555h-57c-6 0 -9 4 -6 10l69 125c4 7 8 10 16 10h81c6 0 9 -5 5 -10l-90 -125c-6 -8 -10 -10 -18 -10zM388 -9c-54 0 -96 16 -123 58h-1c-33 -45 -67 -58 -115 -58c-54 0 -115 34 -115 144c0 114 68 153 147 153h52c4 0 6 2 6 6v28c0 53 -15 77 -66 77
c-32 0 -55 -11 -80 -28c-6 -4 -12 -3 -15 4l-26 59c-3 6 -1 10 3 14c32 25 77 43 131 43c47 0 83 -11 106 -33h1c23 22 57 33 96 33c75 0 124 -35 144 -96c7 -24 11 -51 11 -179c0 -6 -4 -10 -10 -10h-191c-4 0 -6 -2 -6 -6c0 -60 2 -72 5 -83c7 -21 22 -33 47 -33
c28 0 44 14 53 44c2 6 6 8 12 7l77 -15c6 -1 8 -5 7 -12c-14 -72 -71 -117 -150 -117zM436 288c4 0 6 2 6 6c0 50 -3 63 -7 74c-6 19 -21 32 -46 32c-24 0 -40 -13 -46 -32c-4 -11 -6 -24 -6 -74c0 -4 2 -6 6 -6h93zM179 75c36 0 60 28 60 68v57c0 4 -2 6 -6 6h-35
c-49 0 -67 -27 -67 -67c0 -41 16 -64 48 -64z" />
    <glyph glyph-name="cacute" unicode="&#x107;" horiz-adv-x="357" 
d="M207 555h-57c-6 0 -9 4 -6 10l69 125c4 7 8 10 16 10h81c6 0 9 -5 5 -10l-90 -125c-6 -8 -10 -10 -18 -10zM188 -9c-72 0 -119 34 -139 95c-9 28 -12 46 -12 155s3 127 12 155c20 61 67 95 139 95c84 0 142 -52 147 -131c0 -7 -2 -10 -8 -11l-76 -15c-7 -1 -11 2 -12 9
c-5 38 -23 54 -51 54c-22 0 -37 -10 -44 -31c-4 -13 -5 -25 -5 -125s1 -112 5 -125c7 -21 22 -31 44 -31c28 0 46 16 51 54c1 7 5 10 12 9l76 -15c6 -1 8 -4 8 -11c-5 -79 -63 -131 -147 -131z" />
    <glyph glyph-name="ccircumflex" unicode="&#x109;" horiz-adv-x="357" 
d="M316 555h-60c-8 0 -13 3 -19 10l-48 60h-2l-47 -60c-6 -7 -11 -10 -19 -10h-60c-6 0 -8 5 -4 10l88 125c4 6 9 10 17 10h52c8 0 14 -4 18 -10l88 -125c4 -5 2 -10 -4 -10zM188 -9c-72 0 -119 34 -139 95c-9 28 -12 46 -12 155s3 127 12 155c20 61 67 95 139 95
c84 0 142 -52 147 -131c0 -7 -2 -10 -8 -11l-76 -15c-7 -1 -11 2 -12 9c-5 38 -23 54 -51 54c-22 0 -37 -10 -44 -31c-4 -13 -5 -25 -5 -125s1 -112 5 -125c7 -21 22 -31 44 -31c28 0 46 16 51 54c1 7 5 10 12 9l76 -15c6 -1 8 -4 8 -11c-5 -79 -63 -131 -147 -131z" />
    <glyph glyph-name="ccaron" unicode="&#x10d;" horiz-adv-x="357" 
d="M214 555h-52c-8 0 -13 4 -17 10l-88 125c-4 5 -2 10 4 10h60c8 0 13 -3 19 -10l47 -60h2l48 60c6 7 11 10 19 10h60c6 0 8 -5 4 -10l-88 -125c-4 -6 -10 -10 -18 -10zM188 -9c-72 0 -119 34 -139 95c-9 28 -12 46 -12 155s3 127 12 155c20 61 67 95 139 95
c84 0 142 -52 147 -131c0 -7 -2 -10 -8 -11l-76 -15c-7 -1 -11 2 -12 9c-5 38 -23 54 -51 54c-22 0 -37 -10 -44 -31c-4 -13 -5 -25 -5 -125s1 -112 5 -125c7 -21 22 -31 44 -31c28 0 46 16 51 54c1 7 5 10 12 9l76 -15c6 -1 8 -4 8 -11c-5 -79 -63 -131 -147 -131z" />
    <glyph glyph-name="cdotaccent" unicode="&#x10b;" horiz-adv-x="357" 
d="M188 -9c-72 0 -119 34 -139 95c-9 28 -12 46 -12 155s3 127 12 155c20 61 67 95 139 95c84 0 142 -52 147 -131c0 -7 -2 -10 -8 -11l-76 -15c-7 -1 -11 2 -12 9c-5 38 -23 54 -51 54c-22 0 -37 -10 -44 -31c-4 -13 -5 -25 -5 -125s1 -112 5 -125c7 -21 22 -31 44 -31
c28 0 46 16 51 54c1 7 5 10 12 9l76 -15c6 -1 8 -4 8 -11c-5 -79 -63 -131 -147 -131zM220 574h-82c-6 0 -10 4 -10 10v86c0 6 4 10 10 10h82c6 0 10 -4 10 -10v-86c0 -6 -4 -10 -10 -10z" />
    <glyph glyph-name="ccedilla" unicode="&#xe7;" horiz-adv-x="357" 
d="M88 -145l59 140c-49 11 -82 42 -98 91c-9 28 -12 46 -12 155s3 127 12 155c20 61 67 95 139 95c84 0 142 -52 147 -131c0 -7 -2 -10 -8 -11l-76 -15c-7 -1 -11 2 -12 9c-5 38 -23 54 -51 54c-22 0 -37 -10 -44 -31c-4 -13 -5 -25 -5 -125s1 -112 5 -125
c7 -21 22 -31 44 -31c28 0 46 16 51 54c1 7 5 10 12 9l76 -15c6 -1 8 -4 8 -11c-4 -67 -46 -114 -109 -127l-49 -140c-3 -7 -7 -10 -16 -10h-66c-6 0 -9 4 -7 10z" />
    <glyph glyph-name="dcaron" unicode="&#x10f;" horiz-adv-x="401" 
d="M388 511c-6 0 -9 3 -9 9v150c0 6 4 10 10 10h69c6 0 10 -4 10 -10v-57c0 -11 -2 -15 -7 -22l-60 -73c-4 -5 -8 -7 -13 -7zM340 0h-82c-6 0 -10 4 -10 10v39h-1c-13 -34 -40 -58 -90 -58c-55 0 -88 26 -105 80c-9 27 -13 56 -13 170c0 113 4 143 13 170
c17 54 50 80 105 80c50 0 77 -25 90 -58h1v237c0 6 4 10 10 10h82c6 0 10 -4 10 -10v-660c0 -6 -4 -10 -10 -10zM141 241c0 -98 1 -108 5 -122c7 -21 23 -34 49 -34c25 0 41 13 48 34c4 14 5 24 5 122s-1 108 -5 122c-7 21 -23 34 -48 34c-26 0 -42 -13 -49 -34
c-4 -14 -5 -24 -5 -122z" />
    <glyph glyph-name="dcroat" unicode="&#x111;" horiz-adv-x="399" 
d="M350 533v-523c0 -6 -4 -10 -10 -10h-82c-6 0 -10 4 -10 10v39h-1c-13 -34 -40 -58 -90 -58c-55 0 -88 26 -105 80c-9 27 -13 56 -13 170c0 113 4 143 13 170c17 54 50 80 105 80c50 0 77 -25 90 -58h1v100c0 4 -2 6 -6 6h-73c-6 0 -10 4 -10 10v58c0 6 4 10 10 10h73
c4 0 6 2 6 6v47c0 6 4 10 10 10h82c6 0 10 -4 10 -10v-47c0 -4 2 -6 6 -6h20c6 0 10 -4 10 -10v-58c0 -6 -4 -10 -10 -10h-20c-4 0 -6 -2 -6 -6zM141 241c0 -98 1 -108 5 -122c7 -21 23 -34 49 -34c25 0 41 13 48 34c4 14 5 24 5 122s-1 108 -5 122c-7 21 -23 34 -48 34
c-26 0 -42 -13 -49 -34c-4 -14 -5 -24 -5 -122z" />
    <glyph glyph-name="eth" unicode="&#xf0;" horiz-adv-x="385" 
d="M310 574l-50 -16l22 -42c54 -102 66 -154 66 -285c0 -90 -3 -116 -11 -141c-20 -62 -72 -99 -145 -99s-124 37 -144 99c-8 25 -11 51 -11 135c0 87 5 119 13 144c19 57 60 92 118 92c20 0 39 -5 47 -11h1l-43 80l-67 -21c-6 -2 -9 0 -11 6l-16 48c-2 6 0 10 7 12l55 17
l-41 78c-3 6 0 10 6 10h81c7 0 11 -3 15 -10l26 -50l62 20c6 2 9 0 11 -6l16 -48c2 -6 0 -10 -7 -12zM192 85c26 0 41 13 49 35c4 14 5 24 5 105c0 85 -1 95 -5 109c-8 21 -23 35 -49 35c-25 0 -41 -14 -48 -35c-4 -14 -5 -24 -5 -109c0 -81 1 -91 5 -105
c7 -22 23 -35 48 -35z" />
    <glyph glyph-name="egrave" unicode="&#xe8;" horiz-adv-x="380" 
d="M190 -9c-75 0 -122 35 -142 96c-8 24 -11 51 -11 154s3 130 11 154c20 61 68 96 143 96c76 0 124 -35 144 -96c8 -24 11 -51 11 -179c0 -6 -4 -10 -10 -10h-191c-4 0 -6 -2 -6 -6c0 -60 2 -72 5 -83c7 -21 23 -32 47 -32c28 0 44 13 53 43c2 6 6 8 12 7l77 -15
c6 -1 8 -5 7 -12c-13 -72 -71 -117 -150 -117zM191 400c-24 0 -40 -13 -46 -32c-4 -11 -6 -24 -6 -74c0 -4 2 -6 6 -6h93c4 0 6 2 6 6c0 50 -2 63 -6 74c-6 19 -22 32 -47 32zM228 555h-57c-8 0 -12 2 -18 10l-90 125c-4 5 -1 10 5 10h81c8 0 12 -3 16 -10l69 -125
c3 -6 0 -10 -6 -10z" />
    <glyph glyph-name="eacute" unicode="&#xe9;" horiz-adv-x="380" 
d="M206 555h-57c-6 0 -9 4 -6 10l69 125c4 7 8 10 16 10h81c6 0 9 -5 5 -10l-90 -125c-6 -8 -10 -10 -18 -10zM190 -9c-75 0 -122 35 -142 96c-8 24 -11 51 -11 154s3 130 11 154c20 61 68 96 143 96c76 0 124 -35 144 -96c8 -24 11 -51 11 -179c0 -6 -4 -10 -10 -10h-191
c-4 0 -6 -2 -6 -6c0 -60 2 -72 5 -83c7 -21 23 -32 47 -32c28 0 44 13 53 43c2 6 6 8 12 7l77 -15c6 -1 8 -5 7 -12c-13 -72 -71 -117 -150 -117zM191 400c-24 0 -40 -13 -46 -32c-4 -11 -6 -24 -6 -74c0 -4 2 -6 6 -6h93c4 0 6 2 6 6c0 50 -2 63 -6 74c-6 19 -22 32 -47 32
z" />
    <glyph glyph-name="ecircumflex" unicode="&#xea;" horiz-adv-x="380" 
d="M318 555h-60c-8 0 -13 3 -19 10l-48 60h-2l-47 -60c-6 -7 -11 -10 -19 -10h-60c-6 0 -8 5 -4 10l88 125c4 6 9 10 17 10h52c8 0 14 -4 18 -10l88 -125c4 -5 2 -10 -4 -10zM190 -9c-75 0 -122 35 -142 96c-8 24 -11 51 -11 154s3 130 11 154c20 61 68 96 143 96
c76 0 124 -35 144 -96c8 -24 11 -51 11 -179c0 -6 -4 -10 -10 -10h-191c-4 0 -6 -2 -6 -6c0 -60 2 -72 5 -83c7 -21 23 -32 47 -32c28 0 44 13 53 43c2 6 6 8 12 7l77 -15c6 -1 8 -5 7 -12c-13 -72 -71 -117 -150 -117zM191 400c-24 0 -40 -13 -46 -32c-4 -11 -6 -24 -6 -74
c0 -4 2 -6 6 -6h93c4 0 6 2 6 6c0 50 -2 63 -6 74c-6 19 -22 32 -47 32z" />
    <glyph glyph-name="ecaron" unicode="&#x11b;" horiz-adv-x="380" 
d="M216 555h-52c-8 0 -13 4 -17 10l-88 125c-4 5 -2 10 4 10h60c8 0 13 -3 19 -10l47 -60h2l48 60c6 7 11 10 19 10h60c6 0 8 -5 4 -10l-88 -125c-4 -6 -10 -10 -18 -10zM190 -9c-75 0 -122 35 -142 96c-8 24 -11 51 -11 154s3 130 11 154c20 61 68 96 143 96
c76 0 124 -35 144 -96c8 -24 11 -51 11 -179c0 -6 -4 -10 -10 -10h-191c-4 0 -6 -2 -6 -6c0 -60 2 -72 5 -83c7 -21 23 -32 47 -32c28 0 44 13 53 43c2 6 6 8 12 7l77 -15c6 -1 8 -5 7 -12c-13 -72 -71 -117 -150 -117zM191 400c-24 0 -40 -13 -46 -32c-4 -11 -6 -24 -6 -74
c0 -4 2 -6 6 -6h93c4 0 6 2 6 6c0 50 -2 63 -6 74c-6 19 -22 32 -47 32z" />
    <glyph glyph-name="edieresis" unicode="&#xeb;" horiz-adv-x="380" 
d="M299 574h-65c-6 0 -10 4 -10 10v86c0 6 4 10 10 10h65c6 0 10 -4 10 -10v-86c0 -6 -4 -10 -10 -10zM147 574h-65c-6 0 -10 4 -10 10v86c0 6 4 10 10 10h65c6 0 10 -4 10 -10v-86c0 -6 -4 -10 -10 -10zM190 -9c-75 0 -122 35 -142 96c-8 24 -11 51 -11 154s3 130 11 154
c20 61 68 96 143 96c76 0 124 -35 144 -96c8 -24 11 -51 11 -179c0 -6 -4 -10 -10 -10h-191c-4 0 -6 -2 -6 -6c0 -60 2 -72 5 -83c7 -21 23 -32 47 -32c28 0 44 13 53 43c2 6 6 8 12 7l77 -15c6 -1 8 -5 7 -12c-13 -72 -71 -117 -150 -117zM191 400c-24 0 -40 -13 -46 -32
c-4 -11 -6 -24 -6 -74c0 -4 2 -6 6 -6h93c4 0 6 2 6 6c0 50 -2 63 -6 74c-6 19 -22 32 -47 32z" />
    <glyph glyph-name="emacron" unicode="&#x113;" horiz-adv-x="380" 
d="M190 -9c-75 0 -122 35 -142 96c-8 24 -11 51 -11 154s3 130 11 154c20 61 68 96 143 96c76 0 124 -35 144 -96c8 -24 11 -51 11 -179c0 -6 -4 -10 -10 -10h-191c-4 0 -6 -2 -6 -6c0 -60 2 -72 5 -83c7 -21 23 -32 47 -32c28 0 44 13 53 43c2 6 6 8 12 7l77 -15
c6 -1 8 -5 7 -12c-13 -72 -71 -117 -150 -117zM191 400c-24 0 -40 -13 -46 -32c-4 -11 -6 -24 -6 -74c0 -4 2 -6 6 -6h93c4 0 6 2 6 6c0 50 -2 63 -6 74c-6 19 -22 32 -47 32zM293 588h-205c-6 0 -10 4 -10 10v60c0 6 4 10 10 10h205c6 0 10 -4 10 -10v-60
c0 -6 -4 -10 -10 -10z" />
    <glyph glyph-name="ebreve" unicode="&#x115;" horiz-adv-x="380" 
d="M190 -9c-75 0 -122 35 -142 96c-8 24 -11 51 -11 154s3 130 11 154c20 61 68 96 143 96c76 0 124 -35 144 -96c8 -24 11 -51 11 -179c0 -6 -4 -10 -10 -10h-191c-4 0 -6 -2 -6 -6c0 -60 2 -72 5 -83c7 -21 23 -32 47 -32c28 0 44 13 53 43c2 6 6 8 12 7l77 -15
c6 -1 8 -5 7 -12c-13 -72 -71 -117 -150 -117zM191 400c-24 0 -40 -13 -46 -32c-4 -11 -6 -24 -6 -74c0 -4 2 -6 6 -6h93c4 0 6 2 6 6c0 50 -2 63 -6 74c-6 19 -22 32 -47 32zM190 556c-79 0 -119 54 -124 119c0 6 4 10 10 10h45c6 0 8 -4 10 -10c10 -29 29 -49 59 -49
c31 0 50 20 60 49c2 6 4 10 10 10h45c6 0 10 -4 10 -10c-5 -65 -45 -119 -125 -119z" />
    <glyph glyph-name="edotaccent" unicode="&#x117;" horiz-adv-x="380" 
d="M190 -9c-75 0 -122 35 -142 96c-8 24 -11 51 -11 154s3 130 11 154c20 61 68 96 143 96c76 0 124 -35 144 -96c8 -24 11 -51 11 -179c0 -6 -4 -10 -10 -10h-191c-4 0 -6 -2 -6 -6c0 -60 2 -72 5 -83c7 -21 23 -32 47 -32c28 0 44 13 53 43c2 6 6 8 12 7l77 -15
c6 -1 8 -5 7 -12c-13 -72 -71 -117 -150 -117zM191 400c-24 0 -40 -13 -46 -32c-4 -11 -6 -24 -6 -74c0 -4 2 -6 6 -6h93c4 0 6 2 6 6c0 50 -2 63 -6 74c-6 19 -22 32 -47 32zM232 574h-82c-6 0 -10 4 -10 10v86c0 6 4 10 10 10h82c6 0 10 -4 10 -10v-86
c0 -6 -4 -10 -10 -10z" />
    <glyph glyph-name="eogonek" unicode="&#x119;" horiz-adv-x="380" 
d="M190 -9c-75 0 -122 35 -142 96c-8 24 -11 51 -11 154s3 130 11 154c20 61 68 96 143 96s124 -35 144 -96c8 -24 11 -51 11 -179c0 -6 -4 -10 -10 -10h-191c-4 0 -6 -2 -6 -6c0 -60 2 -72 5 -83c7 -21 23 -33 47 -33c28 0 44 14 53 44c2 6 6 8 12 7l77 -15
c6 -1 8 -5 7 -12c-5 -24 -14 -46 -29 -63c-57 -91 -64 -116 -64 -136c0 -16 9 -24 20 -24c8 0 13 2 18 5s11 1 13 -4l20 -46c2 -5 0 -10 -5 -13c-13 -9 -38 -17 -60 -17c-54 0 -89 29 -89 83c0 30 8 59 38 99c-3 -1 -7 -1 -12 -1zM238 288c4 0 6 2 6 6c0 50 -2 63 -6 74
c-7 19 -22 32 -47 32c-24 0 -40 -13 -46 -32c-4 -11 -6 -24 -6 -74c0 -4 2 -6 6 -6h93z" />
    <glyph glyph-name="gcircumflex" unicode="&#x11d;" horiz-adv-x="400" 
d="M328 555h-60c-8 0 -13 3 -19 10l-48 60h-2l-47 -60c-6 -7 -11 -10 -19 -10h-60c-6 0 -8 5 -4 10l88 125c4 6 9 10 17 10h52c8 0 14 -4 18 -10l88 -125c4 -5 2 -10 -4 -10zM192 -189c-75 0 -127 41 -143 97c-1 5 0 9 4 11l76 27c5 2 10 1 13 -5c11 -24 28 -37 53 -37
c31 0 53 20 53 59v101h-1c-12 -33 -39 -58 -89 -58c-55 0 -88 26 -105 80c-9 27 -13 57 -13 162c0 104 4 135 13 162c17 54 50 81 105 81c50 0 77 -26 89 -60h1v41c0 6 4 10 10 10h82c6 0 10 -4 10 -10v-497c0 -107 -63 -164 -158 -164zM195 98c26 0 41 13 48 35
c4 13 5 23 5 115c0 91 -1 101 -5 115c-7 21 -22 34 -48 34s-41 -13 -48 -34c-4 -14 -5 -24 -5 -115c0 -92 1 -102 5 -115c7 -22 22 -35 48 -35z" />
    <glyph glyph-name="gbreve" unicode="&#x11f;" horiz-adv-x="400" 
d="M192 -189c-75 0 -127 41 -143 97c-1 5 0 9 4 11l76 27c5 2 10 1 13 -5c11 -24 28 -37 53 -37c31 0 53 20 53 59v101h-1c-12 -33 -39 -58 -89 -58c-55 0 -88 26 -105 80c-9 27 -13 57 -13 162c0 104 4 135 13 162c17 54 50 81 105 81c50 0 77 -26 89 -60h1v41
c0 6 4 10 10 10h82c6 0 10 -4 10 -10v-497c0 -107 -63 -164 -158 -164zM195 98c26 0 41 13 48 35c4 13 5 23 5 115c0 91 -1 101 -5 115c-7 21 -22 34 -48 34s-41 -13 -48 -34c-4 -14 -5 -24 -5 -115c0 -92 1 -102 5 -115c7 -22 22 -35 48 -35zM200 556
c-79 0 -119 54 -124 119c0 6 4 10 10 10h45c6 0 8 -4 10 -10c10 -29 29 -49 59 -49c31 0 50 20 60 49c2 6 4 10 10 10h45c6 0 10 -4 10 -10c-5 -65 -45 -119 -125 -119z" />
    <glyph glyph-name="gdotaccent" unicode="&#x121;" horiz-adv-x="400" 
d="M192 -189c-75 0 -127 41 -143 97c-1 5 0 9 4 11l76 27c5 2 10 1 13 -5c11 -24 28 -37 53 -37c31 0 53 20 53 59v101h-1c-12 -33 -39 -58 -89 -58c-55 0 -88 26 -105 80c-9 27 -13 57 -13 162c0 104 4 135 13 162c17 54 50 81 105 81c50 0 77 -26 89 -60h1v41
c0 6 4 10 10 10h82c6 0 10 -4 10 -10v-497c0 -107 -63 -164 -158 -164zM195 98c26 0 41 13 48 35c4 13 5 23 5 115c0 91 -1 101 -5 115c-7 21 -22 34 -48 34s-41 -13 -48 -34c-4 -14 -5 -24 -5 -115c0 -92 1 -102 5 -115c7 -22 22 -35 48 -35zM242 574h-82
c-6 0 -10 4 -10 10v86c0 6 4 10 10 10h82c6 0 10 -4 10 -10v-86c0 -6 -4 -10 -10 -10z" />
    <glyph glyph-name="gcommaaccent" unicode="&#x123;" horiz-adv-x="400" 
d="M236 572h-70c-6 0 -10 4 -10 10v55c0 10 1 15 7 22l61 73c4 5 8 7 13 7c6 0 9 -4 9 -10v-147c0 -6 -4 -10 -10 -10zM192 -189c-75 0 -127 41 -143 97c-1 5 0 9 4 11l76 27c5 2 10 1 13 -5c11 -24 28 -37 53 -37c31 0 53 20 53 59v101h-1c-12 -33 -39 -58 -89 -58
c-55 0 -88 26 -105 80c-9 27 -13 57 -13 162c0 104 4 135 13 162c17 54 50 81 105 81c50 0 77 -26 89 -60h1v41c0 6 4 10 10 10h82c6 0 10 -4 10 -10v-497c0 -107 -63 -164 -158 -164zM195 98c26 0 41 13 48 35c4 13 5 23 5 115c0 91 -1 101 -5 115c-7 21 -22 34 -48 34
s-41 -13 -48 -34c-4 -14 -5 -24 -5 -115c0 -92 1 -102 5 -115c7 -22 22 -35 48 -35z" />
    <glyph glyph-name="hcircumflex" unicode="&#x125;" horiz-adv-x="405" 
d="M348 0h-82c-6 0 -10 4 -10 10v317c0 47 -18 70 -52 70c-33 0 -51 -23 -51 -70v-317c0 -6 -4 -10 -10 -10h-82c-6 0 -10 4 -10 10v660c0 6 4 10 10 10h82c6 0 10 -4 10 -10v-236h1c17 33 46 57 92 57c72 0 112 -45 112 -150v-331c0 -6 -4 -10 -10 -10zM335 750h-60
c-8 0 -13 3 -19 10l-48 60h-2l-47 -60c-6 -7 -11 -10 -19 -10h-60c-6 0 -8 5 -4 10l88 125c4 6 9 10 17 10h52c8 0 14 -4 18 -10l88 -125c4 -5 2 -10 -4 -10z" />
    <glyph glyph-name="hbar" unicode="&#x127;" horiz-adv-x="405" 
d="M348 0h-82c-6 0 -10 4 -10 10v317c0 47 -18 70 -52 70c-33 0 -51 -23 -51 -70v-317c0 -6 -4 -10 -10 -10h-82c-6 0 -10 4 -10 10v523c0 4 -2 6 -6 6h-20c-6 0 -10 4 -10 10v58c0 6 4 10 10 10h20c4 0 6 2 6 6v47c0 6 4 10 10 10h82c6 0 10 -4 10 -10v-47c0 -4 2 -6 6 -6
h73c6 0 10 -4 10 -10v-58c0 -6 -4 -10 -10 -10h-73c-4 0 -6 -2 -6 -6v-99h1c17 33 46 57 92 57c72 0 112 -45 112 -150v-331c0 -6 -4 -10 -10 -10z" />
    <glyph glyph-name="dotlessi" unicode="&#x131;" horiz-adv-x="204" 
d="M143 0h-82c-6 0 -10 4 -10 10v462c0 6 4 10 10 10h82c6 0 10 -4 10 -10v-462c0 -6 -4 -10 -10 -10z" />
    <glyph glyph-name="igrave" unicode="&#xec;" horiz-adv-x="204" 
d="M143 0h-82c-6 0 -10 4 -10 10v462c0 6 4 10 10 10h82c6 0 10 -4 10 -10v-462c0 -6 -4 -10 -10 -10zM135 555h-57c-8 0 -12 2 -18 10l-90 125c-4 5 -1 10 5 10h81c8 0 12 -3 16 -10l69 -125c3 -6 0 -10 -6 -10z" />
    <glyph glyph-name="iacute" unicode="&#xed;" horiz-adv-x="204" 
d="M131 555h-57c-6 0 -9 4 -6 10l69 125c4 7 8 10 16 10h81c6 0 9 -5 5 -10l-90 -125c-6 -8 -10 -10 -18 -10zM143 0h-82c-6 0 -10 4 -10 10v462c0 6 4 10 10 10h82c6 0 10 -4 10 -10v-462c0 -6 -4 -10 -10 -10z" />
    <glyph glyph-name="ibreve" unicode="&#x12d;" horiz-adv-x="204" 
d="M143 0h-82c-6 0 -10 4 -10 10v462c0 6 4 10 10 10h82c6 0 10 -4 10 -10v-462c0 -6 -4 -10 -10 -10zM102 556c-79 0 -119 54 -124 119c0 6 4 10 10 10h45c6 0 8 -4 10 -10c10 -29 29 -49 59 -49c31 0 50 20 60 49c2 6 4 10 10 10h45c6 0 10 -4 10 -10
c-5 -65 -45 -119 -125 -119z" />
    <glyph glyph-name="icircumflex" unicode="&#xee;" horiz-adv-x="204" 
d="M230 555h-60c-8 0 -13 3 -19 10l-48 60h-2l-47 -60c-6 -7 -11 -10 -19 -10h-60c-6 0 -8 5 -4 10l88 125c4 6 9 10 17 10h52c8 0 14 -4 18 -10l88 -125c4 -5 2 -10 -4 -10zM143 0h-82c-6 0 -10 4 -10 10v462c0 6 4 10 10 10h82c6 0 10 -4 10 -10v-462c0 -6 -4 -10 -10 -10
z" />
    <glyph glyph-name="itilde" unicode="&#x129;" horiz-adv-x="204" 
d="M143 0h-82c-6 0 -10 4 -10 10v462c0 6 4 10 10 10h82c6 0 10 -4 10 -10v-462c0 -6 -4 -10 -10 -10zM147 567c-22 0 -35 7 -52 18c-16 11 -24 16 -38 16c-21 0 -33 -11 -48 -26c-5 -5 -12 -3 -12 4v61c0 6 2 11 10 19c13 13 29 24 51 24s35 -7 51 -18
c17 -11 25 -16 39 -16c21 0 33 10 48 26c5 5 12 3 12 -4v-61c0 -6 -2 -11 -10 -19c-13 -13 -29 -24 -51 -24z" />
    <glyph glyph-name="idieresis" unicode="&#xef;" horiz-adv-x="204" 
d="M211 574h-65c-6 0 -10 4 -10 10v86c0 6 4 10 10 10h65c6 0 10 -4 10 -10v-86c0 -6 -4 -10 -10 -10zM59 574h-65c-6 0 -10 4 -10 10v86c0 6 4 10 10 10h65c6 0 10 -4 10 -10v-86c0 -6 -4 -10 -10 -10zM143 0h-82c-6 0 -10 4 -10 10v462c0 6 4 10 10 10h82
c6 0 10 -4 10 -10v-462c0 -6 -4 -10 -10 -10z" />
    <glyph glyph-name="imacron" unicode="&#x12b;" horiz-adv-x="204" 
d="M143 0h-82c-6 0 -10 4 -10 10v462c0 6 4 10 10 10h82c6 0 10 -4 10 -10v-462c0 -6 -4 -10 -10 -10zM205 588h-205c-6 0 -10 4 -10 10v60c0 6 4 10 10 10h205c6 0 10 -4 10 -10v-60c0 -6 -4 -10 -10 -10z" />
    <glyph glyph-name="iogonek" unicode="&#x12f;" horiz-adv-x="204" 
d="M143 574h-82c-6 0 -10 4 -10 10v86c0 6 4 10 10 10h82c6 0 10 -4 10 -10v-86c0 -6 -4 -10 -10 -10zM93 -190c-54 0 -89 29 -89 83c0 39 18 72 56 107c-6 0 -9 4 -9 10v462c0 6 4 10 10 10h82c6 0 10 -4 10 -10v-462c0 -4 -1 -6 -4 -9c-43 -41 -62 -69 -62 -92
c0 -16 8 -24 20 -24c8 0 13 2 18 5s11 1 13 -4l20 -46c2 -5 0 -10 -5 -13c-13 -9 -38 -17 -60 -17z" />
    <glyph glyph-name="dotlessj" unicode="&#x237;" horiz-adv-x="204" 
d="M11 -180h-15c-6 0 -10 4 -10 10v74c0 6 4 10 10 10l14 1c29 2 41 14 41 55v502c0 6 4 10 10 10h82c6 0 10 -4 10 -10v-508c0 -97 -43 -144 -142 -144z" />
    <glyph glyph-name="jcircumflex" unicode="&#x135;" horiz-adv-x="204" 
d="M11 -180h-15c-6 0 -10 4 -10 10v74c0 6 4 10 10 10l14 1c29 2 41 14 41 55v502c0 6 4 10 10 10h82c6 0 10 -4 10 -10v-508c0 -97 -43 -144 -142 -144zM230 555h-60c-8 0 -13 3 -19 10l-48 60h-2l-47 -60c-6 -7 -11 -10 -19 -10h-60c-6 0 -8 5 -4 10l88 125
c4 6 9 10 17 10h52c8 0 14 -4 18 -10l88 -125c4 -5 2 -10 -4 -10z" />
    <glyph glyph-name="kcommaaccent" unicode="&#x137;" horiz-adv-x="396" 
d="M176 -221c-5 0 -8 4 -8 10v147c0 6 4 10 10 10h70c6 0 10 -4 10 -10v-55c0 -10 -2 -15 -8 -22l-61 -73c-4 -5 -8 -7 -13 -7zM376 0h-87c-7 0 -10 3 -13 10l-83 197l-40 -72v-125c0 -6 -4 -10 -10 -10h-82c-6 0 -10 4 -10 10v660c0 6 4 10 10 10h82c6 0 10 -4 10 -10v-383
l103 185c4 7 7 10 14 10h84c6 0 9 -4 6 -10l-106 -176l128 -286c3 -6 0 -10 -6 -10z" />
    <glyph glyph-name="kgreenlandic" unicode="&#x138;" horiz-adv-x="396" 
d="M376 0h-87c-7 0 -10 3 -13 10l-83 197l-40 -72v-125c0 -6 -4 -10 -10 -10h-82c-6 0 -10 4 -10 10v462c0 6 4 10 10 10h82c6 0 10 -4 10 -10v-185l103 185c4 7 7 10 14 10h84c6 0 9 -4 6 -10l-106 -176l128 -286c3 -6 0 -10 -6 -10z" />
    <glyph glyph-name="lacute" unicode="&#x13a;" horiz-adv-x="233" 
d="M129 761h-55c-6 0 -10 5 -6 10l77 107c5 7 8 10 16 10h81c6 0 9 -5 5 -10l-98 -107c-7 -7 -12 -10 -20 -10zM197 -6h-3c-106 3 -143 44 -143 146v530c0 6 4 10 10 10h82c6 0 10 -4 10 -10v-530c0 -32 13 -47 39 -52l5 -1c6 -1 10 -5 10 -11v-72c0 -6 -4 -10 -10 -10z" />
    <glyph glyph-name="lcaron" unicode="&#x13e;" horiz-adv-x="233" 
d="M205 511c-6 0 -9 3 -9 9v150c0 6 4 10 10 10h69c6 0 10 -4 10 -10v-57c0 -11 -2 -15 -7 -22l-60 -73c-4 -5 -8 -7 -13 -7zM197 -6h-3c-106 3 -143 44 -143 146v530c0 6 4 10 10 10h82c6 0 10 -4 10 -10v-530c0 -32 13 -47 39 -52l5 -1c6 -1 10 -5 10 -11v-72
c0 -6 -4 -10 -10 -10z" />
    <glyph glyph-name="lcommaaccent" unicode="&#x13c;" horiz-adv-x="233" 
d="M98 -221c-5 0 -8 4 -8 10v147c0 6 4 10 10 10h70c6 0 10 -4 10 -10v-55c0 -10 -2 -15 -8 -22l-61 -73c-4 -5 -8 -7 -13 -7zM197 -6h-3c-106 3 -143 44 -143 146v530c0 6 4 10 10 10h82c6 0 10 -4 10 -10v-530c0 -32 13 -47 39 -52l5 -1c6 -1 10 -5 10 -11v-72
c0 -6 -4 -10 -10 -10z" />
    <glyph glyph-name="lslash" unicode="&#x142;" horiz-adv-x="233" 
d="M197 384l-44 -31v-213c0 -32 13 -47 39 -52l5 -1c6 -1 10 -5 10 -11v-72c0 -6 -4 -10 -10 -10h-3c-106 3 -143 44 -143 146v146l-27 -18c-5 -3 -10 0 -10 5v75c0 7 3 11 10 16l27 18v288c0 6 4 10 10 10h82c6 0 10 -4 10 -10v-222l44 31c5 3 10 0 10 -5v-74
c0 -7 -3 -11 -10 -16z" />
    <glyph glyph-name="ldot" unicode="&#x140;" horiz-adv-x="286" 
d="M197 -6h-3c-106 3 -143 44 -143 146v530c0 6 4 10 10 10h82c6 0 10 -4 10 -10v-530c0 -32 13 -47 39 -52l5 -1c6 -1 10 -5 10 -11v-72c0 -6 -4 -10 -10 -10zM287 255h-85c-6 0 -10 4 -10 10v99c0 6 4 10 10 10h85c6 0 10 -4 10 -10v-99c0 -6 -4 -10 -10 -10z" />
    <glyph glyph-name="nacute" unicode="&#x144;" horiz-adv-x="405" 
d="M209 555h-57c-6 0 -9 4 -6 10l69 125c4 7 8 10 16 10h81c6 0 9 -5 5 -10l-90 -125c-6 -8 -10 -10 -18 -10zM348 0h-82c-6 0 -10 4 -10 10v317c0 47 -18 70 -52 70c-33 0 -51 -23 -51 -70v-317c0 -6 -4 -10 -10 -10h-82c-6 0 -10 4 -10 10v462c0 6 4 10 10 10h82
c6 0 10 -4 10 -10v-38h1c17 33 46 57 92 57c72 0 112 -45 112 -150v-331c0 -6 -4 -10 -10 -10z" />
    <glyph glyph-name="ncaron" unicode="&#x148;" horiz-adv-x="405" 
d="M228 555h-52c-8 0 -13 4 -17 10l-88 125c-4 5 -2 10 4 10h60c8 0 13 -3 19 -10l47 -60h2l48 60c6 7 11 10 19 10h60c6 0 8 -5 4 -10l-88 -125c-4 -6 -10 -10 -18 -10zM348 0h-82c-6 0 -10 4 -10 10v317c0 47 -18 70 -52 70c-33 0 -51 -23 -51 -70v-317
c0 -6 -4 -10 -10 -10h-82c-6 0 -10 4 -10 10v462c0 6 4 10 10 10h82c6 0 10 -4 10 -10v-38h1c17 33 46 57 92 57c72 0 112 -45 112 -150v-331c0 -6 -4 -10 -10 -10z" />
    <glyph glyph-name="ntilde" unicode="&#xf1;" horiz-adv-x="405" 
d="M348 0h-82c-6 0 -10 4 -10 10v317c0 47 -18 70 -52 70c-33 0 -51 -23 -51 -70v-317c0 -6 -4 -10 -10 -10h-82c-6 0 -10 4 -10 10v462c0 6 4 10 10 10h82c6 0 10 -4 10 -10v-38h1c17 33 46 57 92 57c72 0 112 -45 112 -150v-331c0 -6 -4 -10 -10 -10zM247 567
c-22 0 -35 7 -52 18c-16 11 -24 16 -38 16c-21 0 -33 -11 -48 -26c-5 -5 -12 -3 -12 4v61c0 6 2 11 10 19c13 13 29 24 51 24s35 -7 51 -18c17 -11 25 -16 39 -16c21 0 33 10 48 26c5 5 12 3 12 -4v-61c0 -6 -2 -11 -10 -19c-13 -13 -29 -24 -51 -24z" />
    <glyph glyph-name="ncommaaccent" unicode="&#x146;" horiz-adv-x="405" 
d="M166 -221c-5 0 -8 4 -8 10v147c0 6 4 10 10 10h70c6 0 10 -4 10 -10v-55c0 -10 -2 -15 -8 -22l-61 -73c-4 -5 -8 -7 -13 -7zM348 0h-82c-6 0 -10 4 -10 10v317c0 47 -18 70 -52 70c-33 0 -51 -23 -51 -70v-317c0 -6 -4 -10 -10 -10h-82c-6 0 -10 4 -10 10v462
c0 6 4 10 10 10h82c6 0 10 -4 10 -10v-38h1c17 33 46 57 92 57c72 0 112 -45 112 -150v-331c0 -6 -4 -10 -10 -10z" />
    <glyph glyph-name="ograve" unicode="&#xf2;" horiz-adv-x="385" 
d="M348 241c0 -100 -3 -126 -11 -151c-20 -62 -71 -99 -145 -99c-73 0 -124 37 -144 99c-8 25 -11 51 -11 151s3 126 11 151c20 62 71 99 144 99c74 0 125 -37 145 -99c8 -25 11 -51 11 -151zM246 241c0 98 -1 108 -5 122c-7 21 -23 34 -49 34c-25 0 -41 -13 -48 -34
c-4 -14 -5 -24 -5 -122s1 -108 5 -122c7 -21 23 -34 48 -34c26 0 42 13 49 34c4 14 5 24 5 122zM224 555h-57c-8 0 -12 2 -18 10l-90 125c-4 5 -1 10 5 10h81c8 0 12 -3 16 -10l69 -125c3 -6 0 -10 -6 -10z" />
    <glyph glyph-name="oacute" unicode="&#xf3;" horiz-adv-x="385" 
d="M213 555h-57c-6 0 -9 4 -6 10l69 125c4 7 8 10 16 10h81c6 0 9 -5 5 -10l-90 -125c-6 -8 -10 -10 -18 -10zM348 241c0 -100 -3 -126 -11 -151c-20 -62 -71 -99 -145 -99c-73 0 -124 37 -144 99c-8 25 -11 51 -11 151s3 126 11 151c20 62 71 99 144 99
c74 0 125 -37 145 -99c8 -25 11 -51 11 -151zM246 241c0 98 -1 108 -5 122c-7 21 -23 34 -49 34c-25 0 -41 -13 -48 -34c-4 -14 -5 -24 -5 -122s1 -108 5 -122c7 -21 23 -34 48 -34c26 0 42 13 49 34c4 14 5 24 5 122z" />
    <glyph glyph-name="ocircumflex" unicode="&#xf4;" horiz-adv-x="385" 
d="M320 555h-60c-8 0 -13 3 -19 10l-48 60h-2l-47 -60c-6 -7 -11 -10 -19 -10h-60c-6 0 -8 5 -4 10l88 125c4 6 9 10 17 10h52c8 0 14 -4 18 -10l88 -125c4 -5 2 -10 -4 -10zM348 241c0 -100 -3 -126 -11 -151c-20 -62 -71 -99 -145 -99c-73 0 -124 37 -144 99
c-8 25 -11 51 -11 151s3 126 11 151c20 62 71 99 144 99c74 0 125 -37 145 -99c8 -25 11 -51 11 -151zM246 241c0 98 -1 108 -5 122c-7 21 -23 34 -49 34c-25 0 -41 -13 -48 -34c-4 -14 -5 -24 -5 -122s1 -108 5 -122c7 -21 23 -34 48 -34c26 0 42 13 49 34c4 14 5 24 5 122
z" />
    <glyph glyph-name="otilde" unicode="&#xf5;" horiz-adv-x="385" 
d="M348 241c0 -100 -3 -126 -11 -151c-20 -62 -71 -99 -145 -99c-73 0 -124 37 -144 99c-8 25 -11 51 -11 151s3 126 11 151c20 62 71 99 144 99c74 0 125 -37 145 -99c8 -25 11 -51 11 -151zM246 241c0 98 -1 108 -5 122c-7 21 -23 34 -49 34c-25 0 -41 -13 -48 -34
c-4 -14 -5 -24 -5 -122s1 -108 5 -122c7 -21 23 -34 48 -34c26 0 42 13 49 34c4 14 5 24 5 122zM237 567c-22 0 -35 7 -52 18c-16 11 -24 16 -38 16c-21 0 -33 -11 -48 -26c-5 -5 -12 -3 -12 4v61c0 6 2 11 10 19c13 13 29 24 51 24s35 -7 51 -18c17 -11 25 -16 39 -16
c21 0 33 10 48 26c5 5 12 3 12 -4v-61c0 -6 -2 -11 -10 -19c-13 -13 -29 -24 -51 -24z" />
    <glyph glyph-name="odieresis" unicode="&#xf6;" horiz-adv-x="385" 
d="M301 574h-65c-6 0 -10 4 -10 10v86c0 6 4 10 10 10h65c6 0 10 -4 10 -10v-86c0 -6 -4 -10 -10 -10zM149 574h-65c-6 0 -10 4 -10 10v86c0 6 4 10 10 10h65c6 0 10 -4 10 -10v-86c0 -6 -4 -10 -10 -10zM348 241c0 -100 -3 -126 -11 -151c-20 -62 -71 -99 -145 -99
c-73 0 -124 37 -144 99c-8 25 -11 51 -11 151s3 126 11 151c20 62 71 99 144 99c74 0 125 -37 145 -99c8 -25 11 -51 11 -151zM246 241c0 98 -1 108 -5 122c-7 21 -23 34 -49 34c-25 0 -41 -13 -48 -34c-4 -14 -5 -24 -5 -122s1 -108 5 -122c7 -21 23 -34 48 -34
c26 0 42 13 49 34c4 14 5 24 5 122z" />
    <glyph glyph-name="omacron" unicode="&#x14d;" horiz-adv-x="385" 
d="M295 588h-205c-6 0 -10 4 -10 10v60c0 6 4 10 10 10h205c6 0 10 -4 10 -10v-60c0 -6 -4 -10 -10 -10zM348 241c0 -100 -3 -126 -11 -151c-20 -62 -71 -99 -145 -99c-73 0 -124 37 -144 99c-8 25 -11 51 -11 151s3 126 11 151c20 62 71 99 144 99c74 0 125 -37 145 -99
c8 -25 11 -51 11 -151zM246 241c0 98 -1 108 -5 122c-7 21 -23 34 -49 34c-25 0 -41 -13 -48 -34c-4 -14 -5 -24 -5 -122s1 -108 5 -122c7 -21 23 -34 48 -34c26 0 42 13 49 34c4 14 5 24 5 122z" />
    <glyph glyph-name="obreve" unicode="&#x14f;" horiz-adv-x="385" 
d="M348 241c0 -100 -3 -126 -11 -151c-20 -62 -71 -99 -145 -99c-73 0 -124 37 -144 99c-8 25 -11 51 -11 151s3 126 11 151c20 62 71 99 144 99c74 0 125 -37 145 -99c8 -25 11 -51 11 -151zM246 241c0 98 -1 108 -5 122c-7 21 -23 34 -49 34c-25 0 -41 -13 -48 -34
c-4 -14 -5 -24 -5 -122s1 -108 5 -122c7 -21 23 -34 48 -34c26 0 42 13 49 34c4 14 5 24 5 122zM192 556c-79 0 -119 54 -124 119c0 6 4 10 10 10h45c6 0 8 -4 10 -10c10 -29 29 -49 59 -49c31 0 50 20 60 49c2 6 4 10 10 10h45c6 0 10 -4 10 -10c-5 -65 -45 -119 -125 -119
z" />
    <glyph glyph-name="ohungarumlaut" unicode="&#x151;" horiz-adv-x="385" 
d="M280 555h-51c-6 0 -9 4 -6 10l61 125c3 7 8 10 16 10h67c6 0 8 -5 5 -10l-75 -125c-5 -8 -9 -10 -17 -10zM147 555h-50c-6 0 -9 4 -6 10l60 125c3 7 8 10 16 10h67c6 0 8 -5 5 -10l-74 -125c-5 -8 -10 -10 -18 -10zM348 241c0 -100 -3 -126 -11 -151
c-20 -62 -71 -99 -145 -99c-73 0 -124 37 -144 99c-8 25 -11 51 -11 151s3 126 11 151c20 62 71 99 144 99c74 0 125 -37 145 -99c8 -25 11 -51 11 -151zM246 241c0 98 -1 108 -5 122c-7 21 -23 34 -49 34c-25 0 -41 -13 -48 -34c-4 -14 -5 -24 -5 -122s1 -108 5 -122
c7 -21 23 -34 48 -34c26 0 42 13 49 34c4 14 5 24 5 122z" />
    <glyph glyph-name="oslash" unicode="&#xf8;" horiz-adv-x="385" 
d="M348 241c0 -100 -3 -126 -11 -151c-20 -62 -71 -99 -145 -99c-37 0 -68 9 -92 26l-19 -37c-3 -6 -7 -10 -13 -10h-22c-6 0 -10 4 -7 10l33 64c-11 13 -19 28 -24 46c-8 25 -11 51 -11 151s3 126 11 151c20 62 71 99 144 99c37 0 68 -9 93 -26l19 37c3 6 7 10 13 10h22
c6 0 10 -4 7 -10l-33 -65c10 -13 18 -28 24 -45c8 -25 11 -51 11 -151zM138 241c0 -33 -1 -55 0 -72l99 206c-9 15 -24 23 -45 23c-25 0 -42 -13 -49 -34c-4 -14 -5 -25 -5 -123zM247 241v69l-99 -204c9 -14 24 -22 44 -22c26 0 43 13 50 34c4 14 5 25 5 123z" />
    <glyph glyph-name="oslashacute" unicode="&#x1ff;" horiz-adv-x="385" 
d="M348 241c0 -100 -3 -126 -11 -151c-20 -62 -71 -99 -145 -99c-37 0 -68 9 -92 26l-19 -37c-3 -6 -7 -10 -13 -10h-22c-6 0 -10 4 -7 10l33 64c-11 13 -19 28 -24 46c-8 25 -11 51 -11 151s3 126 11 151c20 62 71 99 144 99c37 0 68 -9 93 -26l19 37c3 6 7 10 13 10h22
c6 0 10 -4 7 -10l-33 -65c10 -13 18 -28 24 -45c8 -25 11 -51 11 -151zM138 241c0 -33 -1 -55 0 -72l99 206c-9 15 -24 23 -45 23c-25 0 -42 -13 -49 -34c-4 -14 -5 -25 -5 -123zM247 241v69l-99 -204c9 -14 24 -22 44 -22c26 0 43 13 50 34c4 14 5 25 5 123zM213 555h-57
c-6 0 -9 4 -6 10l69 125c4 7 8 10 16 10h81c6 0 9 -5 5 -10l-90 -125c-6 -8 -10 -10 -18 -10z" />
    <glyph glyph-name="oe" unicode="&#x153;" horiz-adv-x="589" 
d="M399 -9c-43 0 -82 14 -102 37h-2c-25 -25 -60 -37 -103 -37c-73 0 -124 37 -144 99c-8 25 -11 51 -11 151s3 126 11 151c20 62 71 99 144 99c43 0 78 -13 103 -38h1c27 25 59 38 104 38c75 0 124 -37 144 -98c7 -24 11 -51 11 -177c0 -6 -4 -10 -10 -10h-191
c-4 0 -6 -2 -6 -6c0 -62 2 -72 5 -83c7 -21 22 -33 47 -33c28 0 44 14 53 44c2 6 6 8 12 7l77 -15c6 -1 8 -5 7 -12c-14 -72 -71 -117 -150 -117zM447 288c4 0 6 2 6 6c0 50 -3 63 -7 74c-6 19 -21 32 -46 32c-24 0 -40 -13 -46 -32c-4 -11 -6 -24 -6 -74c0 -4 2 -6 6 -6h93
zM246 241c0 98 -1 108 -5 122c-7 21 -23 34 -49 34c-25 0 -41 -13 -48 -34c-4 -14 -5 -24 -5 -122s1 -108 5 -122c7 -21 23 -34 48 -34c26 0 42 13 49 34c4 14 5 24 5 122z" />
    <glyph glyph-name="racute" unicode="&#x155;" horiz-adv-x="295" 
d="M175 555h-57c-6 0 -9 4 -6 10l69 125c4 7 8 10 16 10h81c6 0 9 -5 5 -10l-90 -125c-6 -8 -10 -10 -18 -10zM143 0h-82c-6 0 -10 4 -10 10v462c0 6 4 10 10 10h82c6 0 10 -4 10 -10v-47h1c18 39 51 66 106 66c5 0 13 0 18 -1c6 -2 9 -5 7 -11l-23 -85c-2 -5 -4 -6 -10 -6
h-16c-51 0 -83 -30 -83 -94v-284c0 -6 -4 -10 -10 -10z" />
    <glyph glyph-name="rcaron" unicode="&#x159;" horiz-adv-x="295" 
d="M183 555h-52c-8 0 -13 4 -17 10l-88 125c-4 5 -2 10 4 10h60c8 0 13 -3 19 -10l47 -60h2l48 60c6 7 11 10 19 10h60c6 0 8 -5 4 -10l-88 -125c-4 -6 -10 -10 -18 -10zM143 0h-82c-6 0 -10 4 -10 10v462c0 6 4 10 10 10h82c6 0 10 -4 10 -10v-47h1c18 39 51 66 106 66
c5 0 13 0 18 -1c6 -2 9 -5 7 -11l-23 -85c-2 -5 -4 -6 -10 -6h-16c-51 0 -83 -30 -83 -94v-284c0 -6 -4 -10 -10 -10z" />
    <glyph glyph-name="rcommaaccent" unicode="&#x157;" horiz-adv-x="295" 
d="M65 -221c-5 0 -8 4 -8 10v147c0 6 4 10 10 10h70c6 0 10 -4 10 -10v-55c0 -10 -2 -15 -8 -22l-61 -73c-4 -5 -8 -7 -13 -7zM143 0h-82c-6 0 -10 4 -10 10v462c0 6 4 10 10 10h82c6 0 10 -4 10 -10v-47h1c18 39 51 66 106 66c5 0 13 0 18 -1c6 -2 9 -5 7 -11l-23 -85
c-2 -5 -4 -6 -10 -6h-16c-51 0 -83 -30 -83 -94v-284c0 -6 -4 -10 -10 -10z" />
    <glyph glyph-name="sacute" unicode="&#x15b;" horiz-adv-x="350" 
d="M191 555h-57c-6 0 -9 4 -6 10l69 125c4 7 8 10 16 10h81c6 0 9 -5 5 -10l-90 -125c-6 -8 -10 -10 -18 -10zM176 -9c-88 0 -142 48 -150 123c-1 6 2 11 8 12l72 14c6 1 11 -2 12 -8c5 -38 28 -56 59 -56s52 21 52 55c0 30 -12 48 -52 63l-39 15c-63 24 -104 70 -104 141
c0 80 56 141 143 141c85 0 130 -52 139 -110c1 -7 -2 -12 -7 -13l-68 -13c-6 -1 -10 2 -12 8c-7 25 -22 44 -52 44s-47 -22 -47 -50c0 -22 12 -42 52 -57l39 -15c76 -29 104 -75 104 -147c0 -84 -54 -147 -149 -147z" />
    <glyph glyph-name="scircumflex" unicode="&#x15d;" horiz-adv-x="350" 
d="M304 555h-60c-8 0 -13 3 -19 10l-48 60h-2l-47 -60c-6 -7 -11 -10 -19 -10h-60c-6 0 -8 5 -4 10l88 125c4 6 9 10 17 10h52c8 0 14 -4 18 -10l88 -125c4 -5 2 -10 -4 -10zM176 -9c-88 0 -142 48 -150 123c-1 6 2 11 8 12l72 14c6 1 11 -2 12 -8c5 -38 28 -56 59 -56
s52 21 52 55c0 30 -12 48 -52 63l-39 15c-63 24 -104 70 -104 141c0 80 56 141 143 141c85 0 130 -52 139 -110c1 -7 -2 -12 -7 -13l-68 -13c-6 -1 -10 2 -12 8c-7 25 -22 44 -52 44s-47 -22 -47 -50c0 -22 12 -42 52 -57l39 -15c76 -29 104 -75 104 -147
c0 -84 -54 -147 -149 -147z" />
    <glyph glyph-name="scaron" unicode="&#x161;" horiz-adv-x="350" 
d="M202 555h-52c-8 0 -13 4 -17 10l-88 125c-4 5 -2 10 4 10h60c8 0 13 -3 19 -10l47 -60h2l48 60c6 7 11 10 19 10h60c6 0 8 -5 4 -10l-88 -125c-4 -6 -10 -10 -18 -10zM176 -9c-88 0 -142 48 -150 123c-1 6 2 11 8 12l72 14c6 1 11 -2 12 -8c5 -38 28 -56 59 -56
s52 21 52 55c0 30 -12 48 -52 63l-39 15c-63 24 -104 70 -104 141c0 80 56 141 143 141c85 0 130 -52 139 -110c1 -7 -2 -12 -7 -13l-68 -13c-6 -1 -10 2 -12 8c-7 25 -22 44 -52 44s-47 -22 -47 -50c0 -22 12 -42 52 -57l39 -15c76 -29 104 -75 104 -147
c0 -84 -54 -147 -149 -147z" />
    <glyph glyph-name="scedilla" unicode="&#x15f;" horiz-adv-x="350" 
d="M78 -145l58 140c-64 12 -104 56 -110 119c-1 6 2 11 8 12l72 14c6 1 11 -2 12 -8c5 -38 28 -56 59 -56s52 21 52 55c0 30 -12 48 -52 63l-39 15c-63 24 -104 70 -104 141c0 80 56 141 143 141c85 0 130 -52 139 -110c1 -7 -2 -12 -7 -13l-68 -13c-6 -1 -10 2 -12 8
c-7 25 -22 44 -52 44s-47 -22 -47 -50c0 -22 12 -42 52 -57l39 -15c76 -29 104 -75 104 -147c0 -71 -39 -128 -109 -143l-49 -140c-3 -7 -7 -10 -16 -10h-66c-6 0 -9 4 -7 10z" />
    <glyph glyph-name="scommaaccent" unicode="&#x219;" horiz-adv-x="350" 
d="M139 -221c-5 0 -8 4 -8 10v147c0 6 4 10 10 10h70c6 0 10 -4 10 -10v-55c0 -10 -2 -15 -8 -22l-61 -73c-4 -5 -8 -7 -13 -7zM176 -9c-88 0 -142 48 -150 123c-1 6 2 11 8 12l72 14c6 1 11 -2 12 -8c5 -38 28 -56 59 -56s52 21 52 55c0 30 -12 48 -52 63l-39 15
c-63 24 -104 70 -104 141c0 80 56 141 143 141c85 0 130 -52 139 -110c1 -7 -2 -12 -7 -13l-68 -13c-6 -1 -10 2 -12 8c-7 25 -22 44 -52 44s-47 -22 -47 -50c0 -22 12 -42 52 -57l39 -15c76 -29 104 -75 104 -147c0 -84 -54 -147 -149 -147z" />
    <glyph glyph-name="germandbls" unicode="&#xdf;" horiz-adv-x="413" 
d="M237 -4h-18c-6 0 -10 4 -10 10v73c0 6 4 10 10 10h7c20 0 32 8 37 24c3 9 5 23 5 105s-2 95 -5 104c-5 15 -18 24 -37 24h-7c-6 0 -10 4 -10 10v73c0 6 4 10 10 10h5c19 0 31 7 36 24c2 6 4 19 4 59c0 48 -17 73 -55 73c-37 0 -56 -25 -56 -73v-512c0 -6 -4 -10 -10 -10
h-82c-6 0 -10 4 -10 10v501c0 107 46 178 157 178c100 0 158 -59 158 -159c0 -73 -12 -99 -53 -128v-2c23 -14 39 -31 48 -59c7 -21 9 -43 9 -123c0 -94 -3 -125 -11 -148c-17 -54 -57 -74 -122 -74z" />
    <glyph glyph-name="tcaron" unicode="&#x165;" horiz-adv-x="255" 
d="M208 511c-6 0 -9 3 -9 9v150c0 6 4 10 10 10h69c6 0 10 -4 10 -10v-57c0 -11 -2 -15 -7 -22l-60 -73c-4 -5 -8 -7 -13 -7zM219 -6h-30c-84 0 -123 37 -123 133v271c0 4 -2 6 -6 6h-29c-6 0 -10 4 -10 10v58c0 6 4 10 10 10h29c4 0 6 2 6 6v132c0 6 4 10 10 10h82
c6 0 10 -4 10 -10v-132c0 -4 2 -6 6 -6h45c6 0 10 -4 10 -10v-58c0 -6 -4 -10 -10 -10h-45c-4 0 -6 -2 -6 -6v-269c0 -28 12 -41 39 -41h12c6 0 10 -4 10 -10v-74c0 -6 -4 -10 -10 -10z" />
    <glyph glyph-name="tcommaaccent" unicode="&#x163;" horiz-adv-x="255" 
d="M111 -221c-5 0 -8 4 -8 10v147c0 6 4 10 10 10h70c6 0 10 -4 10 -10v-55c0 -10 -2 -15 -8 -22l-61 -73c-4 -5 -8 -7 -13 -7zM219 -6h-30c-84 0 -123 37 -123 133v271c0 4 -2 6 -6 6h-29c-6 0 -10 4 -10 10v58c0 6 4 10 10 10h29c4 0 6 2 6 6v132c0 6 4 10 10 10h82
c6 0 10 -4 10 -10v-132c0 -4 2 -6 6 -6h45c6 0 10 -4 10 -10v-58c0 -6 -4 -10 -10 -10h-45c-4 0 -6 -2 -6 -6v-269c0 -28 12 -41 39 -41h12c6 0 10 -4 10 -10v-74c0 -6 -4 -10 -10 -10z" />
    <glyph glyph-name="uni021B" unicode="&#x21b;" horiz-adv-x="255" 
d="M111 -221c-5 0 -8 4 -8 10v147c0 6 4 10 10 10h70c6 0 10 -4 10 -10v-55c0 -10 -2 -15 -8 -22l-61 -73c-4 -5 -8 -7 -13 -7zM219 -6h-30c-84 0 -123 37 -123 133v271c0 4 -2 6 -6 6h-29c-6 0 -10 4 -10 10v58c0 6 4 10 10 10h29c4 0 6 2 6 6v132c0 6 4 10 10 10h82
c6 0 10 -4 10 -10v-132c0 -4 2 -6 6 -6h45c6 0 10 -4 10 -10v-58c0 -6 -4 -10 -10 -10h-45c-4 0 -6 -2 -6 -6v-269c0 -28 12 -41 39 -41h12c6 0 10 -4 10 -10v-74c0 -6 -4 -10 -10 -10z" />
    <glyph glyph-name="tbar" unicode="&#x167;" horiz-adv-x="255" 
d="M219 -6h-30c-84 0 -123 37 -123 133v128c0 4 -2 6 -6 6h-21c-6 0 -10 4 -10 10v56c0 6 4 10 10 10h21c4 0 6 2 6 6v55c0 4 -2 6 -6 6h-29c-6 0 -10 4 -10 10v58c0 6 4 10 10 10h29c4 0 6 2 6 6v132c0 6 4 10 10 10h82c6 0 10 -4 10 -10v-132c0 -4 2 -6 6 -6h45
c6 0 10 -4 10 -10v-58c0 -6 -4 -10 -10 -10h-45c-4 0 -6 -2 -6 -6v-55c0 -4 2 -6 6 -6h28c6 0 10 -4 10 -10v-56c0 -6 -4 -10 -10 -10h-28c-4 0 -6 -2 -6 -6v-126c0 -28 12 -41 39 -41h12c6 0 10 -4 10 -10v-74c0 -6 -4 -10 -10 -10z" />
    <glyph glyph-name="thorn" unicode="&#xfe;" horiz-adv-x="401" 
d="M143 -180h-82c-6 0 -10 4 -10 10v840c0 6 4 10 10 10h82c6 0 10 -4 10 -10v-237h1c13 33 40 58 90 58c55 0 88 -26 105 -80c9 -27 13 -57 13 -170c0 -114 -4 -143 -13 -170c-17 -54 -50 -80 -105 -80c-50 0 -77 24 -90 58h-1v-219c0 -6 -4 -10 -10 -10zM260 241
c0 98 -1 108 -5 122c-7 21 -23 34 -49 34c-25 0 -41 -13 -48 -34c-4 -14 -5 -24 -5 -122s1 -108 5 -122c7 -21 23 -34 48 -34c26 0 42 13 49 34c4 14 5 24 5 122z" />
    <glyph glyph-name="ugrave" unicode="&#xf9;" horiz-adv-x="403" 
d="M342 0h-82c-6 0 -10 4 -10 10v38h-1c-17 -33 -45 -57 -91 -57c-71 0 -111 44 -111 150v331c0 6 4 10 10 10h82c6 0 10 -4 10 -10v-317c0 -46 17 -70 50 -70s51 24 51 70v317c0 6 4 10 10 10h82c6 0 10 -4 10 -10v-462c0 -6 -4 -10 -10 -10zM233 555h-57
c-8 0 -12 2 -18 10l-90 125c-4 5 -1 10 5 10h81c8 0 12 -3 16 -10l69 -125c3 -6 0 -10 -6 -10z" />
    <glyph glyph-name="uacute" unicode="&#xfa;" horiz-adv-x="403" 
d="M226 555h-57c-6 0 -9 4 -6 10l69 125c4 7 8 10 16 10h81c6 0 9 -5 5 -10l-90 -125c-6 -8 -10 -10 -18 -10zM342 0h-82c-6 0 -10 4 -10 10v38h-1c-17 -33 -45 -57 -91 -57c-71 0 -111 44 -111 150v331c0 6 4 10 10 10h82c6 0 10 -4 10 -10v-317c0 -46 17 -70 50 -70
s51 24 51 70v317c0 6 4 10 10 10h82c6 0 10 -4 10 -10v-462c0 -6 -4 -10 -10 -10z" />
    <glyph glyph-name="ucircumflex" unicode="&#xfb;" horiz-adv-x="403" 
d="M329 555h-60c-8 0 -13 3 -19 10l-48 60h-2l-47 -60c-6 -7 -11 -10 -19 -10h-60c-6 0 -8 5 -4 10l88 125c4 6 9 10 17 10h52c8 0 14 -4 18 -10l88 -125c4 -5 2 -10 -4 -10zM342 0h-82c-6 0 -10 4 -10 10v38h-1c-17 -33 -45 -57 -91 -57c-71 0 -111 44 -111 150v331
c0 6 4 10 10 10h82c6 0 10 -4 10 -10v-317c0 -46 17 -70 50 -70s51 24 51 70v317c0 6 4 10 10 10h82c6 0 10 -4 10 -10v-462c0 -6 -4 -10 -10 -10z" />
    <glyph glyph-name="utilde" unicode="&#x169;" horiz-adv-x="403" 
d="M342 0h-82c-6 0 -10 4 -10 10v38h-1c-17 -33 -45 -57 -91 -57c-71 0 -111 44 -111 150v331c0 6 4 10 10 10h82c6 0 10 -4 10 -10v-317c0 -46 17 -70 50 -70s51 24 51 70v317c0 6 4 10 10 10h82c6 0 10 -4 10 -10v-462c0 -6 -4 -10 -10 -10zM246 567c-22 0 -35 7 -52 18
c-16 11 -24 16 -38 16c-21 0 -33 -11 -48 -26c-5 -5 -12 -3 -12 4v61c0 6 2 11 10 19c13 13 29 24 51 24s35 -7 51 -18c17 -11 25 -16 39 -16c21 0 33 10 48 26c5 5 12 3 12 -4v-61c0 -6 -2 -11 -10 -19c-13 -13 -29 -24 -51 -24z" />
    <glyph glyph-name="udieresis" unicode="&#xfc;" horiz-adv-x="403" 
d="M310 574h-65c-6 0 -10 4 -10 10v86c0 6 4 10 10 10h65c6 0 10 -4 10 -10v-86c0 -6 -4 -10 -10 -10zM158 574h-65c-6 0 -10 4 -10 10v86c0 6 4 10 10 10h65c6 0 10 -4 10 -10v-86c0 -6 -4 -10 -10 -10zM342 0h-82c-6 0 -10 4 -10 10v38h-1c-17 -33 -45 -57 -91 -57
c-71 0 -111 44 -111 150v331c0 6 4 10 10 10h82c6 0 10 -4 10 -10v-317c0 -46 17 -70 50 -70s51 24 51 70v317c0 6 4 10 10 10h82c6 0 10 -4 10 -10v-462c0 -6 -4 -10 -10 -10z" />
    <glyph glyph-name="umacron" unicode="&#x16b;" horiz-adv-x="403" 
d="M342 0h-82c-6 0 -10 4 -10 10v38h-1c-17 -33 -45 -57 -91 -57c-71 0 -111 44 -111 150v331c0 6 4 10 10 10h82c6 0 10 -4 10 -10v-317c0 -46 17 -70 50 -70s51 24 51 70v317c0 6 4 10 10 10h82c6 0 10 -4 10 -10v-462c0 -6 -4 -10 -10 -10zM304 588h-205
c-6 0 -10 4 -10 10v60c0 6 4 10 10 10h205c6 0 10 -4 10 -10v-60c0 -6 -4 -10 -10 -10z" />
    <glyph glyph-name="ubreve" unicode="&#x16d;" horiz-adv-x="403" 
d="M342 0h-82c-6 0 -10 4 -10 10v38h-1c-17 -33 -45 -57 -91 -57c-71 0 -111 44 -111 150v331c0 6 4 10 10 10h82c6 0 10 -4 10 -10v-317c0 -46 17 -70 50 -70s51 24 51 70v317c0 6 4 10 10 10h82c6 0 10 -4 10 -10v-462c0 -6 -4 -10 -10 -10zM201 556
c-79 0 -119 54 -124 119c0 6 4 10 10 10h45c6 0 8 -4 10 -10c10 -29 29 -49 59 -49c31 0 50 20 60 49c2 6 4 10 10 10h45c6 0 10 -4 10 -10c-5 -65 -45 -119 -125 -119z" />
    <glyph glyph-name="uring" unicode="&#x16f;" horiz-adv-x="403" 
d="M201 539c-51 0 -90 39 -90 90c0 52 39 91 90 91c52 0 91 -39 91 -91c0 -51 -39 -90 -91 -90zM201 582c27 0 46 20 46 47c0 28 -19 48 -46 48c-26 0 -45 -20 -45 -48c0 -27 19 -47 45 -47zM342 0h-82c-6 0 -10 4 -10 10v38h-1c-17 -33 -45 -57 -91 -57
c-71 0 -111 44 -111 150v331c0 6 4 10 10 10h82c6 0 10 -4 10 -10v-317c0 -46 17 -70 50 -70s51 24 51 70v317c0 6 4 10 10 10h82c6 0 10 -4 10 -10v-462c0 -6 -4 -10 -10 -10z" />
    <glyph glyph-name="uhungarumlaut" unicode="&#x171;" horiz-adv-x="403" 
d="M342 0h-82c-6 0 -10 4 -10 10v38h-1c-17 -33 -45 -57 -91 -57c-71 0 -111 44 -111 150v331c0 6 4 10 10 10h82c6 0 10 -4 10 -10v-317c0 -46 17 -70 50 -70s51 24 51 70v317c0 6 4 10 10 10h82c6 0 10 -4 10 -10v-462c0 -6 -4 -10 -10 -10zM289 555h-51c-6 0 -9 4 -6 10
l61 125c3 7 8 10 16 10h67c6 0 8 -5 5 -10l-75 -125c-5 -8 -9 -10 -17 -10zM156 555h-50c-6 0 -9 4 -6 10l60 125c3 7 8 10 16 10h67c6 0 8 -5 5 -10l-74 -125c-5 -8 -10 -10 -18 -10z" />
    <glyph glyph-name="uogonek" unicode="&#x173;" horiz-adv-x="403" 
d="M284 -190c-54 0 -90 29 -90 83c0 44 26 78 59 109c-2 2 -3 4 -3 8v38h-1c-17 -33 -45 -57 -91 -57c-71 0 -111 44 -111 150v331c0 6 4 10 10 10h82c6 0 10 -4 10 -10v-317c0 -46 17 -70 50 -70s51 24 51 70v317c0 6 4 10 10 10h82c6 0 10 -4 10 -10v-462
c0 -6 -2 -8 -7 -11c-39 -25 -67 -64 -67 -90c0 -16 8 -24 19 -24c8 0 13 2 18 5s11 1 13 -4l21 -46c2 -5 0 -10 -5 -13c-13 -9 -39 -17 -60 -17z" />
    <glyph glyph-name="wacute" unicode="&#x1e83;" horiz-adv-x="541" 
d="M297 555h-57c-6 0 -9 4 -6 10l69 125c4 7 8 10 16 10h81c6 0 9 -5 5 -10l-90 -125c-6 -8 -10 -10 -18 -10zM403 0h-70c-7 0 -11 3 -12 10l-50 280h-2l-49 -280c-1 -7 -5 -10 -12 -10h-70c-7 0 -10 3 -11 10l-109 462c-2 6 1 10 7 10h84c7 0 10 -4 11 -10l54 -298h1
l56 298c1 6 4 10 11 10h59c7 0 10 -4 11 -10l54 -298h1l55 298c1 6 4 10 11 10h83c6 0 9 -4 7 -10l-108 -462c-2 -7 -5 -10 -12 -10z" />
    <glyph glyph-name="wcircumflex" unicode="&#x175;" horiz-adv-x="541" 
d="M397 555h-60c-8 0 -13 3 -19 10l-48 60h-2l-47 -60c-6 -7 -11 -10 -19 -10h-60c-6 0 -8 5 -4 10l88 125c4 6 9 10 17 10h52c8 0 14 -4 18 -10l88 -125c4 -5 2 -10 -4 -10zM403 0h-70c-7 0 -11 3 -12 10l-50 280h-2l-49 -280c-1 -7 -5 -10 -12 -10h-70c-7 0 -10 3 -11 10
l-109 462c-2 6 1 10 7 10h84c7 0 10 -4 11 -10l54 -298h1l56 298c1 6 4 10 11 10h59c7 0 10 -4 11 -10l54 -298h1l55 298c1 6 4 10 11 10h83c6 0 9 -4 7 -10l-108 -462c-2 -7 -5 -10 -12 -10z" />
    <glyph glyph-name="wdieresis" unicode="&#x1e85;" horiz-adv-x="541" 
d="M378 574h-65c-6 0 -10 4 -10 10v86c0 6 4 10 10 10h65c6 0 10 -4 10 -10v-86c0 -6 -4 -10 -10 -10zM226 574h-65c-6 0 -10 4 -10 10v86c0 6 4 10 10 10h65c6 0 10 -4 10 -10v-86c0 -6 -4 -10 -10 -10zM403 0h-70c-7 0 -11 3 -12 10l-50 280h-2l-49 -280
c-1 -7 -5 -10 -12 -10h-70c-7 0 -10 3 -11 10l-109 462c-2 6 1 10 7 10h84c7 0 10 -4 11 -10l54 -298h1l56 298c1 6 4 10 11 10h59c7 0 10 -4 11 -10l54 -298h1l55 298c1 6 4 10 11 10h83c6 0 9 -4 7 -10l-108 -462c-2 -7 -5 -10 -12 -10z" />
    <glyph glyph-name="wgrave" unicode="&#x1e81;" horiz-adv-x="541" 
d="M403 0h-70c-7 0 -11 3 -12 10l-50 280h-2l-49 -280c-1 -7 -5 -10 -12 -10h-70c-7 0 -10 3 -11 10l-109 462c-2 6 1 10 7 10h84c7 0 10 -4 11 -10l54 -298h1l56 298c1 6 4 10 11 10h59c7 0 10 -4 11 -10l54 -298h1l55 298c1 6 4 10 11 10h83c6 0 9 -4 7 -10l-108 -462
c-2 -7 -5 -10 -12 -10zM299 555h-57c-8 0 -12 2 -18 10l-90 125c-4 5 -1 10 5 10h81c8 0 12 -3 16 -10l69 -125c3 -6 0 -10 -6 -10z" />
    <glyph glyph-name="yacute" unicode="&#xfd;" horiz-adv-x="370" 
d="M77 -180h-15c-6 0 -10 4 -10 10v74c0 6 4 10 10 10l14 1c29 2 43 15 53 55l11 48l-120 454c-2 6 1 10 7 10h84c7 0 10 -4 11 -10l64 -298h1l64 298c1 6 4 10 11 10h81c6 0 9 -4 7 -10l-127 -500c-32 -126 -65 -152 -146 -152zM212 555h-57c-6 0 -9 4 -6 10l69 125
c4 7 8 10 16 10h81c6 0 9 -5 5 -10l-90 -125c-6 -8 -10 -10 -18 -10z" />
    <glyph glyph-name="ycircumflex" unicode="&#x177;" horiz-adv-x="370" 
d="M77 -180h-15c-6 0 -10 4 -10 10v74c0 6 4 10 10 10l14 1c29 2 43 15 53 55l11 48l-120 454c-2 6 1 10 7 10h84c7 0 10 -4 11 -10l64 -298h1l64 298c1 6 4 10 11 10h81c6 0 9 -4 7 -10l-127 -500c-32 -126 -65 -152 -146 -152zM313 555h-60c-8 0 -13 3 -19 10l-48 60h-2
l-47 -60c-6 -7 -11 -10 -19 -10h-60c-6 0 -8 5 -4 10l88 125c4 6 9 10 17 10h52c8 0 14 -4 18 -10l88 -125c4 -5 2 -10 -4 -10z" />
    <glyph glyph-name="ydieresis" unicode="&#xff;" horiz-adv-x="370" 
d="M77 -180h-15c-6 0 -10 4 -10 10v74c0 6 4 10 10 10l14 1c29 2 43 15 53 55l11 48l-120 454c-2 6 1 10 7 10h84c7 0 10 -4 11 -10l64 -298h1l64 298c1 6 4 10 11 10h81c6 0 9 -4 7 -10l-127 -500c-32 -126 -65 -152 -146 -152zM294 574h-65c-6 0 -10 4 -10 10v86
c0 6 4 10 10 10h65c6 0 10 -4 10 -10v-86c0 -6 -4 -10 -10 -10zM142 574h-65c-6 0 -10 4 -10 10v86c0 6 4 10 10 10h65c6 0 10 -4 10 -10v-86c0 -6 -4 -10 -10 -10z" />
    <glyph glyph-name="ygrave" unicode="&#x1ef3;" horiz-adv-x="370" 
d="M77 -180h-15c-6 0 -10 4 -10 10v74c0 6 4 10 10 10l14 1c29 2 43 15 53 55l11 48l-120 454c-2 6 1 10 7 10h84c7 0 10 -4 11 -10l64 -298h1l64 298c1 6 4 10 11 10h81c6 0 9 -4 7 -10l-127 -500c-32 -126 -65 -152 -146 -152zM217 555h-57c-8 0 -12 2 -18 10l-90 125
c-4 5 -1 10 5 10h81c8 0 12 -3 16 -10l69 -125c3 -6 0 -10 -6 -10z" />
    <glyph glyph-name="zacute" unicode="&#x17a;" horiz-adv-x="320" 
d="M187 555h-57c-6 0 -9 4 -6 10l69 125c4 7 8 10 16 10h81c6 0 9 -5 5 -10l-90 -125c-6 -8 -10 -10 -18 -10zM286 0h-248c-6 0 -10 4 -10 10v68c0 5 1 9 3 13l149 299v2h-132c-6 0 -10 4 -10 10v70c0 6 4 10 10 10h238c6 0 10 -4 10 -10v-57c0 -5 -1 -9 -3 -13l-155 -309
v-2h148c6 0 10 -4 10 -10v-71c0 -6 -4 -10 -10 -10z" />
    <glyph glyph-name="zcaron" unicode="&#x17e;" horiz-adv-x="320" 
d="M188 555h-52c-8 0 -13 4 -17 10l-88 125c-4 5 -2 10 4 10h60c8 0 13 -3 19 -10l47 -60h2l48 60c6 7 11 10 19 10h60c6 0 8 -5 4 -10l-88 -125c-4 -6 -10 -10 -18 -10zM286 0h-248c-6 0 -10 4 -10 10v68c0 5 1 9 3 13l149 299v2h-132c-6 0 -10 4 -10 10v70c0 6 4 10 10 10
h238c6 0 10 -4 10 -10v-57c0 -5 -1 -9 -3 -13l-155 -309v-2h148c6 0 10 -4 10 -10v-71c0 -6 -4 -10 -10 -10z" />
    <glyph glyph-name="zdotaccent" unicode="&#x17c;" horiz-adv-x="320" 
d="M286 0h-248c-6 0 -10 4 -10 10v68c0 5 1 9 3 13l149 299v2h-132c-6 0 -10 4 -10 10v70c0 6 4 10 10 10h238c6 0 10 -4 10 -10v-57c0 -5 -1 -9 -3 -13l-155 -309v-2h148c6 0 10 -4 10 -10v-71c0 -6 -4 -10 -10 -10zM203 574h-82c-6 0 -10 4 -10 10v86c0 6 4 10 10 10h82
c6 0 10 -4 10 -10v-86c0 -6 -4 -10 -10 -10z" />
    <glyph glyph-name="grave.cap" horiz-adv-x="415" 
d="M296 761h-55c-8 0 -13 3 -20 10l-99 107c-4 5 -1 10 5 10h81c9 0 12 -3 17 -10l76 -107c4 -5 1 -10 -5 -10z" />
    <glyph glyph-name="acute" unicode="&#xb4;" horiz-adv-x="415" 
d="M185 555h-57c-6 0 -9 4 -6 10l69 125c4 7 8 10 16 10h81c6 0 9 -5 5 -10l-90 -125c-6 -8 -10 -10 -18 -10z" />
    <glyph glyph-name="acute.cap" horiz-adv-x="415" 
d="M184 761h-55c-6 0 -10 5 -6 10l77 107c5 7 8 10 16 10h81c6 0 9 -5 5 -10l-98 -107c-7 -7 -12 -10 -20 -10z" />
    <glyph glyph-name="circumflex" unicode="&#x2c6;" horiz-adv-x="415" 
d="M335 555h-60c-8 0 -13 3 -19 10l-48 60h-2l-47 -60c-6 -7 -11 -10 -19 -10h-60c-6 0 -8 5 -4 10l88 125c4 6 9 10 17 10h52c8 0 14 -4 18 -10l88 -125c4 -5 2 -10 -4 -10z" />
    <glyph glyph-name="circumflex.cap" horiz-adv-x="415" 
d="M335 750h-60c-8 0 -13 3 -19 10l-48 60h-2l-47 -60c-6 -7 -11 -10 -19 -10h-60c-6 0 -8 5 -4 10l88 125c4 6 9 10 17 10h52c8 0 14 -4 18 -10l88 -125c4 -5 2 -10 -4 -10z" />
    <glyph glyph-name="caron" unicode="&#x2c7;" horiz-adv-x="415" 
d="M233 555h-52c-8 0 -13 4 -17 10l-88 125c-4 5 -2 10 4 10h60c8 0 13 -3 19 -10l47 -60h2l48 60c6 7 11 10 19 10h60c6 0 8 -5 4 -10l-88 -125c-4 -6 -10 -10 -18 -10z" />
    <glyph glyph-name="caron.cap" horiz-adv-x="415" 
d="M233 747h-52c-8 0 -13 4 -17 10l-88 125c-4 5 -2 10 4 10h60c8 0 13 -3 19 -10l47 -59h2l48 59c6 7 11 10 19 10h60c6 0 8 -5 4 -10l-88 -125c-4 -6 -10 -10 -18 -10z" />
    <glyph glyph-name="caron.alt" horiz-adv-x="415" 
d="M172 511c-6 0 -9 3 -9 9v150c0 6 4 10 10 10h69c6 0 10 -4 10 -10v-57c0 -11 -2 -15 -7 -22l-60 -73c-4 -5 -8 -7 -13 -7z" />
    <glyph glyph-name="tilde" unicode="&#x2dc;" horiz-adv-x="415" 
d="M251 567c-22 0 -35 7 -52 18c-16 11 -24 16 -38 16c-21 0 -33 -11 -48 -26c-5 -5 -12 -3 -12 4v61c0 6 2 11 10 19c13 13 29 24 51 24s35 -7 51 -18c17 -11 25 -16 39 -16c21 0 33 10 48 26c5 5 12 3 12 -4v-61c0 -6 -2 -11 -10 -19c-13 -13 -29 -24 -51 -24z" />
    <glyph glyph-name="tilde.cap" horiz-adv-x="415" 
d="M251 763c-22 0 -35 7 -52 18c-16 11 -24 16 -38 16c-21 0 -33 -11 -48 -26c-5 -5 -12 -3 -12 4v61c0 6 2 11 10 19c13 13 29 24 51 24s35 -7 51 -18c17 -11 25 -16 39 -16c21 0 33 11 48 26c5 5 12 3 12 -4v-61c0 -6 -2 -11 -10 -19c-13 -13 -29 -24 -51 -24z" />
    <glyph glyph-name="dieresis" unicode="&#xa8;" horiz-adv-x="415" 
d="M316 574h-65c-6 0 -10 4 -10 10v86c0 6 4 10 10 10h65c6 0 10 -4 10 -10v-86c0 -6 -4 -10 -10 -10zM164 574h-65c-6 0 -10 4 -10 10v86c0 6 4 10 10 10h65c6 0 10 -4 10 -10v-86c0 -6 -4 -10 -10 -10z" />
    <glyph glyph-name="dieresis.cap" horiz-adv-x="415" 
d="M316 769h-65c-6 0 -10 4 -10 10v86c0 6 4 10 10 10h65c6 0 10 -4 10 -10v-86c0 -6 -4 -10 -10 -10zM164 769h-65c-6 0 -10 4 -10 10v86c0 6 4 10 10 10h65c6 0 10 -4 10 -10v-86c0 -6 -4 -10 -10 -10z" />
    <glyph glyph-name="macron" unicode="&#xaf;" horiz-adv-x="415" 
d="M310 588h-205c-6 0 -10 4 -10 10v60c0 6 4 10 10 10h205c6 0 10 -4 10 -10v-60c0 -6 -4 -10 -10 -10z" />
    <glyph glyph-name="macron.cap" horiz-adv-x="415" 
d="M310 780h-205c-6 0 -10 4 -10 10v60c0 6 4 10 10 10h205c6 0 10 -4 10 -10v-60c0 -6 -4 -10 -10 -10z" />
    <glyph glyph-name="uni02C9" unicode="&#x2c9;" horiz-adv-x="415" 
d="M310 780h-205c-6 0 -10 4 -10 10v60c0 6 4 10 10 10h205c6 0 10 -4 10 -10v-60c0 -6 -4 -10 -10 -10z" />
    <glyph glyph-name="breve" unicode="&#x2d8;" horiz-adv-x="415" 
d="M207 556c-79 0 -119 54 -124 119c0 6 4 10 10 10h45c6 0 8 -4 10 -10c10 -29 29 -49 59 -49c31 0 50 20 60 49c2 6 4 10 10 10h45c6 0 10 -4 10 -10c-5 -65 -45 -119 -125 -119z" />
    <glyph glyph-name="breve.cap" horiz-adv-x="415" 
d="M207 742c-79 0 -119 55 -124 119c0 6 4 10 10 10h45c6 0 8 -4 10 -10c10 -28 29 -48 59 -48c31 0 50 20 60 48c2 6 4 10 10 10h45c6 0 10 -4 10 -10c-5 -64 -45 -119 -125 -119z" />
    <glyph glyph-name="ring" unicode="&#x2da;" horiz-adv-x="415" 
d="M207 539c-51 0 -90 39 -90 90c0 52 39 91 90 91c52 0 91 -39 91 -91c0 -51 -39 -90 -91 -90zM207 582c27 0 46 20 46 47c0 28 -19 48 -46 48c-26 0 -45 -20 -45 -48c0 -27 19 -47 45 -47z" />
    <glyph glyph-name="ring.cap" horiz-adv-x="415" 
d="M207 721c-51 0 -90 39 -90 91c0 51 39 90 90 90c52 0 91 -39 91 -90c0 -52 -39 -91 -91 -91zM207 764c27 0 46 21 46 48s-19 47 -46 47c-26 0 -45 -20 -45 -47s19 -48 45 -48z" />
    <glyph glyph-name="hungarumlaut" unicode="&#x2dd;" horiz-adv-x="415" 
d="M278 555h-51c-6 0 -9 4 -6 10l61 125c3 7 8 10 16 10h67c6 0 8 -5 5 -10l-75 -125c-5 -8 -9 -10 -17 -10zM145 555h-50c-6 0 -9 4 -6 10l60 125c3 7 8 10 16 10h67c6 0 8 -5 5 -10l-74 -125c-5 -8 -10 -10 -18 -10z" />
    <glyph glyph-name="hungarumlaut.cap" horiz-adv-x="415" 
d="M280 761h-50c-6 0 -9 4 -5 10l69 107c4 6 9 10 17 10h68c6 0 8 -5 4 -10l-84 -107c-6 -7 -11 -10 -19 -10zM147 761h-50c-6 0 -9 4 -5 10l70 107c4 6 9 10 17 10h67c6 0 8 -5 4 -10l-84 -107c-6 -7 -11 -10 -19 -10z" />
    <glyph glyph-name="dotaccent" unicode="&#x2d9;" horiz-adv-x="415" 
d="M248 574h-82c-6 0 -10 4 -10 10v86c0 6 4 10 10 10h82c6 0 10 -4 10 -10v-86c0 -6 -4 -10 -10 -10z" />
    <glyph glyph-name="dotaccent.cap" horiz-adv-x="415" 
d="M248 769h-82c-6 0 -10 4 -10 10v86c0 6 4 10 10 10h82c6 0 10 -4 10 -10v-86c0 -6 -4 -10 -10 -10z" />
    <glyph glyph-name="cedilla" unicode="&#xb8;" horiz-adv-x="415" 
d="M139 -145l61 145c3 7 6 10 13 10h59c6 0 9 -4 7 -10l-51 -145c-3 -7 -7 -10 -16 -10h-66c-6 0 -9 4 -7 10z" />
    <glyph glyph-name="ogonek" unicode="&#x2db;" horiz-adv-x="415" 
d="M220 -190c-54 0 -89 29 -89 83c0 44 25 78 56 107c6 6 12 10 18 10h75c7 0 8 -7 3 -10c-38 -26 -69 -63 -69 -91c0 -16 8 -24 20 -24c8 0 13 2 18 5s11 1 13 -4l20 -46c2 -5 0 -10 -5 -13c-13 -9 -38 -17 -60 -17z" />
    <glyph glyph-name="commaaccent" horiz-adv-x="415" 
d="M171 -221c-5 0 -8 4 -8 10v147c0 6 4 10 10 10h70c6 0 10 -4 10 -10v-55c0 -10 -2 -15 -8 -22l-61 -73c-4 -5 -8 -7 -13 -7z" />
    <glyph glyph-name="commaaccent.alt" horiz-adv-x="415" 
d="M243 572h-70c-6 0 -10 4 -10 10v55c0 10 1 15 7 22l61 73c4 5 8 7 13 7c6 0 9 -4 9 -10v-147c0 -6 -4 -10 -10 -10z" />
    <glyph glyph-name="ellipsis" unicode="&#x2026;" horiz-adv-x="591" 
d="M535 0h-85c-6 0 -10 4 -10 10v99c0 6 4 10 10 10h85c6 0 10 -4 10 -10v-99c0 -6 -4 -10 -10 -10zM338 0h-85c-6 0 -10 4 -10 10v99c0 6 4 10 10 10h85c6 0 10 -4 10 -10v-99c0 -6 -4 -10 -10 -10zM141 0h-85c-6 0 -10 4 -10 10v99c0 6 4 10 10 10h85c6 0 10 -4 10 -10
v-99c0 -6 -4 -10 -10 -10z" />
    <glyph glyph-name="uni00AD" unicode="&#xad;" horiz-adv-x="368" 
d="M316 218h-264c-6 0 -10 4 -10 10v75c0 6 4 10 10 10h264c6 0 10 -4 10 -10v-75c0 -6 -4 -10 -10 -10z" />
    <glyph glyph-name="exclamdown" unicode="&#xa1;" horiz-adv-x="241" 
d="M144 312c6 0 10 -4 10 -10l22 -490c0 -6 -4 -10 -10 -10h-91c-6 0 -10 4 -10 10l22 490c0 6 4 10 10 10h47zM173 472v-99c0 -6 -4 -10 -10 -10h-85c-6 0 -10 4 -10 10v99c0 6 4 10 10 10h85c6 0 10 -4 10 -10z" />
    <glyph glyph-name="questiondown" unicode="&#xbf;" horiz-adv-x="391" 
d="M251 312c6 0 10 -4 10 -10v-75c0 -24 -6 -44 -19 -68l-56 -103c-17 -32 -25 -55 -25 -102c0 -16 1 -26 4 -36c7 -21 22 -32 46 -32c25 0 39 11 47 32c3 10 4 20 4 63c0 8 5 11 11 10l78 -7c7 -1 10 -5 10 -12c0 -49 -3 -67 -9 -84c-20 -59 -74 -95 -143 -95
c-75 0 -122 39 -141 95c-6 18 -9 37 -9 66c0 51 9 81 28 118l56 105c10 19 16 35 16 55v70c0 6 4 10 10 10h82zM262 472v-99c0 -6 -4 -10 -10 -10h-84c-6 0 -10 4 -10 10v99c0 6 4 10 10 10h84c6 0 10 -4 10 -10z" />
    <glyph glyph-name="quoteleft" unicode="&#x2018;" horiz-adv-x="171" 
d="M121 493h-71c-6 0 -10 4 -10 10v73c0 10 2 16 8 23l62 75c4 5 7 7 12 7c6 0 9 -4 9 -9v-169c0 -6 -4 -10 -10 -10z" />
    <glyph glyph-name="quoteright" unicode="&#x2019;" horiz-adv-x="171" 
d="M49 492c-6 0 -9 4 -9 9v169c0 6 4 10 10 10h71c6 0 10 -4 10 -10v-73c0 -10 -2 -16 -8 -23l-62 -75c-4 -5 -7 -7 -12 -7z" />
    <glyph glyph-name="quotedblleft" unicode="&#x201c;" horiz-adv-x="299" 
d="M249 493h-71c-6 0 -10 4 -10 10v73c0 10 2 16 8 23l62 75c4 5 7 7 12 7c6 0 9 -4 9 -9v-169c0 -6 -4 -10 -10 -10zM121 493h-71c-6 0 -10 4 -10 10v73c0 10 2 16 8 23l62 75c4 5 7 7 12 7c6 0 9 -4 9 -9v-169c0 -6 -4 -10 -10 -10z" />
    <glyph glyph-name="quotedblright" unicode="&#x201d;" horiz-adv-x="299" 
d="M177 492c-6 0 -9 4 -9 9v169c0 6 4 10 10 10h71c6 0 10 -4 10 -10v-73c0 -10 -2 -16 -8 -23l-62 -75c-4 -5 -7 -7 -12 -7zM49 492c-6 0 -9 4 -9 9v169c0 6 4 10 10 10h71c6 0 10 -4 10 -10v-73c0 -10 -2 -16 -8 -23l-62 -75c-4 -5 -7 -7 -12 -7z" />
    <glyph glyph-name="quotesinglbase" unicode="&#x201a;" horiz-adv-x="171" 
d="M49 -93c-6 0 -9 4 -9 9v169c0 6 4 10 10 10h71c6 0 10 -4 10 -10v-73c0 -10 -2 -16 -8 -23l-62 -75c-4 -5 -7 -7 -12 -7z" />
    <glyph glyph-name="quotedblbase" unicode="&#x201e;" horiz-adv-x="299" 
d="M177 -94c-6 0 -9 4 -9 9v170c0 6 4 10 10 10h71c6 0 10 -4 10 -10v-74c0 -10 -2 -16 -8 -23l-62 -75c-4 -5 -7 -7 -12 -7zM49 -94c-6 0 -9 4 -9 9v170c0 6 4 10 10 10h71c6 0 10 -4 10 -10v-74c0 -10 -2 -16 -8 -23l-62 -75c-4 -5 -7 -7 -12 -7z" />
    <glyph glyph-name="guilsinglleft" unicode="&#x2039;" horiz-adv-x="284" 
d="M214 79l-177 178c-4 4 -4 10 0 14l177 178c4 4 10 2 10 -4v-80c0 -7 -3 -11 -10 -18l-78 -79c-3 -3 -3 -5 0 -8l78 -79c7 -7 10 -11 10 -18v-80c0 -6 -6 -8 -10 -4z" />
    <glyph glyph-name="guilsinglright" unicode="&#x203a;" horiz-adv-x="284" 
d="M70 79c-4 -4 -10 -2 -10 4v80c0 7 3 11 10 18l79 79c3 3 3 5 0 8l-79 79c-7 7 -10 11 -10 18v80c0 6 6 8 10 4l177 -178c4 -4 4 -10 0 -14z" />
    <glyph glyph-name="guillemotleft" unicode="&#xab;" horiz-adv-x="485" 
d="M415 79l-177 178c-4 4 -4 10 0 14l177 178c4 4 10 2 10 -4v-80c0 -7 -3 -11 -10 -18l-79 -79c-3 -3 -3 -5 0 -8l79 -79c7 -7 10 -11 10 -18v-80c0 -6 -6 -8 -10 -4zM214 79l-177 178c-4 4 -4 10 0 14l177 178c4 4 10 2 10 -4v-80c0 -7 -3 -11 -10 -18l-78 -79
c-3 -3 -3 -5 0 -8l78 -79c7 -7 10 -11 10 -18v-80c0 -6 -6 -8 -10 -4z" />
    <glyph glyph-name="guillemotright" unicode="&#xbb;" horiz-adv-x="485" 
d="M271 79c-4 -4 -10 -2 -10 4v80c0 7 3 11 10 18l78 79c3 3 3 5 0 8l-78 79c-7 7 -10 11 -10 18v80c0 6 6 8 10 4l177 -178c4 -4 4 -10 0 -14zM70 79c-4 -4 -10 -2 -10 4v80c0 7 3 11 10 18l79 79c3 3 3 5 0 8l-79 79c-7 7 -10 11 -10 18v80c0 6 6 8 10 4l177 -178
c4 -4 4 -10 0 -14z" />
    <glyph glyph-name="endash" unicode="&#x2013;" horiz-adv-x="408" 
d="M382 225h-356c-6 0 -10 4 -10 10v61c0 6 4 10 10 10h356c6 0 10 -4 10 -10v-61c0 -6 -4 -10 -10 -10z" />
    <glyph glyph-name="emdash" unicode="&#x2014;" horiz-adv-x="594" 
d="M568 225h-542c-6 0 -10 4 -10 10v61c0 6 4 10 10 10h542c6 0 10 -4 10 -10v-61c0 -6 -4 -10 -10 -10z" />
    <glyph glyph-name="bullet" unicode="&#x2022;" horiz-adv-x="443" 
d="M221 179c-74 0 -129 55 -129 129s55 129 129 129s130 -55 130 -129s-56 -129 -130 -129z" />
    <glyph glyph-name="periodcentered" unicode="&#xb7;" horiz-adv-x="197" 
d="M141 205h-85c-6 0 -10 4 -10 10v99c0 6 4 10 10 10h85c6 0 10 -4 10 -10v-99c0 -6 -4 -10 -10 -10z" />
    <glyph glyph-name="uni2219" unicode="&#x2219;" horiz-adv-x="197" 
d="M141 205h-85c-6 0 -10 4 -10 10v99c0 6 4 10 10 10h85c6 0 10 -4 10 -10v-99c0 -6 -4 -10 -10 -10z" />
    <glyph glyph-name="dagger" unicode="&#x2020;" horiz-adv-x="520" 
d="M299 -180h-78c-6 0 -10 4 -10 10v523c0 4 -2 6 -6 6h-114c-6 0 -10 4 -10 10v70c0 6 4 10 10 10h114c4 0 6 2 6 6v215c0 6 4 10 10 10h78c6 0 10 -4 10 -10v-215c0 -4 2 -6 6 -6h114c6 0 10 -4 10 -10v-70c0 -6 -4 -10 -10 -10h-114c-4 0 -6 -2 -6 -6v-523
c0 -6 -4 -10 -10 -10z" />
    <glyph glyph-name="daggerdbl" unicode="&#x2021;" horiz-adv-x="520" 
d="M299 -180h-78c-6 0 -10 4 -10 10v185c0 4 -2 6 -6 6h-114c-6 0 -10 4 -10 10v70c0 6 4 10 10 10h114c4 0 6 2 6 6v266c0 4 -2 6 -6 6h-114c-6 0 -10 4 -10 10v70c0 6 4 10 10 10h114c4 0 6 2 6 6v185c0 6 4 10 10 10h78c6 0 10 -4 10 -10v-185c0 -4 2 -6 6 -6h114
c6 0 10 -4 10 -10v-70c0 -6 -4 -10 -10 -10h-114c-4 0 -6 -2 -6 -6v-266c0 -4 2 -6 6 -6h114c6 0 10 -4 10 -10v-70c0 -6 -4 -10 -10 -10h-114c-4 0 -6 -2 -6 -6v-185c0 -6 -4 -10 -10 -10z" />
    <glyph glyph-name="section" unicode="&#xa7;" horiz-adv-x="467" 
d="M231 -189c-71 0 -112 32 -128 82c-6 18 -8 39 -8 66c0 5 3 9 8 9l73 7c5 0 8 -4 8 -9c0 -27 2 -36 5 -45c5 -17 19 -27 43 -27s37 10 43 27c3 9 5 18 5 40c0 21 -1 35 -5 47c-8 25 -34 43 -86 61c-51 18 -81 45 -96 89c-8 24 -13 53 -13 94c0 32 3 54 10 74
c12 37 35 62 69 75v1c-23 10 -42 30 -53 60c-6 21 -9 45 -9 75s2 50 8 68c17 52 61 84 130 84s110 -32 126 -82c6 -18 9 -39 9 -66c0 -5 -3 -9 -8 -9l-73 -7c-5 0 -9 4 -9 9c0 27 -1 36 -4 45c-5 17 -19 27 -40 27c-22 0 -36 -10 -41 -27c-3 -9 -4 -18 -4 -42
c0 -16 1 -30 5 -42c8 -25 30 -42 83 -60c51 -17 81 -44 96 -88c8 -25 12 -54 12 -95c0 -31 -3 -53 -9 -74c-12 -37 -35 -62 -69 -75v-1c24 -10 45 -29 55 -60c7 -20 10 -46 10 -77c0 -32 -3 -52 -9 -70c-17 -52 -62 -84 -134 -84zM234 150c28 0 45 12 53 38c4 13 6 29 6 64
s-2 52 -6 65c-8 25 -25 38 -53 38c-29 0 -45 -13 -54 -38c-4 -13 -6 -30 -6 -65s2 -51 6 -64c9 -26 25 -38 54 -38z" />
    <glyph glyph-name="paragraph" unicode="&#xb6;" horiz-adv-x="510" 
d="M440 -180h-61c-6 0 -10 4 -10 10v759c0 4 -2 6 -6 6h-54c-4 0 -6 -2 -6 -6v-759c0 -6 -4 -10 -10 -10h-61c-6 0 -10 4 -10 10v428c-97 8 -162 97 -162 211c0 116 74 211 194 211h186c6 0 10 -4 10 -10v-840c0 -6 -4 -10 -10 -10z" />
    <glyph glyph-name="brokenbar" unicode="&#xa6;" horiz-adv-x="281" 
d="M171 388h-61c-6 0 -10 4 -10 10v332c0 6 4 10 10 10h61c6 0 10 -4 10 -10v-332c0 -6 -4 -10 -10 -10zM171 -84h-61c-6 0 -10 4 -10 10v336c0 6 4 10 10 10h61c6 0 10 -4 10 -10v-336c0 -6 -4 -10 -10 -10z" />
    <glyph glyph-name="copyright" unicode="&#xa9;" horiz-adv-x="706" 
d="M353 -9c-145 0 -251 75 -293 203c-11 34 -19 79 -19 146s8 112 19 146c42 128 148 203 293 203s251 -75 293 -203c11 -34 19 -79 19 -146s-8 -112 -19 -146c-42 -128 -148 -203 -293 -203zM353 59c111 0 189 55 221 152c9 29 17 65 17 129s-8 100 -17 129
c-32 97 -110 152 -221 152s-189 -55 -221 -152c-9 -29 -17 -65 -17 -129s8 -100 17 -129c32 -97 110 -152 221 -152zM357 143c-58 0 -96 26 -113 76c-6 18 -9 43 -9 121s3 103 9 121c17 50 55 76 113 76c64 0 109 -37 116 -89c1 -5 -1 -9 -5 -10l-61 -11c-4 -1 -8 1 -9 5
c-6 23 -21 32 -41 32s-32 -8 -38 -27c-3 -9 -4 -17 -4 -97s1 -88 4 -97c6 -19 18 -27 38 -27s35 9 41 32c1 4 5 6 9 5l61 -11c4 -1 6 -5 5 -10c-7 -52 -52 -89 -116 -89z" />
    <glyph glyph-name="registered" unicode="&#xae;" horiz-adv-x="434" 
d="M217 303c-78 0 -136 38 -160 110c-6 20 -11 44 -11 80c0 35 5 59 11 79c24 72 82 110 160 110s136 -38 160 -110c6 -20 11 -44 11 -79c0 -36 -5 -60 -11 -80c-24 -72 -82 -110 -160 -110zM217 338c60 0 106 31 123 85c5 16 9 37 9 70c0 32 -4 53 -9 69
c-17 54 -63 85 -123 85c-61 0 -106 -31 -124 -85c-5 -16 -9 -37 -9 -69c0 -33 4 -54 9 -70c18 -54 63 -85 124 -85zM196 388h-25c-4 0 -7 2 -7 7v198c0 5 3 7 7 7h47c40 0 61 -19 61 -62c0 -27 -10 -44 -25 -55l29 -88c2 -5 -1 -7 -5 -7h-28c-4 0 -7 2 -9 7l-24 79h-10
c-3 0 -4 -2 -4 -5v-74c0 -5 -3 -7 -7 -7zM215 509c17 0 24 6 24 28c0 21 -7 26 -24 26h-8c-3 0 -4 -1 -4 -4v-45c0 -3 1 -5 4 -5h8z" />
    <glyph glyph-name="trademark" unicode="&#x2122;" horiz-adv-x="660" 
d="M590 286h-52c-6 0 -10 4 -10 10v202h-1l-39 -141c-2 -7 -6 -10 -12 -10h-29c-6 0 -10 3 -12 10l-40 141h-1v-202c0 -6 -4 -10 -10 -10h-52c-6 0 -10 4 -10 10v374c0 6 4 10 10 10h58c7 0 11 -4 13 -10l59 -217h2l56 217c2 6 6 10 13 10h57c6 0 10 -4 10 -10v-374
c0 -6 -4 -10 -10 -10zM197 286h-57c-6 0 -10 4 -10 10v306c0 4 -2 6 -6 6h-54c-6 0 -10 4 -10 10v52c0 6 4 10 10 10h197c6 0 10 -4 10 -10v-52c0 -6 -4 -10 -10 -10h-54c-4 0 -6 -2 -6 -6v-306c0 -6 -4 -10 -10 -10z" />
    <glyph glyph-name="currency" unicode="&#xa4;" 
d="M353 204l-34 -35c-4 -4 -10 -4 -14 0l-37 36c-20 -11 -44 -18 -69 -18c-26 0 -50 6 -70 18l-36 -36c-4 -4 -10 -4 -14 0l-35 35c-4 4 -4 9 0 14l37 37c-11 20 -17 43 -17 68s6 48 18 68l-37 37c-4 4 -4 10 0 14l35 35c4 4 10 4 14 0l36 -37c20 12 44 18 69 18
c26 0 50 -7 70 -18l37 37c4 4 10 4 14 0l34 -35c4 -4 4 -10 0 -14l-37 -37c11 -20 18 -43 18 -68c0 -26 -7 -50 -18 -70l36 -35c4 -5 4 -10 0 -14zM199 257c38 0 65 27 65 66s-27 66 -65 66s-64 -27 -64 -66s26 -66 64 -66z" />
    <glyph glyph-name="Euro" unicode="&#x20ac;" 
d="M222 -9c-75 0 -120 36 -140 96c-7 23 -11 45 -11 148c0 4 -2 6 -6 6h-36c-6 0 -10 4 -10 10v54c0 6 4 10 10 10h36c4 0 6 2 6 6v43c0 4 -2 6 -6 6h-36c-6 0 -10 4 -10 10v54c0 6 4 10 10 10h36c4 0 6 2 6 6c0 98 4 120 11 143c20 60 65 96 140 96c91 0 145 -58 152 -140
c1 -6 -1 -11 -7 -12l-77 -15c-6 -1 -11 2 -12 8c-5 41 -19 66 -54 66c-23 0 -39 -12 -46 -34c-4 -12 -5 -22 -5 -112c0 -4 2 -6 6 -6h130c6 0 10 -4 10 -10l-10 -54c-1 -7 -4 -10 -10 -10h-120c-4 0 -6 -2 -6 -6v-43c0 -4 2 -6 6 -6h115c6 0 10 -4 10 -10l-10 -54
c-1 -7 -4 -10 -10 -10h-105c-4 0 -6 -2 -6 -6c0 -95 1 -105 5 -117c7 -22 23 -34 46 -34c35 0 49 25 54 66c1 6 6 9 12 8l77 -15c6 -1 8 -6 7 -12c-7 -82 -61 -140 -152 -140z" />
    <glyph glyph-name="cent" unicode="&#xa2;" 
d="M212 -99h-17c-6 0 -10 4 -10 10v81c-67 4 -109 37 -127 94c-9 28 -12 46 -12 155s3 127 12 155c18 56 60 90 127 94v81c0 6 4 10 10 10h17c6 0 10 -4 10 -10v-81c75 -7 120 -51 130 -122c1 -6 -1 -11 -7 -12l-77 -15c-7 -1 -11 1 -12 7c-5 27 -15 41 -34 47v-308
c19 6 29 20 34 46c1 6 5 8 12 7l77 -14c6 -1 8 -6 7 -12c-10 -72 -55 -115 -130 -122v-81c0 -6 -4 -10 -10 -10zM153 116c5 -16 15 -26 32 -30v309c-17 -3 -27 -12 -32 -29c-4 -13 -5 -22 -5 -125s1 -112 5 -125z" />
    <glyph glyph-name="sterling" unicode="&#xa3;" 
d="M359 0h-302c-6 0 -10 4 -10 10v73c0 4 1 7 3 10c19 25 27 47 27 91v93c0 4 -2 6 -6 6h-29c-6 0 -10 4 -10 10v53c0 6 4 10 10 10h29c4 0 6 2 6 6v172c0 94 47 155 145 155c95 0 136 -60 144 -141c1 -6 -2 -11 -8 -12l-77 -13c-6 -1 -10 2 -11 8c-4 46 -16 65 -47 65
c-32 0 -44 -20 -44 -60v-174c0 -4 2 -6 6 -6h89c6 0 10 -4 10 -10v-53c0 -6 -4 -10 -10 -10h-89c-4 0 -6 -2 -6 -6v-93c0 -39 -7 -68 -25 -89v-2h205c6 0 10 -4 10 -10v-73c0 -6 -4 -10 -10 -10z" />
    <glyph glyph-name="florin" unicode="&#x192;" 
d="M338 325h-78l-46 -343c-15 -110 -60 -162 -165 -162h-21c-6 0 -10 4 -10 10v74c0 6 4 10 10 10h15c43 0 63 15 69 63l47 348h-67c-6 0 -10 4 -10 10v62c0 6 4 10 10 10h78l15 111c15 110 60 162 165 162h21c6 0 10 -4 10 -10v-74c0 -6 -4 -10 -10 -10h-15
c-43 0 -63 -15 -69 -63l-16 -116h67c6 0 10 -4 10 -10v-62c0 -6 -4 -10 -10 -10z" />
    <glyph glyph-name="yen" unicode="&#xa5;" 
d="M240 0h-81c-6 0 -10 4 -10 10v110c0 4 -2 6 -6 6h-88c-6 0 -10 4 -10 10v54c0 6 4 10 10 10h88c4 0 6 2 6 6v43c0 4 -2 6 -6 6h-88c-6 0 -10 4 -10 10v54c0 6 4 10 10 10h78v3l-109 338c-2 6 0 10 8 10h85c7 0 10 -3 12 -10l71 -263h3l69 263c2 7 5 10 12 10h83
c8 0 10 -4 8 -10l-109 -338v-3h77c6 0 10 -4 10 -10v-54c0 -6 -4 -10 -10 -10h-87c-4 0 -6 -2 -6 -6v-43c0 -4 2 -6 6 -6h87c6 0 10 -4 10 -10v-54c0 -6 -4 -10 -10 -10h-87c-4 0 -6 -2 -6 -6v-110c0 -6 -4 -10 -10 -10z" />
    <glyph glyph-name="ordfeminine" unicode="&#xaa;" horiz-adv-x="282" 
d="M231 392h-45c-6 0 -10 4 -10 10v18h-2c-8 -19 -31 -32 -58 -32c-45 0 -76 29 -76 85c0 69 41 98 99 98h31c4 0 6 2 6 6v7c0 30 -15 41 -44 41c-14 0 -33 -6 -52 -17c-6 -3 -11 -1 -13 5l-16 38c-2 5 0 9 6 13c19 12 51 24 86 24c64 0 98 -28 98 -101v-185
c0 -6 -4 -10 -10 -10zM138 445c21 0 38 13 38 37v30c0 4 -2 6 -6 6h-23c-28 0 -42 -14 -42 -37c0 -24 13 -36 33 -36z" />
    <glyph glyph-name="ordmasculine" unicode="&#xba;" horiz-adv-x="287" 
d="M144 386c-48 0 -83 21 -97 63c-5 15 -7 29 -7 88s2 73 7 88c14 42 49 63 97 63c47 0 82 -21 96 -63c5 -15 7 -29 7 -88s-2 -73 -7 -88c-14 -42 -49 -63 -96 -63zM144 449c16 0 28 8 32 21c3 9 4 18 4 67s-1 58 -4 67c-4 13 -16 21 -32 21c-17 0 -29 -8 -33 -21
c-3 -9 -4 -18 -4 -67s1 -58 4 -67c4 -13 16 -21 33 -21z" />
    <glyph glyph-name="onesuperior" unicode="&#xb9;" horiz-adv-x="281" 
d="M191 430h-61c-6 0 -10 4 -10 10v307h-1l-57 -32c-7 -4 -12 -1 -12 5v61c0 6 3 10 8 13l60 37c5 3 9 5 15 5h58c6 0 10 -4 10 -10v-386c0 -6 -4 -10 -10 -10z" />
    <glyph glyph-name="twosuperior" unicode="&#xb2;" horiz-adv-x="281" 
d="M238 430h-193c-6 0 -10 4 -10 10v48c0 6 1 10 5 16l111 169c12 17 17 32 17 54c0 20 -1 25 -3 30c-4 9 -12 16 -27 16c-14 0 -23 -7 -26 -16c-2 -5 -3 -10 -3 -40c0 -8 -5 -11 -12 -10l-54 6c-7 1 -10 4 -10 12c0 28 2 41 6 53c13 41 49 66 101 66c53 0 89 -25 102 -66
c4 -12 6 -25 6 -50c0 -35 -8 -63 -26 -90l-90 -136v-1h106c6 0 10 -4 10 -10v-51c0 -6 -4 -10 -10 -10z" />
    <glyph glyph-name="threesuperior" unicode="&#xb3;" horiz-adv-x="281" 
d="M139 422c-52 0 -88 24 -101 65c-4 13 -6 26 -6 40c0 8 3 11 10 12l54 6c7 1 12 -3 12 -10c0 -16 1 -21 3 -26c3 -9 12 -16 26 -16c15 0 23 7 27 16c2 5 3 10 3 37s-1 34 -3 40c-4 13 -14 17 -27 17h-8c-6 0 -10 4 -10 10v52c0 6 4 10 10 10h7c14 0 24 4 29 17
c2 6 2 11 2 34c0 21 -1 26 -3 31c-4 9 -12 16 -27 16c-14 0 -23 -7 -26 -16c-2 -5 -3 -10 -3 -26c0 -7 -5 -11 -12 -10l-54 6c-7 1 -10 4 -10 12c0 14 2 27 6 40c13 41 49 65 101 65c53 0 89 -24 102 -65c4 -13 6 -26 6 -53c0 -28 -1 -37 -4 -46c-6 -19 -18 -31 -36 -38v-1
c19 -11 30 -24 35 -40c4 -11 5 -22 5 -55s-2 -46 -6 -59c-13 -41 -49 -65 -102 -65z" />
    <glyph glyph-name="fraction" unicode="&#x2044;" horiz-adv-x="143" 
d="M-31 -9h-54c-6 0 -9 4 -7 10l252 678c3 7 7 10 13 10h54c6 0 9 -4 7 -10l-252 -678c-3 -7 -7 -10 -13 -10z" />
    <glyph glyph-name="uni2215" unicode="&#x2215;" horiz-adv-x="143" 
d="M-31 -9h-54c-6 0 -9 4 -7 10l252 678c3 7 7 10 13 10h54c6 0 9 -4 7 -10l-252 -678c-3 -7 -7 -10 -13 -10z" />
    <glyph glyph-name="onehalf" unicode="&#xbd;" horiz-adv-x="758" 
d="M220 274h-61c-6 0 -10 4 -10 10v307h-1l-57 -32c-7 -4 -12 -1 -12 5v61c0 6 3 10 8 13l60 37c5 3 9 5 15 5h58c6 0 10 -4 10 -10v-386c0 -6 -4 -10 -10 -10zM667 0h-193c-6 0 -10 4 -10 10v48c0 6 1 10 5 16l111 169c12 17 17 32 17 54c0 20 -1 25 -3 30
c-4 9 -12 16 -27 16c-14 0 -23 -7 -26 -16c-2 -5 -3 -10 -3 -40c0 -8 -5 -11 -12 -10l-54 6c-7 1 -10 4 -10 12c0 28 2 41 6 53c13 41 49 66 101 66c53 0 89 -25 102 -66c4 -12 6 -25 6 -50c0 -35 -8 -63 -26 -90l-90 -136v-1h106c6 0 10 -4 10 -10v-51c0 -6 -4 -10 -10 -10
zM256 -9h-54c-6 0 -9 4 -7 10l252 678c3 7 7 10 13 10h54c6 0 9 -4 7 -10l-252 -678c-3 -7 -7 -10 -13 -10z" />
    <glyph glyph-name="onethird" unicode="&#x2153;" horiz-adv-x="758" 
d="M220 274h-61c-6 0 -10 4 -10 10v307h-1l-57 -32c-7 -4 -12 -1 -12 5v61c0 6 3 10 8 13l60 37c5 3 9 5 15 5h58c6 0 10 -4 10 -10v-386c0 -6 -4 -10 -10 -10zM256 -9h-54c-6 0 -9 4 -7 10l252 678c3 7 7 10 13 10h54c6 0 9 -4 7 -10l-252 -678c-3 -7 -7 -10 -13 -10z
M569 -8c-52 0 -88 24 -101 65c-4 13 -6 26 -6 40c0 8 3 11 10 12l54 6c7 1 12 -3 12 -10c0 -16 1 -21 3 -26c3 -9 12 -16 26 -16c15 0 23 7 27 16c2 5 3 10 3 37s-1 34 -3 40c-4 13 -14 17 -27 17h-8c-6 0 -10 4 -10 10v52c0 6 4 10 10 10h7c14 0 24 4 29 17c2 6 2 11 2 34
c0 21 -1 26 -3 31c-4 9 -12 16 -27 16c-14 0 -23 -7 -26 -16c-2 -5 -3 -10 -3 -26c0 -7 -5 -11 -12 -10l-54 6c-7 1 -10 4 -10 12c0 14 2 27 6 40c13 41 49 65 101 65c53 0 89 -24 102 -65c4 -13 6 -26 6 -53c0 -28 -1 -37 -4 -46c-6 -19 -18 -31 -36 -38v-1
c19 -11 30 -24 35 -40c4 -11 5 -22 5 -55s-2 -46 -6 -59c-13 -41 -49 -65 -102 -65z" />
    <glyph glyph-name="onequarter" unicode="&#xbc;" horiz-adv-x="740" 
d="M220 274h-61c-6 0 -10 4 -10 10v307h-1l-57 -32c-7 -4 -12 -1 -12 5v61c0 6 3 10 8 13l60 37c5 3 9 5 15 5h58c6 0 10 -4 10 -10v-386c0 -6 -4 -10 -10 -10zM619 0h-55c-6 0 -10 4 -10 10v36c0 4 -2 6 -6 6h-123c-6 0 -10 4 -10 10v50c0 6 1 10 3 16l88 268
c2 6 6 10 12 10h62c6 0 9 -4 7 -10l-89 -271v-3h50c4 0 6 2 6 6v95c0 6 4 10 10 10h55c6 0 10 -4 10 -10v-95c0 -4 1 -6 5 -6h15c6 0 10 -4 10 -10v-50c0 -6 -4 -10 -10 -10h-14c-4 0 -6 -2 -6 -6v-36c0 -6 -4 -10 -10 -10zM256 -9h-54c-6 0 -9 4 -7 10l252 678
c3 7 7 10 13 10h54c6 0 9 -4 7 -10l-252 -678c-3 -7 -7 -10 -13 -10z" />
    <glyph glyph-name="oneeighth" unicode="&#x215b;" horiz-adv-x="762" 
d="M220 274h-61c-6 0 -10 4 -10 10v307h-1l-57 -32c-7 -4 -12 -1 -12 5v61c0 6 3 10 8 13l60 37c5 3 9 5 15 5h58c6 0 10 -4 10 -10v-386c0 -6 -4 -10 -10 -10zM572 -8c-52 0 -91 25 -104 66c-4 13 -6 25 -6 62c0 26 2 39 5 49c5 16 15 31 31 43v1c-16 12 -26 27 -31 43
c-3 10 -5 23 -5 39c0 28 2 40 6 53c13 41 52 66 104 66c53 0 91 -25 104 -66c4 -13 6 -25 6 -53c0 -16 -2 -29 -5 -39c-5 -16 -14 -31 -30 -43v-1c16 -12 25 -27 30 -43c3 -10 5 -23 5 -49c0 -37 -2 -49 -6 -62c-13 -41 -51 -66 -104 -66zM572 247c15 0 23 8 26 17
c3 5 4 10 4 31s-1 26 -4 31c-3 9 -11 17 -26 17c-14 0 -23 -8 -26 -17c-2 -5 -3 -10 -3 -31s1 -26 3 -31c3 -9 12 -17 26 -17zM572 63c15 0 23 8 26 17c3 5 4 11 4 40c0 28 -1 34 -4 39c-3 9 -11 17 -26 17c-14 0 -23 -8 -26 -17c-2 -5 -3 -11 -3 -39c0 -29 1 -35 3 -40
c3 -9 12 -17 26 -17zM256 -9h-54c-6 0 -9 4 -7 10l252 678c3 7 7 10 13 10h54c6 0 9 -4 7 -10l-252 -678c-3 -7 -7 -10 -13 -10z" />
    <glyph glyph-name="twothirds" unicode="&#x2154;" horiz-adv-x="816" 
d="M284 274h-193c-6 0 -10 4 -10 10v48c0 6 1 10 5 16l111 169c12 17 17 32 17 54c0 20 -1 25 -3 30c-4 9 -12 16 -27 16c-14 0 -23 -7 -26 -16c-2 -5 -3 -10 -3 -40c0 -8 -5 -11 -12 -10l-54 6c-7 1 -10 4 -10 12c0 28 2 41 6 53c13 41 49 66 101 66c53 0 89 -25 102 -66
c4 -12 6 -25 6 -50c0 -35 -8 -63 -26 -90l-90 -136v-1h106c6 0 10 -4 10 -10v-51c0 -6 -4 -10 -10 -10zM313 -9h-54c-6 0 -9 4 -7 10l252 678c3 7 7 10 13 10h54c6 0 9 -4 7 -10l-252 -678c-3 -7 -7 -10 -13 -10zM627 -8c-52 0 -88 24 -101 65c-4 13 -6 26 -6 40
c0 8 3 11 10 12l54 6c7 1 12 -3 12 -10c0 -16 1 -21 3 -26c3 -9 12 -16 26 -16c15 0 23 7 27 16c2 5 3 10 3 37s-1 34 -3 40c-4 13 -14 17 -27 17h-8c-6 0 -10 4 -10 10v52c0 6 4 10 10 10h7c14 0 24 4 29 17c2 6 2 11 2 34c0 21 -1 26 -3 31c-4 9 -12 16 -27 16
c-14 0 -23 -7 -26 -16c-2 -5 -3 -10 -3 -26c0 -7 -5 -11 -12 -10l-54 6c-7 1 -10 4 -10 12c0 14 2 27 6 40c13 41 49 65 101 65c53 0 89 -24 102 -65c4 -13 6 -26 6 -53c0 -28 -1 -37 -4 -46c-6 -19 -18 -31 -36 -38v-1c19 -11 30 -24 35 -40c4 -11 5 -22 5 -55
s-2 -46 -6 -59c-13 -41 -49 -65 -102 -65z" />
    <glyph glyph-name="threequarters" unicode="&#xbe;" horiz-adv-x="779" 
d="M658 0h-55c-6 0 -10 4 -10 10v36c0 4 -2 6 -6 6h-123c-6 0 -10 4 -10 10v50c0 6 1 10 3 16l88 268c2 6 6 10 12 10h62c6 0 9 -4 7 -10l-89 -271v-3h50c4 0 6 2 6 6v95c0 6 4 10 10 10h55c6 0 10 -4 10 -10v-95c0 -4 1 -6 5 -6h15c6 0 10 -4 10 -10v-50
c0 -6 -4 -10 -10 -10h-14c-4 0 -6 -2 -6 -6v-36c0 -6 -4 -10 -10 -10zM296 -9h-54c-6 0 -9 4 -7 10l252 678c3 7 7 10 13 10h54c6 0 9 -4 7 -10l-252 -678c-3 -7 -7 -10 -13 -10zM186 266c-52 0 -88 24 -101 65c-4 13 -6 26 -6 40c0 8 3 11 10 12l54 6c7 1 12 -3 12 -10
c0 -16 1 -21 3 -26c3 -9 12 -16 26 -16c15 0 23 7 27 16c2 5 3 10 3 37s-1 34 -3 40c-4 13 -14 17 -27 17h-8c-6 0 -10 4 -10 10v52c0 6 4 10 10 10h7c14 0 24 4 29 17c2 6 2 11 2 34c0 21 -1 26 -3 31c-4 9 -12 16 -27 16c-14 0 -23 -7 -26 -16c-2 -5 -3 -10 -3 -26
c0 -7 -5 -11 -12 -10l-54 6c-7 1 -10 4 -10 12c0 14 2 27 6 40c13 41 49 65 101 65c53 0 89 -24 102 -65c4 -13 6 -26 6 -53c0 -28 -1 -37 -4 -46c-6 -19 -18 -31 -36 -38v-1c19 -11 30 -24 35 -40c4 -11 5 -22 5 -55s-2 -46 -6 -59c-13 -41 -49 -65 -102 -65z" />
    <glyph glyph-name="threeeighths" unicode="&#x215c;" horiz-adv-x="802" 
d="M611 -8c-52 0 -91 25 -104 66c-4 13 -6 25 -6 62c0 26 2 39 5 49c5 16 15 31 31 43v1c-16 12 -26 27 -31 43c-3 10 -5 23 -5 39c0 28 2 40 6 53c13 41 52 66 104 66c53 0 91 -25 104 -66c4 -13 6 -25 6 -53c0 -16 -2 -29 -5 -39c-5 -16 -14 -31 -30 -43v-1
c16 -12 25 -27 30 -43c3 -10 5 -23 5 -49c0 -37 -2 -49 -6 -62c-13 -41 -51 -66 -104 -66zM611 247c15 0 23 8 26 17c3 5 4 10 4 31s-1 26 -4 31c-3 9 -11 17 -26 17c-14 0 -23 -8 -26 -17c-2 -5 -3 -10 -3 -31s1 -26 3 -31c3 -9 12 -17 26 -17zM611 63c15 0 23 8 26 17
c3 5 4 11 4 40c0 28 -1 34 -4 39c-3 9 -11 17 -26 17c-14 0 -23 -8 -26 -17c-2 -5 -3 -11 -3 -39c0 -29 1 -35 3 -40c3 -9 12 -17 26 -17zM296 -9h-54c-6 0 -9 4 -7 10l252 678c3 7 7 10 13 10h54c6 0 9 -4 7 -10l-252 -678c-3 -7 -7 -10 -13 -10zM186 266
c-52 0 -88 24 -101 65c-4 13 -6 26 -6 40c0 8 3 11 10 12l54 6c7 1 12 -3 12 -10c0 -16 1 -21 3 -26c3 -9 12 -16 26 -16c15 0 23 7 27 16c2 5 3 10 3 37s-1 34 -3 40c-4 13 -14 17 -27 17h-8c-6 0 -10 4 -10 10v52c0 6 4 10 10 10h7c14 0 24 4 29 17c2 6 2 11 2 34
c0 21 -1 26 -3 31c-4 9 -12 16 -27 16c-14 0 -23 -7 -26 -16c-2 -5 -3 -10 -3 -26c0 -7 -5 -11 -12 -10l-54 6c-7 1 -10 4 -10 12c0 14 2 27 6 40c13 41 49 65 101 65c53 0 89 -24 102 -65c4 -13 6 -26 6 -53c0 -28 -1 -37 -4 -46c-6 -19 -18 -31 -36 -38v-1
c19 -11 30 -24 35 -40c4 -11 5 -22 5 -55s-2 -46 -6 -59c-13 -41 -49 -65 -102 -65z" />
    <glyph glyph-name="fiveeighths" unicode="&#x215d;" horiz-adv-x="802" 
d="M611 -8c-52 0 -91 25 -104 66c-4 13 -6 25 -6 62c0 26 2 39 5 49c5 16 15 31 31 43v1c-16 12 -26 27 -31 43c-3 10 -5 23 -5 39c0 28 2 40 6 53c13 41 52 66 104 66c53 0 91 -25 104 -66c4 -13 6 -25 6 -53c0 -16 -2 -29 -5 -39c-5 -16 -14 -31 -30 -43v-1
c16 -12 25 -27 30 -43c3 -10 5 -23 5 -49c0 -37 -2 -49 -6 -62c-13 -41 -51 -66 -104 -66zM611 247c15 0 23 8 26 17c3 5 4 10 4 31s-1 26 -4 31c-3 9 -11 17 -26 17c-14 0 -23 -8 -26 -17c-2 -5 -3 -10 -3 -31s1 -26 3 -31c3 -9 12 -17 26 -17zM611 63c15 0 23 8 26 17
c3 5 4 11 4 40c0 28 -1 34 -4 39c-3 9 -11 17 -26 17c-14 0 -23 -8 -26 -17c-2 -5 -3 -11 -3 -39c0 -29 1 -35 3 -40c3 -9 12 -17 26 -17zM296 -9h-54c-6 0 -9 4 -7 10l252 678c3 7 7 10 13 10h54c6 0 9 -4 7 -10l-252 -678c-3 -7 -7 -10 -13 -10zM186 266
c-52 0 -89 24 -102 65c-4 12 -5 25 -5 31c0 8 3 11 10 12l54 6c7 1 12 -2 12 -10c0 -7 1 -12 3 -17c3 -9 12 -16 26 -16c15 0 23 7 27 16c2 5 3 10 3 51c0 39 -1 45 -3 50c-4 8 -12 16 -27 16c-12 0 -19 -5 -25 -14c-6 -8 -10 -10 -16 -10h-51c-6 0 -10 4 -10 10v214
c0 6 4 10 10 10h190c6 0 10 -4 10 -10v-51c0 -6 -4 -10 -10 -10h-120c-4 0 -6 -2 -6 -6v-76h1c10 9 25 14 46 14c44 0 73 -17 86 -58c4 -13 5 -32 5 -79s-2 -60 -6 -73c-13 -41 -49 -65 -102 -65z" />
    <glyph glyph-name="seveneighths" unicode="&#x215e;" horiz-adv-x="757" 
d="M566 -8c-52 0 -91 25 -104 66c-4 13 -6 25 -6 62c0 26 2 39 5 49c5 16 15 31 31 43v1c-16 12 -26 27 -31 43c-3 10 -5 23 -5 39c0 28 2 40 6 53c13 41 52 66 104 66c53 0 91 -25 104 -66c4 -13 6 -25 6 -53c0 -16 -2 -29 -5 -39c-5 -16 -14 -31 -30 -43v-1
c16 -12 25 -27 30 -43c3 -10 5 -23 5 -49c0 -37 -2 -49 -6 -62c-13 -41 -51 -66 -104 -66zM566 247c15 0 23 8 26 17c3 5 4 10 4 31s-1 26 -4 31c-3 9 -11 17 -26 17c-14 0 -23 -8 -26 -17c-2 -5 -3 -10 -3 -31s1 -26 3 -31c3 -9 12 -17 26 -17zM566 63c15 0 23 8 26 17
c3 5 4 11 4 40c0 28 -1 34 -4 39c-3 9 -11 17 -26 17c-14 0 -23 -8 -26 -17c-2 -5 -3 -11 -3 -39c0 -29 1 -35 3 -40c3 -9 12 -17 26 -17zM176 274h-62c-6 0 -10 4 -8 10l106 322v3h-50c-4 0 -6 -2 -6 -6v-32c0 -6 -4 -10 -10 -10h-57c-6 0 -10 4 -10 10v99c0 6 4 10 10 10
h196c6 0 10 -4 10 -10v-50c0 -6 -1 -12 -3 -18l-103 -318c-2 -6 -6 -10 -13 -10zM250 -9h-54c-6 0 -9 4 -7 10l252 678c3 7 7 10 13 10h54c6 0 9 -4 7 -10l-252 -678c-3 -7 -7 -10 -13 -10z" />
    <glyph glyph-name="perthousand" unicode="&#x2030;" horiz-adv-x="932" 
d="M234 -9h-54c-6 0 -9 4 -7 10l252 678c3 7 7 10 13 10h55c6 0 9 -4 7 -10l-253 -678c-3 -7 -7 -10 -13 -10zM161 328c-50 0 -82 23 -94 61c-6 21 -7 34 -7 118s1 98 7 118c12 38 44 61 94 61c49 0 81 -23 93 -61c7 -20 8 -34 8 -118s-1 -97 -8 -118
c-12 -38 -44 -61 -93 -61zM161 392c13 0 21 7 25 17c2 6 3 16 3 98c0 83 -1 92 -3 98c-4 10 -12 17 -25 17c-14 0 -22 -7 -25 -17c-2 -6 -3 -15 -3 -98c0 -82 1 -92 3 -98c3 -10 11 -17 25 -17zM771 -6c-50 0 -81 23 -93 61c-7 20 -8 34 -8 118s1 97 8 118
c12 38 43 61 93 61c49 0 81 -23 93 -61c7 -21 8 -34 8 -118s-1 -98 -8 -118c-12 -38 -44 -61 -93 -61zM512 -6c-49 0 -81 23 -93 61c-7 20 -8 34 -8 118s1 97 8 118c12 38 44 61 93 61c50 0 82 -23 93 -61c7 -21 8 -34 8 -118s-1 -98 -8 -118c-11 -38 -43 -61 -93 -61z
M771 58c13 0 22 7 25 17c2 6 3 15 3 98c0 82 -1 92 -3 98c-3 10 -12 17 -25 17c-14 0 -22 -7 -25 -17c-2 -6 -3 -16 -3 -98c0 -83 1 -92 3 -98c3 -10 11 -17 25 -17zM512 58c14 0 22 7 25 17c2 6 3 15 3 98c0 82 -1 92 -3 98c-3 10 -11 17 -25 17c-13 0 -22 -7 -25 -17
c-2 -6 -3 -16 -3 -98c0 -83 1 -92 3 -98c3 -10 12 -17 25 -17z" />
    <glyph glyph-name="minus" unicode="&#x2212;" 
d="M352 231h-306c-6 0 -10 4 -10 10v70c0 6 4 10 10 10h306c6 0 10 -4 10 -10v-70c0 -6 -4 -10 -10 -10z" />
    <glyph glyph-name="plusminus" unicode="&#xb1;" 
d="M236 137h-73c-6 0 -10 4 -10 10v102c0 4 -2 6 -6 6h-101c-6 0 -10 4 -10 10v70c0 6 4 10 10 10h101c4 0 6 2 6 6v102c0 6 4 10 10 10h73c6 0 10 -4 10 -10v-102c0 -4 2 -6 6 -6h100c6 0 10 -4 10 -10v-70c0 -6 -4 -10 -10 -10h-100c-4 0 -6 -2 -6 -6v-102
c0 -6 -4 -10 -10 -10zM352 0h-306c-6 0 -10 4 -10 10v69c0 6 4 10 10 10h306c6 0 10 -4 10 -10v-69c0 -6 -4 -10 -10 -10z" />
    <glyph glyph-name="multiply" unicode="&#xd7;" 
d="M342 180l-46 -47c-4 -4 -10 -4 -14 0l-79 79c-3 2 -5 2 -8 0l-78 -79c-4 -4 -10 -4 -14 0l-47 47c-4 4 -4 10 0 14l79 78c2 3 2 5 0 8l-79 78c-4 4 -4 10 0 14l47 47c4 4 10 4 14 0l78 -79c3 -2 5 -2 8 0l79 79c4 4 10 4 14 0l46 -47c4 -4 4 -10 0 -14l-79 -78
c-2 -3 -2 -5 0 -8l79 -78c4 -4 4 -10 0 -14z" />
    <glyph glyph-name="divide" unicode="&#xf7;" 
d="M199 382c-36 0 -62 25 -62 62c0 36 26 61 62 61s62 -25 62 -61c0 -37 -26 -62 -62 -62zM352 231h-306c-6 0 -10 4 -10 10v70c0 6 4 10 10 10h306c6 0 10 -4 10 -10v-70c0 -6 -4 -10 -10 -10zM199 47c-36 0 -62 25 -62 61c0 37 26 62 62 62s62 -25 62 -62
c0 -36 -26 -61 -62 -61z" />
    <glyph glyph-name="notequal" unicode="&#x2260;" 
d="M352 328h-91l-48 -104h139c6 0 10 -4 10 -10v-69c0 -6 -4 -10 -10 -10h-181l-34 -74c-3 -7 -7 -10 -13 -10h-55c-7 0 -10 4 -8 10l34 74h-49c-6 0 -10 4 -10 10v69c0 6 4 10 10 10h91l48 104h-139c-6 0 -10 4 -10 10v69c0 6 4 10 10 10h181l35 74c3 7 7 10 13 10h55
c7 0 10 -4 7 -10l-35 -74h50c6 0 10 -4 10 -10v-69c0 -6 -4 -10 -10 -10z" />
    <glyph glyph-name="approxequal" unicode="&#x2248;" horiz-adv-x="414" 
d="M269 306c-32 0 -53 13 -71 25c-14 10 -28 20 -45 20c-20 0 -30 -8 -49 -40c-3 -5 -8 -6 -14 -3l-47 25c-6 3 -8 8 -4 15c31 57 61 84 106 84c33 0 53 -13 71 -25c14 -10 28 -21 45 -21c21 0 31 9 50 41c3 5 8 6 14 3l46 -25c6 -3 8 -8 4 -15c-30 -57 -60 -84 -106 -84z
M269 122c-32 0 -53 13 -71 25c-14 10 -28 20 -45 20c-20 0 -30 -8 -49 -40c-3 -5 -8 -6 -14 -3l-47 25c-6 3 -8 8 -4 15c31 57 61 84 106 84c33 0 53 -13 71 -25c14 -10 28 -20 45 -20c21 0 31 8 50 40c3 5 8 6 14 3l46 -25c6 -3 8 -8 4 -15c-30 -57 -60 -84 -106 -84z" />
    <glyph glyph-name="lessequal" unicode="&#x2264;" 
d="M352 127l-306 123c-6 2 -10 7 -10 14v62c0 7 4 12 10 14l306 123c6 2 10 -1 10 -7v-74c0 -6 -3 -10 -10 -13l-191 -73v-2l191 -73c7 -3 10 -7 10 -13v-74c0 -6 -4 -9 -10 -7zM352 0h-306c-6 0 -10 4 -10 10v69c0 6 4 10 10 10h306c6 0 10 -4 10 -10v-69
c0 -6 -4 -10 -10 -10z" />
    <glyph glyph-name="greaterequal" unicode="&#x2265;" 
d="M46 127c-6 -2 -10 1 -10 7v74c0 6 3 10 10 13l192 73v2l-192 73c-7 3 -10 7 -10 13v74c0 6 4 9 10 7l306 -123c6 -2 10 -7 10 -14v-62c0 -7 -4 -12 -10 -14zM352 0h-306c-6 0 -10 4 -10 10v69c0 6 4 10 10 10h306c6 0 10 -4 10 -10v-69c0 -6 -4 -10 -10 -10z" />
    <glyph glyph-name="logicalnot" unicode="&#xac;" 
d="M352 144h-73c-6 0 -10 4 -10 10v71c0 4 -2 6 -6 6h-217c-6 0 -10 4 -10 10v70c0 6 4 10 10 10h306c6 0 10 -4 10 -10v-157c0 -6 -4 -10 -10 -10z" />
    <glyph glyph-name="Delta" unicode="&#x394;" horiz-adv-x="421" 
d="M401 0h-381c-6 0 -9 4 -8 10l147 660c2 6 5 10 11 10h84c6 0 10 -4 11 -10l144 -660c1 -6 -2 -10 -8 -10zM282 98c4 0 6 2 5 6l-74 386h-3l-76 -386c-1 -4 1 -6 5 -6h143z" />
    <glyph glyph-name="Delta" unicode="&#x2206;" horiz-adv-x="421" 
d="M401 0h-381c-6 0 -9 4 -8 10l147 660c2 6 5 10 11 10h84c6 0 10 -4 11 -10l144 -660c1 -6 -2 -10 -8 -10zM282 98c4 0 6 2 5 6l-74 386h-3l-76 -386c-1 -4 1 -6 5 -6h143z" />
    <glyph glyph-name="uni0394" horiz-adv-x="421" 
d="M401 0h-381c-6 0 -9 4 -8 10l147 660c2 6 5 10 11 10h84c6 0 10 -4 11 -10l144 -660c1 -6 -2 -10 -8 -10zM282 98c4 0 6 2 5 6l-74 386h-3l-76 -386c-1 -4 1 -6 5 -6h143z" />
    <glyph glyph-name="Omega" unicode="&#x3a9;" horiz-adv-x="429" 
d="M388 0h-135c-6 0 -10 4 -10 10v73c0 6 2 10 9 15c26 21 29 39 29 242c0 185 -1 193 -7 212c-7 23 -29 40 -59 40c-31 0 -53 -17 -60 -40c-6 -19 -7 -27 -7 -212c0 -203 3 -221 29 -242c7 -5 9 -9 9 -15v-73c0 -6 -4 -10 -10 -10h-135c-6 0 -10 4 -10 10v78
c0 6 4 10 10 10h37v1c-29 28 -39 51 -39 241c0 189 3 211 13 241c22 67 79 108 163 108c83 0 140 -41 162 -108c10 -30 13 -52 13 -241c0 -190 -10 -213 -39 -241v-1h37c6 0 10 -4 10 -10v-78c0 -6 -4 -10 -10 -10z" />
    <glyph glyph-name="Omega" unicode="&#x2126;" horiz-adv-x="429" 
d="M388 0h-135c-6 0 -10 4 -10 10v73c0 6 2 10 9 15c26 21 29 39 29 242c0 185 -1 193 -7 212c-7 23 -29 40 -59 40c-31 0 -53 -17 -60 -40c-6 -19 -7 -27 -7 -212c0 -203 3 -221 29 -242c7 -5 9 -9 9 -15v-73c0 -6 -4 -10 -10 -10h-135c-6 0 -10 4 -10 10v78
c0 6 4 10 10 10h37v1c-29 28 -39 51 -39 241c0 189 3 211 13 241c22 67 79 108 163 108c83 0 140 -41 162 -108c10 -30 13 -52 13 -241c0 -190 -10 -213 -39 -241v-1h37c6 0 10 -4 10 -10v-78c0 -6 -4 -10 -10 -10z" />
    <glyph glyph-name="uni03A9" horiz-adv-x="429" 
d="M388 0h-135c-6 0 -10 4 -10 10v73c0 6 2 10 9 15c26 21 29 39 29 242c0 185 -1 193 -7 212c-7 23 -29 40 -59 40c-31 0 -53 -17 -60 -40c-6 -19 -7 -27 -7 -212c0 -203 3 -221 29 -242c7 -5 9 -9 9 -15v-73c0 -6 -4 -10 -10 -10h-135c-6 0 -10 4 -10 10v78
c0 6 4 10 10 10h37v1c-29 28 -39 51 -39 241c0 189 3 211 13 241c22 67 79 108 163 108c83 0 140 -41 162 -108c10 -30 13 -52 13 -241c0 -190 -10 -213 -39 -241v-1h37c6 0 10 -4 10 -10v-78c0 -6 -4 -10 -10 -10z" />
    <glyph glyph-name="mu" unicode="&#xb5;" horiz-adv-x="407" 
d="M346 0h-82c-6 0 -10 4 -10 10v38h-1c-12 -37 -40 -56 -76 -56c-9 0 -20 2 -24 6v-168c0 -6 -4 -10 -10 -10h-82c-6 0 -10 4 -10 10v642c0 6 4 10 10 10h82c6 0 10 -4 10 -10v-317c0 -47 17 -70 51 -70c32 0 50 23 50 70v317c0 6 4 10 10 10h82c6 0 10 -4 10 -10v-462
c0 -6 -4 -10 -10 -10z" />
    <glyph glyph-name="mu" unicode="&#x3bc;" horiz-adv-x="407" 
d="M346 0h-82c-6 0 -10 4 -10 10v38h-1c-12 -37 -40 -56 -76 -56c-9 0 -20 2 -24 6v-168c0 -6 -4 -10 -10 -10h-82c-6 0 -10 4 -10 10v642c0 6 4 10 10 10h82c6 0 10 -4 10 -10v-317c0 -47 17 -70 51 -70c32 0 50 23 50 70v317c0 6 4 10 10 10h82c6 0 10 -4 10 -10v-462
c0 -6 -4 -10 -10 -10z" />
    <glyph glyph-name="uni03BC" horiz-adv-x="407" 
d="M346 0h-82c-6 0 -10 4 -10 10v38h-1c-12 -37 -40 -56 -76 -56c-9 0 -20 2 -24 6v-168c0 -6 -4 -10 -10 -10h-82c-6 0 -10 4 -10 10v642c0 6 4 10 10 10h82c6 0 10 -4 10 -10v-317c0 -47 17 -70 51 -70c32 0 50 23 50 70v317c0 6 4 10 10 10h82c6 0 10 -4 10 -10v-462
c0 -6 -4 -10 -10 -10z" />
    <glyph glyph-name="pi" unicode="&#x3c0;" horiz-adv-x="428" 
d="M390 -6h-9c-85 0 -121 37 -121 129v259c0 4 -2 6 -6 6h-78c-4 0 -6 -2 -6 -6v-372c0 -6 -4 -10 -10 -10h-82c-6 0 -10 4 -10 10v372c0 4 -2 6 -6 6h-38c-6 0 -10 4 -10 10v74c0 6 4 10 10 10h378c6 0 10 -4 10 -10v-74c0 -6 -4 -10 -10 -10h-37c-4 0 -6 -2 -6 -6v-261
c0 -28 7 -35 27 -35h4c6 0 10 -4 10 -10v-72c0 -6 -4 -10 -10 -10z" />
    <glyph glyph-name="degree" unicode="&#xb0;" horiz-adv-x="341" 
d="M170 445c-68 0 -120 51 -120 119c0 69 52 120 120 120c69 0 121 -51 121 -120c0 -68 -52 -119 -121 -119zM170 502c36 0 60 26 60 62c0 37 -24 63 -60 63c-35 0 -59 -26 -59 -63c0 -36 24 -62 59 -62z" />
    <glyph glyph-name="afii61289" unicode="&#x2113;" horiz-adv-x="413" 
d="M98 175c-4 -3 -9 -4 -14 1l-36 41c-4 4 -4 10 1 14l78 75v204c0 115 49 181 135 181c71 0 120 -47 120 -127c0 -88 -50 -167 -153 -267v-172c0 -35 9 -50 33 -50c12 0 22 5 34 14c6 5 11 3 14 -2l28 -41c4 -5 2 -11 -3 -15c-29 -26 -62 -42 -101 -42
c-65 0 -107 38 -107 143v70zM229 538v-127c54 65 69 107 69 154c0 35 -12 50 -32 50c-23 0 -37 -20 -37 -77z" />
    <glyph glyph-name="estimated" unicode="&#x212e;" horiz-adv-x="579" 
d="M288 -9c-141 0 -233 112 -233 251c0 140 92 249 233 249s235 -102 236 -249h-366v-165c35 -34 79 -52 130 -52c75 0 130 32 174 109l33 -21c-56 -85 -112 -122 -207 -122zM421 275v131c-39 36 -82 55 -133 55s-95 -19 -130 -55v-131h263z" />
    <glyph glyph-name="eng" unicode="&#x14b;" horiz-adv-x="405" 
d="M216 -180h-11c-6 0 -10 4 -10 10v72c0 6 4 10 10 10l10 1c29 2 41 14 41 56v358c0 47 -18 70 -52 70c-33 0 -51 -23 -51 -70v-317c0 -6 -4 -10 -10 -10h-82c-6 0 -10 4 -10 10v462c0 6 4 10 10 10h82c6 0 10 -4 10 -10v-38h1c17 33 46 57 92 57c72 0 112 -45 112 -150
v-377c0 -97 -43 -144 -142 -144z" />
    <glyph glyph-name="Eng" unicode="&#x14a;" horiz-adv-x="461" 
d="M250 -180h-11c-6 0 -10 4 -10 10v77c0 6 3 9 10 10l10 1c35 3 53 21 53 58v6l-149 498h-6v-470c0 -6 -4 -10 -10 -10h-74c-6 0 -10 4 -10 10v660c0 6 4 10 10 10h106c8 0 12 -3 14 -10l126 -461h5v461c0 6 4 10 10 10h74c6 0 10 -4 10 -10v-684
c0 -116 -50 -166 -158 -166z" />
    <glyph glyph-name="infinity" unicode="&#x221e;" horiz-adv-x="667" 
d="M498 92c-64 0 -108 28 -165 95c-58 -67 -101 -95 -165 -95c-87 0 -150 59 -150 154c0 96 62 155 151 155c59 0 102 -28 164 -97c63 70 103 97 164 97c88 0 152 -58 152 -155c0 -95 -62 -154 -151 -154zM494 166c48 0 77 33 77 82c0 48 -30 79 -78 79
c-32 0 -60 -20 -111 -81c53 -61 79 -80 112 -80zM172 166c33 0 62 23 112 81c-50 59 -80 80 -110 80c-47 0 -78 -31 -78 -79c0 -50 29 -82 76 -82z" />
    <glyph glyph-name="partialdiff" unicode="&#x2202;" horiz-adv-x="412" 
d="M181 -11c-91 0 -140 83 -140 202c0 129 61 229 160 229c33 0 58 -9 76 -26h2c-4 129 -37 210 -97 210c-21 0 -42 -8 -58 -20c-5 -4 -11 -3 -14 2l-35 51c-3 5 -2 10 3 14c31 23 67 40 112 40c119 0 181 -123 181 -323c0 -254 -72 -379 -190 -379zM188 77
c44 0 82 58 90 225c-19 20 -38 33 -64 33c-50 0 -81 -59 -81 -140c0 -75 18 -118 55 -118z" />
    <glyph glyph-name="integral" unicode="&#x222b;" horiz-adv-x="312" 
d="M59 -180c-7 0 -18 0 -25 1c-6 1 -10 4 -10 10v76c0 6 4 10 10 10h17c37 0 54 23 54 80v560c0 124 50 183 148 183c8 0 18 0 25 -1c6 -1 10 -4 10 -10v-76c0 -6 -4 -10 -10 -10h-16c-38 0 -55 -23 -55 -80v-560c0 -124 -50 -183 -148 -183z" />
    <glyph glyph-name="radical" unicode="&#x221a;" horiz-adv-x="568" 
d="M325 -180h-66c-6 0 -10 4 -12 10l-110 262c-2 4 -5 5 -9 3l-58 -24c-6 -3 -11 -1 -13 4l-25 55c-3 6 -1 11 4 13l131 58c6 3 11 2 14 -4l102 -245h3l183 778c2 6 6 10 12 10h67c6 0 10 -4 8 -10l-219 -900c-2 -6 -6 -10 -12 -10z" />
    <glyph glyph-name="summation" unicode="&#x2211;" horiz-adv-x="486" 
d="M437 -180h-387c-6 0 -10 4 -10 10v74c0 4 1 7 2 9l175 405l-170 323c-2 4 -3 7 -3 11v78c0 6 4 10 10 10h373c6 0 10 -4 10 -10v-78c0 -6 -4 -10 -10 -10h-261l164 -309c2 -5 2 -9 0 -14l-178 -401h285c6 0 10 -4 10 -10v-78c0 -6 -4 -10 -10 -10z" />
    <glyph glyph-name="product" unicode="&#x220f;" horiz-adv-x="526" 
d="M463 -180h-86c-6 0 -10 4 -10 10v806c0 4 -2 6 -6 6h-196c-4 0 -6 -2 -6 -6v-806c0 -6 -4 -10 -10 -10h-86c-6 0 -10 4 -10 10v900c0 6 4 10 10 10h400c6 0 10 -4 10 -10v-900c0 -6 -4 -10 -10 -10z" />
    <glyph glyph-name="lozenge" unicode="&#x25ca;" horiz-adv-x="445" 
d="M259 -52h-72c-7 0 -11 3 -14 10l-151 364c-2 5 -2 9 0 14l151 364c3 7 7 10 14 10h72c7 0 11 -3 14 -10l150 -364c2 -5 2 -9 0 -14l-150 -364c-3 -7 -7 -10 -14 -10zM225 51h2l107 278l-111 278h-2l-109 -278z" />
    <glyph glyph-name="uniF8FF" unicode="&#xf8ff;" horiz-adv-x="388" 
d="M378 0h-368c-6 0 -10 4 -10 10v660c0 6 4 10 10 10h368c6 0 10 -4 10 -10v-660c0 -6 -4 -10 -10 -10zM324 55c4 0 6 2 6 6v558c0 4 -2 6 -6 6h-259c-4 0 -6 -2 -6 -6v-558c0 -4 2 -6 6 -6h259zM216 224h-48c-6 0 -10 4 -10 10v46c0 15 4 28 13 44l36 67
c12 22 17 36 17 64c0 14 -1 22 -3 28c-4 12 -14 20 -30 20c-15 0 -25 -8 -29 -20c-2 -6 -3 -14 -3 -41c0 -6 -5 -9 -11 -8l-46 4c-6 1 -9 5 -9 11c0 31 3 44 6 53c12 37 48 61 93 61c46 0 82 -24 94 -61c3 -9 6 -24 6 -44c0 -34 -6 -53 -21 -79l-35 -67
c-6 -12 -10 -23 -10 -36v-42c0 -6 -4 -10 -10 -10zM216 114h-48c-6 0 -10 4 -10 10v58c0 6 4 10 10 10h48c6 0 10 -4 10 -10v-58c0 -6 -4 -10 -10 -10z" />
    <glyph glyph-name="exclam.sc" horiz-adv-x="232" 
d="M140 170h-48c-6 0 -10 4 -10 10l-22 332c0 6 4 10 10 10h92c6 0 10 -4 10 -10l-22 -332c0 -6 -4 -10 -10 -10zM158 0h-84c-6 0 -10 4 -10 10v99c0 6 4 10 10 10h84c6 0 10 -4 10 -10v-99c0 -6 -4 -10 -10 -10z" />
    <glyph glyph-name="dollar.sc" horiz-adv-x="378" 
d="M199 -53h-16c-6 0 -10 4 -10 10v35c-90 5 -130 53 -137 138c0 7 2 11 8 12l70 13c6 1 10 -2 11 -8c3 -45 17 -65 48 -69v146l-20 6c-77 23 -112 66 -112 151c0 91 48 144 132 149v27c0 6 4 10 10 10h16c6 0 10 -4 10 -10v-27c77 -7 118 -54 128 -134c0 -7 -2 -11 -8 -12
l-67 -9c-6 -1 -10 2 -11 8c-5 37 -17 55 -42 60v-134l14 -4c85 -25 118 -69 118 -159c0 -89 -38 -148 -132 -154v-35c0 -6 -4 -10 -10 -10zM133 383c0 -30 8 -49 40 -63v124c-28 -5 -40 -24 -40 -61zM248 145c0 31 -10 51 -39 66v-132c27 6 39 25 39 66z" />
    <glyph glyph-name="percent.sc" horiz-adv-x="664" 
d="M236 -9h-53c-6 0 -9 4 -7 10l239 519c3 7 7 10 13 10h53c6 0 9 -4 7 -10l-239 -519c-3 -7 -7 -10 -13 -10zM166 256c-45 0 -78 22 -89 55c-5 14 -7 29 -7 81c0 51 2 66 7 80c11 34 44 56 89 56c46 0 79 -22 90 -56c4 -14 7 -29 7 -80c0 -52 -3 -67 -7 -81
c-11 -33 -44 -55 -90 -55zM166 318c12 0 19 5 22 15c2 6 3 13 3 59c0 45 -1 52 -3 59c-3 9 -10 14 -22 14c-11 0 -18 -5 -21 -14c-2 -7 -3 -14 -3 -59c0 -46 1 -53 3 -59c3 -10 10 -15 21 -15zM497 -7c-45 0 -78 22 -89 56c-5 14 -7 28 -7 80s2 66 7 80c11 34 44 56 89 56
c46 0 79 -22 89 -56c5 -14 8 -28 8 -80s-3 -66 -8 -80c-10 -34 -43 -56 -89 -56zM497 56c12 0 19 5 22 14c2 6 3 13 3 59s-1 53 -3 59c-3 9 -10 14 -22 14c-11 0 -18 -5 -21 -14c-2 -6 -3 -13 -3 -59s1 -53 3 -59c3 -9 10 -14 21 -14z" />
    <glyph glyph-name="ampersand.sc" horiz-adv-x="491" 
d="M425 -6h-30c-36 0 -49 7 -63 25l-19 25c-35 -36 -75 -53 -125 -53c-87 0 -135 50 -135 121c0 47 15 89 89 164l-9 13c-41 55 -56 83 -56 120c0 69 54 122 135 122c80 0 134 -53 134 -122c0 -36 -15 -68 -87 -140l59 -75l39 61c3 5 8 7 14 4l54 -35c5 -3 7 -9 4 -14
l-56 -86l19 -23c11 -14 18 -17 30 -17h3c6 0 10 -4 10 -10v-70c0 -6 -4 -10 -10 -10zM171 412c0 -16 4 -32 34 -74c39 39 48 56 48 74c0 20 -14 41 -40 41c-25 0 -42 -21 -42 -41zM198 79c18 0 39 10 63 36l-67 90c-36 -38 -45 -56 -45 -81c0 -26 18 -45 49 -45z" />
    <glyph glyph-name="zero.sc" horiz-adv-x="378" 
d="M189 -9c-69 0 -118 32 -136 89c-7 21 -10 43 -10 181s3 160 10 180c18 58 67 90 136 90s118 -32 136 -90c7 -20 10 -42 10 -180s-3 -160 -10 -181c-18 -57 -67 -89 -136 -89zM189 84c20 0 34 10 40 28c3 10 4 20 4 149s-1 138 -4 148c-6 19 -20 28 -40 28s-34 -9 -40 -28
c-3 -10 -4 -19 -4 -148s1 -139 4 -149c6 -18 20 -28 40 -28z" />
    <glyph glyph-name="one.sc" horiz-adv-x="378" 
d="M247 0h-82c-6 0 -10 4 -10 10v398h-1l-79 -44c-6 -3 -11 -1 -11 7v83c0 6 2 10 7 14l81 49c5 3 10 5 16 5h79c6 0 10 -4 10 -10v-502c0 -6 -4 -10 -10 -10z" />
    <glyph glyph-name="two.sc" horiz-adv-x="378" 
d="M323 0h-270c-5 0 -9 3 -9 8v72c0 5 0 7 3 11l159 207c19 26 25 42 25 82c0 16 -1 24 -3 31c-6 17 -19 26 -41 26c-21 0 -35 -9 -41 -26c-2 -7 -3 -14 -3 -36c0 -8 -5 -11 -12 -10l-77 8c-7 1 -10 5 -10 12c0 27 1 41 6 57c18 57 69 89 137 89s119 -31 137 -89
c6 -18 9 -34 9 -63c0 -63 -16 -97 -46 -135l-119 -150v-1h155c6 0 10 -4 10 -10v-73c0 -6 -4 -10 -10 -10z" />
    <glyph glyph-name="three.sc" horiz-adv-x="378" 
d="M187 -9c-68 0 -119 32 -137 89c-5 16 -6 31 -6 47c0 7 3 11 10 12l77 8c7 1 12 -2 12 -10c0 -11 1 -20 3 -26c6 -17 20 -27 41 -27c22 0 35 10 41 27c2 6 3 15 3 45c0 23 -1 32 -3 39c-6 17 -18 25 -44 25h-13c-6 0 -10 4 -10 10v73c0 6 4 10 10 10h13c25 0 39 9 44 24
c2 6 3 12 3 35c0 24 -1 32 -3 39c-6 17 -19 26 -41 26c-21 0 -35 -9 -41 -26c-2 -7 -3 -16 -3 -26c0 -8 -5 -11 -12 -10l-77 7c-7 1 -10 5 -10 12c0 17 1 32 6 48c18 57 69 89 137 89s119 -31 137 -89c6 -18 9 -30 9 -70c0 -23 -2 -36 -6 -48c-8 -23 -23 -40 -46 -53v-2
c23 -13 38 -29 46 -53c4 -12 6 -25 6 -60c0 -41 -3 -58 -9 -76c-18 -58 -69 -89 -137 -89z" />
    <glyph glyph-name="four.sc" horiz-adv-x="378" 
d="M302 0h-80c-6 0 -10 4 -10 10v49c0 4 -2 6 -6 6h-171c-6 0 -10 4 -10 10v73c0 4 1 8 2 11l130 355c2 6 5 8 12 8h84c7 0 10 -4 8 -11l-129 -350v-2h74c4 0 6 2 6 6v125c0 6 4 10 10 10h80c6 0 10 -4 10 -10v-125c0 -4 1 -6 5 -6h28c6 0 10 -4 10 -10v-74
c0 -6 -4 -10 -10 -10h-27c-4 0 -6 -2 -6 -6v-49c0 -6 -4 -10 -10 -10z" />
    <glyph glyph-name="five.sc" horiz-adv-x="378" 
d="M187 -9c-68 0 -119 31 -137 89c-3 9 -5 20 -5 33c0 7 3 11 10 12l76 8c8 1 12 -3 13 -10l3 -13c6 -17 20 -26 41 -26s33 9 39 27c2 6 4 15 4 56s-2 49 -4 55c-6 18 -19 27 -39 27c-19 0 -32 -6 -40 -18c-4 -6 -8 -8 -16 -8h-67c-6 0 -10 4 -10 10v279c0 6 4 10 10 10h258
c6 0 10 -4 10 -10v-74c0 -6 -4 -10 -10 -10h-171c-4 0 -6 -2 -6 -6v-98h2c14 11 37 18 68 18c58 0 94 -30 109 -77c6 -17 8 -36 8 -98c0 -52 -3 -70 -9 -88c-18 -58 -69 -88 -137 -88z" />
    <glyph glyph-name="six.sc" horiz-adv-x="378" 
d="M189 -9c-68 0 -119 31 -137 89c-6 18 -9 35 -9 74c0 65 8 100 30 148l99 210c3 6 7 10 16 10h81c7 0 9 -5 6 -11l-96 -198l2 -2c5 2 17 4 33 4c57 0 96 -29 112 -79c6 -18 9 -39 9 -82c0 -39 -3 -56 -9 -74c-18 -58 -69 -89 -137 -89zM189 84c21 0 34 10 40 27
c2 6 4 15 4 43c0 27 -2 35 -4 41c-6 18 -19 27 -40 27s-34 -9 -40 -27c-2 -6 -4 -14 -4 -41c0 -28 2 -37 4 -43c6 -17 19 -27 40 -27z" />
    <glyph glyph-name="seven.sc" horiz-adv-x="378" 
d="M165 0h-79c-6 0 -11 4 -8 13l157 414v1h-90c-4 0 -6 -2 -6 -6v-37c0 -6 -4 -10 -10 -10h-73c-6 0 -10 4 -10 10v127c0 6 4 10 10 10h270c6 0 10 -4 10 -10v-75c0 -4 -1 -8 -2 -11l-154 -416c-3 -7 -7 -10 -15 -10z" />
    <glyph glyph-name="eight.sc" horiz-adv-x="378" 
d="M189 -9c-68 0 -119 31 -137 89c-6 18 -9 35 -9 76c0 35 3 49 7 62c8 23 21 43 42 54v2c-21 11 -34 31 -42 54c-4 13 -7 28 -7 50c0 29 3 46 9 64c18 58 69 89 137 89s119 -31 137 -89c6 -18 9 -35 9 -64c0 -22 -3 -37 -7 -50c-8 -23 -21 -43 -42 -54v-2
c21 -11 34 -31 42 -54c4 -13 7 -27 7 -62c0 -42 -3 -58 -9 -76c-18 -58 -69 -89 -137 -89zM189 319c21 0 34 10 40 27c2 7 4 15 4 32c0 18 -2 26 -4 33c-6 17 -19 26 -40 26s-34 -9 -40 -26c-2 -7 -4 -15 -4 -33c0 -17 2 -25 4 -32c6 -17 19 -27 40 -27zM189 84
c21 0 34 10 40 27c2 6 4 15 4 45s-2 38 -4 44c-6 18 -19 27 -40 27s-34 -9 -40 -27c-2 -6 -4 -14 -4 -44s2 -39 4 -45c6 -17 19 -27 40 -27z" />
    <glyph glyph-name="nine.sc" horiz-adv-x="378" 
d="M190 0h-81c-7 0 -9 5 -6 11l96 198l-2 2c-5 -2 -17 -4 -33 -4c-57 0 -96 28 -112 79c-6 18 -9 39 -9 82c0 39 3 56 9 74c18 58 69 89 137 89s119 -31 137 -89c6 -18 9 -35 9 -74c0 -65 -8 -101 -30 -148l-99 -210c-3 -6 -7 -10 -16 -10zM189 300c21 0 34 9 40 27
c2 6 4 14 4 41c0 28 -2 36 -4 43c-6 17 -19 26 -40 26s-34 -9 -40 -26c-2 -7 -4 -15 -4 -43c0 -27 2 -35 4 -41c6 -18 19 -27 40 -27z" />
    <glyph glyph-name="question.sc" horiz-adv-x="341" 
d="M210 168h-84c-6 0 -10 4 -10 10v26c0 26 2 39 17 57l46 59c23 29 30 44 30 70c0 8 -1 16 -3 22c-6 15 -20 25 -41 25s-35 -11 -40 -26c-2 -6 -3 -14 -4 -31c0 -6 -4 -10 -10 -9l-80 8c-6 1 -9 4 -9 10c0 26 4 44 9 59c18 54 70 83 135 83c68 0 119 -31 137 -86
c6 -18 8 -36 8 -51c0 -38 -11 -68 -30 -92l-46 -58c-11 -14 -15 -26 -15 -46v-20c0 -6 -4 -10 -10 -10zM210 0h-84c-6 0 -10 4 -10 10v99c0 6 4 10 10 10h84c6 0 10 -4 10 -10v-99c0 -6 -4 -10 -10 -10z" />
    <glyph glyph-name="a.sc" horiz-adv-x="391" 
d="M374 0h-81c-6 0 -9 4 -10 10l-21 87h-132l-21 -87c-1 -6 -4 -10 -10 -10h-81c-6 0 -10 4 -8 10l134 502c2 7 6 10 12 10h80c6 0 10 -3 12 -10l134 -502c2 -6 -2 -10 -8 -10zM195 367l-43 -179h88l-42 179h-3z" />
    <glyph glyph-name="b.sc" horiz-adv-x="401" 
d="M190 0h-128c-6 0 -10 4 -10 10v502c0 6 4 10 10 10h139c117 0 164 -42 164 -133c0 -67 -24 -100 -70 -116v-1c49 -10 78 -50 78 -119c0 -111 -60 -153 -183 -153zM190 311c54 0 70 16 70 60c0 43 -16 59 -70 59h-30c-4 0 -6 -2 -6 -6v-107c0 -4 2 -6 6 -6h30zM193 91
c58 0 76 18 76 65c0 48 -18 65 -76 65h-33c-4 0 -6 -2 -6 -6v-118c0 -4 2 -6 6 -6h33z" />
    <glyph glyph-name="c.sc" horiz-adv-x="384" 
d="M198 -9c-72 0 -126 37 -146 99c-8 25 -11 44 -11 171s3 146 11 170c20 63 74 100 146 100c83 0 144 -47 155 -135c1 -6 -3 -10 -8 -11l-76 -13c-6 -1 -11 3 -12 9c-8 36 -25 56 -58 56c-25 0 -43 -12 -51 -37c-4 -13 -5 -24 -5 -139s1 -127 5 -140c8 -25 26 -37 51 -37
c34 0 50 21 58 57c1 6 6 10 12 8l76 -12c5 -1 9 -5 8 -11c-11 -88 -72 -135 -155 -135z" />
    <glyph glyph-name="d.sc" horiz-adv-x="419" 
d="M210 0h-148c-6 0 -10 4 -10 10v502c0 6 4 10 10 10h148c85 0 133 -30 154 -98c10 -29 14 -66 14 -163s-4 -134 -14 -164c-21 -67 -69 -97 -154 -97zM200 93c37 0 58 13 68 45c6 18 8 40 8 123s-2 104 -8 123c-10 31 -31 44 -68 44h-40c-4 0 -6 -2 -6 -6v-323
c0 -4 2 -6 6 -6h40z" />
    <glyph glyph-name="e.sc" horiz-adv-x="361" 
d="M324 0h-262c-6 0 -10 4 -10 10v502c0 6 4 10 10 10h262c6 0 10 -4 10 -10v-74c0 -6 -4 -10 -10 -10h-164c-4 0 -6 -2 -6 -6v-106c0 -4 2 -6 6 -6h142c6 0 10 -4 10 -10v-74c0 -6 -4 -10 -10 -10h-142c-4 0 -6 -2 -6 -6v-111c0 -4 2 -6 6 -6h164c6 0 10 -4 10 -10v-73
c0 -6 -4 -10 -10 -10z" />
    <glyph glyph-name="f.sc" horiz-adv-x="359" 
d="M144 0h-82c-6 0 -10 4 -10 10v502c0 6 4 10 10 10h262c6 0 10 -4 10 -10v-74c0 -6 -4 -10 -10 -10h-164c-4 0 -6 -2 -6 -6v-107c0 -4 2 -6 6 -6h142c6 0 10 -4 10 -10v-73c0 -6 -4 -10 -10 -10h-142c-4 0 -6 -2 -6 -6v-200c0 -6 -4 -10 -10 -10z" />
    <glyph glyph-name="g.sc" horiz-adv-x="404" 
d="M202 -9c-73 0 -130 37 -150 99c-8 25 -11 44 -11 171s3 146 11 170c20 63 77 100 150 100c86 0 149 -47 160 -135c1 -6 -3 -10 -8 -11l-76 -13c-6 -1 -11 3 -12 9c-8 37 -27 56 -63 56c-27 0 -47 -11 -55 -37c-4 -13 -5 -24 -5 -139s1 -127 5 -140c8 -25 29 -37 57 -37
s49 12 57 37c4 13 6 25 6 86c0 4 -2 6 -6 6h-54c-6 0 -10 4 -10 10v68c0 6 4 10 10 10h146c6 0 10 -4 10 -10v-31c0 -126 -3 -145 -11 -170c-20 -62 -77 -99 -151 -99z" />
    <glyph glyph-name="h.sc" horiz-adv-x="424" 
d="M362 0h-82c-6 0 -10 4 -10 10v202c0 4 -2 6 -6 6h-104c-4 0 -6 -2 -6 -6v-202c0 -6 -4 -10 -10 -10h-82c-6 0 -10 4 -10 10v502c0 6 4 10 10 10h82c6 0 10 -4 10 -10v-194c0 -4 2 -6 6 -6h104c4 0 6 2 6 6v194c0 6 4 10 10 10h82c6 0 10 -4 10 -10v-502
c0 -6 -4 -10 -10 -10z" />
    <glyph glyph-name="i.sc" horiz-adv-x="206" 
d="M144 0h-82c-6 0 -10 4 -10 10v502c0 6 4 10 10 10h82c6 0 10 -4 10 -10v-502c0 -6 -4 -10 -10 -10z" />
    <glyph glyph-name="j.sc" horiz-adv-x="335" 
d="M125 -9c-48 0 -86 19 -107 40c-4 5 -3 10 1 14l57 52c5 4 9 4 15 0c8 -6 21 -13 38 -13c33 0 53 18 53 65v363c0 6 4 10 10 10h82c6 0 10 -4 10 -10v-359c0 -112 -61 -162 -159 -162z" />
    <glyph glyph-name="k.sc" horiz-adv-x="421" 
d="M399 0h-87c-6 0 -9 2 -12 7l-101 209l-45 -70v-136c0 -6 -4 -10 -10 -10h-82c-6 0 -10 4 -10 10v502c0 6 4 10 10 10h82c6 0 10 -4 10 -10v-212l126 215c3 5 7 7 14 7h85c5 0 8 -5 5 -10l-127 -202l147 -300c3 -5 0 -10 -5 -10z" />
    <glyph glyph-name="l.sc" horiz-adv-x="348" 
d="M321 0h-259c-6 0 -10 4 -10 10v502c0 6 4 10 10 10h82c6 0 10 -4 10 -10v-413c0 -4 2 -6 6 -6h161c6 0 10 -4 10 -10v-73c0 -6 -4 -10 -10 -10z" />
    <glyph glyph-name="m.sc" horiz-adv-x="530" 
d="M468 0h-73c-6 0 -10 4 -10 10v318h-5l-80 -225c-2 -6 -6 -10 -13 -10h-44c-7 0 -11 4 -13 10l-80 225h-5v-318c0 -6 -4 -10 -10 -10h-73c-6 0 -10 4 -10 10v502c0 6 4 10 10 10h82c9 0 14 -3 17 -10l104 -283h4l101 283c3 7 8 10 17 10h81c6 0 10 -4 10 -10v-502
c0 -6 -4 -10 -10 -10z" />
    <glyph glyph-name="n.sc" horiz-adv-x="441" 
d="M379 0h-92c-8 0 -13 3 -16 10l-124 349h-5v-349c0 -6 -4 -10 -10 -10h-70c-6 0 -10 4 -10 10v502c0 6 4 10 10 10h97c9 0 14 -3 16 -10l119 -347h5v347c0 6 4 10 10 10h70c6 0 10 -4 10 -10v-502c0 -6 -4 -10 -10 -10z" />
    <glyph glyph-name="o.sc" horiz-adv-x="404" 
d="M202 -9c-73 0 -130 37 -150 99c-8 25 -11 44 -11 171s3 146 11 170c20 63 77 100 150 100c74 0 131 -37 151 -100c8 -24 11 -43 11 -170s-3 -146 -11 -171c-20 -62 -77 -99 -151 -99zM202 84c27 0 46 12 55 37c4 13 5 25 5 140s-1 126 -5 139c-9 26 -28 37 -55 37
c-26 0 -46 -11 -54 -37c-4 -13 -5 -24 -5 -139s1 -127 5 -140c8 -25 28 -37 54 -37z" />
    <glyph glyph-name="p.sc" horiz-adv-x="399" 
d="M144 0h-82c-6 0 -10 4 -10 10v502c0 6 4 10 10 10h141c106 0 170 -55 170 -163c0 -107 -64 -162 -170 -162h-43c-4 0 -6 -2 -6 -6v-181c0 -6 -4 -10 -10 -10zM192 288c57 0 79 21 79 71c0 51 -22 71 -79 71h-32c-4 0 -6 -2 -6 -6v-130c0 -4 2 -6 6 -6h32z" />
    <glyph glyph-name="q.sc" horiz-adv-x="404" 
d="M380 16l-39 -38c-4 -4 -10 -4 -14 1l-35 39c-24 -19 -55 -27 -90 -27c-73 0 -130 37 -150 99c-8 25 -11 43 -11 171c0 127 3 146 11 171c20 62 77 99 150 99c74 0 131 -37 151 -99c8 -25 11 -44 11 -171c0 -128 -4 -154 -24 -192l40 -39c4 -5 4 -10 0 -14zM205 81
c9 0 20 2 28 6l-39 40c-3 4 -4 9 1 14l30 28c4 4 11 6 16 0l23 -27h2v119c0 115 -3 127 -8 140c-8 26 -29 37 -56 37c-26 0 -47 -11 -55 -37c-4 -13 -5 -25 -5 -140s1 -128 5 -141c8 -25 28 -39 58 -39z" />
    <glyph glyph-name="r.sc" horiz-adv-x="414" 
d="M381 0h-84c-7 0 -12 4 -14 10l-72 192h-7h-43c-4 0 -6 -2 -6 -6v-186c0 -6 -4 -10 -10 -10h-82c-6 0 -10 4 -10 10v502c0 6 4 10 10 10h141c106 0 170 -55 170 -160c0 -67 -26 -114 -71 -139l85 -213c2 -6 -1 -10 -7 -10zM193 293c57 0 79 20 79 69c0 48 -22 68 -79 68
h-32c-4 0 -6 -2 -6 -6v-125c0 -4 2 -6 6 -6h32z" />
    <glyph glyph-name="s.sc" horiz-adv-x="377" 
d="M195 -9c-104 0 -157 51 -164 138c-1 7 2 11 8 12l78 13c6 1 10 -2 11 -8c6 -45 27 -66 64 -66c39 0 59 21 59 66c0 36 -14 56 -64 72l-38 12c-81 26 -111 65 -111 151c0 94 61 150 153 150c98 0 147 -52 157 -133c1 -7 -2 -11 -8 -12l-75 -10c-6 -1 -10 2 -11 8
c-6 36 -24 57 -59 57c-37 0 -57 -20 -57 -58c0 -32 11 -51 59 -66l38 -12c87 -27 116 -69 116 -158c0 -96 -53 -156 -156 -156z" />
    <glyph glyph-name="t.sc" horiz-adv-x="354" 
d="M218 0h-82c-6 0 -10 4 -10 10v412c0 4 -2 6 -6 6h-96c-6 0 -10 4 -10 10v74c0 6 4 10 10 10h306c6 0 10 -4 10 -10v-74c0 -6 -4 -10 -10 -10h-96c-4 0 -6 -2 -6 -6v-412c0 -6 -4 -10 -10 -10z" />
    <glyph glyph-name="u.sc" horiz-adv-x="421" 
d="M210 -9c-98 0 -159 57 -159 163v358c0 6 4 10 10 10h82c6 0 10 -4 10 -10v-358c0 -47 20 -70 57 -70s58 23 58 70v358c0 6 4 10 10 10h82c6 0 10 -4 10 -10v-358c0 -106 -62 -163 -160 -163z" />
    <glyph glyph-name="v.sc" horiz-adv-x="374" 
d="M224 0h-74c-6 0 -9 4 -10 10l-124 502c-1 6 1 10 9 10h81c6 0 10 -3 11 -10l71 -340h3l69 340c1 7 5 10 11 10h79c7 0 9 -4 8 -10l-124 -502c-1 -6 -4 -10 -10 -10z" />
    <glyph glyph-name="w.sc" horiz-adv-x="539" 
d="M416 0h-70c-6 0 -9 4 -10 10l-65 322h-2l-67 -322c-1 -6 -4 -10 -10 -10h-69c-6 0 -9 4 -10 10l-97 502c-1 6 1 10 9 10h79c6 0 10 -3 11 -10l47 -327h1l66 327c1 7 5 10 11 10h58c6 0 10 -3 11 -10l67 -327h2l47 327c1 7 5 10 11 10h78c8 0 10 -4 9 -10l-97 -502
c-1 -6 -4 -10 -10 -10z" />
    <glyph glyph-name="x.sc" horiz-adv-x="384" 
d="M362 0h-84c-7 0 -11 3 -14 10l-71 156h-2l-71 -156c-3 -7 -7 -10 -14 -10h-84c-7 0 -10 5 -7 11l124 262l-111 238c-3 6 0 11 7 11h82c7 0 11 -3 14 -10l61 -139h2l61 139c3 7 7 10 14 10h80c7 0 10 -5 7 -11l-110 -238l123 -262c3 -6 0 -11 -7 -11z" />
    <glyph glyph-name="y.sc" horiz-adv-x="359" 
d="M220 0h-81c-6 0 -10 4 -10 10v202l-121 300c-2 6 0 10 8 10h83c7 0 10 -3 12 -10l68 -194h3l68 194c2 7 5 10 12 10h81c8 0 10 -4 8 -10l-121 -300v-202c0 -6 -4 -10 -10 -10z" />
    <glyph glyph-name="z.sc" horiz-adv-x="347" 
d="M305 0h-263c-6 0 -10 4 -10 10v72c0 5 1 9 3 13l173 332v1h-156c-6 0 -10 4 -10 10v74c0 6 4 10 10 10h252c6 0 10 -4 10 -10v-73c0 -5 -1 -9 -3 -13l-172 -331v-2h166c6 0 10 -4 10 -10v-73c0 -6 -4 -10 -10 -10z" />
    <glyph glyph-name="agrave.sc" horiz-adv-x="391" 
d="M226 595h-57c-8 0 -12 2 -18 10l-90 125c-4 5 -1 10 5 10h81c8 0 12 -3 16 -10l69 -125c3 -6 0 -10 -6 -10zM374 0h-81c-6 0 -9 4 -10 10l-21 87h-132l-21 -87c-1 -6 -4 -10 -10 -10h-81c-6 0 -10 4 -8 10l134 502c2 7 6 10 12 10h80c6 0 10 -3 12 -10l134 -502
c2 -6 -2 -10 -8 -10zM195 367l-43 -179h88l-42 179h-3z" />
    <glyph glyph-name="aacute.sc" horiz-adv-x="391" 
d="M374 0h-81c-6 0 -9 4 -10 10l-21 87h-132l-21 -87c-1 -6 -4 -10 -10 -10h-81c-6 0 -10 4 -8 10l134 502c2 7 6 10 12 10h80c6 0 10 -3 12 -10l134 -502c2 -6 -2 -10 -8 -10zM195 367l-43 -179h88l-42 179h-3zM223 595h-57c-6 0 -9 4 -6 10l69 125c4 7 8 10 16 10h81
c6 0 9 -5 5 -10l-90 -125c-6 -8 -10 -10 -18 -10z" />
    <glyph glyph-name="acircumflex.sc" horiz-adv-x="391" 
d="M374 0h-81c-6 0 -9 4 -10 10l-21 87h-132l-21 -87c-1 -6 -4 -10 -10 -10h-81c-6 0 -10 4 -8 10l134 502c2 7 6 10 12 10h80c6 0 10 -3 12 -10l134 -502c2 -6 -2 -10 -8 -10zM195 367l-43 -179h88l-42 179h-3zM324 595h-60c-8 0 -13 3 -19 10l-48 60h-2l-47 -60
c-6 -7 -11 -10 -19 -10h-60c-6 0 -8 5 -4 10l88 125c4 6 9 10 17 10h52c8 0 14 -4 18 -10l88 -125c4 -5 2 -10 -4 -10z" />
    <glyph glyph-name="atilde.sc" horiz-adv-x="391" 
d="M241 607c-22 0 -35 7 -52 18c-16 11 -24 16 -38 16c-21 0 -33 -11 -48 -26c-5 -5 -12 -3 -12 4v61c0 6 2 11 10 19c13 13 29 24 51 24s35 -7 51 -18c17 -11 25 -16 39 -16c21 0 33 10 48 26c5 5 12 3 12 -4v-61c0 -6 -2 -11 -10 -19c-13 -13 -29 -24 -51 -24zM374 0h-81
c-6 0 -9 4 -10 10l-21 87h-132l-21 -87c-1 -6 -4 -10 -10 -10h-81c-6 0 -10 4 -8 10l134 502c2 7 6 10 12 10h80c6 0 10 -3 12 -10l134 -502c2 -6 -2 -10 -8 -10zM195 367l-43 -179h88l-42 179h-3z" />
    <glyph glyph-name="adieresis.sc" horiz-adv-x="391" 
d="M374 0h-81c-6 0 -9 4 -10 10l-21 87h-132l-21 -87c-1 -6 -4 -10 -10 -10h-81c-6 0 -10 4 -8 10l134 502c2 7 6 10 12 10h80c6 0 10 -3 12 -10l134 -502c2 -6 -2 -10 -8 -10zM195 367l-43 -179h88l-42 179h-3zM305 614h-65c-6 0 -10 4 -10 10v86c0 6 4 10 10 10h65
c6 0 10 -4 10 -10v-86c0 -6 -4 -10 -10 -10zM153 614h-65c-6 0 -10 4 -10 10v86c0 6 4 10 10 10h65c6 0 10 -4 10 -10v-86c0 -6 -4 -10 -10 -10z" />
    <glyph glyph-name="amacron.sc" horiz-adv-x="391" 
d="M374 0h-81c-6 0 -9 4 -10 10l-21 87h-132l-21 -87c-1 -6 -4 -10 -10 -10h-81c-6 0 -10 4 -8 10l134 502c2 7 6 10 12 10h80c6 0 10 -3 12 -10l134 -502c2 -6 -2 -10 -8 -10zM195 367l-43 -179h88l-42 179h-3zM300 628h-206c-6 0 -10 4 -10 10v60c0 6 4 10 10 10h206
c6 0 10 -4 10 -10v-60c0 -6 -4 -10 -10 -10z" />
    <glyph glyph-name="abreve.sc" horiz-adv-x="391" 
d="M196 596c-79 0 -120 54 -125 119c0 6 4 10 10 10h45c6 0 8 -4 10 -10c10 -29 30 -47 60 -47c31 0 51 18 61 47c2 6 4 10 10 10h45c6 0 10 -4 10 -10c-5 -65 -46 -119 -126 -119zM374 0h-81c-6 0 -9 4 -10 10l-21 87h-132l-21 -87c-1 -6 -4 -10 -10 -10h-81
c-6 0 -10 4 -8 10l134 502c2 7 6 10 12 10h80c6 0 10 -3 12 -10l134 -502c2 -6 -2 -10 -8 -10zM195 367l-43 -179h88l-42 179h-3z" />
    <glyph glyph-name="aring.sc" horiz-adv-x="391" 
d="M196 579c-51 0 -90 39 -90 90c0 52 39 91 90 91c52 0 91 -39 91 -91c0 -51 -39 -90 -91 -90zM196 622c27 0 46 20 46 47c0 28 -19 48 -46 48c-26 0 -45 -20 -45 -48c0 -27 19 -47 45 -47zM374 0h-81c-6 0 -9 4 -10 10l-21 87h-132l-21 -87c-1 -6 -4 -10 -10 -10h-81
c-6 0 -10 4 -8 10l134 502c2 7 6 10 12 10h80c6 0 10 -3 12 -10l134 -502c2 -6 -2 -10 -8 -10zM195 367l-43 -179h88l-42 179h-3z" />
    <glyph glyph-name="aringacute.sc" horiz-adv-x="391" 
d="M222 702h-55c-6 0 -10 5 -6 10l77 107c5 7 8 10 16 10h81c6 0 9 -5 5 -10l-98 -107c-7 -7 -12 -10 -20 -10zM374 0h-81c-6 0 -9 4 -10 10l-21 87h-132l-21 -87c-1 -6 -4 -10 -10 -10h-81c-6 0 -10 4 -8 10l130 486c-22 16 -35 42 -35 73c0 52 39 90 91 90
c51 0 90 -38 90 -90c0 -30 -13 -56 -34 -73l130 -486c2 -6 -2 -10 -8 -10zM150 569c0 -26 17 -45 42 -47h8c24 2 41 21 41 47c0 27 -19 47 -45 47c-27 0 -46 -20 -46 -47zM195 367l-43 -179h88l-42 179h-3z" />
    <glyph glyph-name="aogonek.sc" horiz-adv-x="391" 
d="M315 -190c-54 0 -90 29 -90 83c0 44 27 77 61 109l-3 8l-21 87h-133l-20 -87c-1 -6 -4 -10 -10 -10h-81c-6 0 -10 4 -8 10l134 502c2 7 6 10 12 10h80c6 0 10 -3 12 -10l134 -502c1 -5 0 -8 -4 -10c-39 -26 -69 -63 -69 -91c0 -16 8 -24 19 -24c8 0 13 2 18 5s11 1 13 -4
l21 -46c2 -5 0 -10 -5 -13c-13 -9 -39 -17 -60 -17zM240 188l-42 179h-3l-43 -179h88z" />
    <glyph glyph-name="ae.sc" horiz-adv-x="587" 
d="M549 0h-261c-6 0 -10 4 -10 10v81c0 4 -2 6 -6 6h-125l-33 -87c-2 -6 -7 -10 -13 -10h-84c-6 0 -9 4 -7 10l199 502c2 7 6 10 12 10h328c6 0 10 -4 10 -10v-74c0 -6 -4 -10 -10 -10h-164c-4 0 -6 -2 -6 -6v-106c0 -4 2 -6 6 -6h142c6 0 10 -4 10 -10v-74
c0 -6 -4 -10 -10 -10h-142c-4 0 -6 -2 -6 -6v-111c0 -4 2 -6 6 -6h164c6 0 10 -4 10 -10v-73c0 -6 -4 -10 -10 -10zM275 428l-93 -240h90c4 0 6 2 6 6v234h-3z" />
    <glyph glyph-name="aeacute.sc" horiz-adv-x="587" 
d="M549 0h-261c-6 0 -10 4 -10 10v81c0 4 -2 6 -6 6h-125l-33 -87c-2 -6 -7 -10 -13 -10h-84c-6 0 -9 4 -7 10l199 502c2 7 6 10 12 10h328c6 0 10 -4 10 -10v-74c0 -6 -4 -10 -10 -10h-164c-4 0 -6 -2 -6 -6v-106c0 -4 2 -6 6 -6h142c6 0 10 -4 10 -10v-74
c0 -6 -4 -10 -10 -10h-142c-4 0 -6 -2 -6 -6v-111c0 -4 2 -6 6 -6h164c6 0 10 -4 10 -10v-73c0 -6 -4 -10 -10 -10zM275 428l-93 -240h90c4 0 6 2 6 6v234h-3zM323 595h-57c-6 0 -9 4 -6 10l69 125c4 7 8 10 16 10h81c6 0 9 -5 5 -10l-90 -125c-6 -8 -10 -10 -18 -10z" />
    <glyph glyph-name="cacute.sc" horiz-adv-x="384" 
d="M217 595h-57c-6 0 -9 4 -6 10l69 125c4 7 8 10 16 10h81c6 0 9 -5 5 -10l-90 -125c-6 -8 -10 -10 -18 -10zM198 -9c-72 0 -126 37 -146 99c-8 25 -11 44 -11 171s3 146 11 170c20 63 74 100 146 100c83 0 144 -47 155 -135c1 -6 -3 -10 -8 -11l-76 -13c-6 -1 -11 3 -12 9
c-8 36 -25 56 -58 56c-25 0 -43 -12 -51 -37c-4 -13 -5 -24 -5 -139s1 -127 5 -140c8 -25 26 -37 51 -37c34 0 50 21 58 57c1 6 6 10 12 8l76 -12c5 -1 9 -5 8 -11c-11 -88 -72 -135 -155 -135z" />
    <glyph glyph-name="ccircumflex.sc" horiz-adv-x="384" 
d="M198 -9c-72 0 -126 37 -146 99c-8 25 -11 44 -11 171s3 146 11 170c20 63 74 100 146 100c83 0 144 -47 155 -135c1 -6 -3 -10 -8 -11l-76 -13c-6 -1 -11 3 -12 9c-8 36 -25 56 -58 56c-25 0 -43 -12 -51 -37c-4 -13 -5 -24 -5 -139s1 -127 5 -140c8 -25 26 -37 51 -37
c34 0 50 21 58 57c1 6 6 10 12 8l76 -12c5 -1 9 -5 8 -11c-11 -88 -72 -135 -155 -135zM326 595h-60c-8 0 -13 3 -19 10l-48 60h-2l-47 -60c-6 -7 -11 -10 -19 -10h-60c-6 0 -8 5 -4 10l88 125c4 6 9 10 17 10h52c8 0 14 -4 18 -10l88 -125c4 -5 2 -10 -4 -10z" />
    <glyph glyph-name="ccaron.sc" horiz-adv-x="384" 
d="M224 595h-52c-8 0 -13 4 -17 10l-88 125c-4 5 -2 10 4 10h60c8 0 13 -3 19 -10l47 -60h2l48 60c6 7 11 10 19 10h60c6 0 8 -5 4 -10l-88 -125c-4 -6 -10 -10 -18 -10zM198 -9c-72 0 -126 37 -146 99c-8 25 -11 44 -11 171s3 146 11 170c20 63 74 100 146 100
c83 0 144 -47 155 -135c1 -6 -3 -10 -8 -11l-76 -13c-6 -1 -11 3 -12 9c-8 36 -25 56 -58 56c-25 0 -43 -12 -51 -37c-4 -13 -5 -24 -5 -139s1 -127 5 -140c8 -25 26 -37 51 -37c34 0 50 21 58 57c1 6 6 10 12 8l76 -12c5 -1 9 -5 8 -11c-11 -88 -72 -135 -155 -135z" />
    <glyph glyph-name="cdotaccent.sc" horiz-adv-x="384" 
d="M239 614h-82c-6 0 -10 4 -10 10v86c0 6 4 10 10 10h82c6 0 10 -4 10 -10v-86c0 -6 -4 -10 -10 -10zM198 -9c-72 0 -126 37 -146 99c-8 25 -11 44 -11 171s3 146 11 170c20 63 74 100 146 100c83 0 144 -47 155 -135c1 -6 -3 -10 -8 -11l-76 -13c-6 -1 -11 3 -12 9
c-8 36 -25 56 -58 56c-25 0 -43 -12 -51 -37c-4 -13 -5 -24 -5 -139s1 -127 5 -140c8 -25 26 -37 51 -37c34 0 50 21 58 57c1 6 6 10 12 8l76 -12c5 -1 9 -5 8 -11c-11 -88 -72 -135 -155 -135z" />
    </font>
</defs>
</svg>
