<?xml version="1.0" standalone="no"?>
<!DOCTYPE svg PUBLIC "-//W3C//DTD SVG 1.1//EN" "http://www.w3.org/Graphics/SVG/1.1/DTD/svg11.dtd" >
<svg xmlns="http://www.w3.org/2000/svg" xmlns:xlink="http://www.w3.org/1999/xlink" version="1.1">
<metadata>
Created by FontForge 20161003 at Thu Feb 28 18:48:17 2019
 By www-data
Copyright (c) 2008 - 2009 Linotype GmbH, www.linotype.com. All rights reserved. This font software may not be reproduced, modified, disclosed or transferred without the express written approval of Linotype GmbH.
</metadata>
<defs>
<font id="DINNextLTPro-BoldCondensed" horiz-adv-x="416" >
  <font-face 
    font-family="DIN Next LT Pro"
    font-weight="700"
    font-stretch="condensed"
    units-per-em="1000"
    panose-1="2 11 8 6 2 2 3 5 2 3"
    ascent="750"
    descent="-250"
    x-height="484"
    cap-height="680"
    bbox="-97.617 -231 920 906"
    underline-thickness="50"
    underline-position="-100"
    stemh="89"
    stemv="86"
    unicode-range="U+0020-FB04"
  />
<missing-glyph horiz-adv-x="413" 
d="M0 10v660c0 6 4 10 10 10h393c6 0 10 -4 10 -10v-660c0 -6 -4 -10 -10 -10h-393c-6 0 -10 4 -10 10zM65 67c0 -4 2 -6 6 -6h271c4 0 6 2 6 6v546c0 4 -2 6 -6 6h-271c-4 0 -6 -2 -6 -6v-546zM174 235c-6 0 -10 4 -10 10v37c0 17 5 31 15 48l36 60c14 23 16 35 16 61
c0 12 -1 18 -3 24c-4 11 -11 17 -24 17s-21 -6 -25 -17c-2 -5 -3 -12 -3 -37c0 -6 -5 -10 -11 -9l-59 7c-6 1 -9 5 -9 11c0 27 2 40 6 51c13 39 50 65 102 65s89 -26 102 -65c4 -11 6 -25 6 -44c0 -32 -6 -53 -22 -80l-35 -60c-8 -13 -11 -23 -11 -37v-32
c0 -6 -4 -10 -10 -10h-61zM166 124v68c0 6 4 10 10 10h59c6 0 10 -4 10 -10v-68c0 -6 -4 -10 -10 -10h-59c-6 0 -10 4 -10 10z" />
    <glyph glyph-name="napostrophe" unicode="&#x22;n" horiz-adv-x="419" 
d="M-24 494c-6 0 -9 3 -9 10v166c0 6 4 10 10 10h81c6 0 10 -4 10 -10v-69c0 -12 -3 -16 -9 -23l-70 -77c-4 -5 -8 -7 -13 -7zM368 0h-105c-6 0 -10 4 -10 10v315c0 38 -14 57 -42 57s-42 -19 -42 -57v-315c0 -6 -4 -10 -10 -10h-105c-6 0 -10 4 -10 10v464c0 6 4 10 10 10
h104c6 0 10 -4 10 -10v-37h1c17 33 48 56 95 56c77 0 114 -45 114 -149v-334c0 -6 -4 -10 -10 -10z" />
    <glyph glyph-name="IJ" unicode="IJ" horiz-adv-x="592" 
d="M46 10v660c0 6 4 10 10 10h111c6 0 10 -4 10 -10v-660c0 -6 -4 -10 -10 -10h-111c-6 0 -10 4 -10 10zM236 41c-4 5 -4 10 1 14l72 70c5 4 9 4 15 -1c10 -9 23 -15 38 -15c35 0 54 19 54 66v495c0 6 4 10 10 10h111c6 0 10 -4 10 -10v-483c0 -137 -73 -196 -186 -196
c-52 0 -99 18 -125 50z" />
    <glyph glyph-name="ij" unicode="ij" horiz-adv-x="426" 
d="M159 562h-105c-6 0 -10 4 -10 10v98c0 6 4 10 10 10h105c6 0 10 -4 10 -10v-98c0 -6 -4 -10 -10 -10zM159 0h-105c-6 0 -10 4 -10 10v464c0 6 4 10 10 10h105c6 0 10 -4 10 -10v-464c0 -6 -4 -10 -10 -10zM372 562h-105c-6 0 -10 4 -10 10v98c0 6 4 10 10 10h105
c6 0 10 -4 10 -10v-98c0 -6 -4 -10 -10 -10zM219 -180h-17c-6 0 -10 4 -10 10v90c0 6 4 10 10 10l14 1c28 2 41 15 41 57v486c0 6 4 10 10 10h105c6 0 10 -4 10 -10v-486c0 -113 -52 -168 -163 -168z" />
    <glyph glyph-name="fi" unicode="fi" horiz-adv-x="492" 
d="M181 0h-105c-6 0 -10 4 -10 10v375c0 4 -2 6 -6 6h-31c-6 0 -10 4 -10 10v73c0 6 4 10 10 10h31c4 0 6 2 6 6v30c0 104 47 160 160 160h28c6 0 10 -4 10 -10v-90c0 -6 -4 -10 -10 -10h-26c-28 0 -37 -10 -37 -36v-44c0 -4 2 -6 6 -6h57c6 0 10 -4 10 -10v-73
c0 -6 -4 -10 -10 -10h-57c-4 0 -6 -2 -6 -6v-375c0 -6 -4 -10 -10 -10zM438 562h-105c-6 0 -10 4 -10 10v98c0 6 4 10 10 10h105c6 0 10 -4 10 -10v-98c0 -6 -4 -10 -10 -10zM438 0h-105c-6 0 -10 4 -10 10v464c0 6 4 10 10 10h105c6 0 10 -4 10 -10v-464
c0 -6 -4 -10 -10 -10z" />
    <glyph glyph-name="fl" unicode="fl" horiz-adv-x="524" 
d="M181 0h-105c-6 0 -10 4 -10 10v375c0 4 -2 6 -6 6h-31c-6 0 -10 4 -10 10v73c0 6 4 10 10 10h31c4 0 6 2 6 6v30c0 104 47 160 160 160h28c6 0 10 -4 10 -10v-90c0 -6 -4 -10 -10 -10h-26c-28 0 -37 -10 -37 -36v-44c0 -4 2 -6 6 -6h57c6 0 10 -4 10 -10v-73
c0 -6 -4 -10 -10 -10h-57c-4 0 -6 -2 -6 -6v-375c0 -6 -4 -10 -10 -10zM492 -6h-11c-114 2 -159 43 -159 162v514c0 6 4 10 10 10h105c6 0 10 -4 10 -10v-513c0 -32 14 -47 40 -51l5 -1c6 -1 10 -5 10 -11v-90c0 -6 -4 -10 -10 -10z" />
    <glyph glyph-name="f_f" unicode="ff" horiz-adv-x="558" 
d="M181 0h-105c-6 0 -10 4 -10 10v375c0 4 -2 6 -6 6h-31c-6 0 -10 4 -10 10v73c0 6 4 10 10 10h31c4 0 6 2 6 6v30c0 104 47 160 160 160h28c6 0 10 -4 10 -10v-90c0 -6 -4 -10 -10 -10h-26c-28 0 -37 -10 -37 -36v-44c0 -4 2 -6 6 -6h57c6 0 10 -4 10 -10v-73
c0 -6 -4 -10 -10 -10h-57c-4 0 -6 -2 -6 -6v-375c0 -6 -4 -10 -10 -10zM460 0h-105c-6 0 -10 4 -10 10v375c0 4 -2 6 -6 6h-31c-6 0 -10 4 -10 10v73c0 6 4 10 10 10h31c4 0 6 2 6 6v30c0 104 47 160 160 160h28c6 0 10 -4 10 -10v-90c0 -6 -4 -10 -10 -10h-26
c-28 0 -37 -10 -37 -36v-44c0 -4 2 -6 6 -6h57c6 0 10 -4 10 -10v-73c0 -6 -4 -10 -10 -10h-57c-4 0 -6 -2 -6 -6v-375c0 -6 -4 -10 -10 -10z" />
    <glyph glyph-name="f_f_i" unicode="ffi" horiz-adv-x="771" 
d="M181 0h-105c-6 0 -10 4 -10 10v375c0 4 -2 6 -6 6h-31c-6 0 -10 4 -10 10v73c0 6 4 10 10 10h31c4 0 6 2 6 6v30c0 104 47 160 160 160h28c6 0 10 -4 10 -10v-90c0 -6 -4 -10 -10 -10h-26c-28 0 -37 -10 -37 -36v-44c0 -4 2 -6 6 -6h57c6 0 10 -4 10 -10v-73
c0 -6 -4 -10 -10 -10h-57c-4 0 -6 -2 -6 -6v-375c0 -6 -4 -10 -10 -10zM460 0h-105c-6 0 -10 4 -10 10v375c0 4 -2 6 -6 6h-31c-6 0 -10 4 -10 10v73c0 6 4 10 10 10h31c4 0 6 2 6 6v30c0 104 47 160 160 160h28c6 0 10 -4 10 -10v-90c0 -6 -4 -10 -10 -10h-26
c-28 0 -37 -10 -37 -36v-44c0 -4 2 -6 6 -6h57c6 0 10 -4 10 -10v-73c0 -6 -4 -10 -10 -10h-57c-4 0 -6 -2 -6 -6v-375c0 -6 -4 -10 -10 -10zM717 562h-105c-6 0 -10 4 -10 10v98c0 6 4 10 10 10h105c6 0 10 -4 10 -10v-98c0 -6 -4 -10 -10 -10zM717 0h-105
c-6 0 -10 4 -10 10v464c0 6 4 10 10 10h105c6 0 10 -4 10 -10v-464c0 -6 -4 -10 -10 -10z" />
    <glyph glyph-name="f_f_l" unicode="ffl" horiz-adv-x="803" 
d="M181 0h-105c-6 0 -10 4 -10 10v375c0 4 -2 6 -6 6h-31c-6 0 -10 4 -10 10v73c0 6 4 10 10 10h31c4 0 6 2 6 6v30c0 104 47 160 160 160h28c6 0 10 -4 10 -10v-90c0 -6 -4 -10 -10 -10h-26c-28 0 -37 -10 -37 -36v-44c0 -4 2 -6 6 -6h57c6 0 10 -4 10 -10v-73
c0 -6 -4 -10 -10 -10h-57c-4 0 -6 -2 -6 -6v-375c0 -6 -4 -10 -10 -10zM460 0h-105c-6 0 -10 4 -10 10v375c0 4 -2 6 -6 6h-31c-6 0 -10 4 -10 10v73c0 6 4 10 10 10h31c4 0 6 2 6 6v30c0 104 47 160 160 160h28c6 0 10 -4 10 -10v-90c0 -6 -4 -10 -10 -10h-26
c-28 0 -37 -10 -37 -36v-44c0 -4 2 -6 6 -6h57c6 0 10 -4 10 -10v-73c0 -6 -4 -10 -10 -10h-57c-4 0 -6 -2 -6 -6v-375c0 -6 -4 -10 -10 -10zM771 -6h-11c-114 2 -159 43 -159 162v514c0 6 4 10 10 10h105c6 0 10 -4 10 -10v-513c0 -32 14 -47 40 -51l5 -1
c6 -1 10 -5 10 -11v-90c0 -6 -4 -10 -10 -10z" />
    <glyph glyph-name=".notdef" horiz-adv-x="413" 
d="M0 10v660c0 6 4 10 10 10h393c6 0 10 -4 10 -10v-660c0 -6 -4 -10 -10 -10h-393c-6 0 -10 4 -10 10zM65 67c0 -4 2 -6 6 -6h271c4 0 6 2 6 6v546c0 4 -2 6 -6 6h-271c-4 0 -6 -2 -6 -6v-546zM174 235c-6 0 -10 4 -10 10v37c0 17 5 31 15 48l36 60c14 23 16 35 16 61
c0 12 -1 18 -3 24c-4 11 -11 17 -24 17s-21 -6 -25 -17c-2 -5 -3 -12 -3 -37c0 -6 -5 -10 -11 -9l-59 7c-6 1 -9 5 -9 11c0 27 2 40 6 51c13 39 50 65 102 65s89 -26 102 -65c4 -11 6 -25 6 -44c0 -32 -6 -53 -22 -80l-35 -60c-8 -13 -11 -23 -11 -37v-32
c0 -6 -4 -10 -10 -10h-61zM166 124v68c0 6 4 10 10 10h59c6 0 10 -4 10 -10v-68c0 -6 -4 -10 -10 -10h-59c-6 0 -10 4 -10 10z" />
    <glyph glyph-name=".null" horiz-adv-x="500" 
 />
    <glyph glyph-name="CR" horiz-adv-x="0" 
 />
    <glyph glyph-name="space" unicode=" " horiz-adv-x="195" 
 />
    <glyph glyph-name="exclam" unicode="!" horiz-adv-x="249" 
d="M93 187c-6 0 -10 4 -10 10l-25 473c0 6 4 10 10 10h113c6 0 10 -4 10 -10l-25 -473c0 -6 -4 -10 -10 -10h-63zM63 10v116c0 6 4 10 10 10h102c6 0 10 -4 10 -10v-116c0 -6 -4 -10 -10 -10h-102c-6 0 -10 4 -10 10z" />
    <glyph glyph-name="quotedbl" unicode="&#x22;" horiz-adv-x="301" 
d="M183 477c-6 0 -10 4 -10 10v183c0 6 4 10 10 10h70c6 0 10 -4 10 -10v-183c0 -6 -4 -10 -10 -10h-70zM48 477c-6 0 -10 4 -10 10v183c0 6 4 10 10 10h70c6 0 10 -4 10 -10v-183c0 -6 -4 -10 -10 -10h-70z" />
    <glyph glyph-name="numbersign" unicode="#" horiz-adv-x="514" 
d="M81 10l20 196h-49c-6 0 -10 4 -10 10v67c0 6 4 10 10 10h58l11 107h-50c-6 0 -10 4 -10 10v67c0 6 4 10 10 10h59l20 183c1 6 4 10 11 10h76c7 0 10 -4 9 -10l-20 -183h82l20 183c1 6 4 10 11 10h76c7 0 10 -4 9 -10l-20 -183h59c6 0 10 -4 10 -10v-67
c0 -6 -4 -10 -10 -10h-68l-11 -107h60c6 0 10 -4 10 -10v-67c0 -6 -4 -10 -10 -10h-69l-20 -196c-1 -6 -4 -10 -11 -10h-76c-7 0 -10 4 -9 10l20 196h-82l-20 -196c-1 -6 -4 -10 -11 -10h-76c-7 0 -10 4 -9 10zM206 293h82l11 107h-82z" />
    <glyph glyph-name="dollar" unicode="$" 
d="M33 169c0 6 2 10 8 11l98 17c8 1 11 -2 11 -8c1 -68 19 -88 57 -88c36 0 51 15 51 84c0 64 -13 87 -62 106l-41 16c-87 34 -116 85 -116 192c0 111 44 177 138 188v50c0 6 4 10 10 10h45c6 0 10 -4 10 -10v-51c89 -12 126 -70 134 -163c0 -6 -3 -10 -9 -11l-95 -15
c-6 -1 -11 2 -11 8c-4 55 -17 74 -52 74s-48 -20 -48 -72c0 -51 9 -71 61 -91l41 -16c86 -34 117 -84 117 -200c0 -131 -44 -196 -138 -207v-61c0 -6 -4 -10 -10 -10h-45c-6 0 -10 4 -10 10v61c-101 10 -141 71 -144 176z" />
    <glyph glyph-name="percent" unicode="%" horiz-adv-x="706" 
d="M183 1l253 678c3 7 7 10 14 10h67c6 0 9 -4 7 -10l-254 -678c-2 -7 -7 -10 -13 -10h-67c-6 0 -9 4 -7 10zM169 329c-54 0 -89 25 -102 66c-7 20 -9 35 -9 113c0 77 2 92 9 112c13 41 48 67 102 67c55 0 90 -26 103 -67c7 -20 8 -35 8 -112c0 -78 -1 -93 -8 -113
c-13 -41 -48 -66 -103 -66zM169 402c12 0 19 5 22 14c2 6 3 14 3 92c0 77 -1 85 -3 91c-3 9 -10 15 -22 15s-19 -6 -22 -15c-2 -6 -3 -14 -3 -91c0 -78 1 -86 3 -92c3 -9 10 -14 22 -14zM435 60c-7 20 -9 35 -9 112c0 78 2 93 9 113c13 41 48 66 102 66c55 0 90 -25 103 -66
c7 -20 8 -35 8 -113c0 -77 -1 -92 -8 -112c-13 -41 -48 -67 -103 -67c-54 0 -89 26 -102 67zM515 81c3 -9 10 -15 22 -15s19 6 22 15c2 6 3 14 3 91c0 78 -1 86 -3 92c-3 9 -10 14 -22 14s-19 -5 -22 -14c-2 -6 -3 -14 -3 -92c0 -77 1 -85 3 -91z" />
    <glyph glyph-name="ampersand" unicode="&#x26;" horiz-adv-x="555" 
d="M55 148c0 68 37 128 114 213l-8 14c-41 64 -65 112 -65 165c0 90 65 149 157 149s157 -58 157 -149c0 -51 -24 -102 -102 -190l61 -97l42 67c3 5 8 7 14 3l67 -44c5 -3 6 -8 3 -14l-67 -107l19 -30c11 -19 20 -23 34 -23h4c6 0 10 -4 10 -10v-85c0 -6 -4 -10 -10 -10h-38
c-40 0 -57 10 -78 43l-9 14c-41 -48 -86 -66 -146 -66c-96 0 -159 61 -159 157zM249 446c40 46 49 69 49 99c0 32 -17 51 -45 51s-44 -19 -44 -51c0 -17 7 -43 40 -99zM172 155c0 -36 22 -57 53 -57c25 0 46 10 77 51l-73 117c-41 -48 -57 -78 -57 -111z" />
    <glyph glyph-name="quotesingle" unicode="'" horiz-adv-x="166" 
d="M48 477c-6 0 -10 4 -10 10v183c0 6 4 10 10 10h70c6 0 10 -4 10 -10v-183c0 -6 -4 -10 -10 -10h-70z" />
    <glyph glyph-name="parenleft" unicode="(" horiz-adv-x="277" 
d="M152 -74c-61 120 -92 265 -92 402s31 282 92 402c3 6 7 10 13 10h68c6 0 9 -4 7 -10c-38 -120 -60 -265 -60 -402s22 -282 60 -402c2 -6 -1 -10 -7 -10h-68c-6 0 -10 4 -13 10z" />
    <glyph glyph-name="parenright" unicode=")" horiz-adv-x="277" 
d="M37 -74c38 120 60 265 60 402s-22 282 -60 402c-2 6 1 10 7 10h68c6 0 10 -4 13 -10c61 -120 92 -265 92 -402s-31 -282 -92 -402c-3 -6 -7 -10 -13 -10h-68c-6 0 -9 4 -7 10z" />
    <glyph glyph-name="asterisk" unicode="*" horiz-adv-x="345" 
d="M147 376c-6 0 -10 4 -10 10l1 82l-58 -35c-5 -3 -10 -1 -13 4l-26 44c-3 5 -2 11 3 14l59 33l-59 33c-5 3 -6 9 -3 14l26 44c3 5 8 7 13 4l58 -35l-1 82c0 6 4 10 10 10h51c6 0 10 -4 10 -10l-1 -82l58 35c5 3 10 1 13 -4l26 -44c3 -5 2 -11 -3 -14l-60 -33l60 -33
c5 -3 6 -9 3 -14l-26 -44c-3 -5 -8 -7 -13 -4l-58 34l1 -81c0 -6 -4 -10 -10 -10h-51z" />
    <glyph glyph-name="plus" unicode="+" 
d="M154 110v108c0 4 -2 6 -6 6h-105c-6 0 -10 4 -10 10v84c0 6 4 10 10 10h105c4 0 6 2 6 6v108c0 6 4 10 10 10h88c6 0 10 -4 10 -10v-108c0 -4 2 -6 6 -6h105c6 0 10 -4 10 -10v-84c0 -6 -4 -10 -10 -10h-105c-4 0 -6 -2 -6 -6v-108c0 -6 -4 -10 -10 -10h-88
c-6 0 -10 4 -10 10z" />
    <glyph glyph-name="comma" unicode="," horiz-adv-x="201" 
d="M43 -92v218c0 6 4 10 10 10h95c6 0 10 -4 10 -10v-96c0 -13 -2 -20 -8 -27l-86 -99c-3 -4 -6 -6 -11 -6c-6 0 -10 4 -10 10z" />
    <glyph glyph-name="hyphen" unicode="-" horiz-adv-x="366" 
d="M49 208c-6 0 -10 4 -10 10v94c0 6 4 10 10 10h268c6 0 10 -4 10 -10v-94c0 -6 -4 -10 -10 -10h-268z" />
    <glyph glyph-name="period" unicode="." horiz-adv-x="208" 
d="M43 10v116c0 6 4 10 10 10h102c6 0 10 -4 10 -10v-116c0 -6 -4 -10 -10 -10h-102c-6 0 -10 4 -10 10z" />
    <glyph glyph-name="slash" unicode="/" horiz-adv-x="263" 
d="M19 1l125 678c1 6 5 10 11 10h80c6 0 10 -4 9 -10l-125 -678c-1 -7 -5 -10 -11 -10h-80c-6 0 -10 4 -9 10z" />
    <glyph glyph-name="zero" unicode="0" 
d="M51 93c-8 25 -11 52 -11 247s4 222 12 247c21 66 76 102 156 102s137 -35 157 -102c8 -25 11 -52 11 -247s-3 -222 -11 -247c-20 -67 -77 -102 -157 -102s-136 36 -157 102zM170 127c5 -16 18 -26 38 -26c21 0 33 10 38 26c3 10 4 22 4 213s-1 203 -4 213
c-5 16 -18 26 -38 26s-33 -10 -38 -26c-3 -10 -4 -22 -4 -213s1 -203 4 -213z" />
    <glyph glyph-name="one" unicode="1" 
d="M160 10v528h-2l-85 -59c-5 -4 -11 -2 -11 6v108c0 7 2 11 9 16l88 65c6 4 10 6 17 6h99c6 0 10 -4 10 -10v-660c0 -6 -4 -10 -10 -10h-105c-6 0 -10 4 -10 10z" />
    <glyph glyph-name="two" unicode="2" 
d="M42 10v89c0 7 1 11 5 19l171 279c22 35 30 58 30 113c0 25 -1 34 -4 42c-6 18 -18 27 -39 27c-20 0 -32 -9 -38 -27c-3 -8 -4 -17 -4 -57c0 -8 -5 -11 -12 -10l-99 9c-7 1 -10 5 -10 12c0 39 3 62 9 82c21 64 73 101 157 101c83 0 134 -36 156 -101c6 -19 9 -43 9 -78
c0 -76 -15 -116 -48 -169l-142 -228v-1h180c6 0 10 -4 10 -10v-92c0 -6 -4 -10 -10 -10h-311c-6 0 -10 4 -10 10z" />
    <glyph glyph-name="three" unicode="3" 
d="M50 92c-6 20 -9 43 -9 74c0 7 3 11 10 12l100 10c7 1 12 -2 12 -10c0 -33 1 -42 3 -50c6 -18 18 -27 39 -27c20 0 32 8 38 26c3 8 4 18 4 71c0 54 -1 64 -4 71c-6 19 -20 25 -44 25h-15c-6 0 -10 4 -10 10v93c0 6 4 10 10 10h16c23 0 37 6 43 24c3 7 4 16 4 66
c0 38 -1 48 -4 56c-6 18 -18 26 -38 26c-21 0 -33 -9 -39 -27c-2 -8 -3 -17 -3 -50c0 -8 -5 -11 -12 -10l-100 10c-7 1 -10 5 -10 12c0 31 3 54 9 74c21 64 74 101 156 101c85 0 136 -36 157 -100c6 -19 9 -45 9 -92c0 -45 -2 -63 -7 -79c-9 -28 -27 -47 -52 -62v-2
c26 -15 43 -33 52 -62c5 -16 7 -33 7 -95c0 -61 -3 -87 -9 -106c-21 -64 -73 -100 -157 -100c-82 0 -135 37 -156 101z" />
    <glyph glyph-name="four" unicode="4" 
d="M31 101c-6 0 -10 4 -10 10v96c0 4 1 8 2 11l136 454c2 6 4 8 11 8h105c6 0 10 -4 8 -11l-135 -454v-2h73c4 0 6 2 6 6v153c0 6 4 10 10 10h102c6 0 10 -4 10 -10v-153c0 -4 1 -6 5 -6h30c6 0 10 -4 10 -10v-92c0 -6 -4 -10 -10 -10h-29c-4 0 -6 -2 -6 -6v-85
c0 -6 -4 -10 -10 -10h-102c-6 0 -10 4 -10 10v85c0 4 -2 6 -6 6h-190z" />
    <glyph glyph-name="five" unicode="5" 
d="M52 92c-6 20 -9 43 -9 67c0 7 3 11 10 12l99 10c7 1 12 -2 12 -10c0 -26 1 -35 4 -43c6 -18 18 -27 38 -27c21 0 33 8 39 26c3 8 4 18 4 92s-1 84 -4 92c-6 18 -19 27 -39 27c-22 0 -34 -11 -40 -28c-2 -7 -6 -9 -14 -9h-89c-6 0 -10 3 -10 10v359c0 6 4 10 10 10h300
c6 0 10 -4 10 -10v-92c0 -6 -4 -10 -10 -10h-193c-4 0 -6 -2 -6 -6v-142h1c15 15 41 26 75 26c65 0 105 -27 123 -84c8 -23 11 -47 11 -143c0 -83 -3 -108 -9 -127c-22 -65 -74 -101 -157 -101s-135 37 -156 101z" />
    <glyph glyph-name="six" unicode="6" 
d="M50 93c-6 20 -9 43 -9 106c0 93 10 133 35 193l115 278c3 7 7 10 15 10h106c7 0 10 -5 7 -12l-109 -265s2 -1 2 -2c5 3 16 5 30 5c66 0 102 -35 122 -95c7 -20 11 -48 11 -112c0 -63 -3 -86 -9 -106c-21 -65 -75 -102 -158 -102s-137 37 -158 102zM170 128
c6 -18 18 -27 38 -27s32 9 38 27c3 8 4 17 4 71s-1 64 -4 72c-6 18 -18 27 -38 27s-32 -9 -38 -27c-3 -8 -4 -18 -4 -72s1 -63 4 -71z" />
    <glyph glyph-name="seven" unicode="7" 
d="M82 12l168 555v2h-92c-4 0 -6 -2 -6 -6v-56c0 -6 -4 -10 -10 -10h-90c-6 0 -10 4 -10 10v163c0 6 4 10 10 10h314c6 0 10 -4 10 -10v-90c0 -4 -1 -8 -2 -11l-166 -559c-2 -7 -5 -10 -13 -10h-106c-6 0 -9 4 -7 12z" />
    <glyph glyph-name="eight" unicode="8" 
d="M50 93c-6 20 -9 42 -9 105c0 51 2 71 9 93c9 28 26 50 47 64v2c-22 14 -38 37 -47 65c-7 20 -9 41 -9 76c0 46 3 69 9 89c21 65 75 102 158 102s137 -37 158 -102c6 -20 9 -43 9 -89c0 -35 -3 -56 -9 -76c-9 -28 -24 -51 -47 -65v-2c22 -14 38 -36 47 -64
c7 -22 9 -42 9 -93c0 -63 -3 -85 -9 -105c-21 -65 -75 -102 -158 -102s-137 37 -158 102zM208 408c20 0 32 9 38 27c3 9 4 21 4 59s-1 49 -4 58c-6 18 -18 27 -38 27s-32 -9 -38 -27c-3 -9 -4 -20 -4 -58s1 -50 4 -59c6 -18 18 -27 38 -27zM170 128c6 -17 18 -27 38 -27
s32 10 38 27c3 9 4 18 4 72s-1 62 -4 71c-6 17 -18 27 -38 27s-32 -10 -38 -27c-3 -9 -4 -17 -4 -71s1 -63 4 -72z" />
    <glyph glyph-name="nine" unicode="9" 
d="M97 12l109 265s-2 1 -2 2c-5 -3 -16 -5 -30 -5c-66 0 -102 35 -122 95c-7 20 -11 48 -11 112c0 63 3 86 9 106c21 65 75 102 158 102s137 -37 158 -102c6 -20 9 -43 9 -106c0 -93 -10 -133 -35 -193l-115 -278c-3 -7 -7 -10 -15 -10h-106c-7 0 -10 5 -7 12zM208 382
c20 0 32 9 38 27c3 8 4 18 4 72s-1 63 -4 71c-6 18 -18 27 -38 27s-32 -9 -38 -27c-3 -8 -4 -17 -4 -71s1 -64 4 -72c6 -18 18 -27 38 -27z" />
    <glyph glyph-name="colon" unicode=":" horiz-adv-x="221" 
d="M60 348c-6 0 -10 4 -10 10v116c0 6 4 10 10 10h102c6 0 10 -4 10 -10v-116c0 -6 -4 -10 -10 -10h-102zM50 10v116c0 6 4 10 10 10h102c6 0 10 -4 10 -10v-116c0 -6 -4 -10 -10 -10h-102c-6 0 -10 4 -10 10z" />
    <glyph glyph-name="semicolon" unicode=";" horiz-adv-x="221" 
d="M60 348c-6 0 -10 4 -10 10v116c0 6 4 10 10 10h102c6 0 10 -4 10 -10v-116c0 -6 -4 -10 -10 -10h-102zM53 -90v216c0 6 4 10 10 10h94c6 0 10 -4 10 -10v-93c0 -13 -2 -20 -8 -28l-86 -99c-3 -3 -6 -5 -11 -5c-6 0 -9 3 -9 9z" />
    <glyph glyph-name="less" unicode="&#x3c;" 
d="M43 225c-6 2 -10 7 -10 14v74c0 7 4 12 10 14l330 133c6 2 10 -1 10 -7v-91c0 -6 -2 -10 -10 -13l-190 -72v-2l190 -72c8 -3 10 -7 10 -13v-90c0 -6 -4 -9 -10 -7z" />
    <glyph glyph-name="equal" unicode="=" 
d="M43 320c-6 0 -10 4 -10 10v84c0 6 4 10 10 10h330c6 0 10 -4 10 -10v-84c0 -6 -4 -10 -10 -10h-330zM43 128c-6 0 -10 4 -10 10v84c0 6 4 10 10 10h330c6 0 10 -4 10 -10v-84c0 -6 -4 -10 -10 -10h-330z" />
    <glyph glyph-name="greater" unicode="&#x3e;" 
d="M43 93c-6 -2 -10 1 -10 7v90c0 6 3 10 10 13l190 72v2l-190 72c-7 3 -10 7 -10 13v91c0 6 4 9 10 7l330 -133c7 -2 10 -7 10 -14v-74c0 -7 -3 -12 -10 -14z" />
    <glyph glyph-name="question" unicode="?" horiz-adv-x="404" 
d="M138 187c-6 0 -10 4 -10 10v61c0 27 8 49 23 75l53 92c20 33 27 54 27 96c0 14 -1 25 -4 33c-6 18 -18 25 -39 25c-20 0 -32 -8 -38 -26c-3 -8 -4 -18 -4 -58c0 -8 -5 -11 -11 -10l-100 10c-7 1 -10 5 -10 12c0 43 3 62 9 80c21 64 78 102 157 102c83 0 135 -41 156 -102
c6 -19 9 -39 9 -66c0 -46 -10 -79 -33 -119l-54 -94c-12 -21 -18 -36 -18 -56v-55c0 -6 -4 -10 -10 -10h-103zM130 10v116c0 6 4 10 10 10h102c6 0 10 -4 10 -10v-116c0 -6 -4 -10 -10 -10h-102c-6 0 -10 4 -10 10z" />
    <glyph glyph-name="at" unicode="@" horiz-adv-x="689" 
d="M50 71c-13 38 -20 81 -20 198c0 116 7 159 20 197c42 128 152 202 294 202c143 0 253 -74 295 -202c13 -38 20 -81 20 -197c0 -81 -4 -105 -11 -125c-20 -62 -69 -87 -125 -87c-55 0 -96 24 -116 67h-1c-17 -46 -43 -67 -98 -67c-47 0 -79 20 -93 66
c-8 22 -11 50 -11 142c0 91 3 119 11 142c14 45 44 65 90 65c39 0 61 -17 75 -46h2v29c0 6 4 10 10 10h83c6 0 10 -4 10 -10v-263c0 -31 14 -47 38 -47c17 0 30 9 35 25c2 7 3 15 3 99c0 114 -5 145 -14 173c-29 87 -101 136 -203 136c-101 0 -174 -49 -202 -136
c-9 -28 -15 -59 -15 -173s6 -146 15 -174c28 -87 101 -136 202 -136c64 0 111 16 151 42c5 3 10 2 14 -3l38 -53c3 -5 2 -11 -3 -14c-55 -39 -122 -62 -200 -62c-142 0 -252 74 -294 202zM310 173c5 -16 17 -24 34 -24s29 8 34 24c3 8 4 18 4 92c0 73 -1 83 -4 91
c-5 16 -17 24 -34 24s-29 -8 -34 -24c-2 -8 -3 -18 -3 -91c0 -74 1 -84 3 -92z" />
    <glyph glyph-name="A" unicode="A" horiz-adv-x="452" 
d="M9 10l148 660c2 6 5 10 11 10h118c6 0 10 -4 11 -10l146 -660c1 -6 -2 -10 -8 -10h-111c-7 0 -10 4 -11 10l-22 123h-129l-23 -123c-1 -6 -4 -10 -11 -10h-111c-6 0 -9 4 -8 10zM181 237h91l-43 236h-3z" />
    <glyph glyph-name="B" unicode="B" horiz-adv-x="445" 
d="M46 10v660c0 6 4 10 10 10h172c126 0 182 -58 182 -177c0 -83 -28 -125 -78 -147v-2c50 -15 86 -63 86 -154c0 -150 -68 -200 -201 -200h-161c-6 0 -10 4 -10 10zM183 401h29c51 0 67 17 67 84c0 66 -16 84 -67 84h-29c-4 0 -6 -2 -6 -6v-156c0 -4 2 -6 6 -6zM177 117
c0 -4 2 -6 6 -6h29c55 0 74 22 74 94c0 71 -19 92 -74 92h-29c-4 0 -6 -2 -6 -6v-174z" />
    <glyph glyph-name="C" unicode="C" horiz-adv-x="413" 
d="M49 104c-9 29 -13 60 -13 236s4 207 13 236c24 73 79 113 169 113c109 0 173 -58 179 -172c0 -6 -2 -11 -9 -12l-105 -18c-6 -1 -11 2 -11 9c-2 54 -19 75 -52 75c-24 0 -38 -10 -45 -31c-4 -15 -6 -27 -6 -200s2 -185 6 -200c7 -21 21 -31 45 -31c33 0 50 21 52 75
c0 7 5 10 11 9l105 -18c7 -1 9 -6 9 -12c-6 -114 -70 -172 -179 -172c-90 0 -145 40 -169 113z" />
    <glyph glyph-name="D" unicode="D" horiz-adv-x="456" 
d="M46 10v660c0 6 4 10 10 10h172c94 0 149 -36 174 -113c12 -38 18 -84 18 -227s-6 -189 -18 -227c-25 -77 -80 -113 -174 -113h-172c-6 0 -10 4 -10 10zM177 124c0 -4 2 -6 6 -6h32c33 0 51 12 61 42c8 21 11 50 11 180s-3 159 -11 180c-10 30 -28 42 -61 42h-32
c-4 0 -6 -2 -6 -6v-432z" />
    <glyph glyph-name="E" unicode="E" horiz-adv-x="390" 
d="M46 10v660c0 6 4 10 10 10h297c6 0 10 -4 10 -10v-98c0 -6 -4 -10 -10 -10h-170c-4 0 -6 -2 -6 -6v-148c0 -4 2 -6 6 -6h147c6 0 10 -4 10 -10v-98c0 -6 -4 -10 -10 -10h-147c-4 0 -6 -2 -6 -6v-154c0 -4 2 -6 6 -6h170c6 0 10 -4 10 -10v-98c0 -6 -4 -10 -10 -10h-297
c-6 0 -10 4 -10 10z" />
    <glyph glyph-name="F" unicode="F" horiz-adv-x="386" 
d="M46 10v660c0 6 4 10 10 10h297c6 0 10 -4 10 -10v-98c0 -6 -4 -10 -10 -10h-170c-4 0 -6 -2 -6 -6v-154c0 -4 2 -6 6 -6h147c6 0 10 -4 10 -10v-99c0 -6 -4 -10 -10 -10h-147c-4 0 -6 -2 -6 -6v-261c0 -6 -4 -10 -10 -10h-111c-6 0 -10 4 -10 10z" />
    <glyph glyph-name="G" unicode="G" horiz-adv-x="445" 
d="M49 105c-10 32 -13 60 -13 235s3 203 13 235c25 74 84 114 175 114c110 0 174 -59 183 -169c1 -6 -2 -11 -8 -12l-106 -18c-6 -1 -10 2 -11 9c-3 49 -23 72 -57 72c-24 0 -44 -13 -50 -32c-5 -16 -6 -24 -6 -199c0 -174 1 -183 6 -198c6 -20 27 -33 52 -33s46 13 52 33
c4 14 6 24 6 124c0 4 -2 6 -6 6h-43c-6 0 -10 4 -10 10v88c0 6 4 10 10 10h165c6 0 10 -4 10 -10v-30c0 -175 -3 -203 -14 -234c-25 -75 -84 -115 -173 -115c-91 0 -150 40 -175 114z" />
    <glyph glyph-name="H" unicode="H" horiz-adv-x="461" 
d="M46 10v660c0 6 4 10 10 10h111c6 0 10 -4 10 -10v-258c0 -4 2 -6 6 -6h95c4 0 6 2 6 6v258c0 6 4 10 10 10h111c6 0 10 -4 10 -10v-660c0 -6 -4 -10 -10 -10h-111c-6 0 -10 4 -10 10v272c0 4 -2 6 -6 6h-95c-4 0 -6 -2 -6 -6v-272c0 -6 -4 -10 -10 -10h-111
c-6 0 -10 4 -10 10z" />
    <glyph glyph-name="I" unicode="I" horiz-adv-x="223" 
d="M46 10v660c0 6 4 10 10 10h111c6 0 10 -4 10 -10v-660c0 -6 -4 -10 -10 -10h-111c-6 0 -10 4 -10 10z" />
    <glyph glyph-name="J" unicode="J" horiz-adv-x="369" 
d="M13 41c-4 5 -4 10 1 14l72 70c5 4 9 4 15 -1c10 -9 23 -15 38 -15c35 0 54 19 54 66v495c0 6 4 10 10 10h111c6 0 10 -4 10 -10v-483c0 -137 -73 -196 -186 -196c-52 0 -99 18 -125 50z" />
    <glyph glyph-name="K" unicode="K" horiz-adv-x="466" 
d="M46 10v660c0 6 4 10 10 10h111c6 0 10 -4 10 -10v-261l124 263c3 6 7 8 13 8h116c5 0 8 -5 5 -10l-136 -264l153 -396c2 -5 -1 -10 -6 -10h-119c-6 0 -9 2 -10 7l-100 271l-40 -84v-184c0 -6 -4 -10 -10 -10h-111c-6 0 -10 4 -10 10z" />
    <glyph glyph-name="L" unicode="L" horiz-adv-x="385" 
d="M46 10v660c0 6 4 10 10 10h111c6 0 10 -4 10 -10v-546c0 -4 2 -6 6 -6h172c6 0 10 -4 10 -10v-98c0 -6 -4 -10 -10 -10h-299c-6 0 -10 4 -10 10z" />
    <glyph glyph-name="M" unicode="M" horiz-adv-x="567" 
d="M46 10v660c0 6 4 10 10 10h108c9 0 14 -3 16 -10l104 -357h4l100 357c2 7 7 10 16 10h107c6 0 10 -4 10 -10v-660c0 -6 -4 -10 -10 -10h-97c-6 0 -10 4 -10 10v393h-6l-74 -272c-2 -6 -6 -10 -13 -10h-55c-7 0 -11 4 -13 10l-74 272h-6v-393c0 -6 -4 -10 -10 -10h-97
c-6 0 -10 4 -10 10z" />
    <glyph glyph-name="N" unicode="N" horiz-adv-x="474" 
d="M46 10v660c0 6 4 10 10 10h125c8 0 12 -3 14 -10l113 -427h5v427c0 6 4 10 10 10h95c6 0 10 -4 10 -10v-660c0 -6 -4 -10 -10 -10h-120c-8 0 -12 3 -14 10l-118 427h-5v-427c0 -6 -4 -10 -10 -10h-95c-6 0 -10 4 -10 10z" />
    <glyph glyph-name="O" unicode="O" horiz-adv-x="448" 
d="M224 -9c-89 0 -149 40 -174 115c-11 31 -14 59 -14 234s3 203 14 234c25 75 85 115 174 115s149 -40 174 -115c11 -31 14 -59 14 -234s-3 -203 -14 -234c-25 -75 -85 -115 -174 -115zM224 109c25 0 42 14 48 33c5 16 7 33 7 198s-2 182 -7 198c-6 19 -23 33 -48 33
s-42 -14 -48 -33c-5 -16 -7 -33 -7 -198s2 -182 7 -198c6 -19 23 -33 48 -33z" />
    <glyph glyph-name="P" unicode="P" horiz-adv-x="443" 
d="M167 0h-111c-6 0 -10 4 -10 10v660c0 6 4 10 10 10h160c124 0 200 -59 200 -214c0 -154 -79 -214 -200 -214h-33c-4 0 -6 -2 -6 -6v-236c0 -6 -4 -10 -10 -10zM212 367c51 0 73 22 73 99s-22 99 -73 99h-29c-4 0 -6 -2 -6 -6v-186c0 -4 2 -6 6 -6h29z" />
    <glyph glyph-name="Q" unicode="Q" horiz-adv-x="449" 
d="M441 27l-57 -58c-5 -4 -10 -4 -15 1l-45 47c-26 -19 -57 -26 -100 -26c-89 0 -149 40 -174 115c-11 31 -14 59 -14 234s3 203 14 234c25 75 85 115 174 115s149 -40 174 -115c11 -31 14 -59 14 -234c0 -163 -5 -209 -24 -246l53 -52c5 -5 4 -12 0 -15zM239 108l-37 34
c-4 4 -4 10 0 14l41 45c5 5 10 5 14 1l24 -23h2v161c0 165 -3 183 -8 199c-6 19 -24 33 -50 33s-44 -14 -50 -33c-5 -16 -7 -34 -7 -199s2 -182 7 -198c6 -19 25 -35 56 -34h8z" />
    <glyph glyph-name="R" unicode="R" horiz-adv-x="454" 
d="M429 0h-120c-6 0 -9 2 -11 8l-77 258h-38c-4 0 -6 -2 -6 -6v-250c0 -6 -4 -10 -10 -10h-111c-6 0 -10 4 -10 10v660c0 6 4 10 10 10h162c121 0 199 -57 199 -208c0 -86 -29 -142 -76 -174l93 -288c2 -5 0 -10 -5 -10zM212 379c51 0 73 21 73 93c0 71 -22 93 -73 93h-29
c-4 0 -6 -2 -6 -6v-174c0 -4 2 -6 6 -6h29z" />
    <glyph glyph-name="S" unicode="S" horiz-adv-x="423" 
d="M398 202c0 -139 -53 -211 -188 -211c-123 0 -182 65 -184 182c0 6 2 10 8 11l107 17c7 1 11 -2 11 -8c2 -63 20 -88 59 -88c37 0 54 19 54 81c0 60 -12 81 -63 101l-41 16c-96 37 -129 88 -129 197c0 123 59 189 180 189c119 0 175 -62 180 -169c0 -6 -3 -10 -9 -11
l-102 -16c-6 -1 -11 2 -11 8c-1 49 -18 74 -54 74c-35 0 -52 -22 -52 -68c0 -51 11 -67 64 -88l41 -16c93 -36 129 -86 129 -201z" />
    <glyph glyph-name="T" unicode="T" horiz-adv-x="405" 
d="M258 0h-111c-6 0 -10 4 -10 10v546c0 4 -2 6 -6 6h-107c-6 0 -10 4 -10 10v98c0 6 4 10 10 10h357c6 0 10 -4 10 -10v-98c0 -6 -4 -10 -10 -10h-107c-4 0 -6 -2 -6 -6v-546c0 -6 -4 -10 -10 -10z" />
    <glyph glyph-name="U" unicode="U" horiz-adv-x="455" 
d="M227 -9c-113 0 -183 65 -183 193v486c0 6 4 10 10 10h111c6 0 10 -4 10 -10v-502c0 -36 19 -59 52 -59c34 0 53 23 53 59v502c0 6 4 10 10 10h111c6 0 10 -4 10 -10v-486c0 -128 -70 -193 -184 -193z" />
    <glyph glyph-name="V" unicode="V" horiz-adv-x="428" 
d="M268 0h-108c-6 0 -9 4 -11 10l-135 660c-2 6 1 10 8 10h113c6 0 10 -3 11 -10l69 -430h3l66 430c1 7 5 10 11 10h111c7 0 10 -4 8 -10l-136 -660c-1 -6 -4 -10 -10 -10z" />
    <glyph glyph-name="W" unicode="W" horiz-adv-x="611" 
d="M477 0h-98c-6 0 -9 4 -10 10l-61 403h-2l-63 -403c-1 -6 -5 -10 -11 -10h-97c-6 0 -10 4 -11 10l-110 660c-1 6 2 10 9 10h113c6 0 10 -3 11 -10l45 -419h2l63 419c1 7 5 10 11 10h75c6 0 10 -3 12 -10l63 -419h3l46 419c1 7 5 10 11 10h111c7 0 10 -4 8 -10l-109 -660
c-2 -6 -5 -10 -11 -10z" />
    <glyph glyph-name="X" unicode="X" horiz-adv-x="425" 
d="M405 0h-113c-6 0 -9 4 -11 10l-67 193h-2l-68 -193c-2 -6 -6 -10 -12 -10h-112c-6 0 -10 4 -8 10l133 344l-122 316c-2 6 2 10 8 10h113c6 0 9 -4 11 -10l57 -176h2l57 176c2 6 5 10 11 10h112c6 0 10 -4 8 -10l-122 -316l133 -344c2 -6 -2 -10 -8 -10z" />
    <glyph glyph-name="Y" unicode="Y" horiz-adv-x="411" 
d="M261 0h-111c-6 0 -10 4 -10 10v260l-132 400c-2 6 0 10 8 10h111c7 0 11 -3 12 -10l67 -249h4l64 249c2 7 5 10 12 10h109c8 0 10 -4 8 -10l-132 -400v-260c0 -6 -4 -10 -10 -10z" />
    <glyph glyph-name="Z" unicode="Z" horiz-adv-x="382" 
d="M341 0h-300c-6 0 -10 4 -10 10v94c0 4 2 7 3 10l178 446v2h-161c-6 0 -10 4 -10 10v98c0 6 4 10 10 10h290c6 0 10 -4 10 -10v-95c0 -4 -1 -7 -2 -10l-178 -445v-2h170c6 0 10 -4 10 -10v-98c0 -6 -4 -10 -10 -10z" />
    <glyph glyph-name="bracketleft" unicode="[" horiz-adv-x="260" 
d="M213 -84h-154c-6 0 -10 4 -10 10v804c0 6 4 10 10 10h154c6 0 10 -4 10 -10v-77c0 -6 -4 -10 -10 -10h-46c-4 0 -6 -2 -6 -6v-618c0 -4 2 -6 6 -6h46c6 0 10 -4 10 -10v-77c0 -6 -4 -10 -10 -10z" />
    <glyph glyph-name="backslash" unicode="\" horiz-adv-x="263" 
d="M235 -9h-80c-6 0 -10 3 -11 10l-125 678c-1 6 3 10 9 10h80c6 0 10 -4 11 -10l125 -678c1 -6 -3 -10 -9 -10z" />
    <glyph glyph-name="bracketright" unicode="]" horiz-adv-x="260" 
d="M201 -84h-154c-6 0 -10 4 -10 10v77c0 6 4 10 10 10h46c4 0 6 2 6 6v618c0 4 -2 6 -6 6h-46c-6 0 -10 4 -10 10v77c0 6 4 10 10 10h154c6 0 10 -4 10 -10v-804c0 -6 -4 -10 -10 -10z" />
    <glyph glyph-name="asciicircum" unicode="^" 
d="M381 260h-94c-6 0 -10 3 -13 10l-64 240h-2l-65 -240c-3 -7 -7 -10 -13 -10h-94c-6 0 -9 4 -7 10l126 400c2 6 7 10 14 10h80c7 0 12 -4 14 -10l125 -400c2 -6 -1 -10 -7 -10z" />
    <glyph glyph-name="underscore" unicode="_" horiz-adv-x="432" 
d="M432 -142h-432v75h432v-75z" />
    <glyph glyph-name="grave" unicode="`" horiz-adv-x="429" 
d="M302 551h-75c-8 0 -12 2 -18 10l-93 130c-4 5 -1 10 5 10h100c8 0 12 -3 16 -10l71 -130c3 -6 0 -10 -6 -10z" />
    <glyph glyph-name="a" unicode="a" horiz-adv-x="393" 
d="M344 0h-100c-6 0 -10 4 -10 10v33h-1c-12 -31 -45 -52 -90 -52c-56 0 -115 35 -115 145c0 118 74 155 152 155h48c4 0 6 2 6 6v24c0 44 -13 65 -62 65c-33 0 -57 -11 -80 -27c-6 -4 -12 -3 -15 4l-32 76c-3 6 -1 10 4 14c34 25 83 40 141 40c121 0 164 -52 164 -169v-314
c0 -6 -4 -10 -10 -10zM185 88c30 0 49 22 49 58v50c0 4 -2 6 -6 6h-27c-42 0 -58 -24 -58 -59s13 -55 42 -55z" />
    <glyph glyph-name="b" unicode="b" 
d="M262 -9c-49 0 -78 23 -93 58h-1v-39c0 -6 -4 -10 -10 -10h-104c-6 0 -10 4 -10 10v660c0 6 4 10 10 10h105c6 0 10 -4 10 -10v-235h1c15 36 43 58 92 58c57 0 89 -24 107 -78c9 -29 13 -62 13 -173c0 -110 -4 -144 -13 -173c-18 -54 -50 -78 -107 -78zM213 101
c21 0 34 10 39 27c4 12 5 22 5 114s-1 102 -5 114c-5 17 -18 27 -39 27s-34 -10 -39 -27c-4 -12 -5 -22 -5 -114s1 -102 5 -114c5 -17 18 -27 39 -27z" />
    <glyph glyph-name="c" unicode="c" horiz-adv-x="372" 
d="M195 -9c-78 0 -131 34 -152 101c-9 29 -12 53 -12 150c0 98 3 121 12 150c21 67 74 101 152 101c91 0 153 -52 159 -138c0 -7 -2 -10 -8 -11l-96 -18c-6 -1 -11 2 -12 9c-3 34 -18 48 -41 48c-19 0 -31 -8 -37 -25c-3 -11 -4 -21 -4 -116s1 -105 4 -116
c6 -17 18 -25 37 -25c23 0 38 14 41 48c1 7 6 10 12 9l96 -18c6 -1 8 -4 8 -11c-6 -85 -68 -138 -159 -138z" />
    <glyph glyph-name="d" unicode="d" 
d="M362 0h-104c-6 0 -10 4 -10 10v39h-1c-15 -35 -44 -58 -93 -58c-57 0 -89 24 -107 78c-9 29 -13 63 -13 173c0 111 4 144 13 173c18 54 50 78 107 78c49 0 77 -22 92 -58h1v235c0 6 4 10 10 10h105c6 0 10 -4 10 -10v-660c0 -6 -4 -10 -10 -10zM203 101c21 0 34 10 39 27
c4 12 5 22 5 114s-1 102 -5 114c-5 17 -18 27 -39 27s-34 -10 -39 -27c-4 -12 -5 -22 -5 -114s1 -102 5 -114c5 -17 18 -27 39 -27z" />
    <glyph glyph-name="e" unicode="e" horiz-adv-x="393" 
d="M197 -9c-82 0 -132 37 -154 102c-9 26 -12 54 -12 149s3 123 12 149c22 65 73 102 154 102c82 0 133 -37 155 -102c9 -26 12 -53 12 -179c0 -6 -4 -10 -10 -10h-193c-4 0 -6 -2 -6 -6c0 -50 2 -61 5 -69c6 -18 19 -28 39 -28c23 0 37 12 45 38c2 6 6 8 12 7l95 -19
c6 -1 8 -5 7 -12c-14 -77 -76 -122 -161 -122zM237 291c4 0 6 2 6 6c0 45 -2 57 -5 67c-6 16 -18 26 -39 26s-33 -10 -39 -26c-3 -10 -5 -22 -5 -67c0 -4 2 -6 6 -6h76z" />
    <glyph glyph-name="f" unicode="f" horiz-adv-x="279" 
d="M181 0h-105c-6 0 -10 4 -10 10v375c0 4 -2 6 -6 6h-31c-6 0 -10 4 -10 10v73c0 6 4 10 10 10h31c4 0 6 2 6 6v30c0 104 47 160 160 160h28c6 0 10 -4 10 -10v-90c0 -6 -4 -10 -10 -10h-26c-28 0 -37 -10 -37 -36v-44c0 -4 2 -6 6 -6h57c6 0 10 -4 10 -10v-73
c0 -6 -4 -10 -10 -10h-57c-4 0 -6 -2 -6 -6v-375c0 -6 -4 -10 -10 -10z" />
    <glyph glyph-name="g" unicode="g" 
d="M201 -189c-85 0 -144 47 -156 110c-1 5 1 10 5 11l97 28c5 1 9 0 12 -6c8 -22 22 -34 44 -34c27 0 44 16 44 51v98h-1c-14 -35 -43 -58 -92 -58c-56 0 -88 25 -106 79c-9 28 -14 62 -14 162c0 99 5 133 14 161c18 54 50 79 106 79c49 0 78 -23 93 -58h1v40
c0 6 4 10 10 10h104c6 0 10 -4 10 -10v-488c0 -116 -66 -175 -171 -175zM203 120c22 0 34 10 40 28c3 11 4 21 4 104c0 82 -1 92 -4 103c-6 18 -18 28 -40 28c-21 0 -33 -10 -39 -28c-4 -11 -5 -21 -5 -103c0 -83 1 -93 5 -104c6 -18 18 -28 39 -28z" />
    <glyph glyph-name="h" unicode="h" horiz-adv-x="419" 
d="M368 0h-105c-6 0 -10 4 -10 10v315c0 38 -14 57 -42 57s-42 -19 -42 -57v-315c0 -6 -4 -10 -10 -10h-105c-6 0 -10 4 -10 10v660c0 6 4 10 10 10h105c6 0 10 -4 10 -10v-233h1c17 33 47 56 94 56c77 0 114 -45 114 -149v-334c0 -6 -4 -10 -10 -10z" />
    <glyph glyph-name="i" unicode="i" horiz-adv-x="213" 
d="M159 562h-105c-6 0 -10 4 -10 10v98c0 6 4 10 10 10h105c6 0 10 -4 10 -10v-98c0 -6 -4 -10 -10 -10zM159 0h-105c-6 0 -10 4 -10 10v464c0 6 4 10 10 10h105c6 0 10 -4 10 -10v-464c0 -6 -4 -10 -10 -10z" />
    <glyph glyph-name="j" unicode="j" horiz-adv-x="213" 
d="M159 562h-105c-6 0 -10 4 -10 10v98c0 6 4 10 10 10h105c6 0 10 -4 10 -10v-98c0 -6 -4 -10 -10 -10zM6 -180h-17c-6 0 -10 4 -10 10v90c0 6 4 10 10 10l14 1c28 2 41 15 41 57v486c0 6 4 10 10 10h105c6 0 10 -4 10 -10v-486c0 -113 -52 -168 -163 -168z" />
    <glyph glyph-name="k" unicode="k" horiz-adv-x="415" 
d="M398 0h-110c-7 0 -11 3 -14 11l-71 189l-34 -61v-129c0 -6 -4 -10 -10 -10h-105c-6 0 -10 4 -10 10v660c0 6 4 10 10 10h105c6 0 10 -4 10 -10v-361l91 166c4 6 8 9 14 9h108c6 0 9 -4 6 -10l-106 -171l122 -293c3 -6 0 -10 -6 -10z" />
    <glyph glyph-name="l" unicode="l" horiz-adv-x="245" 
d="M213 -6h-11c-114 2 -159 43 -159 162v514c0 6 4 10 10 10h105c6 0 10 -4 10 -10v-513c0 -32 14 -47 40 -51l5 -1c6 -1 10 -5 10 -11v-90c0 -6 -4 -10 -10 -10z" />
    <glyph glyph-name="m" unicode="m" horiz-adv-x="628" 
d="M577 0h-105c-6 0 -10 4 -10 10v315c0 38 -15 57 -42 57c-28 0 -42 -19 -42 -57v-315c0 -6 -4 -10 -10 -10h-105c-6 0 -10 4 -10 10v315c0 38 -14 57 -42 57s-42 -19 -42 -57v-315c0 -6 -4 -10 -10 -10h-105c-6 0 -10 4 -10 10v464c0 6 4 10 10 10h104c6 0 10 -4 10 -10
v-37h1c17 33 48 56 95 56c46 0 79 -16 96 -52h1c20 32 51 52 102 52c82 0 124 -47 124 -149v-334c0 -6 -4 -10 -10 -10z" />
    <glyph glyph-name="n" unicode="n" horiz-adv-x="419" 
d="M368 0h-105c-6 0 -10 4 -10 10v315c0 38 -14 57 -42 57s-42 -19 -42 -57v-315c0 -6 -4 -10 -10 -10h-105c-6 0 -10 4 -10 10v464c0 6 4 10 10 10h104c6 0 10 -4 10 -10v-37h1c17 33 48 56 95 56c77 0 114 -45 114 -149v-334c0 -6 -4 -10 -10 -10z" />
    <glyph glyph-name="o" unicode="o" horiz-adv-x="400" 
d="M200 -9c-80 0 -135 37 -157 106c-9 26 -12 53 -12 145s3 119 12 145c22 69 77 106 157 106s135 -37 157 -106c9 -26 12 -53 12 -145s-3 -119 -12 -145c-22 -69 -77 -106 -157 -106zM200 101c21 0 34 10 40 28c3 11 4 21 4 113s-1 102 -4 113c-6 18 -19 28 -40 28
s-34 -10 -40 -28c-3 -11 -4 -21 -4 -113s1 -102 4 -113c6 -18 19 -28 40 -28z" />
    <glyph glyph-name="p" unicode="p" 
d="M159 -180h-105c-6 0 -10 4 -10 10v644c0 6 4 10 10 10h104c6 0 10 -4 10 -10v-39h1c15 35 44 58 93 58c57 0 89 -24 107 -78c9 -29 13 -63 13 -173c0 -111 -4 -144 -13 -173c-18 -54 -50 -78 -107 -78c-49 0 -77 22 -92 58h-1v-219c0 -6 -4 -10 -10 -10zM213 101
c21 0 34 10 39 27c4 12 5 22 5 114s-1 102 -5 114c-5 17 -18 27 -39 27s-34 -10 -39 -27c-4 -12 -5 -22 -5 -114s1 -102 5 -114c5 -17 18 -27 39 -27z" />
    <glyph glyph-name="q" unicode="q" 
d="M362 -180h-105c-6 0 -10 4 -10 10v219h-1c-15 -36 -43 -58 -92 -58c-57 0 -89 24 -107 78c-9 29 -13 62 -13 173c0 110 4 144 13 173c18 54 50 78 107 78c49 0 78 -23 93 -58h1v39c0 6 4 10 10 10h104c6 0 10 -4 10 -10v-644c0 -6 -4 -10 -10 -10zM203 101
c21 0 34 10 39 27c4 12 5 22 5 114s-1 102 -5 114c-5 17 -18 27 -39 27s-34 -10 -39 -27c-4 -12 -5 -22 -5 -114s1 -102 5 -114c5 -17 18 -27 39 -27z" />
    <glyph glyph-name="r" unicode="r" horiz-adv-x="314" 
d="M159 0h-105c-6 0 -10 4 -10 10v464c0 6 4 10 10 10h105c6 0 10 -4 10 -10v-45h1c19 40 54 64 111 64h15c6 -1 9 -4 8 -10l-23 -107c-1 -6 -4 -7 -10 -6h-17c-54 0 -85 -29 -85 -99v-261c0 -6 -4 -10 -10 -10z" />
    <glyph glyph-name="s" unicode="s" horiz-adv-x="364" 
d="M182 -9c-97 0 -154 49 -161 127c-1 6 2 10 8 11l92 17c6 1 11 -2 12 -8c4 -33 23 -49 49 -49c27 0 44 17 44 44s-11 40 -45 53l-39 14c-72 25 -113 73 -113 147c0 86 58 146 155 146c92 0 142 -51 150 -114c1 -7 -1 -12 -6 -13l-87 -16c-6 -1 -10 2 -11 8
c-6 23 -18 38 -45 38c-25 0 -39 -17 -39 -40c0 -18 11 -34 46 -47l39 -14c83 -29 113 -76 113 -151c0 -91 -59 -153 -162 -153z" />
    <glyph glyph-name="t" unicode="t" horiz-adv-x="275" 
d="M242 -6h-34c-98 0 -144 36 -144 149v242c0 4 -2 6 -6 6h-30c-6 0 -10 4 -10 10v73c0 6 4 10 10 10h30c4 0 6 2 6 6v130c0 6 4 10 10 10h105c6 0 10 -4 10 -10v-130c0 -4 2 -6 6 -6h47c6 0 10 -4 10 -10v-73c0 -6 -4 -10 -10 -10h-47c-4 0 -6 -2 -6 -6v-237
c0 -30 12 -42 39 -42h14c6 0 10 -4 10 -10v-92c0 -6 -4 -10 -10 -10z" />
    <glyph glyph-name="u" unicode="u" horiz-adv-x="417" 
d="M363 0h-105c-6 0 -10 4 -10 10v37h-1c-17 -33 -46 -56 -94 -56c-75 0 -112 45 -112 149v334c0 6 4 10 10 10h105c6 0 10 -4 10 -10v-314c0 -39 14 -58 41 -58s41 19 41 58v314c0 6 4 10 10 10h105c6 0 10 -4 10 -10v-464c0 -6 -4 -10 -10 -10z" />
    <glyph glyph-name="v" unicode="v" horiz-adv-x="382" 
d="M240 0h-97c-7 0 -10 3 -12 10l-118 464c-2 6 1 10 7 10h106c7 0 10 -4 11 -10l56 -285h1l56 285c1 6 4 10 11 10h101c6 0 9 -4 7 -10l-117 -464c-2 -7 -5 -10 -12 -10z" />
    <glyph glyph-name="w" unicode="w" horiz-adv-x="565" 
d="M430 0h-89c-7 0 -11 3 -12 10l-46 258h-2l-44 -258c-1 -7 -5 -10 -12 -10h-89c-7 0 -10 3 -12 10l-110 464c-2 6 1 10 7 10h104c7 0 10 -4 11 -10l49 -281h1l50 281c1 6 4 10 11 10h73c7 0 10 -4 11 -10l48 -281h1l50 281c1 6 4 10 11 10h103c6 0 9 -4 7 -10l-109 -464
c-2 -7 -5 -10 -12 -10z" />
    <glyph glyph-name="x" unicode="x" horiz-adv-x="384" 
d="M368 0h-104c-7 0 -10 2 -13 8l-59 136h-1l-58 -136c-3 -6 -6 -8 -14 -8h-103c-6 0 -8 5 -5 11l117 238l-110 224c-3 6 -1 11 6 11h103c7 0 10 -2 13 -8l54 -121h1l50 121c3 6 6 8 14 8h102c6 0 8 -5 5 -11l-111 -224l118 -238c3 -6 1 -11 -5 -11z" />
    <glyph glyph-name="y" unicode="y" horiz-adv-x="387" 
d="M76 -180h-14c-6 0 -10 4 -10 10v92c0 6 4 10 10 10l14 1c32 1 46 13 55 49l8 35l-124 457c-2 6 1 10 7 10h105c7 0 10 -4 11 -10l56 -276h1l57 276c1 6 5 10 12 10h100c6 0 9 -4 7 -10l-128 -494c-34 -130 -74 -160 -167 -160z" />
    <glyph glyph-name="z" unicode="z" horiz-adv-x="342" 
d="M305 0h-267c-6 0 -10 4 -10 10v85c0 4 1 8 3 12l146 269v2h-129c-6 0 -10 4 -10 10v86c0 6 4 10 10 10h257c6 0 10 -4 10 -10v-76c0 -5 -1 -9 -3 -13l-149 -275v-2h142c6 0 10 -4 10 -10v-88c0 -6 -4 -10 -10 -10z" />
    <glyph glyph-name="braceleft" unicode="{" horiz-adv-x="323" 
d="M276 -84h-36c-81 0 -127 45 -127 127v167c0 49 -14 70 -56 70c-6 0 -10 4 -10 10v81c0 6 4 10 10 10c42 0 56 21 56 70v162c0 82 46 127 127 127h36c6 0 10 -4 10 -10v-77c0 -6 -4 -10 -10 -10h-10c-28 0 -42 -17 -42 -46v-133c0 -77 -8 -111 -56 -132v-3
c48 -22 56 -55 56 -132v-138c0 -29 14 -46 42 -46h10c6 0 10 -4 10 -10v-77c0 -6 -4 -10 -10 -10z" />
    <glyph glyph-name="bar" unicode="|" horiz-adv-x="276" 
d="M178 -84h-81c-6 0 -10 4 -10 10v804c0 6 4 10 10 10h81c6 0 10 -4 10 -10v-804c0 -6 -4 -10 -10 -10z" />
    <glyph glyph-name="braceright" unicode="}" horiz-adv-x="323" 
d="M83 -84h-36c-6 0 -10 4 -10 10v77c0 6 4 10 10 10h10c28 0 42 17 42 46v138c0 77 8 110 56 132v3c-48 21 -56 55 -56 132v133c0 29 -14 46 -42 46h-10c-6 0 -10 4 -10 10v77c0 6 4 10 10 10h36c81 0 127 -45 127 -127v-162c0 -49 14 -70 56 -70c6 0 10 -4 10 -10v-81
c0 -6 -4 -10 -10 -10c-42 0 -56 -21 -56 -70v-167c0 -82 -46 -127 -127 -127z" />
    <glyph glyph-name="asciitilde" unicode="~" 
d="M273 196c-29 0 -48 11 -70 24c-22 12 -36 21 -50 21c-20 0 -31 -9 -49 -40c-3 -5 -7 -6 -13 -3l-59 31c-5 3 -7 7 -4 14c30 62 64 91 114 91c29 0 49 -10 71 -23c21 -12 35 -21 50 -21c20 0 30 9 48 40c3 5 7 6 13 3l59 -31c6 -3 7 -8 4 -15c-29 -61 -64 -91 -114 -91z
" />
    <glyph glyph-name="uni00A0" unicode="&#xa0;" horiz-adv-x="195" 
 />
    <glyph glyph-name="Agrave" unicode="&#xc0;" horiz-adv-x="452" 
d="M9 10l148 660c2 6 5 10 11 10h118c6 0 10 -4 11 -10l146 -660c1 -6 -2 -10 -8 -10h-111c-7 0 -10 4 -11 10l-22 123h-129l-23 -123c-1 -6 -4 -10 -11 -10h-111c-6 0 -9 4 -8 10zM181 237h91l-43 236h-3zM261 755h-74c-8 0 -12 3 -19 10l-104 114c-4 5 -1 10 5 10h100
c8 0 11 -3 16 -10l82 -114c4 -5 0 -10 -6 -10z" />
    <glyph glyph-name="Aacute" unicode="&#xc1;" horiz-adv-x="452" 
d="M9 10l148 660c2 6 5 10 11 10h118c6 0 10 -4 11 -10l146 -660c1 -6 -2 -10 -8 -10h-111c-7 0 -10 4 -11 10l-22 123h-129l-23 -123c-1 -6 -4 -10 -11 -10h-111c-6 0 -9 4 -8 10zM181 237h91l-43 236h-3zM260 755h-74c-6 0 -9 5 -5 10l82 114c5 7 8 10 16 10h100
c6 0 9 -5 5 -10l-104 -114c-7 -7 -12 -10 -20 -10z" />
    <glyph glyph-name="Acircumflex" unicode="&#xc2;" horiz-adv-x="452" 
d="M9 10l148 660c2 6 5 10 11 10h118c6 0 10 -4 11 -10l146 -660c1 -6 -2 -10 -8 -10h-111c-7 0 -10 4 -11 10l-22 123h-129l-23 -123c-1 -6 -4 -10 -11 -10h-111c-6 0 -9 4 -8 10zM181 237h91l-43 236h-3zM362 746h-70c-8 0 -13 3 -19 10l-47 57h-2l-47 -57
c-6 -7 -11 -10 -19 -10h-70c-6 0 -8 5 -4 10l90 130c4 6 10 10 17 10h67c8 0 13 -4 17 -10l91 -130c4 -5 2 -10 -4 -10z" />
    <glyph glyph-name="Atilde" unicode="&#xc3;" horiz-adv-x="452" 
d="M9 10l148 660c2 6 5 10 11 10h118c6 0 10 -4 11 -10l146 -660c1 -6 -2 -10 -8 -10h-111c-7 0 -10 4 -11 10l-22 123h-129l-23 -123c-1 -6 -4 -10 -11 -10h-111c-6 0 -9 4 -8 10zM181 237h91l-43 236h-3zM274 754c-23 0 -38 8 -55 19s-28 17 -44 17c-24 0 -38 -12 -55 -29
c-5 -5 -11 -3 -11 4v73c0 7 2 11 9 18c15 15 33 27 58 27c23 0 38 -8 55 -19c17 -10 28 -16 44 -16c24 0 38 11 54 28c5 5 12 3 12 -4v-73c0 -7 -2 -11 -9 -18c-15 -15 -33 -27 -58 -27z" />
    <glyph glyph-name="Adieresis" unicode="&#xc4;" horiz-adv-x="452" 
d="M9 10l148 660c2 6 5 10 11 10h118c6 0 10 -4 11 -10l146 -660c1 -6 -2 -10 -8 -10h-111c-7 0 -10 4 -11 10l-22 123h-129l-23 -123c-1 -6 -4 -10 -11 -10h-111c-6 0 -9 4 -8 10zM181 237h91l-43 236h-3zM342 760h-77c-6 0 -10 4 -10 10v98c0 6 4 10 10 10h77
c6 0 10 -4 10 -10v-98c0 -6 -4 -10 -10 -10zM184 760h-77c-6 0 -10 4 -10 10v98c0 6 4 10 10 10h77c6 0 10 -4 10 -10v-98c0 -6 -4 -10 -10 -10z" />
    <glyph glyph-name="Amacron" unicode="&#x100;" horiz-adv-x="452" 
d="M9 10l148 660c2 6 5 10 11 10h118c6 0 10 -4 11 -10l146 -660c1 -6 -2 -10 -8 -10h-111c-7 0 -10 4 -11 10l-22 123h-129l-23 -123c-1 -6 -4 -10 -11 -10h-111c-6 0 -9 4 -8 10zM181 237h91l-43 236h-3zM336 771h-223c-6 0 -10 4 -10 10v74c0 6 4 10 10 10h223
c6 0 10 -4 10 -10v-74c0 -6 -4 -10 -10 -10z" />
    <glyph glyph-name="Abreve" unicode="&#x102;" horiz-adv-x="452" 
d="M9 10l148 660c2 6 5 10 11 10h118c6 0 10 -4 11 -10l146 -660c1 -6 -2 -10 -8 -10h-111c-7 0 -10 4 -11 10l-22 123h-129l-23 -123c-1 -6 -4 -10 -11 -10h-111c-6 0 -9 4 -8 10zM181 237h91l-43 236h-3zM225 736c-85 0 -129 58 -133 129c0 6 4 10 11 10h53
c7 0 10 -4 12 -10c10 -27 28 -46 57 -46c28 0 47 19 57 46c2 6 4 10 11 10h53c7 0 11 -4 11 -10c-3 -71 -48 -129 -132 -129z" />
    <glyph glyph-name="Aring" unicode="&#xc5;" horiz-adv-x="452" 
d="M9 10l148 660c2 6 5 10 11 10h118c6 0 10 -4 11 -10l146 -660c1 -6 -2 -10 -8 -10h-111c-7 0 -10 4 -11 10l-22 123h-129l-23 -123c-1 -6 -4 -10 -11 -10h-111c-6 0 -9 4 -8 10zM181 237h91l-43 236h-3zM225 715c-55 0 -96 41 -96 96s41 95 96 95s96 -40 96 -95
s-41 -96 -96 -96zM225 765c25 0 43 20 43 46s-18 45 -43 45s-44 -19 -44 -45s19 -46 44 -46z" />
    <glyph glyph-name="Aringacute" unicode="&#x1fa;" horiz-adv-x="452" 
d="M258 771h-76c-6 0 -8 5 -4 10l79 98c6 7 10 10 20 10h97c6 0 9 -5 5 -10l-101 -98c-7 -7 -12 -10 -20 -10zM435 0h-111c-7 0 -10 4 -11 10l-22 123h-129l-23 -123c-1 -6 -4 -10 -11 -10h-111c-6 0 -9 4 -8 10l128 571c2 6 5 10 11 10h3c-13 16 -20 36 -20 60
c0 55 41 96 96 96s96 -41 96 -96c0 -24 -8 -44 -20 -60h3c6 0 10 -4 11 -10l126 -571c1 -6 -2 -10 -8 -10zM227 606c25 0 43 19 43 45s-18 46 -43 46s-43 -20 -43 -46s18 -45 43 -45zM226 473l-45 -236h91l-43 236h-3z" />
    <glyph glyph-name="Aogonek" unicode="&#x104;" horiz-adv-x="452" 
d="M368 -191c-58 0 -95 31 -95 87c0 40 21 74 54 104h-3c-7 0 -10 4 -11 10l-23 123h-128l-23 -123c-1 -6 -4 -10 -11 -10h-111c-6 0 -9 4 -8 10l148 660c2 6 5 10 11 10h118c6 0 10 -4 11 -10l146 -660c1 -5 0 -8 -5 -10c-45 -25 -69 -57 -69 -82c0 -15 7 -23 18 -23
c7 0 12 1 17 4s11 1 13 -4l23 -55c2 -5 0 -10 -5 -13c-15 -10 -43 -18 -67 -18zM272 237l-43 236h-3l-45 -236h91z" />
    <glyph glyph-name="AE" unicode="&#xc6;" horiz-adv-x="675" 
d="M638 0h-297c-6 0 -10 4 -10 10v117c0 4 -2 6 -6 6h-144l-42 -123c-2 -6 -7 -10 -13 -10h-110c-6 0 -9 4 -7 10l235 660c2 6 5 10 11 10h383c6 0 10 -4 10 -10v-98c0 -6 -4 -10 -10 -10h-170c-4 0 -6 -2 -6 -6v-148c0 -4 2 -6 6 -6h147c6 0 10 -4 10 -10v-98
c0 -6 -4 -10 -10 -10h-147c-4 0 -6 -2 -6 -6v-154c0 -4 2 -6 6 -6h170c6 0 10 -4 10 -10v-98c0 -6 -4 -10 -10 -10zM327 562l-111 -325h109c4 0 6 2 6 6v319h-4z" />
    <glyph glyph-name="AEacute" unicode="&#x1fc;" horiz-adv-x="675" 
d="M391 755h-74c-6 0 -9 5 -5 10l82 114c5 7 8 10 16 10h100c6 0 9 -5 5 -10l-104 -114c-7 -7 -12 -10 -20 -10zM638 0h-297c-6 0 -10 4 -10 10v117c0 4 -2 6 -6 6h-144l-42 -123c-2 -6 -7 -10 -13 -10h-110c-6 0 -9 4 -7 10l235 660c2 6 5 10 11 10h383c6 0 10 -4 10 -10
v-98c0 -6 -4 -10 -10 -10h-170c-4 0 -6 -2 -6 -6v-148c0 -4 2 -6 6 -6h147c6 0 10 -4 10 -10v-98c0 -6 -4 -10 -10 -10h-147c-4 0 -6 -2 -6 -6v-154c0 -4 2 -6 6 -6h170c6 0 10 -4 10 -10v-98c0 -6 -4 -10 -10 -10zM327 562l-111 -325h109c4 0 6 2 6 6v319h-4z" />
    <glyph glyph-name="Cacute" unicode="&#x106;" horiz-adv-x="413" 
d="M49 104c-9 29 -13 60 -13 236s4 207 13 236c24 73 79 113 169 113c109 0 173 -58 179 -172c0 -6 -2 -11 -9 -12l-105 -18c-6 -1 -11 2 -11 9c-2 54 -19 75 -52 75c-24 0 -38 -10 -45 -31c-4 -15 -6 -27 -6 -200s2 -185 6 -200c7 -21 21 -31 45 -31c33 0 50 21 52 75
c0 7 5 10 11 9l105 -18c7 -1 9 -6 9 -12c-6 -114 -70 -172 -179 -172c-90 0 -145 40 -169 113zM237 755h-74c-6 0 -9 5 -5 10l82 114c5 7 8 10 16 10h100c6 0 9 -5 5 -10l-104 -114c-7 -7 -12 -10 -20 -10z" />
    <glyph glyph-name="Ccircumflex" unicode="&#x108;" horiz-adv-x="413" 
d="M49 104c-9 29 -13 60 -13 236s4 207 13 236c24 73 79 113 169 113c109 0 173 -58 179 -172c0 -6 -2 -11 -9 -12l-105 -18c-6 -1 -11 2 -11 9c-2 54 -19 75 -52 75c-24 0 -38 -10 -45 -31c-4 -15 -6 -27 -6 -200s2 -185 6 -200c7 -21 21 -31 45 -31c33 0 50 21 52 75
c0 7 5 10 11 9l105 -18c7 -1 9 -6 9 -12c-6 -114 -70 -172 -179 -172c-90 0 -145 40 -169 113zM354 746h-70c-8 0 -13 3 -19 10l-47 57h-2l-47 -57c-6 -7 -11 -10 -19 -10h-70c-6 0 -8 5 -4 10l90 130c4 6 10 10 17 10h67c8 0 13 -4 17 -10l91 -130c4 -5 2 -10 -4 -10z" />
    <glyph glyph-name="Ccaron" unicode="&#x10c;" horiz-adv-x="413" 
d="M49 104c-9 29 -13 60 -13 236s4 207 13 236c24 73 79 113 169 113c109 0 173 -58 179 -172c0 -6 -2 -11 -9 -12l-105 -18c-6 -1 -11 2 -11 9c-2 54 -19 75 -52 75c-24 0 -38 -10 -45 -31c-4 -15 -6 -27 -6 -200s2 -185 6 -200c7 -21 21 -31 45 -31c33 0 50 21 52 75
c0 7 5 10 11 9l105 -18c7 -1 9 -6 9 -12c-6 -114 -70 -172 -179 -172c-90 0 -145 40 -169 113zM247 741h-67c-7 0 -13 4 -17 10l-90 130c-4 5 -2 10 4 10h70c8 0 13 -3 19 -10l47 -57h2l47 57c6 7 11 10 19 10h70c6 0 8 -5 4 -10l-91 -130c-4 -6 -9 -10 -17 -10z" />
    <glyph glyph-name="Cdotaccent" unicode="&#x10a;" horiz-adv-x="413" 
d="M260 760h-105c-6 0 -10 4 -10 10v98c0 6 4 10 10 10h105c6 0 10 -4 10 -10v-98c0 -6 -4 -10 -10 -10zM49 104c-9 29 -13 60 -13 236s4 207 13 236c24 73 79 113 169 113c109 0 173 -58 179 -172c0 -6 -2 -11 -9 -12l-105 -18c-6 -1 -11 2 -11 9c-2 54 -19 75 -52 75
c-24 0 -38 -10 -45 -31c-4 -15 -6 -27 -6 -200s2 -185 6 -200c7 -21 21 -31 45 -31c33 0 50 21 52 75c0 7 5 10 11 9l105 -18c7 -1 9 -6 9 -12c-6 -114 -70 -172 -179 -172c-90 0 -145 40 -169 113z" />
    <glyph glyph-name="Ccedilla" unicode="&#xc7;" horiz-adv-x="413" 
d="M101 -150l63 147c-59 13 -96 50 -115 107c-9 29 -13 60 -13 236s4 207 13 236c24 73 79 113 169 113c109 0 173 -58 179 -172c0 -6 -2 -11 -8 -12l-106 -18c-6 -1 -11 2 -11 9c-2 54 -19 75 -52 75c-24 0 -38 -10 -45 -31c-4 -15 -6 -27 -6 -200s2 -185 6 -200
c7 -21 21 -31 45 -31c33 0 50 21 52 75c0 7 5 10 11 9l106 -18c6 -1 8 -6 8 -12c-5 -99 -54 -156 -138 -169l-51 -144c-3 -7 -7 -10 -16 -10h-84c-6 0 -9 4 -7 10z" />
    <glyph glyph-name="Dcaron" unicode="&#x10e;" horiz-adv-x="456" 
d="M243 741h-67c-7 0 -13 4 -17 10l-90 130c-4 5 -2 10 4 10h70c8 0 13 -3 19 -10l47 -57h2l47 57c6 7 11 10 19 10h70c6 0 8 -5 4 -10l-91 -130c-4 -6 -9 -10 -17 -10zM46 10v660c0 6 4 10 10 10h172c94 0 149 -36 174 -113c12 -38 18 -84 18 -227s-6 -189 -18 -227
c-25 -77 -80 -113 -174 -113h-172c-6 0 -10 4 -10 10zM177 124c0 -4 2 -6 6 -6h32c33 0 51 12 61 42c8 21 11 50 11 180s-3 159 -11 180c-10 30 -28 42 -61 42h-32c-4 0 -6 -2 -6 -6v-432z" />
    <glyph glyph-name="Dcroat" unicode="&#x110;" horiz-adv-x="456" 
d="M228 0h-172c-6 0 -10 4 -10 10v280c0 4 -2 6 -6 6h-27c-6 0 -10 4 -10 10v74c0 6 4 10 10 10h27c4 0 6 2 6 6v274c0 6 4 10 10 10h172c94 0 149 -36 174 -113c12 -38 18 -84 18 -227s-6 -189 -18 -227c-25 -77 -80 -113 -174 -113zM215 118c33 0 51 12 61 42
c7 21 11 50 11 180s-4 159 -11 180c-10 30 -28 42 -61 42h-32c-4 0 -6 -2 -6 -6v-161c0 -4 2 -6 6 -6h44c6 0 10 -4 10 -10v-73c0 -6 -4 -10 -10 -10h-44c-4 0 -6 -2 -6 -6v-166c0 -4 2 -6 6 -6h32z" />
    <glyph glyph-name="Eth" unicode="&#xd0;" horiz-adv-x="456" 
d="M228 0h-172c-6 0 -10 4 -10 10v280c0 4 -2 6 -6 6h-27c-6 0 -10 4 -10 10v74c0 6 4 10 10 10h27c4 0 6 2 6 6v274c0 6 4 10 10 10h172c94 0 149 -36 174 -113c12 -38 18 -84 18 -227s-6 -189 -18 -227c-25 -77 -80 -113 -174 -113zM215 118c33 0 51 12 61 42
c7 21 11 50 11 180s-4 159 -11 180c-10 30 -28 42 -61 42h-32c-4 0 -6 -2 -6 -6v-161c0 -4 2 -6 6 -6h44c6 0 10 -4 10 -10v-73c0 -6 -4 -10 -10 -10h-44c-4 0 -6 -2 -6 -6v-166c0 -4 2 -6 6 -6h32z" />
    <glyph glyph-name="Egrave" unicode="&#xc8;" horiz-adv-x="390" 
d="M245 755h-74c-8 0 -12 3 -19 10l-104 114c-4 5 -1 10 5 10h100c8 0 11 -3 16 -10l82 -114c4 -5 0 -10 -6 -10zM46 10v660c0 6 4 10 10 10h297c6 0 10 -4 10 -10v-98c0 -6 -4 -10 -10 -10h-170c-4 0 -6 -2 -6 -6v-148c0 -4 2 -6 6 -6h147c6 0 10 -4 10 -10v-98
c0 -6 -4 -10 -10 -10h-147c-4 0 -6 -2 -6 -6v-154c0 -4 2 -6 6 -6h170c6 0 10 -4 10 -10v-98c0 -6 -4 -10 -10 -10h-297c-6 0 -10 4 -10 10z" />
    <glyph glyph-name="Eacute" unicode="&#xc9;" horiz-adv-x="390" 
d="M233 755h-74c-6 0 -9 5 -5 10l82 114c5 7 8 10 16 10h100c6 0 9 -5 5 -10l-104 -114c-7 -7 -12 -10 -20 -10zM46 10v660c0 6 4 10 10 10h297c6 0 10 -4 10 -10v-98c0 -6 -4 -10 -10 -10h-170c-4 0 -6 -2 -6 -6v-148c0 -4 2 -6 6 -6h147c6 0 10 -4 10 -10v-98
c0 -6 -4 -10 -10 -10h-147c-4 0 -6 -2 -6 -6v-154c0 -4 2 -6 6 -6h170c6 0 10 -4 10 -10v-98c0 -6 -4 -10 -10 -10h-297c-6 0 -10 4 -10 10z" />
    <glyph glyph-name="Ecircumflex" unicode="&#xca;" horiz-adv-x="390" 
d="M46 10v660c0 6 4 10 10 10h297c6 0 10 -4 10 -10v-98c0 -6 -4 -10 -10 -10h-170c-4 0 -6 -2 -6 -6v-148c0 -4 2 -6 6 -6h147c6 0 10 -4 10 -10v-98c0 -6 -4 -10 -10 -10h-147c-4 0 -6 -2 -6 -6v-154c0 -4 2 -6 6 -6h170c6 0 10 -4 10 -10v-98c0 -6 -4 -10 -10 -10h-297
c-6 0 -10 4 -10 10zM341 746h-70c-8 0 -13 3 -19 10l-47 57h-2l-47 -57c-6 -7 -11 -10 -19 -10h-70c-6 0 -8 5 -4 10l90 130c4 6 10 10 17 10h67c8 0 13 -4 17 -10l91 -130c4 -5 2 -10 -4 -10z" />
    <glyph glyph-name="Ecaron" unicode="&#x11a;" horiz-adv-x="390" 
d="M237 741h-67c-7 0 -13 4 -17 10l-90 130c-4 5 -2 10 4 10h70c8 0 13 -3 19 -10l47 -57h2l47 57c6 7 11 10 19 10h70c6 0 8 -5 4 -10l-91 -130c-4 -6 -9 -10 -17 -10zM46 10v660c0 6 4 10 10 10h297c6 0 10 -4 10 -10v-98c0 -6 -4 -10 -10 -10h-170c-4 0 -6 -2 -6 -6v-148
c0 -4 2 -6 6 -6h147c6 0 10 -4 10 -10v-98c0 -6 -4 -10 -10 -10h-147c-4 0 -6 -2 -6 -6v-154c0 -4 2 -6 6 -6h170c6 0 10 -4 10 -10v-98c0 -6 -4 -10 -10 -10h-297c-6 0 -10 4 -10 10z" />
    <glyph glyph-name="Edieresis" unicode="&#xcb;" horiz-adv-x="390" 
d="M321 760h-77c-6 0 -10 4 -10 10v98c0 6 4 10 10 10h77c6 0 10 -4 10 -10v-98c0 -6 -4 -10 -10 -10zM163 760h-77c-6 0 -10 4 -10 10v98c0 6 4 10 10 10h77c6 0 10 -4 10 -10v-98c0 -6 -4 -10 -10 -10zM46 10v660c0 6 4 10 10 10h297c6 0 10 -4 10 -10v-98
c0 -6 -4 -10 -10 -10h-170c-4 0 -6 -2 -6 -6v-148c0 -4 2 -6 6 -6h147c6 0 10 -4 10 -10v-98c0 -6 -4 -10 -10 -10h-147c-4 0 -6 -2 -6 -6v-154c0 -4 2 -6 6 -6h170c6 0 10 -4 10 -10v-98c0 -6 -4 -10 -10 -10h-297c-6 0 -10 4 -10 10z" />
    <glyph glyph-name="Emacron" unicode="&#x112;" horiz-adv-x="390" 
d="M315 771h-223c-6 0 -10 4 -10 10v74c0 6 4 10 10 10h223c6 0 10 -4 10 -10v-74c0 -6 -4 -10 -10 -10zM46 10v660c0 6 4 10 10 10h297c6 0 10 -4 10 -10v-98c0 -6 -4 -10 -10 -10h-170c-4 0 -6 -2 -6 -6v-148c0 -4 2 -6 6 -6h147c6 0 10 -4 10 -10v-98
c0 -6 -4 -10 -10 -10h-147c-4 0 -6 -2 -6 -6v-154c0 -4 2 -6 6 -6h170c6 0 10 -4 10 -10v-98c0 -6 -4 -10 -10 -10h-297c-6 0 -10 4 -10 10z" />
    <glyph glyph-name="Ebreve" unicode="&#x114;" horiz-adv-x="390" 
d="M204 736c-85 0 -129 58 -133 129c0 6 4 10 11 10h53c7 0 10 -4 12 -10c10 -27 28 -46 57 -46c28 0 47 19 57 46c2 6 4 10 11 10h53c7 0 11 -4 11 -10c-3 -71 -48 -129 -132 -129zM46 10v660c0 6 4 10 10 10h297c6 0 10 -4 10 -10v-98c0 -6 -4 -10 -10 -10h-170
c-4 0 -6 -2 -6 -6v-148c0 -4 2 -6 6 -6h147c6 0 10 -4 10 -10v-98c0 -6 -4 -10 -10 -10h-147c-4 0 -6 -2 -6 -6v-154c0 -4 2 -6 6 -6h170c6 0 10 -4 10 -10v-98c0 -6 -4 -10 -10 -10h-297c-6 0 -10 4 -10 10z" />
    <glyph glyph-name="Edotaccent" unicode="&#x116;" horiz-adv-x="390" 
d="M256 760h-105c-6 0 -10 4 -10 10v98c0 6 4 10 10 10h105c6 0 10 -4 10 -10v-98c0 -6 -4 -10 -10 -10zM46 10v660c0 6 4 10 10 10h297c6 0 10 -4 10 -10v-98c0 -6 -4 -10 -10 -10h-170c-4 0 -6 -2 -6 -6v-148c0 -4 2 -6 6 -6h147c6 0 10 -4 10 -10v-98
c0 -6 -4 -10 -10 -10h-147c-4 0 -6 -2 -6 -6v-154c0 -4 2 -6 6 -6h170c6 0 10 -4 10 -10v-98c0 -6 -4 -10 -10 -10h-297c-6 0 -10 4 -10 10z" />
    <glyph glyph-name="Eogonek" unicode="&#x118;" horiz-adv-x="390" 
d="M271 -191c-58 0 -96 31 -96 87c0 42 24 76 53 104h-172c-6 0 -10 4 -10 10v660c0 6 4 10 10 10h297c6 0 10 -4 10 -10v-98c0 -6 -4 -10 -10 -10h-170c-4 0 -6 -2 -6 -6v-148c0 -4 2 -6 6 -6h147c6 0 10 -4 10 -10v-98c0 -6 -4 -10 -10 -10h-147c-4 0 -6 -2 -6 -6v-154
c0 -4 2 -6 6 -6h170c6 0 10 -4 10 -10v-98c0 -6 -4 -10 -10 -10h-14c-42 -25 -68 -57 -68 -82c0 -15 8 -23 19 -23c7 0 12 1 17 4s10 1 12 -4l23 -55c2 -5 0 -10 -5 -13c-15 -10 -42 -18 -66 -18z" />
    <glyph glyph-name="Gcircumflex" unicode="&#x11c;" horiz-adv-x="445" 
d="M49 105c-10 32 -13 60 -13 235s3 203 13 235c25 74 84 114 175 114c110 0 174 -59 183 -169c1 -6 -2 -11 -8 -12l-106 -18c-6 -1 -10 2 -11 9c-3 49 -23 72 -57 72c-24 0 -44 -13 -50 -32c-5 -16 -6 -24 -6 -199c0 -174 1 -183 6 -198c6 -20 27 -33 52 -33s46 13 52 33
c4 14 6 24 6 124c0 4 -2 6 -6 6h-43c-6 0 -10 4 -10 10v88c0 6 4 10 10 10h165c6 0 10 -4 10 -10v-30c0 -175 -3 -203 -14 -234c-25 -75 -84 -115 -173 -115c-91 0 -150 40 -175 114zM356 746h-70c-8 0 -13 3 -19 10l-47 57h-2l-47 -57c-6 -7 -11 -10 -19 -10h-70
c-6 0 -8 5 -4 10l90 130c4 6 10 10 17 10h67c8 0 13 -4 17 -10l91 -130c4 -5 2 -10 -4 -10z" />
    <glyph glyph-name="Gbreve" unicode="&#x11e;" horiz-adv-x="445" 
d="M219 736c-85 0 -129 58 -133 129c0 6 4 10 11 10h53c7 0 10 -4 12 -10c10 -27 28 -46 57 -46c28 0 47 19 57 46c2 6 4 10 11 10h53c7 0 11 -4 11 -10c-3 -71 -48 -129 -132 -129zM49 105c-10 32 -13 60 -13 235s3 203 13 235c25 74 84 114 175 114
c110 0 174 -59 183 -169c1 -6 -2 -11 -8 -12l-106 -18c-6 -1 -10 2 -11 9c-3 49 -23 72 -57 72c-24 0 -44 -13 -50 -32c-5 -16 -6 -24 -6 -199c0 -174 1 -183 6 -198c6 -20 27 -33 52 -33s46 13 52 33c4 14 6 24 6 124c0 4 -2 6 -6 6h-43c-6 0 -10 4 -10 10v88
c0 6 4 10 10 10h165c6 0 10 -4 10 -10v-30c0 -175 -3 -203 -14 -234c-25 -75 -84 -115 -173 -115c-91 0 -150 40 -175 114z" />
    <glyph glyph-name="Gdotaccent" unicode="&#x120;" horiz-adv-x="445" 
d="M271 760h-105c-6 0 -10 4 -10 10v98c0 6 4 10 10 10h105c6 0 10 -4 10 -10v-98c0 -6 -4 -10 -10 -10zM49 105c-10 32 -13 60 -13 235s3 203 13 235c25 74 84 114 175 114c110 0 174 -59 183 -169c1 -6 -2 -11 -8 -12l-106 -18c-6 -1 -10 2 -11 9c-3 49 -23 72 -57 72
c-24 0 -44 -13 -50 -32c-5 -16 -6 -24 -6 -199c0 -174 1 -183 6 -198c6 -20 27 -33 52 -33s46 13 52 33c4 14 6 24 6 124c0 4 -2 6 -6 6h-43c-6 0 -10 4 -10 10v88c0 6 4 10 10 10h165c6 0 10 -4 10 -10v-30c0 -175 -3 -203 -14 -234c-25 -75 -84 -115 -173 -115
c-91 0 -150 40 -175 114z" />
    <glyph glyph-name="Gcommaaccent" unicode="&#x122;" horiz-adv-x="445" 
d="M176 -231c-6 0 -9 3 -9 10v158c0 6 4 10 10 10h84c6 0 10 -4 10 -10v-61c0 -10 -2 -16 -8 -23l-74 -78c-4 -4 -8 -6 -13 -6zM49 105c-10 32 -13 60 -13 235s3 203 13 235c25 74 84 114 175 114c110 0 174 -59 183 -169c1 -6 -2 -11 -8 -12l-106 -18c-6 -1 -10 2 -11 9
c-3 49 -23 72 -57 72c-24 0 -44 -13 -50 -32c-5 -16 -6 -24 -6 -199c0 -174 1 -183 6 -198c6 -20 27 -33 52 -33s46 13 52 33c4 14 6 24 6 124c0 4 -2 6 -6 6h-43c-6 0 -10 4 -10 10v88c0 6 4 10 10 10h165c6 0 10 -4 10 -10v-30c0 -175 -3 -203 -14 -234
c-25 -75 -84 -115 -173 -115c-91 0 -150 40 -175 114z" />
    <glyph glyph-name="Hcircumflex" unicode="&#x124;" horiz-adv-x="461" 
d="M46 10v660c0 6 4 10 10 10h111c6 0 10 -4 10 -10v-258c0 -4 2 -6 6 -6h95c4 0 6 2 6 6v258c0 6 4 10 10 10h111c6 0 10 -4 10 -10v-660c0 -6 -4 -10 -10 -10h-111c-6 0 -10 4 -10 10v272c0 4 -2 6 -6 6h-95c-4 0 -6 -2 -6 -6v-272c0 -6 -4 -10 -10 -10h-111
c-6 0 -10 4 -10 10zM367 746h-70c-8 0 -13 3 -19 10l-47 57h-2l-47 -57c-6 -7 -11 -10 -19 -10h-70c-6 0 -8 5 -4 10l90 130c4 6 10 10 17 10h67c8 0 13 -4 17 -10l91 -130c4 -5 2 -10 -4 -10z" />
    <glyph glyph-name="Hbar" unicode="&#x126;" horiz-adv-x="461" 
d="M405 0h-111c-6 0 -10 4 -10 10v272c0 4 -2 6 -6 6h-95c-4 0 -6 -2 -6 -6v-272c0 -6 -4 -10 -10 -10h-111c-6 0 -10 4 -10 10v479c0 4 -2 6 -6 6h-21c-6 0 -10 4 -10 10v70c0 6 4 10 10 10h21c4 0 6 2 6 6v79c0 6 4 10 10 10h111c6 0 10 -4 10 -10v-79c0 -4 2 -6 6 -6h95
c4 0 6 2 6 6v79c0 6 4 10 10 10h111c6 0 10 -4 10 -10v-79c0 -4 2 -6 6 -6h21c6 0 10 -4 10 -10v-70c0 -6 -4 -10 -10 -10h-21c-4 0 -6 -2 -6 -6v-479c0 -6 -4 -10 -10 -10zM278 406c4 0 6 2 6 6v77c0 4 -2 6 -6 6h-95c-4 0 -6 -2 -6 -6v-77c0 -4 2 -6 6 -6h95z" />
    <glyph glyph-name="Igrave" unicode="&#xcc;" horiz-adv-x="223" 
d="M46 10v660c0 6 4 10 10 10h111c6 0 10 -4 10 -10v-660c0 -6 -4 -10 -10 -10h-111c-6 0 -10 4 -10 10zM150 755h-74c-8 0 -12 3 -19 10l-104 114c-4 5 -1 10 5 10h100c8 0 11 -3 16 -10l82 -114c4 -5 0 -10 -6 -10z" />
    <glyph glyph-name="Iacute" unicode="&#xcd;" horiz-adv-x="223" 
d="M46 10v660c0 6 4 10 10 10h111c6 0 10 -4 10 -10v-660c0 -6 -4 -10 -10 -10h-111c-6 0 -10 4 -10 10zM142 755h-74c-6 0 -9 5 -5 10l82 114c5 7 8 10 16 10h100c6 0 9 -5 5 -10l-104 -114c-7 -7 -12 -10 -20 -10z" />
    <glyph glyph-name="Ibreve" unicode="&#x12c;" horiz-adv-x="223" 
d="M46 10v660c0 6 4 10 10 10h111c6 0 10 -4 10 -10v-660c0 -6 -4 -10 -10 -10h-111c-6 0 -10 4 -10 10zM112 736c-85 0 -129 58 -133 129c0 6 4 10 11 10h53c7 0 10 -4 12 -10c10 -27 28 -46 57 -46c28 0 47 19 57 46c2 6 4 10 11 10h53c7 0 11 -4 11 -10
c-3 -71 -48 -129 -132 -129z" />
    <glyph glyph-name="Icircumflex" unicode="&#xce;" horiz-adv-x="223" 
d="M46 10v660c0 6 4 10 10 10h111c6 0 10 -4 10 -10v-660c0 -6 -4 -10 -10 -10h-111c-6 0 -10 4 -10 10zM249 746h-70c-8 0 -13 3 -19 10l-47 57h-2l-47 -57c-6 -7 -11 -10 -19 -10h-70c-6 0 -8 5 -4 10l90 130c4 6 10 10 17 10h67c8 0 13 -4 17 -10l91 -130
c4 -5 2 -10 -4 -10z" />
    <glyph glyph-name="Itilde" unicode="&#x128;" horiz-adv-x="223" 
d="M46 10v660c0 6 4 10 10 10h111c6 0 10 -4 10 -10v-660c0 -6 -4 -10 -10 -10h-111c-6 0 -10 4 -10 10zM161 754c-23 0 -38 8 -55 19s-28 17 -44 17c-24 0 -38 -12 -55 -29c-5 -5 -11 -3 -11 4v73c0 7 2 11 9 18c15 15 33 27 58 27c23 0 38 -8 55 -19c17 -10 28 -16 44 -16
c24 0 38 11 54 28c5 5 12 3 12 -4v-73c0 -7 -2 -11 -9 -18c-15 -15 -33 -27 -58 -27z" />
    <glyph glyph-name="Idieresis" unicode="&#xcf;" horiz-adv-x="223" 
d="M46 10v660c0 6 4 10 10 10h111c6 0 10 -4 10 -10v-660c0 -6 -4 -10 -10 -10h-111c-6 0 -10 4 -10 10zM229 760h-77c-6 0 -10 4 -10 10v98c0 6 4 10 10 10h77c6 0 10 -4 10 -10v-98c0 -6 -4 -10 -10 -10zM71 760h-77c-6 0 -10 4 -10 10v98c0 6 4 10 10 10h77
c6 0 10 -4 10 -10v-98c0 -6 -4 -10 -10 -10z" />
    <glyph glyph-name="Imacron" unicode="&#x12a;" horiz-adv-x="223" 
d="M46 10v660c0 6 4 10 10 10h111c6 0 10 -4 10 -10v-660c0 -6 -4 -10 -10 -10h-111c-6 0 -10 4 -10 10zM223 771h-223c-6 0 -10 4 -10 10v74c0 6 4 10 10 10h223c6 0 10 -4 10 -10v-74c0 -6 -4 -10 -10 -10z" />
    <glyph glyph-name="Idotaccent" unicode="&#x130;" horiz-adv-x="223" 
d="M46 10v660c0 6 4 10 10 10h111c6 0 10 -4 10 -10v-660c0 -6 -4 -10 -10 -10h-111c-6 0 -10 4 -10 10zM165 760h-105c-6 0 -10 4 -10 10v98c0 6 4 10 10 10h105c6 0 10 -4 10 -10v-98c0 -6 -4 -10 -10 -10z" />
    <glyph glyph-name="Iogonek" unicode="&#x12e;" horiz-adv-x="223" 
d="M108 -191c-58 0 -95 31 -95 87c0 39 19 72 53 104h-10c-6 0 -10 4 -10 10v660c0 6 4 10 10 10h111c6 0 10 -4 10 -10v-660c0 -5 -1 -7 -4 -9c-47 -35 -65 -61 -65 -83c0 -15 8 -23 19 -23c7 0 12 1 17 4s11 1 13 -4l22 -55c2 -5 0 -10 -5 -13c-14 -10 -42 -18 -66 -18z
" />
    <glyph glyph-name="Jcircumflex" unicode="&#x134;" horiz-adv-x="369" 
d="M13 41c-4 5 -4 10 1 14l72 70c5 4 9 4 15 -1c10 -9 23 -15 38 -15c35 0 54 19 54 66v495c0 6 4 10 10 10h111c6 0 10 -4 10 -10v-483c0 -137 -73 -196 -186 -196c-52 0 -99 18 -125 50zM393 746h-70c-8 0 -13 3 -19 10l-47 57h-2l-47 -57c-6 -7 -11 -10 -19 -10h-70
c-6 0 -8 5 -4 10l90 130c4 6 10 10 17 10h67c8 0 13 -4 17 -10l91 -130c4 -5 2 -10 -4 -10z" />
    <glyph glyph-name="Kcommaaccent" unicode="&#x136;" horiz-adv-x="466" 
d="M202 -231c-6 0 -9 3 -9 10v158c0 6 4 10 10 10h84c6 0 10 -4 10 -10v-61c0 -10 -2 -16 -8 -23l-74 -78c-4 -4 -8 -6 -13 -6zM46 10v660c0 6 4 10 10 10h111c6 0 10 -4 10 -10v-261l124 263c3 6 7 8 13 8h116c5 0 8 -5 5 -10l-136 -264l153 -396c2 -5 -1 -10 -6 -10h-119
c-6 0 -9 2 -10 7l-100 271l-40 -84v-184c0 -6 -4 -10 -10 -10h-111c-6 0 -10 4 -10 10z" />
    <glyph glyph-name="Lacute" unicode="&#x139;" horiz-adv-x="385" 
d="M151 755h-74c-6 0 -9 5 -5 10l82 114c5 7 8 10 16 10h100c6 0 9 -5 5 -10l-104 -114c-7 -7 -12 -10 -20 -10zM46 10v660c0 6 4 10 10 10h111c6 0 10 -4 10 -10v-546c0 -4 2 -6 6 -6h172c6 0 10 -4 10 -10v-98c0 -6 -4 -10 -10 -10h-299c-6 0 -10 4 -10 10z" />
    <glyph glyph-name="Lcaron" unicode="&#x13d;" horiz-adv-x="385" 
d="M224 494c-6 0 -9 3 -9 10v166c0 6 4 10 10 10h81c6 0 10 -4 10 -10v-69c0 -12 -3 -16 -9 -23l-70 -77c-4 -5 -8 -7 -13 -7zM46 10v660c0 6 4 10 10 10h111c6 0 10 -4 10 -10v-546c0 -4 2 -6 6 -6h172c6 0 10 -4 10 -10v-98c0 -6 -4 -10 -10 -10h-299c-6 0 -10 4 -10 10z
" />
    <glyph glyph-name="Lcommaaccent" unicode="&#x13b;" horiz-adv-x="385" 
d="M150 -231c-6 0 -9 3 -9 10v158c0 6 4 10 10 10h84c6 0 10 -4 10 -10v-61c0 -10 -2 -16 -8 -23l-74 -78c-4 -4 -8 -6 -13 -6zM46 10v660c0 6 4 10 10 10h111c6 0 10 -4 10 -10v-546c0 -4 2 -6 6 -6h172c6 0 10 -4 10 -10v-98c0 -6 -4 -10 -10 -10h-299c-6 0 -10 4 -10 10z
" />
    <glyph glyph-name="Lslash" unicode="&#x141;" horiz-adv-x="385" 
d="M262 384l-85 -58v-202c0 -4 2 -6 6 -6h172c6 0 10 -4 10 -10v-98c0 -6 -4 -10 -10 -10h-299c-6 0 -10 4 -10 10v233l-31 -21c-5 -3 -10 0 -10 5v94c0 7 3 11 10 16l31 21v312c0 6 4 10 10 10h111c6 0 10 -4 10 -10v-229l85 59c5 3 10 0 10 -5v-95c0 -7 -3 -11 -10 -16z
" />
    <glyph glyph-name="Ldot" unicode="&#x13f;" horiz-adv-x="385" 
d="M46 10v660c0 6 4 10 10 10h111c6 0 10 -4 10 -10v-546c0 -4 2 -6 6 -6h172c6 0 10 -4 10 -10v-98c0 -6 -4 -10 -10 -10h-299c-6 0 -10 4 -10 10zM355 239h-102c-6 0 -10 4 -10 10v116c0 6 4 10 10 10h102c6 0 10 -4 10 -10v-116c0 -6 -4 -10 -10 -10z" />
    <glyph glyph-name="Nacute" unicode="&#x143;" horiz-adv-x="474" 
d="M261 755h-74c-6 0 -9 5 -5 10l82 114c5 7 8 10 16 10h100c6 0 9 -5 5 -10l-104 -114c-7 -7 -12 -10 -20 -10zM46 10v660c0 6 4 10 10 10h125c8 0 12 -3 14 -10l113 -427h5v427c0 6 4 10 10 10h95c6 0 10 -4 10 -10v-660c0 -6 -4 -10 -10 -10h-120c-8 0 -12 3 -14 10
l-118 427h-5v-427c0 -6 -4 -10 -10 -10h-95c-6 0 -10 4 -10 10z" />
    <glyph glyph-name="Ncaron" unicode="&#x147;" horiz-adv-x="474" 
d="M271 741h-67c-7 0 -13 4 -17 10l-90 130c-4 5 -2 10 4 10h70c8 0 13 -3 19 -10l47 -57h2l47 57c6 7 11 10 19 10h70c6 0 8 -5 4 -10l-91 -130c-4 -6 -9 -10 -17 -10zM46 10v660c0 6 4 10 10 10h125c8 0 12 -3 14 -10l113 -427h5v427c0 6 4 10 10 10h95c6 0 10 -4 10 -10
v-660c0 -6 -4 -10 -10 -10h-120c-8 0 -12 3 -14 10l-118 427h-5v-427c0 -6 -4 -10 -10 -10h-95c-6 0 -10 4 -10 10z" />
    <glyph glyph-name="Ntilde" unicode="&#xd1;" horiz-adv-x="474" 
d="M287 754c-23 0 -38 8 -55 19s-28 17 -44 17c-24 0 -38 -12 -55 -29c-5 -5 -11 -3 -11 4v73c0 7 2 11 9 18c15 15 33 27 58 27c23 0 38 -8 55 -19c17 -10 28 -16 44 -16c24 0 38 11 54 28c5 5 12 3 12 -4v-73c0 -7 -2 -11 -9 -18c-15 -15 -33 -27 -58 -27zM46 10v660
c0 6 4 10 10 10h125c8 0 12 -3 14 -10l113 -427h5v427c0 6 4 10 10 10h95c6 0 10 -4 10 -10v-660c0 -6 -4 -10 -10 -10h-120c-8 0 -12 3 -14 10l-118 427h-5v-427c0 -6 -4 -10 -10 -10h-95c-6 0 -10 4 -10 10z" />
    <glyph glyph-name="Ncommaaccent" unicode="&#x145;" horiz-adv-x="474" 
d="M207 -231c-6 0 -9 3 -9 10v158c0 6 4 10 10 10h84c6 0 10 -4 10 -10v-61c0 -10 -2 -16 -8 -23l-74 -78c-4 -4 -8 -6 -13 -6zM46 10v660c0 6 4 10 10 10h125c8 0 12 -3 14 -10l113 -427h5v427c0 6 4 10 10 10h95c6 0 10 -4 10 -10v-660c0 -6 -4 -10 -10 -10h-120
c-8 0 -12 3 -14 10l-118 427h-5v-427c0 -6 -4 -10 -10 -10h-95c-6 0 -10 4 -10 10z" />
    <glyph glyph-name="Ograve" unicode="&#xd2;" horiz-adv-x="448" 
d="M267 755h-74c-8 0 -12 3 -19 10l-104 114c-4 5 -1 10 5 10h100c8 0 11 -3 16 -10l82 -114c4 -5 0 -10 -6 -10zM224 -9c-89 0 -149 40 -174 115c-11 31 -14 59 -14 234s3 203 14 234c25 75 85 115 174 115s149 -40 174 -115c11 -31 14 -59 14 -234s-3 -203 -14 -234
c-25 -75 -85 -115 -174 -115zM224 109c25 0 42 14 48 33c5 16 7 33 7 198s-2 182 -7 198c-6 19 -23 33 -48 33s-42 -14 -48 -33c-5 -16 -7 -33 -7 -198s2 -182 7 -198c6 -19 23 -33 48 -33z" />
    <glyph glyph-name="Oacute" unicode="&#xd3;" horiz-adv-x="448" 
d="M254 755h-74c-6 0 -9 5 -5 10l82 114c5 7 8 10 16 10h100c6 0 9 -5 5 -10l-104 -114c-7 -7 -12 -10 -20 -10zM224 -9c-89 0 -149 40 -174 115c-11 31 -14 59 -14 234s3 203 14 234c25 75 85 115 174 115s149 -40 174 -115c11 -31 14 -59 14 -234s-3 -203 -14 -234
c-25 -75 -85 -115 -174 -115zM224 109c25 0 42 14 48 33c5 16 7 33 7 198s-2 182 -7 198c-6 19 -23 33 -48 33s-42 -14 -48 -33c-5 -16 -7 -33 -7 -198s2 -182 7 -198c6 -19 23 -33 48 -33z" />
    <glyph glyph-name="Ocircumflex" unicode="&#xd4;" horiz-adv-x="448" 
d="M224 -9c-89 0 -149 40 -174 115c-11 31 -14 59 -14 234s3 203 14 234c25 75 85 115 174 115s149 -40 174 -115c11 -31 14 -59 14 -234s-3 -203 -14 -234c-25 -75 -85 -115 -174 -115zM224 109c25 0 42 14 48 33c5 16 7 33 7 198s-2 182 -7 198c-6 19 -23 33 -48 33
s-42 -14 -48 -33c-5 -16 -7 -33 -7 -198s2 -182 7 -198c6 -19 23 -33 48 -33zM361 746h-70c-8 0 -13 3 -19 10l-47 57h-2l-47 -57c-6 -7 -11 -10 -19 -10h-70c-6 0 -8 5 -4 10l90 130c4 6 10 10 17 10h67c8 0 13 -4 17 -10l91 -130c4 -5 2 -10 -4 -10z" />
    <glyph glyph-name="Otilde" unicode="&#xd5;" horiz-adv-x="448" 
d="M272 754c-23 0 -38 8 -55 19s-28 17 -44 17c-24 0 -38 -12 -55 -29c-5 -5 -11 -3 -11 4v73c0 7 2 11 9 18c15 15 33 27 58 27c23 0 38 -8 55 -19c17 -10 28 -16 44 -16c24 0 38 11 54 28c5 5 12 3 12 -4v-73c0 -7 -2 -11 -9 -18c-15 -15 -33 -27 -58 -27zM224 -9
c-89 0 -149 40 -174 115c-11 31 -14 59 -14 234s3 203 14 234c25 75 85 115 174 115s149 -40 174 -115c11 -31 14 -59 14 -234s-3 -203 -14 -234c-25 -75 -85 -115 -174 -115zM224 109c25 0 42 14 48 33c5 16 7 33 7 198s-2 182 -7 198c-6 19 -23 33 -48 33s-42 -14 -48 -33
c-5 -16 -7 -33 -7 -198s2 -182 7 -198c6 -19 23 -33 48 -33z" />
    <glyph glyph-name="Odieresis" unicode="&#xd6;" horiz-adv-x="448" 
d="M341 760h-77c-6 0 -10 4 -10 10v98c0 6 4 10 10 10h77c6 0 10 -4 10 -10v-98c0 -6 -4 -10 -10 -10zM183 760h-77c-6 0 -10 4 -10 10v98c0 6 4 10 10 10h77c6 0 10 -4 10 -10v-98c0 -6 -4 -10 -10 -10zM224 -9c-89 0 -149 40 -174 115c-11 31 -14 59 -14 234s3 203 14 234
c25 75 85 115 174 115s149 -40 174 -115c11 -31 14 -59 14 -234s-3 -203 -14 -234c-25 -75 -85 -115 -174 -115zM224 109c25 0 42 14 48 33c5 16 7 33 7 198s-2 182 -7 198c-6 19 -23 33 -48 33s-42 -14 -48 -33c-5 -16 -7 -33 -7 -198s2 -182 7 -198c6 -19 23 -33 48 -33z
" />
    <glyph glyph-name="Omacron" unicode="&#x14c;" horiz-adv-x="448" 
d="M335 771h-223c-6 0 -10 4 -10 10v74c0 6 4 10 10 10h223c6 0 10 -4 10 -10v-74c0 -6 -4 -10 -10 -10zM224 -9c-89 0 -149 40 -174 115c-11 31 -14 59 -14 234s3 203 14 234c25 75 85 115 174 115s149 -40 174 -115c11 -31 14 -59 14 -234s-3 -203 -14 -234
c-25 -75 -85 -115 -174 -115zM224 109c25 0 42 14 48 33c5 16 7 33 7 198s-2 182 -7 198c-6 19 -23 33 -48 33s-42 -14 -48 -33c-5 -16 -7 -33 -7 -198s2 -182 7 -198c6 -19 23 -33 48 -33z" />
    <glyph glyph-name="Obreve" unicode="&#x14e;" horiz-adv-x="448" 
d="M224 736c-85 0 -129 58 -133 129c0 6 4 10 11 10h53c7 0 10 -4 12 -10c10 -27 28 -46 57 -46c28 0 47 19 57 46c2 6 4 10 11 10h53c7 0 11 -4 11 -10c-3 -71 -48 -129 -132 -129zM224 -9c-89 0 -149 40 -174 115c-11 31 -14 59 -14 234s3 203 14 234
c25 75 85 115 174 115s149 -40 174 -115c11 -31 14 -59 14 -234s-3 -203 -14 -234c-25 -75 -85 -115 -174 -115zM224 109c25 0 42 14 48 33c5 16 7 33 7 198s-2 182 -7 198c-6 19 -23 33 -48 33s-42 -14 -48 -33c-5 -16 -7 -33 -7 -198s2 -182 7 -198c6 -19 23 -33 48 -33z
" />
    <glyph glyph-name="Ohungarumlaut" unicode="&#x150;" horiz-adv-x="448" 
d="M224 -9c-89 0 -149 40 -174 115c-11 31 -14 59 -14 234s3 203 14 234c25 75 85 115 174 115s149 -40 174 -115c11 -31 14 -59 14 -234s-3 -203 -14 -234c-25 -75 -85 -115 -174 -115zM224 109c25 0 42 14 48 33c5 16 7 33 7 198s-2 182 -7 198c-6 19 -23 33 -48 33
s-42 -14 -48 -33c-5 -16 -7 -33 -7 -198s2 -182 7 -198c6 -19 23 -33 48 -33zM321 755h-64c-6 0 -9 4 -6 10l71 112c4 6 9 10 17 10h82c6 0 8 -5 4 -10l-85 -112c-6 -7 -11 -10 -19 -10zM177 755h-64c-6 0 -9 4 -5 10l70 112c4 6 9 10 17 10h83c6 0 8 -5 4 -10l-86 -112
c-6 -7 -10 -10 -19 -10z" />
    <glyph glyph-name="Oslash" unicode="&#xd8;" horiz-adv-x="448" 
d="M224 -9c-48 0 -88 11 -118 34l-21 -46c-4 -7 -7 -9 -15 -9h-41c-6 0 -9 4 -6 10l43 90c-7 11 -12 23 -16 36c-11 31 -14 59 -14 234s3 203 14 234c25 75 85 115 174 115c47 0 87 -12 117 -34l22 46c4 7 7 9 14 9h42c6 0 9 -4 6 -10l-44 -90c7 -11 12 -23 17 -36
c11 -31 14 -59 14 -234s-3 -203 -14 -234c-25 -75 -85 -115 -174 -115zM168 340v-61l108 249c-3 26 -25 44 -52 44c-26 0 -44 -16 -50 -35c-5 -16 -6 -32 -6 -197zM224 108c24 0 44 14 50 33c5 16 6 34 6 199v56l-108 -248c4 -24 27 -40 52 -40z" />
    <glyph glyph-name="Oslashacute" unicode="&#x1fe;" horiz-adv-x="448" 
d="M224 -9c-48 0 -88 11 -118 34l-21 -46c-4 -7 -7 -9 -15 -9h-41c-6 0 -9 4 -6 10l43 90c-7 11 -12 23 -16 36c-11 31 -14 59 -14 234s3 203 14 234c25 75 85 115 174 115c47 0 87 -12 117 -34l22 46c4 7 7 9 14 9h42c6 0 9 -4 6 -10l-44 -90c7 -11 12 -23 17 -36
c11 -31 14 -59 14 -234s-3 -203 -14 -234c-25 -75 -85 -115 -174 -115zM168 340v-61l108 249c-3 26 -25 44 -52 44c-26 0 -44 -16 -50 -35c-5 -16 -6 -32 -6 -197zM224 108c24 0 44 14 50 33c5 16 6 34 6 199v56l-108 -248c4 -24 27 -40 52 -40zM254 755h-74
c-6 0 -9 5 -5 10l82 114c5 7 8 10 16 10h100c6 0 9 -5 5 -10l-104 -114c-7 -7 -12 -10 -20 -10z" />
    <glyph glyph-name="OE" unicode="&#x152;" horiz-adv-x="623" 
d="M586 0h-297c-6 0 -10 4 -10 10v12h-1c-14 -17 -43 -31 -85 -31c-71 0 -121 34 -144 105c-10 31 -13 68 -13 244s3 213 13 244c23 71 73 105 144 105c42 0 71 -14 85 -31h1v12c0 6 4 10 10 10h297c6 0 10 -4 10 -10v-98c0 -6 -4 -10 -10 -10h-170c-4 0 -6 -2 -6 -6v-148
c0 -4 2 -6 6 -6h147c6 0 10 -4 10 -10v-98c0 -6 -4 -10 -10 -10h-147c-4 0 -6 -2 -6 -6v-154c0 -4 2 -6 6 -6h170c6 0 10 -4 10 -10v-98c0 -6 -4 -10 -10 -10zM224 109c24 0 43 14 49 33c5 16 6 33 6 198s-1 182 -6 198c-6 19 -25 33 -49 33s-43 -14 -49 -33
c-5 -16 -6 -33 -6 -198s1 -182 6 -198c6 -19 25 -33 49 -33z" />
    <glyph glyph-name="Racute" unicode="&#x154;" horiz-adv-x="454" 
d="M429 0h-120c-6 0 -9 2 -11 8l-77 258h-38c-4 0 -6 -2 -6 -6v-250c0 -6 -4 -10 -10 -10h-111c-6 0 -10 4 -10 10v660c0 6 4 10 10 10h162c121 0 199 -57 199 -208c0 -86 -29 -142 -76 -174l93 -288c2 -5 0 -10 -5 -10zM212 379c51 0 73 21 73 93c0 71 -22 93 -73 93h-29
c-4 0 -6 -2 -6 -6v-174c0 -4 2 -6 6 -6h29zM235 755h-74c-6 0 -9 5 -5 10l82 114c5 7 8 10 16 10h100c6 0 9 -5 5 -10l-104 -114c-7 -7 -12 -10 -20 -10z" />
    <glyph glyph-name="Rcaron" unicode="&#x158;" horiz-adv-x="454" 
d="M235 741h-67c-7 0 -13 4 -17 10l-90 130c-4 5 -2 10 4 10h70c8 0 13 -3 19 -10l47 -57h2l47 57c6 7 11 10 19 10h70c6 0 8 -5 4 -10l-91 -130c-4 -6 -9 -10 -17 -10zM429 0h-120c-6 0 -9 2 -11 8l-77 258h-38c-4 0 -6 -2 -6 -6v-250c0 -6 -4 -10 -10 -10h-111
c-6 0 -10 4 -10 10v660c0 6 4 10 10 10h162c121 0 199 -57 199 -208c0 -86 -29 -142 -76 -174l93 -288c2 -5 0 -10 -5 -10zM212 379c51 0 73 21 73 93c0 71 -22 93 -73 93h-29c-4 0 -6 -2 -6 -6v-174c0 -4 2 -6 6 -6h29z" />
    <glyph glyph-name="Rcommaaccent" unicode="&#x156;" horiz-adv-x="454" 
d="M183 -231c-6 0 -9 3 -9 10v158c0 6 4 10 10 10h84c6 0 10 -4 10 -10v-61c0 -10 -2 -16 -8 -23l-74 -78c-4 -4 -8 -6 -13 -6zM429 0h-120c-6 0 -9 2 -11 8l-77 258h-38c-4 0 -6 -2 -6 -6v-250c0 -6 -4 -10 -10 -10h-111c-6 0 -10 4 -10 10v660c0 6 4 10 10 10h162
c121 0 199 -57 199 -208c0 -86 -29 -142 -76 -174l93 -288c2 -5 0 -10 -5 -10zM212 379c51 0 73 21 73 93c0 71 -22 93 -73 93h-29c-4 0 -6 -2 -6 -6v-174c0 -4 2 -6 6 -6h29z" />
    <glyph glyph-name="Sacute" unicode="&#x15a;" horiz-adv-x="423" 
d="M398 202c0 -139 -53 -211 -188 -211c-123 0 -182 65 -184 182c0 6 2 10 8 11l107 17c7 1 11 -2 11 -8c2 -63 20 -88 59 -88c37 0 54 19 54 81c0 60 -12 81 -63 101l-41 16c-96 37 -129 88 -129 197c0 123 59 189 180 189c119 0 175 -62 180 -169c0 -6 -3 -10 -9 -11
l-102 -16c-6 -1 -11 2 -11 8c-1 49 -18 74 -54 74c-35 0 -52 -22 -52 -68c0 -51 11 -67 64 -88l41 -16c93 -36 129 -86 129 -201zM235 755h-74c-6 0 -9 5 -5 10l82 114c5 7 8 10 16 10h100c6 0 9 -5 5 -10l-104 -114c-7 -7 -12 -10 -20 -10z" />
    <glyph glyph-name="Scircumflex" unicode="&#x15c;" horiz-adv-x="423" 
d="M398 202c0 -139 -53 -211 -188 -211c-123 0 -182 65 -184 182c0 6 2 10 8 11l107 17c7 1 11 -2 11 -8c2 -63 20 -88 59 -88c37 0 54 19 54 81c0 60 -12 81 -63 101l-41 16c-96 37 -129 88 -129 197c0 123 59 189 180 189c119 0 175 -62 180 -169c0 -6 -3 -10 -9 -11
l-102 -16c-6 -1 -11 2 -11 8c-1 49 -18 74 -54 74c-35 0 -52 -22 -52 -68c0 -51 11 -67 64 -88l41 -16c93 -36 129 -86 129 -201zM349 746h-70c-8 0 -13 3 -19 10l-47 57h-2l-47 -57c-6 -7 -11 -10 -19 -10h-70c-6 0 -8 5 -4 10l90 130c4 6 10 10 17 10h67c8 0 13 -4 17 -10
l91 -130c4 -5 2 -10 -4 -10z" />
    <glyph glyph-name="Scaron" unicode="&#x160;" horiz-adv-x="423" 
d="M398 202c0 -139 -53 -211 -188 -211c-123 0 -182 65 -184 182c0 6 2 10 8 11l107 17c7 1 11 -2 11 -8c2 -63 20 -88 59 -88c37 0 54 19 54 81c0 60 -12 81 -63 101l-41 16c-96 37 -129 88 -129 197c0 123 59 189 180 189c119 0 175 -62 180 -169c0 -6 -3 -10 -9 -11
l-102 -16c-6 -1 -11 2 -11 8c-1 49 -18 74 -54 74c-35 0 -52 -22 -52 -68c0 -51 11 -67 64 -88l41 -16c93 -36 129 -86 129 -201zM238 741h-67c-7 0 -13 4 -17 10l-90 130c-4 5 -2 10 4 10h70c8 0 13 -3 19 -10l47 -57h2l47 57c6 7 11 10 19 10h70c6 0 8 -5 4 -10l-91 -130
c-4 -6 -9 -10 -17 -10z" />
    <glyph glyph-name="Scedilla" unicode="&#x15e;" horiz-adv-x="423" 
d="M399 202c0 -124 -43 -195 -148 -208l-50 -144c-3 -7 -7 -10 -16 -10h-84c-6 0 -9 4 -7 10l63 146c-87 17 -130 78 -131 177c0 6 2 10 8 11l107 17c7 1 11 -2 11 -8c2 -63 20 -88 59 -88c37 0 55 19 55 81c0 60 -13 81 -64 101l-41 16c-96 37 -129 88 -129 197
c0 123 59 189 180 189c119 0 175 -62 180 -169c0 -6 -3 -10 -9 -11l-102 -16c-6 -1 -11 2 -11 8c-1 49 -18 74 -54 74c-35 0 -52 -22 -52 -68c0 -51 11 -67 64 -88l41 -16c93 -36 130 -86 130 -201z" />
    <glyph glyph-name="Scommaaccent" unicode="&#x218;" horiz-adv-x="423" 
d="M169 -231c-6 0 -9 3 -9 10v158c0 6 4 10 10 10h84c6 0 10 -4 10 -10v-61c0 -10 -2 -16 -8 -23l-74 -78c-4 -4 -8 -6 -13 -6zM398 202c0 -139 -53 -211 -188 -211c-123 0 -182 65 -184 182c0 6 2 10 8 11l107 17c7 1 11 -2 11 -8c2 -63 20 -88 59 -88c37 0 54 19 54 81
c0 60 -12 81 -63 101l-41 16c-96 37 -129 88 -129 197c0 123 59 189 180 189c119 0 175 -62 180 -169c0 -6 -3 -10 -9 -11l-102 -16c-6 -1 -11 2 -11 8c-1 49 -18 74 -54 74c-35 0 -52 -22 -52 -68c0 -51 11 -67 64 -88l41 -16c93 -36 129 -86 129 -201z" />
    <glyph glyph-name="Tcaron" unicode="&#x164;" horiz-adv-x="405" 
d="M237 741h-67c-7 0 -13 4 -17 10l-90 130c-4 5 -2 10 4 10h70c8 0 13 -3 19 -10l47 -57h2l47 57c6 7 11 10 19 10h70c6 0 8 -5 4 -10l-91 -130c-4 -6 -9 -10 -17 -10zM258 0h-111c-6 0 -10 4 -10 10v546c0 4 -2 6 -6 6h-107c-6 0 -10 4 -10 10v98c0 6 4 10 10 10h357
c6 0 10 -4 10 -10v-98c0 -6 -4 -10 -10 -10h-107c-4 0 -6 -2 -6 -6v-546c0 -6 -4 -10 -10 -10z" />
    <glyph glyph-name="Tcommaaccent" unicode="&#x162;" horiz-adv-x="405" 
d="M161 -231c-6 0 -9 3 -9 10v158c0 6 4 10 10 10h84c6 0 10 -4 10 -10v-61c0 -10 -2 -16 -8 -23l-74 -78c-4 -4 -8 -6 -13 -6zM258 0h-111c-6 0 -10 4 -10 10v546c0 4 -2 6 -6 6h-107c-6 0 -10 4 -10 10v98c0 6 4 10 10 10h357c6 0 10 -4 10 -10v-98c0 -6 -4 -10 -10 -10
h-107c-4 0 -6 -2 -6 -6v-546c0 -6 -4 -10 -10 -10z" />
    <glyph glyph-name="uni021A" unicode="&#x21a;" horiz-adv-x="405" 
d="M161 -231c-6 0 -9 3 -9 10v158c0 6 4 10 10 10h84c6 0 10 -4 10 -10v-61c0 -10 -2 -16 -8 -23l-74 -78c-4 -4 -8 -6 -13 -6zM258 0h-111c-6 0 -10 4 -10 10v546c0 4 -2 6 -6 6h-107c-6 0 -10 4 -10 10v98c0 6 4 10 10 10h357c6 0 10 -4 10 -10v-98c0 -6 -4 -10 -10 -10
h-107c-4 0 -6 -2 -6 -6v-546c0 -6 -4 -10 -10 -10z" />
    <glyph glyph-name="Tbar" unicode="&#x166;" horiz-adv-x="405" 
d="M258 0h-111c-6 0 -10 4 -10 10v318c0 4 -2 6 -6 6h-59c-6 0 -10 4 -10 10v83c0 6 4 10 10 10h59c4 0 6 2 6 6v113c0 4 -2 6 -6 6h-107c-6 0 -10 4 -10 10v98c0 6 4 10 10 10h357c6 0 10 -4 10 -10v-98c0 -6 -4 -10 -10 -10h-107c-4 0 -6 -2 -6 -6v-113c0 -4 2 -6 6 -6h59
c6 0 10 -4 10 -10v-83c0 -6 -4 -10 -10 -10h-59c-4 0 -6 -2 -6 -6v-318c0 -6 -4 -10 -10 -10z" />
    <glyph glyph-name="Thorn" unicode="&#xde;" horiz-adv-x="443" 
d="M167 0h-111c-6 0 -10 4 -10 10v660c0 6 4 10 10 10h111c6 0 10 -4 10 -10v-100c0 -4 2 -6 6 -6h33c124 0 200 -59 200 -214c0 -153 -79 -214 -200 -214h-33c-4 0 -6 -2 -6 -6v-120c0 -6 -4 -10 -10 -10zM212 251c51 0 73 22 73 99s-22 99 -73 99h-29c-4 0 -6 -2 -6 -6
v-186c0 -4 2 -6 6 -6h29z" />
    <glyph glyph-name="Ugrave" unicode="&#xd9;" horiz-adv-x="455" 
d="M271 755h-74c-8 0 -12 3 -19 10l-104 114c-4 5 -1 10 5 10h100c8 0 11 -3 16 -10l82 -114c4 -5 0 -10 -6 -10zM227 -9c-113 0 -183 65 -183 193v486c0 6 4 10 10 10h111c6 0 10 -4 10 -10v-502c0 -36 19 -59 52 -59c34 0 53 23 53 59v502c0 6 4 10 10 10h111
c6 0 10 -4 10 -10v-486c0 -128 -70 -193 -184 -193z" />
    <glyph glyph-name="Uacute" unicode="&#xda;" horiz-adv-x="455" 
d="M264 755h-74c-6 0 -9 5 -5 10l82 114c5 7 8 10 16 10h100c6 0 9 -5 5 -10l-104 -114c-7 -7 -12 -10 -20 -10zM227 -9c-113 0 -183 65 -183 193v486c0 6 4 10 10 10h111c6 0 10 -4 10 -10v-502c0 -36 19 -59 52 -59c34 0 53 23 53 59v502c0 6 4 10 10 10h111
c6 0 10 -4 10 -10v-486c0 -128 -70 -193 -184 -193z" />
    <glyph glyph-name="Ucircumflex" unicode="&#xdb;" horiz-adv-x="455" 
d="M227 -9c-113 0 -183 65 -183 193v486c0 6 4 10 10 10h111c6 0 10 -4 10 -10v-502c0 -36 19 -59 52 -59c34 0 53 23 53 59v502c0 6 4 10 10 10h111c6 0 10 -4 10 -10v-486c0 -128 -70 -193 -184 -193zM364 746h-70c-8 0 -13 3 -19 10l-47 57h-2l-47 -57
c-6 -7 -11 -10 -19 -10h-70c-6 0 -8 5 -4 10l90 130c4 6 10 10 17 10h67c8 0 13 -4 17 -10l91 -130c4 -5 2 -10 -4 -10z" />
    <glyph glyph-name="Utilde" unicode="&#x168;" horiz-adv-x="455" 
d="M276 754c-23 0 -38 8 -55 19s-28 17 -44 17c-24 0 -38 -12 -55 -29c-5 -5 -11 -3 -11 4v73c0 7 2 11 9 18c15 15 33 27 58 27c23 0 38 -8 55 -19c17 -10 28 -16 44 -16c24 0 38 11 54 28c5 5 12 3 12 -4v-73c0 -7 -2 -11 -9 -18c-15 -15 -33 -27 -58 -27zM227 -9
c-113 0 -183 65 -183 193v486c0 6 4 10 10 10h111c6 0 10 -4 10 -10v-502c0 -36 19 -59 52 -59c34 0 53 23 53 59v502c0 6 4 10 10 10h111c6 0 10 -4 10 -10v-486c0 -128 -70 -193 -184 -193z" />
    <glyph glyph-name="Udieresis" unicode="&#xdc;" horiz-adv-x="455" 
d="M344 760h-77c-6 0 -10 4 -10 10v98c0 6 4 10 10 10h77c6 0 10 -4 10 -10v-98c0 -6 -4 -10 -10 -10zM186 760h-77c-6 0 -10 4 -10 10v98c0 6 4 10 10 10h77c6 0 10 -4 10 -10v-98c0 -6 -4 -10 -10 -10zM227 -9c-113 0 -183 65 -183 193v486c0 6 4 10 10 10h111
c6 0 10 -4 10 -10v-502c0 -36 19 -59 52 -59c34 0 53 23 53 59v502c0 6 4 10 10 10h111c6 0 10 -4 10 -10v-486c0 -128 -70 -193 -184 -193z" />
    <glyph glyph-name="Umacron" unicode="&#x16a;" horiz-adv-x="455" 
d="M338 771h-223c-6 0 -10 4 -10 10v74c0 6 4 10 10 10h223c6 0 10 -4 10 -10v-74c0 -6 -4 -10 -10 -10zM227 -9c-113 0 -183 65 -183 193v486c0 6 4 10 10 10h111c6 0 10 -4 10 -10v-502c0 -36 19 -59 52 -59c34 0 53 23 53 59v502c0 6 4 10 10 10h111c6 0 10 -4 10 -10
v-486c0 -128 -70 -193 -184 -193z" />
    <glyph glyph-name="Ubreve" unicode="&#x16c;" horiz-adv-x="455" 
d="M227 736c-85 0 -129 58 -133 129c0 6 4 10 11 10h53c7 0 10 -4 12 -10c10 -27 28 -46 57 -46c28 0 47 19 57 46c2 6 4 10 11 10h53c7 0 11 -4 11 -10c-3 -71 -48 -129 -132 -129zM227 -9c-113 0 -183 65 -183 193v486c0 6 4 10 10 10h111c6 0 10 -4 10 -10v-502
c0 -36 19 -59 52 -59c34 0 53 23 53 59v502c0 6 4 10 10 10h111c6 0 10 -4 10 -10v-486c0 -128 -70 -193 -184 -193z" />
    <glyph glyph-name="Uring" unicode="&#x16e;" horiz-adv-x="455" 
d="M227 -9c-113 0 -183 65 -183 193v486c0 6 4 10 10 10h111c6 0 10 -4 10 -10v-502c0 -36 19 -59 52 -59c34 0 53 23 53 59v502c0 6 4 10 10 10h111c6 0 10 -4 10 -10v-486c0 -128 -70 -193 -184 -193zM227 715c-55 0 -96 41 -96 96s41 95 96 95s96 -40 96 -95
s-41 -96 -96 -96zM227 765c25 0 43 20 43 46s-18 45 -43 45s-44 -19 -44 -45s19 -46 44 -46z" />
    <glyph glyph-name="Uhungarumlaut" unicode="&#x170;" horiz-adv-x="455" 
d="M227 -9c-113 0 -183 65 -183 193v486c0 6 4 10 10 10h111c6 0 10 -4 10 -10v-502c0 -36 19 -59 52 -59c34 0 53 23 53 59v502c0 6 4 10 10 10h111c6 0 10 -4 10 -10v-486c0 -128 -70 -193 -184 -193zM328 755h-64c-6 0 -9 4 -6 10l71 112c4 6 9 10 17 10h82
c6 0 8 -5 4 -10l-85 -112c-6 -7 -11 -10 -19 -10zM184 755h-64c-6 0 -9 4 -5 10l70 112c4 6 9 10 17 10h83c6 0 8 -5 4 -10l-86 -112c-6 -7 -10 -10 -19 -10z" />
    <glyph glyph-name="Uogonek" unicode="&#x172;" horiz-adv-x="455" 
d="M233 -191c-58 0 -95 31 -95 87c0 35 11 61 41 99c-84 16 -135 79 -135 189v486c0 6 4 10 10 10h111c6 0 10 -4 10 -10v-502c0 -36 19 -59 52 -59c34 0 53 23 53 59v502c0 6 4 10 10 10h111c6 0 10 -4 10 -10v-486c0 -106 -49 -169 -127 -187c-44 -43 -51 -62 -51 -79
c0 -15 8 -23 19 -23c7 0 12 1 17 4s10 1 12 -4l23 -55c2 -5 0 -10 -5 -13c-15 -10 -42 -18 -66 -18z" />
    <glyph glyph-name="Wacute" unicode="&#x1e82;" horiz-adv-x="611" 
d="M344 755h-74c-6 0 -9 5 -5 10l82 114c5 7 8 10 16 10h100c6 0 9 -5 5 -10l-104 -114c-7 -7 -12 -10 -20 -10zM477 0h-98c-6 0 -9 4 -10 10l-61 403h-2l-63 -403c-1 -6 -5 -10 -11 -10h-97c-6 0 -10 4 -11 10l-110 660c-1 6 2 10 9 10h113c6 0 10 -3 11 -10l45 -419h2
l63 419c1 7 5 10 11 10h75c6 0 10 -3 12 -10l63 -419h3l46 419c1 7 5 10 11 10h111c7 0 10 -4 8 -10l-109 -660c-2 -6 -5 -10 -11 -10z" />
    <glyph glyph-name="Wcircumflex" unicode="&#x174;" horiz-adv-x="611" 
d="M477 0h-98c-6 0 -9 4 -10 10l-61 403h-2l-63 -403c-1 -6 -5 -10 -11 -10h-97c-6 0 -10 4 -11 10l-110 660c-1 6 2 10 9 10h113c6 0 10 -3 11 -10l45 -419h2l63 419c1 7 5 10 11 10h75c6 0 10 -3 12 -10l63 -419h3l46 419c1 7 5 10 11 10h111c7 0 10 -4 8 -10l-109 -660
c-2 -6 -5 -10 -11 -10zM442 746h-70c-8 0 -13 3 -19 10l-47 57h-2l-47 -57c-6 -7 -11 -10 -19 -10h-70c-6 0 -8 5 -4 10l90 130c4 6 10 10 17 10h67c8 0 13 -4 17 -10l91 -130c4 -5 2 -10 -4 -10z" />
    <glyph glyph-name="Wdieresis" unicode="&#x1e84;" horiz-adv-x="611" 
d="M422 760h-77c-6 0 -10 4 -10 10v98c0 6 4 10 10 10h77c6 0 10 -4 10 -10v-98c0 -6 -4 -10 -10 -10zM264 760h-77c-6 0 -10 4 -10 10v98c0 6 4 10 10 10h77c6 0 10 -4 10 -10v-98c0 -6 -4 -10 -10 -10zM477 0h-98c-6 0 -9 4 -10 10l-61 403h-2l-63 -403
c-1 -6 -5 -10 -11 -10h-97c-6 0 -10 4 -11 10l-110 660c-1 6 2 10 9 10h113c6 0 10 -3 11 -10l45 -419h2l63 419c1 7 5 10 11 10h75c6 0 10 -3 12 -10l63 -419h3l46 419c1 7 5 10 11 10h111c7 0 10 -4 8 -10l-109 -660c-2 -6 -5 -10 -11 -10z" />
    <glyph glyph-name="Wgrave" unicode="&#x1e80;" horiz-adv-x="611" 
d="M339 755h-74c-8 0 -12 3 -19 10l-104 114c-4 5 -1 10 5 10h100c8 0 11 -3 16 -10l82 -114c4 -5 0 -10 -6 -10zM477 0h-98c-6 0 -9 4 -10 10l-61 403h-2l-63 -403c-1 -6 -5 -10 -11 -10h-97c-6 0 -10 4 -11 10l-110 660c-1 6 2 10 9 10h113c6 0 10 -3 11 -10l45 -419h2
l63 419c1 7 5 10 11 10h75c6 0 10 -3 12 -10l63 -419h3l46 419c1 7 5 10 11 10h111c7 0 10 -4 8 -10l-109 -660c-2 -6 -5 -10 -11 -10z" />
    <glyph glyph-name="Yacute" unicode="&#xdd;" horiz-adv-x="411" 
d="M261 0h-111c-6 0 -10 4 -10 10v260l-132 400c-2 6 0 10 8 10h111c7 0 11 -3 12 -10l67 -249h4l64 249c2 7 5 10 12 10h109c8 0 10 -4 8 -10l-132 -400v-260c0 -6 -4 -10 -10 -10zM236 755h-74c-6 0 -9 5 -5 10l82 114c5 7 8 10 16 10h100c6 0 9 -5 5 -10l-104 -114
c-7 -7 -12 -10 -20 -10z" />
    <glyph glyph-name="Ycircumflex" unicode="&#x176;" horiz-adv-x="411" 
d="M261 0h-111c-6 0 -10 4 -10 10v260l-132 400c-2 6 0 10 8 10h111c7 0 11 -3 12 -10l67 -249h4l64 249c2 7 5 10 12 10h109c8 0 10 -4 8 -10l-132 -400v-260c0 -6 -4 -10 -10 -10zM343 746h-70c-8 0 -13 3 -19 10l-47 57h-2l-47 -57c-6 -7 -11 -10 -19 -10h-70
c-6 0 -8 5 -4 10l90 130c4 6 10 10 17 10h67c8 0 13 -4 17 -10l91 -130c4 -5 2 -10 -4 -10z" />
    <glyph glyph-name="Ydieresis" unicode="&#x178;" horiz-adv-x="411" 
d="M261 0h-111c-6 0 -10 4 -10 10v260l-132 400c-2 6 0 10 8 10h111c7 0 11 -3 12 -10l67 -249h4l64 249c2 7 5 10 12 10h109c8 0 10 -4 8 -10l-132 -400v-260c0 -6 -4 -10 -10 -10zM323 760h-77c-6 0 -10 4 -10 10v98c0 6 4 10 10 10h77c6 0 10 -4 10 -10v-98
c0 -6 -4 -10 -10 -10zM165 760h-77c-6 0 -10 4 -10 10v98c0 6 4 10 10 10h77c6 0 10 -4 10 -10v-98c0 -6 -4 -10 -10 -10z" />
    <glyph glyph-name="Ygrave" unicode="&#x1ef2;" horiz-adv-x="411" 
d="M261 0h-111c-6 0 -10 4 -10 10v260l-132 400c-2 6 0 10 8 10h111c7 0 11 -3 12 -10l67 -249h4l64 249c2 7 5 10 12 10h109c8 0 10 -4 8 -10l-132 -400v-260c0 -6 -4 -10 -10 -10zM252 755h-74c-8 0 -12 3 -19 10l-104 114c-4 5 -1 10 5 10h100c8 0 11 -3 16 -10l82 -114
c4 -5 0 -10 -6 -10z" />
    <glyph glyph-name="Zacute" unicode="&#x179;" horiz-adv-x="382" 
d="M341 0h-300c-6 0 -10 4 -10 10v94c0 4 2 7 3 10l178 446v2h-161c-6 0 -10 4 -10 10v98c0 6 4 10 10 10h290c6 0 10 -4 10 -10v-95c0 -4 -1 -7 -2 -10l-178 -445v-2h170c6 0 10 -4 10 -10v-98c0 -6 -4 -10 -10 -10zM224 755h-74c-6 0 -9 5 -5 10l82 114c5 7 8 10 16 10
h100c6 0 9 -5 5 -10l-104 -114c-7 -7 -12 -10 -20 -10z" />
    <glyph glyph-name="Zcaron" unicode="&#x17d;" horiz-adv-x="382" 
d="M226 741h-67c-7 0 -13 4 -17 10l-90 130c-4 5 -2 10 4 10h70c8 0 13 -3 19 -10l47 -57h2l47 57c6 7 11 10 19 10h70c6 0 8 -5 4 -10l-91 -130c-4 -6 -9 -10 -17 -10zM341 0h-300c-6 0 -10 4 -10 10v94c0 4 2 7 3 10l178 446v2h-161c-6 0 -10 4 -10 10v98c0 6 4 10 10 10
h290c6 0 10 -4 10 -10v-95c0 -4 -1 -7 -2 -10l-178 -445v-2h170c6 0 10 -4 10 -10v-98c0 -6 -4 -10 -10 -10z" />
    <glyph glyph-name="Zdotaccent" unicode="&#x17b;" horiz-adv-x="382" 
d="M245 760h-105c-6 0 -10 4 -10 10v98c0 6 4 10 10 10h105c6 0 10 -4 10 -10v-98c0 -6 -4 -10 -10 -10zM341 0h-300c-6 0 -10 4 -10 10v94c0 4 2 7 3 10l178 446v2h-161c-6 0 -10 4 -10 10v98c0 6 4 10 10 10h290c6 0 10 -4 10 -10v-95c0 -4 -1 -7 -2 -10l-178 -445v-2h170
c6 0 10 -4 10 -10v-98c0 -6 -4 -10 -10 -10z" />
    <glyph glyph-name="agrave" unicode="&#xe0;" horiz-adv-x="393" 
d="M344 0h-100c-6 0 -10 4 -10 10v33h-1c-12 -31 -45 -52 -90 -52c-56 0 -115 35 -115 145c0 118 74 155 152 155h48c4 0 6 2 6 6v24c0 44 -13 65 -62 65c-33 0 -57 -11 -80 -27c-6 -4 -12 -3 -15 4l-32 76c-3 6 -1 10 4 14c34 25 83 40 141 40c121 0 164 -52 164 -169v-314
c0 -6 -4 -10 -10 -10zM185 88c30 0 49 22 49 58v50c0 4 -2 6 -6 6h-27c-42 0 -58 -24 -58 -59s13 -55 42 -55zM247 551h-75c-8 0 -12 2 -18 10l-93 130c-4 5 -1 10 5 10h100c8 0 12 -3 16 -10l71 -130c3 -6 0 -10 -6 -10z" />
    <glyph glyph-name="aacute" unicode="&#xe1;" horiz-adv-x="393" 
d="M344 0h-100c-6 0 -10 4 -10 10v33h-1c-12 -31 -45 -52 -90 -52c-56 0 -115 35 -115 145c0 118 74 155 152 155h48c4 0 6 2 6 6v24c0 44 -13 65 -62 65c-33 0 -57 -11 -80 -27c-6 -4 -12 -3 -15 4l-32 76c-3 6 -1 10 4 14c34 25 83 40 141 40c121 0 164 -52 164 -169v-314
c0 -6 -4 -10 -10 -10zM185 88c30 0 49 22 49 58v50c0 4 -2 6 -6 6h-27c-42 0 -58 -24 -58 -59s13 -55 42 -55zM232 551h-75c-6 0 -9 4 -6 10l72 130c4 7 8 10 16 10h100c6 0 9 -5 5 -10l-94 -130c-6 -8 -10 -10 -18 -10z" />
    <glyph glyph-name="acircumflex" unicode="&#xe2;" horiz-adv-x="393" 
d="M344 0h-100c-6 0 -10 4 -10 10v33h-1c-12 -31 -45 -52 -90 -52c-56 0 -115 35 -115 145c0 118 74 155 152 155h48c4 0 6 2 6 6v24c0 44 -13 65 -62 65c-33 0 -57 -11 -80 -27c-6 -4 -12 -3 -15 4l-32 76c-3 6 -1 10 4 14c34 25 83 40 141 40c121 0 164 -52 164 -169v-314
c0 -6 -4 -10 -10 -10zM185 88c30 0 49 22 49 58v50c0 4 -2 6 -6 6h-27c-42 0 -58 -24 -58 -59s13 -55 42 -55zM335 550h-70c-8 0 -13 3 -19 10l-47 58h-2l-47 -58c-6 -7 -11 -10 -19 -10h-70c-6 0 -8 5 -4 10l90 131c4 6 10 10 17 10h67c8 0 13 -4 17 -10l91 -131
c4 -5 2 -10 -4 -10z" />
    <glyph glyph-name="atilde" unicode="&#xe3;" horiz-adv-x="393" 
d="M344 0h-100c-6 0 -10 4 -10 10v33h-1c-12 -31 -45 -52 -90 -52c-56 0 -115 35 -115 145c0 118 74 155 152 155h48c4 0 6 2 6 6v24c0 44 -13 65 -62 65c-33 0 -57 -11 -80 -27c-6 -4 -12 -3 -15 4l-32 76c-3 6 -1 10 4 14c34 25 83 40 141 40c121 0 164 -52 164 -169v-314
c0 -6 -4 -10 -10 -10zM185 88c30 0 49 22 49 58v50c0 4 -2 6 -6 6h-27c-42 0 -58 -24 -58 -59s13 -55 42 -55zM246 558c-23 0 -38 8 -55 19c-17 10 -28 16 -44 16c-24 0 -38 -11 -55 -28c-5 -5 -11 -3 -11 4v73c0 7 2 11 9 18c15 15 33 27 58 27c23 0 38 -8 55 -19
c16 -10 28 -17 44 -17c24 0 38 12 54 29c5 5 12 3 12 -4v-73c0 -7 -2 -11 -9 -18c-15 -15 -33 -27 -58 -27z" />
    <glyph glyph-name="adieresis" unicode="&#xe4;" horiz-adv-x="393" 
d="M344 0h-100c-6 0 -10 4 -10 10v33h-1c-12 -31 -45 -52 -90 -52c-56 0 -115 35 -115 145c0 118 74 155 152 155h48c4 0 6 2 6 6v24c0 44 -13 65 -62 65c-33 0 -57 -11 -80 -27c-6 -4 -12 -3 -15 4l-32 76c-3 6 -1 10 4 14c34 25 83 40 141 40c121 0 164 -52 164 -169v-314
c0 -6 -4 -10 -10 -10zM185 88c30 0 49 22 49 58v50c0 4 -2 6 -6 6h-27c-42 0 -58 -24 -58 -59s13 -55 42 -55zM315 562h-77c-6 0 -10 4 -10 10v98c0 6 4 10 10 10h77c6 0 10 -4 10 -10v-98c0 -6 -4 -10 -10 -10zM157 562h-77c-6 0 -10 4 -10 10v98c0 6 4 10 10 10h77
c6 0 10 -4 10 -10v-98c0 -6 -4 -10 -10 -10z" />
    <glyph glyph-name="amacron" unicode="&#x101;" horiz-adv-x="393" 
d="M344 0h-100c-6 0 -10 4 -10 10v33h-1c-12 -31 -45 -52 -90 -52c-56 0 -115 35 -115 145c0 118 74 155 152 155h48c4 0 6 2 6 6v24c0 44 -13 65 -62 65c-33 0 -57 -11 -80 -27c-6 -4 -12 -3 -15 4l-32 76c-3 6 -1 10 4 14c34 25 83 40 141 40c121 0 164 -52 164 -169v-314
c0 -6 -4 -10 -10 -10zM185 88c30 0 49 22 49 58v50c0 4 -2 6 -6 6h-27c-42 0 -58 -24 -58 -59s13 -55 42 -55zM309 576h-223c-6 0 -10 4 -10 10v74c0 6 4 10 10 10h223c6 0 10 -4 10 -10v-74c0 -6 -4 -10 -10 -10z" />
    <glyph glyph-name="abreve" unicode="&#x103;" horiz-adv-x="393" 
d="M344 0h-100c-6 0 -10 4 -10 10v33h-1c-12 -31 -45 -52 -90 -52c-56 0 -115 35 -115 145c0 118 74 155 152 155h48c4 0 6 2 6 6v24c0 44 -13 65 -62 65c-33 0 -57 -11 -80 -27c-6 -4 -12 -3 -15 4l-32 76c-3 6 -1 10 4 14c34 25 83 40 141 40c121 0 164 -52 164 -169v-314
c0 -6 -4 -10 -10 -10zM185 88c30 0 49 22 49 58v50c0 4 -2 6 -6 6h-27c-42 0 -58 -24 -58 -59s13 -55 42 -55zM198 549c-85 0 -129 57 -133 128c0 6 4 10 11 10h53c7 0 10 -4 12 -10c10 -27 28 -45 57 -45c28 0 47 18 57 45c2 6 4 10 11 10h53c7 0 11 -4 11 -10
c-3 -71 -48 -128 -132 -128z" />
    <glyph glyph-name="aring" unicode="&#xe5;" horiz-adv-x="393" 
d="M344 0h-100c-6 0 -10 4 -10 10v33h-1c-12 -31 -45 -52 -90 -52c-56 0 -115 35 -115 145c0 118 74 155 152 155h48c4 0 6 2 6 6v24c0 44 -13 65 -62 65c-33 0 -57 -11 -80 -27c-6 -4 -12 -3 -15 4l-32 76c-3 6 -1 10 4 14c34 25 83 40 141 40c121 0 164 -52 164 -169v-314
c0 -6 -4 -10 -10 -10zM185 88c30 0 49 22 49 58v50c0 4 -2 6 -6 6h-27c-42 0 -58 -24 -58 -59s13 -55 42 -55zM198 533c-55 0 -96 41 -96 96s41 96 96 96s96 -41 96 -96s-41 -96 -96 -96zM198 584c25 0 43 19 43 45s-18 45 -43 45s-44 -19 -44 -45s19 -45 44 -45z" />
    <glyph glyph-name="aringacute" unicode="&#x1fb;" horiz-adv-x="393" 
d="M231 771h-76c-6 0 -8 5 -4 10l79 98c6 7 10 10 20 10h97c6 0 9 -5 5 -10l-101 -98c-7 -7 -12 -10 -20 -10zM344 0h-100c-6 0 -10 4 -10 10v33h-1c-12 -31 -45 -52 -90 -52c-56 0 -115 35 -115 145c0 118 74 155 152 155h48c4 0 6 2 6 6v24c0 44 -13 65 -62 65
c-33 0 -57 -11 -80 -27c-6 -4 -12 -3 -15 4l-32 76c-3 6 -1 10 4 14c34 25 83 40 141 40c121 0 164 -52 164 -169v-314c0 -6 -4 -10 -10 -10zM185 88c30 0 49 22 49 58v50c0 4 -2 6 -6 6h-27c-42 0 -58 -24 -58 -59s13 -55 42 -55zM198 533c-55 0 -96 41 -96 96s41 96 96 96
s96 -41 96 -96s-41 -96 -96 -96zM198 584c25 0 43 19 43 45s-18 45 -43 45s-44 -19 -44 -45s19 -45 44 -45z" />
    <glyph glyph-name="aogonek" unicode="&#x105;" horiz-adv-x="393" 
d="M278 -191c-58 0 -96 31 -96 87c0 41 21 71 56 104c-2 1 -4 6 -4 10v33h-1c-12 -31 -45 -52 -90 -52c-56 0 -115 35 -115 145c0 118 74 155 152 155h48c4 0 6 2 6 6v24c0 44 -13 65 -62 65c-33 0 -57 -11 -80 -27c-6 -4 -12 -3 -15 4l-32 76c-3 6 -1 10 4 14
c34 25 83 40 141 40c121 0 164 -52 164 -169v-314c0 -6 -2 -8 -7 -11c-45 -26 -69 -56 -69 -81c0 -15 8 -23 19 -23c7 0 11 1 16 4c6 3 11 1 13 -4l23 -55c2 -5 0 -10 -5 -13c-15 -10 -42 -18 -66 -18zM185 88c30 0 49 22 49 58v50c0 4 -2 6 -6 6h-27c-42 0 -58 -24 -58 -59
s13 -55 42 -55z" />
    <glyph glyph-name="ae" unicode="&#xe6;" horiz-adv-x="594" 
d="M397 -9c-54 0 -99 17 -127 55h-1c-34 -42 -67 -55 -119 -55c-61 0 -122 37 -122 145c0 118 74 155 152 155h48c4 0 6 2 6 6v24c0 44 -13 65 -62 65c-33 0 -57 -11 -80 -27c-6 -4 -12 -3 -15 4l-32 76c-3 6 -1 10 4 14c34 25 83 40 141 40c48 0 85 -9 109 -28h2
c24 19 58 28 97 28c82 0 134 -37 155 -102c8 -26 12 -53 12 -179c0 -6 -4 -10 -10 -10h-193c-4 0 -6 -2 -6 -6c0 -48 2 -60 5 -69c6 -18 18 -28 39 -28c23 0 37 12 45 38c2 6 6 8 12 7l95 -19c6 -1 8 -5 7 -12c-14 -77 -77 -122 -162 -122zM400 390c-21 0 -33 -10 -39 -26
c-3 -10 -5 -22 -5 -67c0 -4 2 -6 6 -6h76c4 0 6 2 6 6c0 45 -2 57 -5 67c-6 16 -18 26 -39 26zM185 88c30 0 49 22 49 58v50c0 4 -2 6 -6 6h-27c-42 0 -58 -24 -58 -59s13 -55 42 -55z" />
    <glyph glyph-name="aeacute" unicode="&#x1fd;" horiz-adv-x="594" 
d="M337 551h-75c-6 0 -9 4 -6 10l72 130c4 7 8 10 16 10h100c6 0 9 -5 5 -10l-94 -130c-6 -8 -10 -10 -18 -10zM397 -9c-54 0 -99 17 -127 55h-1c-34 -42 -67 -55 -119 -55c-61 0 -122 37 -122 145c0 118 74 155 152 155h48c4 0 6 2 6 6v24c0 44 -13 65 -62 65
c-33 0 -57 -11 -80 -27c-6 -4 -12 -3 -15 4l-32 76c-3 6 -1 10 4 14c34 25 83 40 141 40c48 0 85 -9 109 -28h2c24 19 58 28 97 28c82 0 134 -37 155 -102c8 -26 12 -53 12 -179c0 -6 -4 -10 -10 -10h-193c-4 0 -6 -2 -6 -6c0 -48 2 -60 5 -69c6 -18 18 -28 39 -28
c23 0 37 12 45 38c2 6 6 8 12 7l95 -19c6 -1 8 -5 7 -12c-14 -77 -77 -122 -162 -122zM400 390c-21 0 -33 -10 -39 -26c-3 -10 -5 -22 -5 -67c0 -4 2 -6 6 -6h76c4 0 6 2 6 6c0 45 -2 57 -5 67c-6 16 -18 26 -39 26zM185 88c30 0 49 22 49 58v50c0 4 -2 6 -6 6h-27
c-42 0 -58 -24 -58 -59s13 -55 42 -55z" />
    <glyph glyph-name="cacute" unicode="&#x107;" horiz-adv-x="372" 
d="M221 551h-75c-6 0 -9 4 -6 10l72 130c4 7 8 10 16 10h100c6 0 9 -5 5 -10l-94 -130c-6 -8 -10 -10 -18 -10zM195 -9c-78 0 -131 34 -152 101c-9 29 -12 53 -12 150c0 98 3 121 12 150c21 67 74 101 152 101c91 0 153 -52 159 -138c0 -7 -2 -10 -8 -11l-96 -18
c-6 -1 -11 2 -12 9c-3 34 -18 48 -41 48c-19 0 -31 -8 -37 -25c-3 -11 -4 -21 -4 -116s1 -105 4 -116c6 -17 18 -25 37 -25c23 0 38 14 41 48c1 7 6 10 12 9l96 -18c6 -1 8 -4 8 -11c-6 -85 -68 -138 -159 -138z" />
    <glyph glyph-name="ccircumflex" unicode="&#x109;" horiz-adv-x="372" 
d="M331 550h-70c-8 0 -13 3 -19 10l-47 58h-2l-47 -58c-6 -7 -11 -10 -19 -10h-70c-6 0 -8 5 -4 10l90 131c4 6 10 10 17 10h67c8 0 13 -4 17 -10l91 -131c4 -5 2 -10 -4 -10zM195 -9c-78 0 -131 34 -152 101c-9 29 -12 53 -12 150c0 98 3 121 12 150c21 67 74 101 152 101
c91 0 153 -52 159 -138c0 -7 -2 -10 -8 -11l-96 -18c-6 -1 -11 2 -12 9c-3 34 -18 48 -41 48c-19 0 -31 -8 -37 -25c-3 -11 -4 -21 -4 -116s1 -105 4 -116c6 -17 18 -25 37 -25c23 0 38 14 41 48c1 7 6 10 12 9l96 -18c6 -1 8 -4 8 -11c-6 -85 -68 -138 -159 -138z" />
    <glyph glyph-name="ccaron" unicode="&#x10d;" horiz-adv-x="372" 
d="M227 549h-67c-7 0 -13 4 -17 10l-90 130c-4 5 -2 10 4 10h70c8 0 13 -3 19 -10l47 -57h2l47 57c6 7 11 10 19 10h70c6 0 8 -5 4 -10l-91 -130c-4 -6 -9 -10 -17 -10zM195 -9c-78 0 -131 34 -152 101c-9 29 -12 53 -12 150c0 98 3 121 12 150c21 67 74 101 152 101
c91 0 153 -52 159 -138c0 -7 -2 -10 -8 -11l-96 -18c-6 -1 -11 2 -12 9c-3 34 -18 48 -41 48c-19 0 -31 -8 -37 -25c-3 -11 -4 -21 -4 -116s1 -105 4 -116c6 -17 18 -25 37 -25c23 0 38 14 41 48c1 7 6 10 12 9l96 -18c6 -1 8 -4 8 -11c-6 -85 -68 -138 -159 -138z" />
    <glyph glyph-name="cdotaccent" unicode="&#x10b;" horiz-adv-x="372" 
d="M195 -9c-78 0 -131 34 -152 101c-9 29 -12 53 -12 150c0 98 3 121 12 150c21 67 74 101 152 101c91 0 153 -52 159 -138c0 -7 -2 -10 -8 -11l-96 -18c-6 -1 -11 2 -12 9c-3 34 -18 48 -41 48c-19 0 -31 -8 -37 -25c-3 -11 -4 -21 -4 -116s1 -105 4 -116
c6 -17 18 -25 37 -25c23 0 38 14 41 48c1 7 6 10 12 9l96 -18c6 -1 8 -4 8 -11c-6 -85 -68 -138 -159 -138zM240 562h-105c-6 0 -10 4 -10 10v98c0 6 4 10 10 10h105c6 0 10 -4 10 -10v-98c0 -6 -4 -10 -10 -10z" />
    <glyph glyph-name="ccedilla" unicode="&#xe7;" horiz-adv-x="372" 
d="M69 -150l64 150c-44 13 -75 44 -90 92c-9 29 -12 53 -12 150c0 98 3 121 12 150c22 67 74 101 152 101c91 0 153 -52 159 -138c0 -7 -2 -10 -8 -11l-96 -18c-6 -1 -11 2 -12 9c-3 34 -18 48 -41 48c-19 0 -31 -8 -37 -25c-3 -11 -4 -21 -4 -116s1 -105 4 -116
c6 -17 18 -25 37 -25c23 0 38 14 41 48c1 7 6 10 12 9l96 -18c6 -1 8 -4 8 -11c-6 -75 -54 -125 -128 -135l-50 -144c-3 -7 -7 -10 -16 -10h-84c-6 0 -9 4 -7 10z" />
    <glyph glyph-name="dcaron" unicode="&#x10f;" 
d="M411 494c-6 0 -9 3 -9 10v166c0 6 4 10 10 10h81c6 0 10 -4 10 -10v-69c0 -12 -3 -16 -9 -23l-70 -77c-4 -5 -8 -7 -13 -7zM362 0h-104c-6 0 -10 4 -10 10v39h-1c-15 -35 -44 -58 -93 -58c-57 0 -89 24 -107 78c-9 29 -13 63 -13 173c0 111 4 144 13 173
c18 54 50 78 107 78c49 0 77 -22 92 -58h1v235c0 6 4 10 10 10h105c6 0 10 -4 10 -10v-660c0 -6 -4 -10 -10 -10zM203 101c21 0 34 10 39 27c4 12 5 22 5 114s-1 102 -5 114c-5 17 -18 27 -39 27s-34 -10 -39 -27c-4 -12 -5 -22 -5 -114s1 -102 5 -114c5 -17 18 -27 39 -27z
" />
    <glyph glyph-name="dcroat" unicode="&#x111;" 
d="M372 534v-524c0 -6 -4 -10 -10 -10h-104c-6 0 -10 4 -10 10v39h-1c-15 -35 -44 -58 -93 -58c-57 0 -89 24 -107 78c-9 29 -13 63 -13 173c0 111 4 144 13 173c18 54 50 78 107 78c49 0 77 -22 92 -58h1v99c0 4 -2 6 -6 6h-80c-6 0 -10 4 -10 10v64c0 6 4 10 10 10h80
c4 0 6 2 6 6v40c0 6 4 10 10 10h105c6 0 10 -4 10 -10v-40c0 -4 2 -6 6 -6h20c6 0 10 -4 10 -10v-64c0 -6 -4 -10 -10 -10h-20c-4 0 -6 -2 -6 -6zM203 101c21 0 34 10 39 27c4 12 5 22 5 114s-1 102 -5 114c-5 17 -18 27 -39 27s-34 -10 -39 -27c-4 -12 -5 -22 -5 -114
s1 -102 5 -114c5 -17 18 -27 39 -27z" />
    <glyph glyph-name="eth" unicode="&#xf0;" horiz-adv-x="401" 
d="M327 571l-50 -16l25 -48c54 -102 67 -159 67 -276c0 -80 -3 -108 -12 -134c-22 -69 -77 -106 -157 -106s-135 37 -157 106c-9 26 -12 53 -12 126s5 105 13 131c20 60 63 100 124 100c17 0 34 -5 41 -10h1l-40 76l-68 -21c-6 -2 -9 0 -11 6l-18 56c-2 6 0 10 6 12l54 17
l-41 80c-3 6 1 10 7 10h104c6 0 10 -3 14 -10l23 -45l63 20c7 2 10 0 12 -6l19 -56c2 -6 0 -10 -7 -12zM200 101c21 0 34 10 40 28c3 11 4 21 4 94s-1 83 -4 94c-6 18 -19 29 -40 29s-34 -11 -40 -29c-3 -11 -4 -21 -4 -94s1 -83 4 -94c6 -18 19 -28 40 -28z" />
    <glyph glyph-name="egrave" unicode="&#xe8;" horiz-adv-x="393" 
d="M197 -9c-82 0 -132 37 -154 102c-9 26 -12 54 -12 149s3 123 12 149c22 65 73 102 154 102c82 0 133 -37 155 -102c9 -26 12 -53 12 -179c0 -6 -4 -10 -10 -10h-193c-4 0 -6 -2 -6 -6c0 -50 2 -61 5 -69c6 -18 19 -28 39 -28c23 0 37 12 45 38c2 6 6 8 12 7l95 -19
c6 -1 8 -5 7 -12c-14 -77 -76 -122 -161 -122zM237 291c4 0 6 2 6 6c0 45 -2 57 -5 67c-6 16 -18 26 -39 26s-33 -10 -39 -26c-3 -10 -5 -22 -5 -67c0 -4 2 -6 6 -6h76zM240 551h-75c-8 0 -12 2 -18 10l-93 130c-4 5 -1 10 5 10h100c8 0 12 -3 16 -10l71 -130
c3 -6 0 -10 -6 -10z" />
    <glyph glyph-name="eacute" unicode="&#xe9;" horiz-adv-x="393" 
d="M228 551h-75c-6 0 -9 4 -6 10l72 130c4 7 8 10 16 10h100c6 0 9 -5 5 -10l-94 -130c-6 -8 -10 -10 -18 -10zM197 -9c-82 0 -132 37 -154 102c-9 26 -12 54 -12 149s3 123 12 149c22 65 73 102 154 102c82 0 133 -37 155 -102c9 -26 12 -53 12 -179c0 -6 -4 -10 -10 -10
h-193c-4 0 -6 -2 -6 -6c0 -50 2 -61 5 -69c6 -18 19 -28 39 -28c23 0 37 12 45 38c2 6 6 8 12 7l95 -19c6 -1 8 -5 7 -12c-14 -77 -76 -122 -161 -122zM237 291c4 0 6 2 6 6c0 45 -2 57 -5 67c-6 16 -18 26 -39 26s-33 -10 -39 -26c-3 -10 -5 -22 -5 -67c0 -4 2 -6 6 -6h76z
" />
    <glyph glyph-name="ecircumflex" unicode="&#xea;" horiz-adv-x="393" 
d="M334 550h-70c-8 0 -13 3 -19 10l-47 58h-2l-47 -58c-6 -7 -11 -10 -19 -10h-70c-6 0 -8 5 -4 10l90 131c4 6 10 10 17 10h67c8 0 13 -4 17 -10l91 -131c4 -5 2 -10 -4 -10zM197 -9c-82 0 -132 37 -154 102c-9 26 -12 54 -12 149s3 123 12 149c22 65 73 102 154 102
c82 0 133 -37 155 -102c9 -26 12 -53 12 -179c0 -6 -4 -10 -10 -10h-193c-4 0 -6 -2 -6 -6c0 -50 2 -61 5 -69c6 -18 19 -28 39 -28c23 0 37 12 45 38c2 6 6 8 12 7l95 -19c6 -1 8 -5 7 -12c-14 -77 -76 -122 -161 -122zM237 291c4 0 6 2 6 6c0 45 -2 57 -5 67
c-6 16 -18 26 -39 26s-33 -10 -39 -26c-3 -10 -5 -22 -5 -67c0 -4 2 -6 6 -6h76z" />
    <glyph glyph-name="ecaron" unicode="&#x11b;" horiz-adv-x="393" 
d="M230 549h-67c-7 0 -13 4 -17 10l-90 130c-4 5 -2 10 4 10h70c8 0 13 -3 19 -10l47 -57h2l47 57c6 7 11 10 19 10h70c6 0 8 -5 4 -10l-91 -130c-4 -6 -9 -10 -17 -10zM197 -9c-82 0 -132 37 -154 102c-9 26 -12 54 -12 149s3 123 12 149c22 65 73 102 154 102
c82 0 133 -37 155 -102c9 -26 12 -53 12 -179c0 -6 -4 -10 -10 -10h-193c-4 0 -6 -2 -6 -6c0 -50 2 -61 5 -69c6 -18 19 -28 39 -28c23 0 37 12 45 38c2 6 6 8 12 7l95 -19c6 -1 8 -5 7 -12c-14 -77 -76 -122 -161 -122zM237 291c4 0 6 2 6 6c0 45 -2 57 -5 67
c-6 16 -18 26 -39 26s-33 -10 -39 -26c-3 -10 -5 -22 -5 -67c0 -4 2 -6 6 -6h76z" />
    <glyph glyph-name="edieresis" unicode="&#xeb;" horiz-adv-x="393" 
d="M314 562h-77c-6 0 -10 4 -10 10v98c0 6 4 10 10 10h77c6 0 10 -4 10 -10v-98c0 -6 -4 -10 -10 -10zM156 562h-77c-6 0 -10 4 -10 10v98c0 6 4 10 10 10h77c6 0 10 -4 10 -10v-98c0 -6 -4 -10 -10 -10zM197 -9c-82 0 -132 37 -154 102c-9 26 -12 54 -12 149s3 123 12 149
c22 65 73 102 154 102c82 0 133 -37 155 -102c9 -26 12 -53 12 -179c0 -6 -4 -10 -10 -10h-193c-4 0 -6 -2 -6 -6c0 -50 2 -61 5 -69c6 -18 19 -28 39 -28c23 0 37 12 45 38c2 6 6 8 12 7l95 -19c6 -1 8 -5 7 -12c-14 -77 -76 -122 -161 -122zM237 291c4 0 6 2 6 6
c0 45 -2 57 -5 67c-6 16 -18 26 -39 26s-33 -10 -39 -26c-3 -10 -5 -22 -5 -67c0 -4 2 -6 6 -6h76z" />
    <glyph glyph-name="emacron" unicode="&#x113;" horiz-adv-x="393" 
d="M197 -9c-82 0 -132 37 -154 102c-9 26 -12 54 -12 149s3 123 12 149c22 65 73 102 154 102c82 0 133 -37 155 -102c9 -26 12 -53 12 -179c0 -6 -4 -10 -10 -10h-193c-4 0 -6 -2 -6 -6c0 -50 2 -61 5 -69c6 -18 19 -28 39 -28c23 0 37 12 45 38c2 6 6 8 12 7l95 -19
c6 -1 8 -5 7 -12c-14 -77 -76 -122 -161 -122zM237 291c4 0 6 2 6 6c0 45 -2 57 -5 67c-6 16 -18 26 -39 26s-33 -10 -39 -26c-3 -10 -5 -22 -5 -67c0 -4 2 -6 6 -6h76zM308 576h-223c-6 0 -10 4 -10 10v74c0 6 4 10 10 10h223c6 0 10 -4 10 -10v-74c0 -6 -4 -10 -10 -10z
" />
    <glyph glyph-name="ebreve" unicode="&#x115;" horiz-adv-x="393" 
d="M197 -9c-82 0 -132 37 -154 102c-9 26 -12 54 -12 149s3 123 12 149c22 65 73 102 154 102c82 0 133 -37 155 -102c9 -26 12 -53 12 -179c0 -6 -4 -10 -10 -10h-193c-4 0 -6 -2 -6 -6c0 -50 2 -61 5 -69c6 -18 19 -28 39 -28c23 0 37 12 45 38c2 6 6 8 12 7l95 -19
c6 -1 8 -5 7 -12c-14 -77 -76 -122 -161 -122zM237 291c4 0 6 2 6 6c0 45 -2 57 -5 67c-6 16 -18 26 -39 26s-33 -10 -39 -26c-3 -10 -5 -22 -5 -67c0 -4 2 -6 6 -6h76zM197 549c-85 0 -129 57 -133 128c0 6 4 10 11 10h53c7 0 10 -4 12 -10c10 -27 28 -45 57 -45
c28 0 47 18 57 45c2 6 4 10 11 10h53c7 0 11 -4 11 -10c-3 -71 -48 -128 -132 -128z" />
    <glyph glyph-name="edotaccent" unicode="&#x117;" horiz-adv-x="393" 
d="M197 -9c-82 0 -132 37 -154 102c-9 26 -12 54 -12 149s3 123 12 149c22 65 73 102 154 102c82 0 133 -37 155 -102c9 -26 12 -53 12 -179c0 -6 -4 -10 -10 -10h-193c-4 0 -6 -2 -6 -6c0 -50 2 -61 5 -69c6 -18 19 -28 39 -28c23 0 37 12 45 38c2 6 6 8 12 7l95 -19
c6 -1 8 -5 7 -12c-14 -77 -76 -122 -161 -122zM237 291c4 0 6 2 6 6c0 45 -2 57 -5 67c-6 16 -18 26 -39 26s-33 -10 -39 -26c-3 -10 -5 -22 -5 -67c0 -4 2 -6 6 -6h76zM250 562h-105c-6 0 -10 4 -10 10v98c0 6 4 10 10 10h105c6 0 10 -4 10 -10v-98c0 -6 -4 -10 -10 -10z
" />
    <glyph glyph-name="eogonek" unicode="&#x119;" horiz-adv-x="393" 
d="M354 202h-193c-4 0 -6 -2 -6 -6c0 -50 2 -61 5 -69c6 -18 19 -28 39 -28c23 0 37 12 45 38c2 6 6 8 12 7l95 -19c6 -1 8 -5 7 -12c-5 -25 -14 -48 -30 -66c-55 -82 -64 -108 -64 -129c0 -15 7 -23 18 -23c7 0 12 1 17 4s11 1 13 -4l23 -55c2 -5 0 -10 -5 -13
c-15 -10 -43 -18 -67 -18c-58 0 -95 31 -95 87c0 30 9 60 36 95h-9c-81 0 -131 37 -152 102c-9 26 -12 54 -12 149s3 123 12 149c22 65 73 102 154 102c82 0 133 -37 155 -102c9 -26 12 -53 12 -179c0 -6 -4 -10 -10 -10zM237 291c4 0 6 2 6 6c0 45 -2 57 -5 67
c-6 16 -18 26 -39 26s-33 -10 -39 -26c-3 -10 -5 -22 -5 -67c0 -4 2 -6 6 -6h76z" />
    <glyph glyph-name="gcircumflex" unicode="&#x11d;" 
d="M346 550h-70c-8 0 -13 3 -19 10l-47 58h-2l-47 -58c-6 -7 -11 -10 -19 -10h-70c-6 0 -8 5 -4 10l90 131c4 6 10 10 17 10h67c8 0 13 -4 17 -10l91 -131c4 -5 2 -10 -4 -10zM201 -189c-85 0 -144 47 -156 110c-1 5 1 10 5 11l97 28c5 1 9 0 12 -6c8 -22 22 -34 44 -34
c27 0 44 16 44 51v98h-1c-14 -35 -43 -58 -92 -58c-56 0 -88 25 -106 79c-9 28 -14 62 -14 162c0 99 5 133 14 161c18 54 50 79 106 79c49 0 78 -23 93 -58h1v40c0 6 4 10 10 10h104c6 0 10 -4 10 -10v-488c0 -116 -66 -175 -171 -175zM203 120c22 0 34 10 40 28
c3 11 4 21 4 104c0 82 -1 92 -4 103c-6 18 -18 28 -40 28c-21 0 -33 -10 -39 -28c-4 -11 -5 -21 -5 -103c0 -83 1 -93 5 -104c6 -18 18 -28 39 -28z" />
    <glyph glyph-name="gbreve" unicode="&#x11f;" 
d="M201 -189c-85 0 -144 47 -156 110c-1 5 1 10 5 11l97 28c5 1 9 0 12 -6c8 -22 22 -34 44 -34c27 0 44 16 44 51v98h-1c-14 -35 -43 -58 -92 -58c-56 0 -88 25 -106 79c-9 28 -14 62 -14 162c0 99 5 133 14 161c18 54 50 79 106 79c49 0 78 -23 93 -58h1v40
c0 6 4 10 10 10h104c6 0 10 -4 10 -10v-488c0 -116 -66 -175 -171 -175zM203 120c22 0 34 10 40 28c3 11 4 21 4 104c0 82 -1 92 -4 103c-6 18 -18 28 -40 28c-21 0 -33 -10 -39 -28c-4 -11 -5 -21 -5 -103c0 -83 1 -93 5 -104c6 -18 18 -28 39 -28zM209 549
c-85 0 -129 57 -133 128c0 6 4 10 11 10h53c7 0 10 -4 12 -10c10 -27 28 -45 57 -45c28 0 47 18 57 45c2 6 4 10 11 10h53c7 0 11 -4 11 -10c-3 -71 -48 -128 -132 -128z" />
    <glyph glyph-name="gdotaccent" unicode="&#x121;" 
d="M201 -189c-85 0 -144 47 -156 110c-1 5 1 10 5 11l97 28c5 1 9 0 12 -6c8 -22 22 -34 44 -34c27 0 44 16 44 51v98h-1c-14 -35 -43 -58 -92 -58c-56 0 -88 25 -106 79c-9 28 -14 62 -14 162c0 99 5 133 14 161c18 54 50 79 106 79c49 0 78 -23 93 -58h1v40
c0 6 4 10 10 10h104c6 0 10 -4 10 -10v-488c0 -116 -66 -175 -171 -175zM203 120c22 0 34 10 40 28c3 11 4 21 4 104c0 82 -1 92 -4 103c-6 18 -18 28 -40 28c-21 0 -33 -10 -39 -28c-4 -11 -5 -21 -5 -103c0 -83 1 -93 5 -104c6 -18 18 -28 39 -28zM261 562h-105
c-6 0 -10 4 -10 10v98c0 6 4 10 10 10h105c6 0 10 -4 10 -10v-98c0 -6 -4 -10 -10 -10z" />
    <glyph glyph-name="gcommaaccent" unicode="&#x123;" 
d="M251 562h-84c-6 0 -10 4 -10 10v61c0 11 2 16 8 23l74 79c4 4 8 6 13 6c6 0 9 -4 9 -10v-159c0 -6 -4 -10 -10 -10zM201 -189c-85 0 -144 47 -156 110c-1 5 1 10 5 11l97 28c5 1 9 0 12 -6c8 -22 22 -34 44 -34c27 0 44 16 44 51v98h-1c-14 -35 -43 -58 -92 -58
c-56 0 -88 25 -106 79c-9 28 -14 62 -14 162c0 99 5 133 14 161c18 54 50 79 106 79c49 0 78 -23 93 -58h1v40c0 6 4 10 10 10h104c6 0 10 -4 10 -10v-488c0 -116 -66 -175 -171 -175zM203 120c22 0 34 10 40 28c3 11 4 21 4 104c0 82 -1 92 -4 103c-6 18 -18 28 -40 28
c-21 0 -33 -10 -39 -28c-4 -11 -5 -21 -5 -103c0 -83 1 -93 5 -104c6 -18 18 -28 39 -28z" />
    <glyph glyph-name="hcircumflex" unicode="&#x125;" horiz-adv-x="419" 
d="M368 0h-105c-6 0 -10 4 -10 10v315c0 38 -14 57 -42 57s-42 -19 -42 -57v-315c0 -6 -4 -10 -10 -10h-105c-6 0 -10 4 -10 10v660c0 6 4 10 10 10h105c6 0 10 -4 10 -10v-233h1c17 33 47 56 94 56c77 0 114 -45 114 -149v-334c0 -6 -4 -10 -10 -10zM357 746h-70
c-8 0 -13 3 -19 10l-47 57h-2l-47 -57c-6 -7 -11 -10 -19 -10h-70c-6 0 -8 5 -4 10l90 130c4 6 10 10 17 10h67c8 0 13 -4 17 -10l91 -130c4 -5 2 -10 -4 -10z" />
    <glyph glyph-name="hbar" unicode="&#x127;" horiz-adv-x="419" 
d="M368 0h-105c-6 0 -10 4 -10 10v315c0 38 -14 57 -42 57s-42 -19 -42 -57v-315c0 -6 -4 -10 -10 -10h-105c-6 0 -10 4 -10 10v524c0 4 -2 6 -6 6h-20c-6 0 -10 4 -10 10v64c0 6 4 10 10 10h20c4 0 6 2 6 6v40c0 6 4 10 10 10h105c6 0 10 -4 10 -10v-40c0 -4 2 -6 6 -6h80
c6 0 10 -4 10 -10v-64c0 -6 -4 -10 -10 -10h-80c-4 0 -6 -2 -6 -6v-97h1c17 33 47 56 94 56c77 0 114 -45 114 -149v-334c0 -6 -4 -10 -10 -10z" />
    <glyph glyph-name="dotlessi" unicode="&#x131;" horiz-adv-x="213" 
d="M159 0h-105c-6 0 -10 4 -10 10v464c0 6 4 10 10 10h105c6 0 10 -4 10 -10v-464c0 -6 -4 -10 -10 -10z" />
    <glyph glyph-name="igrave" unicode="&#xec;" horiz-adv-x="213" 
d="M159 0h-105c-6 0 -10 4 -10 10v464c0 6 4 10 10 10h105c6 0 10 -4 10 -10v-464c0 -6 -4 -10 -10 -10zM150 551h-75c-8 0 -12 2 -18 10l-93 130c-4 5 -1 10 5 10h100c8 0 12 -3 16 -10l71 -130c3 -6 0 -10 -6 -10z" />
    <glyph glyph-name="iacute" unicode="&#xed;" horiz-adv-x="213" 
d="M143 551h-75c-6 0 -9 4 -6 10l72 130c4 7 8 10 16 10h100c6 0 9 -5 5 -10l-94 -130c-6 -8 -10 -10 -18 -10zM159 0h-105c-6 0 -10 4 -10 10v464c0 6 4 10 10 10h105c6 0 10 -4 10 -10v-464c0 -6 -4 -10 -10 -10z" />
    <glyph glyph-name="ibreve" unicode="&#x12d;" horiz-adv-x="213" 
d="M159 0h-105c-6 0 -10 4 -10 10v464c0 6 4 10 10 10h105c6 0 10 -4 10 -10v-464c0 -6 -4 -10 -10 -10zM107 549c-85 0 -129 57 -133 128c0 6 4 10 11 10h53c7 0 10 -4 12 -10c10 -27 28 -45 57 -45c28 0 47 18 57 45c2 6 4 10 11 10h53c7 0 11 -4 11 -10
c-3 -71 -48 -128 -132 -128z" />
    <glyph glyph-name="icircumflex" unicode="&#xee;" horiz-adv-x="213" 
d="M243 550h-70c-8 0 -13 3 -19 10l-47 58h-2l-47 -58c-6 -7 -11 -10 -19 -10h-70c-6 0 -8 5 -4 10l90 131c4 6 10 10 17 10h67c8 0 13 -4 17 -10l91 -131c4 -5 2 -10 -4 -10zM159 0h-105c-6 0 -10 4 -10 10v464c0 6 4 10 10 10h105c6 0 10 -4 10 -10v-464
c0 -6 -4 -10 -10 -10z" />
    <glyph glyph-name="itilde" unicode="&#x129;" horiz-adv-x="213" 
d="M159 0h-105c-6 0 -10 4 -10 10v464c0 6 4 10 10 10h105c6 0 10 -4 10 -10v-464c0 -6 -4 -10 -10 -10zM155 558c-23 0 -38 8 -55 19c-17 10 -28 16 -44 16c-24 0 -38 -11 -55 -28c-5 -5 -11 -3 -11 4v73c0 7 2 11 9 18c15 15 33 27 58 27c23 0 38 -8 55 -19
c16 -10 28 -17 44 -17c24 0 38 12 54 29c5 5 12 3 12 -4v-73c0 -7 -2 -11 -9 -18c-15 -15 -33 -27 -58 -27z" />
    <glyph glyph-name="idieresis" unicode="&#xef;" horiz-adv-x="213" 
d="M224 562h-77c-6 0 -10 4 -10 10v98c0 6 4 10 10 10h77c6 0 10 -4 10 -10v-98c0 -6 -4 -10 -10 -10zM66 562h-77c-6 0 -10 4 -10 10v98c0 6 4 10 10 10h77c6 0 10 -4 10 -10v-98c0 -6 -4 -10 -10 -10zM159 0h-105c-6 0 -10 4 -10 10v464c0 6 4 10 10 10h105
c6 0 10 -4 10 -10v-464c0 -6 -4 -10 -10 -10z" />
    <glyph glyph-name="imacron" unicode="&#x12b;" horiz-adv-x="213" 
d="M159 0h-105c-6 0 -10 4 -10 10v464c0 6 4 10 10 10h105c6 0 10 -4 10 -10v-464c0 -6 -4 -10 -10 -10zM218 576h-223c-6 0 -10 4 -10 10v74c0 6 4 10 10 10h223c6 0 10 -4 10 -10v-74c0 -6 -4 -10 -10 -10z" />
    <glyph glyph-name="iogonek" unicode="&#x12f;" horiz-adv-x="213" 
d="M159 562h-105c-6 0 -10 4 -10 10v98c0 6 4 10 10 10h105c6 0 10 -4 10 -10v-98c0 -6 -4 -10 -10 -10zM100 -191c-58 0 -96 31 -96 87c0 39 19 71 53 104h-4c-6 0 -9 4 -9 10v464c0 6 4 10 10 10h105c6 0 10 -4 10 -10v-464c0 -5 -1 -7 -5 -10c-44 -33 -64 -60 -64 -82
c0 -15 8 -23 19 -23c7 0 11 1 16 4c6 3 11 1 13 -4l23 -55c2 -5 0 -10 -5 -13c-15 -10 -42 -18 -66 -18z" />
    <glyph glyph-name="dotlessj" unicode="&#x237;" horiz-adv-x="213" 
d="M6 -180h-17c-6 0 -10 4 -10 10v92c0 6 4 10 10 10l14 1c28 2 41 14 41 56v485c0 6 4 10 10 10h105c6 0 10 -4 10 -10v-486c0 -113 -52 -168 -163 -168z" />
    <glyph glyph-name="jcircumflex" unicode="&#x135;" horiz-adv-x="213" 
d="M6 -180h-17c-6 0 -10 4 -10 10v92c0 6 4 10 10 10l14 1c28 2 41 14 41 56v485c0 6 4 10 10 10h105c6 0 10 -4 10 -10v-486c0 -113 -52 -168 -163 -168zM243 550h-70c-8 0 -13 3 -19 10l-47 58h-2l-47 -58c-6 -7 -11 -10 -19 -10h-70c-6 0 -8 5 -4 10l90 131
c4 6 10 10 17 10h67c8 0 13 -4 17 -10l91 -131c4 -5 2 -10 -4 -10z" />
    <glyph glyph-name="kcommaaccent" unicode="&#x137;" horiz-adv-x="415" 
d="M177 -231c-6 0 -9 3 -9 10v158c0 6 4 10 10 10h84c6 0 10 -4 10 -10v-61c0 -10 -2 -16 -8 -23l-74 -78c-4 -4 -8 -6 -13 -6zM398 0h-110c-7 0 -11 3 -14 11l-71 189l-34 -61v-129c0 -6 -4 -10 -10 -10h-105c-6 0 -10 4 -10 10v660c0 6 4 10 10 10h105c6 0 10 -4 10 -10
v-361l91 166c4 6 8 9 14 9h108c6 0 9 -4 6 -10l-106 -171l122 -293c3 -6 0 -10 -6 -10z" />
    <glyph glyph-name="kgreenlandic" unicode="&#x138;" horiz-adv-x="415" 
d="M398 0h-110c-7 0 -11 3 -14 11l-71 189l-34 -61v-129c0 -6 -4 -10 -10 -10h-105c-6 0 -10 4 -10 10v464c0 6 4 10 10 10h105c6 0 10 -4 10 -10v-165l91 166c4 6 8 9 14 9h108c6 0 9 -4 6 -10l-106 -171l122 -293c3 -6 0 -10 -6 -10z" />
    <glyph glyph-name="lacute" unicode="&#x13a;" horiz-adv-x="246" 
d="M143 755h-74c-6 0 -9 5 -5 10l82 114c5 7 8 10 16 10h100c6 0 9 -5 5 -10l-104 -114c-7 -7 -12 -10 -20 -10zM213 -6h-11c-114 2 -159 43 -159 162v514c0 6 4 10 10 10h105c6 0 10 -4 10 -10v-513c0 -32 14 -47 40 -51l5 -1c6 -1 10 -5 10 -11v-90c0 -6 -4 -10 -10 -10z
" />
    <glyph glyph-name="lcaron" unicode="&#x13e;" horiz-adv-x="246" 
d="M220 494c-6 0 -9 3 -9 10v166c0 6 4 10 10 10h81c6 0 10 -4 10 -10v-69c0 -12 -3 -16 -9 -23l-70 -77c-4 -5 -8 -7 -13 -7zM213 -6h-11c-114 2 -159 43 -159 162v514c0 6 4 10 10 10h105c6 0 10 -4 10 -10v-513c0 -32 14 -47 40 -51l5 -1c6 -1 10 -5 10 -11v-90
c0 -6 -4 -10 -10 -10z" />
    <glyph glyph-name="lcommaaccent" unicode="&#x13c;" horiz-adv-x="246" 
d="M96 -231c-6 0 -9 3 -9 10v158c0 6 4 10 10 10h84c6 0 10 -4 10 -10v-61c0 -10 -2 -16 -8 -23l-74 -78c-4 -4 -8 -6 -13 -6zM213 -6h-11c-114 2 -159 43 -159 162v514c0 6 4 10 10 10h105c6 0 10 -4 10 -10v-513c0 -32 14 -47 40 -51l5 -1c6 -1 10 -5 10 -11v-90
c0 -6 -4 -10 -10 -10z" />
    <glyph glyph-name="lslash" unicode="&#x142;" horiz-adv-x="245" 
d="M213 -6h-11c-114 2 -159 43 -159 162v116l-24 -16c-5 -3 -10 0 -10 5v89c0 7 3 11 10 16l24 16v288c0 6 4 10 10 10h105c6 0 10 -4 10 -10v-202l45 31c5 3 10 0 10 -5v-89c0 -7 -3 -11 -10 -16l-45 -31v-201c0 -32 14 -47 40 -51l5 -1c6 -1 10 -5 10 -11v-90
c0 -6 -4 -10 -10 -10z" />
    <glyph glyph-name="ldot" unicode="&#x140;" horiz-adv-x="324" 
d="M213 -6h-11c-114 2 -159 43 -159 162v514c0 6 4 10 10 10h105c6 0 10 -4 10 -10v-513c0 -32 14 -47 40 -51l5 -1c6 -1 10 -5 10 -11v-90c0 -6 -4 -10 -10 -10zM319 247h-102c-6 0 -10 4 -10 10v116c0 6 4 10 10 10h102c6 0 10 -4 10 -10v-116c0 -6 -4 -10 -10 -10z" />
    <glyph glyph-name="nacute" unicode="&#x144;" horiz-adv-x="419" 
d="M223 551h-75c-6 0 -9 4 -6 10l72 130c4 7 8 10 16 10h100c6 0 9 -5 5 -10l-94 -130c-6 -8 -10 -10 -18 -10zM368 0h-105c-6 0 -10 4 -10 10v315c0 38 -14 57 -42 57s-42 -19 -42 -57v-315c0 -6 -4 -10 -10 -10h-105c-6 0 -10 4 -10 10v464c0 6 4 10 10 10h104
c6 0 10 -4 10 -10v-37h1c17 33 48 56 95 56c77 0 114 -45 114 -149v-334c0 -6 -4 -10 -10 -10z" />
    <glyph glyph-name="ncaron" unicode="&#x148;" horiz-adv-x="419" 
d="M243 549h-67c-7 0 -13 4 -17 10l-90 130c-4 5 -2 10 4 10h70c8 0 13 -3 19 -10l47 -57h2l47 57c6 7 11 10 19 10h70c6 0 8 -5 4 -10l-91 -130c-4 -6 -9 -10 -17 -10zM368 0h-105c-6 0 -10 4 -10 10v315c0 38 -14 57 -42 57s-42 -19 -42 -57v-315c0 -6 -4 -10 -10 -10
h-105c-6 0 -10 4 -10 10v464c0 6 4 10 10 10h104c6 0 10 -4 10 -10v-37h1c17 33 48 56 95 56c77 0 114 -45 114 -149v-334c0 -6 -4 -10 -10 -10z" />
    <glyph glyph-name="ntilde" unicode="&#xf1;" horiz-adv-x="419" 
d="M368 0h-105c-6 0 -10 4 -10 10v315c0 38 -14 57 -42 57s-42 -19 -42 -57v-315c0 -6 -4 -10 -10 -10h-105c-6 0 -10 4 -10 10v464c0 6 4 10 10 10h104c6 0 10 -4 10 -10v-37h1c17 33 48 56 95 56c77 0 114 -45 114 -149v-334c0 -6 -4 -10 -10 -10zM259 558
c-23 0 -38 8 -55 19c-17 10 -28 16 -44 16c-24 0 -38 -11 -55 -28c-5 -5 -11 -3 -11 4v73c0 7 2 11 9 18c15 15 33 27 58 27c23 0 38 -8 55 -19c16 -10 28 -17 44 -17c24 0 38 12 54 29c5 5 12 3 12 -4v-73c0 -7 -2 -11 -9 -18c-15 -15 -33 -27 -58 -27z" />
    <glyph glyph-name="ncommaaccent" unicode="&#x146;" horiz-adv-x="419" 
d="M167 -231c-6 0 -9 3 -9 10v158c0 6 4 10 10 10h84c6 0 10 -4 10 -10v-61c0 -10 -2 -16 -8 -23l-74 -78c-4 -4 -8 -6 -13 -6zM368 0h-105c-6 0 -10 4 -10 10v315c0 38 -14 57 -42 57s-42 -19 -42 -57v-315c0 -6 -4 -10 -10 -10h-105c-6 0 -10 4 -10 10v464c0 6 4 10 10 10
h104c6 0 10 -4 10 -10v-37h1c17 33 48 56 95 56c77 0 114 -45 114 -149v-334c0 -6 -4 -10 -10 -10z" />
    <glyph glyph-name="ograve" unicode="&#xf2;" horiz-adv-x="400" 
d="M200 -9c-80 0 -135 37 -157 106c-9 26 -12 53 -12 145s3 119 12 145c22 69 77 106 157 106s135 -37 157 -106c9 -26 12 -53 12 -145s-3 -119 -12 -145c-22 -69 -77 -106 -157 -106zM200 101c21 0 34 10 40 28c3 11 4 21 4 113s-1 102 -4 113c-6 18 -19 28 -40 28
s-34 -10 -40 -28c-3 -11 -4 -21 -4 -113s1 -102 4 -113c6 -18 19 -28 40 -28zM242 551h-75c-8 0 -12 2 -18 10l-93 130c-4 5 -1 10 5 10h100c8 0 12 -3 16 -10l71 -130c3 -6 0 -10 -6 -10z" />
    <glyph glyph-name="oacute" unicode="&#xf3;" horiz-adv-x="400" 
d="M224 551h-75c-6 0 -9 4 -6 10l72 130c4 7 8 10 16 10h100c6 0 9 -5 5 -10l-94 -130c-6 -8 -10 -10 -18 -10zM200 -9c-80 0 -135 37 -157 106c-9 26 -12 53 -12 145s3 119 12 145c22 69 77 106 157 106s135 -37 157 -106c9 -26 12 -53 12 -145s-3 -119 -12 -145
c-22 -69 -77 -106 -157 -106zM200 101c21 0 34 10 40 28c3 11 4 21 4 113s-1 102 -4 113c-6 18 -19 28 -40 28s-34 -10 -40 -28c-3 -11 -4 -21 -4 -113s1 -102 4 -113c6 -18 19 -28 40 -28z" />
    <glyph glyph-name="ocircumflex" unicode="&#xf4;" horiz-adv-x="400" 
d="M338 550h-70c-8 0 -13 3 -19 10l-47 58h-2l-47 -58c-6 -7 -11 -10 -19 -10h-70c-6 0 -8 5 -4 10l90 131c4 6 10 10 17 10h67c8 0 13 -4 17 -10l91 -131c4 -5 2 -10 -4 -10zM200 -9c-80 0 -135 37 -157 106c-9 26 -12 53 -12 145s3 119 12 145c22 69 77 106 157 106
s135 -37 157 -106c9 -26 12 -53 12 -145s-3 -119 -12 -145c-22 -69 -77 -106 -157 -106zM200 101c21 0 34 10 40 28c3 11 4 21 4 113s-1 102 -4 113c-6 18 -19 28 -40 28s-34 -10 -40 -28c-3 -11 -4 -21 -4 -113s1 -102 4 -113c6 -18 19 -28 40 -28z" />
    <glyph glyph-name="otilde" unicode="&#xf5;" horiz-adv-x="400" 
d="M200 -9c-80 0 -135 37 -157 106c-9 26 -12 53 -12 145s3 119 12 145c22 69 77 106 157 106s135 -37 157 -106c9 -26 12 -53 12 -145s-3 -119 -12 -145c-22 -69 -77 -106 -157 -106zM200 101c21 0 34 10 40 28c3 11 4 21 4 113s-1 102 -4 113c-6 18 -19 28 -40 28
s-34 -10 -40 -28c-3 -11 -4 -21 -4 -113s1 -102 4 -113c6 -18 19 -28 40 -28zM250 558c-23 0 -38 8 -55 19c-17 10 -28 16 -44 16c-24 0 -38 -11 -55 -28c-5 -5 -11 -3 -11 4v73c0 7 2 11 9 18c15 15 33 27 58 27c23 0 38 -8 55 -19c16 -10 28 -17 44 -17c24 0 38 12 54 29
c5 5 12 3 12 -4v-73c0 -7 -2 -11 -9 -18c-15 -15 -33 -27 -58 -27z" />
    <glyph glyph-name="odieresis" unicode="&#xf6;" horiz-adv-x="400" 
d="M318 562h-77c-6 0 -10 4 -10 10v98c0 6 4 10 10 10h77c6 0 10 -4 10 -10v-98c0 -6 -4 -10 -10 -10zM160 562h-77c-6 0 -10 4 -10 10v98c0 6 4 10 10 10h77c6 0 10 -4 10 -10v-98c0 -6 -4 -10 -10 -10zM200 -9c-80 0 -135 37 -157 106c-9 26 -12 53 -12 145s3 119 12 145
c22 69 77 106 157 106s135 -37 157 -106c9 -26 12 -53 12 -145s-3 -119 -12 -145c-22 -69 -77 -106 -157 -106zM200 101c21 0 34 10 40 28c3 11 4 21 4 113s-1 102 -4 113c-6 18 -19 28 -40 28s-34 -10 -40 -28c-3 -11 -4 -21 -4 -113s1 -102 4 -113c6 -18 19 -28 40 -28z
" />
    <glyph glyph-name="omacron" unicode="&#x14d;" horiz-adv-x="400" 
d="M312 576h-223c-6 0 -10 4 -10 10v74c0 6 4 10 10 10h223c6 0 10 -4 10 -10v-74c0 -6 -4 -10 -10 -10zM200 -9c-80 0 -135 37 -157 106c-9 26 -12 53 -12 145s3 119 12 145c22 69 77 106 157 106s135 -37 157 -106c9 -26 12 -53 12 -145s-3 -119 -12 -145
c-22 -69 -77 -106 -157 -106zM200 101c21 0 34 10 40 28c3 11 4 21 4 113s-1 102 -4 113c-6 18 -19 28 -40 28s-34 -10 -40 -28c-3 -11 -4 -21 -4 -113s1 -102 4 -113c6 -18 19 -28 40 -28z" />
    <glyph glyph-name="obreve" unicode="&#x14f;" horiz-adv-x="400" 
d="M200 -9c-80 0 -135 37 -157 106c-9 26 -12 53 -12 145s3 119 12 145c22 69 77 106 157 106s135 -37 157 -106c9 -26 12 -53 12 -145s-3 -119 -12 -145c-22 -69 -77 -106 -157 -106zM200 101c21 0 34 10 40 28c3 11 4 21 4 113s-1 102 -4 113c-6 18 -19 28 -40 28
s-34 -10 -40 -28c-3 -11 -4 -21 -4 -113s1 -102 4 -113c6 -18 19 -28 40 -28zM201 549c-85 0 -129 57 -133 128c0 6 4 10 11 10h53c7 0 10 -4 12 -10c10 -27 28 -45 57 -45c28 0 47 18 57 45c2 6 4 10 11 10h53c7 0 11 -4 11 -10c-3 -71 -48 -128 -132 -128z" />
    <glyph glyph-name="ohungarumlaut" unicode="&#x151;" horiz-adv-x="400" 
d="M300 550h-65c-6 0 -9 4 -6 10l62 130c3 7 8 10 16 10h83c6 0 8 -5 5 -10l-77 -130c-5 -8 -10 -10 -18 -10zM156 550h-64c-6 0 -9 4 -6 10l62 130c3 7 8 10 16 10h83c6 0 8 -5 5 -10l-78 -130c-5 -8 -10 -10 -18 -10zM200 -9c-80 0 -135 37 -157 106c-9 26 -12 53 -12 145
s3 119 12 145c22 69 77 106 157 106s135 -37 157 -106c9 -26 12 -53 12 -145s-3 -119 -12 -145c-22 -69 -77 -106 -157 -106zM200 101c21 0 34 10 40 28c3 11 4 21 4 113s-1 102 -4 113c-6 18 -19 28 -40 28s-34 -10 -40 -28c-3 -11 -4 -21 -4 -113s1 -102 4 -113
c6 -18 19 -28 40 -28z" />
    <glyph glyph-name="oslash" unicode="&#xf8;" horiz-adv-x="400" 
d="M70 -30h-35c-6 0 -9 4 -6 10l38 69c-10 13 -18 29 -24 48c-9 26 -12 53 -12 145s3 119 12 145c22 69 77 106 157 106c38 0 70 -9 96 -25l20 36c3 6 8 10 14 10h35c6 0 9 -4 6 -10l-38 -70c10 -13 18 -29 24 -47c9 -26 12 -53 12 -145s-3 -119 -12 -145
c-22 -69 -77 -106 -157 -106c-38 0 -71 8 -97 24l-19 -35c-3 -6 -8 -10 -14 -10zM155 242v-36l81 159c-7 12 -19 19 -36 19c-21 0 -34 -10 -40 -28c-4 -11 -5 -22 -5 -114zM200 100c21 0 35 11 40 29c4 10 5 21 5 113v34l-81 -157c7 -12 19 -19 36 -19z" />
    <glyph glyph-name="oslashacute" unicode="&#x1ff;" horiz-adv-x="400" 
d="M70 -30h-35c-6 0 -9 4 -6 10l38 69c-10 13 -18 29 -24 48c-9 26 -12 53 -12 145s3 119 12 145c22 69 77 106 157 106c38 0 70 -9 96 -25l20 36c3 6 8 10 14 10h35c6 0 9 -4 6 -10l-38 -70c10 -13 18 -29 24 -47c9 -26 12 -53 12 -145s-3 -119 -12 -145
c-22 -69 -77 -106 -157 -106c-38 0 -71 8 -97 24l-19 -35c-3 -6 -8 -10 -14 -10zM155 242v-36l81 159c-7 12 -19 19 -36 19c-21 0 -34 -10 -40 -28c-4 -11 -5 -22 -5 -114zM200 100c21 0 35 11 40 29c4 10 5 21 5 113v34l-81 -157c7 -12 19 -19 36 -19zM224 551h-75
c-6 0 -9 4 -6 10l72 130c4 7 8 10 16 10h100c6 0 9 -5 5 -10l-94 -130c-6 -8 -10 -10 -18 -10z" />
    <glyph glyph-name="oe" unicode="&#x153;" horiz-adv-x="607" 
d="M411 -9c-42 0 -81 12 -104 35h-2c-28 -24 -62 -35 -105 -35c-80 0 -135 37 -157 106c-9 26 -12 53 -12 145s3 119 12 145c22 69 76 106 156 106c42 0 79 -12 106 -35h1c27 24 63 35 106 35c80 0 132 -37 154 -102c9 -26 12 -53 12 -179c0 -6 -4 -10 -10 -10h-193
c-4 0 -6 -2 -6 -6c0 -50 2 -61 5 -69c6 -18 19 -28 39 -28c23 0 37 12 45 38c2 6 6 8 12 7l95 -19c6 -1 8 -5 7 -12c-14 -77 -76 -122 -161 -122zM451 291c4 0 6 2 6 6c0 45 -2 57 -5 67c-6 16 -18 26 -39 26s-33 -10 -39 -26c-3 -10 -5 -22 -5 -67c0 -4 2 -6 6 -6h76z
M200 101c21 0 34 10 40 28c3 11 4 21 4 113s-1 102 -4 113c-6 18 -19 28 -40 28s-34 -10 -40 -28c-3 -11 -4 -21 -4 -113s1 -102 4 -113c6 -18 19 -28 40 -28z" />
    <glyph glyph-name="racute" unicode="&#x155;" horiz-adv-x="314" 
d="M191 551h-75c-6 0 -9 4 -6 10l72 130c4 7 8 10 16 10h100c6 0 9 -5 5 -10l-94 -130c-6 -8 -10 -10 -18 -10zM159 0h-105c-6 0 -10 4 -10 10v464c0 6 4 10 10 10h105c6 0 10 -4 10 -10v-45h1c19 40 54 64 111 64h15c6 -1 9 -4 8 -10l-23 -107c-1 -6 -4 -7 -10 -6h-17
c-54 0 -85 -29 -85 -99v-261c0 -6 -4 -10 -10 -10z" />
    <glyph glyph-name="rcaron" unicode="&#x159;" horiz-adv-x="314" 
d="M208 549h-67c-7 0 -13 4 -17 10l-90 130c-4 5 -2 10 4 10h70c8 0 13 -3 19 -10l47 -57h2l47 57c6 7 11 10 19 10h70c6 0 8 -5 4 -10l-91 -130c-4 -6 -9 -10 -17 -10zM159 0h-105c-6 0 -10 4 -10 10v464c0 6 4 10 10 10h105c6 0 10 -4 10 -10v-45h1c19 40 54 64 111 64h15
c6 -1 9 -4 8 -10l-23 -107c-1 -6 -4 -7 -10 -6h-17c-54 0 -85 -29 -85 -99v-261c0 -6 -4 -10 -10 -10z" />
    <glyph glyph-name="rcommaaccent" unicode="&#x157;" horiz-adv-x="314" 
d="M64 -231c-6 0 -9 3 -9 10v158c0 6 4 10 10 10h84c6 0 10 -4 10 -10v-61c0 -10 -2 -16 -8 -23l-74 -78c-4 -4 -8 -6 -13 -6zM159 0h-105c-6 0 -10 4 -10 10v464c0 6 4 10 10 10h105c6 0 10 -4 10 -10v-45h1c19 40 54 64 111 64h15c6 -1 9 -4 8 -10l-23 -107
c-1 -6 -4 -7 -10 -6h-17c-54 0 -85 -29 -85 -99v-261c0 -6 -4 -10 -10 -10z" />
    <glyph glyph-name="sacute" unicode="&#x15b;" horiz-adv-x="364" 
d="M207 551h-75c-6 0 -9 4 -6 10l72 130c4 7 8 10 16 10h100c6 0 9 -5 5 -10l-94 -130c-6 -8 -10 -10 -18 -10zM182 -9c-97 0 -154 49 -161 127c-1 6 2 10 8 11l92 17c6 1 11 -2 12 -8c4 -33 23 -49 49 -49c27 0 44 17 44 44s-11 40 -45 53l-39 14c-72 25 -113 73 -113 147
c0 86 58 146 155 146c92 0 142 -51 150 -114c1 -7 -1 -12 -6 -13l-87 -16c-6 -1 -10 2 -11 8c-6 23 -18 38 -45 38c-25 0 -39 -17 -39 -40c0 -18 11 -34 46 -47l39 -14c83 -29 113 -76 113 -151c0 -91 -59 -153 -162 -153z" />
    <glyph glyph-name="scircumflex" unicode="&#x15d;" horiz-adv-x="364" 
d="M320 550h-70c-8 0 -13 3 -19 10l-47 58h-2l-47 -58c-6 -7 -11 -10 -19 -10h-70c-6 0 -8 5 -4 10l90 131c4 6 10 10 17 10h67c8 0 13 -4 17 -10l91 -131c4 -5 2 -10 -4 -10zM182 -9c-97 0 -154 49 -161 127c-1 6 2 10 8 11l92 17c6 1 11 -2 12 -8c4 -33 23 -49 49 -49
c27 0 44 17 44 44s-11 40 -45 53l-39 14c-72 25 -113 73 -113 147c0 86 58 146 155 146c92 0 142 -51 150 -114c1 -7 -1 -12 -6 -13l-87 -16c-6 -1 -10 2 -11 8c-6 23 -18 38 -45 38c-25 0 -39 -17 -39 -40c0 -18 11 -34 46 -47l39 -14c83 -29 113 -76 113 -151
c0 -91 -59 -153 -162 -153z" />
    <glyph glyph-name="scaron" unicode="&#x161;" horiz-adv-x="364" 
d="M216 549h-67c-7 0 -13 4 -17 10l-90 130c-4 5 -2 10 4 10h70c8 0 13 -3 19 -10l47 -57h2l47 57c6 7 11 10 19 10h70c6 0 8 -5 4 -10l-91 -130c-4 -6 -9 -10 -17 -10zM182 -9c-97 0 -154 49 -161 127c-1 6 2 10 8 11l92 17c6 1 11 -2 12 -8c4 -33 23 -49 49 -49
c27 0 44 17 44 44s-11 40 -45 53l-39 14c-72 25 -113 73 -113 147c0 86 58 146 155 146c92 0 142 -51 150 -114c1 -7 -1 -12 -6 -13l-87 -16c-6 -1 -10 2 -11 8c-6 23 -18 38 -45 38c-25 0 -39 -17 -39 -40c0 -18 11 -34 46 -47l39 -14c83 -29 113 -76 113 -151
c0 -91 -59 -153 -162 -153z" />
    <glyph glyph-name="scedilla" unicode="&#x15f;" horiz-adv-x="364" 
d="M63 -150l63 147c-63 15 -100 59 -105 121c-1 6 2 10 8 11l92 17c6 1 11 -2 12 -8c4 -33 23 -49 49 -49c27 0 44 17 44 44s-11 40 -45 53l-39 14c-72 25 -113 73 -113 147c0 86 58 146 155 146c92 0 142 -51 150 -114c1 -7 -1 -12 -6 -13l-87 -16c-6 -1 -10 2 -11 8
c-6 23 -18 38 -45 38c-25 0 -39 -17 -39 -40c0 -18 11 -34 46 -47l39 -14c83 -29 113 -76 113 -151c0 -79 -44 -136 -123 -149l-51 -145c-3 -7 -7 -10 -16 -10h-84c-6 0 -9 4 -7 10z" />
    <glyph glyph-name="scommaaccent" unicode="&#x219;" horiz-adv-x="364" 
d="M140 -231c-6 0 -9 3 -9 10v158c0 6 4 10 10 10h84c6 0 10 -4 10 -10v-61c0 -10 -2 -16 -8 -23l-74 -78c-4 -4 -8 -6 -13 -6zM182 -9c-97 0 -154 49 -161 127c-1 6 2 10 8 11l92 17c6 1 11 -2 12 -8c4 -33 23 -49 49 -49c27 0 44 17 44 44s-11 40 -45 53l-39 14
c-72 25 -113 73 -113 147c0 86 58 146 155 146c92 0 142 -51 150 -114c1 -7 -1 -12 -6 -13l-87 -16c-6 -1 -10 2 -11 8c-6 23 -18 38 -45 38c-25 0 -39 -17 -39 -40c0 -18 11 -34 46 -47l39 -14c83 -29 113 -76 113 -151c0 -91 -59 -153 -162 -153z" />
    <glyph glyph-name="germandbls" unicode="&#xdf;" horiz-adv-x="432" 
d="M243 -5h-15c-6 0 -10 4 -10 10v91c0 6 4 10 10 10h6c17 0 27 7 32 20c3 8 4 19 4 95s-1 87 -4 95c-5 13 -16 20 -32 20h-6c-6 0 -10 4 -10 10v90c0 6 4 10 10 10h4c16 0 25 7 29 20c2 6 4 18 4 50c0 41 -14 63 -47 63s-49 -21 -49 -62v-507c0 -6 -4 -10 -10 -10h-105
c-6 0 -10 4 -10 10v496c0 114 55 183 173 183c110 0 173 -63 173 -165c0 -66 -13 -95 -52 -124v-2c23 -14 39 -32 48 -60c7 -21 9 -43 9 -117c0 -89 -3 -120 -11 -143c-19 -61 -65 -83 -141 -83z" />
    <glyph glyph-name="tcaron" unicode="&#x165;" horiz-adv-x="275" 
d="M242 494c-6 0 -9 3 -9 10v166c0 6 4 10 10 10h81c6 0 10 -4 10 -10v-69c0 -12 -3 -16 -9 -23l-70 -77c-4 -5 -8 -7 -13 -7zM242 -6h-34c-98 0 -144 36 -144 149v242c0 4 -2 6 -6 6h-30c-6 0 -10 4 -10 10v73c0 6 4 10 10 10h30c4 0 6 2 6 6v130c0 6 4 10 10 10h105
c6 0 10 -4 10 -10v-130c0 -4 2 -6 6 -6h47c6 0 10 -4 10 -10v-73c0 -6 -4 -10 -10 -10h-47c-4 0 -6 -2 -6 -6v-237c0 -30 12 -42 39 -42h14c6 0 10 -4 10 -10v-92c0 -6 -4 -10 -10 -10z" />
    <glyph glyph-name="tcommaaccent" unicode="&#x163;" horiz-adv-x="275" 
d="M116 -231c-6 0 -9 3 -9 10v158c0 6 4 10 10 10h84c6 0 10 -4 10 -10v-61c0 -10 -2 -16 -8 -23l-74 -78c-4 -4 -8 -6 -13 -6zM242 -6h-34c-98 0 -144 36 -144 149v242c0 4 -2 6 -6 6h-30c-6 0 -10 4 -10 10v73c0 6 4 10 10 10h30c4 0 6 2 6 6v130c0 6 4 10 10 10h105
c6 0 10 -4 10 -10v-130c0 -4 2 -6 6 -6h47c6 0 10 -4 10 -10v-73c0 -6 -4 -10 -10 -10h-47c-4 0 -6 -2 -6 -6v-237c0 -30 12 -42 39 -42h14c6 0 10 -4 10 -10v-92c0 -6 -4 -10 -10 -10z" />
    <glyph glyph-name="uni021B" unicode="&#x21b;" horiz-adv-x="275" 
d="M116 -231c-6 0 -9 3 -9 10v158c0 6 4 10 10 10h84c6 0 10 -4 10 -10v-61c0 -10 -2 -16 -8 -23l-74 -78c-4 -4 -8 -6 -13 -6zM242 -6h-34c-98 0 -144 36 -144 149v242c0 4 -2 6 -6 6h-30c-6 0 -10 4 -10 10v73c0 6 4 10 10 10h30c4 0 6 2 6 6v130c0 6 4 10 10 10h105
c6 0 10 -4 10 -10v-130c0 -4 2 -6 6 -6h47c6 0 10 -4 10 -10v-73c0 -6 -4 -10 -10 -10h-47c-4 0 -6 -2 -6 -6v-237c0 -30 12 -42 39 -42h14c6 0 10 -4 10 -10v-92c0 -6 -4 -10 -10 -10z" />
    <glyph glyph-name="tbar" unicode="&#x167;" horiz-adv-x="275" 
d="M242 -6h-34c-98 0 -144 36 -144 149v98c0 4 -2 6 -6 6h-23c-6 0 -10 4 -10 10v63c0 6 4 10 10 10h23c4 0 6 2 6 6v49c0 4 -2 6 -6 6h-30c-6 0 -10 4 -10 10v73c0 6 4 10 10 10h30c4 0 6 2 6 6v130c0 6 4 10 10 10h105c6 0 10 -4 10 -10v-130c0 -4 2 -6 6 -6h47
c6 0 10 -4 10 -10v-73c0 -6 -4 -10 -10 -10h-47c-4 0 -6 -2 -6 -6v-49c0 -4 2 -6 6 -6h32c6 0 10 -4 10 -10v-63c0 -6 -4 -10 -10 -10h-32c-4 0 -6 -2 -6 -6v-93c0 -30 12 -42 39 -42h14c6 0 10 -4 10 -10v-92c0 -6 -4 -10 -10 -10z" />
    <glyph glyph-name="thorn" unicode="&#xfe;" 
d="M159 -180h-105c-6 0 -10 4 -10 10v840c0 6 4 10 10 10h105c6 0 10 -4 10 -10v-235h1c15 36 43 58 92 58c57 0 89 -24 107 -78c9 -29 13 -62 13 -173s-4 -144 -13 -173c-18 -54 -50 -78 -107 -78c-49 0 -77 22 -92 58h-1v-219c0 -6 -4 -10 -10 -10zM213 101
c21 0 34 10 39 27c4 12 5 22 5 114s-1 102 -5 114c-5 17 -18 27 -39 27s-34 -10 -39 -27c-4 -12 -5 -22 -5 -114s1 -102 5 -114c5 -17 18 -27 39 -27z" />
    <glyph glyph-name="ugrave" unicode="&#xf9;" horiz-adv-x="417" 
d="M363 0h-105c-6 0 -10 4 -10 10v37h-1c-17 -33 -46 -56 -94 -56c-75 0 -112 45 -112 149v334c0 6 4 10 10 10h105c6 0 10 -4 10 -10v-314c0 -39 14 -58 41 -58s41 19 41 58v314c0 6 4 10 10 10h105c6 0 10 -4 10 -10v-464c0 -6 -4 -10 -10 -10zM253 551h-75
c-8 0 -12 2 -18 10l-93 130c-4 5 -1 10 5 10h100c8 0 12 -3 16 -10l71 -130c3 -6 0 -10 -6 -10z" />
    <glyph glyph-name="uacute" unicode="&#xfa;" horiz-adv-x="417" 
d="M236 551h-75c-6 0 -9 4 -6 10l72 130c4 7 8 10 16 10h100c6 0 9 -5 5 -10l-94 -130c-6 -8 -10 -10 -18 -10zM363 0h-105c-6 0 -10 4 -10 10v37h-1c-17 -33 -46 -56 -94 -56c-75 0 -112 45 -112 149v334c0 6 4 10 10 10h105c6 0 10 -4 10 -10v-314c0 -39 14 -58 41 -58
s41 19 41 58v314c0 6 4 10 10 10h105c6 0 10 -4 10 -10v-464c0 -6 -4 -10 -10 -10z" />
    <glyph glyph-name="ucircumflex" unicode="&#xfb;" horiz-adv-x="417" 
d="M347 550h-70c-8 0 -13 3 -19 10l-47 58h-2l-47 -58c-6 -7 -11 -10 -19 -10h-70c-6 0 -8 5 -4 10l90 131c4 6 10 10 17 10h67c8 0 13 -4 17 -10l91 -131c4 -5 2 -10 -4 -10zM363 0h-105c-6 0 -10 4 -10 10v37h-1c-17 -33 -46 -56 -94 -56c-75 0 -112 45 -112 149v334
c0 6 4 10 10 10h105c6 0 10 -4 10 -10v-314c0 -39 14 -58 41 -58s41 19 41 58v314c0 6 4 10 10 10h105c6 0 10 -4 10 -10v-464c0 -6 -4 -10 -10 -10z" />
    <glyph glyph-name="utilde" unicode="&#x169;" horiz-adv-x="417" 
d="M363 0h-105c-6 0 -10 4 -10 10v37h-1c-17 -33 -46 -56 -94 -56c-75 0 -112 45 -112 149v334c0 6 4 10 10 10h105c6 0 10 -4 10 -10v-314c0 -39 14 -58 41 -58s41 19 41 58v314c0 6 4 10 10 10h105c6 0 10 -4 10 -10v-464c0 -6 -4 -10 -10 -10zM258 558
c-23 0 -38 8 -55 19c-17 10 -28 16 -44 16c-24 0 -38 -11 -55 -28c-5 -5 -11 -3 -11 4v73c0 7 2 11 9 18c15 15 33 27 58 27c23 0 38 -8 55 -19c16 -10 28 -17 44 -17c24 0 38 12 54 29c5 5 12 3 12 -4v-73c0 -7 -2 -11 -9 -18c-15 -15 -33 -27 -58 -27z" />
    <glyph glyph-name="udieresis" unicode="&#xfc;" horiz-adv-x="417" 
d="M327 562h-77c-6 0 -10 4 -10 10v98c0 6 4 10 10 10h77c6 0 10 -4 10 -10v-98c0 -6 -4 -10 -10 -10zM169 562h-77c-6 0 -10 4 -10 10v98c0 6 4 10 10 10h77c6 0 10 -4 10 -10v-98c0 -6 -4 -10 -10 -10zM363 0h-105c-6 0 -10 4 -10 10v37h-1c-17 -33 -46 -56 -94 -56
c-75 0 -112 45 -112 149v334c0 6 4 10 10 10h105c6 0 10 -4 10 -10v-314c0 -39 14 -58 41 -58s41 19 41 58v314c0 6 4 10 10 10h105c6 0 10 -4 10 -10v-464c0 -6 -4 -10 -10 -10z" />
    <glyph glyph-name="umacron" unicode="&#x16b;" horiz-adv-x="417" 
d="M363 0h-105c-6 0 -10 4 -10 10v37h-1c-17 -33 -46 -56 -94 -56c-75 0 -112 45 -112 149v334c0 6 4 10 10 10h105c6 0 10 -4 10 -10v-314c0 -39 14 -58 41 -58s41 19 41 58v314c0 6 4 10 10 10h105c6 0 10 -4 10 -10v-464c0 -6 -4 -10 -10 -10zM321 576h-223
c-6 0 -10 4 -10 10v74c0 6 4 10 10 10h223c6 0 10 -4 10 -10v-74c0 -6 -4 -10 -10 -10z" />
    <glyph glyph-name="ubreve" unicode="&#x16d;" horiz-adv-x="417" 
d="M363 0h-105c-6 0 -10 4 -10 10v37h-1c-17 -33 -46 -56 -94 -56c-75 0 -112 45 -112 149v334c0 6 4 10 10 10h105c6 0 10 -4 10 -10v-314c0 -39 14 -58 41 -58s41 19 41 58v314c0 6 4 10 10 10h105c6 0 10 -4 10 -10v-464c0 -6 -4 -10 -10 -10zM210 549
c-85 0 -129 57 -133 128c0 6 4 10 11 10h53c7 0 10 -4 12 -10c10 -27 28 -45 57 -45c28 0 47 18 57 45c2 6 4 10 11 10h53c7 0 11 -4 11 -10c-3 -71 -48 -128 -132 -128z" />
    <glyph glyph-name="uring" unicode="&#x16f;" horiz-adv-x="417" 
d="M210 533c-55 0 -96 41 -96 96s41 96 96 96s96 -41 96 -96s-41 -96 -96 -96zM210 584c25 0 43 19 43 45s-18 45 -43 45s-44 -19 -44 -45s19 -45 44 -45zM363 0h-105c-6 0 -10 4 -10 10v37h-1c-17 -33 -46 -56 -94 -56c-75 0 -112 45 -112 149v334c0 6 4 10 10 10h105
c6 0 10 -4 10 -10v-314c0 -39 14 -58 41 -58s41 19 41 58v314c0 6 4 10 10 10h105c6 0 10 -4 10 -10v-464c0 -6 -4 -10 -10 -10z" />
    <glyph glyph-name="uhungarumlaut" unicode="&#x171;" horiz-adv-x="417" 
d="M363 0h-105c-6 0 -10 4 -10 10v37h-1c-17 -33 -46 -56 -94 -56c-75 0 -112 45 -112 149v334c0 6 4 10 10 10h105c6 0 10 -4 10 -10v-314c0 -39 14 -58 41 -58s41 19 41 58v314c0 6 4 10 10 10h105c6 0 10 -4 10 -10v-464c0 -6 -4 -10 -10 -10zM307 550h-65
c-6 0 -9 4 -6 10l62 130c3 7 8 10 16 10h83c6 0 8 -5 5 -10l-77 -130c-5 -8 -10 -10 -18 -10zM163 550h-64c-6 0 -9 4 -6 10l62 130c3 7 8 10 16 10h83c6 0 8 -5 5 -10l-78 -130c-5 -8 -10 -10 -18 -10z" />
    <glyph glyph-name="uogonek" unicode="&#x173;" horiz-adv-x="417" 
d="M299 -191c-58 0 -96 31 -96 87c0 43 22 75 53 104c-5 1 -8 5 -8 10v37h-1c-17 -33 -46 -56 -94 -56c-75 0 -112 45 -112 149v334c0 6 4 10 10 10h105c6 0 10 -4 10 -10v-314c0 -39 14 -58 41 -58s41 19 41 58v314c0 6 4 10 10 10h105c6 0 10 -4 10 -10v-464
c0 -6 -2 -8 -7 -11c-44 -23 -67 -57 -67 -81c0 -15 7 -23 18 -23c7 0 12 1 17 4s11 1 13 -4l23 -55c2 -5 0 -10 -5 -13c-15 -10 -43 -18 -66 -18z" />
    <glyph glyph-name="wacute" unicode="&#x1e83;" horiz-adv-x="565" 
d="M321 551h-75c-6 0 -9 4 -6 10l72 130c4 7 8 10 16 10h100c6 0 9 -5 5 -10l-94 -130c-6 -8 -10 -10 -18 -10zM430 0h-89c-7 0 -11 3 -12 10l-46 258h-2l-44 -258c-1 -7 -5 -10 -12 -10h-89c-7 0 -10 3 -12 10l-110 464c-2 6 1 10 7 10h104c7 0 10 -4 11 -10l49 -281h1
l50 281c1 6 4 10 11 10h73c7 0 10 -4 11 -10l48 -281h1l50 281c1 6 4 10 11 10h103c6 0 9 -4 7 -10l-109 -464c-2 -7 -5 -10 -12 -10z" />
    <glyph glyph-name="wcircumflex" unicode="&#x175;" horiz-adv-x="565" 
d="M419 550h-70c-8 0 -13 3 -19 10l-47 58h-2l-47 -58c-6 -7 -11 -10 -19 -10h-70c-6 0 -8 5 -4 10l90 131c4 6 10 10 17 10h67c8 0 13 -4 17 -10l91 -131c4 -5 2 -10 -4 -10zM430 0h-89c-7 0 -11 3 -12 10l-46 258h-2l-44 -258c-1 -7 -5 -10 -12 -10h-89c-7 0 -10 3 -12 10
l-110 464c-2 6 1 10 7 10h104c7 0 10 -4 11 -10l49 -281h1l50 281c1 6 4 10 11 10h73c7 0 10 -4 11 -10l48 -281h1l50 281c1 6 4 10 11 10h103c6 0 9 -4 7 -10l-109 -464c-2 -7 -5 -10 -12 -10z" />
    <glyph glyph-name="wdieresis" unicode="&#x1e85;" horiz-adv-x="565" 
d="M399 562h-77c-6 0 -10 4 -10 10v98c0 6 4 10 10 10h77c6 0 10 -4 10 -10v-98c0 -6 -4 -10 -10 -10zM241 562h-77c-6 0 -10 4 -10 10v98c0 6 4 10 10 10h77c6 0 10 -4 10 -10v-98c0 -6 -4 -10 -10 -10zM430 0h-89c-7 0 -11 3 -12 10l-46 258h-2l-44 -258
c-1 -7 -5 -10 -12 -10h-89c-7 0 -10 3 -12 10l-110 464c-2 6 1 10 7 10h104c7 0 10 -4 11 -10l49 -281h1l50 281c1 6 4 10 11 10h73c7 0 10 -4 11 -10l48 -281h1l50 281c1 6 4 10 11 10h103c6 0 9 -4 7 -10l-109 -464c-2 -7 -5 -10 -12 -10z" />
    <glyph glyph-name="wgrave" unicode="&#x1e81;" horiz-adv-x="565" 
d="M430 0h-89c-7 0 -11 3 -12 10l-46 258h-2l-44 -258c-1 -7 -5 -10 -12 -10h-89c-7 0 -10 3 -12 10l-110 464c-2 6 1 10 7 10h104c7 0 10 -4 11 -10l49 -281h1l50 281c1 6 4 10 11 10h73c7 0 10 -4 11 -10l48 -281h1l50 281c1 6 4 10 11 10h103c6 0 9 -4 7 -10l-109 -464
c-2 -7 -5 -10 -12 -10zM322 551h-75c-8 0 -12 2 -18 10l-93 130c-4 5 -1 10 5 10h100c8 0 12 -3 16 -10l71 -130c3 -6 0 -10 -6 -10z" />
    <glyph glyph-name="yacute" unicode="&#xfd;" horiz-adv-x="387" 
d="M76 -180h-14c-6 0 -10 4 -10 10v92c0 6 4 10 10 10l14 1c32 1 46 13 55 49l8 35l-124 457c-2 6 1 10 7 10h105c7 0 10 -4 11 -10l56 -276h1l57 276c1 6 5 10 12 10h100c6 0 9 -4 7 -10l-128 -494c-34 -130 -74 -160 -167 -160zM233 551h-75c-6 0 -9 4 -6 10l72 130
c4 7 8 10 16 10h100c6 0 9 -5 5 -10l-94 -130c-6 -8 -10 -10 -18 -10z" />
    <glyph glyph-name="ycircumflex" unicode="&#x177;" horiz-adv-x="387" 
d="M76 -180h-14c-6 0 -10 4 -10 10v92c0 6 4 10 10 10l14 1c32 1 46 13 55 49l8 35l-124 457c-2 6 1 10 7 10h105c7 0 10 -4 11 -10l56 -276h1l57 276c1 6 5 10 12 10h100c6 0 9 -4 7 -10l-128 -494c-34 -130 -74 -160 -167 -160zM331 550h-70c-8 0 -13 3 -19 10l-47 58h-2
l-47 -58c-6 -7 -11 -10 -19 -10h-70c-6 0 -8 5 -4 10l90 131c4 6 10 10 17 10h67c8 0 13 -4 17 -10l91 -131c4 -5 2 -10 -4 -10z" />
    <glyph glyph-name="ydieresis" unicode="&#xff;" horiz-adv-x="387" 
d="M76 -180h-14c-6 0 -10 4 -10 10v92c0 6 4 10 10 10l14 1c32 1 46 13 55 49l8 35l-124 457c-2 6 1 10 7 10h105c7 0 10 -4 11 -10l56 -276h1l57 276c1 6 5 10 12 10h100c6 0 9 -4 7 -10l-128 -494c-34 -130 -74 -160 -167 -160zM311 562h-77c-6 0 -10 4 -10 10v98
c0 6 4 10 10 10h77c6 0 10 -4 10 -10v-98c0 -6 -4 -10 -10 -10zM153 562h-77c-6 0 -10 4 -10 10v98c0 6 4 10 10 10h77c6 0 10 -4 10 -10v-98c0 -6 -4 -10 -10 -10z" />
    <glyph glyph-name="ygrave" unicode="&#x1ef3;" horiz-adv-x="387" 
d="M76 -180h-14c-6 0 -10 4 -10 10v92c0 6 4 10 10 10l14 1c32 1 46 13 55 49l8 35l-124 457c-2 6 1 10 7 10h105c7 0 10 -4 11 -10l56 -276h1l57 276c1 6 5 10 12 10h100c6 0 9 -4 7 -10l-128 -494c-34 -130 -74 -160 -167 -160zM242 551h-75c-8 0 -12 2 -18 10l-93 130
c-4 5 -1 10 5 10h100c8 0 12 -3 16 -10l71 -130c3 -6 0 -10 -6 -10z" />
    <glyph glyph-name="zacute" unicode="&#x17a;" horiz-adv-x="342" 
d="M206 551h-75c-6 0 -9 4 -6 10l72 130c4 7 8 10 16 10h100c6 0 9 -5 5 -10l-94 -130c-6 -8 -10 -10 -18 -10zM305 0h-267c-6 0 -10 4 -10 10v85c0 4 1 8 3 12l146 269v2h-129c-6 0 -10 4 -10 10v86c0 6 4 10 10 10h257c6 0 10 -4 10 -10v-76c0 -5 -1 -9 -3 -13l-149 -275
v-2h142c6 0 10 -4 10 -10v-88c0 -6 -4 -10 -10 -10z" />
    <glyph glyph-name="zcaron" unicode="&#x17e;" horiz-adv-x="342" 
d="M206 549h-67c-7 0 -13 4 -17 10l-90 130c-4 5 -2 10 4 10h70c8 0 13 -3 19 -10l47 -57h2l47 57c6 7 11 10 19 10h70c6 0 8 -5 4 -10l-91 -130c-4 -6 -9 -10 -17 -10zM305 0h-267c-6 0 -10 4 -10 10v85c0 4 1 8 3 12l146 269v2h-129c-6 0 -10 4 -10 10v86c0 6 4 10 10 10
h257c6 0 10 -4 10 -10v-76c0 -5 -1 -9 -3 -13l-149 -275v-2h142c6 0 10 -4 10 -10v-88c0 -6 -4 -10 -10 -10z" />
    <glyph glyph-name="zdotaccent" unicode="&#x17c;" horiz-adv-x="342" 
d="M305 0h-267c-6 0 -10 4 -10 10v85c0 4 1 8 3 12l146 269v2h-129c-6 0 -10 4 -10 10v86c0 6 4 10 10 10h257c6 0 10 -4 10 -10v-76c0 -5 -1 -9 -3 -13l-149 -275v-2h142c6 0 10 -4 10 -10v-88c0 -6 -4 -10 -10 -10zM225 562h-105c-6 0 -10 4 -10 10v98c0 6 4 10 10 10h105
c6 0 10 -4 10 -10v-98c0 -6 -4 -10 -10 -10z" />
    <glyph glyph-name="grave.cap" horiz-adv-x="429" 
d="M305 755h-74c-8 0 -12 3 -19 10l-104 114c-4 5 -1 10 5 10h100c8 0 11 -3 16 -10l82 -114c4 -5 0 -10 -6 -10z" />
    <glyph glyph-name="acute" unicode="&#xb4;" horiz-adv-x="429" 
d="M202 551h-75c-6 0 -9 4 -6 10l72 130c4 7 8 10 16 10h100c6 0 9 -5 5 -10l-94 -130c-6 -8 -10 -10 -18 -10z" />
    <glyph glyph-name="acute.cap" horiz-adv-x="429" 
d="M205 755h-74c-6 0 -9 5 -5 10l82 114c5 7 8 10 16 10h100c6 0 9 -5 5 -10l-104 -114c-7 -7 -12 -10 -20 -10z" />
    <glyph glyph-name="circumflex" unicode="&#x2c6;" horiz-adv-x="429" 
d="M352 550h-70c-8 0 -13 3 -19 10l-47 58h-2l-47 -58c-6 -7 -11 -10 -19 -10h-70c-6 0 -8 5 -4 10l90 131c4 6 10 10 17 10h67c8 0 13 -4 17 -10l91 -131c4 -5 2 -10 -4 -10z" />
    <glyph glyph-name="circumflex.cap" horiz-adv-x="429" 
d="M352 746h-70c-8 0 -13 3 -19 10l-47 57h-2l-47 -57c-6 -7 -11 -10 -19 -10h-70c-6 0 -8 5 -4 10l90 130c4 6 10 10 17 10h67c8 0 13 -4 17 -10l91 -130c4 -5 2 -10 -4 -10z" />
    <glyph glyph-name="caron" unicode="&#x2c7;" horiz-adv-x="429" 
d="M248 549h-67c-7 0 -13 4 -17 10l-90 130c-4 5 -2 10 4 10h70c8 0 13 -3 19 -10l47 -57h2l47 57c6 7 11 10 19 10h70c6 0 8 -5 4 -10l-91 -130c-4 -6 -9 -10 -17 -10z" />
    <glyph glyph-name="caron.cap" horiz-adv-x="429" 
d="M248 741h-67c-7 0 -13 4 -17 10l-90 130c-4 5 -2 10 4 10h70c8 0 13 -3 19 -10l47 -57h2l47 57c6 7 11 10 19 10h70c6 0 8 -5 4 -10l-91 -130c-4 -6 -9 -10 -17 -10z" />
    <glyph glyph-name="caron.alt" horiz-adv-x="429" 
d="M174 494c-6 0 -9 3 -9 10v166c0 6 4 10 10 10h81c6 0 10 -4 10 -10v-69c0 -12 -3 -16 -9 -23l-70 -77c-4 -5 -8 -7 -13 -7z" />
    <glyph glyph-name="tilde" unicode="&#x2dc;" horiz-adv-x="429" 
d="M263 558c-23 0 -38 8 -55 19c-17 10 -28 16 -44 16c-24 0 -38 -11 -55 -28c-5 -5 -11 -3 -11 4v73c0 7 2 11 9 18c15 15 33 27 58 27c23 0 38 -8 55 -19c16 -10 28 -17 44 -17c24 0 38 12 54 29c5 5 12 3 12 -4v-73c0 -7 -2 -11 -9 -18c-15 -15 -33 -27 -58 -27z" />
    <glyph glyph-name="tilde.cap" horiz-adv-x="429" 
d="M263 754c-23 0 -38 8 -55 19s-28 17 -44 17c-24 0 -38 -12 -55 -29c-5 -5 -11 -3 -11 4v73c0 7 2 11 9 18c15 15 33 27 58 27c23 0 38 -8 55 -19c17 -10 28 -16 44 -16c24 0 38 11 54 28c5 5 12 3 12 -4v-73c0 -7 -2 -11 -9 -18c-15 -15 -33 -27 -58 -27z" />
    <glyph glyph-name="dieresis" unicode="&#xa8;" horiz-adv-x="429" 
d="M332 562h-77c-6 0 -10 4 -10 10v98c0 6 4 10 10 10h77c6 0 10 -4 10 -10v-98c0 -6 -4 -10 -10 -10zM174 562h-77c-6 0 -10 4 -10 10v98c0 6 4 10 10 10h77c6 0 10 -4 10 -10v-98c0 -6 -4 -10 -10 -10z" />
    <glyph glyph-name="dieresis.cap" horiz-adv-x="429" 
d="M332 760h-77c-6 0 -10 4 -10 10v98c0 6 4 10 10 10h77c6 0 10 -4 10 -10v-98c0 -6 -4 -10 -10 -10zM174 760h-77c-6 0 -10 4 -10 10v98c0 6 4 10 10 10h77c6 0 10 -4 10 -10v-98c0 -6 -4 -10 -10 -10z" />
    <glyph glyph-name="macron" unicode="&#xaf;" horiz-adv-x="429" 
d="M326 576h-223c-6 0 -10 4 -10 10v74c0 6 4 10 10 10h223c6 0 10 -4 10 -10v-74c0 -6 -4 -10 -10 -10z" />
    <glyph glyph-name="macron.cap" horiz-adv-x="429" 
d="M326 771h-223c-6 0 -10 4 -10 10v74c0 6 4 10 10 10h223c6 0 10 -4 10 -10v-74c0 -6 -4 -10 -10 -10z" />
    <glyph glyph-name="uni02C9" unicode="&#x2c9;" horiz-adv-x="429" 
d="M326 771h-223c-6 0 -10 4 -10 10v74c0 6 4 10 10 10h223c6 0 10 -4 10 -10v-74c0 -6 -4 -10 -10 -10z" />
    <glyph glyph-name="breve" unicode="&#x2d8;" horiz-adv-x="429" 
d="M215 549c-85 0 -129 57 -133 128c0 6 4 10 11 10h53c7 0 10 -4 12 -10c10 -27 28 -45 57 -45c28 0 47 18 57 45c2 6 4 10 11 10h53c7 0 11 -4 11 -10c-3 -71 -48 -128 -132 -128z" />
    <glyph glyph-name="breve.cap" horiz-adv-x="429" 
d="M215 736c-85 0 -129 58 -133 129c0 6 4 10 11 10h53c7 0 10 -4 12 -10c10 -27 28 -46 57 -46c28 0 47 19 57 46c2 6 4 10 11 10h53c7 0 11 -4 11 -10c-3 -71 -48 -129 -132 -129z" />
    <glyph glyph-name="ring" unicode="&#x2da;" horiz-adv-x="429" 
d="M215 533c-55 0 -96 41 -96 96s41 96 96 96s96 -41 96 -96s-41 -96 -96 -96zM215 584c25 0 43 19 43 45s-18 45 -43 45s-44 -19 -44 -45s19 -45 44 -45z" />
    <glyph glyph-name="ring.cap" horiz-adv-x="429" 
d="M215 715c-55 0 -96 41 -96 96s41 95 96 95s96 -40 96 -95s-41 -96 -96 -96zM215 765c25 0 43 20 43 46s-18 45 -43 45s-44 -19 -44 -45s19 -46 44 -46z" />
    <glyph glyph-name="hungarumlaut" unicode="&#x2dd;" horiz-adv-x="429" 
d="M296 550h-65c-6 0 -9 4 -6 10l62 130c3 7 8 10 16 10h83c6 0 8 -5 5 -10l-77 -130c-5 -8 -10 -10 -18 -10zM152 550h-64c-6 0 -9 4 -6 10l62 130c3 7 8 10 16 10h83c6 0 8 -5 5 -10l-78 -130c-5 -8 -10 -10 -18 -10z" />
    <glyph glyph-name="hungarumlaut.cap" horiz-adv-x="429" 
d="M298 755h-64c-6 0 -9 4 -6 10l71 112c4 6 9 10 17 10h82c6 0 8 -5 4 -10l-85 -112c-6 -7 -11 -10 -19 -10zM154 755h-64c-6 0 -9 4 -5 10l70 112c4 6 9 10 17 10h83c6 0 8 -5 4 -10l-86 -112c-6 -7 -10 -10 -19 -10z" />
    <glyph glyph-name="dotaccent" unicode="&#x2d9;" horiz-adv-x="429" 
d="M267 562h-105c-6 0 -10 4 -10 10v98c0 6 4 10 10 10h105c6 0 10 -4 10 -10v-98c0 -6 -4 -10 -10 -10z" />
    <glyph glyph-name="dotaccent.cap" horiz-adv-x="429" 
d="M267 760h-105c-6 0 -10 4 -10 10v98c0 6 4 10 10 10h105c6 0 10 -4 10 -10v-98c0 -6 -4 -10 -10 -10z" />
    <glyph glyph-name="cedilla" unicode="&#xb8;" horiz-adv-x="429" 
d="M136 -150l65 150c3 7 7 10 14 10h74c6 0 9 -4 7 -10l-53 -150c-3 -7 -7 -10 -16 -10h-84c-6 0 -9 4 -7 10z" />
    <glyph glyph-name="ogonek" unicode="&#x2db;" horiz-adv-x="429" 
d="M243 -191c-58 0 -96 31 -96 87c0 42 24 76 54 104c6 6 12 10 18 10h91c7 0 8 -7 2 -10c-43 -24 -69 -57 -69 -82c0 -15 8 -23 19 -23c7 0 12 1 17 4s10 1 12 -4l23 -55c2 -5 0 -10 -5 -13c-15 -10 -42 -18 -66 -18z" />
    <glyph glyph-name="commaaccent" horiz-adv-x="429" 
d="M172 -231c-6 0 -9 3 -9 10v158c0 6 4 10 10 10h84c6 0 10 -4 10 -10v-61c0 -10 -2 -16 -8 -23l-74 -78c-4 -4 -8 -6 -13 -6z" />
    <glyph glyph-name="commaaccent.alt" horiz-adv-x="429" 
d="M257 562h-84c-6 0 -10 4 -10 10v61c0 11 2 16 8 23l74 79c4 4 8 6 13 6c6 0 9 -4 9 -10v-159c0 -6 -4 -10 -10 -10z" />
    <glyph glyph-name="ellipsis" unicode="&#x2026;" horiz-adv-x="624" 
d="M571 0h-102c-6 0 -10 4 -10 10v116c0 6 4 10 10 10h102c6 0 10 -4 10 -10v-116c0 -6 -4 -10 -10 -10zM363 0h-102c-6 0 -10 4 -10 10v116c0 6 4 10 10 10h102c6 0 10 -4 10 -10v-116c0 -6 -4 -10 -10 -10zM155 0h-102c-6 0 -10 4 -10 10v116c0 6 4 10 10 10h102
c6 0 10 -4 10 -10v-116c0 -6 -4 -10 -10 -10z" />
    <glyph glyph-name="uni00AD" unicode="&#xad;" horiz-adv-x="366" 
d="M317 208h-268c-6 0 -10 4 -10 10v94c0 6 4 10 10 10h268c6 0 10 -4 10 -10v-94c0 -6 -4 -10 -10 -10z" />
    <glyph glyph-name="exclamdown" unicode="&#xa1;" horiz-adv-x="249" 
d="M155 297c6 0 10 -4 10 -10l25 -473c0 -6 -4 -10 -10 -10h-113c-6 0 -10 4 -10 10l25 473c0 6 4 10 10 10h63zM185 474v-116c0 -6 -4 -10 -10 -10h-102c-6 0 -10 4 -10 10v116c0 6 4 10 10 10h102c6 0 10 -4 10 -10z" />
    <glyph glyph-name="questiondown" unicode="&#xbf;" horiz-adv-x="404" 
d="M266 297c6 0 10 -4 10 -10v-61c0 -27 -8 -49 -23 -75l-53 -92c-20 -33 -27 -54 -27 -96c0 -14 1 -25 4 -33c6 -18 18 -25 39 -25c20 0 32 8 38 26c3 8 4 18 4 58c0 8 5 11 11 10l100 -10c7 -1 10 -5 10 -12c0 -43 -3 -62 -9 -80c-21 -64 -78 -102 -157 -102
c-83 0 -135 41 -156 102c-6 19 -9 39 -9 66c0 46 10 79 33 119l54 94c12 21 18 36 18 56v55c0 6 4 10 10 10h103zM274 474v-116c0 -6 -4 -10 -10 -10h-102c-6 0 -10 4 -10 10v116c0 6 4 10 10 10h102c6 0 10 -4 10 -10z" />
    <glyph glyph-name="quoteleft" unicode="&#x2018;" horiz-adv-x="180" 
d="M132 477h-84c-6 0 -10 4 -10 10v84c0 10 2 17 8 24l74 80c4 4 7 6 12 6c6 0 10 -4 10 -10v-184c0 -6 -4 -10 -10 -10z" />
    <glyph glyph-name="quoteright" unicode="&#x2019;" horiz-adv-x="180" 
d="M47 476c-6 0 -9 4 -9 10v184c0 6 4 10 10 10h84c6 0 10 -4 10 -10v-84c0 -10 -2 -17 -9 -24l-74 -79c-3 -5 -7 -7 -12 -7z" />
    <glyph glyph-name="quotedblleft" unicode="&#x201c;" horiz-adv-x="320" 
d="M272 477h-84c-6 0 -10 4 -10 10v84c0 10 2 17 8 24l74 80c4 4 7 6 12 6c6 0 10 -4 10 -10v-184c0 -6 -4 -10 -10 -10zM132 477h-84c-6 0 -10 4 -10 10v84c0 10 2 17 8 24l74 80c4 4 7 6 12 6c6 0 10 -4 10 -10v-184c0 -6 -4 -10 -10 -10z" />
    <glyph glyph-name="quotedblright" unicode="&#x201d;" horiz-adv-x="320" 
d="M188 680h84c6 0 10 -4 10 -10v-84c0 -10 -2 -17 -8 -24l-74 -80c-4 -4 -7 -6 -12 -6c-6 0 -10 4 -10 10v184c0 6 4 10 10 10zM48 680h84c6 0 10 -4 10 -10v-84c0 -10 -2 -17 -8 -24l-74 -80c-4 -4 -7 -6 -12 -6c-6 0 -10 4 -10 10v184c0 6 4 10 10 10z" />
    <glyph glyph-name="quotesinglbase" unicode="&#x201a;" horiz-adv-x="180" 
d="M48 108h84c6 0 10 -4 10 -10v-84c0 -10 -2 -17 -8 -24l-74 -80c-4 -4 -7 -6 -12 -6c-6 0 -10 4 -10 10v184c0 6 4 10 10 10z" />
    <glyph glyph-name="quotedblbase" unicode="&#x201e;" horiz-adv-x="320" 
d="M188 108h84c6 0 10 -4 10 -10v-84c0 -10 -2 -17 -8 -24l-74 -80c-4 -4 -7 -6 -12 -6c-6 0 -10 4 -10 10v184c0 6 4 10 10 10zM48 108h84c6 0 10 -4 10 -10v-84c0 -10 -2 -17 -8 -24l-74 -80c-4 -4 -7 -6 -12 -6c-6 0 -10 4 -10 10v184c0 6 4 10 10 10z" />
    <glyph glyph-name="guilsinglleft" unicode="&#x2039;" horiz-adv-x="285" 
d="M219 68l-185 189c-4 4 -4 10 0 14l185 189c4 4 10 2 10 -4v-101c0 -7 -3 -12 -10 -19l-67 -68c-3 -3 -3 -5 0 -8l67 -68c7 -7 10 -12 10 -19v-101c0 -6 -6 -8 -10 -4z" />
    <glyph glyph-name="guilsinglright" unicode="&#x203a;" horiz-adv-x="285" 
d="M66 68c-4 -4 -10 -2 -10 4v101c0 7 3 12 10 19l67 68c3 3 3 5 0 8l-67 68c-7 7 -10 12 -10 19v101c0 6 6 8 10 4l185 -189c4 -4 4 -10 0 -14z" />
    <glyph glyph-name="guillemotleft" unicode="&#xab;" horiz-adv-x="491" 
d="M425 68l-185 189c-4 4 -4 10 0 14l185 189c4 4 10 2 10 -4v-101c0 -7 -3 -12 -10 -19l-67 -68c-3 -3 -3 -5 0 -8l67 -68c7 -7 10 -12 10 -19v-101c0 -6 -6 -8 -10 -4zM219 68l-185 189c-4 4 -4 10 0 14l185 189c4 4 10 2 10 -4v-101c0 -7 -3 -12 -10 -19l-67 -68
c-3 -3 -3 -5 0 -8l67 -68c7 -7 10 -12 10 -19v-101c0 -6 -6 -8 -10 -4z" />
    <glyph glyph-name="guillemotright" unicode="&#xbb;" horiz-adv-x="491" 
d="M457 257l-185 -189c-4 -4 -10 -2 -10 4v101c0 7 3 12 10 19l67 68c3 3 3 5 0 8l-67 68c-7 7 -10 12 -10 19v101c0 6 6 8 10 4l185 -189c4 -4 4 -10 0 -14zM251 257l-185 -189c-4 -4 -10 -2 -10 4v101c0 7 3 12 10 19l67 68c3 3 3 5 0 8l-67 68c-7 7 -10 12 -10 19v101
c0 6 6 8 10 4l185 -189c4 -4 4 -10 0 -14z" />
    <glyph glyph-name="endash" unicode="&#x2013;" horiz-adv-x="425" 
d="M401 216h-377c-6 0 -10 4 -10 10v79c0 6 4 10 10 10h377c6 0 10 -4 10 -10v-79c0 -6 -4 -10 -10 -10z" />
    <glyph glyph-name="emdash" unicode="&#x2014;" horiz-adv-x="616" 
d="M592 216h-568c-6 0 -10 4 -10 10v79c0 6 4 10 10 10h568c6 0 10 -4 10 -10v-79c0 -6 -4 -10 -10 -10z" />
    <glyph glyph-name="bullet" unicode="&#x2022;" horiz-adv-x="438" 
d="M219 168c-80 0 -140 60 -140 140s60 140 140 140s140 -60 140 -140s-60 -140 -140 -140z" />
    <glyph glyph-name="periodcentered" unicode="&#xb7;" horiz-adv-x="208" 
d="M155 197h-102c-6 0 -10 4 -10 10v116c0 6 4 10 10 10h102c6 0 10 -4 10 -10v-116c0 -6 -4 -10 -10 -10z" />
    <glyph glyph-name="uni2219" unicode="&#x2219;" horiz-adv-x="208" 
d="M155 197h-102c-6 0 -10 4 -10 10v116c0 6 4 10 10 10h102c6 0 10 -4 10 -10v-116c0 -6 -4 -10 -10 -10z" />
    <glyph glyph-name="dagger" unicode="&#x2020;" horiz-adv-x="518" 
d="M310 -180h-102c-6 0 -10 4 -10 10v511c0 4 -2 6 -6 6h-114c-6 0 -10 4 -10 10v92c0 6 4 10 10 10h114c4 0 6 2 6 6v205c0 6 4 10 10 10h102c6 0 10 -4 10 -10v-205c0 -4 2 -6 6 -6h114c6 0 10 -4 10 -10v-92c0 -6 -4 -10 -10 -10h-114c-4 0 -6 -2 -6 -6v-511
c0 -6 -4 -10 -10 -10z" />
    <glyph glyph-name="daggerdbl" unicode="&#x2021;" horiz-adv-x="518" 
d="M310 -180h-102c-6 0 -10 4 -10 10v178c0 4 -2 6 -6 6h-114c-6 0 -10 4 -10 10v92c0 6 4 10 10 10h114c4 0 6 2 6 6v236c0 4 -2 6 -6 6h-114c-6 0 -10 4 -10 10v92c0 6 4 10 10 10h114c4 0 6 2 6 6v178c0 6 4 10 10 10h102c6 0 10 -4 10 -10v-178c0 -4 2 -6 6 -6h114
c6 0 10 -4 10 -10v-92c0 -6 -4 -10 -10 -10h-114c-4 0 -6 -2 -6 -6v-236c0 -4 2 -6 6 -6h114c6 0 10 -4 10 -10v-92c0 -6 -4 -10 -10 -10h-114c-4 0 -6 -2 -6 -6v-178c0 -6 -4 -10 -10 -10z" />
    <glyph glyph-name="section" unicode="&#xa7;" horiz-adv-x="469" 
d="M233 -189c-79 0 -127 32 -145 88c-6 18 -9 36 -9 67c0 5 3 9 9 10l96 9c5 0 8 -4 8 -9c0 -28 2 -37 5 -45c5 -14 15 -23 35 -23c19 0 30 9 35 23c3 8 5 17 5 35c0 19 -1 32 -5 43c-8 24 -32 41 -83 59c-57 20 -90 48 -105 94c-8 23 -12 51 -12 90c0 32 3 55 9 75
c11 35 33 58 66 72v1c-24 11 -43 31 -53 62c-7 20 -10 42 -10 72c0 28 3 48 9 65c19 57 70 90 146 90c77 0 127 -31 144 -88c6 -18 8 -37 8 -66c0 -5 -2 -8 -8 -9l-95 -9c-6 0 -9 4 -9 9c0 27 -1 35 -4 43c-5 14 -16 23 -34 23s-28 -9 -33 -23c-3 -8 -4 -16 -4 -35
c0 -16 1 -29 5 -40c8 -24 29 -40 81 -58c57 -20 90 -48 105 -94c8 -23 12 -51 12 -90c0 -32 -3 -55 -9 -75c-11 -35 -33 -58 -67 -72v-1c25 -11 46 -31 56 -62c6 -20 9 -44 9 -73c0 -32 -3 -51 -9 -68c-19 -57 -70 -90 -149 -90zM234 161c24 0 37 10 44 31c3 11 5 25 5 60
s-2 49 -5 60c-7 21 -20 31 -44 31c-23 0 -36 -10 -43 -31c-3 -11 -5 -25 -5 -60s2 -49 5 -60c7 -21 20 -31 43 -31z" />
    <glyph glyph-name="paragraph" unicode="&#xb6;" horiz-adv-x="533" 
d="M468 -180h-79c-6 0 -10 4 -10 10v741c0 4 -2 6 -6 6h-47c-4 0 -6 -2 -6 -6v-741c0 -6 -4 -10 -10 -10h-79c-6 0 -10 4 -10 10v417c-100 7 -169 100 -169 217c0 118 77 216 203 216h213c6 0 10 -4 10 -10v-840c0 -6 -4 -10 -10 -10z" />
    <glyph glyph-name="brokenbar" unicode="&#xa6;" horiz-adv-x="275" 
d="M178 388h-81c-6 0 -10 4 -10 10v332c0 6 4 10 10 10h81c6 0 10 -4 10 -10v-332c0 -6 -4 -10 -10 -10zM178 -84h-81c-6 0 -10 4 -10 10v336c0 6 4 10 10 10h81c6 0 10 -4 10 -10v-336c0 -6 -4 -10 -10 -10z" />
    <glyph glyph-name="copyright" unicode="&#xa9;" horiz-adv-x="703" 
d="M352 -9c-146 0 -254 75 -296 204c-11 34 -19 79 -19 145s8 111 19 145c42 129 150 204 296 204s251 -76 295 -204c12 -34 19 -79 19 -145s-7 -111 -19 -145c-44 -128 -149 -204 -295 -204zM352 66c108 0 183 53 215 149c9 28 16 63 16 125s-7 97 -16 125
c-32 96 -107 149 -215 149s-184 -53 -215 -149c-9 -28 -17 -63 -17 -125s8 -97 17 -125c31 -96 107 -149 215 -149zM356 143c-62 0 -105 27 -123 81c-6 19 -9 43 -9 116s3 97 9 116c18 54 61 81 123 81c70 0 117 -39 124 -95c1 -6 -1 -10 -6 -11l-73 -13c-5 -1 -9 1 -10 6
c-5 21 -18 28 -34 28c-17 0 -27 -7 -32 -22c-3 -8 -4 -15 -4 -90s1 -82 4 -90c5 -15 15 -22 32 -22c16 0 29 7 34 28c1 5 5 7 10 6l73 -13c5 -1 7 -5 6 -11c-7 -56 -54 -95 -124 -95z" />
    <glyph glyph-name="registered" unicode="&#xae;" horiz-adv-x="426" 
d="M213 303c-79 0 -138 40 -161 111c-7 20 -11 43 -11 79c0 35 4 58 11 78c23 71 82 111 161 111c80 0 138 -40 161 -111c7 -20 12 -43 12 -78c0 -36 -5 -59 -12 -79c-23 -71 -81 -111 -161 -111zM213 343c60 0 103 31 121 83c5 15 8 35 8 67c0 31 -3 51 -8 66
c-18 53 -61 83 -121 83s-103 -30 -121 -83c-5 -15 -8 -35 -8 -66c0 -32 3 -52 8 -67c18 -52 61 -83 121 -83zM194 388h-32c-4 0 -7 2 -7 7v198c0 5 3 7 7 7h54c41 0 63 -19 63 -64c0 -27 -9 -43 -24 -54l29 -87c2 -5 -1 -7 -5 -7h-35c-4 0 -7 2 -8 7l-23 75h-9
c-2 0 -3 -1 -3 -4v-71c0 -5 -3 -7 -7 -7zM211 510c16 0 22 5 22 25s-6 24 -22 24h-6c-3 0 -4 -1 -4 -4v-41c0 -3 1 -4 4 -4h6z" />
    <glyph glyph-name="trademark" unicode="&#x2122;" horiz-adv-x="672" 
d="M607 286h-61c-6 0 -10 4 -10 10v191h-2l-34 -128c-2 -7 -6 -10 -12 -10h-33c-6 0 -10 3 -12 10l-35 128h-2v-191c0 -6 -4 -10 -10 -10h-61c-6 0 -10 4 -10 10v374c0 6 4 10 10 10h68c7 0 11 -4 13 -10l56 -203h2l53 203c2 6 6 10 13 10h67c6 0 10 -4 10 -10v-374
c0 -6 -4 -10 -10 -10zM200 286h-67c-6 0 -10 4 -10 10v298c0 4 -2 6 -6 6h-58c-6 0 -10 4 -10 10v60c0 6 4 10 10 10h215c6 0 10 -4 10 -10v-60c0 -6 -4 -10 -10 -10h-58c-4 0 -6 -2 -6 -6v-298c0 -6 -4 -10 -10 -10z" />
    <glyph glyph-name="currency" unicode="&#xa4;" 
d="M377 199l-46 -46c-4 -4 -10 -4 -14 0l-42 41c-20 -10 -43 -15 -67 -15c-25 0 -48 5 -68 15l-41 -41c-4 -4 -10 -4 -14 0l-47 46c-4 4 -4 10 0 14l42 42c-11 20 -16 43 -16 68c0 24 6 47 16 67l-42 42c-4 4 -4 10 0 14l47 46c4 4 10 4 14 0l41 -41c20 10 43 16 68 16
s49 -6 69 -16l41 41c4 4 10 4 14 0l47 -46c4 -4 4 -10 0 -14l-42 -42c10 -20 15 -43 15 -67c0 -25 -6 -49 -16 -69l41 -41c4 -4 4 -10 0 -14zM208 265c33 0 57 24 57 58s-24 58 -57 58s-56 -24 -56 -58s23 -58 56 -58z" />
    <glyph glyph-name="Euro" unicode="&#x20ac;" 
d="M229 -9c-83 0 -132 37 -153 103c-8 24 -12 49 -12 137c0 4 -2 6 -6 6h-34c-6 0 -10 4 -10 10v61c0 6 4 10 10 10h34c4 0 6 2 6 6v36c0 4 -2 6 -6 6h-34c-6 0 -10 4 -10 10v60c0 6 4 10 10 10h34c4 0 6 2 6 6c0 85 4 110 12 134c21 66 70 103 153 103
c102 0 159 -59 166 -147c1 -6 -2 -11 -8 -12l-99 -17c-6 -1 -11 2 -12 9c-4 37 -15 57 -45 57c-19 0 -31 -9 -37 -27c-4 -11 -5 -20 -5 -100c0 -4 2 -6 6 -6h128c6 0 10 -4 10 -10l-10 -60c-1 -7 -4 -10 -10 -10h-118c-4 0 -6 -2 -6 -6v-36c0 -4 2 -6 6 -6h113
c6 0 10 -4 10 -10l-10 -61c-1 -7 -4 -10 -10 -10h-103c-4 0 -6 -2 -6 -6c0 -83 1 -92 5 -103c6 -18 18 -27 37 -27c30 0 41 20 45 57c1 7 6 10 12 9l99 -17c6 -1 9 -6 8 -12c-7 -88 -64 -147 -166 -147z" />
    <glyph glyph-name="cent" unicode="&#xa2;" 
d="M377 121c-8 -73 -55 -120 -132 -128v-81c0 -6 -4 -10 -10 -10h-40c-6 0 -10 4 -10 10v81c-65 7 -107 41 -126 99c-9 29 -12 53 -12 150c0 98 3 121 12 150c19 58 61 91 126 99v81c0 6 4 10 10 10h40c6 0 10 -4 10 -10v-81c77 -9 124 -55 132 -128c1 -6 -1 -11 -7 -12
l-96 -18c-8 -1 -12 2 -12 8c-5 30 -18 42 -45 42c-23 0 -34 -8 -40 -25c-4 -11 -5 -20 -5 -116s1 -105 5 -116c6 -17 17 -25 40 -25c27 0 40 12 45 42c0 7 4 9 12 8l96 -18c6 -1 8 -6 7 -12z" />
    <glyph glyph-name="sterling" unicode="&#xa3;" 
d="M378 0h-330c-6 0 -10 4 -10 10v89c0 5 2 8 4 12c19 23 26 44 26 89v72c0 4 -2 6 -6 6h-28c-6 0 -10 4 -10 10v68c0 6 4 10 10 10h28c4 0 6 2 6 6v153c0 103 56 164 160 164c106 0 154 -63 160 -149c1 -6 -2 -11 -8 -12l-100 -16c-7 -1 -10 2 -11 8c-3 43 -13 59 -39 59
c-27 0 -37 -16 -37 -52v-155c0 -4 2 -6 6 -6h95c6 0 10 -4 10 -10v-68c0 -6 -4 -10 -10 -10h-95c-4 0 -6 -2 -6 -6v-72c0 -39 -6 -67 -24 -88v-2h209c6 0 10 -4 10 -10v-90c0 -6 -4 -10 -10 -10z" />
    <glyph glyph-name="florin" unicode="&#x192;" 
d="M352 317h-77l-45 -333c-15 -112 -67 -164 -180 -164h-24c-6 0 -10 4 -10 10v89c0 6 4 10 10 10h14c40 0 59 14 65 56l45 332h-62c-6 0 -10 4 -10 10v76c0 6 4 10 10 10h75l14 103c15 112 67 164 180 164h25c6 0 10 -4 10 -10v-89c0 -6 -4 -10 -10 -10h-15
c-40 0 -59 -14 -65 -56l-14 -102h64c6 0 10 -4 10 -10v-76c0 -6 -4 -10 -10 -10z" />
    <glyph glyph-name="yen" unicode="&#xa5;" 
d="M261 0h-105c-6 0 -10 4 -10 10v97c0 4 -2 6 -6 6h-85c-6 0 -10 4 -10 10v62c0 6 4 10 10 10h85c4 0 6 2 6 6v35c0 4 -2 6 -6 6h-85c-6 0 -10 4 -10 10v61c0 6 4 10 10 10h75v3l-111 344c-2 6 1 10 8 10h107c7 0 10 -3 12 -10l63 -249h3l61 249c2 7 5 10 12 10h105
c7 0 10 -4 8 -10l-111 -344v-3h75c6 0 10 -4 10 -10v-61c0 -6 -4 -10 -10 -10h-85c-4 0 -6 -2 -6 -6v-35c0 -4 2 -6 6 -6h85c6 0 10 -4 10 -10v-62c0 -6 -4 -10 -10 -10h-85c-4 0 -6 -2 -6 -6v-97c0 -6 -4 -10 -10 -10z" />
    <glyph glyph-name="ordfeminine" unicode="&#xaa;" horiz-adv-x="292" 
d="M243 392h-58c-6 0 -10 4 -10 10v17h-2c-9 -19 -31 -30 -58 -30c-43 0 -76 26 -76 85c0 70 46 97 101 97h29c4 0 6 2 6 6v5c0 26 -13 36 -42 36c-14 0 -33 -6 -51 -16c-6 -3 -12 -1 -14 5l-18 44c-2 6 0 10 6 13c20 13 55 24 90 24c72 0 107 -31 107 -103v-183
c0 -6 -4 -10 -10 -10zM143 451c18 0 32 11 32 32v26c0 4 -2 6 -6 6h-19c-24 0 -36 -12 -36 -33s11 -31 29 -31z" />
    <glyph glyph-name="ordmasculine" unicode="&#xba;" horiz-adv-x="300" 
d="M150 386c-52 0 -89 22 -104 67c-5 16 -7 33 -7 84s2 67 7 83c15 45 52 68 104 68s89 -23 104 -68c6 -16 8 -32 8 -83s-2 -68 -8 -84c-16 -46 -52 -67 -104 -67zM182 537c0 46 -1 53 -3 60c-4 13 -15 20 -29 20s-25 -7 -29 -20c-2 -7 -3 -14 -3 -60s1 -54 3 -61
c4 -13 15 -20 29 -20s25 7 29 20c2 7 3 15 3 61z" />
    <glyph glyph-name="onesuperior" unicode="&#xb9;" horiz-adv-x="297" 
d="M207 430h-75c-6 0 -10 4 -10 10v292h-2l-56 -32c-7 -4 -12 -1 -12 5v75c0 6 3 11 8 14l59 37c6 3 10 5 16 5h72c6 0 10 -4 10 -10v-386c0 -6 -4 -10 -10 -10z" />
    <glyph glyph-name="twosuperior" unicode="&#xb2;" horiz-adv-x="297" 
d="M267 724c0 -37 -10 -63 -31 -94l-80 -116v-1h99c6 0 10 -4 10 -10v-63c0 -6 -4 -10 -10 -10h-209c-6 0 -10 4 -10 10v59c0 7 1 11 5 16l112 156c14 20 18 31 18 52c0 12 -1 20 -3 26c-2 7 -9 14 -22 14s-19 -6 -22 -14c-2 -5 -3 -9 -3 -35c0 -8 -5 -11 -12 -10l-69 7
c-7 1 -10 5 -10 12c0 27 3 40 6 52c14 43 54 69 112 69c59 0 99 -26 113 -69c4 -12 6 -24 6 -51z" />
    <glyph glyph-name="threesuperior" unicode="&#xb3;" horiz-adv-x="297" 
d="M148 422c-59 0 -99 26 -113 69c-3 12 -5 24 -5 37c0 8 3 11 10 12l68 7c7 1 12 -2 12 -10c0 -12 1 -17 3 -21c3 -7 10 -13 22 -13c13 0 20 7 23 14c2 4 3 10 3 31s-1 28 -3 33c-4 12 -13 15 -26 15h-7c-6 0 -10 4 -10 10v64c0 6 4 10 10 10h9c12 0 21 4 25 15
c2 5 2 10 2 28c0 17 -1 23 -3 27c-3 7 -10 13 -23 13c-12 0 -19 -6 -22 -13c-2 -4 -3 -9 -3 -21c0 -8 -5 -11 -12 -10l-68 7c-7 1 -10 4 -10 12c0 13 2 25 5 37c14 43 54 69 113 69c58 0 99 -26 113 -69c3 -12 5 -24 5 -48c0 -25 -1 -34 -4 -44c-6 -20 -19 -32 -38 -41v-1
c19 -10 31 -24 37 -42c4 -11 5 -23 5 -52c0 -31 -2 -44 -5 -56c-14 -43 -55 -69 -113 -69z" />
    <glyph glyph-name="fraction" unicode="&#x2044;" horiz-adv-x="146" 
d="M-23 -9h-67c-6 0 -9 4 -7 10l253 678c3 7 7 10 13 10h67c6 0 9 -4 7 -10l-253 -678c-3 -7 -7 -10 -13 -10z" />
    <glyph glyph-name="uni2215" unicode="&#x2215;" horiz-adv-x="151" 
d="M-21 -9h-67c-6 0 -9 4 -7 10l253 678c3 7 7 10 13 10h67c6 0 9 -4 7 -10l-253 -678c-3 -7 -7 -10 -13 -10z" />
    <glyph glyph-name="onehalf" unicode="&#xbd;" horiz-adv-x="785" 
d="M229 274h-75c-6 0 -10 4 -10 10v292h-2l-56 -32c-7 -4 -12 -1 -12 5v75c0 6 3 11 8 14l59 37c6 3 10 5 16 5h72c6 0 10 -4 10 -10v-386c0 -6 -4 -10 -10 -10zM710 294c0 -37 -10 -63 -31 -94l-80 -116v-1h99c6 0 10 -4 10 -10v-63c0 -6 -4 -10 -10 -10h-209
c-6 0 -10 4 -10 10v59c0 7 1 11 5 16l112 156c14 20 18 31 18 52c0 12 -1 20 -3 26c-2 7 -9 14 -22 14s-19 -6 -22 -14c-2 -5 -3 -9 -3 -35c0 -8 -5 -11 -12 -10l-69 7c-7 1 -10 5 -10 12c0 27 3 40 6 52c14 43 54 69 112 69c59 0 99 -26 113 -69c4 -12 6 -24 6 -51zM273 -9
h-67c-6 0 -9 4 -7 10l253 678c3 7 7 10 13 10h67c6 0 9 -4 7 -10l-253 -678c-3 -7 -7 -10 -13 -10z" />
    <glyph glyph-name="onethird" unicode="&#x2153;" horiz-adv-x="785" 
d="M229 274h-75c-6 0 -10 4 -10 10v292h-2l-56 -32c-7 -4 -12 -1 -12 5v75c0 6 3 11 8 14l59 37c6 3 10 5 16 5h72c6 0 10 -4 10 -10v-386c0 -6 -4 -10 -10 -10zM273 -9h-67c-6 0 -9 4 -7 10l253 678c3 7 7 10 13 10h67c6 0 9 -4 7 -10l-253 -678c-3 -7 -7 -10 -13 -10z
M592 -8c-59 0 -99 26 -113 69c-3 12 -5 24 -5 37c0 8 3 11 10 12l68 7c7 1 12 -2 12 -10c0 -12 1 -17 3 -21c3 -7 10 -13 22 -13c13 0 20 7 23 14c2 4 3 10 3 31s-1 28 -3 33c-4 12 -13 15 -26 15h-7c-6 0 -10 4 -10 10v64c0 6 4 10 10 10h9c12 0 21 4 25 15c2 5 2 10 2 28
c0 17 -1 23 -3 27c-3 7 -10 13 -23 13c-12 0 -19 -6 -22 -13c-2 -4 -3 -9 -3 -21c0 -8 -5 -11 -12 -10l-68 7c-7 1 -10 4 -10 12c0 13 2 25 5 37c14 43 54 69 113 69c58 0 99 -26 113 -69c3 -12 5 -24 5 -48c0 -25 -1 -34 -4 -44c-6 -20 -19 -32 -38 -41v-1
c19 -10 31 -24 37 -42c4 -11 5 -23 5 -52c0 -31 -2 -44 -5 -56c-14 -43 -55 -69 -113 -69z" />
    <glyph glyph-name="onequarter" unicode="&#xbc;" horiz-adv-x="766" 
d="M229 274h-75c-6 0 -10 4 -10 10v292h-2l-56 -32c-7 -4 -12 -1 -12 5v75c0 6 3 11 8 14l59 37c6 3 10 5 16 5h72c6 0 10 -4 10 -10v-386c0 -6 -4 -10 -10 -10zM654 0h-68c-6 0 -10 4 -10 10v37c0 4 -2 6 -6 6h-130c-6 0 -10 4 -10 10v64c0 7 1 11 3 16l85 253
c2 6 6 10 12 10h77c6 0 9 -4 7 -10l-87 -258v-3h43c4 0 6 2 6 6v80c0 6 4 10 10 10h68c6 0 10 -4 10 -10v-80c0 -4 1 -6 5 -6h11c6 0 10 -4 10 -10v-62c0 -6 -4 -10 -10 -10h-10c-4 0 -6 -2 -6 -6v-37c0 -6 -4 -10 -10 -10zM273 -9h-67c-6 0 -9 4 -7 10l253 678
c3 7 7 10 13 10h67c6 0 9 -4 7 -10l-253 -678c-3 -7 -7 -10 -13 -10z" />
    <glyph glyph-name="oneeighth" unicode="&#x215b;" horiz-adv-x="790" 
d="M229 274h-75c-6 0 -10 4 -10 10v292h-2l-56 -32c-7 -4 -12 -1 -12 5v75c0 6 3 11 8 14l59 37c6 3 10 5 16 5h72c6 0 10 -4 10 -10v-386c0 -6 -4 -10 -10 -10zM594 -8c-58 0 -100 27 -114 70c-4 12 -6 25 -6 57c0 25 2 38 5 48c6 19 17 34 33 44v2c-16 11 -28 26 -34 44
c-3 10 -4 22 -4 37c0 25 2 38 6 50c14 43 56 70 114 70c59 0 101 -27 115 -70c4 -12 6 -25 6 -50c0 -15 -1 -27 -4 -37c-6 -18 -18 -33 -34 -44v-2c16 -10 27 -25 33 -44c3 -10 5 -23 5 -48c0 -32 -2 -45 -6 -57c-14 -43 -56 -70 -115 -70zM620 292c0 16 -1 22 -3 27
c-3 7 -10 14 -23 14s-19 -7 -22 -14c-2 -5 -3 -11 -3 -27s1 -23 3 -28c3 -7 9 -14 22 -14s20 7 23 14c2 5 3 12 3 28zM620 121c0 24 -1 29 -3 34c-3 7 -10 14 -23 14s-19 -7 -22 -14c-2 -5 -3 -10 -3 -34s1 -29 3 -34c3 -7 9 -14 22 -14s20 7 23 14c2 5 3 10 3 34zM273 -9
h-67c-6 0 -9 4 -7 10l253 678c3 7 7 10 13 10h67c6 0 9 -4 7 -10l-253 -678c-3 -7 -7 -10 -13 -10z" />
    <glyph glyph-name="twothirds" unicode="&#x2154;" horiz-adv-x="849" 
d="M311 568c0 -37 -10 -63 -31 -94l-80 -116v-1h99c6 0 10 -4 10 -10v-63c0 -6 -4 -10 -10 -10h-209c-6 0 -10 4 -10 10v59c0 7 1 11 5 16l112 156c14 20 18 31 18 52c0 12 -1 20 -3 26c-2 7 -9 14 -22 14s-19 -6 -22 -14c-2 -5 -3 -9 -3 -35c0 -8 -5 -11 -12 -10l-69 7
c-7 1 -10 5 -10 12c0 27 3 40 6 52c14 43 54 69 112 69c59 0 99 -26 113 -69c4 -12 6 -24 6 -51zM336 -9h-67c-6 0 -9 4 -7 10l253 678c3 7 7 10 13 10h67c6 0 9 -4 7 -10l-253 -678c-3 -7 -7 -10 -13 -10zM655 -8c-59 0 -99 26 -113 69c-3 12 -5 24 -5 37c0 8 3 11 10 12
l68 7c7 1 12 -2 12 -10c0 -12 1 -17 3 -21c3 -7 10 -13 22 -13c13 0 20 7 23 14c2 4 3 10 3 31s-1 28 -3 33c-4 12 -13 15 -26 15h-7c-6 0 -10 4 -10 10v64c0 6 4 10 10 10h9c12 0 21 4 25 15c2 5 2 10 2 28c0 17 -1 23 -3 27c-3 7 -10 13 -23 13c-12 0 -19 -6 -22 -13
c-2 -4 -3 -9 -3 -21c0 -8 -5 -11 -12 -10l-68 7c-7 1 -10 4 -10 12c0 13 2 25 5 37c14 43 54 69 113 69c58 0 99 -26 113 -69c3 -12 5 -24 5 -48c0 -25 -1 -34 -4 -44c-6 -20 -19 -32 -38 -41v-1c19 -10 31 -24 37 -42c4 -11 5 -23 5 -52c0 -31 -2 -44 -5 -56
c-14 -43 -55 -69 -113 -69z" />
    <glyph glyph-name="threequarters" unicode="&#xbe;" horiz-adv-x="812" 
d="M700 0h-68c-6 0 -10 4 -10 10v37c0 4 -2 6 -6 6h-130c-6 0 -10 4 -10 10v64c0 7 1 11 3 16l85 253c2 6 6 10 12 10h77c6 0 9 -4 7 -10l-87 -258v-3h43c4 0 6 2 6 6v80c0 6 4 10 10 10h68c6 0 10 -4 10 -10v-80c0 -4 1 -6 5 -6h11c6 0 10 -4 10 -10v-62
c0 -6 -4 -10 -10 -10h-10c-4 0 -6 -2 -6 -6v-37c0 -6 -4 -10 -10 -10zM320 -9h-67c-6 0 -9 4 -7 10l253 678c3 7 7 10 13 10h67c6 0 9 -4 7 -10l-253 -678c-3 -7 -7 -10 -13 -10zM193 266c-59 0 -99 26 -113 69c-3 12 -5 24 -5 37c0 8 3 11 10 12l68 7c7 1 12 -2 12 -10
c0 -12 1 -17 3 -21c3 -7 10 -13 22 -13c13 0 20 7 23 14c2 4 3 10 3 31s-1 28 -3 33c-4 12 -13 15 -26 15h-7c-6 0 -10 4 -10 10v64c0 6 4 10 10 10h9c12 0 21 4 25 15c2 5 2 10 2 28c0 17 -1 23 -3 27c-3 7 -10 13 -23 13c-12 0 -19 -6 -22 -13c-2 -4 -3 -9 -3 -21
c0 -8 -5 -11 -12 -10l-68 7c-7 1 -10 4 -10 12c0 13 2 25 5 37c14 43 54 69 113 69c58 0 99 -26 113 -69c3 -12 5 -24 5 -48c0 -25 -1 -34 -4 -44c-6 -20 -19 -32 -38 -41v-1c19 -10 31 -24 37 -42c4 -11 5 -23 5 -52c0 -31 -2 -44 -5 -56c-14 -43 -55 -69 -113 -69z" />
    <glyph glyph-name="threeeighths" unicode="&#x215c;" horiz-adv-x="837" 
d="M640 -8c-58 0 -100 27 -114 70c-4 12 -6 25 -6 57c0 25 2 38 5 48c6 19 17 34 33 44v2c-16 11 -28 26 -34 44c-3 10 -4 22 -4 37c0 25 2 38 6 50c14 43 56 70 114 70c59 0 101 -27 115 -70c4 -12 6 -25 6 -50c0 -15 -1 -27 -4 -37c-6 -18 -18 -33 -34 -44v-2
c16 -10 27 -25 33 -44c3 -10 5 -23 5 -48c0 -32 -2 -45 -6 -57c-14 -43 -56 -70 -115 -70zM666 292c0 16 -1 22 -3 27c-3 7 -10 14 -23 14s-19 -7 -22 -14c-2 -5 -3 -11 -3 -27s1 -23 3 -28c3 -7 9 -14 22 -14s20 7 23 14c2 5 3 12 3 28zM666 121c0 24 -1 29 -3 34
c-3 7 -10 14 -23 14s-19 -7 -22 -14c-2 -5 -3 -10 -3 -34s1 -29 3 -34c3 -7 9 -14 22 -14s20 7 23 14c2 5 3 10 3 34zM320 -9h-67c-6 0 -9 4 -7 10l253 678c3 7 7 10 13 10h67c6 0 9 -4 7 -10l-253 -678c-3 -7 -7 -10 -13 -10zM193 266c-59 0 -99 26 -113 69
c-3 12 -5 24 -5 37c0 8 3 11 10 12l68 7c7 1 12 -2 12 -10c0 -12 1 -17 3 -21c3 -7 10 -13 22 -13c13 0 20 7 23 14c2 4 3 10 3 31s-1 28 -3 33c-4 12 -13 15 -26 15h-7c-6 0 -10 4 -10 10v64c0 6 4 10 10 10h9c12 0 21 4 25 15c2 5 2 10 2 28c0 17 -1 23 -3 27
c-3 7 -10 13 -23 13c-12 0 -19 -6 -22 -13c-2 -4 -3 -9 -3 -21c0 -8 -5 -11 -12 -10l-68 7c-7 1 -10 4 -10 12c0 13 2 25 5 37c14 43 54 69 113 69c58 0 99 -26 113 -69c3 -12 5 -24 5 -48c0 -25 -1 -34 -4 -44c-6 -20 -19 -32 -38 -41v-1c19 -10 31 -24 37 -42
c4 -11 5 -23 5 -52c0 -31 -2 -44 -5 -56c-14 -43 -55 -69 -113 -69z" />
    <glyph glyph-name="fiveeighths" unicode="&#x215d;" horiz-adv-x="837" 
d="M640 -8c-58 0 -100 27 -114 70c-4 12 -6 25 -6 57c0 25 2 38 5 48c6 19 17 34 33 44v2c-16 11 -28 26 -34 44c-3 10 -4 22 -4 37c0 25 2 38 6 50c14 43 56 70 114 70c59 0 101 -27 115 -70c4 -12 6 -25 6 -50c0 -15 -1 -27 -4 -37c-6 -18 -18 -33 -34 -44v-2
c16 -10 27 -25 33 -44c3 -10 5 -23 5 -48c0 -32 -2 -45 -6 -57c-14 -43 -56 -70 -115 -70zM666 292c0 16 -1 22 -3 27c-3 7 -10 14 -23 14s-19 -7 -22 -14c-2 -5 -3 -11 -3 -27s1 -23 3 -28c3 -7 9 -14 22 -14s20 7 23 14c2 5 3 12 3 28zM666 121c0 24 -1 29 -3 34
c-3 7 -10 14 -23 14s-19 -7 -22 -14c-2 -5 -3 -10 -3 -34s1 -29 3 -34c3 -7 9 -14 22 -14s20 7 23 14c2 5 3 10 3 34zM319 -9h-67c-6 0 -9 4 -7 10l253 678c3 7 7 10 13 10h67c6 0 9 -4 7 -10l-253 -678c-3 -7 -7 -10 -13 -10zM192 266c-58 0 -99 26 -113 69
c-3 12 -5 24 -5 30c0 8 3 11 10 12l69 7c7 1 12 -1 12 -10c0 -4 0 -8 2 -13c3 -8 10 -14 23 -14s19 6 22 14c2 5 3 10 3 44s-1 40 -3 45c-2 7 -9 13 -22 13c-11 0 -18 -5 -23 -14c-4 -7 -8 -9 -14 -9h-64c-6 0 -10 4 -10 10v220c0 6 4 10 10 10h208c6 0 10 -4 10 -10v-63
c0 -6 -4 -10 -10 -10h-126c-4 0 -6 -2 -6 -6v-62h1c10 7 26 12 48 12c47 0 78 -18 91 -59c5 -14 6 -32 6 -77c0 -44 -2 -57 -6 -70c-14 -44 -54 -69 -113 -69z" />
    <glyph glyph-name="seveneighths" unicode="&#x215e;" horiz-adv-x="793" 
d="M597 -8c-58 0 -100 27 -114 70c-4 12 -6 25 -6 57c0 25 2 38 5 48c6 19 17 34 33 44v2c-16 11 -28 26 -34 44c-3 10 -4 22 -4 37c0 25 2 38 6 50c14 43 56 70 114 70c59 0 101 -27 115 -70c4 -12 6 -25 6 -50c0 -15 -1 -27 -4 -37c-6 -18 -18 -33 -34 -44v-2
c16 -10 27 -25 33 -44c3 -10 5 -23 5 -48c0 -32 -2 -45 -6 -57c-14 -43 -56 -70 -115 -70zM623 292c0 16 -1 22 -3 27c-3 7 -10 14 -23 14s-19 -7 -22 -14c-2 -5 -3 -11 -3 -27s1 -23 3 -28c3 -7 9 -14 22 -14s20 7 23 14c2 5 3 12 3 28zM623 121c0 24 -1 29 -3 34
c-3 7 -10 14 -23 14s-19 -7 -22 -14c-2 -5 -3 -10 -3 -34s1 -29 3 -34c3 -7 9 -14 22 -14s20 7 23 14c2 5 3 10 3 34zM192 274h-76c-6 0 -10 4 -8 10l103 312v2h-43c-4 0 -6 -2 -6 -6v-30c0 -6 -4 -10 -10 -10h-68c-6 0 -10 4 -10 10v108c0 6 4 10 10 10h215
c6 0 10 -4 10 -10v-59c0 -7 -1 -13 -3 -19l-101 -308c-2 -6 -6 -10 -13 -10zM276 -9h-67c-6 0 -9 4 -7 10l253 678c3 7 7 10 13 10h67c6 0 9 -4 7 -10l-253 -678c-3 -7 -7 -10 -13 -10z" />
    <glyph glyph-name="perthousand" unicode="&#x2030;" horiz-adv-x="978" 
d="M257 -9h-67c-6 0 -9 4 -7 10l253 678c3 7 7 10 14 10h67c6 0 9 -4 7 -10l-254 -678c-2 -7 -7 -10 -13 -10zM169 329c-54 0 -89 25 -102 66c-7 20 -9 35 -9 113c0 77 2 92 9 112c13 41 48 67 102 67c55 0 90 -26 103 -67c7 -20 8 -35 8 -112c0 -78 -1 -93 -8 -113
c-13 -41 -48 -66 -103 -66zM169 402c12 0 19 5 22 14c2 6 3 14 3 92c0 77 -1 85 -3 91c-3 9 -10 15 -22 15s-19 -6 -22 -15c-2 -6 -3 -14 -3 -91c0 -78 1 -86 3 -92c3 -9 10 -14 22 -14zM809 -7h-8c-11 1 -20 2 -29 5c-2 0 -5 1 -7 2c-2 0 -4 1 -6 2c-3 1 -6 2 -9 4l-5 3
l-3 2l-9 7c-3 2 -5 4 -7 7l-4 5l-3 4c-2 3 -3 6 -5 8c-3 6 -5 12 -7 18c-5 12 -7 23 -8 48v20v44v44c0 20 1 33 2 43v4l2 8c1 5 2 9 4 14c3 9 7 17 12 25l3 5c1 1 2 1 2 2l4 5c5 5 11 9 17 13l11 6c6 2 12 5 19 6l14 3c6 1 13 1 20 1h8c2 0 5 -1 8 -1c9 -1 17 -2 25 -5
c2 0 4 -1 6 -2l6 -2l3 -2l6 -3c10 -5 18 -13 25 -21l4 -5c3 -4 5 -9 7 -13l3 -6l2 -6l4 -14l2 -12v-4c1 -5 1 -11 1 -18c0 -6 1 -13 1 -21v-44v-44c0 -17 -1 -29 -2 -38v-4l-3 -17l-3 -9c-2 -6 -5 -12 -8 -18l-4 -8l-4 -4c-1 -2 -2 -4 -4 -5l-6 -7c-1 0 -2 -1 -3 -2
c-4 -4 -10 -7 -15 -10c-6 -3 -12 -6 -18 -7c-1 -1 -3 -1 -4 -1l-7 -2c-3 0 -7 -1 -11 -2c-6 -1 -12 -1 -19 -1zM537 -7c-54 0 -89 26 -102 67c-7 20 -9 35 -9 112c0 78 2 93 9 113c13 41 48 66 102 66c55 0 90 -25 103 -66c7 -20 8 -35 8 -113c0 -77 -1 -92 -8 -112
c-13 -41 -48 -67 -103 -67zM809 66h4c5 0 9 2 12 5l3 3c1 1 1 2 1 2l2 4v1v1c1 1 1 3 1 5c0 1 1 3 1 5v8c1 12 1 33 1 72s0 60 -1 73v8c-1 6 -2 8 -2 11c-2 6 -6 10 -12 12c-1 1 -2 1 -3 1c-2 1 -5 1 -7 1h-4c-4 -1 -7 -2 -10 -4c-2 -1 -3 -2 -4 -4c-2 -2 -3 -4 -3 -6
c-1 -1 -1 -2 -1 -3c-1 -2 -1 -4 -1 -8c0 -3 -1 -6 -1 -10v-71c0 -58 0 -77 1 -85c0 -1 1 -2 1 -3v-2c0 -1 1 -1 1 -1c0 -3 2 -6 3 -8c3 -3 6 -5 10 -6c1 -1 3 -1 4 -1h4zM537 66c12 0 19 6 22 15c2 6 3 14 3 91c0 78 -1 86 -3 92c-3 9 -10 14 -22 14s-19 -5 -22 -14
c-2 -6 -3 -14 -3 -92c0 -77 1 -85 3 -91c3 -9 10 -15 22 -15z" />
    <glyph glyph-name="minus" unicode="&#x2212;" 
d="M373 224h-330c-6 0 -10 4 -10 10v84c0 6 4 10 10 10h330c6 0 10 -4 10 -10v-84c0 -6 -4 -10 -10 -10z" />
    <glyph glyph-name="plusminus" unicode="&#xb1;" 
d="M252 150h-88c-6 0 -10 4 -10 10v108c0 4 -2 6 -6 6h-105c-6 0 -10 4 -10 10v84c0 6 4 10 10 10h105c4 0 6 2 6 6v108c0 6 4 10 10 10h88c6 0 10 -4 10 -10v-108c0 -4 2 -6 6 -6h105c6 0 10 -4 10 -10v-84c0 -6 -4 -10 -10 -10h-105c-4 0 -6 -2 -6 -6v-108
c0 -6 -4 -10 -10 -10zM373 0h-330c-6 0 -10 4 -10 10v84c0 6 4 10 10 10h330c6 0 10 -4 10 -10v-84c0 -6 -4 -10 -10 -10z" />
    <glyph glyph-name="multiply" unicode="&#xd7;" 
d="M363 176l-56 -56c-4 -4 -10 -4 -14 0l-81 82c-3 2 -5 2 -8 0l-82 -82c-4 -4 -10 -4 -14 0l-56 56c-4 4 -4 10 0 14l82 82c2 3 2 5 0 8l-82 82c-4 4 -4 10 0 14l56 56c4 4 10 4 14 0l82 -82c3 -2 5 -2 8 0l81 82c4 4 10 4 14 0l56 -56c5 -4 5 -10 0 -14l-81 -82
c-2 -3 -2 -5 0 -8l81 -82c5 -4 5 -10 0 -14z" />
    <glyph glyph-name="divide" unicode="&#xf7;" 
d="M208 383c-39 0 -68 30 -68 69s29 69 68 69c40 0 69 -30 69 -69s-29 -69 -69 -69zM373 224h-330c-6 0 -10 4 -10 10v84c0 6 4 10 10 10h330c6 0 10 -4 10 -10v-84c0 -6 -4 -10 -10 -10zM208 31c-39 0 -68 30 -68 69s29 69 68 69c40 0 69 -30 69 -69s-29 -69 -69 -69z" />
    <glyph glyph-name="notequal" unicode="&#x2260;" 
d="M373 320h-103l-42 -88h145c6 0 10 -4 10 -10v-84c0 -6 -4 -10 -10 -10h-194l-37 -77c-4 -7 -8 -10 -14 -10h-63c-7 0 -10 4 -7 10l37 77h-52c-6 0 -10 4 -10 10v84c0 6 4 10 10 10h102l42 88h-144c-6 0 -10 4 -10 10v84c0 6 4 10 10 10h194l37 77c3 7 7 10 13 10h63
c7 0 10 -4 7 -10l-37 -77h53c6 0 10 -4 10 -10v-84c0 -6 -4 -10 -10 -10z" />
    <glyph glyph-name="approxequal" unicode="&#x2248;" horiz-adv-x="430" 
d="M281 300c-31 0 -52 13 -72 24c-16 11 -31 21 -48 21c-20 0 -30 -8 -48 -40c-3 -5 -8 -6 -14 -3l-59 31c-6 3 -8 8 -4 14c31 62 64 91 114 91c31 0 52 -12 71 -24c16 -10 32 -20 48 -20c20 0 31 8 49 39c2 5 8 7 13 4l59 -31c6 -3 8 -8 4 -15c-31 -61 -63 -91 -113 -91z
M281 115c-31 0 -52 13 -72 24c-16 10 -31 20 -48 20c-20 0 -30 -8 -48 -39c-3 -5 -8 -6 -14 -3l-59 31c-6 3 -8 8 -4 14c31 62 64 91 114 91c31 0 52 -12 71 -24c16 -10 32 -20 48 -20c20 0 31 8 49 39c2 5 8 6 13 3l59 -30c6 -3 8 -8 4 -15c-31 -61 -63 -91 -113 -91z" />
    <glyph glyph-name="lessequal" unicode="&#x2264;" 
d="M373 139l-330 132c-6 2 -10 7 -10 14v75c0 7 4 12 10 14l330 132c6 2 10 -1 10 -7v-91c0 -6 -3 -10 -10 -13l-190 -72v-2l190 -71c7 -3 10 -7 10 -13v-91c0 -6 -4 -9 -10 -7zM373 0h-330c-6 0 -10 4 -10 10v84c0 6 4 10 10 10h330c6 0 10 -4 10 -10v-84
c0 -6 -4 -10 -10 -10z" />
    <glyph glyph-name="greaterequal" unicode="&#x2265;" 
d="M43 139c-6 -2 -10 1 -10 7v91c0 6 3 10 10 13l190 71v2l-190 72c-7 3 -10 7 -10 13v91c0 6 4 9 10 7l330 -132c6 -2 10 -7 10 -14v-75c0 -7 -4 -12 -10 -14zM373 0h-330c-6 0 -10 4 -10 10v84c0 6 4 10 10 10h330c6 0 10 -4 10 -10v-84c0 -6 -4 -10 -10 -10z" />
    <glyph glyph-name="logicalnot" unicode="&#xac;" 
d="M373 130h-88c-6 0 -10 4 -10 10v78c0 4 -2 6 -6 6h-226c-6 0 -10 4 -10 10v84c0 6 4 10 10 10h330c6 0 10 -4 10 -10v-178c0 -6 -4 -10 -10 -10z" />
    <glyph glyph-name="Delta" unicode="&#x394;" horiz-adv-x="452" 
d="M435 0h-418c-6 0 -9 4 -8 10l148 660c2 6 5 10 11 10h118c6 0 10 -4 11 -10l146 -660c1 -6 -2 -10 -8 -10zM287 118c4 0 6 2 5 6l-63 349h-3l-66 -349c-1 -4 1 -6 5 -6h122z" />
    <glyph glyph-name="Delta" unicode="&#x2206;" horiz-adv-x="452" 
d="M435 0h-418c-6 0 -9 4 -8 10l148 660c2 6 5 10 11 10h118c6 0 10 -4 11 -10l146 -660c1 -6 -2 -10 -8 -10zM287 118c4 0 6 2 5 6l-63 349h-3l-66 -349c-1 -4 1 -6 5 -6h122z" />
    <glyph glyph-name="uni0394" horiz-adv-x="452" 
d="M435 0h-418c-6 0 -9 4 -8 10l148 660c2 6 5 10 11 10h118c6 0 10 -4 11 -10l146 -660c1 -6 -2 -10 -8 -10zM287 118c4 0 6 2 5 6l-63 349h-3l-66 -349c-1 -4 1 -6 5 -6h122z" />
    <glyph glyph-name="Omega" unicode="&#x3a9;" horiz-adv-x="450" 
d="M411 0h-152c-6 0 -10 4 -10 10v89c0 7 3 11 9 16c21 18 23 33 23 236c0 162 -1 170 -6 186c-7 20 -25 34 -50 34s-43 -14 -50 -34c-5 -16 -6 -24 -6 -186c0 -203 2 -218 23 -236c6 -5 9 -9 9 -16v-89c0 -6 -4 -10 -10 -10h-152c-6 0 -10 4 -10 10v95c0 6 4 10 10 10h39v2
c-31 28 -43 55 -43 232c0 166 3 192 14 224c24 74 85 116 176 116s152 -42 176 -116c11 -32 14 -58 14 -224c0 -177 -12 -204 -43 -232v-2h39c6 0 10 -4 10 -10v-95c0 -6 -4 -10 -10 -10z" />
    <glyph glyph-name="Omega" unicode="&#x2126;" horiz-adv-x="450" 
d="M411 0h-152c-6 0 -10 4 -10 10v89c0 7 3 11 9 16c21 18 23 33 23 236c0 162 -1 170 -6 186c-7 20 -25 34 -50 34s-43 -14 -50 -34c-5 -16 -6 -24 -6 -186c0 -203 2 -218 23 -236c6 -5 9 -9 9 -16v-89c0 -6 -4 -10 -10 -10h-152c-6 0 -10 4 -10 10v95c0 6 4 10 10 10h39v2
c-31 28 -43 55 -43 232c0 166 3 192 14 224c24 74 85 116 176 116s152 -42 176 -116c11 -32 14 -58 14 -224c0 -177 -12 -204 -43 -232v-2h39c6 0 10 -4 10 -10v-95c0 -6 -4 -10 -10 -10z" />
    <glyph glyph-name="uni03A9" horiz-adv-x="450" 
d="M411 0h-152c-6 0 -10 4 -10 10v89c0 7 3 11 9 16c21 18 23 33 23 236c0 162 -1 170 -6 186c-7 20 -25 34 -50 34s-43 -14 -50 -34c-5 -16 -6 -24 -6 -186c0 -203 2 -218 23 -236c6 -5 9 -9 9 -16v-89c0 -6 -4 -10 -10 -10h-152c-6 0 -10 4 -10 10v95c0 6 4 10 10 10h39v2
c-31 28 -43 55 -43 232c0 166 3 192 14 224c24 74 85 116 176 116s152 -42 176 -116c11 -32 14 -58 14 -224c0 -177 -12 -204 -43 -232v-2h39c6 0 10 -4 10 -10v-95c0 -6 -4 -10 -10 -10z" />
    <glyph glyph-name="mu" unicode="&#xb5;" horiz-adv-x="421" 
d="M367 0h-105c-6 0 -10 4 -10 10v37h-1c-11 -32 -33 -53 -64 -53c-8 0 -16 2 -18 3v-167c0 -6 -4 -10 -10 -10h-105c-6 0 -10 4 -10 10v644c0 6 4 10 10 10h105c6 0 10 -4 10 -10v-314c0 -40 12 -58 41 -58c28 0 42 18 42 58v314c0 6 4 10 10 10h105c6 0 10 -4 10 -10v-464
c0 -6 -4 -10 -10 -10z" />
    <glyph glyph-name="mu" unicode="&#x3bc;" horiz-adv-x="421" 
d="M367 0h-105c-6 0 -10 4 -10 10v37h-1c-11 -32 -33 -53 -64 -53c-8 0 -16 2 -18 3v-167c0 -6 -4 -10 -10 -10h-105c-6 0 -10 4 -10 10v644c0 6 4 10 10 10h105c6 0 10 -4 10 -10v-314c0 -40 12 -58 41 -58c28 0 42 18 42 58v314c0 6 4 10 10 10h105c6 0 10 -4 10 -10v-464
c0 -6 -4 -10 -10 -10z" />
    <glyph glyph-name="uni03BC" horiz-adv-x="421" 
d="M367 0h-105c-6 0 -10 4 -10 10v37h-1c-11 -32 -33 -53 -64 -53c-8 0 -16 2 -18 3v-167c0 -6 -4 -10 -10 -10h-105c-6 0 -10 4 -10 10v644c0 6 4 10 10 10h105c6 0 10 -4 10 -10v-314c0 -40 12 -58 41 -58c28 0 42 18 42 58v314c0 6 4 10 10 10h105c6 0 10 -4 10 -10v-464
c0 -6 -4 -10 -10 -10z" />
    <glyph glyph-name="pi" unicode="&#x3c0;" horiz-adv-x="460" 
d="M421 -6h-18c-96 0 -136 40 -136 144v229c0 4 -2 6 -6 6h-61c-4 0 -6 -2 -6 -6v-357c0 -6 -4 -10 -10 -10h-105c-6 0 -10 4 -10 10v357c0 4 -2 6 -6 6h-36c-6 0 -10 4 -10 10v91c0 6 4 10 10 10h404c6 0 10 -4 10 -10v-91c0 -6 -4 -10 -10 -10h-35c-4 0 -6 -2 -6 -6v-229
c0 -27 7 -34 27 -34h4c6 0 10 -4 10 -10v-90c0 -6 -4 -10 -10 -10z" />
    <glyph glyph-name="degree" unicode="&#xb0;" horiz-adv-x="342" 
d="M171 432c-73 0 -127 54 -127 126c0 73 54 127 127 127s127 -54 127 -127c0 -72 -54 -126 -127 -126zM171 500c33 0 56 25 56 58c0 34 -23 59 -56 59s-56 -25 -56 -59c0 -33 23 -58 56 -58z" />
    <glyph glyph-name="afii61289" unicode="&#x2113;" horiz-adv-x="421" 
d="M97 161c-4 -4 -10 -3 -14 1l-42 48c-4 5 -3 11 1 15l78 72v197c0 123 53 197 147 197c76 0 128 -51 128 -134c0 -93 -56 -174 -154 -269v-158c0 -31 9 -46 32 -46c12 0 22 6 32 15c6 5 10 4 14 -2l36 -49c4 -5 1 -8 -4 -13c-31 -29 -67 -46 -110 -46
c-74 0 -121 42 -121 150v43zM241 529v-112c45 55 60 96 60 140c0 33 -10 46 -28 46c-19 0 -32 -16 -32 -74z" />
    <glyph glyph-name="estimated" unicode="&#x212e;" horiz-adv-x="574" 
d="M286 -9c-143 0 -235 112 -235 252c0 141 92 250 235 250c142 0 236 -102 237 -250h-369v-166c36 -34 80 -52 132 -52c76 0 131 32 175 110l33 -22c-56 -85 -112 -122 -208 -122zM420 276v132c-39 36 -83 55 -134 55c-52 0 -96 -19 -132 -55v-132h266z" />
    <glyph glyph-name="eng" unicode="&#x14b;" horiz-adv-x="419" 
d="M219 -180h-13c-6 0 -10 4 -10 10v90c0 6 4 10 10 10l9 1c26 2 38 12 38 52v342c0 38 -14 57 -42 57s-42 -19 -42 -57v-315c0 -6 -4 -10 -10 -10h-105c-6 0 -10 4 -10 10v464c0 6 4 10 10 10h104c6 0 10 -4 10 -10v-37h1c17 33 48 56 95 56c77 0 114 -45 114 -149v-356
c0 -114 -49 -168 -159 -168z" />
    <glyph glyph-name="Eng" unicode="&#x14a;" horiz-adv-x="474" 
d="M252 -180h-14c-6 0 -10 4 -10 10v98c0 6 4 10 10 10l11 1c32 2 48 18 48 49v2l-131 447h-5v-427c0 -6 -4 -10 -10 -10h-95c-6 0 -10 4 -10 10v660c0 6 4 10 10 10h122c7 0 14 -3 17 -10l113 -420h5v420c0 6 4 10 10 10h95c6 0 10 -4 10 -10v-668
c0 -129 -58 -182 -176 -182z" />
    <glyph glyph-name="infinity" unicode="&#x221e;" horiz-adv-x="666" 
d="M494 88c-62 0 -106 26 -161 88c-56 -61 -98 -88 -161 -88c-89 0 -156 60 -156 158s66 159 157 159c58 0 102 -27 160 -90c59 65 99 90 160 90c89 0 156 -59 156 -159c0 -97 -65 -158 -155 -158zM489 177c42 0 66 28 66 70s-25 69 -67 69c-28 0 -53 -20 -96 -70
c46 -53 68 -69 97 -69zM176 177c28 0 52 19 98 70c-42 48 -70 69 -96 69c-42 0 -68 -27 -68 -69s25 -70 66 -70z" />
    <glyph glyph-name="partialdiff" unicode="&#x2202;" horiz-adv-x="428" 
d="M191 -11c-100 0 -156 82 -156 205c0 132 66 226 167 226c32 0 55 -8 72 -23h2c-5 119 -40 187 -93 187c-22 0 -43 -8 -59 -20c-5 -4 -11 -3 -14 2l-43 65c-3 5 -2 10 3 14c31 24 73 46 126 46c126 0 198 -124 198 -334c0 -252 -78 -368 -203 -368zM199 93
c37 0 69 48 76 198c-16 16 -32 26 -54 26c-43 0 -69 -47 -69 -119c0 -69 16 -105 47 -105z" />
    <glyph glyph-name="integral" unicode="&#x222b;" horiz-adv-x="320" 
d="M61 -180c-9 0 -21 0 -28 1c-6 1 -10 4 -10 10v91c0 6 4 10 10 10h16c33 0 48 20 48 70v550c0 127 56 188 162 188c9 0 21 0 28 -1c6 -1 10 -4 10 -10v-91c0 -6 -4 -10 -10 -10h-16c-33 0 -48 -20 -48 -70v-550c0 -127 -56 -188 -162 -188z" />
    <glyph glyph-name="radical" unicode="&#x221a;" horiz-adv-x="584" 
d="M344 -180h-89c-6 0 -10 4 -12 10l-107 252c-2 4 -5 5 -9 3l-53 -22c-6 -3 -11 -1 -13 4l-30 68c-3 6 -1 11 4 13l142 63c6 3 11 2 14 -4l98 -234h3l178 757c2 6 6 10 12 10h86c6 0 10 -4 8 -10l-220 -900c-2 -6 -6 -10 -12 -10z" />
    <glyph glyph-name="summation" unicode="&#x2211;" horiz-adv-x="490" 
d="M445 -180h-400c-6 0 -10 4 -10 10v94c0 4 1 7 2 9l172 385l-167 303c-2 4 -3 7 -3 11v98c0 6 4 10 10 10h386c6 0 10 -4 10 -10v-98c0 -6 -4 -10 -10 -10h-244l159 -289c2 -5 2 -9 0 -14l-173 -381h268c6 0 10 -4 10 -10v-98c0 -6 -4 -10 -10 -10z" />
    <glyph glyph-name="product" unicode="&#x220f;" horiz-adv-x="521" 
d="M465 -180h-111c-6 0 -10 4 -10 10v783c0 4 -2 6 -6 6h-155c-4 0 -6 -2 -6 -6v-783c0 -6 -4 -10 -10 -10h-111c-6 0 -10 4 -10 10v900c0 6 4 10 10 10h409c6 0 10 -4 10 -10v-900c0 -6 -4 -10 -10 -10z" />
    <glyph glyph-name="lozenge" unicode="&#x25ca;" horiz-adv-x="461" 
d="M276 -52h-91c-7 0 -12 3 -15 10l-151 364c-2 5 -2 9 0 14l151 364c3 7 8 10 15 10h91c7 0 12 -3 15 -10l151 -364c2 -5 2 -9 0 -14l-151 -364c-3 -7 -8 -10 -15 -10zM232 80h2l94 249l-97 249h-2l-96 -249z" />
    <glyph glyph-name="uniF8FF" unicode="&#xf8ff;" horiz-adv-x="413" 
d="M403 0h-393c-6 0 -10 4 -10 10v660c0 6 4 10 10 10h393c6 0 10 -4 10 -10v-660c0 -6 -4 -10 -10 -10zM342 61c4 0 6 2 6 6v546c0 4 -2 6 -6 6h-271c-4 0 -6 -2 -6 -6v-546c0 -4 2 -6 6 -6h271zM235 235h-61c-6 0 -10 4 -10 10v37c0 17 5 31 15 48l36 60
c14 23 16 35 16 61c0 12 -1 18 -3 24c-4 11 -11 17 -24 17s-21 -6 -25 -17c-2 -5 -3 -12 -3 -37c0 -6 -5 -10 -11 -9l-59 7c-6 1 -9 5 -9 11c0 27 2 40 6 51c13 39 50 65 102 65s89 -26 102 -65c4 -11 6 -25 6 -44c0 -32 -6 -53 -22 -80l-35 -60c-8 -13 -11 -23 -11 -37v-32
c0 -6 -4 -10 -10 -10zM235 114h-59c-6 0 -10 4 -10 10v68c0 6 4 10 10 10h59c6 0 10 -4 10 -10v-68c0 -6 -4 -10 -10 -10z" />
    <glyph glyph-name="zero.onum" 
d="M208 -9c-81 0 -137 37 -157 102c-7 25 -11 50 -11 149s4 124 11 150c21 64 76 101 157 101c82 0 136 -37 157 -101c8 -26 11 -51 11 -150s-3 -124 -11 -149c-21 -65 -75 -102 -157 -102zM208 101c20 0 33 9 38 26c3 12 4 21 4 115c0 92 -1 105 -4 115
c-5 17 -18 26 -38 26s-32 -9 -38 -26c-3 -10 -4 -23 -4 -115s1 -105 4 -115c6 -17 18 -26 38 -26z" />
    <glyph glyph-name="one.onum" 
d="M288 0h-105c-6 0 -10 4 -10 10v346h-2l-87 -32c-7 -3 -12 -1 -12 7v97c0 7 1 11 8 14l91 39c4 2 9 3 16 3h101c6 0 10 -4 10 -10v-464c0 -6 -4 -10 -10 -10z" />
    <glyph glyph-name="two.onum" 
d="M364 0h-311c-6 0 -10 4 -10 10v84c0 8 2 14 8 18l156 130c30 25 42 43 42 87c0 11 -1 21 -4 29c-6 18 -19 25 -38 25c-20 0 -33 -8 -39 -26c-3 -8 -4 -17 -4 -46c0 -8 -5 -11 -12 -10l-99 10c-7 1 -10 5 -10 12c0 26 3 50 9 70c21 64 74 100 157 100
c82 0 135 -35 156 -100c6 -19 9 -42 9 -64c0 -72 -21 -109 -63 -143l-92 -77v-2h145c6 0 10 -4 10 -10v-87c0 -6 -4 -10 -10 -10z" />
    <glyph glyph-name="three.onum" 
d="M204 -189c-82 0 -135 38 -156 102c-6 20 -9 42 -9 74c0 7 3 11 10 12l100 10c7 1 12 -2 12 -10c0 -34 1 -43 3 -51c6 -18 19 -27 39 -27s32 7 38 25c3 8 4 16 4 81c0 61 -1 71 -4 79c-6 19 -20 27 -45 27h-32c-6 0 -10 4 -10 10v92c0 7 1 11 4 16l80 119v2h-183
c-6 0 -10 4 -10 10v92c0 6 4 10 10 10h305c6 0 10 -4 10 -10v-92c0 -6 -1 -10 -4 -14l-89 -129v-2c34 -7 66 -25 83 -76c8 -24 10 -51 10 -134c0 -71 -3 -96 -10 -115c-22 -65 -73 -101 -156 -101z" />
    <glyph glyph-name="four.onum" 
d="M341 -180h-102c-6 0 -10 4 -10 10v164c0 4 -2 6 -6 6h-193c-6 0 -10 4 -10 10v95c0 4 1 7 2 10l128 374c2 6 5 8 12 8h105c6 0 9 -3 7 -10l-125 -373v-2h74c4 0 6 2 6 6v101c0 6 4 10 10 10h102c6 0 10 -4 10 -10v-101c0 -4 1 -6 5 -6h32c6 0 10 -4 10 -10v-92
c0 -6 -4 -10 -10 -10h-31c-4 0 -6 -2 -6 -6v-164c0 -6 -4 -10 -10 -10z" />
    <glyph glyph-name="five.onum" 
d="M211 -189c-82 0 -135 38 -156 102c-6 20 -9 42 -9 66c0 7 3 11 10 12l100 9c7 1 12 -2 12 -10c0 -25 1 -34 3 -42c6 -18 19 -27 39 -27s32 9 38 27c3 8 4 17 4 84s-1 76 -4 84c-6 18 -19 27 -39 27c-21 0 -33 -10 -39 -27c-3 -7 -7 -10 -14 -10h-90c-6 0 -10 4 -10 10
v358c0 6 4 10 10 10h300c6 0 10 -4 10 -10v-92c0 -6 -4 -10 -10 -10h-192c-4 0 -6 -2 -6 -6v-140h1c15 14 41 26 75 26c64 0 104 -28 122 -84c8 -23 11 -48 11 -136c0 -77 -3 -101 -10 -120c-22 -65 -73 -101 -156 -101z" />
    <glyph glyph-name="six.onum" 
d="M209 -9c-83 0 -137 37 -158 102c-7 20 -10 43 -10 106c0 93 10 133 35 193l116 280c3 6 6 8 13 8h107c7 0 10 -5 7 -12l-108 -265l2 -2c4 3 15 5 29 5c66 0 104 -35 124 -95c6 -20 10 -48 10 -112c0 -63 -3 -86 -9 -106c-22 -65 -76 -102 -158 -102zM209 101
c19 0 32 9 38 27c3 8 4 17 4 71s-1 63 -4 71c-6 18 -19 27 -38 27c-20 0 -33 -9 -39 -27c-3 -8 -4 -17 -4 -71s1 -63 4 -71c6 -18 19 -27 39 -27z" />
    <glyph glyph-name="seven.onum" 
d="M202 -180h-106c-7 0 -10 4 -7 12l163 539v2h-91c-4 0 -6 -2 -6 -6v-56c0 -6 -4 -10 -10 -10h-91c-6 0 -10 4 -10 10v163c0 6 4 10 10 10h314c6 0 10 -4 10 -10v-87c0 -6 -1 -9 -2 -13l-161 -544c-2 -7 -5 -10 -13 -10z" />
    <glyph glyph-name="eight.onum" 
d="M209 -9c-83 0 -137 37 -158 102c-7 20 -10 43 -10 105c0 51 2 71 10 93c9 28 25 50 46 64v2c-22 14 -38 37 -47 65c-7 20 -9 41 -9 76c0 46 3 69 10 89c21 65 75 102 158 102c82 0 136 -37 158 -102c6 -20 9 -43 9 -89c0 -35 -2 -56 -9 -76c-9 -28 -25 -51 -47 -65v-2
c21 -14 37 -36 47 -64c7 -22 9 -42 9 -93c0 -62 -3 -85 -9 -105c-22 -65 -76 -102 -158 -102zM209 408c19 0 32 9 38 27c3 8 4 17 4 59c0 41 -1 50 -4 58c-6 18 -19 27 -38 27c-20 0 -33 -9 -39 -27c-3 -8 -4 -17 -4 -58c0 -42 1 -51 4 -59c6 -18 19 -27 39 -27zM209 101
c19 0 32 9 38 27c3 8 4 17 4 72c0 54 -1 62 -4 71c-6 17 -19 27 -38 27c-20 0 -33 -10 -39 -27c-3 -9 -4 -17 -4 -71c0 -55 1 -64 4 -72c6 -18 19 -27 39 -27z" />
    <glyph glyph-name="nine.onum" 
d="M217 -180h-107c-7 0 -10 5 -7 12l103 249c-1 0 -2 2 -2 2c-5 -3 -16 -5 -30 -5c-66 0 -104 35 -123 95c-7 20 -11 48 -11 112c0 63 3 86 10 106c21 65 75 102 158 102c82 0 136 -37 158 -102c6 -20 9 -43 9 -106c0 -93 -10 -133 -35 -193l-110 -264c-2 -6 -6 -8 -13 -8z
M208 187c19 0 32 9 38 27c3 8 4 17 4 71s-1 63 -4 71c-6 18 -19 27 -38 27c-20 0 -33 -9 -39 -27c-3 -8 -4 -17 -4 -71s1 -63 4 -71c6 -18 19 -27 39 -27z" />
    <glyph glyph-name="zero.prop" 
d="M51 93c-8 25 -11 52 -11 247s4 222 12 247c21 66 76 102 156 102s137 -35 157 -102c8 -25 11 -52 11 -247s-3 -222 -11 -247c-20 -67 -77 -102 -157 -102s-136 36 -157 102zM170 127c5 -16 18 -26 38 -26c21 0 33 10 38 26c3 10 4 22 4 213s-1 203 -4 213
c-5 16 -18 26 -38 26s-33 -10 -38 -26c-3 -10 -4 -22 -4 -213s1 -203 4 -213z" />
    <glyph glyph-name="one.prop" horiz-adv-x="337" 
d="M129 10v528h-2l-85 -59c-5 -4 -11 -2 -11 6v108c0 7 2 11 9 16l88 65c6 4 10 6 17 6h99c6 0 10 -4 10 -10v-660c0 -6 -4 -10 -10 -10h-105c-6 0 -10 4 -10 10z" />
    <glyph glyph-name="two.prop" horiz-adv-x="407" 
d="M38 10v89c0 7 1 11 5 19l171 279c22 35 30 58 30 113c0 25 -1 34 -4 42c-6 18 -18 27 -39 27c-20 0 -32 -9 -38 -27c-3 -8 -4 -17 -4 -57c0 -8 -5 -11 -12 -10l-99 9c-7 1 -10 5 -10 12c0 39 3 62 9 82c21 64 73 101 157 101c83 0 134 -36 156 -101c6 -19 9 -43 9 -78
c0 -76 -15 -116 -48 -169l-142 -228v-1h180c6 0 10 -4 10 -10v-92c0 -6 -4 -10 -10 -10h-311c-6 0 -10 4 -10 10z" />
    <glyph glyph-name="three.prop" horiz-adv-x="409" 
d="M47 92c-6 20 -9 43 -9 74c0 7 3 11 10 12l100 10c7 1 12 -2 12 -10c0 -33 1 -42 3 -50c6 -18 18 -27 39 -27c20 0 32 8 38 26c3 8 4 18 4 71c0 54 -1 64 -4 71c-6 19 -20 25 -44 25h-15c-6 0 -10 4 -10 10v93c0 6 4 10 10 10h16c23 0 37 6 43 24c3 7 4 16 4 66
c0 38 -1 48 -4 56c-6 18 -18 26 -38 26c-21 0 -33 -9 -39 -27c-2 -8 -3 -17 -3 -50c0 -8 -5 -11 -12 -10l-100 10c-7 1 -10 5 -10 12c0 31 3 54 9 74c21 64 74 101 156 101c85 0 136 -36 157 -100c6 -19 9 -45 9 -92c0 -45 -2 -63 -7 -79c-9 -28 -27 -47 -52 -62v-2
c26 -15 43 -33 52 -62c5 -16 7 -33 7 -95c0 -61 -3 -87 -9 -106c-21 -64 -73 -100 -157 -100c-82 0 -135 37 -156 101z" />
    <glyph glyph-name="four.prop" horiz-adv-x="429" 
d="M38 101c-6 0 -10 4 -10 10v96c0 4 1 8 2 11l136 454c2 6 4 8 11 8h105c6 0 10 -4 8 -11l-135 -454v-2h73c4 0 6 2 6 6v153c0 6 4 10 10 10h102c6 0 10 -4 10 -10v-153c0 -4 1 -6 5 -6h30c6 0 10 -4 10 -10v-92c0 -6 -4 -10 -10 -10h-29c-4 0 -6 -2 -6 -6v-85
c0 -6 -4 -10 -10 -10h-102c-6 0 -10 4 -10 10v85c0 4 -2 6 -6 6h-190z" />
    <glyph glyph-name="five.prop" horiz-adv-x="413" 
d="M52 92c-6 20 -9 43 -9 67c0 7 3 11 10 12l99 10c7 1 12 -2 12 -10c0 -26 1 -35 4 -43c6 -18 18 -27 38 -27c21 0 33 8 39 26c3 8 4 18 4 92s-1 84 -4 92c-6 18 -19 27 -39 27c-22 0 -34 -11 -40 -28c-2 -7 -6 -9 -14 -9h-89c-6 0 -10 3 -10 10v359c0 6 4 10 10 10h300
c6 0 10 -4 10 -10v-92c0 -6 -4 -10 -10 -10h-193c-4 0 -6 -2 -6 -6v-142h1c15 15 41 26 75 26c65 0 105 -27 123 -84c8 -23 11 -47 11 -143c0 -83 -3 -108 -9 -127c-22 -65 -74 -101 -157 -101s-135 37 -156 101z" />
    <glyph glyph-name="six.prop" horiz-adv-x="412" 
d="M48 93c-6 20 -9 43 -9 106c0 93 10 133 35 193l115 278c3 7 7 10 15 10h106c7 0 10 -5 7 -12l-109 -265s2 -1 2 -2c5 3 16 5 30 5c66 0 102 -35 122 -95c7 -20 11 -48 11 -112c0 -63 -3 -86 -9 -106c-21 -65 -75 -102 -158 -102s-137 37 -158 102zM168 128
c6 -18 18 -27 38 -27s32 9 38 27c3 8 4 17 4 71s-1 64 -4 72c-6 18 -18 27 -38 27s-32 -9 -38 -27c-3 -8 -4 -18 -4 -72s1 -63 4 -71z" />
    <glyph glyph-name="seven.prop" horiz-adv-x="403" 
d="M80 12l168 555v2h-92c-4 0 -6 -2 -6 -6v-56c0 -6 -4 -10 -10 -10h-90c-6 0 -10 4 -10 10v163c0 6 4 10 10 10h314c6 0 10 -4 10 -10v-90c0 -4 -1 -8 -2 -11l-166 -559c-2 -7 -5 -10 -13 -10h-106c-6 0 -9 4 -7 12z" />
    <glyph glyph-name="eight.prop" horiz-adv-x="414" 
d="M49 93c-6 20 -9 42 -9 105c0 51 2 71 9 93c9 28 26 50 47 64v2c-22 14 -38 37 -47 65c-7 20 -9 41 -9 76c0 46 3 69 9 89c21 65 75 102 158 102s137 -37 158 -102c6 -20 9 -43 9 -89c0 -35 -3 -56 -9 -76c-9 -28 -24 -51 -47 -65v-2c22 -14 38 -36 47 -64
c7 -22 9 -42 9 -93c0 -63 -3 -85 -9 -105c-21 -65 -75 -102 -158 -102s-137 37 -158 102zM207 408c20 0 32 9 38 27c3 9 4 21 4 59s-1 49 -4 58c-6 18 -18 27 -38 27s-32 -9 -38 -27c-3 -9 -4 -20 -4 -58s1 -50 4 -59c6 -18 18 -27 38 -27zM169 128c6 -17 18 -27 38 -27
s32 10 38 27c3 9 4 18 4 72s-1 62 -4 71c-6 17 -18 27 -38 27s-32 -10 -38 -27c-3 -9 -4 -17 -4 -71s1 -63 4 -72z" />
    <glyph glyph-name="nine.prop" horiz-adv-x="412" 
d="M95 12l109 265s-2 1 -2 2c-5 -3 -16 -5 -30 -5c-66 0 -102 35 -122 95c-7 20 -11 48 -11 112c0 63 3 86 9 106c21 65 75 102 158 102s137 -37 158 -102c6 -20 9 -43 9 -106c0 -93 -10 -133 -35 -193l-115 -278c-3 -7 -7 -10 -15 -10h-106c-7 0 -10 5 -7 12zM206 382
c20 0 32 9 38 27c3 8 4 18 4 72s-1 63 -4 71c-6 18 -18 27 -38 27s-32 -9 -38 -27c-3 -8 -4 -17 -4 -71s1 -64 4 -72c6 -18 18 -27 38 -27z" />
    <glyph glyph-name="Euro.prop" horiz-adv-x="422" 
d="M235 -9c-83 0 -132 37 -153 103c-8 24 -12 49 -12 137c0 4 -2 6 -6 6h-34c-6 0 -10 4 -10 10v61c0 6 4 10 10 10h34c4 0 6 2 6 6v36c0 4 -2 6 -6 6h-34c-6 0 -10 4 -10 10v60c0 6 4 10 10 10h34c4 0 6 2 6 6c0 85 4 110 12 134c21 66 70 103 153 103
c102 0 159 -59 166 -147c1 -6 -2 -11 -8 -12l-99 -17c-6 -1 -11 2 -12 9c-4 37 -15 57 -45 57c-19 0 -31 -9 -37 -27c-4 -11 -5 -20 -5 -100c0 -4 2 -6 6 -6h128c6 0 10 -4 10 -10l-10 -60c-1 -7 -4 -10 -10 -10h-118c-4 0 -6 -2 -6 -6v-36c0 -4 2 -6 6 -6h113
c6 0 10 -4 10 -10l-10 -61c-1 -7 -4 -10 -10 -10h-103c-4 0 -6 -2 -6 -6c0 -83 1 -92 5 -103c6 -18 18 -27 37 -27c30 0 41 20 45 57c1 7 6 10 12 9l99 -17c6 -1 9 -6 8 -12c-7 -88 -64 -147 -166 -147z" />
    <glyph glyph-name="cent.prop" horiz-adv-x="406" 
d="M369 121c-8 -73 -55 -120 -132 -128v-81c0 -6 -4 -10 -10 -10h-40c-6 0 -10 4 -10 10v81c-65 7 -107 41 -126 99c-9 29 -12 53 -12 150c0 98 3 121 12 150c19 58 61 91 126 99v81c0 6 4 10 10 10h40c6 0 10 -4 10 -10v-81c77 -9 124 -55 132 -128c1 -6 -1 -11 -7 -12
l-96 -18c-8 -1 -12 2 -12 8c-5 30 -18 42 -45 42c-23 0 -34 -8 -40 -25c-4 -11 -5 -20 -5 -116s1 -105 5 -116c6 -17 17 -25 40 -25c27 0 40 12 45 42c0 7 4 9 12 8l96 -18c6 -1 8 -6 7 -12z" />
    <glyph glyph-name="dollar.prop" horiz-adv-x="409" 
d="M30 169c0 6 2 10 8 11l98 17c8 1 11 -2 11 -8c1 -68 19 -88 57 -88c36 0 51 15 51 84c0 64 -13 87 -62 106l-41 16c-87 34 -116 85 -116 192c0 111 44 177 138 188v50c0 6 4 10 10 10h45c6 0 10 -4 10 -10v-51c89 -12 126 -70 134 -163c0 -6 -3 -10 -9 -11l-95 -15
c-6 -1 -11 2 -11 8c-4 55 -17 74 -52 74s-48 -20 -48 -72c0 -51 9 -71 61 -91l41 -16c86 -34 117 -84 117 -200c0 -131 -44 -196 -138 -207v-61c0 -6 -4 -10 -10 -10h-45c-6 0 -10 4 -10 10v61c-101 10 -141 71 -144 176z" />
    <glyph glyph-name="sterling.prop" horiz-adv-x="438" 
d="M388 0h-330c-6 0 -10 4 -10 10v89c0 5 2 8 4 12c19 23 26 44 26 89v72c0 4 -2 6 -6 6h-28c-6 0 -10 4 -10 10v68c0 6 4 10 10 10h28c4 0 6 2 6 6v153c0 103 56 164 160 164c106 0 154 -63 160 -149c1 -6 -2 -11 -8 -12l-100 -16c-7 -1 -10 2 -11 8c-3 43 -13 59 -39 59
c-27 0 -37 -16 -37 -52v-155c0 -4 2 -6 6 -6h95c6 0 10 -4 10 -10v-68c0 -6 -4 -10 -10 -10h-95c-4 0 -6 -2 -6 -6v-72c0 -39 -6 -67 -24 -88v-2h209c6 0 10 -4 10 -10v-90c0 -6 -4 -10 -10 -10z" />
    <glyph glyph-name="florin.prop" horiz-adv-x="426" 
d="M356 317h-77l-45 -333c-15 -112 -67 -164 -180 -164h-24c-6 0 -10 4 -10 10v89c0 6 4 10 10 10h14c40 0 59 14 65 56l45 332h-62c-6 0 -10 4 -10 10v76c0 6 4 10 10 10h75l14 103c15 112 67 164 180 164h25c6 0 10 -4 10 -10v-89c0 -6 -4 -10 -10 -10h-15
c-40 0 -59 -14 -65 -56l-14 -102h64c6 0 10 -4 10 -10v-76c0 -6 -4 -10 -10 -10z" />
    <glyph glyph-name="yen.prop" horiz-adv-x="419" 
d="M262 0h-105c-6 0 -10 4 -10 10v97c0 4 -2 6 -6 6h-85c-6 0 -10 4 -10 10v62c0 6 4 10 10 10h85c4 0 6 2 6 6v35c0 4 -2 6 -6 6h-85c-6 0 -10 4 -10 10v61c0 6 4 10 10 10h75v3l-111 344c-2 6 1 10 8 10h107c7 0 10 -3 12 -10l63 -249h3l61 249c2 7 5 10 12 10h105
c7 0 10 -4 8 -10l-111 -344v-3h75c6 0 10 -4 10 -10v-61c0 -6 -4 -10 -10 -10h-85c-4 0 -6 -2 -6 -6v-35c0 -4 2 -6 6 -6h85c6 0 10 -4 10 -10v-62c0 -6 -4 -10 -10 -10h-85c-4 0 -6 -2 -6 -6v-97c0 -6 -4 -10 -10 -10z" />
    <glyph glyph-name="zero.onumprop" 
d="M208 -9c-81 0 -137 37 -157 102c-7 25 -11 50 -11 149s4 124 11 150c21 64 76 101 157 101c82 0 136 -37 157 -101c8 -26 11 -51 11 -150s-3 -124 -11 -149c-21 -65 -75 -102 -157 -102zM208 101c20 0 33 9 38 26c3 12 4 21 4 115c0 92 -1 105 -4 115
c-5 17 -18 26 -38 26s-32 -9 -38 -26c-3 -10 -4 -23 -4 -115s1 -105 4 -115c6 -17 18 -26 38 -26z" />
    <glyph glyph-name="one.onumprop" horiz-adv-x="325" 
d="M238 0h-105c-6 0 -10 4 -10 10v346h-2l-87 -32c-7 -3 -12 -1 -12 7v97c0 7 1 11 8 14l91 39c4 2 9 3 16 3h101c6 0 10 -4 10 -10v-464c0 -6 -4 -10 -10 -10z" />
    <glyph glyph-name="two.onumprop" horiz-adv-x="410" 
d="M360 0h-311c-6 0 -10 4 -10 10v84c0 8 2 14 8 18l156 130c30 25 42 43 42 87c0 11 -1 21 -4 29c-6 18 -19 25 -38 25c-20 0 -33 -8 -39 -26c-3 -8 -4 -17 -4 -46c0 -8 -5 -11 -12 -10l-99 10c-7 1 -10 5 -10 12c0 26 3 50 9 70c21 64 74 100 157 100
c82 0 135 -35 156 -100c6 -19 9 -42 9 -64c0 -72 -21 -109 -63 -143l-92 -77v-2h145c6 0 10 -4 10 -10v-87c0 -6 -4 -10 -10 -10z" />
    <glyph glyph-name="three.onumprop" horiz-adv-x="406" 
d="M201 -189c-82 0 -135 38 -156 102c-6 20 -9 42 -9 74c0 7 3 11 10 12l100 10c7 1 12 -2 12 -10c0 -34 1 -43 3 -51c6 -18 19 -27 39 -27s32 7 38 25c3 8 4 16 4 81c0 61 -1 71 -4 79c-6 19 -20 27 -45 27h-32c-6 0 -10 4 -10 10v92c0 7 1 11 4 16l80 119v2h-183
c-6 0 -10 4 -10 10v92c0 6 4 10 10 10h305c6 0 10 -4 10 -10v-92c0 -6 -1 -10 -4 -14l-89 -129v-2c34 -7 66 -25 83 -76c8 -24 10 -51 10 -134c0 -71 -3 -96 -10 -115c-22 -65 -73 -101 -156 -101z" />
    <glyph glyph-name="four.onumprop" horiz-adv-x="427" 
d="M347 -180h-102c-6 0 -10 4 -10 10v164c0 4 -2 6 -6 6h-193c-6 0 -10 4 -10 10v95c0 4 1 7 2 10l128 374c2 6 5 8 12 8h105c6 0 9 -3 7 -10l-125 -373v-2h74c4 0 6 2 6 6v101c0 6 4 10 10 10h102c6 0 10 -4 10 -10v-101c0 -4 1 -6 5 -6h32c6 0 10 -4 10 -10v-92
c0 -6 -4 -10 -10 -10h-31c-4 0 -6 -2 -6 -6v-164c0 -6 -4 -10 -10 -10z" />
    <glyph glyph-name="five.onumprop" horiz-adv-x="412" 
d="M208 -189c-82 0 -135 38 -156 102c-6 20 -9 42 -9 66c0 7 3 11 10 12l100 9c7 1 12 -2 12 -10c0 -25 1 -34 3 -42c6 -18 19 -27 39 -27s32 9 38 27c3 8 4 17 4 84s-1 76 -4 84c-6 18 -19 27 -39 27c-21 0 -33 -10 -39 -27c-3 -7 -7 -10 -14 -10h-90c-6 0 -10 4 -10 10
v358c0 6 4 10 10 10h300c6 0 10 -4 10 -10v-92c0 -6 -4 -10 -10 -10h-192c-4 0 -6 -2 -6 -6v-140h1c15 14 41 26 75 26c64 0 104 -28 122 -84c8 -23 11 -48 11 -136c0 -77 -3 -101 -10 -120c-22 -65 -73 -101 -156 -101z" />
    <glyph glyph-name="six.onumprop" horiz-adv-x="413" 
d="M207 -9c-83 0 -137 37 -158 102c-7 20 -10 43 -10 106c0 93 10 133 35 193l116 280c3 6 6 8 13 8h107c7 0 10 -5 7 -12l-108 -265l2 -2c4 3 15 5 29 5c66 0 104 -35 124 -95c6 -20 10 -48 10 -112c0 -63 -3 -86 -9 -106c-22 -65 -76 -102 -158 -102zM207 101
c19 0 32 9 38 27c3 8 4 17 4 71s-1 63 -4 71c-6 18 -19 27 -38 27c-20 0 -33 -9 -39 -27c-3 -8 -4 -17 -4 -71s1 -63 4 -71c6 -18 19 -27 39 -27z" />
    <glyph glyph-name="seven.onumprop" horiz-adv-x="406" 
d="M196 -180h-106c-7 0 -10 4 -7 12l163 539v2h-91c-4 0 -6 -2 -6 -6v-56c0 -6 -4 -10 -10 -10h-91c-6 0 -10 4 -10 10v163c0 6 4 10 10 10h314c6 0 10 -4 10 -10v-87c0 -6 -1 -9 -2 -13l-161 -544c-2 -7 -5 -10 -13 -10z" />
    <glyph glyph-name="eight.onumprop" horiz-adv-x="415" 
d="M208 -9c-83 0 -137 37 -158 102c-7 20 -10 43 -10 105c0 51 2 71 10 93c9 28 25 50 46 64v2c-22 14 -38 37 -47 65c-7 20 -9 41 -9 76c0 46 3 69 10 89c21 65 75 102 158 102c82 0 136 -37 158 -102c6 -20 9 -43 9 -89c0 -35 -2 -56 -9 -76c-9 -28 -25 -51 -47 -65v-2
c21 -14 37 -36 47 -64c7 -22 9 -42 9 -93c0 -62 -3 -85 -9 -105c-22 -65 -76 -102 -158 -102zM208 408c19 0 32 9 38 27c3 8 4 17 4 59c0 41 -1 50 -4 58c-6 18 -19 27 -38 27c-20 0 -33 -9 -39 -27c-3 -8 -4 -17 -4 -58c0 -42 1 -51 4 -59c6 -18 19 -27 39 -27zM208 101
c19 0 32 9 38 27c3 8 4 17 4 72c0 54 -1 62 -4 71c-6 17 -19 27 -38 27c-20 0 -33 -10 -39 -27c-3 -9 -4 -17 -4 -71c0 -55 1 -64 4 -72c6 -18 19 -27 39 -27z" />
    <glyph glyph-name="nine.onumprop" horiz-adv-x="413" 
d="M216 -180h-107c-7 0 -10 5 -7 12l103 249c-1 0 -2 2 -2 2c-5 -3 -16 -5 -30 -5c-66 0 -104 35 -123 95c-7 20 -11 48 -11 112c0 63 3 86 10 106c21 65 75 102 158 102c82 0 136 -37 158 -102c6 -20 9 -43 9 -106c0 -93 -10 -133 -35 -193l-110 -264c-2 -6 -6 -8 -13 -8z
M207 187c19 0 32 9 38 27c3 8 4 17 4 71s-1 63 -4 71c-6 18 -19 27 -38 27c-20 0 -33 -9 -39 -27c-3 -8 -4 -17 -4 -71s1 -63 4 -71c6 -18 19 -27 39 -27z" />
    <glyph glyph-name="zero.inferior" unicode="&#x2080;" horiz-adv-x="297" 
d="M148 -164c-61 0 -98 28 -112 72c-6 18 -9 34 -9 139s3 121 9 139c14 44 51 72 112 72s99 -28 113 -72c6 -18 8 -34 8 -139s-2 -121 -8 -139c-14 -44 -52 -72 -113 -72zM148 -83c12 0 19 6 23 15c2 6 3 12 3 115s-1 109 -3 115c-4 9 -11 15 -23 15c-11 0 -19 -6 -22 -15
c-2 -6 -3 -12 -3 -115s1 -109 3 -115c3 -9 11 -15 22 -15z" />
    <glyph glyph-name="one.inferior" unicode="&#x2081;" horiz-adv-x="297" 
d="M207 -156h-75c-6 0 -10 4 -10 10v292h-2l-56 -32c-7 -4 -12 -1 -12 5v75c0 6 3 11 8 14l59 37c6 3 10 5 16 5h72c6 0 10 -4 10 -10v-386c0 -6 -4 -10 -10 -10z" />
    <glyph glyph-name="two.inferior" unicode="&#x2082;" horiz-adv-x="297" 
d="M267 138c0 -37 -10 -63 -31 -94l-80 -116v-1h99c6 0 10 -4 10 -10v-63c0 -6 -4 -10 -10 -10h-209c-6 0 -10 4 -10 10v59c0 7 1 11 5 16l112 156c14 20 18 31 18 52c0 12 -1 20 -3 26c-2 7 -9 14 -22 14s-19 -6 -22 -14c-2 -5 -3 -9 -3 -35c0 -8 -5 -11 -12 -10l-69 7
c-7 1 -10 5 -10 12c0 27 3 40 6 52c14 43 54 69 112 69c59 0 99 -26 113 -69c4 -12 6 -24 6 -51z" />
    <glyph glyph-name="three.inferior" unicode="&#x2083;" horiz-adv-x="297" 
d="M148 -164c-59 0 -99 26 -113 69c-3 12 -5 24 -5 37c0 8 3 11 10 12l68 7c7 1 12 -2 12 -10c0 -12 1 -17 3 -21c3 -7 10 -13 22 -13c13 0 20 7 23 14c2 4 3 10 3 31s-1 28 -3 33c-4 12 -13 15 -26 15h-7c-6 0 -10 4 -10 10v64c0 6 4 10 10 10h9c12 0 21 4 25 15
c2 5 2 10 2 28c0 17 -1 23 -3 27c-3 7 -10 13 -23 13c-12 0 -19 -6 -22 -13c-2 -4 -3 -9 -3 -21c0 -8 -5 -11 -12 -10l-68 7c-7 1 -10 4 -10 12c0 13 2 25 5 37c14 43 54 69 113 69c58 0 99 -26 113 -69c3 -12 5 -24 5 -48c0 -25 -1 -34 -4 -44c-6 -20 -19 -32 -38 -41v-1
c19 -10 31 -24 37 -42c4 -11 5 -23 5 -52c0 -31 -2 -44 -5 -56c-14 -43 -55 -69 -113 -69z" />
    <glyph glyph-name="four.inferior" unicode="&#x2084;" horiz-adv-x="297" 
d="M244 -156h-68c-6 0 -10 4 -10 10v37c0 4 -2 6 -6 6h-130c-6 0 -10 4 -10 10v64c0 7 1 11 3 16l85 253c2 6 6 10 12 10h77c6 0 9 -4 7 -10l-87 -258v-3h43c4 0 6 2 6 6v80c0 6 4 10 10 10h68c6 0 10 -4 10 -10v-80c0 -4 1 -6 5 -6h11c6 0 10 -4 10 -10v-62
c0 -6 -4 -10 -10 -10h-10c-4 0 -6 -2 -6 -6v-37c0 -6 -4 -10 -10 -10z" />
    <glyph glyph-name="five.inferior" unicode="&#x2085;" horiz-adv-x="297" 
d="M148 -164c-58 0 -99 26 -113 69c-3 12 -5 24 -5 30c0 8 3 11 10 12l69 7c7 1 12 -1 12 -10c0 -4 0 -8 2 -13c3 -8 10 -14 23 -14s19 6 22 14c2 5 3 10 3 44s-1 40 -3 45c-2 7 -9 13 -22 13c-11 0 -18 -5 -23 -14c-4 -7 -8 -9 -14 -9h-64c-6 0 -10 4 -10 10v220
c0 6 4 10 10 10h208c6 0 10 -4 10 -10v-63c0 -6 -4 -10 -10 -10h-126c-4 0 -6 -2 -6 -6v-62h1c10 7 26 12 48 12c47 0 78 -18 91 -59c5 -14 6 -32 6 -77c0 -44 -2 -57 -6 -70c-14 -44 -54 -69 -113 -69z" />
    <glyph glyph-name="six.inferior" unicode="&#x2086;" horiz-adv-x="297" 
d="M147 -164c-58 0 -101 26 -114 69c-4 13 -6 26 -6 62c0 56 6 78 24 117l75 156c3 7 7 10 14 10h79c6 0 10 -4 7 -10l-69 -147l1 -1c3 1 10 2 15 2c44 0 75 -22 88 -62c5 -14 7 -30 7 -65c0 -36 -2 -49 -6 -62c-14 -43 -56 -69 -115 -69zM173 -34c0 26 -1 31 -3 36
c-3 7 -10 14 -23 14s-19 -7 -22 -14c-2 -5 -3 -10 -3 -36s1 -30 3 -35c3 -7 9 -14 22 -14s20 7 23 14c2 5 3 9 3 35z" />
    <glyph glyph-name="seven.inferior" unicode="&#x2087;" horiz-adv-x="297" 
d="M150 -156h-76c-6 0 -10 4 -8 10l103 312v2h-43c-4 0 -6 -2 -6 -6v-30c0 -6 -4 -10 -10 -10h-68c-6 0 -10 4 -10 10v108c0 6 4 10 10 10h215c6 0 10 -4 10 -10v-59c0 -7 -1 -13 -3 -19l-101 -308c-2 -6 -6 -10 -13 -10z" />
    <glyph glyph-name="eight.inferior" unicode="&#x2088;" horiz-adv-x="297" 
d="M148 -164c-58 0 -100 27 -114 70c-4 12 -6 25 -6 57c0 25 2 38 5 48c6 19 17 34 33 44v2c-16 11 -28 26 -34 44c-3 10 -4 22 -4 37c0 25 2 38 6 50c14 43 56 70 114 70c59 0 101 -27 115 -70c4 -12 6 -25 6 -50c0 -15 -1 -27 -4 -37c-6 -18 -18 -33 -34 -44v-2
c16 -10 27 -25 33 -44c3 -10 5 -23 5 -48c0 -32 -2 -45 -6 -57c-14 -43 -56 -70 -115 -70zM174 136c0 16 -1 22 -3 27c-3 7 -10 14 -23 14s-19 -7 -22 -14c-2 -5 -3 -11 -3 -27s1 -23 3 -28c3 -7 9 -14 22 -14s20 7 23 14c2 5 3 12 3 28zM174 -35c0 24 -1 29 -3 34
c-3 7 -10 14 -23 14s-19 -7 -22 -14c-2 -5 -3 -10 -3 -34s1 -29 3 -34c3 -7 9 -14 22 -14s20 7 23 14c2 5 3 10 3 34z" />
    <glyph glyph-name="nine.inferior" unicode="&#x2089;" horiz-adv-x="297" 
d="M148 258c58 0 101 -26 114 -69c4 -13 6 -26 6 -62c0 -56 -6 -78 -24 -117l-75 -156c-3 -7 -7 -10 -14 -10h-79c-6 0 -10 4 -7 10l69 147l-1 1c-3 -1 -10 -2 -15 -2c-44 0 -75 22 -88 62c-5 14 -7 30 -7 65c0 36 2 49 6 62c14 43 56 69 115 69zM122 128c0 -26 1 -31 3 -36
c3 -7 10 -14 23 -14s19 7 22 14c2 5 3 10 3 36s-1 30 -3 35c-3 7 -9 14 -22 14s-20 -7 -23 -14c-2 -5 -3 -9 -3 -35z" />
    <glyph glyph-name="zero.superior" unicode="&#x2070;" horiz-adv-x="297" 
d="M148 422c-61 0 -98 28 -112 72c-6 18 -9 34 -9 139s3 121 9 139c14 44 51 72 112 72s99 -28 113 -72c6 -18 8 -34 8 -139s-2 -121 -8 -139c-14 -44 -52 -72 -113 -72zM148 503c12 0 19 6 23 15c2 6 3 12 3 115s-1 109 -3 115c-4 9 -11 15 -23 15c-11 0 -19 -6 -22 -15
c-2 -6 -3 -12 -3 -115s1 -109 3 -115c3 -9 11 -15 22 -15z" />
    <glyph glyph-name="one.superior" horiz-adv-x="297" 
d="M207 430h-75c-6 0 -10 4 -10 10v292h-2l-56 -32c-7 -4 -12 -1 -12 5v75c0 6 3 11 8 14l59 37c6 3 10 5 16 5h72c6 0 10 -4 10 -10v-386c0 -6 -4 -10 -10 -10z" />
    <glyph glyph-name="two.superior" horiz-adv-x="297" 
d="M267 724c0 -37 -10 -63 -31 -94l-80 -116v-1h99c6 0 10 -4 10 -10v-63c0 -6 -4 -10 -10 -10h-209c-6 0 -10 4 -10 10v59c0 7 1 11 5 16l112 156c14 20 18 31 18 52c0 12 -1 20 -3 26c-2 7 -9 14 -22 14s-19 -6 -22 -14c-2 -5 -3 -9 -3 -35c0 -8 -5 -11 -12 -10l-69 7
c-7 1 -10 5 -10 12c0 27 3 40 6 52c14 43 54 69 112 69c59 0 99 -26 113 -69c4 -12 6 -24 6 -51z" />
    <glyph glyph-name="three.superior" horiz-adv-x="297" 
d="M148 422c-59 0 -99 26 -113 69c-3 12 -5 24 -5 37c0 8 3 11 10 12l68 7c7 1 12 -2 12 -10c0 -12 1 -17 3 -21c3 -7 10 -13 22 -13c13 0 20 7 23 14c2 4 3 10 3 31s-1 28 -3 33c-4 12 -13 15 -26 15h-7c-6 0 -10 4 -10 10v64c0 6 4 10 10 10h9c12 0 21 4 25 15
c2 5 2 10 2 28c0 17 -1 23 -3 27c-3 7 -10 13 -23 13c-12 0 -19 -6 -22 -13c-2 -4 -3 -9 -3 -21c0 -8 -5 -11 -12 -10l-68 7c-7 1 -10 4 -10 12c0 13 2 25 5 37c14 43 54 69 113 69c58 0 99 -26 113 -69c3 -12 5 -24 5 -48c0 -25 -1 -34 -4 -44c-6 -20 -19 -32 -38 -41v-1
c19 -10 31 -24 37 -42c4 -11 5 -23 5 -52c0 -31 -2 -44 -5 -56c-14 -43 -55 -69 -113 -69z" />
    </font>
</defs>
</svg>
