<svg xmlns="http://www.w3.org/2000/svg" width="87.756" height="74.09" viewBox="0 0 87.756 74.09"><defs><style>.a{fill:#72ddd3;}</style></defs><g transform="translate(-577.241 -876.663)"><path class="a" d="M2961.878-482.457c.046-.59.067-1.145.067-1.687,0-13.3-10.483-24.127-23.371-24.127a22.971,22.971,0,0,0-19.027,10.152,15.561,15.561,0,0,0-7.408-1.871,16.3,16.3,0,0,0-16.029,16.529c0,.455.021.913.061,1.381a15.375,15.375,0,0,0-10.348,14.622,15.145,15.145,0,0,0,14.893,15.353,1.7,1.7,0,0,0,1.7-1.7,1.7,1.7,0,0,0-1.7-1.7,11.742,11.742,0,0,1-11.492-11.952,11.881,11.881,0,0,1,9.179-11.708,1.7,1.7,0,0,0,1.321-1.953,13.489,13.489,0,0,1-.214-2.342,12.9,12.9,0,0,1,12.628-13.128,12.234,12.234,0,0,1,6.979,2.189,1.7,1.7,0,0,0,1.331.262,1.7,1.7,0,0,0,1.1-.8,19.7,19.7,0,0,1,17.027-9.935c11.011,0,19.971,9.3,19.971,20.726a21.435,21.435,0,0,1-.215,2.878,1.7,1.7,0,0,0,.348,1.278,1.7,1.7,0,0,0,1.162.639,11.736,11.736,0,0,1,10.338,11.89,11.741,11.741,0,0,1-11.492,11.952,1.7,1.7,0,0,0-1.7,1.7,1.7,1.7,0,0,0,1.7,1.7,15.144,15.144,0,0,0,14.894-15.353A15.193,15.193,0,0,0,2961.878-482.457Z" transform="translate(-2308.582 1384.934)"/><path class="a" d="M2955.629-454.511a1.7,1.7,0,0,0-2.325-.611l-3.565,2.08.035-3.595a1.7,1.7,0,0,0-1.684-1.716h-.017a1.7,1.7,0,0,0-1.7,1.684l-.053,5.624-6.452,3.766v-7.769l4.687-2.8a1.7,1.7,0,0,0,.586-2.332,1.7,1.7,0,0,0-2.332-.587l-2.941,1.758v-4.31a1.7,1.7,0,0,0-1.7-1.7,1.7,1.7,0,0,0-1.7,1.7v4.31l-2.943-1.758a1.7,1.7,0,0,0-2.332.587,1.7,1.7,0,0,0,.588,2.332l4.687,2.8v7.769l-6.453-3.766-.054-5.624a1.707,1.707,0,0,0-1.718-1.684,1.7,1.7,0,0,0-1.683,1.716l.035,3.595-3.563-2.08a1.7,1.7,0,0,0-2.325.611,1.7,1.7,0,0,0,.61,2.326l3.693,2.155-3.055,1.866a1.7,1.7,0,0,0-.564,2.338,1.7,1.7,0,0,0,1.453.813,1.691,1.691,0,0,0,.885-.249l4.616-2.822,6.451,3.766-6.45,3.765-4.616-2.823a1.7,1.7,0,0,0-2.338.564,1.7,1.7,0,0,0,.564,2.338l3.055,1.867-3.693,2.155a1.7,1.7,0,0,0-.61,2.326,1.7,1.7,0,0,0,1.47.844,1.689,1.689,0,0,0,.855-.232l3.563-2.08-.035,3.595a1.7,1.7,0,0,0,1.683,1.716h.018a1.7,1.7,0,0,0,1.7-1.684l.054-5.624,6.453-3.766v7.769l-4.687,2.8a1.7,1.7,0,0,0-.588,2.332,1.7,1.7,0,0,0,1.462.828,1.686,1.686,0,0,0,.87-.24l2.943-1.758v4.31a1.7,1.7,0,0,0,1.7,1.7,1.7,1.7,0,0,0,1.7-1.7v-4.31l2.941,1.758a1.7,1.7,0,0,0,.872.24,1.7,1.7,0,0,0,1.46-.828,1.7,1.7,0,0,0-.586-2.332l-4.687-2.8v-7.769l6.452,3.766.053,5.624a1.7,1.7,0,0,0,1.7,1.684h.017a1.7,1.7,0,0,0,1.684-1.716l-.035-3.595,3.565,2.08a1.685,1.685,0,0,0,.854.232,1.7,1.7,0,0,0,1.471-.844,1.7,1.7,0,0,0-.612-2.326l-3.691-2.155,3.055-1.867a1.7,1.7,0,0,0,.563-2.338,1.7,1.7,0,0,0-2.337-.564l-4.615,2.823-6.451-3.765,6.451-3.766,4.616,2.822a1.691,1.691,0,0,0,.885.249,1.7,1.7,0,0,0,1.451-.813,1.7,1.7,0,0,0-.562-2.338l-3.055-1.866,3.691-2.155A1.7,1.7,0,0,0,2955.629-454.511Z" transform="translate(-2317.047 1374.367)"/></g></svg>