<?xml version="1.0" encoding="UTF-8" standalone="no"?>
<svg
   xmlns:dc="http://purl.org/dc/elements/1.1/"
   xmlns:cc="http://creativecommons.org/ns#"
   xmlns:rdf="http://www.w3.org/1999/02/22-rdf-syntax-ns#"
   xmlns:svg="http://www.w3.org/2000/svg"
   xmlns="http://www.w3.org/2000/svg"
   xmlns:sodipodi="http://sodipodi.sourceforge.net/DTD/sodipodi-0.dtd"
   xmlns:inkscape="http://www.inkscape.org/namespaces/inkscape"
   width="76.683"
   height="74.264"
   viewBox="0 0 76.683 74.264"
   version="1.1"
   id="svg26"
   sodipodi:docname="cancun-icon-top.svg"
   inkscape:version="0.92.3 (2405546, 2018-03-11)">
  <metadata
     id="metadata30">
    <rdf:RDF>
      <cc:Work
         rdf:about="">
        <dc:format>image/svg+xml</dc:format>
        <dc:type
           rdf:resource="http://purl.org/dc/dcmitype/StillImage" />
        <dc:title></dc:title>
      </cc:Work>
    </rdf:RDF>
  </metadata>
  <sodipodi:namedview
     pagecolor="#ffffff"
     bordercolor="#666666"
     borderopacity="1"
     objecttolerance="10"
     gridtolerance="10"
     guidetolerance="10"
     inkscape:pageopacity="0"
     inkscape:pageshadow="2"
     inkscape:window-width="873"
     inkscape:window-height="480"
     id="namedview28"
     showgrid="false"
     inkscape:zoom="3.177852"
     inkscape:cx="38.341499"
     inkscape:cy="37.132"
     inkscape:window-x="51"
     inkscape:window-y="27"
     inkscape:window-maximized="0"
     inkscape:current-layer="svg26" />
  <defs
     id="defs4">
    <style
       id="style2">.a{fill:#f4e41e;}</style>
  </defs>
  <g
     transform="translate(-503.903 -876.489)"
     id="g24">
    <g
       transform="translate(503.903 876.489)"
       id="g22">
      <path
         class="a"
         d="M370.5,527.249V519.21a1.71,1.71,0,0,0-3.421,0v8.039a1.71,1.71,0,0,0,3.421,0Zm0,0"
         transform="translate(-330.705 -517.5)"
         id="path6" />
      <path
         class="a"
         d="M481.719,666.216h8.039a1.71,1.71,0,0,0,0-3.421h-8.039a1.71,1.71,0,0,0,0,3.421Zm0,0"
         transform="translate(-415.586 -626.707)"
         id="path8" />
      <path
         class="a"
         d="M226.249,662.795a1.71,1.71,0,0,0,0,3.421h8.038a1.71,1.71,0,0,0,0-3.421Zm0,0"
         transform="translate(-223.568 -626.707)"
         id="path10" />
      <path
         class="a"
         d="M453.358,560.141l-5.638,5.637a1.711,1.711,0,1,0,2.418,2.42l5.639-5.638a1.711,1.711,0,1,0-2.419-2.419Zm0,0"
         transform="translate(-390.931 -549.173)"
         id="path12" />
      <path
         class="a"
         d="M273.051,568.2a1.711,1.711,0,1,0,2.418-2.42l-5.637-5.637a1.711,1.711,0,1,0-2.419,2.419Zm0,0"
         transform="translate(-255.417 -549.173)"
         id="path14" />
      <path
         class="a"
         d="M295.6,614.876a10.759,10.759,0,0,0-7.114,2.553,7.8,7.8,0,0,1-10.2,0,20.275,20.275,0,0,0-1.739-1.175,20.844,20.844,0,1,0-35.051-.067,19.273,19.273,0,0,0-1.856,1.242,7.8,7.8,0,0,1-10.195,0,10.751,10.751,0,0,0-7.112-2.553,1.71,1.71,0,0,0,0,3.421,7.483,7.483,0,0,1,5.1,1.9,11.181,11.181,0,0,0,14.224,0,7.8,7.8,0,0,1,10.195,0,11.182,11.182,0,0,0,14.226,0,7.8,7.8,0,0,1,10.2,0,11.183,11.183,0,0,0,14.226,0,7.478,7.478,0,0,1,5.1-1.9,1.71,1.71,0,0,0,0-3.421Zm-31.536,2.553a7.8,7.8,0,0,1-10.2,0,10.751,10.751,0,0,0-7.112-2.553,12.377,12.377,0,0,0-1.92.144,17.422,17.422,0,1,1,31.634-10.074,17.209,17.209,0,0,1-3.227,10.1,12.249,12.249,0,0,0-2.066-.168,10.756,10.756,0,0,0-7.113,2.553Zm0,0"
         transform="translate(-220.63 -567.554)"
         id="path16" />
      <path
         class="a"
         d="M295.6,746.419a10.762,10.762,0,0,0-7.114,2.553,7.8,7.8,0,0,1-10.2,0,11.186,11.186,0,0,0-14.226,0,7.8,7.8,0,0,1-10.2,0,11.185,11.185,0,0,0-14.225,0,7.8,7.8,0,0,1-10.195,0,10.755,10.755,0,0,0-7.112-2.553,1.71,1.71,0,0,0,0,3.421,7.475,7.475,0,0,1,5.1,1.9,11.185,11.185,0,0,0,14.225,0,7.8,7.8,0,0,1,10.2,0,11.185,11.185,0,0,0,14.225,0,7.8,7.8,0,0,1,10.2,0,11.186,11.186,0,0,0,14.226,0,7.474,7.474,0,0,1,5.1-1.9,1.71,1.71,0,0,0,0-3.421Zm0,0"
         transform="translate(-220.63 -689.561)"
         id="path18" />
      <path
         class="a"
         d="M295.6,784.809a10.76,10.76,0,0,0-7.114,2.553,7.8,7.8,0,0,1-10.2,0,11.184,11.184,0,0,0-14.226,0,7.8,7.8,0,0,1-10.2,0,11.183,11.183,0,0,0-14.225,0,7.8,7.8,0,0,1-10.195,0,10.753,10.753,0,0,0-7.112-2.553,1.71,1.71,0,0,0,0,3.421,7.477,7.477,0,0,1,5.1,1.9,11.182,11.182,0,0,0,14.225,0,7.8,7.8,0,0,1,10.2,0,11.184,11.184,0,0,0,14.225,0,7.8,7.8,0,0,1,10.2,0,11.187,11.187,0,0,0,14.226,0,7.47,7.47,0,0,1,5.1-1.9,1.71,1.71,0,1,0,0-3.421Zm0,0"
         transform="translate(-220.63 -718.416)"
         id="path20" />
    </g>
  </g>
</svg>
