<?xml version="1.0" encoding="UTF-8" standalone="no"?>
<svg
   xmlns:dc="http://purl.org/dc/elements/1.1/"
   xmlns:cc="http://creativecommons.org/ns#"
   xmlns:rdf="http://www.w3.org/1999/02/22-rdf-syntax-ns#"
   xmlns:svg="http://www.w3.org/2000/svg"
   xmlns="http://www.w3.org/2000/svg"
   xmlns:sodipodi="http://sodipodi.sourceforge.net/DTD/sodipodi-0.dtd"
   xmlns:inkscape="http://www.inkscape.org/namespaces/inkscape"
   width="84.114"
   height="74.515"
   viewBox="0 0 84.114 74.515"
   version="1.1"
   id="svg50"
   sodipodi:docname="londres-icon-top.svg"
   inkscape:version="0.92.3 (2405546, 2018-03-11)">
  <metadata
     id="metadata54">
    <rdf:RDF>
      <cc:Work
         rdf:about="">
        <dc:format>image/svg+xml</dc:format>
        <dc:type
           rdf:resource="http://purl.org/dc/dcmitype/StillImage" />
        <dc:title></dc:title>
      </cc:Work>
    </rdf:RDF>
  </metadata>
  <sodipodi:namedview
     pagecolor="#ffffff"
     bordercolor="#666666"
     borderopacity="1"
     objecttolerance="10"
     gridtolerance="10"
     guidetolerance="10"
     inkscape:pageopacity="0"
     inkscape:pageshadow="2"
     inkscape:window-width="1869"
     inkscape:window-height="1025"
     id="namedview52"
     showgrid="false"
     inkscape:zoom="3.1671476"
     inkscape:cx="42.056999"
     inkscape:cy="37.2575"
     inkscape:window-x="51"
     inkscape:window-y="27"
     inkscape:window-maximized="1"
     inkscape:current-layer="svg50" />
  <defs
     id="defs4">
    <style
       id="style2">.a{fill:#ff6c6c;}</style>
  </defs>
  <g
     transform="translate(-501 -876.773)"
     id="g48">
    <path
       class="a"
       d="M3377.226-426.061H3368.5v-12A12.077,12.077,0,0,0,3378.9-450a12.081,12.081,0,0,0-12.067-12.068A12.081,12.081,0,0,0,3354.763-450a12.077,12.077,0,0,0,10.4,11.938v12H3306.5v-8.911a10.055,10.055,0,0,0,8.376-9.9,10.059,10.059,0,0,0-10.048-10.047,10.058,10.058,0,0,0-10.047,10.047,10.054,10.054,0,0,0,8.375,9.9v8.911h-6.7a1.672,1.672,0,0,0-1.672,1.672,1.671,1.671,0,0,0,1.672,1.672h80.771a1.671,1.671,0,0,0,1.672-1.672A1.672,1.672,0,0,0,3377.226-426.061ZM3358.107-450a8.734,8.734,0,0,1,8.724-8.724,8.734,8.734,0,0,1,8.724,8.724,8.733,8.733,0,0,1-8.724,8.724A8.734,8.734,0,0,1,3358.107-450Zm-59.979,5.133a6.711,6.711,0,0,1,6.7-6.7,6.711,6.711,0,0,1,6.7,6.7,6.712,6.712,0,0,1-6.7,6.7A6.711,6.711,0,0,1,3298.127-444.868Z"
       transform="translate(-2793.784 1374.005)"
       id="path6" />
    <path
       class="a"
       d="M3307.728-463.5a1.672,1.672,0,0,0,1.672-1.672v-12.514h23.725v41.379a1.671,1.671,0,0,0,1.672,1.672,1.672,1.672,0,0,0,1.671-1.672v-43.051a1.672,1.672,0,0,0-1.671-1.672h-27.069a1.672,1.672,0,0,0-1.672,1.672v14.186A1.672,1.672,0,0,0,3307.728-463.5Z"
       transform="translate(-2796.68 1378.879)"
       id="path8" />
    <path
       class="a"
       d="M3336.622-469.93a1.671,1.671,0,0,0-1.672-1.672,1.671,1.671,0,0,0-1.672,1.672v7.179a1.672,1.672,0,0,0,1.672,1.672,1.672,1.672,0,0,0,1.672-1.672Z"
       transform="translate(-2803.677 1376.455)"
       id="path10" />
    <path
       class="a"
       d="M3327.615-469.93a1.672,1.672,0,0,0-1.671-1.672,1.671,1.671,0,0,0-1.672,1.672v7.179a1.672,1.672,0,0,0,1.672,1.672,1.672,1.672,0,0,0,1.671-1.672Z"
       transform="translate(-2801.362 1376.455)"
       id="path12" />
    <path
       class="a"
       d="M3315.265-469.93v7.179a1.672,1.672,0,0,0,1.672,1.672,1.672,1.672,0,0,0,1.672-1.672v-7.179a1.671,1.671,0,0,0-1.672-1.672A1.671,1.671,0,0,0,3315.265-469.93Z"
       transform="translate(-2799.047 1376.455)"
       id="path14" />
    <path
       class="a"
       d="M3364.732-469.93a1.671,1.671,0,0,0-1.672-1.672,1.672,1.672,0,0,0-1.672,1.672v7.179a1.672,1.672,0,0,0,1.672,1.672,1.672,1.672,0,0,0,1.672-1.672Z"
       transform="translate(-2810.901 1376.455)"
       id="path16" />
    <path
       class="a"
       d="M3355.727-469.93a1.672,1.672,0,0,0-1.672-1.672,1.671,1.671,0,0,0-1.672,1.672v7.179a1.672,1.672,0,0,0,1.672,1.672,1.672,1.672,0,0,0,1.672-1.672Z"
       transform="translate(-2808.586 1376.455)"
       id="path18" />
    <path
       class="a"
       d="M3370.4-489.092v7.18a1.672,1.672,0,0,0,1.672,1.672,1.672,1.672,0,0,0,1.672-1.672v-7.18a1.672,1.672,0,0,0-1.672-1.672A1.672,1.672,0,0,0,3370.4-489.092Z"
       transform="translate(-2813.216 1381.38)"
       id="path20" />
    <path
       class="a"
       d="M3364.732-489.092a1.672,1.672,0,0,0-1.672-1.672,1.672,1.672,0,0,0-1.672,1.672v7.18a1.672,1.672,0,0,0,1.672,1.672,1.672,1.672,0,0,0,1.672-1.672Z"
       transform="translate(-2810.901 1381.38)"
       id="path22" />
    <path
       class="a"
       d="M3355.727-489.092a1.672,1.672,0,0,0-1.672-1.672,1.672,1.672,0,0,0-1.672,1.672v7.18a1.672,1.672,0,0,0,1.672,1.672,1.672,1.672,0,0,0,1.672-1.672Z"
       transform="translate(-2808.586 1381.38)"
       id="path24" />
    <path
       class="a"
       d="M3379.4-489.092v7.18a1.672,1.672,0,0,0,1.672,1.672,1.672,1.672,0,0,0,1.672-1.672v-7.18a1.672,1.672,0,0,0-1.672-1.672A1.672,1.672,0,0,0,3379.4-489.092Z"
       transform="translate(-2815.531 1381.38)"
       id="path26" />
    <path
       class="a"
       d="M3336.622-450.768a1.672,1.672,0,0,0-1.672-1.672,1.671,1.671,0,0,0-1.672,1.672v7.178a1.671,1.671,0,0,0,1.672,1.672,1.672,1.672,0,0,0,1.672-1.672Z"
       transform="translate(-2803.677 1371.531)"
       id="path28" />
    <path
       class="a"
       d="M3327.615-450.768a1.672,1.672,0,0,0-1.671-1.672,1.671,1.671,0,0,0-1.672,1.672v7.178a1.671,1.671,0,0,0,1.672,1.672,1.672,1.672,0,0,0,1.671-1.672Z"
       transform="translate(-2801.362 1371.531)"
       id="path30" />
    <path
       class="a"
       d="M3334.95-433.279a1.672,1.672,0,0,0-1.672,1.672v7.569a1.671,1.671,0,0,0,1.672,1.672,1.671,1.671,0,0,0,1.672-1.672v-7.569A1.672,1.672,0,0,0,3334.95-433.279Z"
       transform="translate(-2803.677 1366.606)"
       id="path32" />
    <path
       class="a"
       d="M3325.944-433.279a1.672,1.672,0,0,0-1.672,1.672v7.569a1.671,1.671,0,0,0,1.672,1.672,1.672,1.672,0,0,0,1.671-1.672v-7.569A1.672,1.672,0,0,0,3325.944-433.279Z"
       transform="translate(-2801.362 1366.606)"
       id="path34" />
    <path
       class="a"
       d="M3364.732-450.768a1.671,1.671,0,0,0-1.672-1.672,1.672,1.672,0,0,0-1.672,1.672v7.178a1.672,1.672,0,0,0,1.672,1.672,1.671,1.671,0,0,0,1.672-1.672Z"
       transform="translate(-2810.901 1371.531)"
       id="path36" />
    <path
       class="a"
       d="M3355.727-450.768a1.672,1.672,0,0,0-1.672-1.672,1.671,1.671,0,0,0-1.672,1.672v7.178a1.671,1.671,0,0,0,1.672,1.672,1.672,1.672,0,0,0,1.672-1.672Z"
       transform="translate(-2808.586 1371.531)"
       id="path38" />
    <path
       class="a"
       d="M3363.061-433.279a1.672,1.672,0,0,0-1.672,1.672v7.569a1.672,1.672,0,0,0,1.672,1.672,1.671,1.671,0,0,0,1.672-1.672v-7.569A1.672,1.672,0,0,0,3363.061-433.279Z"
       transform="translate(-2810.901 1366.606)"
       id="path40" />
    <path
       class="a"
       d="M3354.055-433.279a1.672,1.672,0,0,0-1.672,1.672v7.569a1.671,1.671,0,0,0,1.672,1.672,1.672,1.672,0,0,0,1.672-1.672v-7.569A1.672,1.672,0,0,0,3354.055-433.279Z"
       transform="translate(-2808.586 1366.606)"
       id="path42" />
    <path
       class="a"
       d="M3316.937-492.162a1.672,1.672,0,0,0,1.672-1.672v-7.548l5.029-2.577,5.03,2.577v7.548a1.672,1.672,0,0,0,1.672,1.672,1.672,1.672,0,0,0,1.672-1.672v-8.57a1.674,1.674,0,0,0-.909-1.488l-5.792-2.968v-.862a1.671,1.671,0,0,0-1.672-1.672,1.672,1.672,0,0,0-1.672,1.672v.863l-5.792,2.968a1.675,1.675,0,0,0-.909,1.488v8.57A1.672,1.672,0,0,0,3316.937-492.162Z"
       transform="translate(-2799.047 1386.167)"
       id="path44" />
    <path
       class="a"
       d="M3344.159-492.1a1.672,1.672,0,0,0,1.672-1.672v-7.024l31.588-4.4v25.707a1.672,1.672,0,0,0,1.672,1.672,1.672,1.672,0,0,0,1.672-1.672v-27.627a1.672,1.672,0,0,0-.574-1.261,1.671,1.671,0,0,0-1.329-.395l-34.932,4.865a1.672,1.672,0,0,0-1.441,1.656v8.478A1.671,1.671,0,0,0,3344.159-492.1Z"
       transform="translate(-2806.043 1386.011)"
       id="path46" />
  </g>
</svg>
