<?xml version="1.0" encoding="UTF-8" standalone="no"?>
<!-- Generator: Adobe Illustrator 23.0.1, SVG Export Plug-In . SVG Version: 6.00 Build 0)  -->

<svg
   xmlns:dc="http://purl.org/dc/elements/1.1/"
   xmlns:cc="http://creativecommons.org/ns#"
   xmlns:rdf="http://www.w3.org/1999/02/22-rdf-syntax-ns#"
   xmlns:svg="http://www.w3.org/2000/svg"
   xmlns="http://www.w3.org/2000/svg"
   xmlns:sodipodi="http://sodipodi.sourceforge.net/DTD/sodipodi-0.dtd"
   xmlns:inkscape="http://www.inkscape.org/namespaces/inkscape"
   version="1.1"
   id="Capa_1"
   x="0px"
   y="0px"
   viewBox="0 0 18.799999 20.4"
   xml:space="preserve"
   sodipodi:docname="icon_compra_blanco.svg"
   width="18.799999"
   height="20.4"
   inkscape:version="0.92.3 (2405546, 2018-03-11)"><metadata
   id="metadata17"><rdf:RDF><cc:Work
       rdf:about=""><dc:format>image/svg+xml</dc:format><dc:type
         rdf:resource="http://purl.org/dc/dcmitype/StillImage" /><dc:title></dc:title></cc:Work></rdf:RDF></metadata><defs
   id="defs15" /><sodipodi:namedview
   pagecolor="#ffffff"
   bordercolor="#666666"
   borderopacity="1"
   objecttolerance="10"
   gridtolerance="10"
   guidetolerance="10"
   inkscape:pageopacity="0"
   inkscape:pageshadow="2"
   inkscape:window-width="1869"
   inkscape:window-height="1025"
   id="namedview13"
   showgrid="false"
   fit-margin-top="0"
   fit-margin-left="0"
   fit-margin-right="0"
   fit-margin-bottom="0"
   inkscape:zoom="22.250293"
   inkscape:cx="14.648266"
   inkscape:cy="11.132981"
   inkscape:window-x="51"
   inkscape:window-y="27"
   inkscape:window-maximized="1"
   inkscape:current-layer="Capa_1" />
<style
   type="text/css"
   id="style2">
	.st0{fill:#FFFFFF;}
</style>
<rect
   style="opacity:1;fill:none;fill-opacity:1;stroke:none;stroke-width:0.27977881;stroke-miterlimit:4;stroke-dasharray:none;stroke-opacity:1"
   id="rect847"
   width="18.742289"
   height="20.389029"
   x="0.063559324"
   y="0.0048375288"
   inkscape:export-xdpi="89"
   inkscape:export-ydpi="89" /><g
   id="g10"
   transform="translate(-5.6000004,-4.8)"
   inkscape:export-xdpi="89"
   inkscape:export-ydpi="89">
	<path
   class="st0"
   d="m 19.5,19 -2.9,-1.2 c -0.2,-0.1 -0.3,-0.1 -0.5,0 -0.2,0.1 -0.3,0.2 -0.3,0.3 L 15,20 c -0.1,0.1 -0.1,0.3 0,0.5 0.1,0.2 0.2,0.3 0.3,0.3 l 2.9,1.2 c 0.1,0 0.2,0 0.2,0 0.2,0 0.5,-0.1 0.6,-0.4 l 0.8,-1.9 c 0.1,-0.2 0.1,-0.3 0,-0.5 -0.1,0 -0.2,-0.1 -0.3,-0.2 z"
   id="path4"
   inkscape:connector-curvature="0"
   style="fill:#ffffff" />
	<path
   class="st0"
   d="m 19.3,10.3 h -8.5 c -0.3,0 -0.6,0.3 -0.6,0.6 0,0.3 0.3,0.6 0.6,0.6 H 17 c 0,0.1 0,0.3 0,0.4 0,0.9 0.6,1.6 1.3,1.6 0.7,0 1.3,-0.7 1.3,-1.6 0,-0.2 0,-0.3 -0.1,-0.5 0.2,-0.1 0.4,-0.3 0.4,-0.6 0,-0.2 -0.3,-0.5 -0.6,-0.5 z"
   id="path6"
   inkscape:connector-curvature="0"
   style="fill:#ffffff" />
	<path
   class="st0"
   d="M 20,8.3 H 17.2 V 7.4 h 0.1 C 18,7.4 18.6,6.8 18.6,6.1 18.6,5.4 18,4.8 17.3,4.8 h -4.1 c -0.7,0 -1.3,0.6 -1.3,1.3 0,0.7 0.6,1.3 1.3,1.3 h 0.1 V 8.3 H 10 c -1.1,0 -1.9,0.9 -1.9,1.9 v 12 c 0,0.7 0.4,1.4 1,1.7 V 24 c 0,0.6 0.5,1.2 1.2,1.2 v 0 c 0.6,0 1.1,-0.5 1.1,-1 h 7 c 0.1,0.6 0.6,1 1.2,1 h 0.1 c 0.7,0 1.2,-0.5 1.2,-1.2 v -0.1 c 0.6,-0.3 1,-1 1,-1.7 v -12 C 21.9,9.2 21,8.3 20,8.3 Z m -5.6,0 V 7.4 h 1.5 v 0.9 z m 6.3,1.9 v 12 c 0,0.4 -0.3,0.7 -0.7,0.7 H 10 c -0.4,0 -0.7,-0.3 -0.7,-0.7 v -12 C 9.3,9.8 9.6,9.5 10,9.5 h 10 c 0.4,0 0.7,0.3 0.7,0.7 z"
   id="path8"
   inkscape:connector-curvature="0"
   style="fill:#ffffff" />
</g>
</svg>