<?xml version="1.0" encoding="UTF-8" standalone="no"?>
<svg
   xmlns:dc="http://purl.org/dc/elements/1.1/"
   xmlns:cc="http://creativecommons.org/ns#"
   xmlns:rdf="http://www.w3.org/1999/02/22-rdf-syntax-ns#"
   xmlns:svg="http://www.w3.org/2000/svg"
   xmlns="http://www.w3.org/2000/svg"
   id="svg868"
   version="1.1"
   viewBox="0 0 5.0428939 5.0430875"
   height="5.0430875mm"
   width="5.0428939mm">
  <defs
     id="defs862" />
  <metadata
     id="metadata865">
    <rdf:RDF>
      <cc:Work
         rdf:about="">
        <dc:format>image/svg+xml</dc:format>
        <dc:type
           rdf:resource="http://purl.org/dc/dcmitype/StillImage" />
        <dc:title></dc:title>
      </cc:Work>
    </rdf:RDF>
  </metadata>
  <g
     transform="translate(-0.50236178,-141.77615)"
     id="layer1">
    <path
       style="fill:#ffffff;stroke-width:0.26458332"
       class="c"
       d="m 5.0412454,142.2801 a 0.42095208,0.42095208 0 0 1 0.095975,0.2883 0.67124792,0.67124792 0 0 1 -0.1928866,0.38522 l -0.7689347,0.76893 0.2883032,2.01813 -0.2875544,0.28755 -0.7685617,-1.73019 -1.0570502,1.05705 0.096163,0.86509 -0.1921405,0.19214 -0.4813776,-0.86565 -0.86566113,-0.48138 0.19176733,-0.19177 0.8650976,0.0962 1.0574258,-1.05742 -1.7288881,-0.76725 0.2883033,-0.2883 2.0183132,0.28849 0.7681859,-0.76819 a 0.67124792,0.67124792 0 0 1 0.3844687,-0.19214 0.42095208,0.42095208 0 0 1 0.2883032,0.096 m 0.289052,-0.28906 a 0.83290833,0.83290833 0 0 0 -0.5766064,-0.21552 1.0498667,1.0498667 0 0 0 -0.6737086,0.31225 l -0.6239404,0.62394 -1.8171901,-0.25874 a 0.40772292,0.40772292 0 0 0 -0.3451808,0.11468 l -0.2883032,0.28831 a 0.4079875,0.4079875 0 0 0 0.1225444,0.66098 l 1.1874501,0.52778 -0.4987767,0.49877 -0.6694038,-0.0752 a 0.40772292,0.40772292 0 0 0 -0.33264473,0.11638 l -0.19214041,0.19213 a 0.4079875,0.4079875 0 0 0 0.0901779,0.64471 l 0.76332294,0.42395 0.4239419,0.76332 a 0.40772292,0.40772292 0 0 0 0.6447076,0.0902 l 0.1908307,-0.19083 a 0.40772292,0.40772292 0 0 0 0.1163691,-0.33264 l -0.074462,-0.67015 0.4995281,-0.49953 0.5275897,1.18764 a 0.40772292,0.40772292 0 0 0 0.6609821,0.12254 l 0.2883059,-0.2883 a 0.40772292,0.40772292 0 0 0 0.1154324,-0.34593 l -0.259678,-1.81663 0.6239404,-0.62394 a 1.0498667,1.0498667 0 0 0 0.3124386,-0.67352 0.83290833,0.83290833 0 0 0 -0.215527,-0.57661 z"
       id="path826" />
  </g>
</svg>
