<svg xmlns="http://www.w3.org/2000/svg" width="67.743" height="39.992" viewBox="0 0 67.743 39.992"><defs><style>.a{fill:#fff;}</style></defs><g transform="translate(-140 -5310.999)"><g transform="translate(140 5310.999)"><path class="a" d="M452.149,431.094l2.405-6.495a6.555,6.555,0,0,1,.739-1.588,1.565,1.565,0,0,1,1.34-.676,1.6,1.6,0,0,1,1.371.676,6.384,6.384,0,0,1,.742,1.588l2.405,6.495a8.151,8.151,0,0,1,.306.959,2.317,2.317,0,0,1,.065.583.948.948,0,0,1-.339.741,1.354,1.354,0,0,1-.865.279,1.1,1.1,0,0,1-.872-.35,2.379,2.379,0,0,1-.438-.872l-.309-.984h-4.1l-.308.984a2.471,2.471,0,0,1-.434.872,1.111,1.111,0,0,1-.877.35,1.381,1.381,0,0,1-.869-.279.942.942,0,0,1-.332-.741,2.428,2.428,0,0,1,.062-.583A7.729,7.729,0,0,1,452.149,431.094Zm5.815-1.958-1.252-4.029-1.371,4.029Zm12.34-2.622V430.6a3.145,3.145,0,0,1-.523,1.819,3.01,3.01,0,0,1-1.353,1.049,5.275,5.275,0,0,1-3.715,0,2.994,2.994,0,0,1-1.351-1.049,3.12,3.12,0,0,1-.522-1.819v-4.086a1.3,1.3,0,0,1,.334-.886,1.186,1.186,0,0,1,.868-.365,1.173,1.173,0,0,1,.866.365,1.31,1.31,0,0,1,.334.886v3.748a1.279,1.279,0,0,0,.428,1,1.425,1.425,0,0,0,1.8,0,1.257,1.257,0,0,0,.426-1v-3.748a1.281,1.281,0,0,1,.337-.886,1.211,1.211,0,0,1,1.733,0A1.3,1.3,0,0,1,470.3,426.514Zm1.552,2.944a4.873,4.873,0,0,1,.511-2.2,3.868,3.868,0,0,1,3.548-2.143,5.645,5.645,0,0,1,1.216.127,2.859,2.859,0,0,1,1.134.482,1.186,1.186,0,0,1,.5.975,1.22,1.22,0,0,1-.282.807.941.941,0,0,1-.7.321,1.739,1.739,0,0,1-.743-.2,2.264,2.264,0,0,0-.984-.2,1.644,1.644,0,0,0-1.351.6,2.282,2.282,0,0,0-.436,1.436,2.371,2.371,0,0,0,.424,1.436,1.485,1.485,0,0,0,1.226.6,3.4,3.4,0,0,0,1.186-.21,2.432,2.432,0,0,1,.678-.207.962.962,0,0,1,.7.338,1.149,1.149,0,0,1,.282.723,1.212,1.212,0,0,1-.527.966,3.265,3.265,0,0,1-1.162.535,4.891,4.891,0,0,1-1.16.165,3.872,3.872,0,0,1-3.548-2.146A4.866,4.866,0,0,1,471.855,429.458Zm8.252,2.946v-9.466a1.29,1.29,0,0,1,.334-.886,1.218,1.218,0,0,1,1.738,0,1.277,1.277,0,0,1,.332.886v5.12l1.96-1.961a6.02,6.02,0,0,1,.612-.572,1.252,1.252,0,0,1,.741-.261,1.178,1.178,0,0,1,.853.336,1.084,1.084,0,0,1,.32.775.933.933,0,0,1-.21.585,5.7,5.7,0,0,1-.638.681l-1.293,1.28,2.021,2.56a5.893,5.893,0,0,1,.379.516.99.99,0,0,1-.09,1.275,1.327,1.327,0,0,1-1.582.216,2.861,2.861,0,0,1-.638-.652l-2.4-3.144-.034,2.713a1.281,1.281,0,0,1-.332.884,1.213,1.213,0,0,1-1.738,0A1.294,1.294,0,0,1,480.107,432.4Zm8.451,0v-9.471a1.287,1.287,0,0,1,.338-.881,1.214,1.214,0,0,1,1.734,0,1.282,1.282,0,0,1,.333.881V432.4a1.289,1.289,0,0,1-.333.884,1.209,1.209,0,0,1-1.734,0A1.3,1.3,0,0,1,488.559,432.4Zm12.011-5.889V432.4a1.267,1.267,0,0,1-.335.884,1.2,1.2,0,0,1-.864.367,1.174,1.174,0,0,1-.724-.248,1.486,1.486,0,0,1-.405-.526,2.393,2.393,0,0,1-.9.713,2.887,2.887,0,0,1-1.172.213,3.339,3.339,0,0,1-1.894-.59,3.955,3.955,0,0,1-1.323-1.556,5.078,5.078,0,0,1,0-4.407,3.97,3.97,0,0,1,1.323-1.555,3.331,3.331,0,0,1,1.894-.588,2.751,2.751,0,0,1,1.172.215,2.362,2.362,0,0,1,.9.706,1.476,1.476,0,0,1,.4-.523,1.173,1.173,0,0,1,.724-.248,1.189,1.189,0,0,1,.864.365A1.267,1.267,0,0,1,500.57,426.514Zm-4.055.908a1.484,1.484,0,0,0-1.226.6,2.635,2.635,0,0,0,0,2.871,1.547,1.547,0,0,0,2.45,0,2.621,2.621,0,0,0,0-2.871A1.477,1.477,0,0,0,496.515,427.422Zm5.88,4.98v-5.889a1.27,1.27,0,0,1,.335-.886,1.179,1.179,0,0,1,.865-.365,1.311,1.311,0,0,1,.788.256,1.335,1.335,0,0,1,.417.515,1.8,1.8,0,0,1,.791-.686,3.068,3.068,0,0,1,1.274-.235,3.2,3.2,0,0,1,2.12.675,2.7,2.7,0,0,1,.872,2.161V432.4a1.284,1.284,0,0,1-.335.885,1.208,1.208,0,0,1-1.734,0,1.3,1.3,0,0,1-.335-.885v-3.809a1.555,1.555,0,0,0-.351-1.036,1.363,1.363,0,0,0-1.952,0,1.536,1.536,0,0,0-.35,1.036V432.4a1.277,1.277,0,0,1-.337.885,1.206,1.206,0,0,1-1.732,0A1.271,1.271,0,0,1,502.395,432.4Zm17.128-9.465V432.4a1.282,1.282,0,0,1-.336.884,1.2,1.2,0,0,1-.869.367,1.167,1.167,0,0,1-.717-.248,1.435,1.435,0,0,1-.407-.526,2.415,2.415,0,0,1-.893.713,2.928,2.928,0,0,1-1.175.213,3.344,3.344,0,0,1-1.894-.59,3.986,3.986,0,0,1-1.32-1.556,5.113,5.113,0,0,1,0-4.407,4,4,0,0,1,1.32-1.555,3.336,3.336,0,0,1,1.894-.588,3.163,3.163,0,0,1,1.224.205,2.94,2.94,0,0,1,.768.47v-2.85a1.286,1.286,0,0,1,.334-.886,1.214,1.214,0,0,1,1.734,0A1.278,1.278,0,0,1,519.523,422.937Zm-4.055,4.485a1.483,1.483,0,0,0-1.226.6,2.646,2.646,0,0,0,0,2.871,1.548,1.548,0,0,0,2.451,0,2.633,2.633,0,0,0,0-2.871A1.474,1.474,0,0,0,515.468,427.422Zm-41.813,7.837h0Z" transform="translate(-451.78 -395.267)"/><path class="a" d="M526.543,290.333c.388.7.395.7.395.7a5.84,5.84,0,0,0,.619.735A4.809,4.809,0,0,0,529.547,293a5.105,5.105,0,0,0,1.5.22,4.8,4.8,0,0,0,3.486-1.452,4.75,4.75,0,0,0,1-1.447h-.009A28.78,28.78,0,0,1,526.543,290.333Zm28.485-5.378a1.048,1.048,0,0,0-.774-.325h-6.735c-.161-.007-.329-.013-.5-.013-.156,0-.306.006-.451.013H546.5a8,8,0,0,0-5.38,2.436c-.18.176-.343.36-.5.548a9.273,9.273,0,0,0-2.625-6l-6.038-6.018a1.217,1.217,0,0,0-.906-.356,1.194,1.194,0,0,0-.9.356l-5.486,5.486c-.133.126-.27.256-.4.394-.131.123-.255.248-.367.37l-.051.061a9.218,9.218,0,0,0-2.324,4.979,10.972,10.972,0,0,0-.062,1.384c-.04-.062-.081-.123-.126-.184a8.133,8.133,0,0,0-.881-1.032,8,8,0,0,0-5.415-2.419c-.145-.009-.293-.015-.45-.021s-.336.012-.5.021h-6.7a1.067,1.067,0,0,0-.778.324,1.036,1.036,0,0,0-.321.774v7.394a8.292,8.292,0,0,0,16.434,1.373,3.808,3.808,0,0,0,.1-1.247,10.076,10.076,0,0,0,1.446,1.816,9.267,9.267,0,0,0,4.637,2.59,9.471,9.471,0,0,0,1.728.218h.823a9.217,9.217,0,0,0,6.382-2.822c.24-.242.462-.489.677-.743l.24-.309a8.315,8.315,0,0,0,8.262,7.275,8.762,8.762,0,0,0,1.875-.192c.2-.047.407-.1.609-.164a8.431,8.431,0,0,0,5.849-7.768v-7.411A1.068,1.068,0,0,0,555.027,284.955Zm-34.377,8.453a6.078,6.078,0,0,1-4.244,5.314l-.53.147a6.762,6.762,0,0,1-1.286.13c-.119,0-.228-.008-.336-.018l-.421-.029a5.821,5.821,0,0,1-1.833-.513,6.2,6.2,0,0,1-1.705-1.217,5.868,5.868,0,0,1-1.781-4.122v-.778c.022-.208.053-.413.095-.625a5.832,5.832,0,0,1,2.6-3.844,5.945,5.945,0,0,1,2.884-1.013h.888a5.939,5.939,0,0,1,1.4.247,6.083,6.083,0,0,1,4.289,5.817C520.668,293.075,520.665,293.24,520.65,293.408Zm17.379-4.233a6.742,6.742,0,0,1-2.005,4.072,6.824,6.824,0,0,1-4.991,2.079,7.363,7.363,0,0,1-2.129-.318,6.828,6.828,0,0,1-2.831-1.761,7.838,7.838,0,0,1-.9-1.05c-.557-1-.557-.992-.557-.992l-.452-1.387a6.733,6.733,0,0,1-.179-1.542,6.809,6.809,0,0,1,1.155-3.876,6.707,6.707,0,0,1,.615-.784l.323-.281a7.006,7.006,0,0,1,9.953,0,7.6,7.6,0,0,1,.888,1.048l.564,1,.448,1.388a7.561,7.561,0,0,1,.15,1.509C538.078,288.579,538.063,288.883,538.03,289.175Zm15.1,3.964a6.142,6.142,0,0,1-6.114,5.92,5.79,5.79,0,0,1-2.547-.548,6.114,6.114,0,0,1,1.952-11.647l.21-.01h.884a6.179,6.179,0,0,1,5.438,4.522,6.823,6.823,0,0,1,.178.913Zm-10.065-1.4-.011,0a4.988,4.988,0,0,0-.148.686,4.147,4.147,0,0,0,3.558,4.694,3.862,3.862,0,0,0,2.433-.426Q544.111,294.361,543.069,291.742Zm-30.447,5.181.012.006a4.1,4.1,0,0,0,2.593.2l.288-.081a1.9,1.9,0,0,0,.234-.071,4.775,4.775,0,0,0,.843-.409l.315-.228a4.294,4.294,0,0,0,1.32-1.635,4.1,4.1,0,0,0,.265-2.846A13.385,13.385,0,0,1,512.622,296.923Z" transform="translate(-496.456 -275.242)"/></g></g></svg>