<svg xmlns="http://www.w3.org/2000/svg" width="25.772" height="19.779" viewBox="0 0 25.772 19.779"><defs><style>.a,.b,.e{fill:none;}.a,.c{stroke:#fff;stroke-width:1.5px;}.a,.b{stroke-linecap:round;stroke-linejoin:round;}.c,.f{fill:#fff;}.d,.f{stroke:none;}</style></defs><g transform="translate(-141.673 -3318.72)"><g class="a" transform="translate(150.364 3325.614)"><circle class="d" cx="4.195" cy="4.195" r="4.195"/><circle class="e" cx="4.195" cy="4.195" r="4.945"/></g><g class="b" transform="translate(-644.827 1155.221)"><path class="d" d="M788,2168.6v13.184h22.772V2168.6h-5.393l-2.4-3.6H795.79l-2.4,3.6Z"/><path class="f" d="M 795.7903442382812 2165 L 793.393310546875 2168.595458984375 L 788 2168.595458984375 L 788 2181.779296875 L 810.7718505859375 2181.779296875 L 810.7718505859375 2168.595458984375 L 805.3784790039062 2168.595458984375 L 802.9814453125 2165 L 795.7903442382812 2165 M 795.7903442382812 2163.5 L 802.9814453125 2163.5 C 803.4829711914062 2163.5 803.9512939453125 2163.750732421875 804.2294921875 2164.16796875 L 806.1812133789062 2167.095458984375 L 810.7718505859375 2167.095458984375 C 811.6002807617188 2167.095458984375 812.2718505859375 2167.76708984375 812.2718505859375 2168.595458984375 L 812.2718505859375 2181.779296875 C 812.2718505859375 2182.607666015625 811.6002807617188 2183.279296875 810.7718505859375 2183.279296875 L 788 2183.279296875 C 787.1715698242188 2183.279296875 786.5 2182.607666015625 786.5 2181.779296875 L 786.5 2168.595458984375 C 786.5 2167.76708984375 787.1715698242188 2167.095458984375 788 2167.095458984375 L 792.5905151367188 2167.095458984375 L 794.5422973632812 2164.16796875 C 794.8204956054688 2163.750732421875 795.288818359375 2163.5 795.7903442382812 2163.5 Z"/></g><circle class="c" cx="0.899" cy="0.899" r="0.899" transform="translate(161.75 3325.614)"/><g class="a" transform="translate(144.971 3321.419)"><rect class="d" width="0.599" height="0.599"/><rect class="e" x="-0.75" y="-0.75" width="2.099" height="2.099"/></g></g></svg>