<?xml version="1.0" encoding="UTF-8" standalone="no"?>
<svg
   xmlns:dc="http://purl.org/dc/elements/1.1/"
   xmlns:cc="http://creativecommons.org/ns#"
   xmlns:rdf="http://www.w3.org/1999/02/22-rdf-syntax-ns#"
   xmlns:svg="http://www.w3.org/2000/svg"
   xmlns="http://www.w3.org/2000/svg"
   xmlns:sodipodi="http://sodipodi.sourceforge.net/DTD/sodipodi-0.dtd"
   xmlns:inkscape="http://www.inkscape.org/namespaces/inkscape"
   id="svg8"
   version="1.1"
   viewBox="0 0 21.5 15.618"
   height="15.618"
   width="21.5"
   sodipodi:docname="email-icon-azul.svg"
   inkscape:version="0.92.3 (2405546, 2018-03-11)">
  <sodipodi:namedview
     pagecolor="#ffffff"
     bordercolor="#666666"
     borderopacity="1"
     objecttolerance="10"
     gridtolerance="10"
     guidetolerance="10"
     inkscape:pageopacity="0"
     inkscape:pageshadow="2"
     inkscape:window-width="1869"
     inkscape:window-height="1025"
     id="namedview8"
     showgrid="false"
     inkscape:zoom="15.11077"
     inkscape:cx="10.75"
     inkscape:cy="7.809"
     inkscape:window-x="51"
     inkscape:window-y="27"
     inkscape:window-maximized="1"
     inkscape:current-layer="svg8" />
  <metadata
     id="metadata12">
    <rdf:RDF>
      <cc:Work
         rdf:about="">
        <dc:format>image/svg+xml</dc:format>
        <dc:type
           rdf:resource="http://purl.org/dc/dcmitype/StillImage" />
        <dc:title />
      </cc:Work>
    </rdf:RDF>
  </metadata>
  <defs
     id="defs4">
    <style
       id="style2">.a{fill:none;stroke:#fff;stroke-linecap:round;stroke-miterlimit:10;stroke-width:1.5px;}</style>
    <style
       id="style2-5">.a{fill:none;stroke:#fff;stroke-linecap:round;stroke-miterlimit:10;stroke-width:1.5px;}</style>
  </defs>
  <path
     style="stroke:#003e6f;stroke-opacity:1"
     id="path6"
     transform="translate(0.75 0.75)"
     d="M19.629.395A1.322,1.322,0,0,1,20,1.33v.884a2.023,2.023,0,0,1-1.207,1.872L10.809,7.47a2.069,2.069,0,0,1-1.619,0L.619,3.836S0,3.3,0,2.876V1.33A1.317,1.317,0,0,1,.371.395,1.167,1.167,0,0,1,1.25,0h17.5A1.169,1.169,0,0,1,19.629.395ZM20,2.666V12.788a1.323,1.323,0,0,1-.371.935,1.169,1.169,0,0,1-.879.395H1.25a1.167,1.167,0,0,1-.879-.395A1.318,1.318,0,0,1,0,12.788V2.666M18.529,13.75,14.423,9.617m-8.824,0L1.471,13.75"
     class="a" />
</svg>
