<svg xmlns="http://www.w3.org/2000/svg" width="21.5" height="15.618" viewBox="0 0 21.5 15.618"><defs><style>.a{fill:none;stroke:#fff;stroke-linecap:round;stroke-miterlimit:10;stroke-width:1.5px;}</style></defs><path class="a" d="M19.629.395A1.322,1.322,0,0,1,20,1.33v.884a2.023,2.023,0,0,1-1.207,1.872L10.809,7.47a2.069,2.069,0,0,1-1.619,0L.619,3.836S0,3.3,0,2.876V1.33A1.317,1.317,0,0,1,.371.395,1.167,1.167,0,0,1,1.25,0h17.5A1.169,1.169,0,0,1,19.629.395ZM20,2.666V12.788a1.323,1.323,0,0,1-.371.935,1.169,1.169,0,0,1-.879.395H1.25a1.167,1.167,0,0,1-.879-.395A1.318,1.318,0,0,1,0,12.788V2.666M18.529,13.75,14.423,9.617m-8.824,0L1.471,13.75" transform="translate(0.75 0.75)"/></svg>