<svg xmlns="http://www.w3.org/2000/svg" width="21.5" height="15.618" viewBox="0 0 21.5 15.618"><defs><style>.a{fill:none;stroke:#e0007a;stroke-linecap:round;stroke-miterlimit:10;stroke-width:1.5px;}</style></defs><path class="a" d="M399.129,99.227a1.322,1.322,0,0,1,.371.935v.884a2.023,2.023,0,0,1-1.207,1.872l-7.984,3.384a2.069,2.069,0,0,1-1.619,0l-8.571-3.634s-.619-.538-.619-.96v-1.546a1.317,1.317,0,0,1,.371-.935,1.167,1.167,0,0,1,.879-.395h17.5A1.169,1.169,0,0,1,399.129,99.227Zm.371,2.271V111.62a1.323,1.323,0,0,1-.371.935,1.169,1.169,0,0,1-.879.395h-17.5a1.167,1.167,0,0,1-.879-.395,1.318,1.318,0,0,1-.371-.935V101.5m18.529,11.084-4.107-4.133m-8.824,0-4.129,4.133" transform="translate(-378.75 -98.082)"/></svg>