<?xml version="1.0" encoding="UTF-8" standalone="no"?>
<svg
   xmlns:dc="http://purl.org/dc/elements/1.1/"
   xmlns:cc="http://creativecommons.org/ns#"
   xmlns:rdf="http://www.w3.org/1999/02/22-rdf-syntax-ns#"
   xmlns:svg="http://www.w3.org/2000/svg"
   xmlns="http://www.w3.org/2000/svg"
   xmlns:sodipodi="http://sodipodi.sourceforge.net/DTD/sodipodi-0.dtd"
   xmlns:inkscape="http://www.inkscape.org/namespaces/inkscape"
   width="22.035"
   height="19.506"
   viewBox="0 0 22.035 19.506"
   version="1.1"
   id="svg32"
   sodipodi:docname="excursiones-icon.svg"
   inkscape:version="0.92.3 (2405546, 2018-03-11)">
  <metadata
     id="metadata36">
    <rdf:RDF>
      <cc:Work
         rdf:about="">
        <dc:format>image/svg+xml</dc:format>
        <dc:type
           rdf:resource="http://purl.org/dc/dcmitype/StillImage" />
        <dc:title></dc:title>
      </cc:Work>
    </rdf:RDF>
  </metadata>
  <sodipodi:namedview
     pagecolor="#ffffff"
     bordercolor="#666666"
     borderopacity="1"
     objecttolerance="10"
     gridtolerance="10"
     guidetolerance="10"
     inkscape:pageopacity="0"
     inkscape:pageshadow="2"
     inkscape:window-width="1869"
     inkscape:window-height="1025"
     id="namedview34"
     showgrid="false"
     inkscape:zoom="12.098841"
     inkscape:cx="11.0175"
     inkscape:cy="9.7530003"
     inkscape:window-x="51"
     inkscape:window-y="27"
     inkscape:window-maximized="1"
     inkscape:current-layer="svg32" />
  <defs
     id="defs4">
    <style
       id="style2">.a,.b{fill:#fff;stroke-linecap:round;stroke-linejoin:round;}.b{stroke:#585955;stroke-width:2px;}.c,.d{stroke:none;}.d{fill:#585955;}.e{fill:none;}</style>
  </defs>
  <g
     transform="translate(-433.617 -2862)"
     id="g30">
    <g
       class="a"
       transform="translate(-3.711)"
       id="g10">
      <path
         class="c"
         d="M 454.7172241210938 2880.505859375 L 453.3144836425781 2880.505859375 L 442.6166687011719 2880.505859375 L 441.2138366699219 2880.505859375 L 441.6713562011719 2879.1796875 L 447.0208740234375 2863.673828125 L 447.96630859375 2860.93359375 L 448.9115295410156 2863.673828125 L 454.2598266601562 2879.1796875 L 454.7172241210938 2880.505859375 Z"
         id="path6" />
      <path
         class="d"
         d="M 453.3144836425781 2879.505859375 L 447.9661865234375 2864 L 442.6166687011719 2879.505859375 L 453.3144836425781 2879.505859375 M 453.3144836425781 2881.505859375 L 442.6166687011719 2881.505859375 C 441.9700927734375 2881.505859375 441.3634033203125 2881.193359375 440.9880981445312 2880.666748046875 C 440.6127624511719 2880.140380859375 440.51513671875 2879.46484375 440.7260131835938 2878.853515625 L 446.0755310058594 2863.34765625 C 446.3537902832031 2862.541259765625 447.1130676269531 2862 447.9661865234375 2862 C 447.9662475585938 2862 447.9662170410156 2862 447.9662475585938 2862 C 448.8194580078125 2862 449.5786743164062 2862.541259765625 449.8568725585938 2863.347900390625 L 455.2051696777344 2878.853759765625 C 455.4159851074219 2879.46484375 455.318359375 2880.140380859375 454.9430236816406 2880.666748046875 C 454.5677185058594 2881.193359375 453.9610290527344 2881.505859375 453.3144836425781 2881.505859375 Z"
         id="path8" />
    </g>
    <g
       class="a"
       transform="translate(0 -5.169)"
       id="g16">
      <path
         class="c"
         d="M 444.9188842773438 2885.675048828125 L 443.4953002929688 2885.675048828125 L 435.6166687011719 2885.675048828125 L 434.1929626464844 2885.675048828125 L 434.6759643554688 2884.335693359375 L 438.6157531738281 2873.41162109375 L 439.5565490722656 2870.80322265625 L 440.4971618652344 2873.411865234375 L 444.4360046386719 2884.3359375 L 444.9188842773438 2885.675048828125 Z"
         id="path12" />
      <path
         class="d"
         d="M 443.4953002929688 2884.675048828125 L 439.5564270019531 2873.7509765625 L 435.6166687011719 2884.675048828125 L 443.4953002929688 2884.675048828125 M 443.4953002929688 2886.675048828125 L 435.6166687011719 2886.675048828125 C 434.9651794433594 2886.675048828125 434.3545227050781 2886.357666015625 433.9800415039062 2885.82470703125 C 433.6055908203125 2885.29150390625 433.5142517089844 2884.609375 433.7352905273438 2883.99658203125 L 437.675048828125 2873.072509765625 C 437.9609985351562 2872.279541015625 438.7135314941406 2871.7509765625 439.5564270019531 2871.7509765625 C 439.5564880371094 2871.7509765625 439.5564575195312 2871.7509765625 439.5564880371094 2871.7509765625 C 440.3994750976562 2871.7509765625 441.1519165039062 2872.279541015625 441.4378662109375 2873.072509765625 L 445.3767395019531 2883.99658203125 C 445.5977172851562 2884.609619140625 445.50634765625 2885.29150390625 445.1318664550781 2885.82470703125 C 444.7574157714844 2886.357666015625 444.1467590332031 2886.675048828125 443.4953002929688 2886.675048828125 Z"
         id="path14" />
    </g>
    <g
       class="a"
       transform="translate(-11.867 -7.952)"
       id="g22">
      <path
         class="c"
         d="M 467.0572509765625 2888.45751953125 L 465.5184936523438 2888.45751953125 L 458.0010986328125 2888.45751953125 L 456.46240234375 2888.45751953125 L 457.0872802734375 2887.051513671875 L 460.845703125 2878.593994140625 L 461.7594604492188 2876.53759765625 L 462.67333984375 2878.59375 L 466.4323120117188 2887.05126953125 L 467.0572509765625 2888.45751953125 Z"
         id="path18" />
      <path
         class="d"
         d="M 465.5184936523438 2887.45751953125 L 461.759521484375 2879 L 458.0010986328125 2887.45751953125 L 465.5184936523438 2887.45751953125 M 465.5184936523438 2889.45751953125 L 458.0010986328125 2889.45751953125 C 457.3240966796875 2889.45751953125 456.6930541992188 2889.114990234375 456.3241271972656 2888.54736328125 C 455.9552307128906 2887.979736328125 455.8984985351562 2887.263916015625 456.1734313964844 2886.645263671875 L 459.9318542480469 2878.187744140625 C 460.2528381347656 2877.465576171875 460.9690856933594 2877 461.7594909667969 2877 C 462.5498657226562 2877 463.26611328125 2877.46533203125 463.587158203125 2878.187744140625 L 467.3461303710938 2886.645263671875 C 467.6210632324219 2887.263916015625 467.5643920898438 2887.979736328125 467.1954956054688 2888.54736328125 C 466.8265686035156 2889.114990234375 466.1955261230469 2889.45751953125 465.5184936523438 2889.45751953125 Z"
         id="path20" />
    </g>
    <g
       class="b"
       transform="translate(450.363 2864.94)"
       id="g28">
      <circle
         class="c"
         cx="0.94"
         cy="0.94"
         r="0.94"
         id="circle24" />
      <circle
         class="e"
         cx="0.94"
         cy="0.94"
         r="1.94"
         id="circle26" />
    </g>
  </g>
</svg>
