<?xml version="1.0" encoding="UTF-8" standalone="no"?>
<svg
   xmlns:dc="http://purl.org/dc/elements/1.1/"
   xmlns:cc="http://creativecommons.org/ns#"
   xmlns:rdf="http://www.w3.org/1999/02/22-rdf-syntax-ns#"
   xmlns:svg="http://www.w3.org/2000/svg"
   xmlns="http://www.w3.org/2000/svg"
   id="svg912"
   version="1.1"
   viewBox="0 0 5.6840439 5.6845727"
   height="5.6845727mm"
   width="5.6840439mm">
  <defs
     id="defs906" />
  <metadata
     id="metadata909">
    <rdf:RDF>
      <cc:Work
         rdf:about="">
        <dc:format>image/svg+xml</dc:format>
        <dc:type
           rdf:resource="http://purl.org/dc/dcmitype/StillImage" />
        <dc:title></dc:title>
      </cc:Work>
    </rdf:RDF>
  </metadata>
  <g
     transform="translate(69.365827,-105.16962)"
     id="layer1">
    <g
       id="g36"
       transform="matrix(0.26458333,0,0,0.26458333,-227.14745,-449.88546)">
      <path
         style="fill:#585955;stroke:#585955;stroke-width:0.5px"
         id="path12"
         transform="translate(-58.567,-104.591)"
         d="m 661.666,2213.125 -0.18,-0.1 0.152,-0.09 a 0.05,0.05 0 0 0 0.018,-0.069 0.049,0.049 0 0 0 -0.068,-0.016 l -0.2,0.118 -0.322,-0.187 0.322,-0.186 0.2,0.119 a 0.04,0.04 0 0 0 0.024,0.01 0.055,0.055 0 0 0 0.044,-0.024 0.05,0.05 0 0 0 -0.018,-0.069 l -0.152,-0.091 0.18,-0.1 a 0.05,0.05 0 1 0 -0.051,-0.086 l -0.181,0.1 v -0.181 a 0.05,0.05 0 0 0 -0.05,-0.051 0.051,0.051 0 0 0 -0.05,0.051 v 0.239 l -0.32,0.186 v -0.376 l 0.2,-0.115 a 0.051,0.051 0 0 0 0.02,-0.069 0.048,0.048 0 0 0 -0.068,-0.018 l -0.154,0.087 V 2212 a 0.051,0.051 0 0 0 -0.051,-0.051 0.05,0.05 0 0 0 -0.05,0.051 v 0.207 l -0.159,-0.089 a 0.048,0.048 0 0 0 -0.067,0.018 0.05,0.05 0 0 0 0.019,0.068 l 0.207,0.117 v 0.372 l -0.327,-0.189 v -0.233 a 0.048,0.048 0 0 0 -0.049,-0.051 v 0 a 0.051,0.051 0 0 0 -0.05,0.051 v 0.176 l -0.176,-0.1 a 0.049,0.049 0 0 0 -0.068,0.018 0.05,0.05 0 0 0 0.018,0.069 l 0.178,0.1 -0.156,0.093 a 0.048,0.048 0 0 0 -0.017,0.069 0.046,0.046 0 0 0 0.042,0.024 0.048,0.048 0 0 0 0.026,-0.01 l 0.2,-0.12 0.326,0.187 -0.326,0.189 -0.2,-0.12 a 0.049,0.049 0 0 0 -0.069,0.016 0.051,0.051 0 0 0 0.017,0.069 l 0.156,0.092 -0.178,0.1 a 0.05,0.05 0 0 0 -0.018,0.069 0.046,0.046 0 0 0 0.042,0.025 0.089,0.089 0 0 0 0.025,-0.01 l 0.176,-0.1 v 0.176 a 0.05,0.05 0 0 0 0.05,0.05 v 0 a 0.05,0.05 0 0 0 0.049,-0.052 v -0.233 l 0.327,-0.187 v 0.37 l -0.207,0.117 a 0.049,0.049 0 0 0 -0.019,0.069 0.046,0.046 0 0 0 0.042,0.025 0.049,0.049 0 0 0 0.024,0 l 0.159,-0.09 v 0.21 a 0.049,0.049 0 0 0 0.05,0.05 0.05,0.05 0 0 0 0.051,-0.05 v -0.207 l 0.154,0.087 a 0.049,0.049 0 0 0 0.024,0 0.047,0.047 0 0 0 0.044,-0.025 0.05,0.05 0 0 0 -0.02,-0.069 l -0.2,-0.113 v -0.376 l 0.32,0.185 v 0.237 a 0.05,0.05 0 0 0 0.05,0.052 0.049,0.049 0 0 0 0.05,-0.05 v -0.182 l 0.181,0.106 a 0.053,0.053 0 0 0 0.026,0 0.046,0.046 0 0 0 0.042,-0.023 0.05,0.05 0 0 0 -0.014,-0.07 z"
         class="c" />
      <g
         id="g34"
         transform="translate(596.344,2097.846)">
        <g
           id="g32">
          <path
             style="fill:#585955"
             id="path14"
             transform="translate(-422.807,-2157.791)"
             d="m 433.272,2179.273 c 0,-0.067 -0.06,-0.057 -0.1,-0.076 a 0.955,0.955 0 0 1 -0.6,-0.9 c -0.005,-0.646 -0.014,-1.292 0,-1.938 a 0.957,0.957 0 0 1 1.443,-0.856 0.838,0.838 0 0 1 0.481,0.724 c 0.03,0.731 0.037,1.464 0,2.195 a 0.893,0.893 0 0 1 -0.618,0.792 c -0.044,0.018 -0.107,0 -0.131,0.062 z"
             class="d" />
          <path
             style="fill:#585955"
             id="path16"
             transform="translate(-642.631,-1937.836)"
             d="m 664.11,1948.817 c -0.081,0.062 -0.084,0.167 -0.135,0.247 a 0.9,0.9 0 0 1 -0.767,0.474 c -0.691,0.012 -1.383,0.018 -2.074,0 a 0.949,0.949 0 0 1 -0.929,-0.972 0.962,0.962 0 0 1 0.948,-0.955 c 0.657,-0.014 1.314,-0.011 1.971,0 a 0.949,0.949 0 0 1 0.935,0.67 c 0.01,0.026 0.01,0.058 0.049,0.058 z"
             class="d" />
          <path
             style="fill:#585955"
             id="path18"
             transform="translate(-148,-1937.836)"
             d="m 148,1948.371 a 1.228,1.228 0 0 1 0.445,-0.606 0.963,0.963 0 0 1 0.5,-0.156 c 0.663,0 1.326,-0.017 1.988,0 a 0.952,0.952 0 0 1 0.847,1.424 0.846,0.846 0 0 1 -0.763,0.5 c -0.691,0.017 -1.383,0.017 -2.074,0 a 0.929,0.929 0 0 1 -0.9,-0.673 c -0.012,-0.031 -0.008,-0.07 -0.047,-0.086 z"
             class="d" />
          <path
             style="fill:#585955"
             id="path20"
             transform="translate(-422.657,-1663)"
             d="m 433.6,1663 c 0.044,0.06 0.119,0.051 0.178,0.08 a 0.944,0.944 0 0 1 0.583,0.875 c 0.009,0.657 0.016,1.314 0,1.971 a 0.957,0.957 0 0 1 -1.449,0.843 0.844,0.844 0 0 1 -0.475,-0.728 c -0.028,-0.725 -0.033,-1.451 0,-2.175 a 0.9,0.9 0 0 1 0.591,-0.794 c 0.043,-0.02 0.106,-0.01 0.125,-0.072 z"
             class="d" />
          <path
             style="fill:#585955"
             id="path22"
             transform="translate(-285.528,-1800.395)"
             d="m 296.274,1805.277 a 5.854,5.854 0 1 1 -5.86,5.849 5.844,5.844 0 0 1 5.86,-5.849 z m -0.018,9.762 a 3.907,3.907 0 1 0 -3.9,-3.912 3.905,3.905 0 0 0 3.901,3.912 z"
             class="d" />
          <path
             style="fill:#585955"
             id="path24"
             transform="translate(-578.241,-1743.334)"
             d="m 596.861,1747.177 a 1,1 0 0 1 -0.253,0.638 c -0.485,0.492 -0.966,0.987 -1.465,1.463 a 0.967,0.967 0 0 1 -1.367,-1.363 c 0.48,-0.5 0.97,-1 1.478,-1.474 a 0.887,0.887 0 0 1 1.036,-0.15 0.968,0.968 0 0 1 0.571,0.886 z"
             class="d" />
          <path
             style="fill:#585955"
             id="path26"
             transform="translate(-578.257,-2093.215)"
             d="m 596.877,2110.884 a 0.96,0.96 0 0 1 -0.591,0.865 0.9,0.9 0 0 1 -1.034,-0.172 c -0.5,-0.47 -0.979,-0.958 -1.453,-1.451 a 0.966,0.966 0 0 1 1.349,-1.379 c 0.509,0.482 1,0.985 1.49,1.487 a 0.924,0.924 0 0 1 0.239,0.65 z"
             class="d" />
          <path
             style="fill:#585955"
             id="path28"
             transform="translate(-228.344,-2093.211)"
             d="m 232.181,2111.835 a 0.968,0.968 0 0 1 -0.881,-0.573 0.89,0.89 0 0 1 0.151,-1.036 c 0.471,-0.5 0.962,-0.99 1.461,-1.468 a 0.95,0.95 0 0 1 1.342,0.039 0.96,0.96 0 0 1 0.01,1.345 c -0.465,0.479 -0.941,0.948 -1.415,1.418 a 1.036,1.036 0 0 1 -0.668,0.275 z"
             class="d" />
          <path
             style="fill:#585955"
             id="path30"
             transform="translate(-228.454,-1743.554)"
             d="m 233.68,1749.747 a 1,1 0 0 1 -0.673,-0.268 c -0.476,-0.468 -0.951,-0.937 -1.415,-1.417 a 0.969,0.969 0 0 1 1.379,-1.361 c 0.474,0.462 0.946,0.927 1.4,1.406 a 0.905,0.905 0 0 1 0.2,1.03 0.966,0.966 0 0 1 -0.891,0.61 z"
             class="d" />
        </g>
      </g>
    </g>
  </g>
</svg>
