<?xml version="1.0" encoding="UTF-8" standalone="no"?>
<svg
   xmlns:dc="http://purl.org/dc/elements/1.1/"
   xmlns:cc="http://creativecommons.org/ns#"
   xmlns:rdf="http://www.w3.org/1999/02/22-rdf-syntax-ns#"
   xmlns:svg="http://www.w3.org/2000/svg"
   xmlns="http://www.w3.org/2000/svg"
   id="svg4220"
   version="1.1"
   viewBox="0 0 3.1749989 5.5562486"
   height="20.999994"
   width="11.999996">
  <defs
     id="defs4214" />
  <metadata
     id="metadata4217">
    <rdf:RDF>
      <cc:Work
         rdf:about="">
        <dc:format>image/svg+xml</dc:format>
        <dc:type
           rdf:resource="http://purl.org/dc/dcmitype/StillImage" />
        <dc:title></dc:title>
      </cc:Work>
    </rdf:RDF>
  </metadata>
  <g
     transform="translate(88.522023,-113.54925)"
     id="layer1">
    <g
       style="fill:#ffffff"
       transform="matrix(0.01240234,0,0,0.01240234,-90.109523,113.15238)"
       id="g4187">
      <path
         style="fill:#ffffff"
         d="m 256,32 c -0.46,0 -0.917,0.011 -1.376,0.015 l 5.747,0.057 C 258.92,32.029 257.464,32 256,32 Z"
         id="path4179" />
      <path
         style="fill:#ffffff"
         d="m 378.553,193.211 c -0.195,0.064 -0.414,0.16 -0.619,0.269 -34.234,13.289 -76.337,22.52 -121.886,22.475 -45.52,-0.076 -87.626,-9.398 -121.81,-22.772 -0.19,-0.104 -0.429,-0.192 -0.647,-0.265 -1.531,-0.554 -3.146,-0.897 -4.841,-0.917 -0.254,-0.001 -0.5,-0.013 -0.75,0 V 368.013 C 128,429.892 185.308,480 256,480 c 21.992,0 42.687,-4.803 60.766,-13.355 0.095,-0.045 0.191,-0.087 0.286,-0.133 0.026,-0.013 0.054,-0.026 0.08,-0.039 4.87,-2.344 9.581,-4.963 14.122,-7.828 C 363.219,438.275 384,405.271 384,368.012 V 192 c -0.191,-0.008 -0.496,0 -0.689,0 -1.727,0.014 -3.219,0.651 -4.758,1.211 z m -61.421,273.213 c -0.026,0.013 -0.054,0.026 -0.08,0.039 -0.095,0.045 -0.191,0.088 -0.286,0.133 0.095,-0.045 0.191,-0.088 0.286,-0.133 0.026,-0.013 0.053,-0.026 0.08,-0.039 4.87,-2.342 9.581,-4.961 14.122,-7.825 -4.496,2.864 -9.21,5.484 -14.122,7.825 z"
         id="path4181" />
      <path
         style="fill:#ffffff"
         d="m 331.254,458.599 c -4.541,2.864 -9.252,5.483 -14.122,7.825 4.912,-2.341 9.626,-4.961 14.122,-7.825 z"
         id="path4183" />
      <path
         style="fill:#ffffff"
         d="m 260.371,32.072 -5.747,-0.057 C 184.566,32.662 128,82.547 128,144 v 22.708 c 2.158,2.024 4.593,3.755 7.251,5.115 0.673,0.337 1.386,0.659 2.059,0.996 0.032,0.027 0.077,0.01 0.109,0.036 22.757,10.35 51.429,15.801 83.415,19.006 0.694,0.078 1.397,0.107 2.148,0.12 11.258,0.016 17.014,0.019 17.018,-10.57 V 96 c 0,-8.836 7.164,-16 16,-16 8.836,0 16,7.164 16,16 v 86.328 c -0.088,9.672 5.926,9.72 17.2,9.749 0.717,-0.016 1.415,-0.045 2.081,-0.105 0.062,-0.003 0.141,0.005 0.244,-0.02 31.682,-3.119 60.143,-8.405 82.808,-18.59 1.162,-0.545 2.291,-1.056 3.407,-1.581 2.271,-1.232 4.365,-2.743 6.26,-4.466 V 144 C 384,83.425 329.039,34.09 260.371,32.072 Z"
         id="path4185" />
    </g>
  </g>
</svg>
