<?xml version="1.0" encoding="UTF-8" standalone="no"?>
<!-- Created with Inkscape (http://www.inkscape.org/) -->

<svg
   xmlns:dc="http://purl.org/dc/elements/1.1/"
   xmlns:cc="http://creativecommons.org/ns#"
   xmlns:rdf="http://www.w3.org/1999/02/22-rdf-syntax-ns#"
   xmlns:svg="http://www.w3.org/2000/svg"
   xmlns="http://www.w3.org/2000/svg"
   xmlns:sodipodi="http://sodipodi.sourceforge.net/DTD/sodipodi-0.dtd"
   xmlns:inkscape="http://www.inkscape.org/namespaces/inkscape"
   width="18.630106mm"
   height="18.630106mm"
   viewBox="0 0 18.630106 18.630106"
   version="1.1"
   id="svg5002"
   inkscape:version="0.92.3 (2405546, 2018-03-11)"
   sodipodi:docname="icon-cancun.svg">
  <defs
     id="defs4996" />
  <sodipodi:namedview
     id="base"
     pagecolor="#ffffff"
     bordercolor="#666666"
     borderopacity="1.0"
     inkscape:pageopacity="0.0"
     inkscape:pageshadow="2"
     inkscape:zoom="2.8"
     inkscape:cx="55.260789"
     inkscape:cy="-27.862793"
     inkscape:document-units="px"
     inkscape:current-layer="layer1"
     showgrid="false"
     fit-margin-top="0"
     fit-margin-left="0"
     fit-margin-right="0"
     fit-margin-bottom="0"
     inkscape:window-width="1920"
     inkscape:window-height="1052"
     inkscape:window-x="1920"
     inkscape:window-y="0"
     inkscape:window-maximized="1" />
  <metadata
     id="metadata4999">
    <rdf:RDF>
      <cc:Work
         rdf:about="">
        <dc:format>image/svg+xml</dc:format>
        <dc:type
           rdf:resource="http://purl.org/dc/dcmitype/StillImage" />
        <dc:title></dc:title>
      </cc:Work>
    </rdf:RDF>
  </metadata>
  <g
     inkscape:label="Capa 1"
     inkscape:groupmode="layer"
     id="layer1"
     transform="translate(345.71386,-91.89328)">
    <rect
       style="fill:none;stroke-width:0.14897174"
       y="91.89328"
       x="-345.71387"
       class="a"
       width="18.630106"
       height="18.630106"
       id="rect4797" />
    <g
       transform="matrix(0.14897173,0,0,0.14897173,-340.95257,96.53181)"
       id="g4815">
      <path
         style="fill:#ffffff"
         inkscape:connector-curvature="0"
         class="b"
         d="M 369.876,525.469 V 518.9 a 1.4,1.4 0 0 0 -2.8,0 v 6.571 a 1.4,1.4 0 0 0 2.8,0 z m 0,0"
         transform="translate(-337.349,-517.5)"
         id="path4799" />
      <path
         style="fill:#ffffff"
         inkscape:connector-curvature="0"
         class="b"
         d="m 481.407,665.591 h 6.571 a 1.4,1.4 0 0 0 0,-2.8 h -6.571 a 1.4,1.4 0 0 0 0,2.8 z m 0,0"
         transform="translate(-427.352,-633.298)"
         id="path4801" />
      <path
         style="fill:#ffffff"
         inkscape:connector-curvature="0"
         class="b"
         d="m 225.937,662.795 a 1.4,1.4 0 1 0 0,2.8 h 6.57 a 1.4,1.4 0 1 0 0,-2.8 z m 0,0"
         transform="translate(-223.745,-633.298)"
         id="path4803" />
      <path
         style="fill:#ffffff"
         inkscape:connector-curvature="0"
         class="b"
         d="m 452.234,560.049 -4.609,4.608 a 1.4,1.4 0 1 0 1.977,1.978 l 4.609,-4.608 a 1.4,1.4 0 0 0 -1.977,-1.977 z m 0,0"
         transform="translate(-401.209,-551.085)"
         id="path4805" />
      <path
         style="fill:#ffffff"
         inkscape:connector-curvature="0"
         class="b"
         d="m 271.93,566.634 a 1.4,1.4 0 0 0 1.977,-1.978 l -4.608,-4.608 a 1.4,1.4 0 0 0 -1.977,1.977 z m 0,0"
         transform="translate(-257.516,-551.085)"
         id="path4807" />
      <path
         style="fill:#ffffff"
         inkscape:connector-curvature="0"
         class="b"
         d="m 281.91,609.254 a 8.794,8.794 0 0 0 -5.815,2.087 6.377,6.377 0 0 1 -8.334,0 16.592,16.592 0 0 0 -1.421,-0.96 17.037,17.037 0 1 0 -28.649,-0.055 15.766,15.766 0 0 0 -1.517,1.015 6.375,6.375 0 0 1 -8.333,0 8.788,8.788 0 0 0 -5.813,-2.087 1.4,1.4 0 0 0 0,2.8 6.116,6.116 0 0 1 4.167,1.55 9.139,9.139 0 0 0 11.626,0 6.375,6.375 0 0 1 8.333,0 9.14,9.14 0 0 0 11.627,0 6.377,6.377 0 0 1 8.334,0 9.14,9.14 0 0 0 11.628,0 6.112,6.112 0 0 1 4.167,-1.55 1.4,1.4 0 0 0 0,-2.8 z m -25.776,2.087 a 6.376,6.376 0 0 1 -8.334,0 8.788,8.788 0 0 0 -5.813,-2.087 10.113,10.113 0 0 0 -1.57,0.118 14.24,14.24 0 1 1 25.856,-8.234 14.066,14.066 0 0 1 -2.638,8.254 10.01,10.01 0 0 0 -1.689,-0.137 8.792,8.792 0 0 0 -5.814,2.087 z m 0,0"
         transform="translate(-220.63,-570.575)"
         id="path4809" />
      <path
         style="fill:#ffffff"
         inkscape:connector-curvature="0"
         class="b"
         d="m 281.91,746.419 a 8.8,8.8 0 0 0 -5.815,2.087 6.375,6.375 0 0 1 -8.334,0 9.143,9.143 0 0 0 -11.628,0 6.374,6.374 0 0 1 -8.334,0 9.142,9.142 0 0 0 -11.627,0 6.373,6.373 0 0 1 -8.333,0 8.791,8.791 0 0 0 -5.813,-2.087 1.4,1.4 0 0 0 0,2.8 6.11,6.11 0 0 1 4.167,1.55 9.142,9.142 0 0 0 11.627,0 6.374,6.374 0 0 1 8.333,0 9.142,9.142 0 0 0 11.627,0 6.374,6.374 0 0 1 8.334,0 9.143,9.143 0 0 0 11.628,0 6.109,6.109 0 0 1 4.167,-1.55 1.4,1.4 0 0 0 0,-2.8 z m 0,0"
         transform="translate(-220.63,-699.946)"
         id="path4811" />
      <path
         style="fill:#ffffff"
         inkscape:connector-curvature="0"
         class="b"
         d="m 281.91,784.809 a 8.8,8.8 0 0 0 -5.81,2.091 6.375,6.375 0 0 1 -8.334,0 9.141,9.141 0 0 0 -11.628,0 6.374,6.374 0 0 1 -8.334,0 9.14,9.14 0 0 0 -11.627,0 6.373,6.373 0 0 1 -8.333,0 8.789,8.789 0 0 0 -5.813,-2.087 1.4,1.4 0 1 0 0,2.8 6.111,6.111 0 0 1 4.167,1.55 9.14,9.14 0 0 0 11.627,0 6.374,6.374 0 0 1 8.333,0 9.141,9.141 0 0 0 11.627,0 6.372,6.372 0 0 1 8.334,0 9.143,9.143 0 0 0 11.628,0 6.106,6.106 0 0 1 4.167,-1.551 1.4,1.4 0 1 0 0,-2.8 z m 0,0"
         transform="translate(-220.63,-730.542)"
         id="path4813" />
    </g>
  </g>
</svg>
