<?xml version="1.0" encoding="UTF-8" standalone="no"?>
<svg
   xmlns:dc="http://purl.org/dc/elements/1.1/"
   xmlns:cc="http://creativecommons.org/ns#"
   xmlns:rdf="http://www.w3.org/1999/02/22-rdf-syntax-ns#"
   xmlns:svg="http://www.w3.org/2000/svg"
   xmlns="http://www.w3.org/2000/svg"
   id="svg5657"
   version="1.1"
   viewBox="0 0 18.630106 18.630106"
   height="18.630106mm"
   width="18.630106mm">
  <defs
     id="defs5651" />
  <metadata
     id="metadata5654">
    <rdf:RDF>
      <cc:Work
         rdf:about="">
        <dc:format>image/svg+xml</dc:format>
        <dc:type
           rdf:resource="http://purl.org/dc/dcmitype/StillImage" />
        <dc:title></dc:title>
      </cc:Work>
    </rdf:RDF>
  </metadata>
  <g
     transform="translate(73.571006,-103.23256)"
     id="layer1">
    <rect
       id="rect4841"
       height="18.630106"
       width="18.630106"
       class="a"
       x="-73.570999"
       y="103.23257"
       style="fill:none;stroke-width:0.14904085" />
    <g
       id="g4885"
       transform="matrix(0.14904085,0,0,0.14904085,-686.04394,224.36805)">
      <path
         id="path4843"
         transform="translate(0,-23.434)"
         d="m 4199.474,-704.147 h -5.928 v -8.153 a 8.2,8.2 0 0 0 7.063,-8.111 8.209,8.209 0 0 0 -8.2,-8.2 8.209,8.209 0 0 0 -8.2,8.2 8.2,8.2 0 0 0 7.063,8.111 v 8.156 h -39.853 v -6.056 a 6.832,6.832 0 0 0 5.691,-6.724 6.834,6.834 0 0 0 -6.827,-6.826 6.834,6.834 0 0 0 -6.826,6.826 6.832,6.832 0 0 0 5.69,6.724 v 6.055 h -4.555 a 1.136,1.136 0 0 0 -1.136,1.136 1.136,1.136 0 0 0 1.136,1.136 h 54.879 a 1.136,1.136 0 0 0 1.136,-1.136 1.136,1.136 0 0 0 -1.133,-1.138 z m -12.991,-16.266 a 5.934,5.934 0 0 1 5.928,-5.928 5.934,5.934 0 0 1 5.928,5.928 5.934,5.934 0 0 1 -5.928,5.927 5.934,5.934 0 0 1 -5.929,-5.927 z m -40.752,3.487 a 4.56,4.56 0 0 1 4.555,-4.555 4.56,4.56 0 0 1 4.555,4.555 4.56,4.56 0 0 1 -4.555,4.555 4.56,4.56 0 0 1 -4.556,-4.555 z"
         class="b"
         style="fill:#ffffff" />
      <path
         id="path4845"
         transform="translate(-5.582,-14.043)"
         d="M 4155.867,-735.667 A 1.136,1.136 0 0 0 4157,-736.8 v -8.5 h 16.119 v 28.115 a 1.136,1.136 0 0 0 1.136,1.136 1.136,1.136 0 0 0 1.136,-1.136 v -29.251 a 1.136,1.136 0 0 0 -1.136,-1.136 h -18.391 a 1.136,1.136 0 0 0 -1.136,1.136 v 9.638 a 1.136,1.136 0 0 0 1.139,1.131 z"
         class="b"
         style="fill:#ffffff" />
      <path
         id="path4847"
         transform="translate(-19.061,-18.713)"
         d="m 4184.225,-737.01 a 1.136,1.136 0 0 0 -1.136,-1.136 1.136,1.136 0 0 0 -1.136,1.136 v 4.877 a 1.136,1.136 0 0 0 1.136,1.136 1.136,1.136 0 0 0 1.136,-1.136 z"
         class="b"
         style="fill:#ffffff" />
      <path
         id="path4849"
         transform="translate(-14.601,-18.713)"
         d="m 4175.218,-737.01 a 1.136,1.136 0 0 0 -1.136,-1.136 1.136,1.136 0 0 0 -1.136,1.136 v 4.877 a 1.136,1.136 0 0 0 1.136,1.136 1.136,1.136 0 0 0 1.136,-1.136 z"
         class="b"
         style="fill:#ffffff" />
      <path
         id="path4851"
         transform="translate(-10.142,-18.713)"
         d="m 4163.94,-737.01 v 4.877 a 1.136,1.136 0 0 0 1.136,1.136 1.136,1.136 0 0 0 1.136,-1.136 v -4.877 a 1.136,1.136 0 0 0 -1.136,-1.136 1.136,1.136 0 0 0 -1.136,1.136 z"
         class="b"
         style="fill:#ffffff" />
      <path
         id="path4853"
         transform="translate(-32.981,-18.713)"
         d="m 4212.335,-737.01 a 1.136,1.136 0 0 0 -1.136,-1.136 1.136,1.136 0 0 0 -1.136,1.136 v 4.877 a 1.136,1.136 0 0 0 1.137,1.133 1.136,1.136 0 0 0 1.136,-1.136 z"
         class="b"
         style="fill:#ffffff" />
      <path
         id="path4855"
         transform="translate(-28.521,-18.713)"
         d="m 4203.33,-737.01 a 1.136,1.136 0 0 0 -1.136,-1.136 1.136,1.136 0 0 0 -1.136,1.136 v 4.877 a 1.136,1.136 0 0 0 1.136,1.136 1.136,1.136 0 0 0 1.136,-1.136 z"
         class="b"
         style="fill:#ffffff" />
      <path
         id="path4857"
         transform="translate(-37.441,-9.225)"
         d="m 4219.07,-756.172 v 4.878 a 1.136,1.136 0 0 0 1.136,1.136 1.136,1.136 0 0 0 1.136,-1.136 v -4.878 a 1.136,1.136 0 0 0 -1.136,-1.136 1.136,1.136 0 0 0 -1.136,1.136 z"
         class="b"
         style="fill:#ffffff" />
      <path
         id="path4859"
         transform="translate(-32.981,-9.225)"
         d="m 4212.335,-756.172 a 1.136,1.136 0 0 0 -1.136,-1.136 1.136,1.136 0 0 0 -1.136,1.136 v 4.878 a 1.136,1.136 0 0 0 1.136,1.136 1.136,1.136 0 0 0 1.136,-1.136 z"
         class="b"
         style="fill:#ffffff" />
      <path
         id="path4861"
         transform="translate(-28.521,-9.225)"
         d="m 4203.33,-756.172 a 1.137,1.137 0 0 0 -1.136,-1.136 1.136,1.136 0 0 0 -1.136,1.136 v 4.878 a 1.136,1.136 0 0 0 1.136,1.136 1.136,1.136 0 0 0 1.136,-1.136 z"
         class="b"
         style="fill:#ffffff" />
      <path
         id="path4863"
         transform="translate(-41.901,-9.225)"
         d="m 4228.078,-756.172 v 4.878 a 1.135,1.135 0 0 0 1.136,1.136 1.136,1.136 0 0 0 1.136,-1.136 v -4.878 a 1.136,1.136 0 0 0 -1.136,-1.136 1.136,1.136 0 0 0 -1.136,1.136 z"
         class="b"
         style="fill:#ffffff" />
      <path
         id="path4865"
         transform="translate(-19.061,-28.201)"
         d="m 4184.225,-717.849 a 1.136,1.136 0 0 0 -1.136,-1.136 1.136,1.136 0 0 0 -1.136,1.136 v 4.878 a 1.136,1.136 0 0 0 1.136,1.136 1.136,1.136 0 0 0 1.136,-1.136 z"
         class="b"
         style="fill:#ffffff" />
      <path
         id="path4867"
         transform="translate(-14.601,-28.201)"
         d="m 4175.218,-717.849 a 1.136,1.136 0 0 0 -1.136,-1.136 1.137,1.137 0 0 0 -1.136,1.136 v 4.878 a 1.136,1.136 0 0 0 1.136,1.136 1.136,1.136 0 0 0 1.136,-1.136 z"
         class="b"
         style="fill:#ffffff" />
      <path
         id="path4869"
         transform="translate(-19.061,-37.689)"
         d="m 4183.089,-699.823 a 1.136,1.136 0 0 0 -1.136,1.136 v 5.143 a 1.136,1.136 0 0 0 1.136,1.136 1.136,1.136 0 0 0 1.136,-1.136 v -5.143 a 1.136,1.136 0 0 0 -1.136,-1.136 z"
         class="b"
         style="fill:#ffffff" />
      <path
         id="path4871"
         transform="translate(-14.601,-37.689)"
         d="m 4174.082,-699.823 a 1.136,1.136 0 0 0 -1.136,1.136 v 5.143 a 1.137,1.137 0 0 0 1.136,1.136 1.136,1.136 0 0 0 1.136,-1.136 v -5.143 a 1.136,1.136 0 0 0 -1.136,-1.136 z"
         class="b"
         style="fill:#ffffff" />
      <path
         id="path4873"
         transform="translate(-32.981,-28.201)"
         d="m 4212.335,-717.849 a 1.136,1.136 0 0 0 -1.136,-1.136 1.136,1.136 0 0 0 -1.136,1.136 v 4.878 a 1.136,1.136 0 0 0 1.136,1.136 1.136,1.136 0 0 0 1.136,-1.136 z"
         class="b"
         style="fill:#ffffff" />
      <path
         id="path4875"
         transform="translate(-28.521,-28.201)"
         d="m 4203.33,-717.849 a 1.137,1.137 0 0 0 -1.136,-1.136 1.136,1.136 0 0 0 -1.136,1.136 v 4.878 a 1.136,1.136 0 0 0 1.136,1.136 1.136,1.136 0 0 0 1.136,-1.136 z"
         class="b"
         style="fill:#ffffff" />
      <path
         id="path4877"
         transform="translate(-32.981,-37.689)"
         d="m 4211.2,-699.823 a 1.136,1.136 0 0 0 -1.136,1.136 v 5.143 a 1.136,1.136 0 0 0 1.136,1.136 1.136,1.136 0 0 0 1.136,-1.136 v -5.143 a 1.136,1.136 0 0 0 -1.136,-1.136 z"
         class="b"
         style="fill:#ffffff" />
      <path
         id="path4879"
         transform="translate(-28.521,-37.689)"
         d="m 4202.194,-699.823 a 1.136,1.136 0 0 0 -1.136,1.136 v 5.143 a 1.136,1.136 0 0 0 1.136,1.136 1.137,1.137 0 0 0 1.136,-1.136 v -5.143 a 1.136,1.136 0 0 0 -1.136,-1.136 z"
         class="b"
         style="fill:#ffffff" />
      <path
         id="path4881"
         transform="translate(-10.142)"
         d="m 4165.076,-764.23 a 1.136,1.136 0 0 0 1.136,-1.136 v -5.128 l 3.417,-1.751 3.417,1.751 v 5.128 a 1.136,1.136 0 0 0 1.136,1.136 1.136,1.136 0 0 0 1.136,-1.136 v -5.822 a 1.137,1.137 0 0 0 -0.618,-1.011 l -3.936,-2.017 v -0.586 a 1.136,1.136 0 0 0 -1.136,-1.136 1.135,1.135 0 0 0 -1.136,1.136 v 0.586 l -3.936,2.016 a 1.136,1.136 0 0 0 -0.618,1.011 v 5.822 a 1.136,1.136 0 0 0 1.138,1.137 z"
         class="b"
         style="fill:#ffffff" />
      <path
         id="path4883"
         transform="translate(-23.621,-0.302)"
         d="m 4192.3,-763.99 a 1.136,1.136 0 0 0 1.136,-1.136 v -4.774 l 21.462,-2.99 v 17.466 a 1.136,1.136 0 0 0 1.136,1.136 1.136,1.136 0 0 0 1.136,-1.136 v -18.771 a 1.135,1.135 0 0 0 -0.39,-0.857 1.133,1.133 0 0 0 -0.9,-0.268 l -23.733,3.306 a 1.136,1.136 0 0 0 -0.979,1.125 v 5.761 a 1.136,1.136 0 0 0 1.132,1.138 z"
         class="b"
         style="fill:#ffffff" />
    </g>
  </g>
</svg>
