<?xml version="1.0" encoding="UTF-8" standalone="no"?>
<svg
   xmlns:dc="http://purl.org/dc/elements/1.1/"
   xmlns:cc="http://creativecommons.org/ns#"
   xmlns:rdf="http://www.w3.org/1999/02/22-rdf-syntax-ns#"
   xmlns:svg="http://www.w3.org/2000/svg"
   xmlns="http://www.w3.org/2000/svg"
   id="svg1726"
   version="1.1"
   viewBox="0 0 5.0430584 5.0439625"
   height="5.0439625mm"
   width="5.0430584mm">
  <defs
     id="defs1720" />
  <metadata
     id="metadata1723">
    <rdf:RDF>
      <cc:Work
         rdf:about="">
        <dc:format>image/svg+xml</dc:format>
        <dc:type
           rdf:resource="http://purl.org/dc/dcmitype/StillImage" />
        <dc:title></dc:title>
      </cc:Work>
    </rdf:RDF>
  </metadata>
  <g
     transform="translate(162.02743,-128.92449)"
     id="layer1">
    <path
       id="path1669"
       d="m -157.48655,129.42994 a 0.42095208,0.42095208 0 0 1 0.096,0.2883 0.67124792,0.67124792 0 0 1 -0.19214,0.38447 l -0.76893,0.76893 0.2883,2.01813 -0.2883,0.2883 -0.76894,-1.72982 -1.05705,1.05705 0.0962,0.8651 -0.19214,0.19214 -0.48138,-0.86566 -0.86566,-0.48138 0.19214,-0.19214 0.8651,0.0962 1.05705,-1.05705 -1.72982,-0.76893 0.2883,-0.28831 2.01813,0.28831 0.76893,-0.76894 a 0.67124792,0.67124792 0 0 1 0.38447,-0.19214 0.42095208,0.42095208 0 0 1 0.2883,0.096 m 0.28831,-0.2883 a 0.83290833,0.83290833 0 0 0 -0.57661,-0.21553 1.0498667,1.0498667 0 0 0 -0.67277,0.31169 l -0.62469,0.62469 -1.81645,-0.25949 a 0.40772292,0.40772292 0 0 0 -0.34592,0.11543 l -0.28831,0.2883 a 0.4079875,0.4079875 0 0 0 0.12255,0.66099 l 1.18745,0.52778 -0.49878,0.49877 -0.67015,-0.0745 a 0.40772292,0.40772292 0 0 0 -0.33265,0.11637 l -0.19214,0.19214 a 0.4079875,0.4079875 0 0 0 0.0902,0.64471 l 0.76332,0.42394 0.42395,0.76332 a 0.40772292,0.40772292 0 0 0 0.6447,0.0902 l 0.19214,-0.19214 a 0.40772292,0.40772292 0 0 0 0.11637,-0.33264 l -0.0745,-0.67015 0.49878,-0.49878 0.52778,1.18745 a 0.40772292,0.40772292 0 0 0 0.66098,0.12254 l 0.2883,-0.2883 a 0.40772292,0.40772292 0 0 0 0.11544,-0.34593 l -0.25949,-1.81644 0.62394,-0.62394 a 1.0498667,1.0498667 0 0 0 0.31169,-0.67277 0.83290833,0.83290833 0 0 0 -0.21553,-0.57661 z"
       class="c"
       style="fill:#2b00ff;stroke-width:0.26458332" />
  </g>
</svg>
