<?xml version="1.0" encoding="UTF-8" standalone="no"?>
<!-- Generator: Adobe Illustrator 23.0.1, SVG Export Plug-In . SVG Version: 6.00 Build 0)  -->

<svg
   xmlns:dc="http://purl.org/dc/elements/1.1/"
   xmlns:cc="http://creativecommons.org/ns#"
   xmlns:rdf="http://www.w3.org/1999/02/22-rdf-syntax-ns#"
   xmlns:svg="http://www.w3.org/2000/svg"
   xmlns="http://www.w3.org/2000/svg"
   xmlns:sodipodi="http://sodipodi.sourceforge.net/DTD/sodipodi-0.dtd"
   xmlns:inkscape="http://www.inkscape.org/namespaces/inkscape"
   version="1.1"
   id="Capa_1"
   x="0px"
   y="0px"
   viewBox="0 0 22 20"
   xml:space="preserve"
   sodipodi:docname="icon-.svg"
   width="22"
   height="20"
   inkscape:version="0.92.3 (2405546, 2018-03-11)"><metadata
   id="metadata29"><rdf:RDF><cc:Work
       rdf:about=""><dc:format>image/svg+xml</dc:format><dc:type
         rdf:resource="http://purl.org/dc/dcmitype/StillImage" /><dc:title></dc:title></cc:Work></rdf:RDF></metadata><defs
   id="defs27" /><sodipodi:namedview
   pagecolor="#ffffff"
   bordercolor="#666666"
   borderopacity="1"
   objecttolerance="10"
   gridtolerance="10"
   guidetolerance="10"
   inkscape:pageopacity="0"
   inkscape:pageshadow="2"
   inkscape:window-width="1869"
   inkscape:window-height="1025"
   id="namedview25"
   showgrid="false"
   fit-margin-top="0"
   fit-margin-left="0"
   fit-margin-right="0"
   fit-margin-bottom="0"
   inkscape:zoom="7.8666667"
   inkscape:cx="9.9999999"
   inkscape:cy="9.6999994"
   inkscape:window-x="51"
   inkscape:window-y="27"
   inkscape:window-maximized="1"
   inkscape:current-layer="Capa_1" />
<style
   type="text/css"
   id="style2">
	.st0{fill:#E0007A;}
</style>
<g
   id="g22"
   transform="matrix(1.0280374,0,0,1.025641,-5.140187,-5.3333332)">
	<g
   id="g6">
		<path
   class="st0"
   d="M 15.7,17.6 C 13.1,17.6 11,14.8 11,11.4 11,8 13.1,5.2 15.7,5.2 c 2.6,0 4.7,2.8 4.7,6.2 0,3.4 -2.1,6.2 -4.7,6.2 z m 0,-10.9 c -1.8,0 -3.2,2.1 -3.2,4.7 0,2.6 1.4,4.7 3.2,4.7 1.8,0 3.2,-2.1 3.2,-4.7 0,-2.5 -1.5,-4.7 -3.2,-4.7 z"
   id="path4"
   inkscape:connector-curvature="0"
   style="fill:#e0007a" />
	</g>
	<g
   id="g20">
		<g
   id="g10">
			<path
   class="st0"
   d="M 25.6,24.7 H 5.8 C 5.3,24.7 5,24.4 5,24 5,23.6 5.3,23.2 5.8,23.2 h 19 c -0.5,-4.4 -4.9,-5 -5.1,-5 -0.4,-0.1 -0.7,-0.4 -0.6,-0.8 0.1,-0.4 0.4,-0.7 0.8,-0.6 2.2,0.3 6.5,2.2 6.5,7.3 -0.1,0.3 -0.4,0.6 -0.8,0.6 z"
   id="path8"
   inkscape:connector-curvature="0"
   style="fill:#e0007a" />
		</g>
		<g
   id="g14">
			<path
   class="st0"
   d="M 25.6,24.7 H 5.8 C 5.3,24.7 5,24.4 5,24 5,23.6 5.3,23.2 5.8,23.2 h 19 c -0.5,-4 -5,-5 -5.2,-5.1 -0.4,-0.1 -0.7,-0.5 -0.6,-0.9 0.1,-0.4 0.5,-0.7 0.9,-0.6 2.2,0.5 6.4,2.6 6.4,7.3 0,0.5 -0.3,0.8 -0.7,0.8 z"
   id="path12"
   inkscape:connector-curvature="0"
   style="fill:#e0007a" />
		</g>
		<g
   id="g18">
			<path
   class="st0"
   d="M 25.6,24.7 H 5.8 C 5.3,24.7 5,24.4 5,24 c 0,-4.7 4.2,-6.8 6.4,-7.3 0.4,-0.1 0.8,0.2 0.9,0.6 0.1,0.4 -0.2,0.8 -0.6,0.9 -0.2,0 -4.7,1 -5.2,5.1 h 19 c 0.4,0 0.8,0.3 0.8,0.8 0,0.5 -0.3,0.6 -0.7,0.6 z"
   id="path16"
   inkscape:connector-curvature="0"
   style="fill:#e0007a" />
		</g>
	</g>
</g>
</svg>