<?xml version="1.0" encoding="UTF-8" standalone="no"?>
<svg
   xmlns:dc="http://purl.org/dc/elements/1.1/"
   xmlns:cc="http://creativecommons.org/ns#"
   xmlns:rdf="http://www.w3.org/1999/02/22-rdf-syntax-ns#"
   xmlns:svg="http://www.w3.org/2000/svg"
   xmlns="http://www.w3.org/2000/svg"
   xmlns:sodipodi="http://sodipodi.sourceforge.net/DTD/sodipodi-0.dtd"
   xmlns:inkscape="http://www.inkscape.org/namespaces/inkscape"
   width="125"
   height="125"
   viewBox="0 0 125 125"
   version="1.1"
   id="svg14"
   sodipodi:docname="NIEVE MOB.svg"
   inkscape:version="0.92.3 (2405546, 2018-03-11)">
  <metadata
     id="metadata18">
    <rdf:RDF>
      <cc:Work
         rdf:about="">
        <dc:format>image/svg+xml</dc:format>
        <dc:type
           rdf:resource="http://purl.org/dc/dcmitype/StillImage" />
        <dc:title></dc:title>
      </cc:Work>
    </rdf:RDF>
  </metadata>
  <sodipodi:namedview
     pagecolor="#ffffff"
     bordercolor="#666666"
     borderopacity="1"
     objecttolerance="10"
     gridtolerance="10"
     guidetolerance="10"
     inkscape:pageopacity="0"
     inkscape:pageshadow="2"
     inkscape:window-width="1869"
     inkscape:window-height="1025"
     id="namedview16"
     showgrid="false"
     fit-margin-top="0"
     fit-margin-left="0"
     fit-margin-right="0"
     fit-margin-bottom="0"
     inkscape:zoom="3.3516537"
     inkscape:cx="35.206508"
     inkscape:cy="35.206439"
     inkscape:window-x="51"
     inkscape:window-y="27"
     inkscape:window-maximized="1"
     inkscape:current-layer="svg14" />
  <defs
     id="defs4">
    <style
       id="style2">.a{fill:#72ddd3;}.b{fill:#fff;}</style>
  </defs>
  <rect
     style="fill:none;stroke-width:1.7752403"
     y="4.0999999e-05"
     x="3.1999998e-06"
     id="rect6"
     height="125"
     width="125"
     class="a" />
  <path
     style="fill:#ffffff;stroke-width:1.7752403"
     inkscape:connector-curvature="0"
     id="path8"
     d="m 84.323958,54.214122 c 0.03195,-0.390552 0.04616,-0.758027 0.04616,-1.116626 a 15.923905,15.923905 0 0 0 -15.8529,-15.95941 15.693124,15.693124 0 0 0 -12.905997,6.715734 10.768608,10.768608 0 0 0 -5.02393,-1.242668 10.914177,10.914177 0 0 0 -10.871572,10.93193 c 0,0.30179 0.01775,0.603581 0.04083,0.914248 a 10.189879,10.189879 0 0 0 -7.017525,9.67151 10.140173,10.140173 0 0 0 10.101117,10.154374 1.1397043,1.1397043 0 0 0 1.153907,-1.123727 1.1397043,1.1397043 0 0 0 -1.153907,-1.123727 7.8589888,7.8589888 0 0 1 -7.79508,-7.905145 7.9015946,7.9015946 0 0 1 6.225768,-7.743598 1.1255024,1.1255024 0 0 0 0.88762,-1.292375 8.8264948,8.8264948 0 0 1 -0.143794,-1.549785 8.6347688,8.6347688 0 0 1 8.565534,-8.6827 8.4394924,8.4394924 0 0 1 4.732791,1.448596 1.18231,1.18231 0 0 0 0.903597,0.177524 1.1503557,1.1503557 0 0 0 0.745601,-0.532572 13.427918,13.427918 0 0 1 11.547938,-6.56839 13.644497,13.644497 0 0 1 13.546859,13.710181 13.827347,13.827347 0 0 1 -0.147345,1.903058 1.1024242,1.1024242 0 0 0 0.237882,0.845014 1.1627824,1.1627824 0 0 0 0.788207,0.422507 7.8323602,7.8323602 0 0 1 7.012199,7.864315 7.8589888,7.8589888 0 0 1 -7.79508,7.905145 1.1397043,1.1397043 0 0 0 -1.153906,1.123727 1.1397043,1.1397043 0 0 0 1.153906,1.123727 10.140173,10.140173 0 0 0 10.101117,-10.154374 10.102893,10.102893 0 0 0 -7.929998,-9.916493 z"
     class="b" />
  <path
     style="fill:#ffffff;stroke-width:1.7752403"
     inkscape:connector-curvature="0"
     id="path10"
     d="m 75.266655,64.808745 a 1.2426682,1.2426682 0 0 0 -1.70068,-0.44736 l -2.606053,1.521381 0.02485,-2.627356 A 1.2426682,1.2426682 0 0 0 69.75453,62.000315 h -0.01775 a 1.2426682,1.2426682 0 0 0 -1.242668,1.230242 l -0.03906,4.111456 -4.716813,2.753398 v -5.680769 l 3.426214,-2.046852 a 1.2426682,1.2426682 0 0 0 0.429608,-1.706006 1.2426682,1.2426682 0 0 0 -1.704231,-0.429608 l -2.151591,1.285274 v -3.151052 a 1.2426682,1.2426682 0 0 0 -1.242668,-1.242668 1.2426682,1.2426682 0 0 0 -1.242669,1.242668 v 3.151052 l -2.151591,-1.285274 a 1.2426682,1.2426682 0 0 0 -1.706006,0.429608 1.2426682,1.2426682 0 0 0 0.429608,1.706006 l 3.426214,2.046852 v 5.680769 l -4.718589,-2.753398 -0.03906,-4.111456 a 1.2426682,1.2426682 0 0 0 -1.255095,-1.230242 1.2426682,1.2426682 0 0 0 -1.230241,1.255095 l 0.02485,2.627356 -2.606053,-1.521381 a 1.2426682,1.2426682 0 0 0 -1.70068,0.44736 1.2426682,1.2426682 0 0 0 0.447361,1.70068 l 2.698365,1.576414 -2.233252,1.36516 a 1.2426682,1.2426682 0 0 0 -0.411856,1.709556 1.2426682,1.2426682 0 0 0 1.065144,0.594705 1.2426682,1.2426682 0 0 0 0.647963,-0.177524 l 3.372956,-2.062829 4.716814,2.753398 -4.716814,2.753398 -3.372956,-2.06283 a 1.2426682,1.2426682 0 0 0 -1.709557,0.411856 1.2426682,1.2426682 0 0 0 0.411856,1.709557 l 2.233252,1.365159 -2.70014,1.576414 a 1.2426682,1.2426682 0 0 0 -0.447361,1.70068 1.2426682,1.2426682 0 0 0 1.074021,0.616008 1.2426682,1.2426682 0 0 0 0.624884,-0.177524 l 2.606053,-1.521381 -0.02485,2.629131 a 1.2426682,1.2426682 0 0 0 1.230241,1.255095 h 0.01775 a 1.2426682,1.2426682 0 0 0 1.242668,-1.230241 l 0.03905,-4.111457 4.718589,-2.753398 v 5.680769 l -3.426214,2.046852 a 1.2426682,1.2426682 0 0 0 -0.429608,1.704231 1.2426682,1.2426682 0 0 0 1.065144,0.605357 1.2426682,1.2426682 0 0 0 0.637311,-0.177524 l 2.151592,-1.285274 v 3.151052 a 1.2426682,1.2426682 0 0 0 1.242668,1.242668 1.2426682,1.2426682 0 0 0 1.242668,-1.242668 v -3.151052 l 2.151591,1.285274 a 1.2426682,1.2426682 0 0 0 0.637312,0.177524 1.2426682,1.2426682 0 0 0 1.065144,-0.605357 1.2426682,1.2426682 0 0 0 -0.429608,-1.704231 l -3.426214,-2.046852 v -5.680769 l 4.716813,2.753398 0.03906,4.111457 a 1.2426682,1.2426682 0 0 0 1.242668,1.230241 h 0.01775 a 1.2426682,1.2426682 0 0 0 1.230242,-1.255095 l -0.02485,-2.629131 2.606053,1.521381 a 1.2426682,1.2426682 0 0 0 0.62666,0.177524 1.2426682,1.2426682 0 0 0 1.07402,-0.616008 1.2426682,1.2426682 0 0 0 -0.44736,-1.70068 l -2.700141,-1.576414 2.233253,-1.365159 a 1.2426682,1.2426682 0 0 0 0.411855,-1.709557 1.2426682,1.2426682 0 0 0 -1.709556,-0.411856 l -3.372957,2.06283 -4.715038,-2.753398 4.716814,-2.753398 3.372956,2.062829 a 1.2426682,1.2426682 0 0 0 0.647963,0.177524 1.2426682,1.2426682 0 0 0 1.065144,-0.594705 1.2426682,1.2426682 0 0 0 -0.411856,-1.709556 l -2.233252,-1.36516 2.70014,-1.576414 a 1.2426682,1.2426682 0 0 0 0.447361,-1.70068 z"
     class="b" />
</svg>
