<?xml version="1.0" encoding="UTF-8" standalone="no"?>
<svg
   xmlns:dc="http://purl.org/dc/elements/1.1/"
   xmlns:cc="http://creativecommons.org/ns#"
   xmlns:rdf="http://www.w3.org/1999/02/22-rdf-syntax-ns#"
   xmlns:svg="http://www.w3.org/2000/svg"
   xmlns="http://www.w3.org/2000/svg"
   id="svg863"
   version="1.1"
   viewBox="0 0 5.0430813 5.0439997"
   height="5.0439997mm"
   width="5.0430813mm">
  <defs
     id="defs857" />
  <metadata
     id="metadata860">
    <rdf:RDF>
      <cc:Work
         rdf:about="">
        <dc:format>image/svg+xml</dc:format>
        <dc:type
           rdf:resource="http://purl.org/dc/dcmitype/StillImage" />
        <dc:title></dc:title>
      </cc:Work>
    </rdf:RDF>
  </metadata>
  <g
     transform="translate(89.456061,-47.281573)"
     id="layer1">
    <path
       class="c"
       d="m -84.915123,47.78708 a 0.42095208,0.42095208 0 0 1 0.09597,0.288303 0.67124792,0.67124792 0 0 1 -0.19214,0.384468 l -0.768933,0.768934 0.288304,2.018126 -0.288304,0.288303 -0.768934,-1.729822 -1.057053,1.057051 0.09617,0.865099 -0.192141,0.192139 -0.48138,-0.865659 -0.865659,-0.481379 0.192141,-0.19214 0.865097,0.09616 1.05705,-1.057052 -1.729822,-0.768934 0.288304,-0.288303 2.018127,0.288303 0.768933,-0.768934 a 0.67124792,0.67124792 0 0 1 0.384468,-0.19214 0.42095208,0.42095208 0 0 1 0.288303,0.09598 m 0.288304,-0.288304 a 0.83290833,0.83290833 0 0 0 -0.576607,-0.215526 1.0498667,1.0498667 0 0 0 -0.672772,0.31169 l -0.624689,0.624689 -1.816444,-0.259492 a 0.40772292,0.40772292 0 0 0 -0.345927,0.115434 l -0.288303,0.288304 a 0.4079875,0.4079875 0 0 0 0.122545,0.660984 l 1.18745,0.527777 -0.498777,0.498778 -0.670153,-0.07446 a 0.40772292,0.40772292 0 0 0 -0.332644,0.116369 l -0.192138,0.19214 a 0.4079875,0.4079875 0 0 0 0.09018,0.644708 l 0.763323,0.423943 0.423942,0.763321 a 0.40772292,0.40772292 0 0 0 0.644708,0.09018 l 0.19214,-0.19214 a 0.40772292,0.40772292 0 0 0 0.116369,-0.332644 l -0.07446,-0.670151 0.498779,-0.498779 0.527778,1.187452 a 0.40772292,0.40772292 0 0 0 0.660982,0.122543 l 0.288306,-0.288303 a 0.40772292,0.40772292 0 0 0 0.115432,-0.345927 l -0.259492,-1.816444 0.623943,-0.623941 a 1.0498667,1.0498667 0 0 0 0.311687,-0.672771 0.83290833,0.83290833 0 0 0 -0.215524,-0.576607 z"
       id="path12"
       style="fill:#585955;stroke-width:0.26458332;stroke-miterlimit:10" />
  </g>
</svg>
