<?xml version="1.0" encoding="UTF-8" standalone="no"?>
<svg
   xmlns:dc="http://purl.org/dc/elements/1.1/"
   xmlns:cc="http://creativecommons.org/ns#"
   xmlns:rdf="http://www.w3.org/1999/02/22-rdf-syntax-ns#"
   xmlns:svg="http://www.w3.org/2000/svg"
   xmlns="http://www.w3.org/2000/svg"
   height="20.4"
   width="18.799999"
   xml:space="preserve"
   viewBox="0 0 18.799999 20.4"
   y="0px"
   x="0px"
   id="Capa_1"
   version="1.1"><metadata
   id="metadata17"><rdf:RDF><cc:Work
       rdf:about=""><dc:format>image/svg+xml</dc:format><dc:type
         rdf:resource="http://purl.org/dc/dcmitype/StillImage" /><dc:title></dc:title></cc:Work></rdf:RDF></metadata><defs
   id="defs15" />
<style
   id="style2"
   type="text/css">
	.st0{fill:#FFFFFF;}
</style>
<rect
   y="0.089004956"
   x="0.063559324"
   height="20.304886"
   width="18.742289"
   id="rect847"
   style="opacity:1;fill:none;fill-opacity:1;stroke:none;stroke-width:0.27920091;stroke-miterlimit:4;stroke-dasharray:none;stroke-opacity:1" /><g
   style="fill:none;stroke:#00bff2;stroke-width:0.2;stroke-miterlimit:4;stroke-dasharray:none;stroke-opacity:1"
   transform="matrix(1,0,0,0.99587317,-5.6000004,-4.6960038)"
   id="g10">
	<path
   style="fill:none;stroke:#00bff2;stroke-width:0.2;stroke-miterlimit:4;stroke-dasharray:none;stroke-opacity:1"
   id="path4"
   d="m 19.5,19 -2.9,-1.2 c -0.2,-0.1 -0.3,-0.1 -0.5,0 -0.2,0.1 -0.3,0.2 -0.3,0.3 L 15,20 c -0.1,0.1 -0.1,0.3 0,0.5 0.1,0.2 0.2,0.3 0.3,0.3 l 2.9,1.2 c 0.1,0 0.2,0 0.2,0 0.2,0 0.5,-0.1 0.6,-0.4 l 0.8,-1.9 c 0.1,-0.2 0.1,-0.3 0,-0.5 -0.1,0 -0.2,-0.1 -0.3,-0.2 z"
   class="st0" />
	<path
   style="fill:none;stroke:#00bff2;stroke-width:0.2;stroke-miterlimit:4;stroke-dasharray:none;stroke-opacity:1"
   id="path6"
   d="m 19.3,10.3 h -8.5 c -0.3,0 -0.6,0.3 -0.6,0.6 0,0.3 0.3,0.6 0.6,0.6 H 17 c 0,0.1 0,0.3 0,0.4 0,0.9 0.6,1.6 1.3,1.6 0.7,0 1.3,-0.7 1.3,-1.6 0,-0.2 0,-0.3 -0.1,-0.5 0.2,-0.1 0.4,-0.3 0.4,-0.6 0,-0.2 -0.3,-0.5 -0.6,-0.5 z"
   class="st0" />
	<path
   style="fill:none;stroke:#00bff2;stroke-width:0.2;stroke-miterlimit:4;stroke-dasharray:none;stroke-opacity:1"
   id="path8"
   d="M 20,8.3 H 17.2 V 7.4 h 0.1 C 18,7.4 18.6,6.8 18.6,6.1 18.6,5.4 18,4.8 17.3,4.8 h -4.1 c -0.7,0 -1.3,0.6 -1.3,1.3 0,0.7 0.6,1.3 1.3,1.3 h 0.1 V 8.3 H 10 c -1.1,0 -1.9,0.9 -1.9,1.9 v 12 c 0,0.7 0.4,1.4 1,1.7 V 24 c 0,0.6 0.5,1.2 1.2,1.2 v 0 c 0.6,0 1.1,-0.5 1.1,-1 h 7 c 0.1,0.6 0.6,1 1.2,1 h 0.1 c 0.7,0 1.2,-0.5 1.2,-1.2 v -0.1 c 0.6,-0.3 1,-1 1,-1.7 v -12 C 21.9,9.2 21,8.3 20,8.3 Z m -5.6,0 V 7.4 h 1.5 v 0.9 z m 6.3,1.9 v 12 c 0,0.4 -0.3,0.7 -0.7,0.7 H 10 c -0.4,0 -0.7,-0.3 -0.7,-0.7 v -12 C 9.3,9.8 9.6,9.5 10,9.5 h 10 c 0.4,0 0.7,0.3 0.7,0.7 z"
   class="st0" />
</g>
</svg>