<svg xmlns="http://www.w3.org/2000/svg" width="20" height="20" viewBox="0 0 20 20"><defs><style>.a{fill:#e0007a;fill-rule:evenodd;}</style></defs><g transform="translate(0 0)"><g transform="translate(0 0)"><path class="a" d="M-5311.009,4916c-2.716,0-3.056.012-4.123.061a7.337,7.337,0,0,0-2.427.465,4.9,4.9,0,0,0-1.771,1.153,4.9,4.9,0,0,0-1.153,1.771,7.374,7.374,0,0,0-.465,2.428c-.048,1.066-.06,1.407-.06,4.123s.011,3.057.06,4.123a7.373,7.373,0,0,0,.465,2.427,4.9,4.9,0,0,0,1.153,1.771,4.9,4.9,0,0,0,1.771,1.153,7.362,7.362,0,0,0,2.427.465c1.067.048,1.407.06,4.123.06s3.057-.012,4.123-.06a7.356,7.356,0,0,0,2.427-.465,4.911,4.911,0,0,0,1.771-1.153,4.9,4.9,0,0,0,1.153-1.771,7.337,7.337,0,0,0,.465-2.427c.048-1.066.061-1.407.061-4.123s-.012-3.056-.061-4.123a7.337,7.337,0,0,0-.465-2.428,4.9,4.9,0,0,0-1.153-1.771,4.909,4.909,0,0,0-1.771-1.153,7.331,7.331,0,0,0-2.427-.465C-5307.952,4916.012-5308.293,4916-5311.009,4916Zm0,1.8c2.67,0,2.986.011,4.041.059a5.522,5.522,0,0,1,1.856.345,3.09,3.09,0,0,1,1.15.748,3.1,3.1,0,0,1,.748,1.15,5.533,5.533,0,0,1,.344,1.857c.049,1.054.059,1.371.059,4.041s-.01,2.986-.059,4.041a5.542,5.542,0,0,1-.344,1.857,3.1,3.1,0,0,1-.748,1.15,3.1,3.1,0,0,1-1.15.748,5.513,5.513,0,0,1-1.856.344c-1.054.048-1.371.059-4.041.059s-2.987-.01-4.041-.059a5.514,5.514,0,0,1-1.857-.344,3.088,3.088,0,0,1-1.149-.748,3.114,3.114,0,0,1-.75-1.15,5.575,5.575,0,0,1-.343-1.857c-.048-1.055-.059-1.371-.059-4.041s.011-2.986.059-4.041a5.566,5.566,0,0,1,.343-1.857,3.11,3.11,0,0,1,.75-1.15,3.082,3.082,0,0,1,1.149-.748,5.523,5.523,0,0,1,1.857-.345C-5314,4917.813-5313.679,4917.8-5311.009,4917.8Zm0,3.063a5.135,5.135,0,0,0-5.135,5.135,5.135,5.135,0,0,0,5.135,5.135,5.135,5.135,0,0,0,5.135-5.135A5.135,5.135,0,0,0-5311.009,4920.865Zm0,8.468a3.334,3.334,0,0,1-3.333-3.333,3.334,3.334,0,0,1,3.333-3.333,3.334,3.334,0,0,1,3.333,3.333A3.334,3.334,0,0,1-5311.009,4929.333Zm6.538-8.671a1.2,1.2,0,0,1-1.2,1.2,1.2,1.2,0,0,1-1.2-1.2,1.2,1.2,0,0,1,1.2-1.2A1.2,1.2,0,0,1-5304.471,4920.662Z" transform="translate(5321.009 -4916)"/></g></g></svg>