<svg xmlns="http://www.w3.org/2000/svg" width="55.563" height="55.563" viewBox="0 0 55.563 55.563"><defs><style>.a{fill:#003e6f;fill-rule:evenodd;}</style></defs><g transform="translate(744.312 -59) rotate(90)"><g transform="translate(59 744.312) rotate(-90)"><path class="a" d="M27.782,0c-7.546,0-8.491.032-11.455.168A20.357,20.357,0,0,0,9.584,1.46a13.6,13.6,0,0,0-4.921,3.2,13.618,13.618,0,0,0-3.2,4.921A20.5,20.5,0,0,0,.166,16.329C.031,19.291,0,20.237,0,27.782s.031,8.492.166,11.455A20.493,20.493,0,0,0,1.458,45.98a13.618,13.618,0,0,0,3.2,4.921,13.619,13.619,0,0,0,4.921,3.2A20.457,20.457,0,0,0,16.327,55.4c2.964.134,3.909.167,11.455.167s8.492-.032,11.454-.167a20.45,20.45,0,0,0,6.743-1.291A14.2,14.2,0,0,0,54.1,45.98,20.364,20.364,0,0,0,55.4,39.237c.133-2.963.168-3.909.168-11.455s-.035-8.491-.168-11.453A20.367,20.367,0,0,0,54.1,9.584a13.615,13.615,0,0,0-3.2-4.921,13.627,13.627,0,0,0-4.921-3.2A20.351,20.351,0,0,0,39.236.168C36.274.032,35.326,0,27.782,0Zm0,5.006c7.419,0,8.3.03,11.226.163a15.349,15.349,0,0,1,5.158.957A8.588,8.588,0,0,1,47.36,8.2,8.591,8.591,0,0,1,49.438,11.4a15.378,15.378,0,0,1,.956,5.159c.136,2.928.163,3.807.163,11.225s-.027,8.3-.163,11.227a15.4,15.4,0,0,1-.956,5.159,9.189,9.189,0,0,1-5.272,5.271,15.326,15.326,0,0,1-5.158.956c-2.928.134-3.807.163-11.226.163s-8.3-.029-11.227-.163a15.328,15.328,0,0,1-5.159-.956,9.224,9.224,0,0,1-5.274-5.271,15.483,15.483,0,0,1-.954-5.159C5.035,36.078,5,35.2,5,27.782s.03-8.3.163-11.225A15.46,15.46,0,0,1,6.122,11.4,8.618,8.618,0,0,1,8.2,8.2,8.564,8.564,0,0,1,11.4,6.127a15.351,15.351,0,0,1,5.159-.957C19.484,5.036,20.364,5.006,27.782,5.006Zm0,8.511A14.266,14.266,0,1,0,42.047,27.782,14.266,14.266,0,0,0,27.782,13.517Zm0,23.526a9.261,9.261,0,1,1,9.26-9.261A9.262,9.262,0,0,1,27.782,37.043Zm18.163-24.09a3.334,3.334,0,1,1-3.335-3.335A3.334,3.334,0,0,1,45.945,12.953Z"/></g></g></svg>