<?xml version="1.0" encoding="UTF-8" standalone="no"?>
<svg
   xmlns:dc="http://purl.org/dc/elements/1.1/"
   xmlns:cc="http://creativecommons.org/ns#"
   xmlns:rdf="http://www.w3.org/1999/02/22-rdf-syntax-ns#"
   xmlns:svg="http://www.w3.org/2000/svg"
   xmlns="http://www.w3.org/2000/svg"
   xmlns:sodipodi="http://sodipodi.sourceforge.net/DTD/sodipodi-0.dtd"
   xmlns:inkscape="http://www.inkscape.org/namespaces/inkscape"
   id="svg12"
   version="1.1"
   viewBox="0 0 20 20"
   height="20"
   width="20"
   sodipodi:docname="instagram-icon-azul.svg"
   inkscape:version="0.92.3 (2405546, 2018-03-11)">
  <sodipodi:namedview
     pagecolor="#ffffff"
     bordercolor="#666666"
     borderopacity="1"
     objecttolerance="10"
     gridtolerance="10"
     guidetolerance="10"
     inkscape:pageopacity="0"
     inkscape:pageshadow="2"
     inkscape:window-width="1869"
     inkscape:window-height="1025"
     id="namedview10"
     showgrid="false"
     inkscape:zoom="11.8"
     inkscape:cx="10"
     inkscape:cy="10"
     inkscape:window-x="51"
     inkscape:window-y="27"
     inkscape:window-maximized="1"
     inkscape:current-layer="svg12" />
  <metadata
     id="metadata16">
    <rdf:RDF>
      <cc:Work
         rdf:about="">
        <dc:format>image/svg+xml</dc:format>
        <dc:type
           rdf:resource="http://purl.org/dc/dcmitype/StillImage" />
        <dc:title />
      </cc:Work>
    </rdf:RDF>
  </metadata>
  <defs
     id="defs4">
    <style
       id="style2">.a{fill:#fff;fill-rule:evenodd;}</style>
    <style
       id="style834">.a{fill:#2b00ff;fill-rule:evenodd;}</style>
  </defs>
  <g
     style="fill:#003e6f;fill-opacity:1"
     id="g10"
     transform="translate(0 0)">
    <g
       style="fill:#003e6f;fill-opacity:1"
       id="g8"
       transform="translate(0 0)">
      <path
         style="fill:#003e6f;fill-opacity:1"
         id="path6"
         d="M10,0C7.284,0,6.944.012,5.877.061A7.337,7.337,0,0,0,3.45.525,4.9,4.9,0,0,0,1.678,1.678,4.9,4.9,0,0,0,.525,3.45,7.374,7.374,0,0,0,.06,5.877C.011,6.944,0,7.284,0,10s.011,3.057.06,4.123A7.373,7.373,0,0,0,.525,16.55a4.9,4.9,0,0,0,1.153,1.771A4.9,4.9,0,0,0,3.45,19.475a7.362,7.362,0,0,0,2.427.465C6.944,19.988,7.284,20,10,20s3.057-.012,4.123-.06a7.356,7.356,0,0,0,2.427-.465,5.111,5.111,0,0,0,2.925-2.925,7.337,7.337,0,0,0,.465-2.427C19.988,13.057,20,12.716,20,10s-.012-3.056-.061-4.123a7.337,7.337,0,0,0-.465-2.428,4.9,4.9,0,0,0-1.153-1.771A4.909,4.909,0,0,0,16.55.525,7.331,7.331,0,0,0,14.123.061C13.057.012,12.716,0,10,0Zm0,1.8c2.67,0,2.986.011,4.041.059a5.522,5.522,0,0,1,1.856.345,3.09,3.09,0,0,1,1.15.748A3.1,3.1,0,0,1,17.8,4.1a5.533,5.533,0,0,1,.344,1.857C18.188,7.014,18.2,7.33,18.2,10s-.01,2.986-.059,4.041A5.542,5.542,0,0,1,17.8,15.9a3.309,3.309,0,0,1-1.9,1.9,5.513,5.513,0,0,1-1.856.344c-1.054.048-1.371.059-4.041.059s-2.987-.01-4.041-.059A5.514,5.514,0,0,1,4.1,17.8a3.319,3.319,0,0,1-1.9-1.9,5.575,5.575,0,0,1-.343-1.857C1.813,12.986,1.8,12.67,1.8,10s.011-2.986.059-4.041A5.566,5.566,0,0,1,2.2,4.1a3.11,3.11,0,0,1,.75-1.15A3.082,3.082,0,0,1,4.1,2.205,5.523,5.523,0,0,1,5.959,1.86C7.013,1.813,7.33,1.8,10,1.8Zm0,3.063A5.135,5.135,0,1,0,15.135,10,5.135,5.135,0,0,0,10,4.865Zm0,8.468A3.333,3.333,0,1,1,13.333,10,3.334,3.334,0,0,1,10,13.333Zm6.538-8.671a1.2,1.2,0,1,1-1.2-1.2A1.2,1.2,0,0,1,16.538,4.662Z"
         class="a" />
    </g>
  </g>
</svg>
