<?xml version="1.0" encoding="UTF-8" standalone="no"?>
<svg
   xmlns:dc="http://purl.org/dc/elements/1.1/"
   xmlns:cc="http://creativecommons.org/ns#"
   xmlns:rdf="http://www.w3.org/1999/02/22-rdf-syntax-ns#"
   xmlns:svg="http://www.w3.org/2000/svg"
   xmlns="http://www.w3.org/2000/svg"
   xmlns:sodipodi="http://sodipodi.sourceforge.net/DTD/sodipodi-0.dtd"
   xmlns:inkscape="http://www.inkscape.org/namespaces/inkscape"
   id="svg98"
   version="1.1"
   viewBox="0 0 72 169.82496"
   height="169.82497"
   width="72"
   sodipodi:docname="logo-vertical-rosa.svg"
   inkscape:version="0.92.3 (2405546, 2018-03-11)">
  <sodipodi:namedview
     pagecolor="#ffffff"
     bordercolor="#666666"
     borderopacity="1"
     objecttolerance="10"
     gridtolerance="10"
     guidetolerance="10"
     inkscape:pageopacity="0"
     inkscape:pageshadow="2"
     inkscape:window-width="1869"
     inkscape:window-height="1025"
     id="namedview15"
     showgrid="false"
     fit-margin-top="0"
     fit-margin-left="0"
     fit-margin-right="0"
     fit-margin-bottom="0"
     inkscape:zoom="2.5013989"
     inkscape:cx="20"
     inkscape:cy="47.173601"
     inkscape:window-x="51"
     inkscape:window-y="27"
     inkscape:window-maximized="1"
     inkscape:current-layer="svg98" />
  <metadata
     id="metadata102">
    <rdf:RDF>
      <cc:Work
         rdf:about="">
        <dc:format>image/svg+xml</dc:format>
        <dc:type
           rdf:resource="http://purl.org/dc/dcmitype/StillImage" />
        <dc:title></dc:title>
      </cc:Work>
    </rdf:RDF>
  </metadata>
  <defs
     id="defs4">
    <style
       id="style2">.a,.b{fill:#fff;}.b{stroke:#fff;stroke-linecap:round;stroke-linejoin:round;}</style>
    <style
       id="style909">.a{fill:#003e6f;}</style>
  </defs>
  <g
     style="fill:#e0007a;fill-opacity:1"
     transform="matrix(0.17230703,-1.6506504,1.6506504,0.17230703,-90.731509,200.31105)"
     id="g927">
    <g
       style="fill:#e0007a;fill-opacity:1"
       transform="translate(111.805,49.078)"
       id="g915">
      <path
         style="fill:#e0007a;fill-opacity:1"
         class="a"
         d="m 183.263,71.96 q 1.161,-0.478 2.119,-0.786 a 12.12,12.12 0 0 1 1.538,-0.41 q 0.718,-0.136 0.888,0.068 a 1.274,1.274 0 0 1 -0.034,0.872 9.558,9.558 0 0 1 -0.479,1.333 q -0.308,0.7 -0.615,1.316 a 5.5,5.5 0 0 1 -0.445,0.786 0.658,0.658 0 0 1 -0.478,0.29 4.519,4.519 0 0 1 -0.82,0.1 5.232,5.232 0 0 1 -0.855,-0.034 1.97,1.97 0 0 1 -0.615,-0.154 1.111,1.111 0 0 1 -0.393,-0.239 1.008,1.008 0 0 1 -0.274,-0.53 2.759,2.759 0 0 1 0,-0.974 8.437,8.437 0 0 1 0.463,-1.638 z m 14.183,-22.728 q -1.777,2.667 -3.092,4.922 -1.315,2.255 -2.239,4.1 -0.923,1.847 -1.538,3.316 a 27.628,27.628 0 0 0 -0.957,2.6 11.447,11.447 0 0 0 -0.718,4.272 q -1.128,0.377 -2.017,0.581 a 11.437,11.437 0 0 1 -1.469,0.291 c -0.456,0.057 -0.74,0.029 -0.854,-0.086 q -0.2,-0.239 -0.086,-1.06 a 19.137,19.137 0 0 1 0.445,-2.051 q 0.324,-1.23 0.8,-2.751 0.476,-1.521 1.043,-3.127 0.563,-1.606 1.162,-3.161 0.599,-1.555 1.11,-2.871 0.512,-1.316 0.906,-2.273 0.394,-0.957 0.564,-1.367 a 1.447,1.447 0 0 1 0.564,-0.666 3.832,3.832 0 0 1 0.923,-0.427 6.854,6.854 0 0 1 1.127,-0.256 c 0.4,-0.057 0.8,-0.1 1.214,-0.119 a 18.643,18.643 0 0 1 3.112,0.133 z"
         transform="translate(-182.759,-49.078)"
         id="path913"
         inkscape:connector-curvature="0" />
    </g>
    <g
       style="fill:#e0007a;fill-opacity:1"
       transform="translate(74.203,57.166)"
       id="g919">
      <path
         style="fill:#e0007a;fill-opacity:1"
         class="a"
         d="m 133.9,77.16 a 1.9,1.9 0 0 1 0.539,-0.926 0.67,0.67 0 0 1 0.644,-0.151 0.754,0.754 0 0 1 0.466,0.516 1.757,1.757 0 0 1 -0.071,1.085 11.63,11.63 0 0 1 -2.329,4.262 7.289,7.289 0 0 1 -4.193,2.413 l -1.577,0.193 a 6.009,6.009 0 0 1 -2.006,-0.148 3.174,3.174 0 0 1 -1.254,-0.635 2.156,2.156 0 0 1 -0.646,-0.924 3.294,3.294 0 0 1 -0.178,-1.089 8.06,8.06 0 0 1 0.788,-3.108 15.081,15.081 0 0 1 -1.147,1.789 c -0.383,0.574 -0.8,1.173 -1.254,1.8 -0.454,0.627 -0.967,1.289 -1.541,1.98 q -1.72,2 -3.189,1.429 -1.469,-0.571 -2.69,-3.146 a 5.713,5.713 0 0 1 -0.287,-3.441 16.624,16.624 0 0 1 1.434,-4.332 29.384,29.384 0 0 1 2.616,-4.405 25.535,25.535 0 0 1 3.189,-3.724 11.041,11.041 0 0 1 3.153,-2.106 7.145,7.145 0 0 1 2.8,-0.594 5.47,5.47 0 0 1 2.257,0.477 5.412,5.412 0 0 1 1.54,1.03 2.167,2.167 0 0 1 0.5,2.052 7.875,7.875 0 0 1 -0.718,1.916 c -0.1,0.2 -0.191,0.264 -0.287,0.178 a 0.176,0.176 0 0 1 -0.072,-0.134 1.227,1.227 0 0 0 -0.178,-0.7 2.229,2.229 0 0 0 -0.323,-0.391 1.6,1.6 0 0 0 -0.5,-0.224 3.051,3.051 0 0 0 -1.936,0.487 14.571,14.571 0 0 0 -1.72,1.249 17.428,17.428 0 0 0 -1.792,1.868 10.806,10.806 0 0 0 -1.469,2.152 q -0.9,1.579 -1.648,3.176 a 16.8,16.8 0 0 0 -1.075,2.819 q -0.323,1.223 0.393,1.062 a 4.382,4.382 0 0 0 1.792,-1.473 q 1.145,-1.323 2.365,-2.977 1.22,-1.654 2.329,-3.3 1.111,-1.641 1.541,-2.338 c 0.19,-0.214 0.334,-0.328 0.431,-0.34 l 0.214,-0.026 0.073,0.063 q 2.722,0.526 2.9,2.584 0.178,2.058 -1.684,5.51 -0.214,0.385 -0.466,0.881 c -0.168,0.331 -0.3,0.6 -0.394,0.8 a 6.033,6.033 0 0 0 -0.357,0.976 c -0.1,0.347 0.023,0.547 0.357,0.6 a 2.565,2.565 0 0 0 1.505,-0.473 5,5 0 0 0 1.433,-1.179 8.18,8.18 0 0 0 1.04,-1.489 7.857,7.857 0 0 0 0.682,-1.574 z"
         transform="translate(-113.847,-63.9)"
         id="path917"
         inkscape:connector-curvature="0" />
    </g>
    <path
       style="fill:#e0007a;fill-opacity:1"
       class="a"
       d="m 81.99,68.558 c 0,0 1.662,1.393 0.226,5.195 -1.436,3.802 -4.076,10.266 -4.076,10.266 0,0 -2.485,5.417 1.638,5.307 3.238,-0.482 3.7,-0.573 3.7,-0.573 A 42.746,42.746 0 0 1 87,77.267 c 2.71,-5.539 4.4,-7.328 5.852,-7.332 1.293,0 -1.095,3.387 -2.532,8.045 -1.471,4.768 -3.953,9.4 -0.147,10.824 a 5.518,5.518 0 0 0 6.443,-1.626 c 0.635,-0.907 -0.778,-0.019 -1.454,-1.746 -1.3,-3.325 0.5,-6.981 1.995,-11.029 1.495,-4.048 3.441,-7.248 0.409,-8.213 -3.032,-0.965 -7.894,2.887 -8.89,4.178 0.086,-3.067 -1.078,-2.994 -2.4,-2.89 a 28.009,28.009 0 0 0 -4.286,1.08 z"
       transform="translate(-23.084,-7.705)"
       id="path921"
       inkscape:connector-curvature="0" />
    <path
       style="fill:#e0007a;fill-opacity:1"
       class="a"
       d="m 166,60.924 q -1.258,-2.536 -2.726,-3.077 -1.468,-0.541 -3.141,1.477 c -0.069,0.087 -0.129,0.169 -0.2,0.254 -1.319,1.516 -3,3.756 -3,3.756 -0.046,0.049 -0.089,0.1 -0.134,0.154 a 6.19,6.19 0 0 0 0.239,-1.66 3.27,3.27 0 0 0 -0.2,-1.078 2.147,2.147 0 0 0 -0.658,-0.906 3.15,3.15 0 0 0 -1.257,-0.608 5.968,5.968 0 0 0 -1.995,-0.111 l -1.563,0.22 -0.052,0.222 v -0.086 c 0,0 -1.613,6.047 -3.577,11.919 -0.209,0.536 -0.408,1.06 -0.586,1.559 q -0.434,1.209 -0.734,2.1 -0.738,2.049 -1.375,4.131 -0.55,1.821 -1.015,3.9 a 29.263,29.263 0 0 0 -0.619,3.926 c -0.052,0.272 -0.088,0.524 -0.11,0.759 a 5,5 0 0 0 -0.015,0.693 2.772,2.772 0 0 0 0.037,0.732 5.6,5.6 0 0 0 0.491,1.912 2.555,2.555 0 0 0 1.2,1.2 4.833,4.833 0 0 0 1.353,0.407 3,3 0 0 0 1.154,-0.125 2.157,2.157 0 0 0 1.115,-0.907 6.478,6.478 0 0 0 0.315,-0.6 3.85,3.85 0 0 0 0.306,-1.778 l -0.02,-0.391 -0.02,-0.391 a 2.339,2.339 0 0 1 0.028,-0.448 q -0.006,-1.084 0.138,-2.662 0.144,-1.578 0.469,-3.457 c 0.174,-1 0.4,-2.069 0.653,-3.17 a 6.773,6.773 0 0 0 0.774,0.41 5.436,5.436 0 0 0 2.25,0.432 7.088,7.088 0 0 0 2.766,-0.64 10.961,10.961 0 0 0 3.093,-2.149 25.355,25.355 0 0 0 3.1,-3.755 A 29.2,29.2 0 0 0 165,68.664 16.494,16.494 0 0 0 166.346,64.336 5.67,5.67 0 0 0 166,60.924 Z m -5.4,2.722 a 16.729,16.729 0 0 1 -1.016,2.819 q -0.719,1.6 -1.58,3.184 a 10.752,10.752 0 0 1 -1.42,2.163 17.336,17.336 0 0 1 -1.746,1.887 14.516,14.516 0 0 1 -1.686,1.271 3.043,3.043 0 0 1 -1.8,0.518 l 0.007,-0.023 h 0.006 a 60.094,60.094 0 0 1 3.762,-6.912 c 0.333,-0.487 0.67,-0.975 1.017,-1.465 q 1.182,-1.664 2.294,-3 a 4.363,4.363 0 0 1 1.754,-1.5 q 0.708,-0.163 0.408,1.058 z"
       transform="translate(-53.013,-3.932)"
       id="path923"
       inkscape:connector-curvature="0" />
    <path
       style="fill:#e0007a;fill-opacity:1"
       class="a"
       d="m 57.754,53 a 5.413,5.413 0 0 0 -2.229,-1.89 9.976,9.976 0 0 0 -4.2,-0.825 13.521,13.521 0 0 0 -4.58,0.632 14.372,14.372 0 0 0 -3.822,1.9 12.448,12.448 0 0 0 -2.84,2.757 10.422,10.422 0 0 0 -1.65,3.262 12.793,12.793 0 0 0 -0.562,3.176 9.379,9.379 0 0 0 0.1,1.807 c 0.168,0.72 1.138,4.03 5.338,7.2 4.745,3.582 4.5,5.411 4.308,6.453 v 0 a 6.384,6.384 0 0 1 -0.638,2.372 7.931,7.931 0 0 1 -2.3,2.765 c -0.309,0.2 -0.624,0.383 -0.942,0.547 a 7.61,7.61 0 0 1 -2.8,0.827 6.174,6.174 0 0 1 -2.389,-0.258 l 0.005,-0.007 a 5.065,5.065 0 0 1 -3.354,-2.805 c -1.618,-4.135 0.9,-8.848 1.012,-9.061 a 12.632,12.632 0 0 1 1.617,-2.919 3.888,3.888 0 0 0 -1.245,-0.708 5.559,5.559 0 0 0 -1.876,-0.3 6.765,6.765 0 0 0 -0.735,0.046 A 7.012,7.012 0 0 0 32.76,68.225 7.476,7.476 0 0 0 31,69 a 8.575,8.575 0 0 0 -3.238,3.686 12.3,12.3 0 0 0 -1.176,5 9.28,9.28 0 0 0 0.4,2.823 6.861,6.861 0 0 0 1.455,2.519 10.171,10.171 0 0 0 2.8,2.136 14.239,14.239 0 0 0 2.1,0.9 h 0.008 l 0.056,0.026 c 0.407,0.14 0.838,0.27 1.286,0.391 a 14.651,14.651 0 0 0 3.606,0.295 19.235,19.235 0 0 0 3.851,-0.469 c 0.623,-0.167 1.244,-0.358 1.858,-0.589 a 19.856,19.856 0 0 0 4.148,-2.136 12.244,12.244 0 0 0 3.116,-2.963 18.783,18.783 0 0 0 2.441,-4.319 12.049,12.049 0 0 0 0.874,-4.246 8.362,8.362 0 0 0 -0.927,-3.935 10.218,10.218 0 0 0 -3.019,-3.443 13.245,13.245 0 0 1 -4.2,-4.377 8.317,8.317 0 0 1 -0.333,-0.766 c -0.222,-0.686 -1.38,-4.779 1.951,-6.756 2.927,-1.737 4.329,1.091 2.956,4.332 a 16.728,16.728 0 0 1 -1.725,3.383 c -0.06,0.065 -0.113,0.128 -0.178,0.194 a 3.639,3.639 0 0 0 1.8,1.437 4.409,4.409 0 0 0 2.618,0.155 6.162,6.162 0 0 0 2.631,-1.436 6.9,6.9 0 0 0 1.914,-3.032 6.462,6.462 0 0 0 0.4,-2.4 A 4.613,4.613 0 0 0 57.754,53 Z"
       transform="translate(0,-0.545)"
       id="path925"
       inkscape:connector-curvature="0" />
  </g>
</svg>
