<svg xmlns="http://www.w3.org/2000/svg" width="99.904" height="39.715" viewBox="0 0 99.904 39.715"><defs><style>.a{fill:#fff;}</style></defs><g transform="translate(-26.589 -49.079)"><g transform="translate(111.805 49.078)"><path class="a" d="M183.263,71.96q1.161-.478,2.119-.786a12.12,12.12,0,0,1,1.538-.41q.718-.136.888.068a1.274,1.274,0,0,1-.034.872,9.558,9.558,0,0,1-.479,1.333q-.308.7-.615,1.316a5.5,5.5,0,0,1-.445.786.658.658,0,0,1-.478.29,4.519,4.519,0,0,1-.82.1,5.232,5.232,0,0,1-.855-.034,1.97,1.97,0,0,1-.615-.154,1.111,1.111,0,0,1-.393-.239,1.008,1.008,0,0,1-.274-.53,2.759,2.759,0,0,1,0-.974A8.437,8.437,0,0,1,183.263,71.96Zm14.183-22.728q-1.777,2.667-3.092,4.922t-2.239,4.1q-.923,1.847-1.538,3.316a27.628,27.628,0,0,0-.957,2.6,11.447,11.447,0,0,0-.718,4.272q-1.128.377-2.017.581a11.437,11.437,0,0,1-1.469.291c-.456.057-.74.029-.854-.086q-.2-.239-.086-1.06a19.137,19.137,0,0,1,.445-2.051q.324-1.23.8-2.751t1.043-3.127q.563-1.606,1.162-3.161t1.11-2.871q.512-1.316.906-2.273t.564-1.367a1.447,1.447,0,0,1,.564-.666,3.832,3.832,0,0,1,.923-.427,6.854,6.854,0,0,1,1.127-.256c.4-.057.8-.1,1.214-.119A18.643,18.643,0,0,1,197.446,49.232Z" transform="translate(-182.759 -49.078)"/></g><g transform="translate(74.203 57.166)"><path class="a" d="M133.9,77.16a1.9,1.9,0,0,1,.539-.926.67.67,0,0,1,.644-.151.754.754,0,0,1,.466.516,1.757,1.757,0,0,1-.071,1.085,11.63,11.63,0,0,1-2.329,4.262,7.289,7.289,0,0,1-4.193,2.413l-1.577.193a6.009,6.009,0,0,1-2.006-.148,3.174,3.174,0,0,1-1.254-.635,2.156,2.156,0,0,1-.646-.924,3.294,3.294,0,0,1-.178-1.089,8.06,8.06,0,0,1,.788-3.108,15.081,15.081,0,0,1-1.147,1.789c-.383.574-.8,1.173-1.254,1.8s-.967,1.289-1.541,1.98q-1.72,2-3.189,1.429T114.262,82.5a5.713,5.713,0,0,1-.287-3.441,16.624,16.624,0,0,1,1.434-4.332,29.384,29.384,0,0,1,2.616-4.405,25.535,25.535,0,0,1,3.189-3.724,11.041,11.041,0,0,1,3.153-2.106,7.145,7.145,0,0,1,2.8-.594,5.47,5.47,0,0,1,2.257.477,5.412,5.412,0,0,1,1.54,1.03,2.167,2.167,0,0,1,.5,2.052,7.875,7.875,0,0,1-.718,1.916c-.1.2-.191.264-.287.178a.176.176,0,0,1-.072-.134,1.227,1.227,0,0,0-.178-.7,2.229,2.229,0,0,0-.323-.391,1.6,1.6,0,0,0-.5-.224,3.051,3.051,0,0,0-1.936.487,14.571,14.571,0,0,0-1.72,1.249,17.428,17.428,0,0,0-1.792,1.868,10.806,10.806,0,0,0-1.469,2.152q-.9,1.579-1.648,3.176a16.8,16.8,0,0,0-1.075,2.819q-.323,1.223.393,1.062a4.382,4.382,0,0,0,1.792-1.473q1.145-1.323,2.365-2.977t2.329-3.3q1.111-1.641,1.541-2.338c.19-.214.334-.328.431-.34l.214-.026.073.063q2.722.526,2.9,2.584t-1.684,5.51q-.214.385-.466.881c-.168.331-.3.6-.394.8a6.033,6.033,0,0,0-.357.976c-.1.347.023.547.357.6a2.565,2.565,0,0,0,1.505-.473,5,5,0,0,0,1.433-1.179,8.18,8.18,0,0,0,1.04-1.489A7.857,7.857,0,0,0,133.9,77.16Z" transform="translate(-113.847 -63.9)"/></g><path class="a" d="M81.99,68.558s1.662,1.393.226,5.195S78.14,84.019,78.14,84.019s-2.485,5.417,1.638,5.307c3.238-.482,3.7-.573,3.7-.573A42.746,42.746,0,0,1,87,77.267c2.71-5.539,4.4-7.328,5.852-7.332,1.293,0-1.095,3.387-2.532,8.045-1.471,4.768-3.953,9.4-.147,10.824a5.518,5.518,0,0,0,6.443-1.626c.635-.907-.778-.019-1.454-1.746-1.3-3.325.5-6.981,1.995-11.029s3.441-7.248.409-8.213-7.894,2.887-8.89,4.178c.086-3.067-1.078-2.994-2.4-2.89A28.009,28.009,0,0,0,81.99,68.558Z" transform="translate(-23.084 -7.705)"/><path class="a" d="M166,60.924q-1.258-2.536-2.726-3.077t-3.141,1.477c-.069.087-.129.169-.2.254-1.319,1.516-3,3.756-3,3.756-.046.049-.089.1-.134.154a6.19,6.19,0,0,0,.239-1.66,3.27,3.27,0,0,0-.2-1.078,2.147,2.147,0,0,0-.658-.906,3.15,3.15,0,0,0-1.257-.608,5.968,5.968,0,0,0-1.995-.111l-1.563.22-.052.222,0-.086S149.7,65.528,147.736,71.4c-.209.536-.408,1.06-.586,1.559q-.434,1.209-.734,2.1-.738,2.049-1.375,4.131-.55,1.821-1.015,3.9a29.263,29.263,0,0,0-.619,3.926c-.052.272-.088.524-.11.759a5,5,0,0,0-.015.693,2.772,2.772,0,0,0,.037.732,5.6,5.6,0,0,0,.491,1.912,2.555,2.555,0,0,0,1.2,1.2,4.833,4.833,0,0,0,1.353.407,3,3,0,0,0,1.154-.125,2.157,2.157,0,0,0,1.115-.907,6.478,6.478,0,0,0,.315-.6,3.85,3.85,0,0,0,.306-1.778l-.02-.391-.02-.391a2.339,2.339,0,0,1,.028-.448q-.006-1.084.138-2.662t.469-3.457c.174-1,.4-2.069.653-3.17a6.773,6.773,0,0,0,.774.41,5.436,5.436,0,0,0,2.25.432,7.088,7.088,0,0,0,2.766-.64,10.961,10.961,0,0,0,3.093-2.149,25.355,25.355,0,0,0,3.1-3.755A29.2,29.2,0,0,0,165,68.664a16.494,16.494,0,0,0,1.346-4.328A5.67,5.67,0,0,0,166,60.924Zm-5.4,2.722a16.729,16.729,0,0,1-1.016,2.819q-.719,1.6-1.58,3.184a10.752,10.752,0,0,1-1.42,2.163,17.336,17.336,0,0,1-1.746,1.887,14.516,14.516,0,0,1-1.686,1.271,3.043,3.043,0,0,1-1.8.518l.007-.023.006,0a60.094,60.094,0,0,1,3.762-6.912c.333-.487.67-.975,1.017-1.465q1.182-1.664,2.294-3a4.363,4.363,0,0,1,1.754-1.5Q160.9,62.425,160.6,63.646Z" transform="translate(-53.013 -3.932)"/><path class="a" d="M57.754,53a5.413,5.413,0,0,0-2.229-1.89,9.976,9.976,0,0,0-4.2-.825,13.521,13.521,0,0,0-4.58.632,14.372,14.372,0,0,0-3.822,1.9,12.448,12.448,0,0,0-2.84,2.757,10.422,10.422,0,0,0-1.65,3.262,12.793,12.793,0,0,0-.562,3.176,9.379,9.379,0,0,0,.1,1.807c.168.72,1.138,4.03,5.338,7.2,4.745,3.582,4.5,5.411,4.308,6.453l0,0a6.384,6.384,0,0,1-.638,2.372,7.931,7.931,0,0,1-2.3,2.765c-.309.2-.624.383-.942.547a7.61,7.61,0,0,1-2.8.827,6.174,6.174,0,0,1-2.389-.258l.005-.007a5.065,5.065,0,0,1-3.354-2.805c-1.618-4.135.9-8.848,1.012-9.061a12.632,12.632,0,0,1,1.617-2.919,3.888,3.888,0,0,0-1.245-.708,5.559,5.559,0,0,0-1.876-.3,6.765,6.765,0,0,0-.735.046,7.012,7.012,0,0,0-1.212.254A7.476,7.476,0,0,0,31,69a8.575,8.575,0,0,0-3.238,3.686,12.3,12.3,0,0,0-1.176,5,9.28,9.28,0,0,0,.4,2.823,6.861,6.861,0,0,0,1.455,2.519,10.171,10.171,0,0,0,2.8,2.136,14.239,14.239,0,0,0,2.1.9l.008,0,.056.026c.407.14.838.27,1.286.391a14.651,14.651,0,0,0,3.606.295,19.235,19.235,0,0,0,3.851-.469c.623-.167,1.244-.358,1.858-.589a19.856,19.856,0,0,0,4.148-2.136,12.244,12.244,0,0,0,3.116-2.963A18.783,18.783,0,0,0,53.711,76.3a12.049,12.049,0,0,0,.874-4.246,8.362,8.362,0,0,0-.927-3.935,10.218,10.218,0,0,0-3.019-3.443,13.245,13.245,0,0,1-4.2-4.377,8.317,8.317,0,0,1-.333-.766c-.222-.686-1.38-4.779,1.951-6.756,2.927-1.737,4.329,1.091,2.956,4.332a16.728,16.728,0,0,1-1.725,3.383c-.06.065-.113.128-.178.194a3.639,3.639,0,0,0,1.8,1.437,4.409,4.409,0,0,0,2.618.155,6.162,6.162,0,0,0,2.631-1.436,6.9,6.9,0,0,0,1.914-3.032,6.462,6.462,0,0,0,.4-2.4A4.613,4.613,0,0,0,57.754,53Z" transform="translate(0 -0.545)"/></g></svg>