<?xml version="1.0" encoding="UTF-8" standalone="no"?>
<svg
   xmlns:dc="http://purl.org/dc/elements/1.1/"
   xmlns:cc="http://creativecommons.org/ns#"
   xmlns:rdf="http://www.w3.org/1999/02/22-rdf-syntax-ns#"
   xmlns:svg="http://www.w3.org/2000/svg"
   xmlns="http://www.w3.org/2000/svg"
   id="svg2827"
   version="1.1"
   viewBox="0 0 4.7574244 5.4239869"
   height="5.4239869mm"
   width="4.7574244mm">
  <defs
     id="defs2821" />
  <metadata
     id="metadata2824">
    <rdf:RDF>
      <cc:Work
         rdf:about="">
        <dc:format>image/svg+xml</dc:format>
        <dc:type
           rdf:resource="http://purl.org/dc/dcmitype/StillImage" />
        <dc:title></dc:title>
      </cc:Work>
    </rdf:RDF>
  </metadata>
  <g
     transform="translate(149.78943,-109.07967)"
     id="layer1">
    <g
       transform="matrix(0.26458333,0,0,0.26458333,-324.40869,-476.09716)"
       id="g928">
      <path
         style="fill:#585955;stroke:#585955;stroke-width:0.5px"
         class="c"
         d="m 677.412,2226.106 -2.159,-1.248 1.823,-1.085 a 0.593,0.593 0 0 0 0.217,-0.825 0.585,0.585 0 0 0 -0.814,-0.2 l -2.431,1.423 -3.864,-2.248 3.864,-2.225 2.431,1.421 a 0.477,0.477 0 0 0 0.282,0.088 0.658,0.658 0 0 0 0.532,-0.282 0.594,0.594 0 0 0 -0.217,-0.824 l -1.823,-1.086 2.159,-1.248 a 0.609,0.609 0 0 0 0.217,-0.824 0.6,0.6 0 0 0 -0.825,-0.217 l -2.17,1.26 -0.032,-2.172 a 0.6,0.6 0 0 0 -0.6,-0.606 0.608,0.608 0 0 0 -0.6,0.606 l 0.021,2.866 -3.841,2.225 v -4.514 l 2.42,-1.38 a 0.611,0.611 0 0 0 0.239,-0.824 0.583,0.583 0 0 0 -0.814,-0.218 l -1.845,1.042 v -2.463 a 0.606,0.606 0 0 0 -0.608,-0.606 0.6,0.6 0 0 0 -0.6,0.606 v 2.487 l -1.91,-1.065 a 0.577,0.577 0 0 0 -0.8,0.218 0.6,0.6 0 0 0 0.228,0.824 l 2.485,1.4 v 4.47 l -3.929,-2.267 0.021,-2.8 a 0.579,0.579 0 0 0 -0.585,-0.606 h -0.022 a 0.614,0.614 0 0 0 -0.6,0.606 l -0.021,2.107 -2.116,-1.216 a 0.585,0.585 0 0 0 -0.814,0.215 0.6,0.6 0 0 0 0.217,0.826 l 2.138,1.236 -1.867,1.118 a 0.58,0.58 0 0 0 -0.206,0.824 0.56,0.56 0 0 0 0.51,0.282 0.588,0.588 0 0 0 0.315,-0.088 l 2.442,-1.442 3.918,2.246 -3.918,2.269 -2.442,-1.444 a 0.59,0.59 0 0 0 -0.825,0.2 0.61,0.61 0 0 0 0.206,0.825 l 1.867,1.106 -2.138,1.248 a 0.6,0.6 0 0 0 -0.217,0.826 0.554,0.554 0 0 0 0.51,0.3 1.094,1.094 0 0 0 0.3,-0.088 l 2.116,-1.216 0.021,2.107 a 0.6,0.6 0 0 0 0.6,0.595 h 0.022 a 0.6,0.6 0 0 0 0.585,-0.619 l -0.021,-2.8 3.929,-2.246 v 4.447 l -2.485,1.4 a 0.592,0.592 0 0 0 -0.228,0.824 0.55,0.55 0 0 0 0.51,0.306 0.578,0.578 0 0 0 0.293,-0.067 l 1.91,-1.083 v 2.529 a 0.589,0.589 0 0 0 0.6,0.6 0.6,0.6 0 0 0 0.608,-0.6 v -2.487 l 1.845,1.042 a 0.619,0.619 0 0 0 0.814,-0.239 0.6,0.6 0 0 0 -0.238,-0.824 l -2.42,-1.356 v -4.514 l 3.841,2.225 -0.021,2.843 a 0.6,0.6 0 0 0 0.6,0.619 0.591,0.591 0 0 0 0.6,-0.595 l 0.032,-2.184 2.17,1.271 a 0.639,0.639 0 0 0 0.315,0.065 0.559,0.559 0 0 0 0.51,-0.282 0.6,0.6 0 0 0 -0.217,-0.82 z"
         id="path926" />
    </g>
  </g>
</svg>
