<?xml version="1.0" encoding="UTF-8" standalone="no"?>
<svg
   xmlns:dc="http://purl.org/dc/elements/1.1/"
   xmlns:cc="http://creativecommons.org/ns#"
   xmlns:rdf="http://www.w3.org/1999/02/22-rdf-syntax-ns#"
   xmlns:svg="http://www.w3.org/2000/svg"
   xmlns="http://www.w3.org/2000/svg"
   xmlns:sodipodi="http://sodipodi.sourceforge.net/DTD/sodipodi-0.dtd"
   xmlns:inkscape="http://www.inkscape.org/namespaces/inkscape"
   id="svg10"
   version="1.1"
   viewBox="0 0 21 21"
   height="21"
   width="21"
   sodipodi:docname="wa-icon-azul.svg"
   inkscape:version="0.92.3 (2405546, 2018-03-11)">
  <sodipodi:namedview
     pagecolor="#ffffff"
     bordercolor="#666666"
     borderopacity="1"
     objecttolerance="10"
     gridtolerance="10"
     guidetolerance="10"
     inkscape:pageopacity="0"
     inkscape:pageshadow="2"
     inkscape:window-width="1869"
     inkscape:window-height="1025"
     id="namedview9"
     showgrid="false"
     inkscape:zoom="11.238095"
     inkscape:cx="10.5"
     inkscape:cy="10.5"
     inkscape:window-x="51"
     inkscape:window-y="27"
     inkscape:window-maximized="1"
     inkscape:current-layer="svg10" />
  <metadata
     id="metadata14">
    <rdf:RDF>
      <cc:Work
         rdf:about="">
        <dc:format>image/svg+xml</dc:format>
        <dc:type
           rdf:resource="http://purl.org/dc/dcmitype/StillImage" />
        <dc:title />
      </cc:Work>
    </rdf:RDF>
  </metadata>
  <defs
     id="defs4">
    <style
       id="style2">.a{fill:#fff;fill-rule:evenodd;}</style>
    <style
       id="style821">.a{fill:#2b00ff;fill-rule:evenodd;}</style>
  </defs>
  <g
     style="fill:#003e6f;fill-opacity:1"
     id="g8"
     transform="translate(0 0)">
    <path
       style="fill:#003e6f;fill-opacity:1"
       id="path6"
       d="M10.5,0A10.494,10.494,0,0,0,2,16.654l-1.307,3.9,4.036-1.29A10.5,10.5,0,1,0,10.5,0ZM7.565,5.333c-.2-.488-.357-.506-.667-.519-.105-.005-.221-.012-.352-.012a1.524,1.524,0,0,0-1.075.377A3.353,3.353,0,0,0,4.4,7.734,6,6,0,0,0,5.647,10.9a13.13,13.13,0,0,0,5.227,4.618c2.413,1,3.129.907,3.678.79a2.962,2.962,0,0,0,2.061-1.481,2.618,2.618,0,0,0,.179-1.458c-.074-.129-.278-.2-.587-.358s-1.808-.9-2.092-.994a.586.586,0,0,0-.752.228,12.919,12.919,0,0,1-.82,1.087.662.662,0,0,1-.74.117,7.724,7.724,0,0,1-2.463-1.518,9.371,9.371,0,0,1-1.7-2.118c-.178-.309-.019-.488.123-.654.155-.191.3-.327.458-.506a1.858,1.858,0,0,0,.339-.481A.631.631,0,0,0,8.51,7.6C8.435,7.451,7.819,5.944,7.565,5.333Z"
       class="a" />
  </g>
</svg>
