<svg xmlns="http://www.w3.org/2000/svg" width="21" height="21" viewBox="0 0 21 21"><defs><style>.a{fill:#fff;fill-rule:evenodd;}</style></defs><g transform="translate(0 0)"><path class="a" d="M10.5,0A10.494,10.494,0,0,0,2,16.654l-1.307,3.9,4.036-1.29A10.5,10.5,0,1,0,10.5,0ZM7.565,5.333c-.2-.488-.357-.506-.667-.519-.105-.005-.221-.012-.352-.012a1.524,1.524,0,0,0-1.075.377A3.353,3.353,0,0,0,4.4,7.734,6,6,0,0,0,5.647,10.9a13.13,13.13,0,0,0,5.227,4.618c2.413,1,3.129.907,3.678.79a2.962,2.962,0,0,0,2.061-1.481,2.618,2.618,0,0,0,.179-1.458c-.074-.129-.278-.2-.587-.358s-1.808-.9-2.092-.994a.586.586,0,0,0-.752.228,12.919,12.919,0,0,1-.82,1.087.662.662,0,0,1-.74.117,7.724,7.724,0,0,1-2.463-1.518,9.371,9.371,0,0,1-1.7-2.118c-.178-.309-.019-.488.123-.654.155-.191.3-.327.458-.506a1.858,1.858,0,0,0,.339-.481A.631.631,0,0,0,8.51,7.6C8.435,7.451,7.819,5.944,7.565,5.333Z"/></g></svg>