<svg xmlns="http://www.w3.org/2000/svg" width="21" height="21" viewBox="0 0 21 21"><defs><style>.a{fill:#e0007a;fill-rule:evenodd;}</style></defs><g transform="translate(0 0)"><path class="a" d="M-5270.586,4914.559a10.51,10.51,0,0,0-10.5,10.5,10.428,10.428,0,0,0,2,6.154l-1.307,3.9,4.036-1.29a10.416,10.416,0,0,0,5.776,1.734,10.51,10.51,0,0,0,10.5-10.5,10.511,10.511,0,0,0-10.5-10.5Zm-2.932,5.333c-.2-.488-.357-.506-.667-.519-.105-.005-.221-.012-.352-.012a1.524,1.524,0,0,0-1.075.377,3.353,3.353,0,0,0-1.073,2.555,6,6,0,0,0,1.248,3.167,13.13,13.13,0,0,0,5.227,4.618c2.413,1,3.129.907,3.678.79a2.962,2.962,0,0,0,2.061-1.481,2.618,2.618,0,0,0,.179-1.458c-.074-.129-.278-.2-.587-.358s-1.808-.9-2.092-.994a.586.586,0,0,0-.752.228,12.919,12.919,0,0,1-.82,1.087.662.662,0,0,1-.74.117,7.724,7.724,0,0,1-2.463-1.518,9.371,9.371,0,0,1-1.7-2.118c-.178-.309-.019-.488.123-.654.155-.191.3-.327.458-.506a1.858,1.858,0,0,0,.339-.481.631.631,0,0,0-.043-.569C-5272.649,4922.009-5273.265,4920.5-5273.519,4919.892Z" transform="translate(5281.084 -4914.559)"/></g></svg>