<svg xmlns="http://www.w3.org/2000/svg" width="99.706" height="15" viewBox="0 0 99.706 15"><defs><style>.a{fill:#fff;}</style></defs><g transform="translate(-146 -2391)"><path class="a" d="M2945.243,1023.384l1.494,4.3a.635.635,0,0,0,.587.426l4.549.093a.635.635,0,0,1,.371,1.14l-3.626,2.749a.634.634,0,0,0-.224.689l1.318,4.356a.635.635,0,0,1-.97.7l-3.736-2.6a.635.635,0,0,0-.725,0l-3.735,2.6a.635.635,0,0,1-.97-.7l1.318-4.356a.635.635,0,0,0-.224-.689l-3.626-2.749a.635.635,0,0,1,.371-1.14l4.55-.093a.635.635,0,0,0,.586-.426l1.494-4.3A.635.635,0,0,1,2945.243,1023.384Z" transform="translate(-2790.79 1368.043)"/><path class="a" d="M2945.243,1023.384l1.494,4.3a.635.635,0,0,0,.587.426l4.549.093a.635.635,0,0,1,.371,1.14l-3.626,2.749a.634.634,0,0,0-.224.689l1.318,4.356a.635.635,0,0,1-.97.7l-3.736-2.6a.635.635,0,0,0-.725,0l-3.735,2.6a.635.635,0,0,1-.97-.7l1.318-4.356a.635.635,0,0,0-.224-.689l-3.626-2.749a.635.635,0,0,1,.371-1.14l4.55-.093a.635.635,0,0,0,.586-.426l1.494-4.3A.635.635,0,0,1,2945.243,1023.384Z" transform="translate(-2769.79 1368.043)"/><path class="a" d="M2945.243,1023.384l1.494,4.3a.635.635,0,0,0,.587.426l4.549.093a.635.635,0,0,1,.371,1.14l-3.626,2.749a.634.634,0,0,0-.224.689l1.318,4.356a.635.635,0,0,1-.97.7l-3.736-2.6a.635.635,0,0,0-.725,0l-3.735,2.6a.635.635,0,0,1-.97-.7l1.318-4.356a.635.635,0,0,0-.224-.689l-3.626-2.749a.635.635,0,0,1,.371-1.14l4.55-.093a.635.635,0,0,0,.586-.426l1.494-4.3A.635.635,0,0,1,2945.243,1023.384Z" transform="translate(-2748.79 1368.043)"/><path class="a" d="M2945.243,1023.384l1.494,4.3a.635.635,0,0,0,.587.426l4.549.093a.635.635,0,0,1,.371,1.14l-3.626,2.749a.634.634,0,0,0-.224.689l1.318,4.356a.635.635,0,0,1-.97.7l-3.736-2.6a.635.635,0,0,0-.725,0l-3.735,2.6a.635.635,0,0,1-.97-.7l1.318-4.356a.635.635,0,0,0-.224-.689l-3.626-2.749a.635.635,0,0,1,.371-1.14l4.55-.093a.635.635,0,0,0,.586-.426l1.494-4.3A.635.635,0,0,1,2945.243,1023.384Z" transform="translate(-2727.79 1368.043)"/><path class="a" d="M2945.243,1023.384l1.494,4.3a.635.635,0,0,0,.587.426l4.549.093a.635.635,0,0,1,.371,1.14l-3.626,2.749a.634.634,0,0,0-.224.689l1.318,4.356a.635.635,0,0,1-.97.7l-3.736-2.6a.635.635,0,0,0-.725,0l-3.735,2.6a.635.635,0,0,1-.97-.7l1.318-4.356a.635.635,0,0,0-.224-.689l-3.626-2.749a.635.635,0,0,1,.371-1.14l4.55-.093a.635.635,0,0,0,.586-.426l1.494-4.3A.635.635,0,0,1,2945.243,1023.384Z" transform="translate(-2706.79 1368.043)"/></g></svg>