<?xml version="1.0" standalone="no"?>
<!DOCTYPE svg PUBLIC "-//W3C//DTD SVG 20010904//EN"
 "http://www.w3.org/TR/2001/REC-SVG-20010904/DTD/svg10.dtd">
<svg version="1.0" xmlns="http://www.w3.org/2000/svg"
 width="475.000000pt" height="475.000000pt" viewBox="0 0 475.000000 475.000000"
 preserveAspectRatio="xMidYMid meet">
<metadata>
Created by potrace 1.11, written by Peter Selinger 2001-2013
</metadata>
<g transform="translate(0.000000,475.000000) scale(0.100000,-0.100000)"
fill="#000000" stroke="none">
<path d="M4325 3228 c-16 -6 -38 -17 -47 -26 -19 -16 -130 -289 -196 -482 -51
-149 -96 -324 -89 -344 8 -20 53 -20 132 2 l60 17 7 66 c17 153 163 465 352
752 l18 27 -103 -1 c-57 0 -117 -5 -134 -11z"/>
<path d="M1200 3214 c-249 -37 -422 -168 -491 -371 -16 -48 -23 -92 -24 -148
0 -74 3 -88 37 -156 42 -84 117 -168 240 -266 94 -76 140 -139 146 -203 11
-113 -62 -237 -173 -294 -53 -27 -70 -31 -140 -31 -88 0 -137 19 -187 72 -59
62 -80 171 -55 290 16 75 64 192 103 255 l24 38 -27 17 c-21 14 -47 18 -113
18 -72 0 -92 -4 -135 -27 -175 -93 -266 -360 -186 -545 45 -102 168 -190 321
-229 89 -23 267 -15 365 16 196 62 351 187 433 350 53 106 72 175 72 267 0
132 -52 224 -188 333 -87 68 -156 152 -179 213 -20 56 -16 157 10 207 28 56
84 100 133 107 33 4 43 1 63 -20 49 -54 35 -161 -41 -295 -29 -52 -30 -54 -12
-74 30 -33 70 -48 124 -48 98 0 180 58 231 165 50 103 36 218 -33 282 -59 55
-212 92 -318 77z"/>
<path d="M3769 3017 c-19 -12 -70 -67 -114 -122 l-81 -100 1 57 c0 46 -4 61
-24 82 -33 35 -90 49 -162 41 l-59 -7 -20 -71 c-79 -275 -185 -600 -234 -717
-9 -21 -75 -66 -109 -74 -46 -11 -43 16 17 142 97 203 98 283 6 330 -25 12
-54 21 -64 20 -12 -2 -45 -41 -84 -98 -144 -213 -259 -350 -293 -350 -24 0
-24 22 1 95 64 185 211 385 326 441 65 32 94 27 115 -18 l16 -32 22 58 c26 71
21 106 -19 140 -77 64 -191 72 -298 20 -154 -74 -367 -368 -423 -583 -30 -115
-14 -196 57 -280 83 -98 151 -70 284 119 30 41 57 79 61 83 4 5 5 -20 2 -55
-6 -75 4 -100 50 -128 42 -26 161 -27 235 -1 28 10 52 15 52 12 0 -3 -9 -44
-20 -91 -11 -47 -23 -132 -26 -190 -6 -94 -5 -111 14 -153 24 -53 63 -77 127
-77 84 0 114 55 115 205 0 101 20 265 41 350 9 36 15 45 28 39 133 -54 261
-14 392 123 195 204 321 496 279 643 -15 53 -77 136 -115 154 -44 21 -56 20
-96 -7z m-43 -264 c-28 -90 -109 -252 -160 -320 -50 -66 -120 -130 -173 -157
-66 -34 -67 -23 -7 94 162 318 404 590 340 383z"/>
<path d="M2155 2823 c-65 -24 -132 -63 -200 -119 l-55 -44 -5 28 c-20 96 -41
105 -179 73 -99 -23 -115 -33 -97 -55 21 -25 24 -101 7 -159 -9 -30 -62 -169
-117 -309 -85 -212 -102 -263 -103 -311 -1 -53 2 -61 27 -83 32 -27 57 -29
161 -11 78 14 70 3 101 142 28 126 72 250 135 382 89 185 170 293 233 308 24
6 27 4 27 -18 0 -14 -22 -76 -49 -139 -27 -63 -74 -192 -106 -288 -84 -255
-81 -321 18 -372 65 -33 149 -30 217 8 30 17 60 40 68 52 13 20 12 22 -13 34
-36 16 -57 60 -62 133 -7 84 14 161 107 406 69 180 81 218 78 261 -2 42 -8 55
-29 71 -37 27 -104 31 -164 10z"/>
<path d="M4029 2274 c-42 -13 -82 -30 -88 -38 -7 -8 -14 -36 -18 -63 -8 -68
10 -85 86 -81 l56 3 38 74 c41 81 48 131 20 131 -10 -1 -52 -12 -94 -26z"/>
</g>
</svg>
